<svg width="808" height="561" viewBox="0 0 808 561" fill="none" xmlns="http://www.w3.org/2000/svg">
<path d="M143 481.482H84.6241C38.9936 481.482 2 444.488 2 398.858V189.624C2 143.994 38.9936 107 84.6241 107H124.5" stroke="#272FF5" stroke-width="3" stroke-miterlimit="10" stroke-linecap="round" stroke-linejoin="round"/>
<path d="M488 107L240.5 107" stroke="#272FF5" stroke-width="3" stroke-miterlimit="10" stroke-linecap="round" stroke-linejoin="round"/>
<path d="M548.5 107L629.376 107C675.006 107 712 143.994 712 189.624V255.5M570 481.482H629.376C675.006 481.482 712 444.488 712 398.858V332" stroke="#272FF5" stroke-width="3" stroke-miterlimit="10" stroke-linecap="round" stroke-linejoin="round"/>
<path d="M333 480.5H463" stroke="#272FF5" stroke-width="3" stroke-linecap="round"/>
<rect x="487" y="54" width="56" height="66" rx="20" fill="#EDFFFE"/>
<path d="M496.65 126.349V120.667M504.754 91.8184V90.2685H493.417V91.7977L504.754 91.8184ZM493.417 99.733V101.696H504.754V100.146L493.417 99.733ZM487.319 79.3161L485.395 88.3053L485.702 88.946L490.716 91.839L493.417 91.7977V93.9675L496.732 95.7447L496.343 97.4392L493.315 100.56L486.05 97.7905L479.768 93.6369C477.742 91.6944 478.356 88.4707 478.643 86.7761L481.773 73.9019C484.618 67.2892 513.533 67.2892 516.377 73.9019L519.836 87.6234C520.183 89.4006 519.672 92.1077 518.833 93.1409L512.1 97.7699L504.836 100.539L501.807 97.4186L501.418 95.724L504.733 93.9469V91.7977L507.455 91.8597L512.285 89.0906L512.591 88.2227L510.729 79.1921L487.319 79.3161ZM487.933 98.4518V104.362V98.4518ZM510.934 98.4518V104.362V98.4518ZM507.189 51.5632C506.8 47.3889 503.158 45.3018 499.086 45.3018C495.013 45.3224 491.371 47.4096 490.982 51.5632C490.777 53.733 491.268 58.8992 492.312 60.8417C493.233 62.5569 495.382 64.1894 497.776 64.7474C498.942 64.9127 499.229 64.9127 500.375 64.7474C502.769 64.1894 504.918 62.5569 505.839 60.8417C506.923 58.8992 507.394 53.7537 507.189 51.5632ZM480.443 123.911L486.071 107.255H512.96L518.587 123.911H480.443ZM512.96 107.73V129.862H486.071V107.73H512.96ZM535.531 118.497V106.945H546.97V118.497H535.531ZM524.112 118.497H535.552V130.048H524.112V118.497ZM535.531 118.497H546.97V130.048H535.531V118.497ZM475 134.677H558H475ZM491.555 126.349V120.667V126.349Z" stroke="black" stroke-width="2.28" stroke-miterlimit="22.9256" stroke-linecap="round"/>
<path d="M95.7941 15.59H89.1061L87.8741 19H85.7621L91.3061 3.754H93.6161L99.1381 19H97.0261L95.7941 15.59ZM95.2221 13.962L92.4501 6.218L89.6781 13.962H95.2221ZM103.556 8.902C103.908 8.21267 104.407 7.67733 105.052 7.296C105.712 6.91467 106.512 6.724 107.45 6.724V8.792H106.922C104.678 8.792 103.556 10.0093 103.556 12.444V19H101.554V6.944H103.556V8.902ZM124.259 6.724C125.198 6.724 126.034 6.922 126.767 7.318C127.501 7.69933 128.08 8.27867 128.505 9.056C128.931 9.83333 129.143 10.7793 129.143 11.894V19H127.163V12.18C127.163 10.9773 126.863 10.0607 126.261 9.43C125.675 8.78467 124.875 8.462 123.863 8.462C122.822 8.462 121.993 8.79933 121.377 9.474C120.761 10.134 120.453 11.0947 120.453 12.356V19H118.473V12.18C118.473 10.9773 118.173 10.0607 117.571 9.43C116.985 8.78467 116.185 8.462 115.173 8.462C114.132 8.462 113.303 8.79933 112.687 9.474C112.071 10.134 111.763 11.0947 111.763 12.356V19H109.761V6.944H111.763V8.682C112.159 8.05133 112.687 7.56733 113.347 7.23C114.022 6.89267 114.763 6.724 115.569 6.724C116.581 6.724 117.476 6.95133 118.253 7.406C119.031 7.86067 119.61 8.528 119.991 9.408C120.329 8.55733 120.886 7.89733 121.663 7.428C122.441 6.95867 123.306 6.724 124.259 6.724ZM131.679 12.928C131.679 11.696 131.929 10.618 132.427 9.694C132.926 8.75533 133.608 8.02933 134.473 7.516C135.353 7.00267 136.329 6.746 137.399 6.746C138.455 6.746 139.372 6.97333 140.149 7.428C140.927 7.88267 141.506 8.45467 141.887 9.144V6.944H143.911V19H141.887V16.756C141.491 17.46 140.897 18.0467 140.105 18.516C139.328 18.9707 138.419 19.198 137.377 19.198C136.307 19.198 135.339 18.934 134.473 18.406C133.608 17.878 132.926 17.1373 132.427 16.184C131.929 15.2307 131.679 14.1453 131.679 12.928ZM141.887 12.95C141.887 12.0407 141.704 11.2487 141.337 10.574C140.971 9.89933 140.472 9.386 139.841 9.034C139.225 8.66733 138.543 8.484 137.795 8.484C137.047 8.484 136.365 8.66 135.749 9.012C135.133 9.364 134.642 9.87733 134.275 10.552C133.909 11.2267 133.725 12.0187 133.725 12.928C133.725 13.852 133.909 14.6587 134.275 15.348C134.642 16.0227 135.133 16.5433 135.749 16.91C136.365 17.262 137.047 17.438 137.795 17.438C138.543 17.438 139.225 17.262 139.841 16.91C140.472 16.5433 140.971 16.0227 141.337 15.348C141.704 14.6587 141.887 13.8593 141.887 12.95ZM148.791 17.35H154.709V19H146.503V17.35L152.355 8.572H146.547V6.944H154.665V8.572L148.791 17.35ZM168.306 12.51C168.306 12.8913 168.284 13.2947 168.24 13.72H158.604C158.678 14.908 159.081 15.8393 159.814 16.514C160.562 17.174 161.464 17.504 162.52 17.504C163.386 17.504 164.104 17.306 164.676 16.91C165.263 16.4993 165.674 15.9567 165.908 15.282H168.064C167.742 16.4407 167.096 17.3867 166.128 18.12C165.16 18.8387 163.958 19.198 162.52 19.198C161.376 19.198 160.35 18.9413 159.44 18.428C158.546 17.9147 157.842 17.1887 157.328 16.25C156.815 15.2967 156.558 14.1967 156.558 12.95C156.558 11.7033 156.808 10.6107 157.306 9.672C157.805 8.73333 158.502 8.01467 159.396 7.516C160.306 7.00267 161.347 6.746 162.52 6.746C163.664 6.746 164.676 6.99533 165.556 7.494C166.436 7.99267 167.111 8.682 167.58 9.562C168.064 10.4273 168.306 11.41 168.306 12.51ZM166.238 12.092C166.238 11.3293 166.07 10.6767 165.732 10.134C165.395 9.57667 164.933 9.15867 164.346 8.88C163.774 8.58667 163.136 8.44 162.432 8.44C161.42 8.44 160.555 8.76267 159.836 9.408C159.132 10.0533 158.729 10.948 158.626 12.092H166.238ZM185.447 6.724C186.386 6.724 187.222 6.922 187.955 7.318C188.688 7.69933 189.268 8.27867 189.693 9.056C190.118 9.83333 190.331 10.7793 190.331 11.894V19H188.351V12.18C188.351 10.9773 188.05 10.0607 187.449 9.43C186.862 8.78467 186.063 8.462 185.051 8.462C184.01 8.462 183.181 8.79933 182.565 9.474C181.949 10.134 181.641 11.0947 181.641 12.356V19H179.661V12.18C179.661 10.9773 179.36 10.0607 178.759 9.43C178.172 8.78467 177.373 8.462 176.361 8.462C175.32 8.462 174.491 8.79933 173.875 9.474C173.259 10.134 172.951 11.0947 172.951 12.356V19H170.949V6.944H172.951V8.682C173.347 8.05133 173.875 7.56733 174.535 7.23C175.21 6.89267 175.95 6.724 176.757 6.724C177.769 6.724 178.664 6.95133 179.441 7.406C180.218 7.86067 180.798 8.528 181.179 9.408C181.516 8.55733 182.074 7.89733 182.851 7.428C183.628 6.95867 184.494 6.724 185.447 6.724ZM192.867 12.928C192.867 11.696 193.116 10.618 193.615 9.694C194.114 8.75533 194.796 8.02933 195.661 7.516C196.541 7.00267 197.516 6.746 198.587 6.746C199.643 6.746 200.56 6.97333 201.337 7.428C202.114 7.88267 202.694 8.45467 203.075 9.144V6.944H205.099V19H203.075V16.756C202.679 17.46 202.085 18.0467 201.293 18.516C200.516 18.9707 199.606 19.198 198.565 19.198C197.494 19.198 196.526 18.934 195.661 18.406C194.796 17.878 194.114 17.1373 193.615 16.184C193.116 15.2307 192.867 14.1453 192.867 12.928ZM203.075 12.95C203.075 12.0407 202.892 11.2487 202.525 10.574C202.158 9.89933 201.66 9.386 201.029 9.034C200.413 8.66733 199.731 8.484 198.983 8.484C198.235 8.484 197.553 8.66 196.937 9.012C196.321 9.364 195.83 9.87733 195.463 10.552C195.096 11.2267 194.913 12.0187 194.913 12.928C194.913 13.852 195.096 14.6587 195.463 15.348C195.83 16.0227 196.321 16.5433 196.937 16.91C197.553 17.262 198.235 17.438 198.983 17.438C199.731 17.438 200.413 17.262 201.029 16.91C201.66 16.5433 202.158 16.0227 202.525 15.348C202.892 14.6587 203.075 13.8593 203.075 12.95ZM213.454 6.746C214.495 6.746 215.405 6.97333 216.182 7.428C216.974 7.88267 217.561 8.45467 217.942 9.144V6.944H219.966V19.264C219.966 20.364 219.731 21.3393 219.262 22.19C218.793 23.0553 218.118 23.73 217.238 24.214C216.373 24.698 215.361 24.94 214.202 24.94C212.618 24.94 211.298 24.566 210.242 23.818C209.186 23.07 208.563 22.0507 208.372 20.76H210.352C210.572 21.4933 211.027 22.08 211.716 22.52C212.405 22.9747 213.234 23.202 214.202 23.202C215.302 23.202 216.197 22.8573 216.886 22.168C217.59 21.4787 217.942 20.5107 217.942 19.264V16.734C217.546 17.438 216.959 18.0247 216.182 18.494C215.405 18.9633 214.495 19.198 213.454 19.198C212.383 19.198 211.408 18.934 210.528 18.406C209.663 17.878 208.981 17.1373 208.482 16.184C207.983 15.2307 207.734 14.1453 207.734 12.928C207.734 11.696 207.983 10.618 208.482 9.694C208.981 8.75533 209.663 8.02933 210.528 7.516C211.408 7.00267 212.383 6.746 213.454 6.746ZM217.942 12.95C217.942 12.0407 217.759 11.2487 217.392 10.574C217.025 9.89933 216.527 9.386 215.896 9.034C215.28 8.66733 214.598 8.484 213.85 8.484C213.102 8.484 212.42 8.66 211.804 9.012C211.188 9.364 210.697 9.87733 210.33 10.552C209.963 11.2267 209.78 12.0187 209.78 12.928C209.78 13.852 209.963 14.6587 210.33 15.348C210.697 16.0227 211.188 16.5433 211.804 16.91C212.42 17.262 213.102 17.438 213.85 17.438C214.598 17.438 215.28 17.262 215.896 16.91C216.527 16.5433 217.025 16.0227 217.392 15.348C217.759 14.6587 217.942 13.8593 217.942 12.95ZM234.349 12.51C234.349 12.8913 234.327 13.2947 234.283 13.72H224.647C224.721 14.908 225.124 15.8393 225.857 16.514C226.605 17.174 227.507 17.504 228.563 17.504C229.429 17.504 230.147 17.306 230.719 16.91C231.306 16.4993 231.717 15.9567 231.951 15.282H234.107C233.785 16.4407 233.139 17.3867 232.171 18.12C231.203 18.8387 230.001 19.198 228.563 19.198C227.419 19.198 226.393 18.9413 225.483 18.428C224.589 17.9147 223.885 17.1887 223.371 16.25C222.858 15.2967 222.601 14.1967 222.601 12.95C222.601 11.7033 222.851 10.6107 223.349 9.672C223.848 8.73333 224.545 8.01467 225.439 7.516C226.349 7.00267 227.39 6.746 228.563 6.746C229.707 6.746 230.719 6.99533 231.599 7.494C232.479 7.99267 233.154 8.682 233.623 9.562C234.107 10.4273 234.349 11.41 234.349 12.51ZM232.281 12.092C232.281 11.3293 232.113 10.6767 231.775 10.134C231.438 9.57667 230.976 9.15867 230.389 8.88C229.817 8.58667 229.179 8.44 228.475 8.44C227.463 8.44 226.598 8.76267 225.879 9.408C225.175 10.0533 224.772 10.948 224.669 12.092H232.281ZM251.49 6.724C252.429 6.724 253.265 6.922 253.998 7.318C254.731 7.69933 255.311 8.27867 255.736 9.056C256.161 9.83333 256.374 10.7793 256.374 11.894V19H254.394V12.18C254.394 10.9773 254.093 10.0607 253.492 9.43C252.905 8.78467 252.106 8.462 251.094 8.462C250.053 8.462 249.224 8.79933 248.608 9.474C247.992 10.134 247.684 11.0947 247.684 12.356V19H245.704V12.18C245.704 10.9773 245.403 10.0607 244.802 9.43C244.215 8.78467 243.416 8.462 242.404 8.462C241.363 8.462 240.534 8.79933 239.918 9.474C239.302 10.134 238.994 11.0947 238.994 12.356V19H236.992V6.944H238.994V8.682C239.39 8.05133 239.918 7.56733 240.578 7.23C241.253 6.89267 241.993 6.724 242.8 6.724C243.812 6.724 244.707 6.95133 245.484 7.406C246.261 7.86067 246.841 8.528 247.222 9.408C247.559 8.55733 248.117 7.89733 248.894 7.428C249.671 6.95867 250.537 6.724 251.49 6.724Z" fill="black"/>
<rect x="466" y="430.248" width="105" height="73" rx="20" fill="#EDFFFE"/>
<path d="M481.545 517.507C481.504 517.507 481.474 517.507 481.434 517.497C480.878 517.436 480.483 516.928 480.544 516.38L482.879 495.178C482.981 493.695 482.839 492.365 482.455 491.146C482.323 490.557 482.131 489.745 481.899 488.76C480.706 483.713 479.644 479.063 479.867 477.6L481.626 464.735C481.676 464.359 481.929 464.044 482.283 463.912L482.96 463.668C483.223 463.577 483.516 463.597 483.759 463.719L488.824 466.319C488.874 466.339 488.915 466.369 488.965 466.4C489.875 467.07 491.2 467.111 492.595 466.501L501.158 460.795C501.289 460.084 500.996 458.134 500.592 457.434L491.918 460.967C491.24 461.282 490.472 461.201 489.805 460.744C489.774 460.724 489.744 460.703 489.714 460.673C489.471 460.46 489.097 460.124 488.652 459.718C487.419 458.591 484.153 455.606 483.365 455.342C477.147 453.849 467.199 452.854 465.319 454.925C465.046 455.392 464.621 456.083 464.126 456.895C462.721 459.18 459.041 465.171 459.01 466.715L463.034 475.772C463.175 474.859 463.347 474.046 463.489 473.396L464.904 462.399C464.975 461.841 465.481 461.455 466.037 461.526C466.593 461.597 466.977 462.105 466.906 462.663L465.481 473.752C464.662 477.407 464.48 480.565 464.945 482.759L467.351 494.071C467.472 494.873 467.502 495.553 467.442 496.203L466.785 516.522C466.764 517.081 466.299 517.558 465.743 517.507C465.187 517.487 464.753 517.02 464.763 516.461L465.43 496.092C465.47 495.543 465.45 495.015 465.369 494.426L462.963 483.185C462.741 482.149 462.66 481.032 462.67 479.915C462.65 479.885 462.63 479.844 462.619 479.814L457.1 467.375C457.059 467.283 457.029 467.192 457.019 467.101C456.786 465.364 458.737 461.8 462.407 455.829C462.923 454.986 463.357 454.286 463.62 453.829C463.651 453.778 463.681 453.737 463.711 453.687C467.149 449.493 483.688 453.321 483.86 453.362C484.851 453.595 486.711 455.179 490.017 458.205C490.421 458.571 490.755 458.886 490.998 459.089C491.058 459.129 491.078 459.119 491.129 459.099L500.258 455.372C500.329 455.342 500.4 455.321 500.47 455.311C500.925 455.23 501.795 455.291 502.442 456.601C503.028 457.779 503.716 461.211 502.644 462.216C502.604 462.257 502.563 462.287 502.513 462.318L493.656 468.228C493.606 468.258 493.565 468.289 493.515 468.309C491.442 469.243 489.38 469.162 487.853 468.075L483.526 465.852L481.868 477.885C481.686 479.093 483.213 485.531 483.87 488.283C484.113 489.288 484.305 490.111 484.416 490.618C484.861 491.999 485.023 493.573 484.901 495.36L482.556 516.614C482.495 517.121 482.061 517.507 481.545 517.507ZM473.487 517.507C473.457 517.507 473.437 517.507 473.407 517.507C472.851 517.467 472.436 516.979 472.476 516.421L473.892 497.909C473.983 496.721 473.973 496.041 473.568 494.457C473.558 494.416 473.548 494.386 473.548 494.345L472.193 484.983C472.113 484.424 472.497 483.916 473.053 483.835C473.609 483.754 474.114 484.14 474.195 484.698L475.54 494.01C475.985 495.756 476.015 496.68 475.914 498.082L474.498 516.593C474.458 517.101 474.013 517.507 473.487 517.507ZM478.108 449.503C476.379 449.503 474.539 448.894 473.012 447.746C470.697 446.01 469.626 443.461 470.06 440.77C470.08 440.648 470.121 440.547 470.171 440.445C469.787 440.212 469.535 439.795 469.514 439.318L469.322 436.485C469.029 432.261 472.709 429.844 476.49 429.336C480.423 428.808 484.81 430.26 485.579 434.088L486.054 437.815L491.23 437.531C491.786 437.51 492.261 437.927 492.292 438.495C492.322 439.054 491.897 439.531 491.341 439.562L485.498 439.876C485.437 439.897 485.366 439.917 485.306 439.917C485.184 439.927 485.073 439.927 484.962 439.897L472.022 440.597C472.072 440.75 472.092 440.922 472.062 441.095C471.749 443.024 472.537 444.852 474.225 446.121C476.005 447.462 478.381 447.848 479.998 447.076C482.263 445.989 483.304 444.233 483.183 441.714C483.152 441.156 483.587 440.679 484.143 440.648C484.679 440.618 485.174 441.054 485.205 441.613C485.366 444.944 483.87 447.462 480.868 448.904C480.028 449.31 479.088 449.503 478.108 449.503ZM471.526 439.176V439.216C471.526 439.196 471.526 439.186 471.526 439.176ZM478.047 431.265C477.612 431.265 477.178 431.296 476.753 431.357C474.114 431.712 471.112 433.235 471.324 436.353L471.476 438.607L484.022 437.927L483.587 434.413C483.152 432.281 480.615 431.265 478.047 431.265Z" fill="black"/>
<path d="M570.44 517.507C569.884 517.507 569.429 517.05 569.429 516.492V511.882H534.803V516.492C534.803 517.05 534.348 517.507 533.792 517.507C533.236 517.507 532.781 517.05 532.781 516.492V511.882H498.145V516.492C498.145 517.05 497.69 517.507 497.134 517.507C496.578 517.507 496.123 517.05 496.123 516.492V469.862C496.123 469.304 496.578 468.847 497.134 468.847C497.69 468.847 498.145 469.304 498.145 469.862V480.25H532.771V452.671H497.134C496.578 452.671 496.123 452.214 496.123 451.655V426.015C496.123 425.457 496.578 425 497.134 425C497.69 425 498.145 425.457 498.145 426.015V450.64H532.771V426.015C532.771 425.457 533.226 425 533.782 425C534.338 425 534.793 425.457 534.793 426.015V450.64H569.419V426.015C569.419 425.457 569.874 425 570.43 425C570.986 425 571.441 425.457 571.441 426.015V516.492C571.451 517.05 570.996 517.507 570.44 517.507ZM534.803 509.851H569.429V482.281H534.803V509.851ZM498.145 509.851H532.771V482.281H498.145V509.851ZM534.803 480.25H569.429V452.671H534.803V480.25ZM563.758 505.789H540.151C539.595 505.789 539.14 505.332 539.14 504.773V487.176C539.14 486.617 539.595 486.16 540.151 486.16H563.758C564.314 486.16 564.769 486.617 564.769 487.176V504.773C564.769 505.332 564.314 505.789 563.758 505.789ZM541.162 503.758H562.747V488.191H552.96V492.71C552.96 493.268 552.505 493.725 551.949 493.725C551.393 493.725 550.938 493.268 550.938 492.71V488.191H541.152V503.758H541.162ZM527.1 505.789H503.493C502.937 505.789 502.482 505.332 502.482 504.773V487.176C502.482 486.617 502.937 486.16 503.493 486.16H527.1C527.656 486.16 528.111 486.617 528.111 487.176V504.773C528.111 505.332 527.666 505.789 527.1 505.789ZM504.504 503.758H526.089V488.191H516.302V492.71C516.302 493.268 515.847 493.725 515.291 493.725C514.735 493.725 514.28 493.268 514.28 492.71V488.191H504.494V503.758H504.504ZM563.758 476.178H540.151C539.595 476.178 539.14 475.722 539.14 475.163V457.565C539.14 457.007 539.595 456.55 540.151 456.55H563.758C564.314 456.55 564.769 457.007 564.769 457.565V475.163C564.769 475.732 564.314 476.178 563.758 476.178ZM541.162 474.148H562.747V458.581H552.96V463.1C552.96 463.658 552.505 464.115 551.949 464.115C551.393 464.115 550.938 463.658 550.938 463.1V458.581H541.152V474.148H541.162ZM527.1 476.178H503.493C502.937 476.178 502.482 475.722 502.482 475.163V465.821C502.482 465.262 502.937 464.805 503.493 464.805C504.049 464.805 504.504 465.262 504.504 465.821V474.148H526.089V458.581H516.302V463.1C516.302 463.658 515.847 464.115 515.291 464.115C514.735 464.115 514.28 463.658 514.28 463.1V458.581H507.042C506.486 458.581 506.031 458.124 506.031 457.565C506.031 457.007 506.486 456.55 507.042 456.55H527.11C527.666 456.55 528.121 457.007 528.121 457.565V475.163C528.111 475.732 527.666 476.178 527.1 476.178ZM563.758 446.568H540.151C539.595 446.568 539.14 446.111 539.14 445.553V427.955C539.14 427.396 539.595 426.94 540.151 426.94H563.758C564.314 426.94 564.769 427.396 564.769 427.955V445.553C564.769 446.121 564.314 446.568 563.758 446.568ZM541.162 444.537H562.747V428.97H552.96V433.489C552.96 434.048 552.505 434.505 551.949 434.505C551.393 434.505 550.938 434.048 550.938 433.489V428.97H541.152V444.537H541.162ZM527.1 446.568H503.493C502.937 446.568 502.482 446.111 502.482 445.553V427.955C502.482 427.396 502.937 426.94 503.493 426.94H527.1C527.656 426.94 528.111 427.396 528.111 427.955V445.553C528.111 446.121 527.666 446.568 527.1 446.568ZM504.504 444.537H526.089V428.97H516.302V433.489C516.302 434.048 515.847 434.505 515.291 434.505C514.735 434.505 514.28 434.048 514.28 433.489V428.97H504.494V444.537H504.504Z" fill="black"/>
<path d="M466.744 538.294V543.42H472.332V545.07H466.744V550.35H472.992V552H464.742V536.644H472.992V538.294H466.744ZM482.314 552L479.454 547.512L476.704 552H474.614L478.508 546.016L474.614 539.944H476.88L479.74 544.41L482.468 539.944H484.558L480.686 545.906L484.58 552H482.314ZM488.551 542.166C488.947 541.477 489.534 540.905 490.311 540.45C491.103 539.981 492.02 539.746 493.061 539.746C494.132 539.746 495.1 540.003 495.965 540.516C496.845 541.029 497.534 541.755 498.033 542.694C498.532 543.618 498.781 544.696 498.781 545.928C498.781 547.145 498.532 548.231 498.033 549.184C497.534 550.137 496.845 550.878 495.965 551.406C495.1 551.934 494.132 552.198 493.061 552.198C492.034 552.198 491.125 551.971 490.333 551.516C489.556 551.047 488.962 550.467 488.551 549.778V557.72H486.549V539.944H488.551V542.166ZM496.735 545.928C496.735 545.019 496.552 544.227 496.185 543.552C495.818 542.877 495.32 542.364 494.689 542.012C494.073 541.66 493.391 541.484 492.643 541.484C491.91 541.484 491.228 541.667 490.597 542.034C489.981 542.386 489.482 542.907 489.101 543.596C488.734 544.271 488.551 545.055 488.551 545.95C488.551 546.859 488.734 547.659 489.101 548.348C489.482 549.023 489.981 549.543 490.597 549.91C491.228 550.262 491.91 550.438 492.643 550.438C493.391 550.438 494.073 550.262 494.689 549.91C495.32 549.543 495.818 549.023 496.185 548.348C496.552 547.659 496.735 546.852 496.735 545.928ZM512.416 545.51C512.416 545.891 512.394 546.295 512.35 546.72H502.714C502.788 547.908 503.191 548.839 503.924 549.514C504.672 550.174 505.574 550.504 506.63 550.504C507.496 550.504 508.214 550.306 508.786 549.91C509.373 549.499 509.784 548.957 510.018 548.282H512.174C511.852 549.441 511.206 550.387 510.238 551.12C509.27 551.839 508.068 552.198 506.63 552.198C505.486 552.198 504.46 551.941 503.55 551.428C502.656 550.915 501.952 550.189 501.438 549.25C500.925 548.297 500.668 547.197 500.668 545.95C500.668 544.703 500.918 543.611 501.416 542.672C501.915 541.733 502.612 541.015 503.506 540.516C504.416 540.003 505.457 539.746 506.63 539.746C507.774 539.746 508.786 539.995 509.666 540.494C510.546 540.993 511.221 541.682 511.69 542.562C512.174 543.427 512.416 544.41 512.416 545.51ZM510.348 545.092C510.348 544.329 510.18 543.677 509.842 543.134C509.505 542.577 509.043 542.159 508.456 541.88C507.884 541.587 507.246 541.44 506.542 541.44C505.53 541.44 504.665 541.763 503.946 542.408C503.242 543.053 502.839 543.948 502.736 545.092H510.348ZM514.311 545.928C514.311 544.696 514.56 543.618 515.059 542.694C515.557 541.755 516.239 541.029 517.105 540.516C517.985 540.003 518.967 539.746 520.053 539.746C520.991 539.746 521.864 539.966 522.671 540.406C523.477 540.831 524.093 541.396 524.519 542.1V535.72H526.543V552H524.519V549.734C524.123 550.453 523.536 551.047 522.759 551.516C521.981 551.971 521.072 552.198 520.031 552.198C518.96 552.198 517.985 551.934 517.105 551.406C516.239 550.878 515.557 550.137 515.059 549.184C514.56 548.231 514.311 547.145 514.311 545.928ZM524.519 545.95C524.519 545.041 524.335 544.249 523.969 543.574C523.602 542.899 523.103 542.386 522.473 542.034C521.857 541.667 521.175 541.484 520.427 541.484C519.679 541.484 518.997 541.66 518.381 542.012C517.765 542.364 517.273 542.877 516.907 543.552C516.54 544.227 516.357 545.019 516.357 545.928C516.357 546.852 516.54 547.659 516.907 548.348C517.273 549.023 517.765 549.543 518.381 549.91C518.997 550.262 519.679 550.438 520.427 550.438C521.175 550.438 521.857 550.262 522.473 549.91C523.103 549.543 523.602 549.023 523.969 548.348C524.335 547.659 524.519 546.859 524.519 545.95ZM530.96 537.986C530.579 537.986 530.256 537.854 529.992 537.59C529.728 537.326 529.596 537.003 529.596 536.622C529.596 536.241 529.728 535.918 529.992 535.654C530.256 535.39 530.579 535.258 530.96 535.258C531.327 535.258 531.635 535.39 531.884 535.654C532.148 535.918 532.28 536.241 532.28 536.622C532.28 537.003 532.148 537.326 531.884 537.59C531.635 537.854 531.327 537.986 530.96 537.986ZM531.928 539.944V552H529.926V539.944H531.928ZM540.466 550.504C541.346 550.504 542.079 550.299 542.666 549.888C543.253 549.477 543.656 548.891 543.876 548.128H546.032C545.739 549.272 545.159 550.211 544.294 550.944C543.443 551.663 542.373 552.073 541.082 552.176V553.276C541.947 553.261 542.637 553.445 543.15 553.826C543.663 554.207 543.92 554.75 543.92 555.454C543.92 556.143 543.671 556.693 543.172 557.104C542.673 557.515 542.028 557.72 541.236 557.72H538.706V556.422H540.84C541.324 556.422 541.676 556.349 541.896 556.202C542.131 556.055 542.248 555.806 542.248 555.454C542.248 555.117 542.131 554.875 541.896 554.728C541.676 554.581 541.324 554.508 540.84 554.508H539.74V552.154C538.728 552.051 537.833 551.736 537.056 551.208C536.279 550.665 535.67 549.947 535.23 549.052C534.805 548.143 534.592 547.109 534.592 545.95C534.592 544.703 534.841 543.618 535.34 542.694C535.839 541.755 536.528 541.029 537.408 540.516C538.303 540.003 539.322 539.746 540.466 539.746C541.947 539.746 543.165 540.105 544.118 540.824C545.086 541.543 545.724 542.54 546.032 543.816H543.876C543.671 543.083 543.267 542.503 542.666 542.078C542.079 541.653 541.346 541.44 540.466 541.44C539.322 541.44 538.398 541.836 537.694 542.628C536.99 543.405 536.638 544.513 536.638 545.95C536.638 547.402 536.99 548.524 537.694 549.316C538.398 550.108 539.322 550.504 540.466 550.504ZM547.955 545.928C547.955 544.696 548.205 543.618 548.703 542.694C549.202 541.755 549.884 541.029 550.749 540.516C551.629 540.003 552.605 539.746 553.675 539.746C554.731 539.746 555.648 539.973 556.425 540.428C557.203 540.883 557.782 541.455 558.163 542.144V539.944H560.187V552H558.163V549.756C557.767 550.46 557.173 551.047 556.381 551.516C555.604 551.971 554.695 552.198 553.653 552.198C552.583 552.198 551.615 551.934 550.749 551.406C549.884 550.878 549.202 550.137 548.703 549.184C548.205 548.231 547.955 547.145 547.955 545.928ZM558.163 545.95C558.163 545.041 557.98 544.249 557.613 543.574C557.247 542.899 556.748 542.386 556.117 542.034C555.501 541.667 554.819 541.484 554.071 541.484C553.323 541.484 552.641 541.66 552.025 542.012C551.409 542.364 550.918 542.877 550.551 543.552C550.185 544.227 550.001 545.019 550.001 545.928C550.001 546.852 550.185 547.659 550.551 548.348C550.918 549.023 551.409 549.543 552.025 549.91C552.641 550.262 553.323 550.438 554.071 550.438C554.819 550.438 555.501 550.262 556.117 549.91C556.748 549.543 557.247 549.023 557.613 548.348C557.98 547.659 558.163 546.859 558.163 545.95ZM551.233 538.646C551.336 537.898 551.578 537.326 551.959 536.93C552.355 536.534 552.847 536.336 553.433 536.336C553.712 536.336 553.947 536.387 554.137 536.49C554.343 536.578 554.585 536.71 554.863 536.886C555.069 537.033 555.252 537.15 555.413 537.238C555.575 537.311 555.751 537.348 555.941 537.348C556.191 537.348 556.403 537.267 556.579 537.106C556.755 536.945 556.865 536.71 556.909 536.402H558.053C557.965 537.135 557.723 537.7 557.327 538.096C556.931 538.492 556.44 538.69 555.853 538.69C555.575 538.69 555.325 538.646 555.105 538.558C554.9 538.455 554.665 538.309 554.401 538.118C554.167 537.971 553.976 537.861 553.829 537.788C553.697 537.715 553.536 537.678 553.345 537.678C553.096 537.678 552.883 537.759 552.707 537.92C552.546 538.081 552.443 538.323 552.399 538.646H551.233ZM568.828 552.198C567.699 552.198 566.672 551.941 565.748 551.428C564.839 550.915 564.12 550.189 563.592 549.25C563.079 548.297 562.822 547.197 562.822 545.95C562.822 544.718 563.086 543.633 563.614 542.694C564.157 541.741 564.89 541.015 565.814 540.516C566.738 540.003 567.772 539.746 568.916 539.746C570.06 539.746 571.094 540.003 572.018 540.516C572.942 541.015 573.668 541.733 574.196 542.672C574.739 543.611 575.01 544.703 575.01 545.95C575.01 547.197 574.732 548.297 574.174 549.25C573.632 550.189 572.891 550.915 571.952 551.428C571.014 551.941 569.972 552.198 568.828 552.198ZM568.828 550.438C569.547 550.438 570.222 550.269 570.852 549.932C571.483 549.595 571.989 549.089 572.37 548.414C572.766 547.739 572.964 546.918 572.964 545.95C572.964 544.982 572.774 544.161 572.392 543.486C572.011 542.811 571.512 542.313 570.896 541.99C570.28 541.653 569.613 541.484 568.894 541.484C568.161 541.484 567.486 541.653 566.87 541.99C566.269 542.313 565.785 542.811 565.418 543.486C565.052 544.161 564.868 544.982 564.868 545.95C564.868 546.933 565.044 547.761 565.396 548.436C565.763 549.111 566.247 549.617 566.848 549.954C567.45 550.277 568.11 550.438 568.828 550.438Z" fill="black"/>
<path d="M487.349 8.154C487.349 9.43 486.909 10.4933 486.029 11.344C485.164 12.18 483.837 12.598 482.047 12.598H479.099V19H477.097V3.666H482.047C483.778 3.666 485.091 4.084 485.985 4.92C486.895 5.756 487.349 6.834 487.349 8.154ZM482.047 10.948C483.162 10.948 483.983 10.706 484.511 10.222C485.039 9.738 485.303 9.04867 485.303 8.154C485.303 6.262 484.218 5.316 482.047 5.316H479.099V10.948H482.047ZM490.872 4.986C490.49 4.986 490.168 4.854 489.904 4.59C489.64 4.326 489.508 4.00333 489.508 3.622C489.508 3.24067 489.64 2.918 489.904 2.654C490.168 2.39 490.49 2.258 490.872 2.258C491.238 2.258 491.546 2.39 491.796 2.654C492.06 2.918 492.192 3.24067 492.192 3.622C492.192 4.00333 492.06 4.326 491.796 4.59C491.546 4.854 491.238 4.986 490.872 4.986ZM491.84 6.944V19H489.838V6.944H491.84ZM494.504 12.95C494.504 11.7033 494.753 10.618 495.252 9.694C495.75 8.75533 496.44 8.02933 497.32 7.516C498.214 7.00267 499.234 6.746 500.378 6.746C501.859 6.746 503.076 7.10533 504.03 7.824C504.998 8.54267 505.636 9.54 505.944 10.816H503.788C503.582 10.0827 503.179 9.50333 502.578 9.078C501.991 8.65267 501.258 8.44 500.378 8.44C499.234 8.44 498.31 8.836 497.606 9.628C496.902 10.4053 496.55 11.5127 496.55 12.95C496.55 14.402 496.902 15.524 497.606 16.316C498.31 17.108 499.234 17.504 500.378 17.504C501.258 17.504 501.991 17.2987 502.578 16.888C503.164 16.4773 503.568 15.8907 503.788 15.128H505.944C505.621 16.36 504.976 17.35 504.008 18.098C503.04 18.8313 501.83 19.198 500.378 19.198C499.234 19.198 498.214 18.9413 497.32 18.428C496.44 17.9147 495.75 17.1887 495.252 16.25C494.753 15.3113 494.504 14.2113 494.504 12.95ZM515.347 19L510.617 13.676V19H508.615V2.72H510.617V12.29L515.259 6.944H518.053L512.377 12.95L518.075 19H515.347ZM520.971 4.986C520.59 4.986 520.267 4.854 520.003 4.59C519.739 4.326 519.607 4.00333 519.607 3.622C519.607 3.24067 519.739 2.918 520.003 2.654C520.267 2.39 520.59 2.258 520.971 2.258C521.338 2.258 521.646 2.39 521.895 2.654C522.159 2.918 522.291 3.24067 522.291 3.622C522.291 4.00333 522.159 4.326 521.895 4.59C521.646 4.854 521.338 4.986 520.971 4.986ZM521.939 6.944V19H519.937V6.944H521.939ZM531.225 6.724C532.692 6.724 533.88 7.17133 534.789 8.066C535.699 8.946 536.153 10.222 536.153 11.894V19H534.173V12.18C534.173 10.9773 533.873 10.0607 533.271 9.43C532.67 8.78467 531.849 8.462 530.807 8.462C529.751 8.462 528.908 8.792 528.277 9.452C527.661 10.112 527.353 11.0727 527.353 12.334V19H525.351V6.944H527.353V8.66C527.749 8.044 528.285 7.56733 528.959 7.23C529.649 6.89267 530.404 6.724 531.225 6.724ZM544.395 6.746C545.437 6.746 546.346 6.97333 547.123 7.428C547.915 7.88267 548.502 8.45467 548.883 9.144V6.944H550.907V19.264C550.907 20.364 550.673 21.3393 550.203 22.19C549.734 23.0553 549.059 23.73 548.179 24.214C547.314 24.698 546.302 24.94 545.143 24.94C543.559 24.94 542.239 24.566 541.183 23.818C540.127 23.07 539.504 22.0507 539.313 20.76H541.293C541.513 21.4933 541.968 22.08 542.657 22.52C543.347 22.9747 544.175 23.202 545.143 23.202C546.243 23.202 547.138 22.8573 547.827 22.168C548.531 21.4787 548.883 20.5107 548.883 19.264V16.734C548.487 17.438 547.901 18.0247 547.123 18.494C546.346 18.9633 545.437 19.198 544.395 19.198C543.325 19.198 542.349 18.934 541.469 18.406C540.604 17.878 539.922 17.1373 539.423 16.184C538.925 15.2307 538.675 14.1453 538.675 12.928C538.675 11.696 538.925 10.618 539.423 9.694C539.922 8.75533 540.604 8.02933 541.469 7.516C542.349 7.00267 543.325 6.746 544.395 6.746ZM548.883 12.95C548.883 12.0407 548.7 11.2487 548.333 10.574C547.967 9.89933 547.468 9.386 546.837 9.034C546.221 8.66733 545.539 8.484 544.791 8.484C544.043 8.484 543.361 8.66 542.745 9.012C542.129 9.364 541.638 9.87733 541.271 10.552C540.905 11.2267 540.721 12.0187 540.721 12.928C540.721 13.852 540.905 14.6587 541.271 15.348C541.638 16.0227 542.129 16.5433 542.745 16.91C543.361 17.262 544.043 17.438 544.791 17.438C545.539 17.438 546.221 17.262 546.837 16.91C547.468 16.5433 547.967 16.0227 548.333 15.348C548.7 14.6587 548.883 13.8593 548.883 12.95Z" fill="black"/>
<path d="M733.123 237.154C733.123 238.43 732.683 239.493 731.803 240.344C730.937 241.18 729.61 241.598 727.821 241.598H724.873V248H722.871V232.666H727.821C729.551 232.666 730.864 233.084 731.759 233.92C732.668 234.756 733.123 235.834 733.123 237.154ZM727.821 239.948C728.935 239.948 729.757 239.706 730.285 239.222C730.813 238.738 731.077 238.049 731.077 237.154C731.077 235.262 729.991 234.316 727.821 234.316H724.873V239.948H727.821ZM734.863 241.928C734.863 240.696 735.112 239.618 735.611 238.694C736.11 237.755 736.792 237.029 737.657 236.516C738.537 236.003 739.512 235.746 740.583 235.746C741.639 235.746 742.556 235.973 743.333 236.428C744.11 236.883 744.69 237.455 745.071 238.144V235.944H747.095V248H745.071V245.756C744.675 246.46 744.081 247.047 743.289 247.516C742.512 247.971 741.602 248.198 740.561 248.198C739.49 248.198 738.522 247.934 737.657 247.406C736.792 246.878 736.11 246.137 735.611 245.184C735.112 244.231 734.863 243.145 734.863 241.928ZM745.071 241.95C745.071 241.041 744.888 240.249 744.521 239.574C744.154 238.899 743.656 238.386 743.025 238.034C742.409 237.667 741.727 237.484 740.979 237.484C740.231 237.484 739.549 237.66 738.933 238.012C738.317 238.364 737.826 238.877 737.459 239.552C737.092 240.227 736.909 241.019 736.909 241.928C736.909 242.852 737.092 243.659 737.459 244.348C737.826 245.023 738.317 245.543 738.933 245.91C739.549 246.262 740.231 246.438 740.979 246.438C741.727 246.438 742.409 246.262 743.025 245.91C743.656 245.543 744.154 245.023 744.521 244.348C744.888 243.659 745.071 242.859 745.071 241.95ZM749.73 241.95C749.73 240.703 749.98 239.618 750.478 238.694C750.977 237.755 751.666 237.029 752.546 236.516C753.441 236.003 754.46 235.746 755.604 235.746C757.086 235.746 758.303 236.105 759.256 236.824C760.224 237.543 760.862 238.54 761.17 239.816H759.014C758.809 239.083 758.406 238.503 757.804 238.078C757.218 237.653 756.484 237.44 755.604 237.44C754.46 237.44 753.536 237.836 752.832 238.628C752.128 239.405 751.776 240.513 751.776 241.95C751.776 243.402 752.128 244.524 752.832 245.316C753.536 246.108 754.46 246.504 755.604 246.504C756.484 246.504 757.218 246.299 757.804 245.888C758.391 245.477 758.794 244.891 759.014 244.128H761.17C760.848 245.36 760.202 246.35 759.234 247.098C758.266 247.831 757.056 248.198 755.604 248.198C754.46 248.198 753.441 247.941 752.546 247.428C751.666 246.915 750.977 246.189 750.478 245.25C749.98 244.311 749.73 243.211 749.73 241.95ZM770.573 248L765.843 242.676V248H763.841V231.72H765.843V241.29L770.485 235.944H773.279L767.603 241.95L773.301 248H770.573ZM776.198 233.986C775.816 233.986 775.494 233.854 775.23 233.59C774.966 233.326 774.834 233.003 774.834 232.622C774.834 232.241 774.966 231.918 775.23 231.654C775.494 231.39 775.816 231.258 776.198 231.258C776.564 231.258 776.872 231.39 777.122 231.654C777.386 231.918 777.518 232.241 777.518 232.622C777.518 233.003 777.386 233.326 777.122 233.59C776.872 233.854 776.564 233.986 776.198 233.986ZM777.166 235.944V248H775.164V235.944H777.166ZM786.452 235.724C787.918 235.724 789.106 236.171 790.016 237.066C790.925 237.946 791.38 239.222 791.38 240.894V248H789.4V241.18C789.4 239.977 789.099 239.061 788.498 238.43C787.896 237.785 787.075 237.462 786.034 237.462C784.978 237.462 784.134 237.792 783.504 238.452C782.888 239.112 782.58 240.073 782.58 241.334V248H780.578V235.944H782.58V237.66C782.976 237.044 783.511 236.567 784.186 236.23C784.875 235.893 785.63 235.724 786.452 235.724ZM799.622 235.746C800.663 235.746 801.573 235.973 802.35 236.428C803.142 236.883 803.729 237.455 804.11 238.144V235.944H806.134V248.264C806.134 249.364 805.899 250.339 805.43 251.19C804.961 252.055 804.286 252.73 803.406 253.214C802.541 253.698 801.529 253.94 800.37 253.94C798.786 253.94 797.466 253.566 796.41 252.818C795.354 252.07 794.731 251.051 794.54 249.76H796.52C796.74 250.493 797.195 251.08 797.884 251.52C798.573 251.975 799.402 252.202 800.37 252.202C801.47 252.202 802.365 251.857 803.054 251.168C803.758 250.479 804.11 249.511 804.11 248.264V245.734C803.714 246.438 803.127 247.025 802.35 247.494C801.573 247.963 800.663 248.198 799.622 248.198C798.551 248.198 797.576 247.934 796.696 247.406C795.831 246.878 795.149 246.137 794.65 245.184C794.151 244.231 793.902 243.145 793.902 241.928C793.902 240.696 794.151 239.618 794.65 238.694C795.149 237.755 795.831 237.029 796.696 236.516C797.576 236.003 798.551 235.746 799.622 235.746ZM804.11 241.95C804.11 241.041 803.927 240.249 803.56 239.574C803.193 238.899 802.695 238.386 802.064 238.034C801.448 237.667 800.766 237.484 800.018 237.484C799.27 237.484 798.588 237.66 797.972 238.012C797.356 238.364 796.865 238.877 796.498 239.552C796.131 240.227 795.948 241.019 795.948 241.928C795.948 242.852 796.131 243.659 796.498 244.348C796.865 245.023 797.356 245.543 797.972 245.91C798.588 246.262 799.27 246.438 800.018 246.438C800.766 246.438 801.448 246.262 802.064 245.91C802.695 245.543 803.193 245.023 803.56 244.348C803.927 243.659 804.11 242.859 804.11 241.95Z" fill="black"/>
<path d="M173.785 538.294V543.42H179.373V545.07H173.785V550.35H180.033V552H171.783V536.644H180.033V538.294H173.785ZM188.936 539.724C190.403 539.724 191.591 540.171 192.5 541.066C193.409 541.946 193.864 543.222 193.864 544.894V552H191.884V545.18C191.884 543.977 191.583 543.061 190.982 542.43C190.381 541.785 189.559 541.462 188.518 541.462C187.462 541.462 186.619 541.792 185.988 542.452C185.372 543.112 185.064 544.073 185.064 545.334V552H183.062V539.944H185.064V541.66C185.46 541.044 185.995 540.567 186.67 540.23C187.359 539.893 188.115 539.724 188.936 539.724ZM199.576 541.594V548.7C199.576 549.287 199.701 549.705 199.95 549.954C200.2 550.189 200.632 550.306 201.248 550.306H202.722V552H200.918C199.804 552 198.968 551.743 198.41 551.23C197.853 550.717 197.574 549.873 197.574 548.7V541.594H196.012V539.944H197.574V536.908H199.576V539.944H202.722V541.594H199.576ZM207.15 541.902C207.502 541.213 208.001 540.677 208.646 540.296C209.306 539.915 210.105 539.724 211.044 539.724V541.792H210.516C208.272 541.792 207.15 543.009 207.15 545.444V552H205.148V539.944H207.15V541.902ZM224.355 545.51C224.355 545.891 224.333 546.295 224.289 546.72H214.653C214.726 547.908 215.13 548.839 215.863 549.514C216.611 550.174 217.513 550.504 218.569 550.504C219.434 550.504 220.153 550.306 220.725 549.91C221.312 549.499 221.722 548.957 221.957 548.282H224.113C223.79 549.441 223.145 550.387 222.177 551.12C221.209 551.839 220.006 552.198 218.569 552.198C217.425 552.198 216.398 551.941 215.489 551.428C214.594 550.915 213.89 550.189 213.377 549.25C212.864 548.297 212.607 547.197 212.607 545.95C212.607 544.703 212.856 543.611 213.355 542.672C213.854 541.733 214.55 541.015 215.445 540.516C216.354 540.003 217.396 539.746 218.569 539.746C219.713 539.746 220.725 539.995 221.605 540.494C222.485 540.993 223.16 541.682 223.629 542.562C224.113 543.427 224.355 544.41 224.355 545.51ZM222.287 545.092C222.287 544.329 222.118 543.677 221.781 543.134C221.444 542.577 220.982 542.159 220.395 541.88C219.823 541.587 219.185 541.44 218.481 541.44C217.469 541.44 216.604 541.763 215.885 542.408C215.181 543.053 214.778 543.948 214.675 545.092H222.287ZM231.97 539.746C233.011 539.746 233.92 539.973 234.698 540.428C235.49 540.883 236.076 541.455 236.458 542.144V539.944H238.482V552.264C238.482 553.364 238.247 554.339 237.778 555.19C237.308 556.055 236.634 556.73 235.754 557.214C234.888 557.698 233.876 557.94 232.718 557.94C231.134 557.94 229.814 557.566 228.758 556.818C227.702 556.07 227.078 555.051 226.888 553.76H228.868C229.088 554.493 229.542 555.08 230.232 555.52C230.921 555.975 231.75 556.202 232.718 556.202C233.818 556.202 234.712 555.857 235.402 555.168C236.106 554.479 236.458 553.511 236.458 552.264V549.734C236.062 550.438 235.475 551.025 234.698 551.494C233.92 551.963 233.011 552.198 231.97 552.198C230.899 552.198 229.924 551.934 229.044 551.406C228.178 550.878 227.496 550.137 226.998 549.184C226.499 548.231 226.25 547.145 226.25 545.928C226.25 544.696 226.499 543.618 226.998 542.694C227.496 541.755 228.178 541.029 229.044 540.516C229.924 540.003 230.899 539.746 231.97 539.746ZM236.458 545.95C236.458 545.041 236.274 544.249 235.908 543.574C235.541 542.899 235.042 542.386 234.412 542.034C233.796 541.667 233.114 541.484 232.366 541.484C231.618 541.484 230.936 541.66 230.32 542.012C229.704 542.364 229.212 542.877 228.846 543.552C228.479 544.227 228.296 545.019 228.296 545.928C228.296 546.852 228.479 547.659 228.846 548.348C229.212 549.023 229.704 549.543 230.32 549.91C230.936 550.262 231.618 550.438 232.366 550.438C233.114 550.438 233.796 550.262 234.412 549.91C235.042 549.543 235.541 549.023 235.908 548.348C236.274 547.659 236.458 546.859 236.458 545.95ZM241.117 545.928C241.117 544.696 241.366 543.618 241.865 542.694C242.364 541.755 243.046 541.029 243.911 540.516C244.791 540.003 245.766 539.746 246.837 539.746C247.893 539.746 248.81 539.973 249.587 540.428C250.364 540.883 250.944 541.455 251.325 542.144V539.944H253.349V552H251.325V549.756C250.929 550.46 250.335 551.047 249.543 551.516C248.766 551.971 247.856 552.198 246.815 552.198C245.744 552.198 244.776 551.934 243.911 551.406C243.046 550.878 242.364 550.137 241.865 549.184C241.366 548.231 241.117 547.145 241.117 545.928ZM251.325 545.95C251.325 545.041 251.142 544.249 250.775 543.574C250.408 542.899 249.91 542.386 249.279 542.034C248.663 541.667 247.981 541.484 247.233 541.484C246.485 541.484 245.803 541.66 245.187 542.012C244.571 542.364 244.08 542.877 243.713 543.552C243.346 544.227 243.163 545.019 243.163 545.928C243.163 546.852 243.346 547.659 243.713 548.348C244.08 549.023 244.571 549.543 245.187 549.91C245.803 550.262 246.485 550.438 247.233 550.438C247.981 550.438 248.663 550.262 249.279 549.91C249.91 549.543 250.408 549.023 250.775 548.348C251.142 547.659 251.325 546.859 251.325 545.95ZM267.503 541.594H264.973V552H262.971V541.594H261.409V539.944H262.971V539.086C262.971 537.737 263.316 536.754 264.005 536.138C264.709 535.507 265.831 535.192 267.371 535.192V536.864C266.491 536.864 265.868 537.04 265.501 537.392C265.149 537.729 264.973 538.294 264.973 539.086V539.944H267.503V541.594ZM270.872 537.986C270.49 537.986 270.168 537.854 269.904 537.59C269.64 537.326 269.508 537.003 269.508 536.622C269.508 536.241 269.64 535.918 269.904 535.654C270.168 535.39 270.49 535.258 270.872 535.258C271.238 535.258 271.546 535.39 271.796 535.654C272.06 535.918 272.192 536.241 272.192 536.622C272.192 537.003 272.06 537.326 271.796 537.59C271.546 537.854 271.238 537.986 270.872 537.986ZM271.84 539.944V552H269.838V539.944H271.84ZM281.126 539.724C282.592 539.724 283.78 540.171 284.69 541.066C285.599 541.946 286.054 543.222 286.054 544.894V552H284.074V545.18C284.074 543.977 283.773 543.061 283.172 542.43C282.57 541.785 281.749 541.462 280.708 541.462C279.652 541.462 278.808 541.792 278.178 542.452C277.562 543.112 277.254 544.073 277.254 545.334V552H275.252V539.944H277.254V541.66C277.65 541.044 278.185 540.567 278.86 540.23C279.549 539.893 280.304 539.724 281.126 539.724ZM288.576 545.928C288.576 544.696 288.825 543.618 289.324 542.694C289.823 541.755 290.505 541.029 291.37 540.516C292.25 540.003 293.225 539.746 294.296 539.746C295.352 539.746 296.269 539.973 297.046 540.428C297.823 540.883 298.403 541.455 298.784 542.144V539.944H300.808V552H298.784V549.756C298.388 550.46 297.794 551.047 297.002 551.516C296.225 551.971 295.315 552.198 294.274 552.198C293.203 552.198 292.235 551.934 291.37 551.406C290.505 550.878 289.823 550.137 289.324 549.184C288.825 548.231 288.576 547.145 288.576 545.928ZM298.784 545.95C298.784 545.041 298.601 544.249 298.234 543.574C297.867 542.899 297.369 542.386 296.738 542.034C296.122 541.667 295.44 541.484 294.692 541.484C293.944 541.484 293.262 541.66 292.646 542.012C292.03 542.364 291.539 542.877 291.172 543.552C290.805 544.227 290.622 545.019 290.622 545.928C290.622 546.852 290.805 547.659 291.172 548.348C291.539 549.023 292.03 549.543 292.646 549.91C293.262 550.262 293.944 550.438 294.692 550.438C295.44 550.438 296.122 550.262 296.738 549.91C297.369 549.543 297.867 549.023 298.234 548.348C298.601 547.659 298.784 546.859 298.784 545.95ZM306.193 535.72V552H304.191V535.72H306.193Z" fill="black"/>
<path d="M296.939 301.854H304.015V304H294.3V283.787H296.939V301.854ZM313.748 304.261C312.26 304.261 310.906 303.923 309.688 303.246C308.49 302.569 307.542 301.612 306.846 300.375C306.17 299.118 305.831 297.668 305.831 296.025C305.831 294.401 306.179 292.97 306.875 291.733C307.591 290.476 308.557 289.519 309.775 288.862C310.993 288.185 312.356 287.847 313.864 287.847C315.372 287.847 316.735 288.185 317.953 288.862C319.171 289.519 320.128 290.467 320.824 291.704C321.54 292.941 321.897 294.382 321.897 296.025C321.897 297.668 321.53 299.118 320.795 300.375C320.08 301.612 319.104 302.569 317.866 303.246C316.629 303.923 315.256 304.261 313.748 304.261ZM313.748 301.941C314.696 301.941 315.585 301.719 316.416 301.274C317.248 300.829 317.915 300.162 318.417 299.273C318.939 298.384 319.2 297.301 319.2 296.025C319.2 294.749 318.949 293.666 318.446 292.777C317.944 291.888 317.286 291.23 316.474 290.805C315.662 290.36 314.783 290.138 313.835 290.138C312.869 290.138 311.979 290.36 311.167 290.805C310.375 291.23 309.737 291.888 309.253 292.777C308.77 293.666 308.528 294.749 308.528 296.025C308.528 297.32 308.76 298.413 309.224 299.302C309.708 300.191 310.346 300.858 311.138 301.303C311.931 301.728 312.801 301.941 313.748 301.941ZM331.921 287.847C333.294 287.847 334.493 288.147 335.517 288.746C336.561 289.345 337.335 290.099 337.837 291.008V288.108H340.505V304.348C340.505 305.798 340.196 307.084 339.577 308.205C338.959 309.346 338.069 310.235 336.909 310.873C335.769 311.511 334.435 311.83 332.907 311.83C330.819 311.83 329.079 311.337 327.687 310.351C326.295 309.365 325.474 308.021 325.222 306.32H327.832C328.122 307.287 328.722 308.06 329.63 308.64C330.539 309.239 331.631 309.539 332.907 309.539C334.357 309.539 335.537 309.085 336.445 308.176C337.373 307.267 337.837 305.991 337.837 304.348V301.013C337.315 301.941 336.542 302.714 335.517 303.333C334.493 303.952 333.294 304.261 331.921 304.261C330.51 304.261 329.224 303.913 328.064 303.217C326.924 302.521 326.025 301.545 325.367 300.288C324.71 299.031 324.381 297.601 324.381 295.996C324.381 294.372 324.71 292.951 325.367 291.733C326.025 290.496 326.924 289.539 328.064 288.862C329.224 288.185 330.51 287.847 331.921 287.847ZM337.837 296.025C337.837 294.826 337.596 293.782 337.112 292.893C336.629 292.004 335.972 291.327 335.14 290.863C334.328 290.38 333.429 290.138 332.443 290.138C331.457 290.138 330.558 290.37 329.746 290.834C328.934 291.298 328.287 291.975 327.803 292.864C327.32 293.753 327.078 294.797 327.078 295.996C327.078 297.214 327.32 298.277 327.803 299.186C328.287 300.075 328.934 300.762 329.746 301.245C330.558 301.709 331.457 301.941 332.443 301.941C333.429 301.941 334.328 301.709 335.14 301.245C335.972 300.762 336.629 300.075 337.112 299.186C337.596 298.277 337.837 297.224 337.837 296.025ZM346.328 285.527C345.825 285.527 345.4 285.353 345.052 285.005C344.704 284.657 344.53 284.232 344.53 283.729C344.53 283.226 344.704 282.801 345.052 282.453C345.4 282.105 345.825 281.931 346.328 281.931C346.811 281.931 347.217 282.105 347.546 282.453C347.894 282.801 348.068 283.226 348.068 283.729C348.068 284.232 347.894 284.657 347.546 285.005C347.217 285.353 346.811 285.527 346.328 285.527ZM347.604 288.108V304H344.965V288.108H347.604ZM357.728 304.261C356.51 304.261 355.417 304.058 354.451 303.652C353.484 303.227 352.72 302.647 352.16 301.912C351.599 301.158 351.29 300.298 351.232 299.331H353.958C354.035 300.124 354.402 300.771 355.06 301.274C355.736 301.777 356.616 302.028 357.699 302.028C358.704 302.028 359.497 301.806 360.077 301.361C360.657 300.916 360.947 300.356 360.947 299.679C360.947 298.983 360.637 298.471 360.019 298.142C359.4 297.794 358.443 297.456 357.148 297.127C355.968 296.818 355.002 296.508 354.248 296.199C353.513 295.87 352.875 295.397 352.334 294.778C351.812 294.14 351.551 293.309 351.551 292.284C351.551 291.472 351.792 290.728 352.276 290.051C352.759 289.374 353.445 288.843 354.335 288.456C355.224 288.05 356.239 287.847 357.38 287.847C359.139 287.847 360.56 288.292 361.643 289.181C362.725 290.07 363.305 291.288 363.383 292.835H360.744C360.686 292.004 360.347 291.337 359.729 290.834C359.129 290.331 358.317 290.08 357.293 290.08C356.345 290.08 355.591 290.283 355.031 290.689C354.47 291.095 354.19 291.627 354.19 292.284C354.19 292.806 354.354 293.241 354.683 293.589C355.031 293.918 355.456 294.188 355.959 294.401C356.481 294.594 357.196 294.817 358.105 295.068C359.245 295.377 360.173 295.687 360.889 295.996C361.604 296.286 362.213 296.731 362.716 297.33C363.238 297.929 363.508 298.712 363.528 299.679C363.528 300.549 363.286 301.332 362.803 302.028C362.319 302.724 361.633 303.275 360.744 303.681C359.874 304.068 358.868 304.261 357.728 304.261ZM370.472 290.283V299.65C370.472 300.423 370.636 300.974 370.965 301.303C371.294 301.612 371.864 301.767 372.676 301.767H374.619V304H372.241C370.772 304 369.67 303.662 368.935 302.985C368.2 302.308 367.833 301.197 367.833 299.65V290.283H365.774V288.108H367.833V284.106H370.472V288.108H374.619V290.283H370.472ZM379.179 285.527C378.677 285.527 378.251 285.353 377.903 285.005C377.555 284.657 377.381 284.232 377.381 283.729C377.381 283.226 377.555 282.801 377.903 282.453C378.251 282.105 378.677 281.931 379.179 281.931C379.663 281.931 380.069 282.105 380.397 282.453C380.745 282.801 380.919 283.226 380.919 283.729C380.919 284.232 380.745 284.657 380.397 285.005C380.069 285.353 379.663 285.527 379.179 285.527ZM380.455 288.108V304H377.816V288.108H380.455ZM383.967 296.025C383.967 294.382 384.296 292.951 384.953 291.733C385.611 290.496 386.519 289.539 387.679 288.862C388.859 288.185 390.202 287.847 391.71 287.847C393.663 287.847 395.268 288.321 396.524 289.268C397.8 290.215 398.641 291.53 399.047 293.212H396.205C395.935 292.245 395.403 291.482 394.61 290.921C393.837 290.36 392.87 290.08 391.71 290.08C390.202 290.08 388.984 290.602 388.056 291.646C387.128 292.671 386.664 294.13 386.664 296.025C386.664 297.939 387.128 299.418 388.056 300.462C388.984 301.506 390.202 302.028 391.71 302.028C392.87 302.028 393.837 301.757 394.61 301.216C395.384 300.675 395.915 299.901 396.205 298.896H399.047C398.622 300.52 397.771 301.825 396.495 302.811C395.219 303.778 393.624 304.261 391.71 304.261C390.202 304.261 388.859 303.923 387.679 303.246C386.519 302.569 385.611 301.612 384.953 300.375C384.296 299.138 383.967 297.688 383.967 296.025ZM401.582 295.996C401.582 294.372 401.911 292.951 402.568 291.733C403.226 290.496 404.125 289.539 405.265 288.862C406.425 288.185 407.711 287.847 409.122 287.847C410.514 287.847 411.723 288.147 412.747 288.746C413.772 289.345 414.536 290.099 415.038 291.008V288.108H417.706V304H415.038V301.042C414.516 301.97 413.733 302.743 412.689 303.362C411.665 303.961 410.466 304.261 409.093 304.261C407.682 304.261 406.406 303.913 405.265 303.217C404.125 302.521 403.226 301.545 402.568 300.288C401.911 299.031 401.582 297.601 401.582 295.996ZM415.038 296.025C415.038 294.826 414.797 293.782 414.313 292.893C413.83 292.004 413.173 291.327 412.341 290.863C411.529 290.38 410.63 290.138 409.644 290.138C408.658 290.138 407.759 290.37 406.947 290.834C406.135 291.298 405.488 291.975 405.004 292.864C404.521 293.753 404.279 294.797 404.279 295.996C404.279 297.214 404.521 298.277 405.004 299.186C405.488 300.075 406.135 300.762 406.947 301.245C407.759 301.709 408.658 301.941 409.644 301.941C410.63 301.941 411.529 301.709 412.341 301.245C413.173 300.762 413.83 300.075 414.313 299.186C414.797 298.277 415.038 297.224 415.038 296.025Z" fill="black"/>
<g clip-path="url(#clip0_110_84)">
<rect x="703" y="276.997" width="56" height="66.2914" rx="20" fill="#EDFFFE"/>
</g>
<rect x="129" y="54" width="106" height="66" rx="20" fill="#EDFFFE"/>
<path d="M172.576 127.244H142.139M139.215 94.8124H126.756C125.425 94.8124 124.335 95.9015 124.335 97.2301V120.797C124.335 120.797 163.231 114.146 188.155 109.885V98.1449L179.624 95.4441L174.474 58.4168C173.776 53.9735 170.285 51.7083 165.965 51.7083H139.215V94.8124ZM139.215 94.8124H156.583L158.765 103.285H172.969L179.602 94.8342L139.215 94.8124ZM170.22 83.0944L172.969 102.915M209.232 111.889H239.604V92.8304H209.232V111.889ZM132.866 115.678C138.102 115.678 142.357 119.926 142.357 125.153C142.357 130.38 138.102 134.628 132.866 134.628C127.629 134.628 123.375 130.38 123.375 125.153C123.396 119.926 127.629 115.678 132.866 115.678ZM184.14 109.101C191.166 109.101 196.839 114.785 196.839 121.777C196.839 128.79 191.144 134.453 184.14 134.453C177.136 134.453 171.441 128.769 171.441 121.777C171.441 114.764 177.136 109.101 184.14 109.101ZM194.046 113.849V46.3938H203.428V118.052H235.218V123.236L195.791 126.852L194.046 113.849ZM165.55 103.263L163.827 91.872C163.608 90.3909 163.107 89.7157 161.645 89.2365L155.732 87.4723C155.208 87.3634 154.357 87.0802 154.51 86.3615L156.67 79.7619L161.536 83.0073C162.125 83.3122 162.648 83.53 163.303 83.5082L171.354 83.0726C174.169 82.7894 173.078 78.6075 172.074 78.5422L163.718 78.1501C163.543 78.1501 163.39 78.063 163.259 77.9323C161.427 76.3859 157.783 72.8356 155.819 71.9644C152.197 70.3526 148.553 71.1367 147.266 75.58L144.495 88.496C144.146 90.8919 144.342 92.068 147.179 94.8124L165.55 103.263ZM209.232 86.5575H239.604V67.4993H209.232V86.5575ZM161.427 62.0977C161.427 61.4225 161.317 60.8344 161.099 60.3553C159.747 57.2624 152.001 56.2605 151.128 60.8562C150.888 62.1848 150.888 65.3866 151.455 66.6717C152.066 68.0874 153.725 69.4161 155.295 69.7428C157.477 70.2219 159.463 69.5685 160.401 67.3904C161.012 65.9529 161.427 63.2521 161.427 62.0977Z" stroke="black" stroke-width="2.28" stroke-miterlimit="22.9256" stroke-linecap="round" stroke-linejoin="round"/>
<g clip-path="url(#clip1_110_84)">
<path d="M776.11 307.18C774.99 306.23 773.69 306.14 771.9 306.59C771.99 306.28 772.04 305.92 772.04 305.56C772.04 304.52 771.73 303.09 770.02 301.8C768.4 300.54 766.16 301.12 762.8 302.47V268.4C762.8 268.4 762.75 268.35 762.75 268.31C762.75 268.18 762.75 268.04 762.66 267.91C762.66 267.86 762.66 267.82 762.61 267.78C762.57 267.64 762.48 267.5 762.34 267.38V267.33L750.21 255.45C749.94 255.18 749.54 255 749.13 255H712.38C712.02 255 711.62 255.18 711.34 255.45L699.2 267.33C699.2 267.33 699.2 267.38 699.15 267.38C699.07 267.51 698.98 267.65 698.93 267.78C698.88 267.82 698.88 267.86 698.84 267.91C698.79 268.05 698.79 268.19 698.79 268.31C698.79 268.36 698.74 268.36 698.74 268.36V298.12C696.78 298.07 694.62 298.07 692.24 298.07H679.52C678.67 298.07 678 298.75 678 299.6V326.85C678 327.66 678.67 328.37 679.52 328.37H692.02C693.9 328.96 706.85 332.94 723.57 332.94C739.13 332.94 758.04 329.49 774.32 316.58C774.68 316.31 777.86 314.03 777.99 311.02C778.04 310.04 777.77 308.52 776.11 307.18ZM690.72 325.33H681V301.08H690.72V325.33ZM768.18 304.17C768.94 304.76 769.03 305.25 769.03 305.52C769.03 306.42 768.08 307.54 767.32 308.26C767.01 308.43 766.65 308.57 766.29 308.71C765.26 309.15 764.1 309.65 762.79 310.19V305.75C765.18 304.75 767.59 303.81 768.18 304.17ZM748.55 258.05L757.56 266.88H738.83L736.81 258.05H748.55ZM727.88 258.05H733.66L735.68 266.88H725.87L727.88 258.05ZM725.47 269.93H736.09V280.55H725.47V269.93ZM713 258.05H724.74L722.73 266.88H704L713 258.05ZM701.79 269.93H722.45V282.03C722.45 282.88 723.13 283.55 723.94 283.55H737.61C738.42 283.55 739.09 282.88 739.09 282.03V269.93H759.75V311.35C756.56 312.56 752.85 313.81 748.32 314.93C748.49 314.4 748.59 313.95 748.63 313.45C748.77 310.71 748.13 308.57 746.66 307.09C744.56 304.98 741.56 305.12 741.56 305.12C727.57 305.39 725.19 304 722.46 302.38C719.6 300.68 716.36 298.79 701.8 298.21V269.93H701.79ZM772.53 314.16C741.51 338.68 700.72 327.84 693.77 325.73V301.08C714.43 301.21 717.89 303.23 720.93 304.97C724.07 306.82 726.76 308.42 741.64 308.16C741.64 308.16 743.35 308.11 744.51 309.23C745.36 310.08 745.72 311.42 745.58 313.27C745.58 313.71 745.49 315.06 742.8 316.13C742.8 316.18 742.75 316.18 742.75 316.18H742.7C739.88 317.3 733.6 318.25 719.93 316.45C719.12 316.4 718.36 316.95 718.22 317.8C718.14 318.61 718.72 319.37 719.57 319.5C724.77 320.18 729.29 320.49 733.11 320.49C737.64 320.49 741.17 319.99 743.69 319.06C754.9 316.81 762.47 313.63 767.49 311.48C770.58 310.19 773.49 308.93 774.16 309.47C774.92 310.09 774.97 310.59 774.97 310.9C774.95 312.19 773.2 313.68 772.53 314.16Z" fill="#1A171B"/>
<path d="M685.89 307.85C686.87 307.85 687.63 307.04 687.63 306.05C687.63 305.11 686.87 304.31 685.89 304.31C684.91 304.31 684.15 305.12 684.15 306.05C684.14 307.04 684.9 307.85 685.89 307.85Z" fill="#1A171B"/>
</g>
<rect x="151" y="447" width="160" height="56" rx="20" fill="#EDFFFE"/>
<path d="M303.552 510.918H215.141M175.565 495.647C181.717 495.647 186.701 500.649 186.701 506.824C186.701 512.998 181.717 518 175.565 518C169.413 518 164.429 512.998 164.429 506.824C164.429 500.649 169.413 495.647 175.565 495.647ZM175.565 495.647H153.014V510.918H165.038C165.038 510.918 163 505.011 166.5 500.329C170 495.647 175.565 495.647 175.565 495.647ZM194.02 510.918H185.944M309.457 462.827H292.203V474.912H314.606M314.03 495.647C320.182 495.647 325.166 500.649 325.166 506.824C325.166 512.998 320.182 518 314.03 518C307.878 518 302.894 512.998 302.894 506.824C302.894 500.649 307.878 495.647 314.03 495.647ZM275.277 495.647H144V436H275.277V495.647ZM275.277 510.918V443.974C276.198 444.023 286.479 444.221 287.433 444.618C288.189 445.228 308.651 461.044 308.75 461.275L314.622 474.912L329.015 476.315C330.742 476.48 332.074 477.9 332.107 479.237L333.44 493.831L334.936 494.937L334.986 507.533C335.15 509.647 333.884 510.604 331.745 510.753C330.791 510.819 330.298 510.852 328.801 510.868L325.002 510.918H275.277ZM204.4 495.647C210.551 495.647 215.535 500.649 215.535 506.824C215.535 512.998 210.551 518 204.4 518C198.248 518 193.264 512.998 193.264 506.824C193.264 500.649 198.248 495.647 204.4 495.647Z" stroke="black" stroke-width="2" stroke-miterlimit="22.9256" stroke-linecap="round" stroke-linejoin="round"/>
<defs>
<clipPath id="clip0_110_84">
<rect width="65" height="92.4062" fill="white" transform="translate(686 263.939)"/>
</clipPath>
<clipPath id="clip1_110_84">
<rect width="100" height="77.95" fill="white" transform="translate(678 255)"/>
</clipPath>
</defs>
</svg>
