<svg width="200" height="96" viewBox="0 0 200 96" fill="none" xmlns="http://www.w3.org/2000/svg">
<path d="M61.1866 63.9436H30.9907V95.0643H61.1866V63.9436Z" fill="white"/>
<path d="M46.0884 63.1247H61.1863V47.5643C61.1863 56.1553 54.424 63.1247 46.0884 63.1247Z" fill="white"/>
<path d="M46.0884 32.0039C54.424 32.0039 61.1863 38.9733 61.1863 47.5642V32.0039H46.0884Z" fill="white"/>
<path d="M61.1866 0.06427H30.9907V31.185H61.1866V0.06427Z" fill="white"/>
<path d="M30.1959 0.06427C13.5166 0.06427 0 13.9949 0 31.185H30.1959V0.06427Z" fill="white"/>
<path d="M92.1768 63.1246C92.1768 45.9345 78.6602 32.0039 61.981 32.0039V63.1246H92.1768Z" fill="white"/>
<path d="M0 32.0039C0 49.194 13.5166 63.1246 30.1959 63.1246V32.0039H0Z" fill="white"/>
<path d="M30.1959 95.0643C13.5166 95.0643 0 81.1337 0 63.9436H30.1959V95.0643Z" fill="white"/>
<path d="M61.981 0.06427C78.6602 0.06427 92.1768 13.9949 92.1768 31.185H61.981V0.06427Z" fill="white"/>
<path d="M61.981 95.0643C78.6602 95.0643 92.1768 81.1337 92.1768 63.9436H61.981V95.0643Z" fill="white"/>
<path d="M102.984 47.2536C102.412 46.9915 101.967 46.623 101.641 46.1561C101.315 45.6893 101.148 45.1406 101.14 44.5264H102.666C102.722 45.0587 102.928 45.501 103.302 45.8613C103.675 46.2217 104.216 46.4018 104.931 46.4018C105.614 46.4018 106.147 46.2298 106.544 45.8777C106.933 45.5255 107.132 45.0751 107.132 44.5264C107.132 44.0924 107.013 43.7484 106.79 43.4781C106.56 43.2079 106.274 43.0031 105.924 42.8639C105.582 42.7247 105.114 42.5691 104.525 42.4135C103.802 42.2169 103.222 42.0286 102.793 41.832C102.356 41.6355 101.991 41.3324 101.681 40.9148C101.371 40.4971 101.22 39.9402 101.22 39.2359C101.22 38.6217 101.371 38.073 101.673 37.598C101.975 37.123 102.404 36.7544 102.952 36.5005C103.5 36.2385 104.136 36.1156 104.843 36.1156C105.868 36.1156 106.711 36.3777 107.362 36.91C108.014 37.4424 108.387 38.1385 108.467 39.0148H106.894C106.838 38.5807 106.623 38.204 106.234 37.8764C105.845 37.5488 105.336 37.385 104.692 37.385C104.096 37.385 103.612 37.5488 103.23 37.86C102.857 38.1794 102.666 38.6217 102.666 39.1949C102.666 39.6044 102.777 39.9402 103 40.2023C103.222 40.4643 103.5 40.6609 103.834 40.7919C104.168 40.9311 104.629 41.0786 105.225 41.2505C105.948 41.4553 106.528 41.66 106.965 41.8566C107.402 42.0531 107.783 42.3643 108.093 42.782C108.411 43.1997 108.562 43.7648 108.562 44.4773C108.562 45.026 108.419 45.5419 108.141 46.0333C107.855 46.5165 107.442 46.9096 106.886 47.2126C106.329 47.5156 105.678 47.663 104.923 47.663C104.2 47.6467 103.548 47.5156 102.984 47.2536Z" fill="white"/>
<path d="M112.234 47.1139C111.582 46.7372 111.065 46.1966 110.692 45.5005C110.319 44.8044 110.136 44.0018 110.136 43.0846C110.136 42.1755 110.326 41.3729 110.708 40.685C111.089 39.9889 111.614 39.4565 112.273 39.0798C112.933 38.7031 113.672 38.5229 114.49 38.5229C115.309 38.5229 116.048 38.7113 116.707 39.0798C117.367 39.4484 117.891 39.9807 118.273 40.6768C118.654 41.3647 118.845 42.1755 118.845 43.0846C118.845 44.0018 118.646 44.8044 118.257 45.5005C117.867 46.1966 117.335 46.7372 116.66 47.1139C115.992 47.4906 115.245 47.679 114.427 47.679C113.616 47.679 112.885 47.4906 112.234 47.1139ZM115.865 46.0165C116.318 45.7708 116.676 45.394 116.954 44.9027C117.232 44.4031 117.367 43.8053 117.367 43.0928C117.367 42.3803 117.232 41.7742 116.962 41.2828C116.691 40.7833 116.334 40.4147 115.897 40.1772C115.46 39.9315 114.983 39.8169 114.466 39.8169C113.942 39.8169 113.465 39.9397 113.028 40.1772C112.591 40.4229 112.241 40.7915 111.987 41.2828C111.725 41.7824 111.598 42.3803 111.598 43.0928C111.598 43.8134 111.725 44.4277 111.979 44.919C112.234 45.4186 112.575 45.7872 113.004 46.0247C113.433 46.2703 113.902 46.385 114.419 46.385C114.935 46.385 115.42 46.2622 115.865 46.0165Z" fill="white"/>
<path d="M120.72 40.6767C121.078 39.9888 121.57 39.4647 122.206 39.0798C122.842 38.703 123.565 38.5147 124.383 38.5147C125.44 38.5147 126.314 38.7767 126.998 39.3091C127.681 39.8414 128.134 40.5703 128.356 41.5121H126.815C126.672 40.9716 126.386 40.5457 125.957 40.2345C125.536 39.9233 125.003 39.7677 124.375 39.7677C123.557 39.7677 122.897 40.0543 122.397 40.6358C121.896 41.2173 121.642 42.028 121.642 43.0845C121.642 44.1492 121.896 44.9763 122.397 45.5578C122.897 46.1393 123.557 46.4341 124.375 46.4341C125.003 46.4341 125.528 46.2867 125.949 45.9836C126.37 45.6806 126.656 45.2466 126.815 44.6897H128.356C128.126 45.5987 127.665 46.3194 126.974 46.8681C126.283 47.4168 125.416 47.6871 124.383 47.6871C123.565 47.6871 122.842 47.4987 122.206 47.122C121.57 46.7453 121.078 46.213 120.72 45.5168C120.363 44.8289 120.188 44.0181 120.188 43.0927C120.188 42.1673 120.363 41.3647 120.72 40.6767Z" fill="white"/>
<path d="M130.303 36.9341C130.112 36.7375 130.017 36.5 130.017 36.2216C130.017 35.9431 130.112 35.7056 130.303 35.5091C130.494 35.3125 130.724 35.2143 130.994 35.2143C131.257 35.2143 131.479 35.3125 131.662 35.5091C131.845 35.7056 131.94 35.9431 131.94 36.2216C131.94 36.5 131.845 36.7375 131.662 36.9341C131.479 37.1306 131.257 37.2289 130.994 37.2289C130.716 37.2207 130.486 37.1306 130.303 36.9341ZM131.686 38.6621V47.5315H130.255V38.6621H131.686Z" fill="white"/>
<path d="M134.117 40.6767C134.475 39.9888 134.96 39.4647 135.587 39.0798C136.207 38.703 136.907 38.5147 137.669 38.5147C138.424 38.5147 139.076 38.6867 139.632 39.0142C140.188 39.35 140.602 39.7677 140.872 40.2755V38.6539H142.318V47.5233H140.872V45.869C140.586 46.3849 140.165 46.819 139.608 47.1548C139.044 47.4987 138.392 47.6625 137.653 47.6625C136.891 47.6625 136.199 47.466 135.579 47.0811C134.96 46.6961 134.475 46.1474 134.117 45.4431C133.76 44.7388 133.585 43.9444 133.585 43.0436C133.585 42.1591 133.76 41.3647 134.117 40.6767ZM140.474 41.3319C140.212 40.8323 139.863 40.4556 139.418 40.1936C138.973 39.9315 138.48 39.8005 137.947 39.8005C137.415 39.8005 136.93 39.9315 136.485 40.1854C136.048 40.4474 135.699 40.8242 135.436 41.3155C135.174 41.8151 135.047 42.3966 135.047 43.0599C135.047 43.7397 135.174 44.3293 135.436 44.8289C135.699 45.3285 136.048 45.7134 136.485 45.9754C136.922 46.2375 137.415 46.3686 137.947 46.3686C138.48 46.3686 138.973 46.2375 139.418 45.9754C139.863 45.7134 140.212 45.3285 140.474 44.8289C140.737 44.3293 140.864 43.7397 140.864 43.0763C140.872 42.413 140.737 41.8315 140.474 41.3319Z" fill="white"/>
<path d="M146.164 35.5581V47.5396H144.734V35.5581H146.164Z" fill="white"/>
<path d="M159.299 36.9428C160.173 37.4015 160.841 38.0566 161.31 38.9084C161.779 39.7601 162.009 40.7674 162.009 41.9222C162.009 43.0769 161.779 44.076 161.31 44.9278C160.841 45.7795 160.173 46.4265 159.299 46.8687C158.425 47.3191 157.392 47.5403 156.2 47.5403H152.791V36.2549H156.2C157.392 36.2549 158.425 36.4842 159.299 36.9428ZM159.434 45.1653C160.181 44.3954 160.547 43.3144 160.547 41.9222C160.547 40.5217 160.173 39.4243 159.426 38.6381C158.679 37.8519 157.599 37.4588 156.2 37.4588H154.222V46.3282H156.2C157.607 46.32 158.687 45.9351 159.434 45.1653Z" fill="white"/>
<path d="M163.94 36.9341C163.749 36.7375 163.654 36.5 163.654 36.2216C163.654 35.9431 163.749 35.7056 163.94 35.5091C164.13 35.3125 164.361 35.2143 164.631 35.2143C164.893 35.2143 165.116 35.3125 165.298 35.5091C165.481 35.7056 165.577 35.9431 165.577 36.2216C165.577 36.5 165.481 36.7375 165.298 36.9341C165.116 37.1306 164.893 37.2289 164.631 37.2289C164.361 37.2207 164.13 37.1306 163.94 36.9341ZM165.322 38.6621V47.5315H163.892V38.6621H165.322Z" fill="white"/>
<path d="M173.261 39.0225C173.817 39.3582 174.238 39.7759 174.508 40.2837V38.6621H175.955V47.7281C175.955 48.5388 175.788 49.2595 175.454 49.8901C175.12 50.5207 174.643 51.0121 174.016 51.3725C173.396 51.7246 172.665 51.9048 171.838 51.9048C170.71 51.9048 169.764 51.6263 169.01 51.0776C168.255 50.5289 167.81 49.7755 167.675 48.8255H169.089C169.248 49.366 169.574 49.8 170.066 50.1276C170.559 50.4552 171.147 50.619 171.838 50.619C172.625 50.619 173.261 50.3651 173.761 49.8574C174.262 49.3496 174.508 48.6371 174.508 47.7199V45.8608C174.222 46.3768 173.809 46.8108 173.253 47.1548C172.697 47.4988 172.045 47.6707 171.306 47.6707C170.543 47.6707 169.852 47.4742 169.224 47.0893C168.604 46.7044 168.112 46.1556 167.754 45.4513C167.396 44.747 167.222 43.9526 167.222 43.0518C167.222 42.1427 167.396 41.3483 167.754 40.6604C168.112 39.9725 168.596 39.4483 169.224 39.0634C169.844 38.6867 170.543 38.4983 171.306 38.4983C172.045 38.5147 172.697 38.6867 173.261 39.0225ZM174.119 41.3319C173.857 40.8324 173.507 40.4556 173.062 40.1936C172.617 39.9315 172.125 39.8005 171.592 39.8005C171.06 39.8005 170.575 39.9315 170.13 40.1854C169.693 40.4475 169.343 40.8242 169.081 41.3156C168.819 41.8151 168.692 42.3966 168.692 43.06C168.692 43.7397 168.819 44.3294 169.081 44.8289C169.343 45.3285 169.693 45.7134 170.13 45.9755C170.567 46.2375 171.06 46.3686 171.592 46.3686C172.125 46.3686 172.617 46.2375 173.062 45.9755C173.507 45.7134 173.857 45.3285 174.119 44.8289C174.381 44.3294 174.508 43.7397 174.508 43.0763C174.508 42.413 174.381 41.8315 174.119 41.3319Z" fill="white"/>
<path d="M178.418 36.9341C178.227 36.7375 178.132 36.5 178.132 36.2216C178.132 35.9431 178.227 35.7056 178.418 35.5091C178.609 35.3125 178.839 35.2143 179.109 35.2143C179.371 35.2143 179.594 35.3125 179.777 35.5091C179.959 35.7056 180.055 35.9431 180.055 36.2216C180.055 36.5 179.959 36.7375 179.777 36.9341C179.594 37.1306 179.371 37.2289 179.109 37.2289C178.839 37.2207 178.609 37.1306 178.418 36.9341ZM179.801 38.6621V47.5315H178.37V38.6621H179.801Z" fill="white"/>
<path d="M183.98 39.8742V45.1074C183.98 45.5414 184.068 45.8444 184.251 46.0246C184.425 46.2048 184.735 46.2949 185.18 46.2949H186.229V47.5397H184.942C184.147 47.5397 183.551 47.3513 183.154 46.9746C182.757 46.5979 182.558 45.9755 182.558 45.1155V39.8906H181.446V38.6785H182.558V36.4427H183.988V38.6785H186.237V39.8906H183.98V39.8742Z" fill="white"/>
<path d="M187.954 40.6767C188.311 39.9888 188.796 39.4647 189.424 39.0798C190.043 38.703 190.743 38.5147 191.506 38.5147C192.26 38.5147 192.912 38.6867 193.468 39.0142C194.025 39.35 194.438 39.7677 194.708 40.2755V38.6539H196.154V47.5233H194.708V45.869C194.422 46.3849 194.001 46.819 193.444 47.1548C192.88 47.4987 192.229 47.6625 191.49 47.6625C190.727 47.6625 190.035 47.466 189.416 47.0811C188.796 46.6961 188.311 46.1474 187.954 45.4431C187.596 44.7388 187.421 43.9444 187.421 43.0436C187.413 42.1591 187.596 41.3647 187.954 40.6767ZM194.311 41.3319C194.048 40.8323 193.699 40.4556 193.254 40.1936C192.809 39.9315 192.316 39.8005 191.784 39.8005C191.251 39.8005 190.767 39.9315 190.322 40.1854C189.884 40.4474 189.527 40.8242 189.273 41.3155C189.01 41.8151 188.883 42.3966 188.883 43.0599C188.883 43.7397 189.01 44.3293 189.273 44.8289C189.535 45.3285 189.884 45.7134 190.322 45.9754C190.759 46.2375 191.251 46.3686 191.784 46.3686C192.316 46.3686 192.809 46.2375 193.254 45.9754C193.699 45.7134 194.048 45.3285 194.311 44.8289C194.573 44.3293 194.7 43.7397 194.7 43.0763C194.708 42.413 194.573 41.8315 194.311 41.3319Z" fill="white"/>
<path d="M200 35.5581V47.5396H198.57V35.5581H200Z" fill="white"/>
<path d="M101.617 56.3272C102.094 55.4591 102.737 54.7794 103.564 54.288C104.382 53.7966 105.296 53.5509 106.297 53.5509C107.473 53.5509 108.499 53.8457 109.381 54.4272C110.255 55.0168 110.898 55.844 111.304 56.9168H109.619C109.317 56.2453 108.888 55.7293 108.324 55.369C107.76 55.0087 107.084 54.8285 106.305 54.8285C105.55 54.8285 104.875 55.0087 104.279 55.369C103.683 55.7293 103.214 56.2453 102.873 56.9087C102.531 57.572 102.364 58.35 102.364 59.2427C102.364 60.1272 102.531 60.897 102.873 61.5604C103.214 62.2237 103.683 62.7397 104.279 63.1C104.875 63.4604 105.55 63.6405 106.305 63.6405C107.092 63.6405 107.76 63.4604 108.324 63.1082C108.888 62.7561 109.317 62.2401 109.619 61.5686H111.304C110.898 62.6332 110.263 63.4522 109.381 64.0337C108.506 64.6151 107.473 64.9018 106.297 64.9018C105.296 64.9018 104.382 64.6561 103.564 64.1729C102.745 63.6897 102.094 63.0181 101.617 62.1582C101.14 61.2983 100.902 60.3237 100.902 59.2345C100.91 58.1699 101.14 57.1953 101.617 56.3272Z" fill="white"/>
<path d="M116.675 64.4022C116.032 64.0337 115.523 63.5013 115.157 62.8134C114.792 62.1255 114.609 61.3311 114.609 60.4302C114.609 59.5375 114.8 58.7431 115.173 58.0634C115.547 57.3837 116.063 56.8513 116.715 56.4828C117.366 56.1143 118.09 55.9341 118.9 55.9341C119.703 55.9341 120.434 56.1143 121.085 56.4828C121.737 56.8513 122.246 57.3755 122.627 58.0552C123 58.7349 123.191 59.5293 123.191 60.4302C123.191 61.3311 123 62.1337 122.611 62.8134C122.222 63.5013 121.697 64.0255 121.038 64.4022C120.378 64.7707 119.647 64.9591 118.837 64.9591C118.042 64.9673 117.319 64.7789 116.675 64.4022ZM120.259 63.3212C120.704 63.0755 121.062 62.7069 121.332 62.2237C121.602 61.7324 121.745 61.1345 121.745 60.4384C121.745 59.7341 121.61 59.1444 121.34 58.6531C121.069 58.1617 120.72 57.8013 120.283 57.5556C119.846 57.3181 119.377 57.1953 118.876 57.1953C118.36 57.1953 117.891 57.3181 117.462 57.5556C117.033 57.7931 116.691 58.1617 116.429 58.6531C116.175 59.1444 116.039 59.7341 116.039 60.4384C116.039 61.1509 116.167 61.7487 116.421 62.2401C116.675 62.7315 117.009 63.0918 117.438 63.3293C117.859 63.5669 118.328 63.6897 118.829 63.6897C119.345 63.6897 119.814 63.5668 120.259 63.3212Z" fill="white"/>
<path d="M138.766 56.3355C139.283 56.6139 139.688 57.0398 139.99 57.6049C140.292 58.17 140.435 58.8579 140.435 59.6605V64.8118H139.044V59.8652C139.044 58.9971 138.838 58.3256 138.416 57.8669C137.995 57.4001 137.431 57.1708 136.724 57.1708C135.993 57.1708 135.405 57.4165 134.976 57.8997C134.539 58.3829 134.324 59.0872 134.324 59.9962V64.8118H132.933V59.8652C132.933 58.9971 132.727 58.3256 132.306 57.8669C131.885 57.4001 131.32 57.1708 130.613 57.1708C129.882 57.1708 129.294 57.4165 128.865 57.8997C128.428 58.3829 128.213 59.0872 128.213 59.9962V64.8118H126.807V56.0734H128.213V57.3346C128.491 56.876 128.865 56.5238 129.334 56.2781C129.803 56.0324 130.319 55.9096 130.891 55.9096C131.606 55.9096 132.234 56.0734 132.782 56.401C133.331 56.7286 133.736 57.2118 134.006 57.8506C134.245 57.2363 134.634 56.7531 135.182 56.4174C135.731 56.0734 136.334 55.9096 137.01 55.9096C137.661 55.9178 138.25 56.057 138.766 56.3355Z" fill="white"/>
<path d="M156.446 56.3355C156.963 56.6139 157.368 57.0398 157.67 57.6049C157.972 58.17 158.115 58.8579 158.115 59.6605V64.8118H156.725V59.8652C156.725 58.9971 156.518 58.3256 156.097 57.8669C155.676 57.4001 155.111 57.1708 154.404 57.1708C153.673 57.1708 153.085 57.4165 152.656 57.8997C152.219 58.3829 152.004 59.0872 152.004 59.9962V64.8118H150.614V59.8652C150.614 58.9971 150.407 58.3256 149.986 57.8669C149.565 57.4001 149.001 57.1708 148.294 57.1708C147.563 57.1708 146.974 57.4165 146.545 57.8997C146.108 58.3829 145.894 59.0872 145.894 59.9962V64.8118H144.487V56.0734H145.894V57.3346C146.172 56.876 146.545 56.5238 147.014 56.2781C147.483 56.0324 148 55.9096 148.572 55.9096C149.287 55.9096 149.915 56.0734 150.463 56.401C151.011 56.7286 151.416 57.2118 151.687 57.8506C151.925 57.2363 152.314 56.7531 152.863 56.4174C153.411 56.0734 154.015 55.9096 154.69 55.9096C155.342 55.9178 155.93 56.057 156.446 56.3355Z" fill="white"/>
<path d="M169.852 60.9871H163.074C163.121 61.847 163.415 62.5185 163.932 63.0099C164.456 63.4931 165.084 63.7388 165.831 63.7388C166.443 63.7388 166.951 63.5914 167.357 63.3047C167.762 63.0099 168.048 62.6168 168.215 62.1336H169.732C169.502 62.9771 169.049 63.6569 168.374 64.181C167.69 64.7052 166.848 64.9672 165.831 64.9672C165.028 64.9672 164.305 64.7789 163.669 64.4103C163.034 64.0418 162.533 63.5095 162.176 62.8215C161.81 62.1336 161.635 61.3392 161.635 60.4384C161.635 59.5375 161.81 58.7431 162.16 58.0633C162.509 57.3836 163.002 56.8595 163.638 56.4909C164.273 56.1224 165.004 55.9422 165.831 55.9422C166.633 55.9422 167.349 56.1224 167.968 56.4827C168.588 56.8431 169.065 57.3427 169.399 57.9733C169.732 58.6039 169.899 59.3246 169.899 60.119C169.899 60.3892 169.883 60.684 169.852 60.9871ZM168.088 58.3827C167.849 57.9815 167.531 57.6784 167.118 57.4737C166.705 57.269 166.26 57.1625 165.767 57.1625C165.052 57.1625 164.448 57.4 163.948 57.8668C163.447 58.3336 163.161 58.9806 163.089 59.8159H168.445C168.445 59.259 168.326 58.784 168.088 58.3827Z" fill="white"/>
<path d="M175.978 56.3355C176.439 56.057 176.996 55.9178 177.655 55.9178V57.4165H177.282C175.7 57.4165 174.914 58.301 174.914 60.0617V64.8199H173.507V56.0734H174.914V57.4902C175.16 56.9988 175.517 56.6057 175.978 56.3355Z" fill="white"/>
<path d="M181.032 58.0634C181.382 57.3836 181.874 56.8595 182.494 56.491C183.122 56.1224 183.837 55.9341 184.64 55.9341C185.681 55.9341 186.539 56.1961 187.214 56.7121C187.89 57.2362 188.335 57.9569 188.557 58.8824H187.04C186.897 58.35 186.61 57.9324 186.197 57.6211C185.776 57.3099 185.26 57.1625 184.64 57.1625C183.837 57.1625 183.186 57.4492 182.685 58.0143C182.192 58.5793 181.938 59.3901 181.938 60.4302C181.938 61.4867 182.184 62.2974 182.685 62.8707C183.178 63.444 183.829 63.7306 184.64 63.7306C185.26 63.7306 185.776 63.5832 186.189 63.2884C186.602 62.9936 186.889 62.5677 187.04 62.0108H188.557C188.327 62.9035 187.874 63.6242 187.198 64.1565C186.515 64.697 185.665 64.9591 184.648 64.9591C183.845 64.9591 183.13 64.7707 182.502 64.4022C181.874 64.0336 181.39 63.5013 181.04 62.8216C180.69 62.1418 180.516 61.3474 180.516 60.4302C180.508 59.5293 180.683 58.7349 181.032 58.0634Z" fill="white"/>
<path d="M199.873 60.9871H193.095C193.142 61.847 193.436 62.5185 193.953 63.0099C194.477 63.4931 195.105 63.7388 195.852 63.7388C196.464 63.7388 196.972 63.5914 197.378 63.3047C197.783 63.0181 198.069 62.6168 198.236 62.1336H199.754C199.523 62.9771 199.07 63.6569 198.395 64.181C197.711 64.7052 196.869 64.9672 195.852 64.9672C195.049 64.9672 194.326 64.7789 193.691 64.4103C193.055 64.0418 192.554 63.5095 192.197 62.8215C191.831 62.1336 191.656 61.3392 191.656 60.4384C191.656 59.5375 191.831 58.7431 192.181 58.0633C192.53 57.3836 193.023 56.8595 193.659 56.4909C194.294 56.1224 195.025 55.9422 195.852 55.9422C196.654 55.9422 197.37 56.1224 197.989 56.4827C198.609 56.8431 199.086 57.3427 199.42 57.9733C199.754 58.6039 199.92 59.3246 199.92 60.119C199.92 60.3892 199.905 60.684 199.873 60.9871ZM198.109 58.3827C197.87 57.9815 197.552 57.6784 197.139 57.4737C196.734 57.269 196.281 57.1625 195.788 57.1625C195.073 57.1625 194.469 57.4 193.969 57.8668C193.468 58.3336 193.182 58.9806 193.11 59.8159H198.466C198.466 59.259 198.347 58.784 198.109 58.3827Z" fill="white"/>
</svg>
