<svg width="714" height="595" viewBox="0 0 714 595" fill="none" xmlns="http://www.w3.org/2000/svg">
<rect x="578" y="150" width="92" height="91" rx="20" transform="rotate(-180 578 150)" fill="#EDEFFF"/>
<path d="M111 496.482H84.6241C38.9936 496.482 2 459.488 2 413.858V204.624C2 158.994 38.9936 122 84.6241 122L99.5 122" stroke="#272FF5" stroke-width="3" stroke-miterlimit="10" stroke-linecap="round" stroke-linejoin="round"/>
<path d="M470 496.482H226.5" stroke="#272FF5" stroke-width="3" stroke-miterlimit="10" stroke-linecap="round" stroke-linejoin="round"/>
<path d="M479.516 122L251 122" stroke="#272FF5" stroke-width="3" stroke-miterlimit="10" stroke-linecap="round" stroke-linejoin="round"/>
<path d="M589.114 122H629.376C675.006 122 712 158.994 712 204.624V413.858C712 459.488 675.006 496.482 629.376 496.482H576" stroke="#272FF5" stroke-width="3" stroke-miterlimit="10" stroke-linecap="round" stroke-linejoin="round"/>
<path d="M591.997 143.621C591.932 143.704 591.84 143.778 591.804 143.873C590.815 146.504 589.233 147.712 586.46 147.739C581.675 147.786 576.886 147.754 572.1 147.754C571.091 147.754 570.242 147.466 569.963 146.373C569.642 145.12 570.509 144.203 572.035 144.197C576.598 144.182 581.164 144.191 585.727 144.191C588.04 144.191 588.435 143.79 588.435 141.457C588.435 118.933 588.435 96.412 588.435 73.8881C588.435 73.4458 588.435 73.0034 588.435 72.4809C552.81 72.4809 517.253 72.4809 481.56 72.4809C481.56 72.8936 481.56 73.2884 481.56 73.6833C481.56 96.3556 481.56 119.025 481.56 141.697C481.56 143.707 482.035 144.191 484.05 144.191C492.473 144.194 500.895 144.194 509.32 144.194C509.543 144.194 509.766 144.194 509.988 144.194C512.022 144.194 512.877 144.734 512.844 145.996C512.812 147.24 511.951 147.757 509.914 147.757C504.348 147.757 498.781 147.757 493.218 147.757C490.362 147.757 487.5 147.656 484.647 147.783C481.411 147.926 479.116 146.771 478 143.624C478 114.827 478 86.0303 478 57.2334C478.659 55.0722 480.072 53.665 482.227 53C517.407 53 552.587 53 587.767 53C589.925 53.662 591.326 55.0811 591.997 57.2305C591.997 86.0273 591.997 114.824 591.997 143.621ZM588.393 68.7819C588.408 68.482 588.432 68.2297 588.432 67.9803C588.435 64.8631 588.44 61.7489 588.429 58.6317C588.423 57.1652 587.808 56.5655 586.306 56.5655C552.106 56.5625 517.903 56.5625 483.7 56.5655C482.147 56.5655 481.565 57.1592 481.562 58.7267C481.557 61.8053 481.56 64.8839 481.565 67.9625C481.565 68.2416 481.619 68.5206 481.646 68.7819C517.265 68.7819 552.795 68.7819 588.393 68.7819Z" fill="black"/>
<path d="M542.79 167C535.733 164.762 529.407 160.893 522.65 157.99C520.536 157.081 518.586 156.007 517.276 154.03C515.062 150.684 516.555 146.251 520.364 145.254C521.644 144.918 523.116 144.892 524.416 145.147C526.949 145.649 529.425 146.45 532.091 147.172C531.906 146.72 531.779 146.367 531.619 146.029C526.984 136.294 522.356 126.557 517.707 116.831C516.885 115.109 516.433 113.331 516.813 111.446C517.621 107.405 522.252 105.467 525.803 107.649C527.278 108.554 528.246 109.881 528.979 111.422C531.218 116.142 533.489 120.848 535.706 125.577C536.063 126.34 536.428 126.572 537.304 126.402C540.756 125.725 544.221 125.096 547.697 124.556C551.595 123.95 555.443 126.043 557.126 129.579C560.311 136.27 563.488 142.962 566.659 149.66C568.529 153.611 567.303 157.108 563.36 159.002C558.518 161.327 553.667 163.636 548.802 165.908C547.81 166.371 546.726 166.641 545.684 167C544.72 167 543.755 167 542.79 167ZM544.369 163.63C545.411 163.301 546.403 163.105 547.291 162.692C552.091 160.454 556.865 158.159 561.65 155.885C563.99 154.772 564.5 153.365 563.396 151.043C560.311 144.553 557.221 138.064 554.134 131.574C552.795 128.763 550.731 127.631 547.65 128.145C544.254 128.712 540.866 129.335 537.482 129.983C535.003 130.458 533.848 129.917 532.759 127.628C530.434 122.745 528.145 117.843 525.755 112.993C525.319 112.102 524.615 111.208 523.802 110.668C522.222 109.62 520.233 110.775 520.299 112.672C520.331 113.634 520.628 114.649 521.044 115.528C526.254 126.545 531.509 137.541 536.757 148.54C537.17 149.404 537.556 150.253 536.835 151.129C536.11 152.008 535.214 151.803 534.287 151.536C531.12 150.621 527.955 149.704 524.77 148.852C523.888 148.618 522.941 148.472 522.035 148.523C520.005 148.632 519.07 150.618 520.364 152.195C521.065 153.047 522.065 153.753 523.066 154.24C528.697 156.975 534.35 159.661 540.038 162.277C541.401 162.897 542.912 163.185 544.369 163.63Z" fill="black"/>
<path d="M551.94 80.6005C554.76 80.6005 557.577 80.5916 560.398 80.6035C562.725 80.6124 564.174 82.0225 564.183 84.3263C564.2 90.0381 564.198 95.753 564.183 101.465C564.177 103.718 562.79 105.226 560.543 105.244C554.757 105.295 548.968 105.289 543.182 105.25C541.083 105.235 539.572 103.769 539.551 101.67C539.498 95.845 539.498 90.0203 539.548 84.1957C539.569 81.9721 541.104 80.6094 543.369 80.6005C546.228 80.5946 549.084 80.6005 551.94 80.6005ZM560.59 84.2431C554.706 84.2431 548.944 84.2431 543.176 84.2431C543.176 90.0856 543.176 95.848 543.176 101.622C549.03 101.622 554.793 101.622 560.59 101.622C560.59 95.7946 560.59 90.053 560.59 84.2431Z" fill="black"/>
<path d="M513.016 92.9772C513.016 95.7589 513.031 98.5406 513.013 101.322C512.998 103.849 511.618 105.25 509.077 105.259C503.475 105.28 497.873 105.28 492.274 105.259C489.848 105.25 488.402 103.792 488.393 101.367C488.376 95.7292 488.376 90.0886 488.393 84.4509C488.402 81.9958 489.827 80.6034 492.286 80.6005C497.923 80.5945 503.564 80.5916 509.201 80.6005C511.582 80.6034 512.993 82.0047 513.01 84.4064C513.034 87.2653 513.016 90.1213 513.016 92.9772ZM492.054 84.2253C492.054 90.0708 492.054 95.8331 492.054 101.643C497.864 101.643 503.593 101.643 509.391 101.643C509.391 95.8153 509.391 90.05 509.391 84.2253C503.611 84.2253 497.879 84.2253 492.054 84.2253Z" fill="black"/>
<path d="M513.016 126.37C513.016 129.113 513.028 131.859 513.013 134.602C513.001 137.2 511.633 138.583 509.032 138.592C503.507 138.607 497.98 138.607 492.455 138.592C489.777 138.586 488.396 137.214 488.391 134.563C488.379 129 488.376 123.437 488.391 117.873C488.396 115.341 489.78 113.963 492.324 113.957C497.923 113.942 503.525 113.942 509.124 113.957C511.651 113.963 513.001 115.353 513.013 117.912C513.028 120.732 513.016 123.549 513.016 126.37ZM509.386 134.94C509.386 129.083 509.386 123.353 509.386 117.606C503.555 117.606 497.799 117.606 492.048 117.606C492.048 123.428 492.048 129.157 492.048 134.94C497.846 134.94 503.579 134.94 509.386 134.94Z" fill="black"/>
<path d="M560.496 117.558C554.745 117.558 549.009 117.558 543.158 117.558C543.125 118.087 543.113 118.589 543.054 119.087C542.941 120.07 542.38 120.652 541.389 120.691C540.397 120.729 539.747 120.186 539.596 119.221C539.079 115.935 540.652 113.859 543.799 113.922C549.208 114.032 554.62 113.948 560.032 113.954C562.876 113.957 564.183 115.264 564.189 118.084C564.192 119.936 564.198 121.792 564.186 123.644C564.177 124.966 563.503 125.773 562.443 125.779C561.395 125.785 560.653 124.945 560.635 123.674C560.608 121.712 560.608 119.746 560.596 117.784C560.596 117.751 560.567 117.719 560.496 117.558Z" fill="black"/>
<path d="M574.852 80.6034C576.447 80.6034 578.041 80.5885 579.635 80.6093C580.823 80.6242 581.535 81.2714 581.565 82.3015C581.594 83.3851 580.87 84.1421 579.659 84.154C576.435 84.1837 573.208 84.1807 569.981 84.154C568.802 84.1451 567.992 83.3406 568.015 82.3253C568.039 81.301 568.835 80.6182 570.067 80.6064C571.664 80.5915 573.258 80.6004 574.852 80.6034Z" fill="black"/>
<path d="M574.837 113.954C576.432 113.954 578.026 113.937 579.62 113.96C580.849 113.981 581.526 114.593 581.562 115.632C581.6 116.718 580.888 117.484 579.671 117.496C576.447 117.532 573.22 117.529 569.995 117.499C568.802 117.487 568 116.695 568.012 115.679C568.027 114.658 568.808 113.972 570.055 113.957C571.649 113.937 573.246 113.954 574.837 113.954Z" fill="black"/>
<path d="M523.754 80.6004C525.31 80.6004 526.868 80.5886 528.424 80.6034C529.647 80.6153 530.434 81.3159 530.437 82.349C530.44 83.3792 529.65 84.1422 528.454 84.1511C525.265 84.1748 522.08 84.1748 518.891 84.154C517.651 84.1451 516.92 83.4564 516.905 82.3817C516.891 81.2625 517.633 80.6123 518.969 80.6034C520.566 80.5915 522.16 80.6004 523.754 80.6004Z" fill="black"/>
<path d="M572.822 92.4161C571.824 92.4161 570.827 92.4428 569.829 92.4072C568.772 92.3716 568.033 91.6413 568.015 90.6912C567.998 89.762 568.74 88.913 569.758 88.8862C571.753 88.8358 573.748 88.8387 575.743 88.8803C576.85 88.9041 577.572 89.7116 577.533 90.7269C577.498 91.7006 576.791 92.3745 575.704 92.4072C574.745 92.4398 573.784 92.4161 572.822 92.4161Z" fill="black"/>
<path d="M572.807 125.788C571.845 125.788 570.883 125.817 569.924 125.782C568.814 125.74 568.036 124.989 568.015 124.015C567.995 122.991 568.79 122.249 569.99 122.237C571.875 122.216 573.757 122.213 575.642 122.24C576.797 122.258 577.524 122.959 577.53 123.974C577.536 124.986 576.815 125.728 575.684 125.779C574.731 125.82 573.769 125.788 572.807 125.788Z" fill="black"/>
<path d="M521.638 92.4161C520.676 92.4161 519.711 92.4369 518.749 92.4102C517.639 92.3805 516.95 91.7363 516.908 90.7447C516.864 89.6938 517.553 88.9041 518.669 88.8803C520.631 88.8358 522.596 88.8358 524.559 88.8803C525.678 88.9041 526.385 89.6938 526.355 90.7239C526.325 91.7006 525.619 92.3745 524.526 92.4102C523.564 92.4399 522.599 92.4161 521.638 92.4161Z" fill="black"/>
<path d="M548.843 60.9414C558.598 60.9414 568.354 60.9414 578.109 60.9444C578.554 60.9444 579.006 60.9236 579.442 60.9919C580.324 61.1314 580.817 61.6895 580.876 62.5742C580.935 63.4559 580.526 64.0942 579.683 64.3584C579.27 64.4891 578.807 64.498 578.364 64.498C558.667 64.5039 538.972 64.5039 519.274 64.498C518.835 64.498 518.369 64.4831 517.959 64.3466C517.128 64.0705 516.692 63.4263 516.769 62.5534C516.846 61.6895 517.354 61.1166 518.241 60.9919C518.678 60.9295 519.129 60.9444 519.574 60.9444C529.333 60.9414 539.088 60.9414 548.843 60.9414Z" fill="black"/>
<path d="M505.357 62.7523C505.324 63.6845 504.555 64.4119 503.614 64.4C502.629 64.3851 501.851 63.5628 501.913 62.598C501.973 61.6747 502.771 60.9681 503.712 61.0037C504.647 61.0394 505.39 61.8261 505.357 62.7523Z" fill="black"/>
<path d="M496.151 64.403C495.195 64.4178 494.45 63.7142 494.417 62.7672C494.381 61.7756 495.144 60.9948 496.136 61.0037C497.08 61.0126 497.819 61.7548 497.819 62.6959C497.822 63.643 497.092 64.3881 496.151 64.403Z" fill="black"/>
<path d="M490.282 62.6603C490.299 63.6252 489.611 64.3644 488.664 64.3971C487.675 64.4297 486.891 63.6727 486.897 62.6871C486.903 61.7489 487.642 61.0097 488.581 61.0008C489.528 60.9919 490.264 61.7133 490.282 62.6603Z" fill="black"/>
<path d="M291.558 299.787V301.933H286.048V320H283.409V301.933H277.87V299.787H291.558ZM309.307 311.445C309.307 311.948 309.278 312.479 309.22 313.04H296.518C296.614 314.606 297.146 315.834 298.113 316.723C299.099 317.593 300.288 318.028 301.68 318.028C302.82 318.028 303.768 317.767 304.522 317.245C305.295 316.704 305.836 315.988 306.146 315.099H308.988C308.562 316.626 307.712 317.873 306.436 318.84C305.16 319.787 303.574 320.261 301.68 320.261C300.172 320.261 298.818 319.923 297.62 319.246C296.44 318.569 295.512 317.612 294.836 316.375C294.159 315.118 293.821 313.668 293.821 312.025C293.821 310.382 294.149 308.941 294.807 307.704C295.464 306.467 296.382 305.519 297.562 304.862C298.76 304.185 300.133 303.847 301.68 303.847C303.188 303.847 304.522 304.176 305.682 304.833C306.842 305.49 307.731 306.399 308.35 307.559C308.988 308.7 309.307 309.995 309.307 311.445ZM306.581 310.894C306.581 309.889 306.358 309.028 305.914 308.313C305.469 307.578 304.86 307.027 304.087 306.66C303.333 306.273 302.492 306.08 301.564 306.08C300.23 306.08 299.089 306.505 298.142 307.356C297.214 308.207 296.682 309.386 296.547 310.894H306.581ZM311.804 312.025C311.804 310.382 312.133 308.951 312.79 307.733C313.447 306.496 314.356 305.539 315.516 304.862C316.695 304.185 318.039 303.847 319.547 303.847C321.5 303.847 323.104 304.321 324.361 305.268C325.637 306.215 326.478 307.53 326.884 309.212H324.042C323.771 308.245 323.24 307.482 322.447 306.921C321.674 306.36 320.707 306.08 319.547 306.08C318.039 306.08 316.821 306.602 315.893 307.646C314.965 308.671 314.501 310.13 314.501 312.025C314.501 313.939 314.965 315.418 315.893 316.462C316.821 317.506 318.039 318.028 319.547 318.028C320.707 318.028 321.674 317.757 322.447 317.216C323.22 316.675 323.752 315.901 324.042 314.896H326.884C326.459 316.52 325.608 317.825 324.332 318.811C323.056 319.778 321.461 320.261 319.547 320.261C318.039 320.261 316.695 319.923 315.516 319.246C314.356 318.569 313.447 317.612 312.79 316.375C312.133 315.138 311.804 313.688 311.804 312.025ZM338.148 303.818C340.082 303.818 341.648 304.408 342.846 305.587C344.045 306.747 344.644 308.429 344.644 310.633V320H342.034V311.01C342.034 309.425 341.638 308.216 340.845 307.385C340.053 306.534 338.97 306.109 337.597 306.109C336.205 306.109 335.094 306.544 334.262 307.414C333.45 308.284 333.044 309.55 333.044 311.213V320H330.405V304.108H333.044V306.37C333.566 305.558 334.272 304.93 335.161 304.485C336.07 304.04 337.066 303.818 338.148 303.818ZM355.886 320.261C354.397 320.261 353.044 319.923 351.826 319.246C350.627 318.569 349.68 317.612 348.984 316.375C348.307 315.118 347.969 313.668 347.969 312.025C347.969 310.401 348.317 308.97 349.013 307.733C349.728 306.476 350.695 305.519 351.913 304.862C353.131 304.185 354.494 303.847 356.002 303.847C357.51 303.847 358.873 304.185 360.091 304.862C361.309 305.519 362.266 306.467 362.962 307.704C363.677 308.941 364.035 310.382 364.035 312.025C364.035 313.668 363.668 315.118 362.933 316.375C362.218 317.612 361.241 318.569 360.004 319.246C358.767 319.923 357.394 320.261 355.886 320.261ZM355.886 317.941C356.833 317.941 357.723 317.719 358.554 317.274C359.385 316.829 360.052 316.162 360.555 315.273C361.077 314.384 361.338 313.301 361.338 312.025C361.338 310.749 361.087 309.666 360.584 308.777C360.081 307.888 359.424 307.23 358.612 306.805C357.8 306.36 356.92 306.138 355.973 306.138C355.006 306.138 354.117 306.36 353.305 306.805C352.512 307.23 351.874 307.888 351.391 308.777C350.908 309.666 350.666 310.749 350.666 312.025C350.666 313.32 350.898 314.413 351.362 315.302C351.845 316.191 352.483 316.858 353.276 317.303C354.069 317.728 354.939 317.941 355.886 317.941ZM370.144 298.54V320H367.505V298.54H370.144ZM381.573 320.261C380.084 320.261 378.731 319.923 377.513 319.246C376.314 318.569 375.367 317.612 374.671 316.375C373.994 315.118 373.656 313.668 373.656 312.025C373.656 310.401 374.004 308.97 374.7 307.733C375.415 306.476 376.382 305.519 377.6 304.862C378.818 304.185 380.181 303.847 381.689 303.847C383.197 303.847 384.56 304.185 385.778 304.862C386.996 305.519 387.953 306.467 388.649 307.704C389.364 308.941 389.722 310.382 389.722 312.025C389.722 313.668 389.354 315.118 388.62 316.375C387.904 317.612 386.928 318.569 385.691 319.246C384.453 319.923 383.081 320.261 381.573 320.261ZM381.573 317.941C382.52 317.941 383.409 317.719 384.241 317.274C385.072 316.829 385.739 316.162 386.242 315.273C386.764 314.384 387.025 313.301 387.025 312.025C387.025 310.749 386.773 309.666 386.271 308.777C385.768 307.888 385.111 307.23 384.299 306.805C383.487 306.36 382.607 306.138 381.66 306.138C380.693 306.138 379.804 306.36 378.992 306.805C378.199 307.23 377.561 307.888 377.078 308.777C376.594 309.666 376.353 310.749 376.353 312.025C376.353 313.32 376.585 314.413 377.049 315.302C377.532 316.191 378.17 316.858 378.963 317.303C379.755 317.728 380.625 317.941 381.573 317.941ZM399.745 303.847C401.118 303.847 402.317 304.147 403.341 304.746C404.385 305.345 405.159 306.099 405.661 307.008V304.108H408.329V320.348C408.329 321.798 408.02 323.084 407.401 324.205C406.783 325.346 405.893 326.235 404.733 326.873C403.593 327.511 402.259 327.83 400.731 327.83C398.643 327.83 396.903 327.337 395.511 326.351C394.119 325.365 393.298 324.021 393.046 322.32H395.656C395.946 323.287 396.546 324.06 397.454 324.64C398.363 325.239 399.455 325.539 400.731 325.539C402.181 325.539 403.361 325.085 404.269 324.176C405.197 323.267 405.661 321.991 405.661 320.348V317.013C405.139 317.941 404.366 318.714 403.341 319.333C402.317 319.952 401.118 320.261 399.745 320.261C398.334 320.261 397.048 319.913 395.888 319.217C394.748 318.521 393.849 317.545 393.191 316.288C392.534 315.031 392.205 313.601 392.205 311.996C392.205 310.372 392.534 308.951 393.191 307.733C393.849 306.496 394.748 305.539 395.888 304.862C397.048 304.185 398.334 303.847 399.745 303.847ZM405.661 312.025C405.661 310.826 405.42 309.782 404.936 308.893C404.453 308.004 403.796 307.327 402.964 306.863C402.152 306.38 401.253 306.138 400.267 306.138C399.281 306.138 398.382 306.37 397.57 306.834C396.758 307.298 396.111 307.975 395.627 308.864C395.144 309.753 394.902 310.797 394.902 311.996C394.902 313.214 395.144 314.277 395.627 315.186C396.111 316.075 396.758 316.762 397.57 317.245C398.382 317.709 399.281 317.941 400.267 317.941C401.253 317.941 402.152 317.709 402.964 317.245C403.796 316.762 404.453 316.075 404.936 315.186C405.42 314.277 405.661 313.224 405.661 312.025ZM414.152 301.527C413.649 301.527 413.224 301.353 412.876 301.005C412.528 300.657 412.354 300.232 412.354 299.729C412.354 299.226 412.528 298.801 412.876 298.453C413.224 298.105 413.649 297.931 414.152 297.931C414.635 297.931 415.041 298.105 415.37 298.453C415.718 298.801 415.892 299.226 415.892 299.729C415.892 300.232 415.718 300.657 415.37 301.005C415.041 301.353 414.635 301.527 414.152 301.527ZM415.428 304.108V320H412.789V304.108H415.428ZM418.94 311.996C418.94 310.372 419.268 308.951 419.926 307.733C420.583 306.496 421.482 305.539 422.623 304.862C423.783 304.185 425.068 303.847 426.48 303.847C427.872 303.847 429.08 304.147 430.105 304.746C431.129 305.345 431.893 306.099 432.396 307.008V304.108H435.064V320H432.396V317.042C431.874 317.97 431.091 318.743 430.047 319.362C429.022 319.961 427.823 320.261 426.451 320.261C425.039 320.261 423.763 319.913 422.623 319.217C421.482 318.521 420.583 317.545 419.926 316.288C419.268 315.031 418.94 313.601 418.94 311.996ZM432.396 312.025C432.396 310.826 432.154 309.782 431.671 308.893C431.187 308.004 430.53 307.327 429.699 306.863C428.887 306.38 427.988 306.138 427.002 306.138C426.016 306.138 425.117 306.37 424.305 306.834C423.493 307.298 422.845 307.975 422.362 308.864C421.878 309.753 421.637 310.797 421.637 311.996C421.637 313.214 421.878 314.277 422.362 315.186C422.845 316.075 423.493 316.762 424.305 317.245C425.117 317.709 426.016 317.941 427.002 317.941C427.988 317.941 428.887 317.709 429.699 317.245C430.53 316.762 431.187 316.075 431.671 315.186C432.154 314.277 432.396 313.224 432.396 312.025Z" fill="black"/>
<rect x="245" y="135" width="131" height="33" rx="16.5" transform="rotate(-180 245 135)" fill="#EDEFFF"/>
<rect x="571" y="439" width="94" height="96" rx="20" transform="rotate(90 571 439)" fill="#EDEFFF"/>
<g clip-path="url(#clip0_110_82)">
<path d="M575.018 436H470.982C469.991 436 469 436.991 469 437.982V454.826V485.541C469 485.541 469.991 485.541 470.982 485.541C471.972 485.541 472.963 484.55 472.963 483.56V455.817H574.028V459.78C574.028 460.771 575.018 461.761 576.009 461.761C577 461.761 577.991 460.771 577.991 459.78V453.835V437.982C577 436.991 576.009 436 575.018 436ZM471.972 438.972H573.037V451.853H471.972V438.972Z" fill="#1A171B"/>
<path d="M565.107 444.919V445.91V446.901H566.098H567.089V445.91V444.919C567.089 443.929 566.098 443.929 565.107 444.919Z" fill="#1A171B"/>
<path d="M558.175 443.922C557.184 443.922 556.193 444.913 556.193 445.904C556.193 446.895 557.184 447.886 558.175 447.886C559.166 447.886 559.166 446.895 559.166 445.904C559.166 444.913 558.175 443.922 558.175 443.922Z" fill="#1A171B"/>
<path d="M547.279 444.919V445.91V446.901H548.27H549.261V445.91V444.919C549.261 443.929 548.27 443.929 547.279 444.919Z" fill="#1A171B"/>
<path d="M504.668 536.076C505.659 536.076 506.649 535.085 506.649 534.095V515.269C506.649 514.278 505.659 513.287 504.668 513.287H493.769C492.778 513.287 491.787 514.278 491.787 515.269V535.085C491.787 536.076 492.778 537.067 493.769 537.067H504.668V536.076ZM495.75 516.26H503.677V533.104H495.75V516.26Z" fill="#1A171B"/>
<path d="M575.013 482.566H564.113C563.123 482.566 562.132 483.557 562.132 484.548V535.08C562.132 536.07 563.123 537.061 564.113 537.061H575.013C576.003 537.061 576.994 536.07 576.994 535.08V483.557C576.994 482.566 576.003 482.566 575.013 482.566ZM574.022 533.098H566.095V485.538H574.022V533.098Z" fill="#1A171B"/>
<path d="M552.225 536.075C553.216 536.075 554.207 535.084 554.207 534.093V501.396C554.207 500.405 553.216 499.414 552.225 499.414H541.326C540.336 499.414 539.345 500.405 539.345 501.396V535.084C539.345 536.075 540.336 537.066 541.326 537.066H552.225V536.075ZM542.317 503.378H550.244V533.102H542.317V503.378Z" fill="#1A171B"/>
<path d="M528.447 536.079C529.437 536.079 530.428 535.088 530.428 534.097V493.474C530.428 492.483 529.437 491.492 528.447 491.492H517.548C516.557 491.492 515.566 492.483 515.566 493.474V535.088C515.566 536.079 516.557 537.07 517.548 537.07H528.447V536.079ZM519.529 495.455H527.456V533.107H519.529V495.455Z" fill="#1A171B"/>
<path d="M470.982 536.071H481.881C482.872 536.071 483.862 535.081 483.862 534.09V510.31C483.862 509.319 482.872 508.328 481.881 508.328H470.982C469.991 508.328 469 509.319 469 510.31V535.081C469 536.071 469.991 536.071 470.982 536.071ZM471.972 511.301H479.899V533.099H471.972V511.301Z" fill="#1A171B"/>
<path d="M575.018 541.033H470.982C469.991 541.033 469 541.033 469 542.024C469 543.015 469.991 544.006 470.982 544.006H576.009C577 544.006 577.991 543.015 577.991 542.024C577.991 541.033 576.009 541.033 575.018 541.033Z" fill="#1A171B"/>
<path d="M570.064 462.754C566.101 462.754 563.128 465.727 563.128 469.69C563.128 470.681 563.128 471.672 564.119 472.662L551.239 482.571C549.257 481.58 548.266 480.589 546.284 480.589C544.303 480.589 541.33 481.58 540.339 483.561L530.431 480.589C530.431 480.589 530.431 480.589 530.431 479.598C530.431 475.635 527.459 472.662 523.495 472.662C519.532 472.662 516.56 475.635 516.56 479.598C516.56 480.589 516.56 481.58 517.55 482.571L503.679 495.451C502.688 494.461 500.706 494.461 499.716 494.461C496.743 494.461 494.761 496.442 493.771 498.424L483.862 496.442C483.862 492.479 480.89 489.506 476.927 489.506C471.972 489.506 469 492.479 469 496.442C469 500.406 471.972 503.378 475.936 503.378C478.908 503.378 480.89 501.396 481.881 499.415L491.789 501.396C491.789 505.36 494.761 508.332 498.725 508.332C502.688 508.332 505.661 505.36 505.661 501.396C505.661 500.406 505.661 499.415 504.67 498.424L518.541 485.543C519.532 486.534 521.514 486.534 522.505 486.534C524.486 486.534 527.459 485.543 528.45 483.561L539.349 487.525C539.349 487.525 539.349 487.525 539.349 488.516C539.349 492.479 542.321 495.451 546.284 495.451C550.248 495.451 553.22 492.479 553.22 488.516C553.22 487.525 553.22 486.534 552.229 485.543L565.11 475.635C567.092 476.626 568.083 477.617 570.064 477.617C574.028 477.617 577 474.644 577 470.681C577 466.717 574.028 462.754 570.064 462.754ZM475.936 500.406C473.954 500.406 471.972 498.424 471.972 496.442C471.972 494.461 473.954 492.479 475.936 492.479C477.917 492.479 479.899 494.461 479.899 496.442C479.899 498.424 477.917 500.406 475.936 500.406ZM499.716 505.36C497.734 505.36 495.752 503.378 495.752 501.396C495.752 499.415 497.734 497.433 499.716 497.433C501.697 497.433 503.679 499.415 503.679 501.396C503.679 503.378 501.697 505.36 499.716 505.36ZM522.505 483.561C520.523 483.561 518.541 481.58 518.541 479.598C518.541 477.617 520.523 475.635 522.505 475.635C524.486 475.635 526.468 477.617 526.468 479.598C526.468 481.58 525.477 483.561 522.505 483.561ZM546.284 491.488C544.303 491.488 542.321 489.506 542.321 487.525C542.321 485.543 544.303 483.561 546.284 483.561C548.266 483.561 550.248 485.543 550.248 487.525C550.248 490.497 548.266 491.488 546.284 491.488ZM570.064 473.653C568.083 473.653 566.101 472.662 566.101 469.69C566.101 467.708 568.083 465.727 570.064 465.727C572.046 465.727 574.028 467.708 574.028 469.69C574.028 472.662 572.046 473.653 570.064 473.653Z" fill="#1A171B"/>
</g>
<rect x="221" y="446" width="78" height="104" rx="20" transform="rotate(90 221 446)" fill="#EDEFFF"/>
<path d="M219.339 436H118.661C114.33 436 110 440.33 110 444.661V517.193V523.688C110 529.101 114.33 532.349 118.661 532.349H155.468V542.092H153.303C147.89 542.092 143.56 546.422 143.56 551.835C143.56 552.917 144.642 554 145.725 554H193.358C194.44 554 195.523 552.917 195.523 551.835C195.523 546.422 191.193 542.092 185.78 542.092H182.532V532.349H219.339C224.752 532.349 228 528.018 228 523.688V517.193V444.661C228 440.33 223.67 436 219.339 436ZM113.248 444.661C113.248 441.413 115.413 439.248 118.661 439.248H218.257C221.505 439.248 223.67 441.413 223.67 444.661V515.028H215.009V473.89C215.009 472.807 213.927 471.725 212.844 471.725C211.761 471.725 210.679 472.807 210.679 473.89V516.11H202.018V479.303C202.018 478.22 200.936 477.138 199.853 477.138C198.771 477.138 197.688 478.22 197.688 479.303V516.11H189.028V490.128C189.028 489.046 187.945 487.963 186.862 487.963C186.862 487.963 185.78 489.046 185.78 490.128V516.11H177.119V486.881C177.119 485.798 176.037 484.716 174.954 484.716C173.872 484.716 172.789 485.798 172.789 486.881V516.11H164.128V494.459C164.128 493.376 163.046 492.294 161.963 492.294C160.881 492.294 159.798 493.376 159.798 494.459V516.11H152.22V497.706C152.22 496.624 151.138 495.541 150.055 495.541C148.972 495.541 147.89 496.624 147.89 497.706V516.11H139.229V490.128C139.229 489.046 138.147 487.963 137.064 487.963C135.982 487.963 134.899 489.046 134.899 490.128V516.11H127.321V500.954C127.321 499.872 126.239 498.789 125.156 498.789C124.073 498.789 122.991 499.872 122.991 500.954V516.11H113.248V444.661ZM191.193 550.752H147.89C147.89 547.505 150.055 545.339 153.303 545.339H157.633H180.367H184.697C187.945 545.339 190.11 547.505 191.193 550.752ZM178.202 542.092H159.798V532.349H179.284V542.092H178.202ZM224.752 523.688C224.752 526.936 222.587 529.101 219.339 529.101H180.367H157.633H118.661C115.413 529.101 113.248 526.936 113.248 523.688V519.358H223.67H224.752V523.688Z" fill="#1A171B"/>
<path d="M173.877 473.889L161.968 481.467L150.06 484.715L138.152 478.219C137.069 478.219 137.069 478.219 135.987 478.219L122.996 489.045C121.913 490.127 121.913 491.21 122.996 491.21L124.079 492.293H125.161L137.069 482.55L148.978 489.045H150.06L163.051 485.797L174.959 479.302L186.868 482.55C187.95 482.55 187.95 482.55 189.033 482.55L200.941 471.724L205.271 468.476L206.354 471.724L212.849 463.063L202.024 461.981L203.106 465.228L199.858 467.394L186.868 477.137L176.042 473.889C174.959 473.889 174.959 473.889 173.877 473.889Z" fill="#1A171B"/>
<path d="M163.043 451.154H174.951C176.034 451.154 177.116 450.072 177.116 448.989C177.116 447.907 176.034 447.907 174.951 447.907H163.043C161.96 447.907 160.878 448.989 160.878 450.072C160.878 451.154 161.96 451.154 163.043 451.154Z" fill="#1A171B"/>
<path d="M125.155 451.154H153.302C154.385 451.154 155.467 450.072 155.467 448.989C155.467 447.907 154.385 447.907 153.302 447.907H125.155C124.073 447.907 122.99 448.989 122.99 450.072C122.99 451.154 124.073 451.154 125.155 451.154Z" fill="#1A171B"/>
<path d="M174.955 461.977C176.037 461.977 177.12 460.895 177.12 459.812C177.12 458.73 176.037 458.73 174.955 458.73H153.303C152.221 458.73 151.138 459.812 151.138 460.895C151.138 461.977 152.221 461.977 153.303 461.977H174.955Z" fill="#1A171B"/>
<path d="M125.155 461.977H144.642C145.724 461.977 146.807 460.895 146.807 459.812C146.807 458.73 145.724 458.73 144.642 458.73H125.155C124.073 458.73 122.99 459.812 122.99 460.895C122.99 461.977 124.073 461.977 125.155 461.977Z" fill="#1A171B"/>
<path d="M140.315 471.731C140.315 472.813 141.398 473.896 142.48 473.896H159.801C160.884 473.896 161.966 472.813 161.966 471.731C161.966 470.648 160.884 469.566 159.801 469.566H142.48C141.398 469.566 140.315 470.648 140.315 471.731Z" fill="#1A171B"/>
<path d="M125.155 473.896H132.733C133.816 473.896 134.899 472.813 134.899 471.731C134.899 470.648 133.816 469.566 132.733 469.566H125.155C124.073 469.566 122.99 470.648 122.99 471.731C122.99 472.813 124.073 473.896 125.155 473.896Z" fill="#1A171B"/>
<path d="M155.727 5.294V10.42H161.315V12.07H155.727V17.35H161.975V19H153.725V3.644H161.975V5.294H155.727ZM173.078 19L169.426 12.73H167.006V19H165.004V3.666H169.954C171.113 3.666 172.088 3.864 172.88 4.26C173.687 4.656 174.288 5.19133 174.684 5.866C175.08 6.54067 175.278 7.31067 175.278 8.176C175.278 9.232 174.97 10.1633 174.354 10.97C173.753 11.7767 172.843 12.312 171.626 12.576L175.476 19H173.078ZM167.006 11.124H169.954C171.039 11.124 171.853 10.86 172.396 10.332C172.939 9.78933 173.21 9.07067 173.21 8.176C173.21 7.26667 172.939 6.56267 172.396 6.064C171.868 5.56533 171.054 5.316 169.954 5.316H167.006V11.124ZM188.641 8.154C188.641 9.43 188.201 10.4933 187.321 11.344C186.455 12.18 185.128 12.598 183.339 12.598H180.391V19H178.389V3.666H183.339C185.069 3.666 186.382 4.084 187.277 4.92C188.186 5.756 188.641 6.834 188.641 8.154ZM183.339 10.948C184.453 10.948 185.275 10.706 185.803 10.222C186.331 9.738 186.595 9.04867 186.595 8.154C186.595 6.262 185.509 5.316 183.339 5.316H180.391V10.948H183.339Z" fill="black"/>
<path d="M166.419 578.102C166.976 578.19 167.482 578.417 167.937 578.784C168.406 579.151 168.773 579.605 169.037 580.148C169.316 580.691 169.455 581.27 169.455 581.886C169.455 582.663 169.257 583.367 168.861 583.998C168.465 584.614 167.886 585.105 167.123 585.472C166.375 585.824 165.488 586 164.461 586H158.741V570.666H164.241C165.282 570.666 166.17 570.842 166.903 571.194C167.636 571.531 168.186 571.993 168.553 572.58C168.92 573.167 169.103 573.827 169.103 574.56C169.103 575.469 168.854 576.225 168.355 576.826C167.871 577.413 167.226 577.838 166.419 578.102ZM160.743 577.288H164.109C165.048 577.288 165.774 577.068 166.287 576.628C166.8 576.188 167.057 575.579 167.057 574.802C167.057 574.025 166.8 573.416 166.287 572.976C165.774 572.536 165.033 572.316 164.065 572.316H160.743V577.288ZM164.285 584.35C165.282 584.35 166.06 584.115 166.617 583.646C167.174 583.177 167.453 582.524 167.453 581.688C167.453 580.837 167.16 580.17 166.573 579.686C165.986 579.187 165.202 578.938 164.219 578.938H160.743V584.35H164.285ZM174.235 570.666V586H172.233V570.666H174.235Z" fill="black"/>
<path d="M513.625 17.372H518.993V19H511.623V3.666H513.625V17.372ZM526.377 19.198C525.248 19.198 524.221 18.9413 523.297 18.428C522.388 17.9147 521.669 17.1887 521.141 16.25C520.628 15.2967 520.371 14.1967 520.371 12.95C520.371 11.718 520.635 10.6327 521.163 9.694C521.706 8.74067 522.439 8.01467 523.363 7.516C524.287 7.00267 525.321 6.746 526.465 6.746C527.609 6.746 528.643 7.00267 529.567 7.516C530.491 8.01467 531.217 8.73333 531.745 9.672C532.288 10.6107 532.559 11.7033 532.559 12.95C532.559 14.1967 532.28 15.2967 531.723 16.25C531.18 17.1887 530.44 17.9147 529.501 18.428C528.562 18.9413 527.521 19.198 526.377 19.198ZM526.377 17.438C527.096 17.438 527.77 17.2693 528.401 16.932C529.032 16.5947 529.538 16.0887 529.919 15.414C530.315 14.7393 530.513 13.918 530.513 12.95C530.513 11.982 530.322 11.1607 529.941 10.486C529.56 9.81133 529.061 9.31267 528.445 8.99C527.829 8.65267 527.162 8.484 526.443 8.484C525.71 8.484 525.035 8.65267 524.419 8.99C523.818 9.31267 523.334 9.81133 522.967 10.486C522.6 11.1607 522.417 11.982 522.417 12.95C522.417 13.9327 522.593 14.7613 522.945 15.436C523.312 16.1107 523.796 16.6167 524.397 16.954C524.998 17.2767 525.658 17.438 526.377 17.438ZM536.269 4.986C535.888 4.986 535.565 4.854 535.301 4.59C535.052 4.326 534.927 4.00333 534.927 3.622C534.927 3.24067 535.052 2.918 535.301 2.654C535.565 2.39 535.888 2.258 536.269 2.258C536.651 2.258 536.966 2.39 537.215 2.654C537.479 2.918 537.611 3.24067 537.611 3.622C537.611 4.00333 537.479 4.326 537.215 4.59C536.966 4.854 536.651 4.986 536.269 4.986ZM537.259 21.618C537.259 22.6887 536.988 23.4733 536.445 23.972C535.903 24.4707 535.111 24.72 534.069 24.72H532.903V23.026H533.739C534.297 23.026 534.685 22.916 534.905 22.696C535.14 22.476 535.257 22.102 535.257 21.574V6.944H537.259V21.618ZM539.9 12.928C539.9 11.696 540.15 10.618 540.648 9.694C541.147 8.75533 541.829 8.02933 542.694 7.516C543.574 7.00267 544.55 6.746 545.62 6.746C546.676 6.746 547.593 6.97333 548.37 7.428C549.148 7.88267 549.727 8.45467 550.108 9.144V6.944H552.132V19H550.108V16.756C549.712 17.46 549.118 18.0467 548.326 18.516C547.549 18.9707 546.64 19.198 545.598 19.198C544.528 19.198 543.56 18.934 542.694 18.406C541.829 17.878 541.147 17.1373 540.648 16.184C540.15 15.2307 539.9 14.1453 539.9 12.928ZM550.108 12.95C550.108 12.0407 549.925 11.2487 549.558 10.574C549.192 9.89933 548.693 9.386 548.062 9.034C547.446 8.66733 546.764 8.484 546.016 8.484C545.268 8.484 544.586 8.66 543.97 9.012C543.354 9.364 542.863 9.87733 542.496 10.552C542.13 11.2267 541.946 12.0187 541.946 12.928C541.946 13.852 542.13 14.6587 542.496 15.348C542.863 16.0227 543.354 16.5433 543.97 16.91C544.586 17.262 545.268 17.438 546.016 17.438C546.764 17.438 547.446 17.262 548.062 16.91C548.693 16.5433 549.192 16.0227 549.558 15.348C549.925 14.6587 550.108 13.8593 550.108 12.95Z" fill="black"/>
<path d="M517.804 565.666L513.36 581H511.116L507.552 568.658L503.856 581L501.634 581.022L497.344 565.666H499.478L502.822 578.668L506.518 565.666H508.762L512.282 578.624L515.648 565.666H517.804ZM535.549 565.776V581H533.547V569.648L528.487 581H527.079L521.997 569.626V581H519.995V565.776H522.151L527.783 578.36L533.415 565.776H535.549ZM543.806 581.154C542.794 581.154 541.885 580.978 541.078 580.626C540.286 580.259 539.663 579.761 539.208 579.13C538.753 578.485 538.519 577.744 538.504 576.908H540.638C540.711 577.627 541.005 578.235 541.518 578.734C542.046 579.218 542.809 579.46 543.806 579.46C544.759 579.46 545.507 579.225 546.05 578.756C546.607 578.272 546.886 577.656 546.886 576.908C546.886 576.321 546.725 575.845 546.402 575.478C546.079 575.111 545.676 574.833 545.192 574.642C544.708 574.451 544.055 574.246 543.234 574.026C542.222 573.762 541.408 573.498 540.792 573.234C540.191 572.97 539.67 572.559 539.23 572.002C538.805 571.43 538.592 570.667 538.592 569.714C538.592 568.878 538.805 568.137 539.23 567.492C539.655 566.847 540.249 566.348 541.012 565.996C541.789 565.644 542.677 565.468 543.674 565.468C545.111 565.468 546.285 565.827 547.194 566.546C548.118 567.265 548.639 568.218 548.756 569.406H546.556C546.483 568.819 546.175 568.306 545.632 567.866C545.089 567.411 544.371 567.184 543.476 567.184C542.64 567.184 541.958 567.404 541.43 567.844C540.902 568.269 540.638 568.871 540.638 569.648C540.638 570.205 540.792 570.66 541.1 571.012C541.423 571.364 541.811 571.635 542.266 571.826C542.735 572.002 543.388 572.207 544.224 572.442C545.236 572.721 546.05 572.999 546.666 573.278C547.282 573.542 547.81 573.96 548.25 574.532C548.69 575.089 548.91 575.852 548.91 576.82C548.91 577.568 548.712 578.272 548.316 578.932C547.92 579.592 547.333 580.127 546.556 580.538C545.779 580.949 544.862 581.154 543.806 581.154Z" fill="black"/>
<path d="M98 111.327C100.787 111.283 103.574 111.182 106.357 111.222C107.527 111.238 108.27 111.028 108.55 109.766C108.725 108.994 109.164 108.282 109.566 107.348C107.23 105.14 104.849 102.887 102.229 100.408C104.082 98.6529 105.743 97.1161 107.36 95.5308C108.948 93.9738 110.492 92.3724 112.15 90.6941C114.254 92.793 116.285 94.7624 118.243 96.8007C118.922 97.5084 119.438 97.5448 120.433 97.3021C122.757 96.74 123.22 95.4055 123.049 93.2742C122.867 91.0216 123.009 88.7407 123.009 86.3628C127.599 86.3628 132.084 86.3628 136.716 86.3628C136.716 89.2503 136.777 92.0691 136.687 94.8878C136.655 95.9514 137.158 96.2426 137.971 96.7441C140.002 97.9977 141.29 97.3102 142.663 95.6885C144.13 93.9577 145.836 92.429 147.392 90.8599C147.579 90.9165 147.648 90.9165 147.672 90.9488C149.248 93.2135 151.56 93.2135 153.993 93.1286C157.016 93.0194 160.042 93.1043 163.378 93.1043C162.898 92.5463 162.643 92.2066 162.346 91.9073C157.719 87.293 153.104 82.6665 148.428 78.1047C147.92 77.6073 147.051 77.2514 146.336 77.2271C143.597 77.126 140.855 77.211 138.113 77.1705C137.264 77.1584 136.785 77.3889 136.342 78.1977C134.721 81.158 131.434 82.4562 128.302 81.526C125.272 80.6242 123.122 77.5385 123.391 74.4771C123.683 71.1124 126.104 68.5768 129.488 68.0874C132.109 67.7073 134.912 69.0459 136.261 71.5168C136.76 72.4308 137.313 72.6694 138.276 72.6573C141.424 72.6088 144.572 72.6896 147.717 72.6128C148.927 72.5845 149.789 72.9323 150.65 73.7977C156.788 79.9771 162.972 86.1161 169.179 92.2268C169.626 92.6676 170.365 93.068 170.971 93.072C179.599 93.1246 188.228 93.1084 196.861 93.1043C197.056 93.1043 197.247 93.072 197.458 93.0558C192.327 87.9602 187.229 82.893 182.159 77.858C183.516 76.5356 184.556 75.5205 185.669 74.4367C190.548 79.3018 195.654 84.0213 200.29 89.1573C203.081 92.251 206.03 93.2782 210.162 93.2055C224.778 92.9547 239.399 93.1205 254.02 93.1286C254.02 109.709 254.02 126.29 254.02 142.871C248.601 142.871 243.182 142.871 237.673 142.871C237.673 141.375 237.673 139.984 237.673 138.398C241.553 138.398 245.424 138.398 249.373 138.398C249.373 124.741 249.373 111.275 249.373 97.7308C217.856 97.7308 186.408 97.7308 154.704 97.7308C155.618 98.7014 156.39 99.5224 157.268 100.457C155.196 102.503 153.226 104.529 151.158 106.454C150.39 107.17 150.492 107.716 150.723 108.658C151.292 110.955 152.673 111.404 154.798 111.234C157.016 111.056 159.258 111.194 161.619 111.194C161.619 115.739 161.619 120.2 161.619 124.843C158.925 124.843 156.244 124.915 153.567 124.81C152.267 124.762 151.743 125.211 151.113 126.375C150.122 128.203 150.654 129.234 152.039 130.436C153.835 131.993 155.468 133.736 157.459 135.681C156.407 136.393 155.448 137.036 154.493 137.683C154.635 137.893 154.773 138.103 154.916 138.314C177.861 138.314 200.802 138.314 223.828 138.314C223.828 139.915 223.828 141.306 223.828 142.904C223.263 142.904 222.723 142.904 222.187 142.904C216.804 142.904 211.421 142.944 206.042 142.875C204.807 142.859 203.982 143.268 203.137 144.113C191.71 155.537 180.241 166.922 168.809 178.346C168.066 179.09 167.327 179.402 166.283 179.386C162.273 179.333 158.259 179.382 154.249 179.353C153.417 179.349 152.913 179.527 152.462 180.348C150.861 183.268 147.684 184.578 144.577 183.753C141.643 182.973 139.494 180.178 139.482 177.133C139.47 174.068 141.57 171.297 144.52 170.48C147.652 169.615 150.821 170.889 152.429 173.797C152.868 174.585 153.331 174.84 154.188 174.832C157.69 174.791 161.196 174.852 164.698 174.783C165.332 174.771 166.12 174.5 166.559 174.072C176.752 163.99 186.904 153.867 197.064 143.749C197.239 143.575 197.385 143.373 197.682 143.013C197.088 142.968 196.666 142.912 196.239 142.912C187.911 142.908 179.587 142.887 171.259 142.944C170.552 142.948 169.679 143.308 169.171 143.797C166.254 146.6 163.427 149.496 160.526 152.399C159.421 151.275 158.413 150.252 157.113 148.933C159.132 147.041 161.176 145.128 163.544 142.904C160.152 142.904 157.231 142.896 154.31 142.908C151.82 142.92 149.11 142.285 147.684 145.411C145.462 143.183 143.427 141.213 141.481 139.151C140.77 138.394 140.234 138.487 139.275 138.722C136.955 139.292 136.529 140.671 136.695 142.782C136.874 145.035 136.736 147.308 136.736 149.669C132.157 149.669 127.717 149.669 123.029 149.669C123.029 147.963 123.029 146.268 123.029 144.574C123.029 143.312 123.106 142.038 122.988 140.789C122.944 140.328 122.538 139.693 122.127 139.511C119.255 138.229 119.239 138.257 117.008 140.489C115.436 142.062 113.876 143.648 112.373 145.16C109.119 141.921 105.967 138.783 102.871 135.705C105.085 133.525 107.413 131.236 109.663 129.02C109.103 127.597 108.749 126.553 108.27 125.575C108.112 125.251 107.628 124.883 107.291 124.879C104.199 124.867 101.112 124.932 98.0203 124.972C98 120.426 98 115.877 98 111.327ZM127.575 145.136C129.188 145.136 130.585 145.136 132.117 145.136C132.117 142.139 132.117 139.228 132.117 136.631C135.318 135.313 138.292 134.087 141.611 132.721C143.358 134.573 145.365 136.7 147.432 138.9C148.611 137.675 149.61 136.635 150.8 135.394C148.688 133.42 146.555 131.422 144.69 129.679C145.832 126.828 146.986 124.361 147.782 121.781C148.168 120.528 148.667 120.232 149.854 120.273C152.226 120.354 154.607 120.297 157.04 120.297C157.04 118.704 157.04 117.276 157.04 115.747C154.392 115.747 151.853 115.78 149.322 115.715C148.883 115.703 148.196 115.387 148.058 115.04C146.941 112.253 145.929 109.426 144.739 106.215C146.506 104.493 148.598 102.454 150.569 100.533C149.517 99.4172 148.529 98.3698 147.359 97.1323C145.259 99.2797 143.216 101.375 141.42 103.211C138.247 101.908 135.273 100.691 132.072 99.3768C132.072 96.74 132.072 93.8363 132.072 90.9003C130.52 90.9003 129.123 90.9003 127.583 90.9003C127.583 93.9051 127.583 96.8169 127.583 99.393C124.374 100.728 121.408 101.961 118.085 103.344C116.265 101.492 114.218 99.4051 112.365 97.5246C111.268 98.5316 110.208 99.5062 108.883 100.723C110.984 102.754 113.084 104.78 114.933 106.563C113.856 109.309 112.747 111.845 111.894 114.461C111.557 115.489 111.179 115.8 110.147 115.772C107.673 115.703 105.199 115.747 102.648 115.747C102.648 117.308 102.648 118.704 102.648 120.297C103.216 120.297 103.761 120.297 104.305 120.297C106.385 120.297 108.469 120.265 110.549 120.329C110.939 120.341 111.54 120.649 111.67 120.968C112.783 123.759 113.811 126.586 114.997 129.752C113.222 131.487 111.13 133.533 109.131 135.483C110.192 136.623 111.171 137.679 112.263 138.851C114.396 136.676 116.444 134.585 118.239 132.753C121.473 134.091 124.443 135.317 127.571 136.611C127.571 137.784 127.571 139.195 127.571 140.607C127.575 142.062 127.575 143.526 127.575 145.136ZM132.653 74.9746C132.682 73.7573 131.617 72.633 130.382 72.5845C129.163 72.536 128.018 73.5793 127.945 74.8088C127.868 76.0786 129.001 77.2716 130.293 77.2757C131.52 77.2797 132.625 76.1999 132.653 74.9746ZM146.421 174.763C145.186 174.747 144.085 175.794 144.036 177.032C143.987 178.318 145.125 179.458 146.429 179.438C147.701 179.418 148.724 178.375 148.72 177.101C148.716 175.851 147.664 174.779 146.421 174.763Z" fill="black"/>
<path d="M207.943 120.01C209.479 123.096 210.978 126.104 212.595 129.348C210.767 129.348 209.203 129.417 207.651 129.299C207.257 129.271 206.769 128.713 206.558 128.284C205.571 126.266 204.665 124.208 203.422 122.218C203.422 124.543 203.422 126.869 203.422 129.271C201.846 129.271 200.444 129.271 198.941 129.271C198.941 121.798 198.941 114.352 198.941 106.875C201.809 106.875 204.702 106.612 207.521 106.952C210.141 107.267 212.205 109.815 212.522 112.415C212.871 115.266 211.864 117.563 209.434 119.181C209.02 119.46 208.557 119.674 207.943 120.01ZM203.495 111.222C203.495 112.82 203.495 114.203 203.495 115.731C204.994 115.642 206.615 116.237 207.562 114.724C207.935 114.13 207.98 112.993 207.659 112.371C206.773 110.664 205.059 111.307 203.495 111.222Z" fill="black"/>
<path d="M156.707 156.092C154.44 158.356 152.182 160.665 149.842 162.894C149.472 163.246 148.745 163.339 148.18 163.347C144.885 163.387 141.587 163.391 138.292 163.351C137.358 163.339 136.772 163.525 136.257 164.455C134.611 167.435 131.174 168.665 128.034 167.569C124.995 166.509 123.005 163.407 123.407 160.358C123.858 156.933 126.474 154.365 129.878 154.203C132.694 154.069 134.924 155.271 136.297 157.742C136.764 158.583 137.26 158.854 138.178 158.837C140.916 158.785 143.658 158.874 146.392 158.781C147.063 158.757 147.867 158.417 148.355 157.952C150.118 156.29 151.771 154.514 153.457 152.783C154.623 153.964 155.643 155.004 156.707 156.092ZM130.333 163.415C131.564 163.391 132.653 162.291 132.653 161.07C132.653 159.844 131.568 158.749 130.337 158.724C129.05 158.7 127.896 159.865 127.945 161.147C127.985 162.372 129.111 163.44 130.333 163.415Z" fill="black"/>
<path d="M184.966 129.235C180.465 129.235 176.024 129.235 171.474 129.235C171.474 121.777 171.474 114.332 171.474 106.778C175.931 106.778 180.371 106.778 184.937 106.778C184.937 108.169 184.937 109.552 184.937 111.157C182.025 111.157 179.067 111.157 176.02 111.157C176.02 112.767 176.02 114.158 176.02 115.719C177.462 115.719 178.868 115.719 180.379 115.719C180.379 117.272 180.379 118.655 180.379 120.212C178.986 120.212 177.588 120.212 176.057 120.212C176.057 121.797 176.057 123.217 176.057 124.814C179.027 124.814 181.943 124.814 184.962 124.814C184.966 126.363 184.966 127.746 184.966 129.235Z" fill="black"/>
<path d="M232.993 129.267C231.437 129.267 230.035 129.267 228.528 129.267C228.528 121.785 228.528 114.336 228.528 106.846C231.38 106.846 234.24 106.551 237.007 106.923C240.261 107.36 242.353 110.559 242.162 113.976C241.983 117.135 239.505 119.783 236.304 120.176C235.256 120.305 234.195 120.317 232.993 120.39C232.993 123.363 232.993 126.274 232.993 129.267ZM233.078 115.683C234.634 115.695 236.271 116.221 237.173 114.688C237.543 114.057 237.531 112.832 237.149 112.205C236.222 110.676 234.577 111.311 233.074 111.218C233.078 112.739 233.078 114.13 233.078 115.683Z" fill="black"/>
<path d="M228.565 138.411C230.068 138.411 231.425 138.411 232.903 138.411C232.903 139.883 232.903 141.306 232.903 142.819C231.482 142.819 230.084 142.819 228.565 142.819C228.565 141.399 228.565 139.972 228.565 138.411Z" fill="black"/>
<path d="M194.111 129.279C192.62 129.279 191.267 129.279 189.784 129.279C189.784 127.847 189.784 126.436 189.784 124.936C191.222 124.936 192.612 124.936 194.111 124.936C194.111 126.363 194.111 127.734 194.111 129.279Z" fill="black"/>
<path d="M223.734 129.271C222.276 129.271 220.878 129.271 219.383 129.271C219.383 127.823 219.383 126.444 219.383 124.956C220.822 124.956 222.219 124.956 223.734 124.956C223.734 126.311 223.734 127.694 223.734 129.271Z" fill="black"/>
<path d="M182.082 70.8658C180.94 71.9537 179.892 72.9566 178.734 74.0566C175.366 70.6919 171.832 67.4243 168.623 63.8614C166.713 61.7423 164.694 60.889 161.887 61.1357C159.372 61.3581 156.817 61.2166 154.282 61.164C153.38 61.1478 152.856 61.3662 152.385 62.2276C150.817 65.0787 147.705 66.3404 144.621 65.5397C141.591 64.7511 139.437 61.9607 139.462 58.8386C139.486 55.7934 141.639 53.0029 144.568 52.2346C147.628 51.4298 150.825 52.7037 152.364 55.5184C152.868 56.4445 153.433 56.6548 154.383 56.6467C158.442 56.6063 162.5 56.6103 166.559 56.6507C167.119 56.6548 167.843 56.7882 168.208 57.1441C172.839 61.6654 177.418 66.2393 182.082 70.8658ZM146.433 56.5618C145.186 56.5375 144.085 57.5728 144.036 58.8103C143.988 60.0963 145.121 61.2529 146.413 61.2368C147.656 61.2206 148.712 60.1529 148.716 58.9033C148.728 57.6335 147.705 56.586 146.433 56.5618Z" fill="black"/>
<path d="M138.938 118.206C138.82 123.213 134.623 127.213 129.639 127.067C124.613 126.917 120.722 122.796 120.823 117.733C120.921 112.832 125.101 108.844 130.037 108.945C135.058 109.046 139.052 113.204 138.938 118.206ZM125.385 118C125.385 120.495 127.429 122.542 129.903 122.521C132.377 122.501 134.404 120.418 134.372 117.939C134.335 115.517 132.336 113.523 129.919 113.495C127.445 113.463 125.385 115.509 125.385 118Z" fill="black"/>
<defs>
<clipPath id="clip0_110_82">
<rect width="108" height="108" fill="white" transform="translate(469 436)"/>
</clipPath>
</defs>
</svg>
