<svg width="395" height="400" viewBox="0 0 395 400" fill="none" xmlns="http://www.w3.org/2000/svg">
<path fill-rule="evenodd" clip-rule="evenodd" d="M154.197 106C154.197 63.7501 188.448 29.4999 230.697 29.4999L332.697 29.4999C360.291 29.4999 385.247 18.2111 403.201 0H404V2.03259C385.732 20.2425 360.529 31.4999 332.697 31.4999H230.697C189.552 31.4999 156.197 64.8547 156.197 106H154.197Z" fill="#272FF5"/>
<path d="M196.832 385.246L193.668 380.861C193.235 380.259 193 379.528 193 378.775L193 374.742C193 373.78 192.25 373 191.325 373L184.673 373C183.75 373 183 373.78 183 374.742L183 378.775C183 379.528 182.765 380.259 182.332 380.861L179.168 385.248C178.41 386.299 178 387.577 178 388.891L178 392.067L198 392.067L198 388.891C198 387.577 197.59 386.298 196.832 385.246ZM194.667 393.8L191.333 393.8L191.333 399L194.667 399L194.667 393.8ZM181.333 393.8L181.333 399L184.667 399L184.667 393.8L181.333 393.8Z" fill="#272FF5" stroke="#272FF5" stroke-linejoin="round"/>
<path d="M188 296L188 380" stroke="#272FF5" stroke-width="2" stroke-linejoin="round"/>
<path d="M46 295.871H44.363C20.4151 295.871 1 277.102 1 253.951V147.792C1 124.641 20.4151 105.871 44.363 105.871H46" stroke="#272FF5" stroke-miterlimit="10" stroke-linecap="round" stroke-linejoin="round"/>
<path d="M213.586 106.144L106 106.144" stroke="#272FF5" stroke-miterlimit="10" stroke-linecap="round" stroke-linejoin="round"/>
<path d="M244.282 106.144L285.317 106.144C308.469 106.144 327.239 124.914 327.239 148.065V181.489M255.191 296.148H285.317C308.469 296.148 327.239 277.378 327.239 254.226V220.304" stroke="#272FF5" stroke-miterlimit="10" stroke-linecap="round" stroke-linejoin="round"/>
<path d="M142 295.65H200.902" stroke="#272FF5" stroke-linecap="round"/>
<rect x="211.078" y="69.9509" width="28.4132" height="33.487" rx="14.2066" fill="#EDFFFE"/>
<path d="M217.479 89.802V89.0149H223.314V89.8126L217.479 89.802ZM217.479 89.802L216.089 89.8232L213.508 88.3342L213.35 88.0045L214.34 83.3779L226.389 83.3141L227.348 87.962L227.19 88.4087L224.704 89.8339L223.303 89.802V90.9081L221.597 91.8228L221.797 92.6949L223.356 94.3009L227.095 92.8757L230.56 90.4933C230.992 89.9615 231.255 88.5682 231.076 87.6535L229.296 80.5913C227.832 77.1879 212.95 77.1879 211.486 80.5913L209.875 87.2175C209.727 88.0896 209.411 89.7488 210.454 90.7486L213.687 92.8864L217.426 94.3116L218.985 92.7056L219.185 91.8334L217.479 90.9187V89.802ZM214.656 93.2267V96.2686M226.495 93.2267V96.2686M239.154 103.543V97.598H245.042V103.543M239.154 103.543H245.042M239.154 103.543V109.489H245.042V103.543M208 111.871H250.719M216.521 107.585V104.66M219.143 107.585V104.66M217.479 93.8861V94.8965H223.314V94.0989L217.479 93.8861ZM224.567 69.094C224.367 66.9456 222.492 65.8713 220.396 65.8713C218.3 65.882 216.426 66.9562 216.226 69.094C216.12 70.2108 216.373 72.8697 216.91 73.8695C217.384 74.7523 218.49 75.5925 219.722 75.8797C220.323 75.9647 220.47 75.9647 221.06 75.8797C222.292 75.5925 223.398 74.7523 223.872 73.8695C224.43 72.8697 224.672 70.2214 224.567 69.094ZM210.802 106.33L213.698 97.7576H227.537L230.434 106.33H210.802ZM227.537 98.0022V109.393H213.698V98.0022H227.537ZM233.277 103.543H239.165V109.489H233.277V103.543Z" stroke="black" stroke-width="1.2" stroke-miterlimit="22.9256" stroke-linecap="round" stroke-linejoin="round"/>
<path d="M14.589 59.7644H11.1957L10.5706 61.4945H9.49902L12.3119 53.759H13.484L16.2857 61.4945H15.2141L14.589 59.7644ZM14.2988 58.9383L12.8924 55.0092L11.4859 58.9383H14.2988Z" fill="black"/>
<path d="M18.5274 56.371C18.706 56.0213 18.959 55.7496 19.2865 55.5562C19.6213 55.3627 20.0269 55.2659 20.5032 55.2659V56.3152H20.2353C19.0967 56.3152 18.5274 56.9329 18.5274 58.1681V61.4945H17.5116V55.3776H18.5274V56.371Z" fill="black"/>
<path d="M29.0317 55.2659C29.5079 55.2659 29.9321 55.3664 30.3042 55.5673C30.6763 55.7608 30.9702 56.0548 31.186 56.4492C31.4018 56.8436 31.5097 57.3235 31.5097 57.8891V61.4945H30.5051V58.0342C30.5051 57.424 30.3526 56.9589 30.0475 56.6389C29.7498 56.3115 29.3442 56.1478 28.8308 56.1478C28.3024 56.1478 27.882 56.3189 27.5694 56.6612C27.2569 56.9961 27.1006 57.4835 27.1006 58.1235V61.4945H26.096V58.0342C26.096 57.424 25.9434 56.9589 25.6383 56.6389C25.3407 56.3115 24.9351 56.1478 24.4216 56.1478C23.8933 56.1478 23.4729 56.3189 23.1603 56.6612C22.8478 56.9961 22.6915 57.4835 22.6915 58.1235V61.4945H21.6757V55.3776H22.6915V56.2594C22.8924 55.9394 23.1603 55.6938 23.4952 55.5227C23.8375 55.3515 24.2133 55.2659 24.6226 55.2659C25.136 55.2659 25.59 55.3813 25.9844 55.612C26.3788 55.8427 26.6727 56.1813 26.8662 56.6277C27.0373 56.1961 27.3201 55.8613 27.7145 55.6231C28.1089 55.385 28.548 55.2659 29.0317 55.2659Z" fill="black"/>
<path d="M32.7964 58.4137C32.7964 57.7886 32.9229 57.2417 33.176 56.7729C33.429 56.2966 33.775 55.9282 34.2141 55.6678C34.6605 55.4073 35.1554 55.2771 35.6986 55.2771C36.2344 55.2771 36.6995 55.3925 37.0939 55.6231C37.4883 55.8538 37.7823 56.144 37.9758 56.4938V55.3776H39.0027V61.4945H37.9758V60.356C37.7748 60.7132 37.4734 61.0108 37.0716 61.2489C36.6772 61.4796 36.2158 61.595 35.6875 61.595C35.1442 61.595 34.6531 61.461 34.2141 61.1931C33.775 60.9252 33.429 60.5494 33.176 60.0657C32.9229 59.582 32.7964 59.0314 32.7964 58.4137ZM37.9758 58.4249C37.9758 57.9635 37.8827 57.5617 37.6967 57.2194C37.5107 56.877 37.2576 56.6166 36.9377 56.438C36.6251 56.252 36.2791 56.1589 35.8996 56.1589C35.52 56.1589 35.174 56.2482 34.8615 56.4268C34.5489 56.6054 34.2996 56.8659 34.1136 57.2082C33.9276 57.5505 33.8345 57.9523 33.8345 58.4137C33.8345 58.8825 33.9276 59.2918 34.1136 59.6416C34.2996 59.9839 34.5489 60.2481 34.8615 60.4341C35.174 60.6127 35.52 60.702 35.8996 60.702C36.2791 60.702 36.6251 60.6127 36.9377 60.4341C37.2576 60.2481 37.5107 59.9839 37.6967 59.6416C37.8827 59.2918 37.9758 58.8863 37.9758 58.4249Z" fill="black"/>
<path d="M41.4783 60.6573H44.4809V61.4945H40.3174V60.6573L43.2866 56.2036H40.3397V55.3776H44.4586V56.2036L41.4783 60.6573Z" fill="black"/>
<path d="M51.3801 58.2016C51.3801 58.3951 51.369 58.5998 51.3466 58.8156H46.4575C46.4948 59.4183 46.6994 59.8909 47.0715 60.2332C47.451 60.568 47.9086 60.7355 48.4444 60.7355C48.8835 60.7355 49.2481 60.635 49.5383 60.4341C49.836 60.2257 50.0444 59.9504 50.1634 59.6081H51.2573C51.0936 60.196 50.7662 60.676 50.2751 61.048C49.7839 61.4127 49.1737 61.595 48.4444 61.595C47.864 61.595 47.3431 61.4648 46.8817 61.2043C46.4278 60.9438 46.0706 60.5755 45.8101 60.0992C45.5497 59.6155 45.4195 59.0574 45.4195 58.4249C45.4195 57.7924 45.546 57.238 45.799 56.7617C46.052 56.2854 46.4055 55.9208 46.8594 55.6678C47.3208 55.4073 47.8491 55.2771 48.4444 55.2771C49.0249 55.2771 49.5383 55.4036 49.9848 55.6566C50.4313 55.9096 50.7736 56.2594 51.0118 56.7059C51.2573 57.1449 51.3801 57.6435 51.3801 58.2016ZM50.3309 57.9896C50.3309 57.6026 50.2453 57.2714 50.0741 56.9961C49.903 56.7133 49.6686 56.5012 49.3709 56.3599C49.0807 56.211 48.757 56.1366 48.3998 56.1366C47.8863 56.1366 47.4473 56.3003 47.0826 56.6277C46.7254 56.9552 46.5208 57.4091 46.4687 57.9896H50.3309Z" fill="black"/>
<path d="M60.0769 55.2659C60.5531 55.2659 60.9773 55.3664 61.3494 55.5673C61.7215 55.7608 62.0154 56.0548 62.2312 56.4492C62.447 56.8436 62.5549 57.3235 62.5549 57.8891V61.4945H61.5503V58.0342C61.5503 57.424 61.3978 56.9589 61.0927 56.6389C60.795 56.3115 60.3894 56.1478 59.876 56.1478C59.3476 56.1478 58.9272 56.3189 58.6146 56.6612C58.3021 56.9961 58.1458 57.4835 58.1458 58.1235V61.4945H57.1412V58.0342C57.1412 57.424 56.9886 56.9589 56.6835 56.6389C56.3859 56.3115 55.9803 56.1478 55.4668 56.1478C54.9385 56.1478 54.5181 56.3189 54.2055 56.6612C53.893 56.9961 53.7367 57.4835 53.7367 58.1235V61.4945H52.7209V55.3776H53.7367V56.2594C53.9376 55.9394 54.2055 55.6938 54.5404 55.5227C54.8827 55.3515 55.2585 55.2659 55.6678 55.2659C56.1812 55.2659 56.6352 55.3813 57.0296 55.612C57.424 55.8427 57.7179 56.1813 57.9114 56.6277C58.0826 56.1961 58.3653 55.8613 58.7597 55.6231C59.1541 55.385 59.5932 55.2659 60.0769 55.2659Z" fill="black"/>
<path d="M63.8416 58.4137C63.8416 57.7886 63.9681 57.2417 64.2212 56.7729C64.4742 56.2966 64.8202 55.9282 65.2593 55.6678C65.7057 55.4073 66.2006 55.2771 66.7438 55.2771C67.2796 55.2771 67.7447 55.3925 68.1391 55.6231C68.5335 55.8538 68.8275 56.144 69.021 56.4938V55.3776H70.0479V61.4945H69.021V60.356C68.82 60.7132 68.5186 61.0108 68.1168 61.2489C67.7224 61.4796 67.261 61.595 66.7327 61.595C66.1894 61.595 65.6983 61.461 65.2593 61.1931C64.8202 60.9252 64.4742 60.5494 64.2212 60.0657C63.9681 59.582 63.8416 59.0314 63.8416 58.4137ZM69.021 58.4249C69.021 57.9635 68.9279 57.5617 68.7419 57.2194C68.5559 56.877 68.3028 56.6166 67.9829 56.438C67.6703 56.252 67.3243 56.1589 66.9448 56.1589C66.5652 56.1589 66.2192 56.2482 65.9067 56.4268C65.5941 56.6054 65.3448 56.8659 65.1588 57.2082C64.9728 57.5505 64.8797 57.9523 64.8797 58.4137C64.8797 58.8825 64.9728 59.2918 65.1588 59.6416C65.3448 59.9839 65.5941 60.2481 65.9067 60.4341C66.2192 60.6127 66.5652 60.702 66.9448 60.702C67.3243 60.702 67.6703 60.6127 67.9829 60.4341C68.3028 60.2481 68.5559 59.9839 68.7419 59.6416C68.9279 59.2918 69.021 58.8863 69.021 58.4249Z" fill="black"/>
<path d="M74.2871 55.2771C74.8155 55.2771 75.2768 55.3925 75.6713 55.6231C76.0731 55.8538 76.3708 56.144 76.5642 56.4938V55.3776H77.5912V61.6285C77.5912 62.1866 77.4721 62.6814 77.234 63.1131C76.9958 63.5521 76.6535 63.8944 76.207 64.14C75.768 64.3856 75.2545 64.5083 74.6666 64.5083C73.863 64.5083 73.1932 64.3186 72.6574 63.9391C72.1216 63.5595 71.8054 63.0424 71.7086 62.3875H72.7132C72.8249 62.7596 73.0556 63.0572 73.4053 63.2805C73.7551 63.5112 74.1755 63.6265 74.6666 63.6265C75.2248 63.6265 75.6787 63.4516 76.0285 63.1019C76.3856 62.7521 76.5642 62.261 76.5642 61.6285V60.3448C76.3633 60.702 76.0657 60.9997 75.6713 61.2378C75.2768 61.4759 74.8155 61.595 74.2871 61.595C73.7439 61.595 73.249 61.461 72.8025 61.1931C72.3635 60.9252 72.0175 60.5494 71.7644 60.0657C71.5114 59.582 71.3849 59.0314 71.3849 58.4137C71.3849 57.7886 71.5114 57.2417 71.7644 56.7729C72.0175 56.2966 72.3635 55.9282 72.8025 55.6678C73.249 55.4073 73.7439 55.2771 74.2871 55.2771ZM76.5642 58.4249C76.5642 57.9635 76.4712 57.5617 76.2852 57.2194C76.0991 56.877 75.8461 56.6166 75.5261 56.438C75.2136 56.252 74.8676 56.1589 74.488 56.1589C74.1085 56.1589 73.7625 56.2482 73.45 56.4268C73.1374 56.6054 72.8881 56.8659 72.7021 57.2082C72.516 57.5505 72.423 57.9523 72.423 58.4137C72.423 58.8825 72.516 59.2918 72.7021 59.6416C72.8881 59.9839 73.1374 60.2481 73.45 60.4341C73.7625 60.6127 74.1085 60.702 74.488 60.702C74.8676 60.702 75.2136 60.6127 75.5261 60.4341C75.8461 60.2481 76.0991 59.9839 76.2852 59.6416C76.4712 59.2918 76.5642 58.8863 76.5642 58.4249Z" fill="black"/>
<path d="M84.8889 58.2016C84.8889 58.3951 84.8777 58.5998 84.8554 58.8156H79.9663C80.0035 59.4183 80.2082 59.8909 80.5802 60.2332C80.9597 60.568 81.4174 60.7355 81.9532 60.7355C82.3922 60.7355 82.7569 60.635 83.0471 60.4341C83.3448 60.2257 83.5531 59.9504 83.6722 59.6081H84.7661C84.6024 60.196 84.275 60.676 83.7838 61.048C83.2927 61.4127 82.6825 61.595 81.9532 61.595C81.3728 61.595 80.8518 61.4648 80.3905 61.2043C79.9365 60.9438 79.5793 60.5755 79.3189 60.0992C79.0584 59.6155 78.9282 59.0574 78.9282 58.4249C78.9282 57.7924 79.0547 57.238 79.3077 56.7617C79.5607 56.2854 79.9142 55.9208 80.3681 55.6678C80.8295 55.4073 81.3579 55.2771 81.9532 55.2771C82.5336 55.2771 83.0471 55.4036 83.4936 55.6566C83.9401 55.9096 84.2824 56.2594 84.5205 56.7059C84.7661 57.1449 84.8889 57.6435 84.8889 58.2016ZM83.8396 57.9896C83.8396 57.6026 83.754 57.2714 83.5829 56.9961C83.4117 56.7133 83.1773 56.5012 82.8797 56.3599C82.5894 56.211 82.2657 56.1366 81.9086 56.1366C81.3951 56.1366 80.956 56.3003 80.5914 56.6277C80.2342 56.9552 80.0296 57.4091 79.9775 57.9896H83.8396Z" fill="black"/>
<path d="M93.5856 55.2659C94.0619 55.2659 94.4861 55.3664 94.8581 55.5673C95.2302 55.7608 95.5242 56.0548 95.74 56.4492C95.9558 56.8436 96.0637 57.3235 96.0637 57.8891V61.4945H95.0591V58.0342C95.0591 57.424 94.9065 56.9589 94.6014 56.6389C94.3037 56.3115 93.8982 56.1478 93.3847 56.1478C92.8564 56.1478 92.4359 56.3189 92.1234 56.6612C91.8108 56.9961 91.6546 57.4835 91.6546 58.1235V61.4945H90.65V58.0342C90.65 57.424 90.4974 56.9589 90.1923 56.6389C89.8946 56.3115 89.4891 56.1478 88.9756 56.1478C88.4473 56.1478 88.0268 56.3189 87.7143 56.6612C87.4017 56.9961 87.2454 57.4835 87.2454 58.1235V61.4945H86.2297V55.3776H87.2454V56.2594C87.4464 55.9394 87.7143 55.6938 88.0491 55.5227C88.3914 55.3515 88.7672 55.2659 89.1765 55.2659C89.69 55.2659 90.1439 55.3813 90.5383 55.612C90.9327 55.8427 91.2267 56.1813 91.4201 56.6277C91.5913 56.1961 91.8741 55.8613 92.2685 55.6231C92.6629 55.385 93.1019 55.2659 93.5856 55.2659Z" fill="black"/>
<rect x="202.423" y="270.153" width="53.2747" height="37.0386" rx="18.5193" fill="#EDFFFE"/>
<path d="M210.31 314.426C210.29 314.426 210.275 314.426 210.254 314.421C209.972 314.39 209.772 314.133 209.803 313.854L210.988 303.097C211.039 302.344 210.967 301.669 210.772 301.051C210.705 300.752 210.608 300.34 210.49 299.84C209.885 297.28 209.346 294.92 209.459 294.178L210.352 287.65C210.377 287.46 210.505 287.3 210.685 287.233L211.029 287.109C211.162 287.063 211.311 287.073 211.434 287.135L214.004 288.454C214.029 288.465 214.05 288.48 214.076 288.495C214.537 288.835 215.209 288.856 215.917 288.547L220.262 285.651C220.328 285.291 220.18 284.302 219.974 283.946L215.573 285.739C215.23 285.899 214.84 285.858 214.501 285.626C214.486 285.615 214.47 285.605 214.455 285.59C214.332 285.481 214.142 285.311 213.917 285.105C213.291 284.533 211.634 283.019 211.234 282.885C208.079 282.127 203.032 281.622 202.078 282.673C201.939 282.91 201.724 283.261 201.472 283.673C200.759 284.832 198.892 287.872 198.877 288.655L200.918 293.251C200.99 292.787 201.077 292.375 201.149 292.045L201.867 286.465C201.903 286.182 202.16 285.986 202.442 286.022C202.724 286.058 202.919 286.316 202.883 286.599L202.16 292.226C201.744 294.08 201.652 295.683 201.888 296.796L203.109 302.535C203.17 302.942 203.186 303.287 203.155 303.617L202.821 313.926C202.811 314.21 202.575 314.452 202.293 314.426C202.011 314.416 201.79 314.179 201.796 313.896L202.134 303.56C202.155 303.282 202.144 303.014 202.103 302.715L200.883 297.012C200.77 296.486 200.729 295.92 200.734 295.353C200.724 295.337 200.713 295.317 200.708 295.301L197.907 288.99C197.887 288.944 197.872 288.897 197.866 288.851C197.748 287.97 198.738 286.161 200.6 283.132C200.862 282.704 201.083 282.349 201.216 282.117C201.231 282.091 201.247 282.071 201.262 282.045C203.006 279.917 211.398 281.859 211.485 281.88C211.988 281.999 212.932 282.802 214.609 284.338C214.814 284.523 214.983 284.683 215.107 284.786C215.137 284.806 215.148 284.801 215.173 284.791L219.805 282.9C219.841 282.885 219.877 282.874 219.913 282.869C220.144 282.828 220.585 282.859 220.913 283.524C221.211 284.121 221.559 285.863 221.016 286.373C220.995 286.393 220.975 286.409 220.949 286.424L216.456 289.423C216.43 289.438 216.409 289.454 216.384 289.464C215.332 289.938 214.286 289.897 213.511 289.346L211.316 288.217L210.475 294.323C210.382 294.936 211.157 298.202 211.49 299.598C211.613 300.108 211.711 300.526 211.767 300.783C211.993 301.484 212.075 302.283 212.013 303.189L210.823 313.973C210.793 314.23 210.572 314.426 210.31 314.426ZM206.222 314.426C206.207 314.426 206.197 314.426 206.181 314.426C205.899 314.406 205.689 314.158 205.709 313.875L206.427 304.483C206.474 303.88 206.469 303.535 206.263 302.731C206.258 302.71 206.253 302.695 206.253 302.674L205.566 297.924C205.525 297.64 205.72 297.383 206.002 297.342C206.284 297.3 206.54 297.496 206.581 297.78L207.264 302.504C207.489 303.39 207.505 303.859 207.453 304.57L206.735 313.962C206.715 314.22 206.489 314.426 206.222 314.426ZM208.566 279.922C207.689 279.922 206.756 279.613 205.981 279.031C204.807 278.15 204.263 276.857 204.483 275.491C204.494 275.43 204.514 275.378 204.54 275.327C204.345 275.208 204.217 274.997 204.206 274.755L204.109 273.317C203.96 271.174 205.827 269.948 207.746 269.69C209.741 269.422 211.967 270.159 212.357 272.101L212.598 273.992L215.225 273.848C215.507 273.838 215.748 274.049 215.763 274.337C215.779 274.621 215.563 274.863 215.281 274.878L212.316 275.038C212.285 275.048 212.249 275.059 212.219 275.059C212.157 275.064 212.101 275.064 212.044 275.048L205.479 275.404C205.504 275.481 205.514 275.569 205.499 275.656C205.34 276.635 205.74 277.563 206.597 278.207C207.5 278.887 208.705 279.082 209.526 278.691C210.675 278.14 211.203 277.248 211.141 275.971C211.126 275.687 211.347 275.445 211.629 275.43C211.901 275.414 212.152 275.636 212.167 275.919C212.249 277.609 211.49 278.887 209.967 279.618C209.541 279.824 209.064 279.922 208.566 279.922ZM205.227 274.683V274.703C205.227 274.693 205.227 274.688 205.227 274.683ZM208.536 270.669C208.315 270.669 208.095 270.684 207.879 270.715C206.54 270.896 205.017 271.669 205.125 273.25L205.202 274.394L211.567 274.049L211.347 272.266C211.126 271.184 209.839 270.669 208.536 270.669Z" fill="black"/>
<path d="M255.414 314.426C255.132 314.426 254.901 314.194 254.901 313.911V311.572H237.332V313.911C237.332 314.194 237.102 314.426 236.819 314.426C236.537 314.426 236.306 314.194 236.306 313.911V311.572H218.733V313.911C218.733 314.194 218.502 314.426 218.22 314.426C217.938 314.426 217.707 314.194 217.707 313.911V290.252C217.707 289.969 217.938 289.737 218.22 289.737C218.502 289.737 218.733 289.969 218.733 290.252V295.523H236.301V281.53H218.22C217.938 281.53 217.707 281.298 217.707 281.014V268.005C217.707 267.722 217.938 267.49 218.22 267.49C218.502 267.49 218.733 267.722 218.733 268.005V280.499H236.301V268.005C236.301 267.722 236.532 267.49 236.814 267.49C237.096 267.49 237.327 267.722 237.327 268.005V280.499H254.896V268.005C254.896 267.722 255.127 267.49 255.409 267.49C255.691 267.49 255.922 267.722 255.922 268.005V313.911C255.927 314.194 255.696 314.426 255.414 314.426ZM237.332 310.541H254.901V296.553H237.332V310.541ZM218.733 310.541H236.301V296.553H218.733V310.541ZM237.332 295.523H254.901V281.53H237.332V295.523ZM252.023 308.48H240.046C239.764 308.48 239.533 308.249 239.533 307.965V299.037C239.533 298.753 239.764 298.521 240.046 298.521H252.023C252.305 298.521 252.536 298.753 252.536 299.037V307.965C252.536 308.249 252.305 308.48 252.023 308.48ZM240.559 307.45H251.51V299.552H246.545V301.845C246.545 302.128 246.314 302.36 246.032 302.36C245.75 302.36 245.519 302.128 245.519 301.845V299.552H240.554V307.45H240.559ZM233.424 308.48H221.446C221.164 308.48 220.933 308.249 220.933 307.965V299.037C220.933 298.753 221.164 298.521 221.446 298.521H233.424C233.706 298.521 233.937 298.753 233.937 299.037V307.965C233.937 308.249 233.711 308.48 233.424 308.48ZM221.959 307.45H232.911V299.552H227.945V301.845C227.945 302.128 227.715 302.36 227.433 302.36C227.15 302.36 226.92 302.128 226.92 301.845V299.552H221.954V307.45H221.959ZM252.023 293.457H240.046C239.764 293.457 239.533 293.225 239.533 292.942V284.013C239.533 283.73 239.764 283.498 240.046 283.498H252.023C252.305 283.498 252.536 283.73 252.536 284.013V292.942C252.536 293.23 252.305 293.457 252.023 293.457ZM240.559 292.426H251.51V284.528H246.545V286.821C246.545 287.104 246.314 287.336 246.032 287.336C245.75 287.336 245.519 287.104 245.519 286.821V284.528H240.554V292.426H240.559ZM233.424 293.457H221.446C221.164 293.457 220.933 293.225 220.933 292.942V288.202C220.933 287.918 221.164 287.686 221.446 287.686C221.729 287.686 221.959 287.918 221.959 288.202V292.426H232.911V284.528H227.945V286.821C227.945 287.104 227.715 287.336 227.433 287.336C227.15 287.336 226.92 287.104 226.92 286.821V284.528H223.247C222.965 284.528 222.734 284.296 222.734 284.013C222.734 283.73 222.965 283.498 223.247 283.498H233.429C233.711 283.498 233.942 283.73 233.942 284.013V292.942C233.937 293.23 233.711 293.457 233.424 293.457ZM252.023 278.433H240.046C239.764 278.433 239.533 278.201 239.533 277.918V268.989C239.533 268.706 239.764 268.474 240.046 268.474H252.023C252.305 268.474 252.536 268.706 252.536 268.989V277.918C252.536 278.206 252.305 278.433 252.023 278.433ZM240.559 277.403H251.51V269.504H246.545V271.797C246.545 272.081 246.314 272.312 246.032 272.312C245.75 272.312 245.519 272.081 245.519 271.797V269.504H240.554V277.403H240.559ZM233.424 278.433H221.446C221.164 278.433 220.933 278.201 220.933 277.918V268.989C220.933 268.706 221.164 268.474 221.446 268.474H233.424C233.706 268.474 233.937 268.706 233.937 268.989V277.918C233.937 278.206 233.711 278.433 233.424 278.433ZM221.959 277.403H232.911V269.504H227.945V271.797C227.945 272.081 227.715 272.312 227.433 272.312C227.15 272.312 226.92 272.081 226.92 271.797V269.504H221.954V277.403H221.959Z" fill="black"/>
<path d="M202.801 324.973V327.574H205.636V328.411H202.801V331.09H205.971V331.927H201.785V324.136H205.971V324.973H202.801Z" fill="black"/>
<path d="M210.7 331.927L209.249 329.65L207.854 331.927H206.794L208.769 328.891L206.794 325.81H207.943L209.394 328.076L210.779 325.81H211.839L209.874 328.835L211.85 331.927H210.7Z" fill="black"/>
<path d="M213.865 326.937C214.066 326.588 214.364 326.297 214.758 326.067C215.16 325.829 215.625 325.709 216.153 325.709C216.697 325.709 217.188 325.84 217.627 326.1C218.073 326.361 218.423 326.729 218.676 327.205C218.929 327.674 219.056 328.221 219.056 328.846C219.056 329.464 218.929 330.014 218.676 330.498C218.423 330.982 218.073 331.358 217.627 331.626C217.188 331.893 216.697 332.027 216.153 332.027C215.633 332.027 215.171 331.912 214.769 331.681C214.375 331.443 214.074 331.149 213.865 330.8V334.829H212.849V325.81H213.865V326.937ZM218.018 328.846C218.018 328.385 217.925 327.983 217.738 327.641C217.552 327.298 217.299 327.038 216.979 326.859C216.667 326.681 216.321 326.591 215.941 326.591C215.569 326.591 215.223 326.684 214.903 326.87C214.591 327.049 214.338 327.313 214.144 327.663C213.958 328.005 213.865 328.403 213.865 328.857C213.865 329.319 213.958 329.724 214.144 330.074C214.338 330.416 214.591 330.68 214.903 330.866C215.223 331.045 215.569 331.134 215.941 331.134C216.321 331.134 216.667 331.045 216.979 330.866C217.299 330.68 217.552 330.416 217.738 330.074C217.925 329.724 218.018 329.315 218.018 328.846Z" fill="black"/>
<path d="M225.974 328.634C225.974 328.827 225.963 329.032 225.94 329.248H221.051C221.088 329.851 221.293 330.323 221.665 330.666C222.045 331 222.502 331.168 223.038 331.168C223.477 331.168 223.842 331.067 224.132 330.866C224.43 330.658 224.638 330.383 224.757 330.04H225.851C225.687 330.628 225.36 331.108 224.869 331.48C224.378 331.845 223.767 332.027 223.038 332.027C222.458 332.027 221.937 331.897 221.475 331.637C221.021 331.376 220.664 331.008 220.404 330.532C220.143 330.048 220.013 329.49 220.013 328.857C220.013 328.225 220.14 327.67 220.393 327.194C220.646 326.718 220.999 326.353 221.453 326.1C221.914 325.84 222.443 325.709 223.038 325.709C223.619 325.709 224.132 325.836 224.579 326.089C225.025 326.342 225.367 326.692 225.605 327.138C225.851 327.577 225.974 328.076 225.974 328.634ZM224.925 328.422C224.925 328.035 224.839 327.704 224.668 327.428C224.497 327.146 224.262 326.934 223.965 326.792C223.674 326.643 223.351 326.569 222.993 326.569C222.48 326.569 222.041 326.733 221.676 327.06C221.319 327.388 221.114 327.841 221.062 328.422H224.925Z" fill="black"/>
<path d="M226.935 328.846C226.935 328.221 227.062 327.674 227.315 327.205C227.568 326.729 227.914 326.361 228.353 326.1C228.799 325.84 229.298 325.709 229.848 325.709C230.325 325.709 230.767 325.821 231.177 326.044C231.586 326.26 231.899 326.547 232.114 326.904V323.667H233.141V331.927H232.114V330.777C231.913 331.142 231.616 331.443 231.221 331.681C230.827 331.912 230.366 332.027 229.837 332.027C229.294 332.027 228.799 331.893 228.353 331.626C227.914 331.358 227.568 330.982 227.315 330.498C227.062 330.014 226.935 329.464 226.935 328.846ZM232.114 328.857C232.114 328.396 232.021 327.994 231.835 327.652C231.649 327.309 231.396 327.049 231.076 326.87C230.764 326.684 230.418 326.591 230.038 326.591C229.659 326.591 229.313 326.681 229 326.859C228.688 327.038 228.438 327.298 228.252 327.641C228.066 327.983 227.973 328.385 227.973 328.846C227.973 329.315 228.066 329.724 228.252 330.074C228.438 330.416 228.688 330.68 229 330.866C229.313 331.045 229.659 331.134 230.038 331.134C230.418 331.134 230.764 331.045 231.076 330.866C231.396 330.68 231.649 330.416 231.835 330.074C232.021 329.724 232.114 329.319 232.114 328.857Z" fill="black"/>
<path d="M235.383 324.817C235.189 324.817 235.025 324.75 234.891 324.616C234.757 324.482 234.69 324.318 234.69 324.124C234.69 323.931 234.757 323.767 234.891 323.633C235.025 323.499 235.189 323.432 235.383 323.432C235.569 323.432 235.725 323.499 235.851 323.633C235.985 323.767 236.052 323.931 236.052 324.124C236.052 324.318 235.985 324.482 235.851 324.616C235.725 324.75 235.569 324.817 235.383 324.817ZM235.874 325.81V331.927H234.858V325.81H235.874Z" fill="black"/>
<path d="M240.206 331.168C240.652 331.168 241.024 331.064 241.322 330.855C241.62 330.647 241.824 330.349 241.936 329.962H243.03C242.881 330.543 242.587 331.019 242.148 331.391C241.716 331.756 241.173 331.964 240.518 332.016V332.574C240.957 332.567 241.307 332.66 241.567 332.853C241.828 333.047 241.958 333.322 241.958 333.679C241.958 334.029 241.832 334.308 241.579 334.517C241.326 334.725 240.998 334.829 240.596 334.829H239.313V334.171H240.395C240.641 334.171 240.82 334.133 240.931 334.059C241.05 333.984 241.11 333.858 241.11 333.679C241.11 333.508 241.05 333.385 240.931 333.311C240.82 333.237 240.641 333.199 240.395 333.199H239.837V332.005C239.324 331.953 238.87 331.793 238.476 331.525C238.081 331.25 237.772 330.885 237.549 330.431C237.333 329.97 237.225 329.445 237.225 328.857C237.225 328.225 237.352 327.674 237.605 327.205C237.858 326.729 238.208 326.361 238.654 326.1C239.108 325.84 239.625 325.709 240.206 325.709C240.957 325.709 241.575 325.892 242.059 326.256C242.55 326.621 242.873 327.127 243.03 327.775H241.936C241.832 327.402 241.627 327.108 241.322 326.893C241.024 326.677 240.652 326.569 240.206 326.569C239.625 326.569 239.156 326.77 238.799 327.172C238.442 327.566 238.263 328.128 238.263 328.857C238.263 329.594 238.442 330.163 238.799 330.565C239.156 330.967 239.625 331.168 240.206 331.168Z" fill="black"/>
<path d="M244.006 328.846C244.006 328.221 244.132 327.674 244.385 327.205C244.638 326.729 244.984 326.361 245.423 326.1C245.87 325.84 246.365 325.709 246.908 325.709C247.444 325.709 247.909 325.825 248.303 326.056C248.697 326.286 248.991 326.576 249.185 326.926V325.81H250.212V331.927H249.185V330.788C248.984 331.146 248.683 331.443 248.281 331.681C247.886 331.912 247.425 332.027 246.897 332.027C246.353 332.027 245.862 331.893 245.423 331.626C244.984 331.358 244.638 330.982 244.385 330.498C244.132 330.014 244.006 329.464 244.006 328.846ZM249.185 328.857C249.185 328.396 249.092 327.994 248.906 327.652C248.72 327.309 248.467 327.049 248.147 326.87C247.834 326.684 247.488 326.591 247.109 326.591C246.729 326.591 246.383 326.681 246.071 326.859C245.758 327.038 245.509 327.298 245.323 327.641C245.137 327.983 245.044 328.385 245.044 328.846C245.044 329.315 245.137 329.724 245.323 330.074C245.509 330.416 245.758 330.68 246.071 330.866C246.383 331.045 246.729 331.134 247.109 331.134C247.488 331.134 247.834 331.045 248.147 330.866C248.467 330.68 248.72 330.416 248.906 330.074C249.092 329.724 249.185 329.319 249.185 328.857ZM245.669 325.151C245.721 324.772 245.844 324.482 246.037 324.281C246.238 324.08 246.487 323.979 246.785 323.979C246.926 323.979 247.045 324.005 247.142 324.057C247.246 324.102 247.369 324.169 247.511 324.258C247.615 324.333 247.708 324.392 247.79 324.437C247.871 324.474 247.961 324.493 248.057 324.493C248.184 324.493 248.292 324.452 248.381 324.37C248.471 324.288 248.526 324.169 248.549 324.013H249.129C249.084 324.385 248.962 324.671 248.761 324.872C248.56 325.073 248.311 325.174 248.013 325.174C247.871 325.174 247.745 325.151 247.633 325.107C247.529 325.055 247.41 324.98 247.276 324.883C247.157 324.809 247.06 324.753 246.986 324.716C246.919 324.679 246.837 324.66 246.74 324.66C246.614 324.66 246.506 324.701 246.417 324.783C246.335 324.865 246.283 324.988 246.26 325.151H245.669Z" fill="black"/>
<path d="M254.596 332.027C254.023 332.027 253.502 331.897 253.033 331.637C252.572 331.376 252.207 331.008 251.94 330.532C251.679 330.048 251.549 329.49 251.549 328.857C251.549 328.232 251.683 327.681 251.951 327.205C252.226 326.722 252.598 326.353 253.067 326.1C253.536 325.84 254.06 325.709 254.641 325.709C255.221 325.709 255.746 325.84 256.215 326.1C256.684 326.353 257.052 326.718 257.32 327.194C257.595 327.67 257.733 328.225 257.733 328.857C257.733 329.49 257.591 330.048 257.309 330.532C257.033 331.008 256.657 331.376 256.181 331.637C255.705 331.897 255.177 332.027 254.596 332.027ZM254.596 331.134C254.961 331.134 255.303 331.049 255.623 330.878C255.943 330.706 256.2 330.45 256.393 330.107C256.594 329.765 256.695 329.348 256.695 328.857C256.695 328.366 256.598 327.949 256.404 327.607C256.211 327.265 255.958 327.012 255.645 326.848C255.333 326.677 254.994 326.591 254.63 326.591C254.258 326.591 253.915 326.677 253.603 326.848C253.298 327.012 253.052 327.265 252.866 327.607C252.68 327.949 252.587 328.366 252.587 328.857C252.587 329.356 252.676 329.776 252.855 330.119C253.041 330.461 253.286 330.718 253.592 330.889C253.897 331.053 254.232 331.134 254.596 331.134Z" fill="black"/>
<path d="M213.255 55.9915C213.255 56.6389 213.032 57.1784 212.586 57.61C212.147 58.0342 211.473 58.2463 210.565 58.2463H209.069V61.4945H208.054V53.7144H210.565C211.443 53.7144 212.109 53.9265 212.563 54.3506C213.025 54.7748 213.255 55.3218 213.255 55.9915ZM210.565 57.4091C211.131 57.4091 211.548 57.2863 211.815 57.0408C212.083 56.7952 212.217 56.4454 212.217 55.9915C212.217 55.0315 211.667 54.5516 210.565 54.5516H209.069V57.4091H210.565Z" fill="black"/>
<path d="M215.042 54.3841C214.849 54.3841 214.685 54.3172 214.551 54.1832C214.417 54.0493 214.35 53.8855 214.35 53.6921C214.35 53.4986 214.417 53.3349 214.551 53.2009C214.685 53.067 214.849 53 215.042 53C215.228 53 215.385 53.067 215.511 53.2009C215.645 53.3349 215.712 53.4986 215.712 53.6921C215.712 53.8855 215.645 54.0493 215.511 54.1832C215.385 54.3172 215.228 54.3841 215.042 54.3841ZM215.534 55.3776V61.4945H214.518V55.3776H215.534Z" fill="black"/>
<path d="M216.885 58.4249C216.885 57.7924 217.012 57.2417 217.265 56.7729C217.518 56.2966 217.868 55.9282 218.314 55.6678C218.768 55.4073 219.285 55.2771 219.866 55.2771C220.617 55.2771 221.235 55.4594 221.719 55.8241C222.21 56.1887 222.533 56.6947 222.69 57.3421H221.596C221.492 56.9701 221.287 56.6761 220.982 56.4603C220.684 56.2445 220.312 56.1366 219.866 56.1366C219.285 56.1366 218.816 56.3375 218.459 56.7394C218.102 57.1338 217.923 57.6956 217.923 58.4249C217.923 59.1616 218.102 59.7309 218.459 60.1327C218.816 60.5346 219.285 60.7355 219.866 60.7355C220.312 60.7355 220.684 60.6313 220.982 60.4229C221.28 60.2146 221.484 59.9169 221.596 59.53H222.69C222.526 60.155 222.199 60.6574 221.707 61.0369C221.216 61.4089 220.602 61.595 219.866 61.595C219.285 61.595 218.768 61.4648 218.314 61.2043C217.868 60.9438 217.518 60.5755 217.265 60.0992C217.012 59.623 216.885 59.0649 216.885 58.4249Z" fill="black"/>
<path d="M227.461 61.4945L225.061 58.7932V61.4945H224.045V53.2344H225.061V58.09L227.416 55.3776H228.834L225.954 58.4249L228.845 61.4945H227.461Z" fill="black"/>
<path d="M230.314 54.3841C230.121 54.3841 229.957 54.3172 229.823 54.1832C229.689 54.0493 229.622 53.8855 229.622 53.6921C229.622 53.4986 229.689 53.3349 229.823 53.2009C229.957 53.067 230.121 53 230.314 53C230.5 53 230.657 53.067 230.783 53.2009C230.917 53.3349 230.984 53.4986 230.984 53.6921C230.984 53.8855 230.917 54.0493 230.783 54.1832C230.657 54.3172 230.5 54.3841 230.314 54.3841ZM230.805 55.3776V61.4945H229.79V55.3776H230.805Z" fill="black"/>
<path d="M235.517 55.266C236.261 55.266 236.864 55.4929 237.325 55.9469C237.787 56.3933 238.017 57.0408 238.017 57.8891V61.4945H237.013V58.0342C237.013 57.424 236.86 56.9589 236.555 56.6389C236.25 56.3115 235.833 56.1478 235.305 56.1478C234.769 56.1478 234.341 56.3152 234.021 56.6501C233.709 56.9849 233.552 57.4724 233.552 58.1123V61.4945H232.537V55.3776H233.552V56.2482C233.753 55.9357 234.025 55.6938 234.367 55.5227C234.717 55.3515 235.1 55.266 235.517 55.266Z" fill="black"/>
<path d="M242.199 55.2771C242.728 55.2771 243.189 55.3925 243.583 55.6231C243.985 55.8538 244.283 56.1441 244.476 56.4938V55.3776H245.503V61.6285C245.503 62.1866 245.384 62.6815 245.146 63.1131C244.908 63.5521 244.566 63.8944 244.119 64.14C243.68 64.3856 243.167 64.5084 242.579 64.5084C241.775 64.5084 241.105 64.3186 240.57 63.9391C240.034 63.5596 239.718 63.0424 239.621 62.3875H240.625C240.737 62.7596 240.968 63.0572 241.318 63.2805C241.667 63.5112 242.088 63.6265 242.579 63.6265C243.137 63.6265 243.591 63.4517 243.941 63.1019C244.298 62.7521 244.476 62.261 244.476 61.6285V60.3448C244.276 60.702 243.978 60.9997 243.583 61.2378C243.189 61.4759 242.728 61.595 242.199 61.595C241.656 61.595 241.161 61.461 240.715 61.1931C240.276 60.9252 239.93 60.5494 239.677 60.0657C239.424 59.582 239.297 59.0314 239.297 58.4137C239.297 57.7886 239.424 57.2417 239.677 56.7729C239.93 56.2966 240.276 55.9282 240.715 55.6678C241.161 55.4073 241.656 55.2771 242.199 55.2771ZM244.476 58.4249C244.476 57.9635 244.383 57.5617 244.197 57.2194C244.011 56.877 243.758 56.6166 243.438 56.438C243.126 56.252 242.78 56.1589 242.4 56.1589C242.021 56.1589 241.675 56.2482 241.362 56.4268C241.05 56.6054 240.8 56.8659 240.614 57.2082C240.428 57.5505 240.335 57.9523 240.335 58.4137C240.335 58.8825 240.428 59.2918 240.614 59.6416C240.8 59.9839 241.05 60.2481 241.362 60.4341C241.675 60.6127 242.021 60.702 242.4 60.702C242.78 60.702 243.126 60.6127 243.438 60.4341C243.758 60.2481 244.011 59.9839 244.197 59.6416C244.383 59.2918 244.476 58.8863 244.476 58.4249Z" fill="black"/>
<path d="M337.956 172.181C337.956 172.829 337.732 173.368 337.286 173.8C336.847 174.224 336.173 174.436 335.265 174.436H333.77V177.684H332.754V169.904H335.265C336.144 169.904 336.81 170.116 337.263 170.54C337.725 170.965 337.956 171.511 337.956 172.181ZM335.265 173.599C335.831 173.599 336.248 173.476 336.516 173.23C336.784 172.985 336.917 172.635 336.917 172.181C336.917 171.221 336.367 170.741 335.265 170.741H333.77V173.599H335.265Z" fill="black"/>
<path d="M338.839 174.603C338.839 173.978 338.965 173.431 339.218 172.963C339.471 172.486 339.817 172.118 340.256 171.857C340.703 171.597 341.197 171.467 341.741 171.467C342.276 171.467 342.742 171.582 343.136 171.813C343.53 172.044 343.824 172.334 344.018 172.684V171.567H345.045V177.684H344.018V176.546C343.817 176.903 343.516 177.201 343.114 177.439C342.719 177.669 342.258 177.785 341.73 177.785C341.186 177.785 340.695 177.651 340.256 177.383C339.817 177.115 339.471 176.739 339.218 176.255C338.965 175.772 338.839 175.221 338.839 174.603ZM344.018 174.615C344.018 174.153 343.925 173.751 343.739 173.409C343.553 173.067 343.3 172.806 342.98 172.628C342.667 172.442 342.321 172.349 341.942 172.349C341.562 172.349 341.216 172.438 340.904 172.617C340.591 172.795 340.342 173.056 340.156 173.398C339.97 173.74 339.877 174.142 339.877 174.603C339.877 175.072 339.97 175.482 340.156 175.831C340.342 176.174 340.591 176.438 340.904 176.624C341.216 176.802 341.562 176.892 341.942 176.892C342.321 176.892 342.667 176.802 342.98 176.624C343.3 176.438 343.553 176.174 343.739 175.831C343.925 175.482 344.018 175.076 344.018 174.615Z" fill="black"/>
<path d="M346.382 174.615C346.382 173.982 346.508 173.431 346.761 172.963C347.014 172.486 347.364 172.118 347.811 171.857C348.265 171.597 348.782 171.467 349.362 171.467C350.114 171.467 350.731 171.649 351.215 172.014C351.706 172.378 352.03 172.884 352.186 173.532H351.092C350.988 173.16 350.783 172.866 350.478 172.65C350.181 172.434 349.809 172.326 349.362 172.326C348.782 172.326 348.313 172.527 347.956 172.929C347.598 173.323 347.42 173.885 347.42 174.615C347.42 175.351 347.598 175.921 347.956 176.322C348.313 176.724 348.782 176.925 349.362 176.925C349.809 176.925 350.181 176.821 350.478 176.613C350.776 176.404 350.981 176.107 351.092 175.72H352.186C352.022 176.345 351.695 176.847 351.204 177.227C350.713 177.599 350.099 177.785 349.362 177.785C348.782 177.785 348.265 177.654 347.811 177.394C347.364 177.134 347.014 176.765 346.761 176.289C346.508 175.813 346.382 175.255 346.382 174.615Z" fill="black"/>
<path d="M356.957 177.684L354.557 174.983V177.684H353.542V169.424H354.557V174.28L356.913 171.567H358.33L355.45 174.615L358.341 177.684H356.957Z" fill="black"/>
<path d="M359.811 170.574C359.617 170.574 359.454 170.507 359.32 170.373C359.186 170.239 359.119 170.075 359.119 169.882C359.119 169.688 359.186 169.525 359.32 169.391C359.454 169.257 359.617 169.19 359.811 169.19C359.997 169.19 360.153 169.257 360.28 169.391C360.414 169.525 360.481 169.688 360.481 169.882C360.481 170.075 360.414 170.239 360.28 170.373C360.153 170.507 359.997 170.574 359.811 170.574ZM360.302 171.567V177.684H359.286V171.567H360.302Z" fill="black"/>
<path d="M365.014 171.456C365.758 171.456 366.36 171.683 366.822 172.137C367.283 172.583 367.514 173.23 367.514 174.079V177.684H366.509V174.224C366.509 173.614 366.357 173.149 366.052 172.829C365.747 172.501 365.33 172.337 364.801 172.337C364.266 172.337 363.838 172.505 363.518 172.84C363.205 173.175 363.049 173.662 363.049 174.302V177.684H362.033V171.567H363.049V172.438C363.25 172.125 363.522 171.884 363.864 171.712C364.214 171.541 364.597 171.456 365.014 171.456Z" fill="black"/>
<path d="M371.696 171.467C372.224 171.467 372.686 171.582 373.08 171.813C373.482 172.044 373.779 172.334 373.973 172.684V171.567H375V177.818C375 178.376 374.881 178.871 374.643 179.303C374.405 179.742 374.062 180.084 373.616 180.33C373.177 180.575 372.663 180.698 372.075 180.698C371.272 180.698 370.602 180.508 370.066 180.129C369.53 179.749 369.214 179.232 369.117 178.577H370.122C370.234 178.949 370.464 179.247 370.814 179.47C371.164 179.701 371.584 179.816 372.075 179.816C372.633 179.816 373.087 179.641 373.437 179.292C373.794 178.942 373.973 178.451 373.973 177.818V176.535C373.772 176.892 373.474 177.189 373.08 177.427C372.686 177.666 372.224 177.785 371.696 177.785C371.153 177.785 370.658 177.651 370.211 177.383C369.772 177.115 369.426 176.739 369.173 176.255C368.92 175.772 368.794 175.221 368.794 174.603C368.794 173.978 368.92 173.431 369.173 172.963C369.426 172.486 369.772 172.118 370.211 171.857C370.658 171.597 371.153 171.467 371.696 171.467ZM373.973 174.615C373.973 174.153 373.88 173.751 373.694 173.409C373.508 173.067 373.255 172.806 372.935 172.628C372.622 172.442 372.276 172.349 371.897 172.349C371.517 172.349 371.171 172.438 370.859 172.617C370.546 172.795 370.297 173.056 370.111 173.398C369.925 173.74 369.832 174.142 369.832 174.603C369.832 175.072 369.925 175.482 370.111 175.831C370.297 176.174 370.546 176.438 370.859 176.624C371.171 176.802 371.517 176.892 371.897 176.892C372.276 176.892 372.622 176.802 372.935 176.624C373.255 176.438 373.508 176.174 373.694 175.831C373.88 175.482 373.973 175.076 373.973 174.615Z" fill="black"/>
<path d="M54.1598 324.973V327.574H56.995V328.411H54.1598V331.09H57.3299V331.927H53.144V324.136H57.3299V324.973H54.1598Z" fill="black"/>
<path d="M61.8473 325.698C62.5914 325.698 63.1942 325.925 63.6555 326.379C64.1169 326.826 64.3476 327.473 64.3476 328.322V331.927H63.343V328.467C63.343 327.856 63.1904 327.391 62.8853 327.071C62.5802 326.744 62.1635 326.58 61.6352 326.58C61.0994 326.58 60.6715 326.748 60.3515 327.082C60.039 327.417 59.8827 327.905 59.8827 328.545V331.927H58.8669V325.81H59.8827V326.681C60.0836 326.368 60.3552 326.126 60.6975 325.955C61.0473 325.784 61.4305 325.698 61.8473 325.698Z" fill="black"/>
<path d="M67.2459 326.647V330.253C67.2459 330.55 67.3091 330.762 67.4356 330.889C67.5622 331.008 67.7817 331.067 68.0942 331.067H68.8421V331.927H67.9268C67.3612 331.927 66.9371 331.797 66.6543 331.536C66.3715 331.276 66.2301 330.848 66.2301 330.253V326.647H65.4376V325.81H66.2301V324.27H67.2459V325.81H68.8421V326.647H67.2459Z" fill="black"/>
<path d="M71.0886 326.803C71.2672 326.454 71.5202 326.182 71.8476 325.989C72.1825 325.795 72.5881 325.698 73.0643 325.698V326.748H72.7964C71.6579 326.748 71.0886 327.365 71.0886 328.601V331.927H70.0728V325.81H71.0886V326.803Z" fill="black"/>
<path d="M79.8181 328.634C79.8181 328.828 79.8069 329.032 79.7846 329.248H74.8955C74.9327 329.851 75.1373 330.323 75.5094 330.666C75.8889 331 76.3466 331.168 76.8824 331.168C77.3214 331.168 77.6861 331.067 77.9763 330.867C78.2739 330.658 78.4823 330.383 78.6014 330.041H79.6953C79.5316 330.628 79.2041 331.108 78.713 331.48C78.2218 331.845 77.6116 332.027 76.8824 332.027C76.3019 332.027 75.781 331.897 75.3196 331.637C74.8657 331.376 74.5085 331.008 74.2481 330.532C73.9876 330.048 73.8574 329.49 73.8574 328.857C73.8574 328.225 73.9839 327.67 74.2369 327.194C74.4899 326.718 74.8434 326.353 75.2973 326.1C75.7587 325.84 76.287 325.71 76.8824 325.71C77.4628 325.71 77.9763 325.836 78.4228 326.089C78.8693 326.342 79.2116 326.692 79.4497 327.138C79.6953 327.577 79.8181 328.076 79.8181 328.634ZM78.7688 328.422C78.7688 328.035 78.6832 327.704 78.5121 327.429C78.3409 327.146 78.1065 326.934 77.8088 326.792C77.5186 326.643 77.1949 326.569 76.8377 326.569C76.3243 326.569 75.8852 326.733 75.5206 327.06C75.1634 327.388 74.9587 327.842 74.9066 328.422H78.7688Z" fill="black"/>
<path d="M83.6815 325.71C84.2099 325.71 84.6713 325.825 85.0657 326.056C85.4675 326.286 85.7652 326.576 85.9586 326.926V325.81H86.9856V332.061C86.9856 332.619 86.8665 333.114 86.6284 333.545C86.3903 333.985 86.0479 334.327 85.6014 334.572C85.1624 334.818 84.6489 334.941 84.061 334.941C83.2574 334.941 82.5876 334.751 82.0518 334.371C81.516 333.992 81.1998 333.475 81.103 332.82H82.1076C82.2193 333.192 82.45 333.49 82.7997 333.713C83.1495 333.944 83.5699 334.059 84.061 334.059C84.6192 334.059 85.0731 333.884 85.4229 333.534C85.78 333.185 85.9586 332.693 85.9586 332.061V330.777C85.7577 331.134 85.4601 331.432 85.0657 331.67C84.6713 331.908 84.2099 332.027 83.6815 332.027C83.1383 332.027 82.6434 331.893 82.1969 331.626C81.7579 331.358 81.4119 330.982 81.1588 330.498C80.9058 330.014 80.7793 329.464 80.7793 328.846C80.7793 328.221 80.9058 327.674 81.1588 327.205C81.4119 326.729 81.7579 326.361 82.1969 326.1C82.6434 325.84 83.1383 325.71 83.6815 325.71ZM85.9586 328.857C85.9586 328.396 85.8656 327.994 85.6796 327.652C85.4935 327.309 85.2405 327.049 84.9205 326.87C84.608 326.684 84.262 326.591 83.8825 326.591C83.5029 326.591 83.1569 326.681 82.8444 326.859C82.5318 327.038 82.2825 327.298 82.0965 327.641C81.9104 327.983 81.8174 328.385 81.8174 328.846C81.8174 329.315 81.9104 329.724 82.0965 330.074C82.2825 330.416 82.5318 330.68 82.8444 330.867C83.1569 331.045 83.5029 331.134 83.8825 331.134C84.262 331.134 84.608 331.045 84.9205 330.867C85.2405 330.68 85.4935 330.416 85.6796 330.074C85.8656 329.724 85.9586 329.319 85.9586 328.857Z" fill="black"/>
<path d="M88.3226 328.846C88.3226 328.221 88.4491 327.674 88.7021 327.205C88.9551 326.729 89.3012 326.361 89.7402 326.1C90.1867 325.84 90.6816 325.71 91.2248 325.71C91.7606 325.71 92.2257 325.825 92.6201 326.056C93.0145 326.286 93.3084 326.576 93.5019 326.926V325.81H94.5289V331.927H93.5019V330.788C93.301 331.146 92.9996 331.443 92.5978 331.681C92.2034 331.912 91.742 332.027 91.2137 332.027C90.6704 332.027 90.1793 331.893 89.7402 331.626C89.3012 331.358 88.9551 330.982 88.7021 330.498C88.4491 330.014 88.3226 329.464 88.3226 328.846ZM93.5019 328.857C93.5019 328.396 93.4089 327.994 93.2229 327.652C93.0368 327.309 92.7838 327.049 92.4638 326.87C92.1513 326.684 91.8053 326.591 91.4257 326.591C91.0462 326.591 90.7002 326.681 90.3876 326.859C90.0751 327.038 89.8258 327.298 89.6398 327.641C89.4537 327.983 89.3607 328.385 89.3607 328.846C89.3607 329.315 89.4537 329.724 89.6398 330.074C89.8258 330.416 90.0751 330.68 90.3876 330.867C90.7002 331.045 91.0462 331.134 91.4257 331.134C91.8053 331.134 92.1513 331.045 92.4638 330.867C92.7838 330.68 93.0368 330.416 93.2229 330.074C93.4089 329.724 93.5019 329.319 93.5019 328.857Z" fill="black"/>
<path d="M101.711 326.647H100.427V331.927H99.4111V326.647H98.6185V325.81H99.4111V325.375C99.4111 324.69 99.5859 324.191 99.9357 323.879C100.293 323.559 100.862 323.399 101.644 323.399V324.247C101.197 324.247 100.881 324.337 100.695 324.515C100.516 324.686 100.427 324.973 100.427 325.375V325.81H101.711V326.647Z" fill="black"/>
<path d="M103.419 324.817C103.226 324.817 103.062 324.75 102.928 324.616C102.794 324.482 102.727 324.318 102.727 324.124C102.727 323.931 102.794 323.767 102.928 323.633C103.062 323.499 103.226 323.432 103.419 323.432C103.606 323.432 103.762 323.499 103.888 323.633C104.022 323.767 104.089 323.931 104.089 324.124C104.089 324.318 104.022 324.482 103.888 324.616C103.762 324.75 103.606 324.817 103.419 324.817ZM103.911 325.81V331.927H102.895V325.81H103.911Z" fill="black"/>
<path d="M108.622 325.698C109.366 325.698 109.969 325.925 110.43 326.379C110.892 326.826 111.123 327.473 111.123 328.322V331.927H110.118V328.467C110.118 327.856 109.965 327.391 109.66 327.071C109.355 326.744 108.938 326.58 108.41 326.58C107.874 326.58 107.446 326.748 107.126 327.082C106.814 327.417 106.658 327.905 106.658 328.545V331.927H105.642V325.81H106.658V326.681C106.859 326.368 107.13 326.126 107.472 325.955C107.822 325.784 108.205 325.698 108.622 325.698Z" fill="black"/>
<path d="M112.402 328.846C112.402 328.221 112.529 327.674 112.782 327.205C113.035 326.729 113.381 326.361 113.82 326.1C114.266 325.84 114.761 325.71 115.304 325.71C115.84 325.71 116.305 325.825 116.7 326.056C117.094 326.286 117.388 326.576 117.582 326.926V325.81H118.609V331.927H117.582V330.788C117.381 331.146 117.079 331.443 116.677 331.681C116.283 331.912 115.822 332.027 115.293 332.027C114.75 332.027 114.259 331.893 113.82 331.626C113.381 331.358 113.035 330.982 112.782 330.498C112.529 330.014 112.402 329.464 112.402 328.846ZM117.582 328.857C117.582 328.396 117.489 327.994 117.303 327.652C117.116 327.309 116.863 327.049 116.543 326.87C116.231 326.684 115.885 326.591 115.505 326.591C115.126 326.591 114.78 326.681 114.467 326.859C114.155 327.038 113.905 327.298 113.719 327.641C113.533 327.983 113.44 328.385 113.44 328.846C113.44 329.315 113.533 329.724 113.719 330.074C113.905 330.416 114.155 330.68 114.467 330.867C114.78 331.045 115.126 331.134 115.505 331.134C115.885 331.134 116.231 331.045 116.543 330.867C116.863 330.68 117.116 330.416 117.303 330.074C117.489 329.724 117.582 329.319 117.582 328.857Z" fill="black"/>
<path d="M121.341 323.667V331.927H120.325V323.667H121.341Z" fill="black"/>
<path d="M116.645 205.008H120.235V206.097H115.306V195.842H116.645V205.008Z" fill="black"/>
<path d="M125.174 206.23C124.419 206.23 123.732 206.058 123.114 205.715C122.506 205.371 122.025 204.886 121.672 204.258C121.329 203.62 121.157 202.885 121.157 202.051C121.157 201.227 121.334 200.501 121.687 199.873C122.05 199.236 122.54 198.75 123.158 198.417C123.776 198.073 124.468 197.902 125.233 197.902C125.998 197.902 126.689 198.073 127.307 198.417C127.925 198.75 128.411 199.231 128.764 199.859C129.127 200.486 129.309 201.217 129.309 202.051C129.309 202.885 129.122 203.62 128.749 204.258C128.386 204.886 127.891 205.371 127.263 205.715C126.636 206.058 125.939 206.23 125.174 206.23ZM125.174 205.053C125.655 205.053 126.106 204.94 126.528 204.714C126.949 204.489 127.288 204.15 127.543 203.699C127.808 203.248 127.94 202.698 127.94 202.051C127.94 201.403 127.813 200.854 127.558 200.403C127.303 199.952 126.969 199.618 126.557 199.402C126.145 199.177 125.699 199.064 125.218 199.064C124.728 199.064 124.276 199.177 123.864 199.402C123.462 199.618 123.139 199.952 122.893 200.403C122.648 200.854 122.525 201.403 122.525 202.051C122.525 202.708 122.643 203.262 122.879 203.714C123.124 204.165 123.447 204.503 123.85 204.729C124.252 204.945 124.693 205.053 125.174 205.053Z" fill="black"/>
<path d="M134.394 197.902C135.091 197.902 135.699 198.054 136.219 198.358C136.749 198.662 137.141 199.044 137.396 199.505V198.034H138.75V206.274C138.75 207.009 138.593 207.662 138.279 208.231C137.965 208.81 137.514 209.261 136.925 209.584C136.346 209.908 135.67 210.07 134.895 210.07C133.835 210.07 132.952 209.82 132.246 209.32C131.54 208.819 131.123 208.138 130.995 207.274H132.32C132.467 207.765 132.771 208.157 133.232 208.451C133.693 208.756 134.247 208.908 134.895 208.908C135.63 208.908 136.229 208.677 136.69 208.216C137.161 207.755 137.396 207.108 137.396 206.274V204.582C137.131 205.053 136.739 205.445 136.219 205.759C135.699 206.073 135.091 206.23 134.394 206.23C133.678 206.23 133.026 206.053 132.437 205.7C131.859 205.347 131.403 204.851 131.069 204.214C130.736 203.576 130.569 202.85 130.569 202.036C130.569 201.212 130.736 200.491 131.069 199.873C131.403 199.245 131.859 198.76 132.437 198.417C133.026 198.073 133.678 197.902 134.394 197.902ZM137.396 202.051C137.396 201.443 137.273 200.913 137.028 200.462C136.783 200.011 136.449 199.667 136.028 199.432C135.616 199.187 135.16 199.064 134.659 199.064C134.159 199.064 133.703 199.182 133.291 199.417C132.879 199.653 132.55 199.996 132.305 200.447C132.06 200.898 131.937 201.428 131.937 202.036C131.937 202.654 132.06 203.194 132.305 203.655C132.55 204.106 132.879 204.454 133.291 204.699C133.703 204.935 134.159 205.053 134.659 205.053C135.16 205.053 135.616 204.935 136.028 204.699C136.449 204.454 136.783 204.106 137.028 203.655C137.273 203.194 137.396 202.659 137.396 202.051Z" fill="black"/>
<path d="M141.704 196.724C141.449 196.724 141.233 196.636 141.057 196.46C140.88 196.283 140.792 196.067 140.792 195.812C140.792 195.557 140.88 195.341 141.057 195.165C141.233 194.988 141.449 194.9 141.704 194.9C141.949 194.9 142.155 194.988 142.322 195.165C142.499 195.341 142.587 195.557 142.587 195.812C142.587 196.067 142.499 196.283 142.322 196.46C142.155 196.636 141.949 196.724 141.704 196.724ZM142.351 198.034V206.097H141.012V198.034H142.351Z" fill="black"/>
<path d="M147.488 206.23C146.87 206.23 146.316 206.127 145.825 205.921C145.335 205.705 144.947 205.411 144.663 205.038C144.378 204.655 144.222 204.219 144.192 203.728H145.575C145.614 204.13 145.801 204.459 146.134 204.714C146.478 204.969 146.924 205.097 147.473 205.097C147.983 205.097 148.386 204.984 148.68 204.758C148.974 204.533 149.121 204.248 149.121 203.905C149.121 203.552 148.964 203.292 148.65 203.125C148.337 202.948 147.851 202.777 147.194 202.61C146.595 202.453 146.105 202.296 145.722 202.139C145.35 201.972 145.026 201.732 144.751 201.418C144.486 201.094 144.354 200.673 144.354 200.153C144.354 199.741 144.477 199.363 144.722 199.02C144.967 198.676 145.315 198.407 145.766 198.211C146.218 198.005 146.733 197.902 147.311 197.902C148.204 197.902 148.925 198.127 149.474 198.578C150.024 199.03 150.318 199.648 150.357 200.432H149.018C148.989 200.011 148.817 199.672 148.503 199.417C148.199 199.162 147.787 199.035 147.267 199.035C146.787 199.035 146.404 199.138 146.12 199.344C145.835 199.55 145.693 199.819 145.693 200.153C145.693 200.418 145.776 200.638 145.943 200.815C146.12 200.982 146.335 201.119 146.59 201.227C146.855 201.325 147.218 201.438 147.679 201.565C148.258 201.722 148.729 201.879 149.092 202.036C149.455 202.183 149.764 202.409 150.019 202.713C150.284 203.017 150.421 203.414 150.431 203.905C150.431 204.346 150.308 204.744 150.063 205.097C149.818 205.45 149.469 205.729 149.018 205.935C148.577 206.132 148.067 206.23 147.488 206.23Z" fill="black"/>
<path d="M153.954 199.138V203.89C153.954 204.283 154.038 204.562 154.204 204.729C154.371 204.886 154.66 204.964 155.072 204.964H156.058V206.097H154.852C154.106 206.097 153.547 205.926 153.174 205.582C152.802 205.239 152.615 204.675 152.615 203.89V199.138H151.571V198.034H152.615V196.003H153.954V198.034H156.058V199.138H153.954Z" fill="black"/>
<path d="M158.372 196.724C158.117 196.724 157.901 196.636 157.725 196.46C157.548 196.283 157.46 196.067 157.46 195.812C157.46 195.557 157.548 195.341 157.725 195.165C157.901 194.988 158.117 194.9 158.372 194.9C158.617 194.9 158.823 194.988 158.99 195.165C159.167 195.341 159.255 195.557 159.255 195.812C159.255 196.067 159.167 196.283 158.99 196.46C158.823 196.636 158.617 196.724 158.372 196.724ZM159.02 198.034V206.097H157.681V198.034H159.02Z" fill="black"/>
<path d="M160.801 202.051C160.801 201.217 160.968 200.491 161.302 199.873C161.635 199.245 162.096 198.76 162.685 198.417C163.283 198.073 163.965 197.902 164.73 197.902C165.721 197.902 166.535 198.142 167.173 198.623C167.82 199.103 168.247 199.77 168.453 200.624H167.011C166.873 200.133 166.604 199.746 166.201 199.461C165.809 199.177 165.319 199.035 164.73 199.035C163.965 199.035 163.347 199.299 162.876 199.829C162.405 200.349 162.17 201.09 162.17 202.051C162.17 203.022 162.405 203.772 162.876 204.302C163.347 204.832 163.965 205.097 164.73 205.097C165.319 205.097 165.809 204.959 166.201 204.685C166.594 204.41 166.864 204.018 167.011 203.508H168.453C168.237 204.332 167.805 204.994 167.158 205.494C166.51 205.984 165.701 206.23 164.73 206.23C163.965 206.23 163.283 206.058 162.685 205.715C162.096 205.371 161.635 204.886 161.302 204.258C160.968 203.63 160.801 202.894 160.801 202.051Z" fill="black"/>
<path d="M169.739 202.036C169.739 201.212 169.906 200.491 170.239 199.873C170.573 199.245 171.029 198.76 171.608 198.417C172.196 198.073 172.849 197.902 173.565 197.902C174.271 197.902 174.884 198.054 175.404 198.358C175.924 198.662 176.311 199.044 176.566 199.505V198.034H177.92V206.097H176.566V204.596C176.301 205.067 175.904 205.46 175.374 205.774C174.855 206.078 174.246 206.23 173.55 206.23C172.834 206.23 172.186 206.053 171.608 205.7C171.029 205.347 170.573 204.851 170.239 204.214C169.906 203.576 169.739 202.85 169.739 202.036ZM176.566 202.051C176.566 201.443 176.444 200.913 176.198 200.462C175.953 200.011 175.62 199.667 175.198 199.432C174.786 199.187 174.33 199.064 173.829 199.064C173.329 199.064 172.873 199.182 172.461 199.417C172.049 199.653 171.72 199.996 171.475 200.447C171.23 200.898 171.107 201.428 171.107 202.036C171.107 202.654 171.23 203.194 171.475 203.655C171.72 204.106 172.049 204.454 172.461 204.699C172.873 204.935 173.329 205.053 173.829 205.053C174.33 205.053 174.786 204.935 175.198 204.699C175.62 204.454 175.953 204.106 176.198 203.655C176.444 203.194 176.566 202.659 176.566 202.051Z" fill="black"/>
<g clip-path="url(#clip0_116_930)">
<rect x="322.672" y="192.396" width="28.4132" height="33.6348" rx="14.2066" fill="#EDFFFE"/>
</g>
<g clip-path="url(#clip1_116_930)">
<rect x="49.5518" y="79.2529" width="53.7821" height="33.487" rx="16.7435" fill="#EDFFFE"/>
<path fill-rule="evenodd" clip-rule="evenodd" d="M81.9762 75.3938C81.9762 75.0744 82.2352 74.8154 82.5546 74.8154H87.3149C87.6343 74.8154 87.8933 75.0744 87.8933 75.3938V111.173H103.444C103.764 111.173 104.023 111.432 104.023 111.752V114.382C104.023 114.681 103.795 114.931 103.497 114.958L83.818 116.763C82.6672 119.07 80.2802 120.652 77.5286 120.652C74.8716 120.652 72.555 119.172 71.3626 116.994H56.6522C55.9566 119.166 53.9165 120.74 51.5132 120.74C48.5378 120.74 46.1191 118.327 46.1191 115.355L46.1191 115.352C46.1225 114.559 46.2964 113.806 46.6062 113.128V101.187C46.6062 100.193 47.4197 99.382 48.4135 99.382H54.1563V78.0903C54.1563 77.7709 54.4152 77.5119 54.7347 77.5119H68.307C69.5011 77.5119 70.6206 77.825 71.5012 78.4835C72.3898 79.148 72.9966 80.1364 73.1958 81.4042L73.1973 81.4144L75.7415 99.7092C75.7431 99.7123 75.7447 99.7154 75.7462 99.7186C75.7668 99.7609 75.7818 99.8049 75.7915 99.8497L79.7402 101.1C79.9806 101.176 80.144 101.399 80.144 101.651V107.134C80.8118 107.401 81.4286 107.768 81.9762 108.216V75.3938ZM84.2847 115.558C84.4575 114.949 84.55 114.306 84.55 113.642C84.55 112.056 84.0228 110.593 83.133 109.418V75.9723H86.7365V111.752C86.7365 112.071 86.9954 112.33 87.3149 112.33H102.866V113.854L84.2847 115.558ZM82.0029 109.857C81.3753 109.118 80.5671 108.537 79.6456 108.181L73.7141 109.195C72.4596 110.268 71.6641 111.861 71.6641 113.642C71.6641 116.869 74.2935 119.495 77.5286 119.495C79.8786 119.495 81.9084 118.115 82.8436 116.12L82.0029 109.857ZM78.9872 106.783C78.5168 106.684 78.0289 106.631 77.5286 106.631C75.906 106.631 74.4102 107.181 73.2198 108.106L54.9745 111.226C54.0372 110.441 52.8297 109.969 51.5132 109.969C50.0541 109.969 48.7328 110.549 47.7631 111.489V101.187C47.7631 100.833 48.0567 100.539 48.4135 100.539L58.6533 100.541L63.6963 102.861L64.0936 104.404C64.1594 104.659 64.3899 104.838 64.6538 104.838H71.8606C72.0382 104.838 72.2059 104.756 72.3156 104.616L75.2412 100.889L78.9872 102.075V106.783ZM74.5296 99.3927L72.0523 81.5789C71.8965 80.5949 71.441 79.883 70.8085 79.41C70.1669 78.9302 69.3049 78.6687 68.307 78.6687H55.3131V99.382H57.4615C57.2313 99.0814 57.0618 98.7937 56.9485 98.4992C56.7103 97.8794 56.7496 97.302 56.8413 96.6722C56.8432 96.6595 56.8455 96.6468 56.8482 96.6342L58.2541 90.081C58.257 90.0676 58.2603 90.0544 58.2641 90.0413C58.6315 88.7733 59.3679 87.9428 60.349 87.5889C60.8091 87.4229 61.2979 87.3709 61.7934 87.4113C61.6466 87.3232 61.5065 87.2253 61.3753 87.1203C60.972 86.7976 60.6162 86.3786 60.4151 85.9138C60.223 85.4771 60.1513 84.8097 60.1305 84.2363C60.1089 83.6419 60.1389 83.022 60.2099 82.6289L60.2108 82.6238C60.3554 81.8628 60.7951 81.3202 61.37 80.9872C61.9286 80.6635 62.5967 80.5456 63.2337 80.5636C63.8735 80.5817 64.525 80.7377 65.0756 81.0083C65.6162 81.2739 66.1198 81.6814 66.3665 82.2418C66.5189 82.5784 66.5828 82.962 66.5828 83.3617C66.5828 83.7032 66.5239 84.2301 66.4297 84.753C66.3358 85.2743 66.1966 85.8491 66.0164 86.2733L66.0153 86.2759C65.723 86.9544 65.2485 87.4288 64.6512 87.682C64.2904 87.8349 63.9033 87.8996 63.51 87.894C64.0827 88.1805 64.8026 88.7598 65.4485 89.3145C65.8052 89.6208 66.1589 89.9372 66.478 90.2228L66.4889 90.2326C66.7948 90.5064 67.0646 90.7479 67.2824 90.9327L71.4338 91.1275L71.4443 91.128C71.7045 91.145 71.8937 91.2869 72.0061 91.3999C72.1245 91.5191 72.2156 91.6631 72.2844 91.803C72.4224 92.0837 72.5134 92.4354 72.5284 92.7885C72.5433 93.138 72.4856 93.5486 72.2593 93.9012C72.0216 94.2716 71.6352 94.5178 71.1275 94.5763L71.7954 99.3912L74.5296 99.3927ZM70.6274 99.3905L69.9686 94.6412L66.9876 94.8024L66.9756 94.803C66.4896 94.8191 66.1137 94.65 65.7938 94.4844C65.7749 94.4746 65.7565 94.4637 65.7387 94.4519L63.9038 93.228L63.1144 95.6395C63.1525 95.6515 63.1931 95.6616 63.2327 95.6699C63.2488 95.6732 63.2646 95.6772 63.2803 95.6819L66.2804 96.577C66.2826 96.5777 66.2847 96.5783 66.2869 96.579C66.2897 96.5799 66.2924 96.5808 66.2952 96.5817C66.7193 96.7207 67.0862 96.914 67.3545 97.245C67.6196 97.5721 67.7324 97.9651 67.7941 98.3826C67.7942 98.3832 67.7942 98.3837 67.7943 98.3842L67.9464 99.3891L70.6274 99.3905ZM68.1214 100.546L70.7879 100.547L71.2225 103.681H68.5958L68.1214 100.546ZM66.7763 99.3885L66.6502 98.555L66.6499 98.5528C66.6007 98.2194 66.5308 98.066 66.4559 97.9735C66.3844 97.8853 66.2545 97.7865 65.9419 97.6833L62.9718 96.7971C62.8166 96.7633 62.5683 96.6948 62.3535 96.5504C62.2349 96.4706 62.0991 96.3496 62.0074 96.1712C61.9101 95.9818 61.8834 95.7679 61.9292 95.5523C61.9335 95.5322 61.9389 95.5122 61.9453 95.4926L63.0413 92.1442C63.0975 91.9723 63.2309 91.8366 63.4019 91.7775C63.5728 91.7183 63.7615 91.7425 63.9119 91.8429L66.3533 93.4713C66.6113 93.6029 66.7619 93.6515 66.9319 93.6469L70.2844 93.4656C70.317 93.4548 70.351 93.4469 70.3862 93.442C70.4551 93.4324 70.5227 93.4354 70.587 93.4492L70.9951 93.4271C71.1788 93.4061 71.2468 93.337 71.2858 93.2763C71.3414 93.1896 71.3813 93.0408 71.3726 92.8377C71.3642 92.6382 71.3106 92.4443 71.2462 92.3134C71.2394 92.2995 71.2327 92.287 71.2265 92.2758L67.1496 92.0846C66.8776 92.0792 66.6747 91.9469 66.546 91.825C66.3137 91.6284 66.0301 91.3745 65.7276 91.1037L65.7064 91.0848C65.3863 90.7982 65.0411 90.4895 64.6948 90.1922C63.9793 89.5777 63.3316 89.0771 62.9247 88.8965L62.9241 88.8963C62.0931 88.5265 61.3315 88.4642 60.7415 88.6771C60.1792 88.8799 59.6676 89.3705 59.3808 90.3442L57.9833 96.8578C57.9007 97.4318 57.9026 97.7572 58.0283 98.0841C58.1525 98.4072 58.4213 98.7915 59.012 99.382H63.5467C63.5719 99.382 63.5968 99.3836 63.6212 99.3868L66.7763 99.3885ZM64.2943 100.544L66.9514 100.545L67.3643 103.275L64.6794 102.04L64.2943 100.544ZM61.4247 100.542L63.0995 100.543L63.3243 101.416L61.4247 100.542ZM65.0514 103.484L65.1021 103.681H65.4792L65.0514 103.484ZM72.2686 102.803L71.9558 100.548L74.0372 100.549L72.2686 102.803ZM47.6382 113.654L54.6029 112.463C55.3144 113.22 55.7504 114.237 55.7504 115.355C55.7504 117.686 53.8516 119.583 51.5132 119.583C49.1752 119.583 47.2766 117.687 47.276 115.356C47.2787 114.75 47.4078 114.174 47.6382 113.654ZM53.2873 111.514L48.567 112.321C49.3292 111.581 50.3677 111.126 51.5132 111.126C52.1465 111.126 52.7475 111.265 53.2873 111.514ZM55.9119 112.239L71.8526 109.513C71.0068 110.67 70.5072 112.097 70.5072 113.642C70.5072 114.408 70.631 115.146 70.8595 115.837H56.8858C56.9 115.678 56.9072 115.517 56.9072 115.355C56.9072 114.194 56.5385 113.119 55.9119 112.239ZM61.3478 82.8372C61.2974 83.1189 61.2667 83.6467 61.2866 84.1944C61.3072 84.7639 61.3793 85.2335 61.4743 85.4488L61.4763 85.4532C61.5853 85.7059 61.8046 85.9822 62.0981 86.2171C62.3907 86.4512 62.7189 86.6135 63.0113 86.6743L63.0176 86.6756C63.4854 86.7783 63.8866 86.7496 64.1997 86.6169C64.5015 86.489 64.7685 86.2454 64.9523 85.8195C65.0818 85.5143 65.2025 85.04 65.2912 84.5479C65.3796 84.057 65.4259 83.6058 65.4259 83.3617C65.4259 83.0778 65.3796 82.866 65.3119 82.7173L65.3083 82.7094C65.2112 82.4872 64.9673 82.244 64.5654 82.0465C64.1722 81.8533 63.6848 81.7336 63.201 81.72C62.7144 81.7062 62.274 81.8003 61.9498 81.9881C61.6425 82.1662 61.4251 82.4338 61.3478 82.8372ZM89.6812 86.1023C89.6812 85.7829 89.9402 85.5239 90.2596 85.5239H105.67C105.989 85.5239 106.248 85.7829 106.248 86.1023V95.772C106.248 96.0915 105.989 96.3504 105.67 96.3504H90.2596C89.9402 96.3504 89.6812 96.0915 89.6812 95.772V86.1023ZM90.838 86.6807V95.1936H105.091V86.6807H90.838ZM89.6812 98.9547C89.6812 98.6353 89.9402 98.3763 90.2596 98.3763H105.67C105.989 98.3763 106.248 98.6353 106.248 98.9547V108.624C106.248 108.944 105.989 109.203 105.67 109.203H90.2596C89.9402 109.203 89.6812 108.944 89.6812 108.624V98.9547ZM90.838 99.5331V108.046H105.091V99.5331H90.838Z" fill="black"/>
</g>
<g clip-path="url(#clip2_116_930)">
<path d="M359.766 207.711C359.198 207.229 358.538 207.183 357.63 207.411C357.676 207.254 357.701 207.072 357.701 206.889C357.701 206.361 357.544 205.636 356.676 204.981C355.854 204.342 354.718 204.636 353.013 205.321V188.035C353.013 188.035 352.988 188.009 352.988 187.989C352.988 187.923 352.988 187.852 352.942 187.786C352.942 187.761 352.942 187.74 352.917 187.72C352.896 187.649 352.851 187.578 352.78 187.517V187.492L346.625 181.464C346.488 181.327 346.285 181.236 346.077 181.236H327.431C327.248 181.236 327.045 181.327 326.903 181.464L320.744 187.492C320.744 187.492 320.744 187.517 320.718 187.517C320.678 187.583 320.632 187.654 320.607 187.72C320.581 187.74 320.581 187.761 320.561 187.786C320.536 187.857 320.536 187.928 320.536 187.989C320.536 188.014 320.51 188.014 320.51 188.014V203.114C319.516 203.089 318.42 203.089 317.212 203.089H310.759C310.327 203.089 309.987 203.434 309.987 203.865V217.691C309.987 218.102 310.327 218.462 310.759 218.462H317.101C318.055 218.762 324.625 220.781 333.109 220.781C341.003 220.781 350.598 219.03 358.858 212.48C359.041 212.343 360.654 211.186 360.72 209.659C360.745 209.162 360.608 208.391 359.766 207.711ZM316.441 216.92H311.509V204.616H316.441V216.92ZM355.743 206.184C356.128 206.483 356.174 206.732 356.174 206.869C356.174 207.325 355.692 207.893 355.306 208.259C355.149 208.345 354.966 208.416 354.784 208.487C354.261 208.71 353.673 208.964 353.008 209.238V206.985C354.221 206.478 355.443 206.001 355.743 206.184ZM345.783 182.783L350.354 187.263H340.851L339.826 182.783H345.783V182.783ZM335.295 182.783H338.228L339.253 187.263H334.275L335.295 182.783ZM334.073 188.811H339.461V194.199H334.073V188.811ZM327.746 182.783H333.702L332.682 187.263H323.179L327.746 182.783ZM322.058 188.811H332.54V194.95C332.54 195.382 332.885 195.721 333.296 195.721H340.232C340.643 195.721 340.983 195.382 340.983 194.95V188.811H351.465V209.827C349.847 210.441 347.965 211.075 345.666 211.643C345.752 211.374 345.803 211.146 345.823 210.892C345.894 209.502 345.57 208.416 344.824 207.665C343.758 206.595 342.236 206.666 342.236 206.666C335.138 206.803 333.93 206.097 332.545 205.275C331.094 204.413 329.45 203.454 322.063 203.16V188.811H322.058ZM357.95 211.252C342.211 223.693 321.515 218.193 317.989 217.123V204.616C328.471 204.682 330.227 205.707 331.769 206.59C333.362 207.528 334.727 208.34 342.277 208.208C342.277 208.208 343.144 208.183 343.733 208.751C344.164 209.182 344.347 209.862 344.276 210.801C344.276 211.024 344.23 211.709 342.865 212.252C342.865 212.277 342.84 212.277 342.84 212.277H342.815C341.384 212.845 338.198 213.328 331.262 212.414C330.851 212.389 330.465 212.668 330.394 213.099C330.353 213.51 330.648 213.896 331.079 213.962C333.717 214.307 336.011 214.464 337.949 214.464C340.247 214.464 342.038 214.21 343.317 213.738C349.005 212.597 352.846 210.983 355.393 209.893C356.96 209.238 358.437 208.599 358.777 208.873C359.162 209.187 359.188 209.441 359.188 209.598C359.178 210.253 358.29 211.009 357.95 211.252Z" fill="#1A171B"/>
<path d="M313.99 208.051C314.488 208.051 314.873 207.64 314.873 207.137C314.873 206.661 314.488 206.255 313.99 206.255C313.493 206.255 313.107 206.666 313.107 207.137C313.102 207.64 313.488 208.051 313.99 208.051Z" fill="#1A171B"/>
</g>
<rect x="50.5518" y="278.652" width="81.1805" height="28.4132" rx="14.2066" fill="#EDFFFE"/>
<path d="M127.953 311.083H83.0952M63.0154 303.335C66.1367 303.335 68.6654 305.873 68.6654 309.005C68.6654 312.138 66.1367 314.676 63.0154 314.676C59.8941 314.676 57.3653 312.138 57.3653 309.005C57.3653 305.873 59.8941 303.335 63.0154 303.335ZM63.0154 303.335H51.5734V311.083H57.6742C57.6742 311.083 56.6402 308.086 58.416 305.71C60.1918 303.335 63.0154 303.335 63.0154 303.335ZM72.3792 311.083H68.2816M130.949 286.683H122.195V292.814H133.562M133.27 303.335C136.391 303.335 138.92 305.873 138.92 309.005C138.92 312.138 136.391 314.676 133.27 314.676C130.148 314.676 127.619 312.138 127.619 309.005C127.619 305.873 130.148 303.335 133.27 303.335ZM113.607 303.335H47V273.071H113.607V303.335ZM113.607 311.083V277.117C114.075 277.142 119.291 277.242 119.775 277.443C120.158 277.753 130.541 285.778 130.591 285.895L133.57 292.814L140.873 293.526C141.749 293.61 142.425 294.33 142.441 295.009L143.118 302.413L143.877 302.974L143.902 309.366C143.985 310.438 143.343 310.924 142.258 310.999C141.774 311.032 141.523 311.049 140.764 311.058L138.836 311.083H113.607ZM77.6454 303.335C80.7667 303.335 83.2955 305.873 83.2955 309.005C83.2955 312.138 80.7667 314.676 77.6454 314.676C74.5241 314.676 71.9954 312.138 71.9954 309.005C71.9954 305.873 74.5241 303.335 77.6454 303.335Z" stroke="black" stroke-width="2" stroke-miterlimit="22.9256" stroke-linecap="round" stroke-linejoin="round"/>
<defs>
<clipPath id="clip0_116_930">
<rect width="32.9796" height="46.8849" fill="white" transform="translate(314.047 185.771)"/>
</clipPath>
<clipPath id="clip1_116_930">
<rect width="60.378" height="46.1714" fill="white" transform="translate(46 74.6865)"/>
</clipPath>
<clipPath id="clip2_116_930">
<rect width="50.7378" height="39.5501" fill="white" transform="translate(309.987 181.236)"/>
</clipPath>
</defs>
</svg>
