<svg width="274" height="194" viewBox="0 0 274 194" fill="none" xmlns="http://www.w3.org/2000/svg">
<mask id="path-1-outside-1_101_79" maskUnits="userSpaceOnUse" x="-0.933351" y="-8.74228e-08" width="22" height="22" fill="black">
<rect fill="white" x="-0.933351" y="-8.74228e-08" width="22" height="22"/>
<path d="M7.82065 19.8317L12.206 16.6683C12.8074 16.235 13.5389 16 14.2912 16L18.3246 16C19.2866 16 20.0666 15.25 20.0666 14.325L20.0666 7.67333C20.0666 6.75 19.2866 6 18.3246 6L14.2912 6C13.5389 6 12.8074 5.765 12.206 5.33167L7.81891 2.16834C6.76795 1.40998 5.48944 1 4.17545 1L0.999981 1L0.999983 21L4.17545 21C5.48932 21 6.76852 20.59 7.82065 19.8317Z"/>
</mask>
<path d="M7.82065 19.8317L12.206 16.6683C12.8074 16.235 13.5389 16 14.2912 16L18.3246 16C19.2866 16 20.0666 15.25 20.0666 14.325L20.0666 7.67333C20.0666 6.75 19.2866 6 18.3246 6L14.2912 6C13.5389 6 12.8074 5.765 12.206 5.33167L7.81891 2.16834C6.76795 1.40998 5.48944 1 4.17545 1L0.999981 1L0.999983 21L4.17545 21C5.48932 21 6.76852 20.59 7.82065 19.8317Z" fill="#064CFF"/>
<path d="M7.82065 19.8317L8.40536 20.6429L8.40567 20.6427L7.82065 19.8317ZM12.206 16.6683L11.6214 15.857L11.621 15.8573L12.206 16.6683ZM12.206 5.33167L11.6211 6.1428L11.6214 6.14303L12.206 5.33167ZM7.81891 2.16834L7.23376 2.97926L7.23404 2.97946L7.81891 2.16834ZM4.17545 1L4.17545 2L4.17545 1ZM0.999981 1L0.999981 3.57421e-06L-1.9002e-05 3.66163e-06L-1.89146e-05 1L0.999981 1ZM0.999983 21L-1.71661e-05 21L-1.70787e-05 22L0.999983 22L0.999983 21ZM8.40567 20.6427L12.791 17.4794L11.621 15.8573L7.23563 19.0207L8.40567 20.6427ZM12.7905 17.4797C13.2197 17.1705 13.7462 17 14.2912 17L14.2912 15C13.3317 15 12.3952 15.2995 11.6214 15.857L12.7905 17.4797ZM14.2912 17L18.3246 17L18.3246 15L14.2912 15L14.2912 17ZM18.3246 17C19.8016 17 21.0666 15.8389 21.0666 14.325L19.0666 14.325C19.0666 14.6611 18.7717 15 18.3246 15L18.3246 17ZM21.0666 14.325L21.0666 7.67333L19.0666 7.67333L19.0666 14.325L21.0666 14.325ZM21.0666 7.67333C21.0666 6.16048 19.8009 5 18.3246 5L18.3246 7C18.7724 7 19.0666 7.33953 19.0666 7.67333L21.0666 7.67333ZM18.3246 5L14.2912 5L14.2912 7L18.3246 7L18.3246 5ZM14.2912 5C13.7462 5 13.2197 4.82951 12.7905 4.52031L11.6214 6.14303C12.3952 6.70049 13.3317 7 14.2912 7L14.2912 5ZM12.7909 4.52054L8.40378 1.35721L7.23404 2.97946L11.6211 6.1428L12.7909 4.52054ZM8.40406 1.35741C7.18023 0.474315 5.69637 3.16364e-06 4.17545 3.2966e-06L4.17545 2C5.2825 2 6.35567 2.34564 7.23376 2.97926L8.40406 1.35741ZM4.17545 3.2966e-06L0.999981 3.57421e-06L0.999981 2L4.17545 2L4.17545 3.2966e-06ZM-1.89146e-05 1L-1.71661e-05 21L1.99998 21L1.99998 1L-1.89146e-05 1ZM0.999983 22L4.17545 22L4.17545 20L0.999983 20L0.999983 22ZM4.17545 22C5.69626 22 7.18059 21.5257 8.40536 20.6429L7.23594 19.0204C6.35645 19.6543 5.28238 20 4.17545 20L4.17545 22Z" fill="#064CFF" mask="url(#path-1-outside-1_101_79)"/>
<path d="M273 193L273 61C273 33.3858 250.614 11 223 11L146.5 11L20 11" stroke="#064CFF" stroke-width="2" stroke-linecap="round"/>
</svg>
