<svg width="119" height="84" viewBox="0 0 119 84" fill="none" xmlns="http://www.w3.org/2000/svg">
<rect x="110" y="8" width="70" height="89" rx="20" transform="rotate(90 110 8)" fill="#D8D9FF"/>
<path d="M22.1996 8.11206L34.717 20.9738L7.94216 48.7804L2 42.7024" stroke="black" stroke-width="4" stroke-miterlimit="10" stroke-linecap="round" stroke-linejoin="round"/>
<path d="M37.8162 71.4399L38.3197 71.9016L40.0635 73.6948C41.7665 75.4385 42.0479 78.2771 40.5374 80.1848C38.7862 82.3786 35.6467 82.5045 33.7363 80.5549L25.5543 72.2641C23.6957 70.3716 22.0852 68.2312 20.7561 65.9191C18.9161 62.7065 17.6351 59.1697 16.9909 55.4916L16.1024 50.4401L11.1895 45.4076" stroke="black" stroke-width="4" stroke-miterlimit="10" stroke-linecap="round" stroke-linejoin="round"/>
<path d="M39.4263 73.0386L46.8419 80.6312C48.6375 82.4664 51.5475 82.455 53.3283 80.6045C55.1202 78.754 55.1054 75.7551 53.3024 73.9199L52.9432 73.5498L51.2957 71.9168L50.3665 70.9668" stroke="black" stroke-width="4" stroke-miterlimit="10" stroke-linecap="round" stroke-linejoin="round"/>
<path d="M53.7056 74.3968L58.8998 79.6849L58.6259 79.4026L59.3478 80.1199C61.1508 81.9551 64.0534 81.9436 65.8453 80.0932C66.8301 79.0707 67.2633 77.6971 67.1522 76.3732C67.067 75.2896 66.6302 74.2251 65.8194 73.4048L62.4318 70.0854" stroke="black" stroke-width="4" stroke-miterlimit="10" stroke-linecap="round" stroke-linejoin="round"/>
<path d="M31.6367 24.1747L37.2161 29.8749L41.4218 28.57C45.9497 27.1621 50.8441 27.9176 54.7834 30.6113L73.6539 43.5607C74.4128 44.0796 74.7794 44.9648 74.6979 45.8385C74.6609 46.2201 74.5424 46.6054 74.324 46.9526C72.1322 50.3865 67.5969 51.2526 64.3538 48.8451L59.0151 44.8809C58.5856 44.5566 58.1043 44.3772 57.6119 44.3276C56.7308 44.2399 55.8274 44.5756 55.198 45.2853C54.1614 46.4681 54.2095 48.2689 55.3054 49.3907L78.2669 72.8897C80.1995 74.8661 80.0736 78.1588 77.8819 79.9711C76.0344 81.4782 73.3466 81.1768 71.6769 79.4637L66.2937 74.0115" stroke="black" stroke-width="4" stroke-miterlimit="10" stroke-linecap="round" stroke-linejoin="round"/>
<path d="M87.9337 78.7923H117V2H43.0732V19.0281" stroke="black" stroke-width="4" stroke-miterlimit="10" stroke-linecap="round" stroke-linejoin="round"/>
<path d="M95.738 67.7582H93.9238" stroke="black" stroke-width="4" stroke-miterlimit="10" stroke-linecap="round" stroke-linejoin="round"/>
<path d="M105.989 67.7582H104.179" stroke="black" stroke-width="4" stroke-miterlimit="10" stroke-linecap="round" stroke-linejoin="round"/>
<path d="M89.8292 2V21.1456L79.2296 14.8045L68.6263 21.1456V2" stroke="black" stroke-width="4" stroke-miterlimit="10" stroke-linecap="round" stroke-linejoin="round"/>
</svg>
