<svg width="22" height="174" viewBox="0 0 22 174" fill="none" xmlns="http://www.w3.org/2000/svg">
<mask id="path-1-outside-1_101_77" maskUnits="userSpaceOnUse" x="-1.19249e-08" y="-0.93335" width="22" height="22" fill="black">
<rect fill="white" x="-1.19249e-08" y="-0.93335" width="22" height="22"/>
<path d="M2.16833 7.82065L5.33167 12.206C5.765 12.8074 6 13.5389 6 14.2912L6 18.3246C6 19.2866 6.75 20.0667 7.675 20.0667L14.3267 20.0667C15.25 20.0667 16 19.2866 16 18.3246L16 14.2912C16 13.5389 16.235 12.8074 16.6683 12.206L19.8317 7.81892C20.59 6.76795 21 5.48944 21 4.17545L21 0.999983L1 0.999983L1 4.17545C1 5.48932 1.41 6.76852 2.16833 7.82065Z"/>
</mask>
<path d="M2.16833 7.82065L5.33167 12.206C5.765 12.8074 6 13.5389 6 14.2912L6 18.3246C6 19.2866 6.75 20.0667 7.675 20.0667L14.3267 20.0667C15.25 20.0667 16 19.2866 16 18.3246L16 14.2912C16 13.5389 16.235 12.8074 16.6683 12.206L19.8317 7.81892C20.59 6.76795 21 5.48944 21 4.17545L21 0.999983L1 0.999983L1 4.17545C1 5.48932 1.41 6.76852 2.16833 7.82065Z" fill="#064CFF"/>
<path d="M2.16833 7.82065L1.35709 8.40536L1.35732 8.40567L2.16833 7.82065ZM5.33167 12.206L6.14302 11.6214L6.14268 11.621L5.33167 12.206ZM16.6683 12.206L15.8572 11.6211L15.857 11.6214L16.6683 12.206ZM19.8317 7.81892L19.0207 7.23377L19.0205 7.23405L19.8317 7.81892ZM21 4.17545L20 4.17545L21 4.17545ZM21 0.999983L22 0.999983L22 -1.69157e-05L21 -1.69276e-05L21 0.999983ZM1 0.999983L1 -1.71661e-05L2.39293e-07 -1.71781e-05L2.27368e-07 0.999983L1 0.999983ZM1.35732 8.40567L4.52065 12.791L6.14268 11.621L2.97935 7.23563L1.35732 8.40567ZM4.52031 12.7905C4.82951 13.2197 5 13.7462 5 14.2912L7 14.2912C7 13.3317 6.70049 12.3952 6.14302 11.6214L4.52031 12.7905ZM5 14.2912L5 18.3246L7 18.3246L7 14.2912L5 14.2912ZM5 18.3246C5 19.8016 6.16111 21.0667 7.675 21.0667L7.675 19.0667C7.33889 19.0667 7 18.7717 7 18.3246L5 18.3246ZM7.675 21.0667L14.3267 21.0667L14.3267 19.0667L7.675 19.0667L7.675 21.0667ZM14.3267 21.0667C15.8395 21.0667 17 19.8009 17 18.3246L15 18.3246C15 18.7724 14.6605 19.0667 14.3267 19.0667L14.3267 21.0667ZM17 18.3246L17 14.2912L15 14.2912L15 18.3246L17 18.3246ZM17 14.2912C17 13.7462 17.1705 13.2197 17.4797 12.7905L15.857 11.6214C15.2995 12.3952 15 13.3317 15 14.2912L17 14.2912ZM17.4795 12.7909L20.6428 8.40379L19.0205 7.23405L15.8572 11.6211L17.4795 12.7909ZM20.6426 8.40407C21.5257 7.18023 22 5.69638 22 4.17545L20 4.17545C20 5.2825 19.6544 6.35567 19.0207 7.23377L20.6426 8.40407ZM22 4.17545L22 0.999983L20 0.999983L20 4.17545L22 4.17545ZM21 -1.69276e-05L1 -1.71661e-05L1 1.99998L21 1.99998L21 -1.69276e-05ZM2.27368e-07 0.999983L1.89501e-07 4.17545L2 4.17545L2 0.999983L2.27368e-07 0.999983ZM1.89501e-07 4.17545C1.71365e-07 5.69626 0.474328 7.18059 1.35709 8.40536L2.97958 7.23594C2.34567 6.35645 2 5.28238 2 4.17545L1.89501e-07 4.17545Z" fill="#064CFF" mask="url(#path-1-outside-1_101_77)"/>
<path d="M11 17.9995L11 173" stroke="#064CFF" stroke-width="2" stroke-linecap="round"/>
</svg>
