<svg width="374" height="365" viewBox="0 0 374 365" fill="none" xmlns="http://www.w3.org/2000/svg">
<path d="M302.924 66.9627C302.924 72.7529 298.227 77.4468 292.433 77.4468L265.157 77.4468C259.363 77.4468 254.666 72.7529 254.666 66.9627L254.666 40.2283C254.666 34.4381 259.363 29.7442 265.157 29.7442L292.433 29.7442C298.227 29.7442 302.924 34.4381 302.924 40.2283L302.924 66.9627Z" fill="#EDEFFF"/>
<path fill-rule="evenodd" clip-rule="evenodd" d="M44.1268 63.5554C20.6261 63.5554 1.57363 82.5956 1.57363 106.081V215.762C1.57363 239.247 20.6261 258.288 44.1268 258.288H57.9621C58.3967 258.288 58.7489 258.64 58.7489 259.074C58.7489 259.508 58.3967 259.86 57.9621 259.86H44.1268C19.757 259.86 0 240.116 0 215.762V106.081C0 81.727 19.757 61.9828 44.1268 61.9828H51.9299C52.3644 61.9828 52.7167 62.3348 52.7167 62.7691C52.7167 63.2034 52.3644 63.5554 51.9299 63.5554H44.1268Z" fill="#272FF5"/>
<path fill-rule="evenodd" clip-rule="evenodd" d="M117.76 259.074C117.76 258.64 118.113 258.288 118.547 258.288H246.274C246.708 258.288 247.06 258.64 247.06 259.074C247.06 259.508 246.708 259.86 246.274 259.86H118.547C118.113 259.86 117.76 259.508 117.76 259.074Z" fill="#272FF5"/>
<path fill-rule="evenodd" clip-rule="evenodd" d="M130.611 62.7691C130.611 62.3348 130.964 61.9828 131.398 61.9828H251.265C251.699 61.9828 252.051 62.3348 252.051 62.7691C252.051 63.2034 251.699 63.5554 251.265 63.5554H131.398C130.964 63.5554 130.611 63.2034 130.611 62.7691Z" fill="#272FF5"/>
<path fill-rule="evenodd" clip-rule="evenodd" d="M307.967 62.7691C307.967 62.3348 308.319 61.9828 308.754 61.9828H329.873C354.243 61.9828 374 81.727 374 106.081V215.762C374 240.116 354.243 259.86 329.873 259.86H301.875C301.441 259.86 301.088 259.508 301.088 259.074C301.088 258.64 301.441 258.288 301.875 258.288H329.873C353.374 258.288 372.426 239.247 372.426 215.762V106.081C372.426 82.5956 353.374 63.5554 329.873 63.5554H308.754C308.319 63.5554 307.967 63.2034 307.967 62.7691Z" fill="#272FF5"/>
<path d="M310.266 74.1031C310.232 74.1466 310.184 74.1856 310.165 74.2354C309.646 75.6142 308.816 76.2476 307.362 76.2616C304.852 76.2865 302.34 76.2694 299.83 76.2694C299.3 76.2694 298.855 76.1184 298.708 75.5457C298.54 74.889 298.995 74.4081 299.795 74.405C302.189 74.3972 304.584 74.4019 306.977 74.4019C308.19 74.4019 308.398 74.1918 308.398 72.9686C308.398 61.1615 308.398 49.3559 308.398 37.5488C308.398 37.3169 308.398 37.085 308.398 36.8111C289.711 36.8111 271.06 36.8111 252.337 36.8111C252.337 37.0274 252.337 37.2344 252.337 37.4414C252.337 49.3263 252.337 61.2097 252.337 73.0946C252.337 74.1482 252.586 74.4019 253.643 74.4019C258.061 74.4034 262.479 74.4034 266.899 74.4034C267.015 74.4034 267.132 74.4034 267.249 74.4034C268.316 74.4034 268.764 74.6867 268.747 75.3481C268.73 76.0001 268.278 76.2709 267.21 76.2709C264.29 76.2709 261.37 76.2709 258.452 76.2709C256.954 76.2709 255.453 76.218 253.956 76.2849C252.259 76.3596 251.055 75.7542 250.47 74.1046C250.47 59.0092 250.47 43.9137 250.47 28.8183C250.815 27.6854 251.557 26.9477 252.687 26.5991C271.141 26.5991 289.594 26.5991 308.047 26.5991C309.179 26.9462 309.914 27.69 310.266 28.8168C310.266 43.9122 310.266 59.0076 310.266 74.1031ZM308.376 34.872C308.383 34.7149 308.396 34.5826 308.396 34.4519C308.398 32.8178 308.401 31.1853 308.394 29.5513C308.391 28.7825 308.069 28.4682 307.281 28.4682C289.342 28.4666 271.401 28.4666 253.46 28.4682C252.645 28.4682 252.34 28.7794 252.338 29.6011C252.335 31.2149 252.337 32.8287 252.34 34.4425C252.34 34.5888 252.368 34.7351 252.382 34.872C271.066 34.872 289.703 34.872 308.376 34.872Z" fill="black"/>
<path d="M284.455 86.3584C280.754 85.185 277.435 83.1573 273.891 81.6353C272.782 81.1591 271.759 80.5957 271.072 79.5593C269.91 77.8054 270.694 75.4819 272.692 74.959C273.363 74.7832 274.135 74.7692 274.817 74.903C276.146 75.166 277.444 75.5862 278.843 75.9644C278.746 75.7278 278.679 75.5426 278.595 75.3652C276.164 70.2623 273.736 65.1579 271.298 60.0597C270.866 59.1571 270.63 58.2249 270.829 57.2367C271.253 55.1187 273.682 54.1024 275.544 55.2463C276.318 55.7209 276.826 56.4165 277.211 57.2242C278.385 59.6986 279.576 62.1653 280.74 64.6443C280.926 65.0443 281.118 65.1657 281.577 65.077C283.388 64.7222 285.206 64.3922 287.029 64.109C289.074 63.7915 291.092 64.8887 291.975 66.7421C293.646 70.2499 295.313 73.7576 296.976 77.2685C297.957 79.3398 297.314 81.1731 295.246 82.1659C292.706 83.3845 290.161 84.5952 287.609 85.7857C287.089 86.0285 286.52 86.1701 285.974 86.3584C285.467 86.3584 284.961 86.3584 284.455 86.3584ZM285.284 84.5921C285.83 84.4194 286.35 84.3167 286.816 84.1003C289.334 82.9269 291.838 81.724 294.349 80.5319C295.576 79.9483 295.844 79.2107 295.264 77.9937C293.646 74.5918 292.025 71.1899 290.406 67.7879C289.703 66.3142 288.621 65.7213 287.004 65.9905C285.223 66.2877 283.446 66.6145 281.671 66.9538C280.37 67.2028 279.765 66.9196 279.193 65.7197C277.974 63.1597 276.773 60.5904 275.52 58.0475C275.291 57.5806 274.922 57.1122 274.495 56.829C273.666 56.2796 272.623 56.885 272.657 57.8794C272.674 58.3836 272.83 58.9159 273.048 59.3765C275.781 65.1517 278.538 70.916 281.291 76.6818C281.507 77.1347 281.71 77.5797 281.331 78.0388C280.951 78.4995 280.481 78.3921 279.995 78.252C278.334 77.7727 276.673 77.2918 275.003 76.8452C274.54 76.7223 274.043 76.646 273.568 76.6725C272.503 76.73 272.013 77.7712 272.692 78.5975C273.059 79.0441 273.584 79.4145 274.109 79.6698C277.063 81.103 280.028 82.5114 283.012 83.8825C283.726 84.2077 284.519 84.3587 285.284 84.5921Z" fill="black"/>
<path d="M289.255 41.0674C290.734 41.0674 292.212 41.0627 293.692 41.0689C294.913 41.0736 295.673 41.8128 295.677 43.0204C295.687 46.0146 295.685 49.0104 295.677 52.0045C295.674 53.1857 294.947 53.9763 293.768 53.9856C290.733 54.0121 287.696 54.009 284.661 53.9887C283.56 53.981 282.767 53.2122 282.757 52.1119C282.729 49.0586 282.729 46.0053 282.755 42.9519C282.766 41.7863 283.571 41.072 284.759 41.0674C286.259 41.0642 287.757 41.0674 289.255 41.0674ZM293.793 42.9768C290.706 42.9768 287.684 42.9768 284.658 42.9768C284.658 46.0395 284.658 49.0602 284.658 52.087C287.729 52.087 290.752 52.087 293.793 52.087C293.793 49.0321 293.793 46.0224 293.793 42.9768Z" fill="black"/>
<path d="M268.837 47.5552C268.837 49.0134 268.845 50.4716 268.836 51.9298C268.828 53.2541 268.104 53.9887 266.771 53.9933C263.832 54.0042 260.893 54.0042 257.956 53.9933C256.684 53.9887 255.926 53.2246 255.921 51.9531C255.912 48.9978 255.912 46.041 255.921 43.0857C255.926 41.7987 256.673 41.0688 257.963 41.0673C260.92 41.0642 263.879 41.0626 266.836 41.0673C268.085 41.0688 268.825 41.8034 268.834 43.0624C268.846 44.561 268.837 46.0581 268.837 47.5552ZM257.841 42.9674C257.841 46.0317 257.841 49.0523 257.841 52.0978C260.889 52.0978 263.894 52.0978 266.936 52.0978C266.936 49.043 266.936 46.0208 266.936 42.9674C263.904 42.9674 260.897 42.9674 257.841 42.9674Z" fill="black"/>
<path d="M268.837 65.0597C268.837 66.4976 268.844 67.9371 268.836 69.3751C268.83 70.7368 268.112 71.462 266.748 71.4667C263.849 71.4745 260.95 71.4745 258.052 71.4667C256.647 71.4636 255.923 70.7446 255.92 69.3549C255.914 66.4385 255.912 63.5221 255.92 60.6057C255.923 59.2783 256.649 58.5562 257.983 58.5531C260.92 58.5453 263.859 58.5453 266.796 58.5531C268.121 58.5562 268.83 59.2845 268.836 60.626C268.844 62.1044 268.837 63.5813 268.837 65.0597ZM266.933 69.5525C266.933 66.4821 266.933 63.4785 266.933 60.4657C263.874 60.4657 260.855 60.4657 257.838 60.4657C257.838 63.5175 257.838 66.521 257.838 69.5525C260.88 69.5525 263.887 69.5525 266.933 69.5525Z" fill="black"/>
<path d="M293.743 60.4408C290.727 60.4408 287.718 60.4408 284.648 60.4408C284.631 60.7178 284.625 60.9808 284.594 61.2422C284.535 61.7574 284.24 62.0624 283.72 62.0826C283.2 62.1028 282.859 61.8181 282.78 61.3123C282.509 59.5895 283.334 58.5017 284.985 58.5344C287.822 58.592 290.661 58.5484 293.5 58.5515C294.992 58.5531 295.677 59.2378 295.68 60.7162C295.682 61.6873 295.685 62.66 295.679 63.6311C295.674 64.3236 295.32 64.7469 294.765 64.75C294.215 64.7531 293.825 64.3127 293.816 63.6466C293.802 62.618 293.802 61.5877 293.796 60.5591C293.796 60.5419 293.78 60.5248 293.743 60.4408Z" fill="black"/>
<path d="M301.274 41.0689C302.11 41.0689 302.946 41.0611 303.782 41.072C304.405 41.0797 304.779 41.419 304.795 41.959C304.81 42.527 304.43 42.9239 303.795 42.9301C302.104 42.9457 300.411 42.9441 298.718 42.9301C298.1 42.9254 297.675 42.5037 297.687 41.9715C297.7 41.4346 298.117 41.0766 298.763 41.0704C299.601 41.0626 300.437 41.0673 301.274 41.0689Z" fill="black"/>
<path d="M301.266 58.5516C302.103 58.5516 302.939 58.5422 303.775 58.5547C304.42 58.5656 304.775 58.8862 304.793 59.4308C304.814 60.0004 304.44 60.4019 303.802 60.4082C302.11 60.4268 300.418 60.4253 298.726 60.4097C298.1 60.4035 297.68 59.988 297.686 59.4557C297.694 58.9204 298.103 58.5609 298.758 58.5531C299.594 58.5422 300.432 58.5516 301.266 58.5516Z" fill="black"/>
<path d="M274.47 41.0673C275.286 41.0673 276.104 41.0611 276.92 41.0689C277.561 41.0751 277.974 41.4424 277.976 41.9839C277.977 42.5239 277.563 42.9239 276.935 42.9286C275.263 42.941 273.592 42.941 271.919 42.9301C271.268 42.9254 270.885 42.5644 270.878 42.001C270.87 41.4143 271.259 41.0735 271.96 41.0689C272.798 41.0626 273.634 41.0673 274.47 41.0673Z" fill="black"/>
<path d="M300.209 47.2613C299.686 47.2613 299.162 47.2753 298.639 47.2566C298.085 47.2379 297.697 46.8551 297.688 46.3571C297.678 45.87 298.068 45.4249 298.602 45.4109C299.648 45.3844 300.695 45.386 301.741 45.4078C302.322 45.4202 302.701 45.8435 302.68 46.3758C302.662 46.8862 302.291 47.2395 301.721 47.2566C301.218 47.2737 300.713 47.2613 300.209 47.2613Z" fill="black"/>
<path d="M300.201 64.7547C299.697 64.7547 299.192 64.7703 298.689 64.7516C298.107 64.7298 297.699 64.3361 297.688 63.8256C297.677 63.2887 298.094 62.8997 298.723 62.8934C299.712 62.8826 300.699 62.881 301.688 62.895C302.294 62.9043 302.676 63.2716 302.679 63.8038C302.682 64.3345 302.303 64.7236 301.71 64.75C301.21 64.7718 300.706 64.7547 300.201 64.7547Z" fill="black"/>
<path d="M273.36 47.2612C272.855 47.2612 272.349 47.2721 271.845 47.2581C271.262 47.2426 270.901 46.9049 270.879 46.3851C270.856 45.8342 271.217 45.4202 271.802 45.4078C272.832 45.3844 273.863 45.3844 274.892 45.4078C275.479 45.4202 275.85 45.8342 275.834 46.3742C275.819 46.8862 275.448 47.2395 274.875 47.2581C274.37 47.2737 273.864 47.2612 273.36 47.2612Z" fill="black"/>
<path d="M287.631 30.7621C292.748 30.7621 297.865 30.7621 302.982 30.7636C303.216 30.7636 303.453 30.7528 303.681 30.7885C304.144 30.8617 304.402 31.1543 304.434 31.618C304.465 32.0802 304.25 32.4148 303.808 32.5533C303.591 32.6218 303.348 32.6265 303.116 32.6265C292.784 32.6296 282.453 32.6296 272.12 32.6265C271.89 32.6265 271.645 32.6187 271.43 32.5471C270.994 32.4024 270.765 32.0647 270.806 31.6071C270.846 31.1543 271.113 30.8539 271.578 30.7885C271.807 30.7559 272.044 30.7636 272.277 30.7636C277.396 30.7621 282.513 30.7621 287.631 30.7621Z" fill="black"/>
<path d="M264.82 31.7114C264.803 32.2 264.4 32.5813 263.906 32.5751C263.389 32.5673 262.981 32.1362 263.014 31.6304C263.045 31.1465 263.464 30.7761 263.957 30.7947C264.448 30.8134 264.837 31.2258 264.82 31.7114Z" fill="black"/>
<path d="M259.991 32.5766C259.489 32.5844 259.098 32.2156 259.081 31.7191C259.063 31.1993 259.463 30.79 259.983 30.7947C260.478 30.7994 260.866 31.1884 260.866 31.6818C260.867 32.1782 260.484 32.5688 259.991 32.5766Z" fill="black"/>
<path d="M256.912 31.6632C256.921 32.169 256.56 32.5565 256.063 32.5736C255.545 32.5907 255.134 32.1939 255.137 31.6772C255.14 31.1854 255.528 30.7979 256.02 30.7933C256.516 30.7886 256.903 31.1668 256.912 31.6632Z" fill="black"/>
<path d="M152.673 155.966V157.091H149.783V166.562H148.399V157.091H145.493V155.966H152.673Z" fill="black"/>
<path d="M161.983 162.077C161.983 162.341 161.968 162.619 161.937 162.913H155.275C155.325 163.734 155.604 164.378 156.111 164.844C156.628 165.3 157.252 165.528 157.982 165.528C158.581 165.528 159.078 165.391 159.473 165.118C159.879 164.834 160.163 164.459 160.325 163.993H161.816C161.593 164.793 161.146 165.447 160.477 165.954C159.808 166.45 158.976 166.699 157.982 166.699C157.191 166.699 156.481 166.521 155.853 166.166C155.234 165.812 154.747 165.31 154.392 164.661C154.037 164.003 153.86 163.243 153.86 162.381C153.86 161.52 154.032 160.765 154.377 160.116C154.722 159.467 155.204 158.971 155.822 158.626C156.451 158.272 157.171 158.094 157.982 158.094C158.773 158.094 159.473 158.267 160.082 158.611C160.69 158.956 161.156 159.432 161.481 160.04C161.816 160.638 161.983 161.317 161.983 162.077ZM160.553 161.788C160.553 161.261 160.436 160.81 160.203 160.435C159.97 160.05 159.65 159.761 159.245 159.569C158.849 159.366 158.408 159.265 157.921 159.265C157.222 159.265 156.623 159.488 156.126 159.934C155.64 160.38 155.361 160.998 155.29 161.788H160.553Z" fill="black"/>
<path d="M163.293 162.381C163.293 161.52 163.465 160.77 163.81 160.131C164.155 159.483 164.632 158.981 165.24 158.626C165.859 158.272 166.564 158.094 167.355 158.094C168.379 158.094 169.22 158.343 169.88 158.839C170.549 159.336 170.99 160.025 171.203 160.907H169.712C169.57 160.4 169.291 160 168.876 159.706C168.47 159.412 167.963 159.265 167.355 159.265C166.564 159.265 165.925 159.538 165.438 160.086C164.951 160.623 164.708 161.388 164.708 162.381C164.708 163.385 164.951 164.16 165.438 164.707C165.925 165.254 166.564 165.528 167.355 165.528C167.963 165.528 168.47 165.386 168.876 165.102C169.281 164.819 169.56 164.413 169.712 163.886H171.203C170.98 164.737 170.534 165.422 169.864 165.938C169.195 166.445 168.358 166.699 167.355 166.699C166.564 166.699 165.859 166.521 165.24 166.166C164.632 165.812 164.155 165.31 163.81 164.661C163.465 164.013 163.293 163.253 163.293 162.381Z" fill="black"/>
<path d="M177.112 158.079C178.126 158.079 178.947 158.388 179.576 159.006C180.205 159.614 180.519 160.496 180.519 161.651V166.562H179.15V161.849C179.15 161.018 178.942 160.385 178.526 159.949C178.111 159.503 177.543 159.28 176.823 159.28C176.092 159.28 175.509 159.508 175.073 159.964C174.647 160.42 174.434 161.084 174.434 161.956V166.562H173.05V158.231H174.434V159.417C174.708 158.991 175.078 158.662 175.545 158.429C176.022 158.196 176.544 158.079 177.112 158.079Z" fill="black"/>
<path d="M186.416 166.699C185.635 166.699 184.925 166.521 184.286 166.166C183.658 165.812 183.161 165.31 182.796 164.661C182.441 164.003 182.263 163.243 182.263 162.381C182.263 161.53 182.446 160.78 182.811 160.131C183.186 159.473 183.693 158.971 184.332 158.626C184.971 158.272 185.686 158.094 186.477 158.094C187.268 158.094 187.983 158.272 188.622 158.626C189.261 158.971 189.763 159.467 190.128 160.116C190.503 160.765 190.69 161.52 190.69 162.381C190.69 163.243 190.498 164.003 190.112 164.661C189.737 165.31 189.225 165.812 188.576 166.166C187.927 166.521 187.207 166.699 186.416 166.699ZM186.416 165.482C186.913 165.482 187.379 165.366 187.815 165.133C188.252 164.9 188.601 164.55 188.865 164.084C189.139 163.618 189.276 163.05 189.276 162.381C189.276 161.712 189.144 161.145 188.88 160.679C188.617 160.212 188.272 159.868 187.846 159.645C187.42 159.412 186.958 159.295 186.462 159.295C185.955 159.295 185.488 159.412 185.062 159.645C184.646 159.868 184.312 160.212 184.058 160.679C183.805 161.145 183.678 161.712 183.678 162.381C183.678 163.06 183.8 163.633 184.043 164.099C184.296 164.565 184.631 164.915 185.047 165.148C185.463 165.371 185.919 165.482 186.416 165.482Z" fill="black"/>
<path d="M193.895 155.312V166.562H192.511V155.312H193.895Z" fill="black"/>
<path d="M199.89 166.699C199.109 166.699 198.399 166.521 197.76 166.166C197.131 165.812 196.634 165.31 196.269 164.661C195.914 164.003 195.737 163.243 195.737 162.381C195.737 161.53 195.919 160.78 196.284 160.131C196.66 159.473 197.167 158.971 197.806 158.626C198.445 158.272 199.159 158.094 199.951 158.094C200.742 158.094 201.456 158.272 202.095 158.626C202.734 158.971 203.236 159.467 203.601 160.116C203.977 160.765 204.164 161.52 204.164 162.381C204.164 163.243 203.971 164.003 203.586 164.661C203.211 165.31 202.699 165.812 202.05 166.166C201.401 166.521 200.681 166.699 199.89 166.699ZM199.89 165.482C200.387 165.482 200.853 165.366 201.289 165.133C201.725 164.9 202.075 164.55 202.339 164.084C202.613 163.618 202.749 163.05 202.749 162.381C202.749 161.712 202.618 161.145 202.354 160.679C202.09 160.212 201.745 159.868 201.32 159.645C200.894 159.412 200.432 159.295 199.935 159.295C199.428 159.295 198.962 159.412 198.536 159.645C198.12 159.868 197.785 160.212 197.532 160.679C197.278 161.145 197.152 161.712 197.152 162.381C197.152 163.06 197.273 163.633 197.517 164.099C197.77 164.565 198.105 164.915 198.521 165.148C198.936 165.371 199.393 165.482 199.89 165.482Z" fill="black"/>
<path d="M209.422 158.094C210.142 158.094 210.771 158.251 211.308 158.565C211.856 158.88 212.262 159.275 212.525 159.751V158.231H213.925V166.744C213.925 167.504 213.763 168.178 213.438 168.766C213.113 169.364 212.647 169.83 212.039 170.165C211.44 170.499 210.74 170.666 209.939 170.666C208.844 170.666 207.931 170.408 207.201 169.891C206.471 169.374 206.04 168.67 205.908 167.778H207.277C207.429 168.285 207.744 168.69 208.22 168.994C208.697 169.308 209.27 169.465 209.939 169.465C210.7 169.465 211.319 169.227 211.795 168.751C212.282 168.274 212.525 167.606 212.525 166.744V164.996C212.251 165.482 211.846 165.888 211.308 166.212C210.771 166.536 210.142 166.699 209.422 166.699C208.682 166.699 208.007 166.516 207.399 166.151C206.801 165.786 206.329 165.275 205.984 164.616C205.639 163.957 205.467 163.207 205.467 162.366C205.467 161.515 205.639 160.77 205.984 160.131C206.329 159.483 206.801 158.981 207.399 158.626C208.007 158.272 208.682 158.094 209.422 158.094ZM212.525 162.381C212.525 161.753 212.399 161.206 212.145 160.739C211.891 160.273 211.547 159.918 211.111 159.675C210.685 159.422 210.213 159.295 209.696 159.295C209.179 159.295 208.707 159.417 208.281 159.66C207.855 159.903 207.516 160.258 207.262 160.724C207.009 161.19 206.882 161.738 206.882 162.366C206.882 163.004 207.009 163.562 207.262 164.038C207.516 164.504 207.855 164.864 208.281 165.118C208.707 165.361 209.179 165.482 209.696 165.482C210.213 165.482 210.685 165.361 211.111 165.118C211.547 164.864 211.891 164.504 212.145 164.038C212.399 163.562 212.525 163.01 212.525 162.381Z" fill="black"/>
<path d="M216.979 156.878C216.715 156.878 216.492 156.787 216.31 156.604C216.127 156.422 216.036 156.199 216.036 155.936C216.036 155.672 216.127 155.449 216.31 155.267C216.492 155.084 216.715 154.993 216.979 154.993C217.233 154.993 217.446 155.084 217.618 155.267C217.8 155.449 217.892 155.672 217.892 155.936C217.892 156.199 217.8 156.422 217.618 156.604C217.446 156.787 217.233 156.878 216.979 156.878ZM217.648 158.231V166.562H216.264V158.231H217.648Z" fill="black"/>
<path d="M219.49 162.366C219.49 161.515 219.663 160.77 220.008 160.131C220.352 159.483 220.824 158.981 221.422 158.626C222.031 158.272 222.705 158.094 223.445 158.094C224.176 158.094 224.809 158.251 225.347 158.565C225.884 158.88 226.285 159.275 226.549 159.751V158.231H227.948V166.562H226.549V165.011C226.275 165.498 225.864 165.903 225.317 166.227C224.779 166.541 224.15 166.699 223.43 166.699C222.69 166.699 222.021 166.516 221.422 166.151C220.824 165.786 220.352 165.275 220.008 164.616C219.663 163.957 219.49 163.207 219.49 162.366ZM226.549 162.381C226.549 161.753 226.422 161.206 226.168 160.739C225.915 160.273 225.57 159.918 225.134 159.675C224.708 159.422 224.236 159.295 223.719 159.295C223.202 159.295 222.731 159.417 222.305 159.66C221.879 159.903 221.539 160.258 221.285 160.724C221.032 161.19 220.905 161.738 220.905 162.366C220.905 163.004 221.032 163.562 221.285 164.038C221.539 164.504 221.879 164.864 222.305 165.118C222.731 165.361 223.202 165.482 223.719 165.482C224.236 165.482 224.708 165.361 225.134 165.118C225.57 164.864 225.915 164.504 226.168 164.038C226.422 163.562 226.549 163.01 226.549 162.381Z" fill="black"/>
<path d="M128.25 60.9345C128.25 65.7114 124.376 69.5839 119.596 69.5839L68.1902 69.5839C63.4102 69.5839 59.5352 65.7114 59.5352 60.9345V60.9345C59.5352 56.1576 63.4102 52.2851 68.1902 52.2851L119.596 52.2851C124.376 52.2851 128.25 56.1576 128.25 60.9345V60.9345Z" fill="#EDEFFF"/>
<path d="M288.763 228.942C294.557 228.942 299.254 233.636 299.254 239.426L299.254 267.733C299.254 273.523 294.557 278.217 288.763 278.217L259.389 278.217C253.595 278.217 248.898 273.523 248.898 267.733L248.898 239.426C248.898 233.636 253.595 228.942 259.389 228.942L288.763 228.942Z" fill="#EDEFFF"/>
<g clip-path="url(#clip0_116_928)">
<path d="M301.36 227.369H246.788C246.269 227.369 245.749 227.889 245.749 228.408V237.238V253.339C245.749 253.339 246.269 253.339 246.788 253.339C247.308 253.339 247.828 252.82 247.828 252.3V237.757H300.841V239.835C300.841 240.354 301.36 240.874 301.88 240.874C302.4 240.874 302.92 240.354 302.92 239.835V236.718V228.408C302.4 227.889 301.88 227.369 301.36 227.369ZM247.308 228.928H300.321V235.68H247.308V228.928Z" fill="#1A171B"/>
<path d="M296.162 232.045V232.565V233.085H296.681H297.201V232.565V232.045C297.201 231.525 296.681 231.525 296.162 232.045Z" fill="#1A171B"/>
<path d="M292.526 231.522C292.007 231.522 291.487 232.042 291.487 232.561C291.487 233.081 292.007 233.6 292.526 233.6C293.046 233.6 293.046 233.081 293.046 232.561C293.046 232.042 292.526 231.522 292.526 231.522Z" fill="#1A171B"/>
<path d="M286.811 232.045V232.565V233.085H287.33H287.85V232.565V232.045C287.85 231.525 287.33 231.525 286.811 232.045Z" fill="#1A171B"/>
<path d="M264.459 279.83C264.979 279.83 265.498 279.31 265.498 278.791V268.922C265.498 268.403 264.979 267.884 264.459 267.884H258.742C258.222 267.884 257.702 268.403 257.702 268.922V279.31C257.702 279.83 258.222 280.349 258.742 280.349H264.459V279.83ZM259.781 269.442H263.939V278.272H259.781V269.442Z" fill="#1A171B"/>
<path d="M301.357 251.779H295.64C295.12 251.779 294.601 252.299 294.601 252.818V279.307C294.601 279.827 295.12 280.346 295.64 280.346H301.357C301.877 280.346 302.397 279.827 302.397 279.307V252.299C302.397 251.779 301.877 251.779 301.357 251.779ZM300.837 278.269H296.68V253.338H300.837V278.269Z" fill="#1A171B"/>
<path d="M289.406 279.829C289.925 279.829 290.445 279.31 290.445 278.79V261.65C290.445 261.131 289.925 260.611 289.406 260.611H283.688C283.169 260.611 282.649 261.131 282.649 261.65V279.31C282.649 279.829 283.169 280.348 283.688 280.348H289.406V279.829ZM284.208 262.689H288.366V278.271H284.208V262.689Z" fill="#1A171B"/>
<path d="M276.932 279.831C277.452 279.831 277.971 279.312 277.971 278.792V257.497C277.971 256.978 277.452 256.458 276.932 256.458H271.215C270.695 256.458 270.175 256.978 270.175 257.497V279.312C270.175 279.831 270.695 280.351 271.215 280.351H276.932V279.831ZM272.254 258.536H276.412V278.273H272.254V258.536Z" fill="#1A171B"/>
<path d="M246.789 279.827H252.506C253.025 279.827 253.545 279.308 253.545 278.788V266.323C253.545 265.804 253.025 265.284 252.506 265.284H246.789C246.269 265.284 245.749 265.804 245.749 266.323V279.308C245.749 279.827 246.269 279.827 246.789 279.827ZM247.308 266.842H251.466V278.269H247.308V266.842Z" fill="#1A171B"/>
<path d="M301.36 282.428H246.788C246.269 282.428 245.749 282.428 245.749 282.948C245.749 283.467 246.269 283.986 246.788 283.986H301.88C302.4 283.986 302.92 283.467 302.92 282.948C302.92 282.428 301.88 282.428 301.36 282.428Z" fill="#1A171B"/>
<path d="M298.762 241.394C296.683 241.394 295.124 242.952 295.124 245.03C295.124 245.549 295.124 246.069 295.643 246.588L288.887 251.782C287.847 251.263 287.328 250.743 286.288 250.743C285.249 250.743 283.689 251.263 283.17 252.301L277.972 250.743C277.972 250.743 277.972 250.743 277.972 250.224C277.972 248.146 276.413 246.588 274.334 246.588C272.255 246.588 270.696 248.146 270.696 250.224C270.696 250.743 270.696 251.263 271.216 251.782L263.94 258.534C263.42 258.015 262.38 258.015 261.861 258.015C260.302 258.015 259.262 259.053 258.742 260.092L253.545 259.053C253.545 256.976 251.986 255.418 249.907 255.418C247.308 255.418 245.749 256.976 245.749 259.053C245.749 261.131 247.308 262.689 249.387 262.689C250.946 262.689 251.986 261.65 252.506 260.612L257.703 261.65C257.703 263.728 259.262 265.286 261.341 265.286C263.42 265.286 264.979 263.728 264.979 261.65C264.979 261.131 264.979 260.612 264.459 260.092L271.736 253.34C272.255 253.86 273.295 253.86 273.815 253.86C274.854 253.86 276.413 253.34 276.933 252.301L282.65 254.379C282.65 254.379 282.65 254.379 282.65 254.898C282.65 256.976 284.209 258.534 286.288 258.534C288.367 258.534 289.926 256.976 289.926 254.898C289.926 254.379 289.926 253.86 289.406 253.34L296.163 248.146C297.202 248.666 297.722 249.185 298.762 249.185C300.841 249.185 302.4 247.627 302.4 245.549C302.4 243.472 300.841 241.394 298.762 241.394ZM249.387 261.131C248.348 261.131 247.308 260.092 247.308 259.053C247.308 258.015 248.348 256.976 249.387 256.976C250.427 256.976 251.466 258.015 251.466 259.053C251.466 260.092 250.427 261.131 249.387 261.131ZM261.861 263.728C260.821 263.728 259.782 262.689 259.782 261.65C259.782 260.612 260.821 259.573 261.861 259.573C262.9 259.573 263.94 260.612 263.94 261.65C263.94 262.689 262.9 263.728 261.861 263.728ZM273.815 252.301C272.775 252.301 271.736 251.263 271.736 250.224C271.736 249.185 272.775 248.146 273.815 248.146C274.854 248.146 275.893 249.185 275.893 250.224C275.893 251.263 275.374 252.301 273.815 252.301ZM286.288 256.456C285.249 256.456 284.209 255.418 284.209 254.379C284.209 253.34 285.249 252.301 286.288 252.301C287.328 252.301 288.367 253.34 288.367 254.379C288.367 255.937 287.328 256.456 286.288 256.456ZM298.762 247.107C297.722 247.107 296.683 246.588 296.683 245.03C296.683 243.991 297.722 242.952 298.762 242.952C299.801 242.952 300.841 243.991 300.841 245.03C300.841 246.588 299.801 247.107 298.762 247.107Z" fill="#1A171B"/>
</g>
<path d="M105.171 232.611C110.965 232.611 115.662 237.305 115.662 243.095L115.662 263.015C115.662 268.805 110.965 273.499 105.171 273.499L71.5999 273.499C65.806 273.499 61.109 268.805 61.109 263.015L61.109 243.095C61.109 237.305 65.806 232.611 71.5999 232.611L105.171 232.611Z" fill="#EDEFFF"/>
<path d="M114.791 227.369H61.9808C59.7094 227.369 57.438 229.639 57.438 231.909V269.931V273.336C57.438 276.173 59.7094 277.876 61.9808 277.876H81.2879V282.983H80.1522C77.3129 282.983 75.0415 285.253 75.0415 288.09C75.0415 288.658 75.6094 289.225 76.1772 289.225H101.163C101.731 289.225 102.299 288.658 102.299 288.09C102.299 285.253 100.027 282.983 97.1878 282.983H95.4843V277.876H114.791C117.631 277.876 119.334 275.606 119.334 273.336V269.931V231.909C119.334 229.639 117.063 227.369 114.791 227.369ZM59.1416 231.909C59.1416 230.207 60.2773 229.072 61.9808 229.072H114.224C115.927 229.072 117.063 230.207 117.063 231.909V268.796H112.52V247.231C112.52 246.664 111.952 246.096 111.384 246.096C110.816 246.096 110.249 246.664 110.249 247.231V269.363H105.706V250.069C105.706 249.501 105.138 248.934 104.57 248.934C104.002 248.934 103.434 249.501 103.434 250.069V269.363H98.8914V255.744C98.8914 255.176 98.3236 254.609 97.7557 254.609C97.7557 254.609 97.1878 255.176 97.1878 255.744V269.363H92.645V254.041C92.645 253.474 92.0772 252.906 91.5093 252.906C90.9414 252.906 90.3736 253.474 90.3736 254.041V269.363H85.8307V258.014C85.8307 257.446 85.2629 256.879 84.695 256.879C84.1272 256.879 83.5593 257.446 83.5593 258.014V269.363H79.5843V259.716C79.5843 259.149 79.0165 258.581 78.4486 258.581C77.8808 258.581 77.3129 259.149 77.3129 259.716V269.363H72.7701V255.744C72.7701 255.176 72.2022 254.609 71.6344 254.609C71.0665 254.609 70.4987 255.176 70.4987 255.744V269.363H66.5237V261.419C66.5237 260.851 65.9558 260.284 65.388 260.284C64.8201 260.284 64.2522 260.851 64.2522 261.419V269.363H59.1416V231.909ZM100.027 287.523H77.3129C77.3129 285.821 78.4486 284.686 80.1522 284.686H82.4236H94.3486H96.62C98.3236 284.686 99.4593 285.821 100.027 287.523ZM93.2129 282.983H83.5593V277.876H93.7807V282.983H93.2129ZM117.631 273.336C117.631 275.038 116.495 276.173 114.791 276.173H94.3486H82.4236H61.9808C60.2773 276.173 59.1416 275.038 59.1416 273.336V271.066H117.063H117.631V273.336Z" fill="#1A171B"/>
<path d="M90.9442 247.231L84.6978 251.203L78.4514 252.906L72.205 249.501C71.6371 249.501 71.6371 249.501 71.0693 249.501L64.255 255.176C63.6871 255.743 63.6871 256.311 64.255 256.311L64.8228 256.878H65.3907L71.6371 251.771L77.8835 255.176H78.4514L85.2656 253.473L91.512 250.068L97.7584 251.771C98.3263 251.771 98.3263 251.771 98.8942 251.771L105.141 246.096L107.412 244.393L107.98 246.096L111.387 241.556L105.708 240.989L106.276 242.691L104.573 243.826L97.7584 248.933L92.0799 247.231C91.512 247.231 91.512 247.231 90.9442 247.231Z" fill="#1A171B"/>
<path d="M85.2617 235.313H91.5083C92.0761 235.313 92.644 234.746 92.644 234.178C92.644 233.611 92.0761 233.611 91.5083 233.611H85.2617C84.6938 233.611 84.126 234.178 84.126 234.746C84.126 235.313 84.6938 235.313 85.2617 235.313Z" fill="#1A171B"/>
<path d="M65.3877 235.313H80.1522C80.7201 235.313 81.288 234.746 81.288 234.178C81.288 233.611 80.7201 233.611 80.1522 233.611H65.3877C64.8198 233.611 64.252 234.178 64.252 234.746C64.252 235.313 64.8198 235.313 65.3877 235.313Z" fill="#1A171B"/>
<path d="M91.5102 240.987C92.078 240.987 92.6459 240.419 92.6459 239.852C92.6459 239.284 92.078 239.284 91.5102 239.284H80.1528C79.585 239.284 79.0171 239.852 79.0171 240.419C79.0171 240.987 79.585 240.987 80.1528 240.987H91.5102Z" fill="#1A171B"/>
<path d="M65.3877 240.987H75.6093C76.1772 240.987 76.745 240.419 76.745 239.852C76.745 239.284 76.1772 239.284 75.6093 239.284H65.3877C64.8198 239.284 64.252 239.852 64.252 240.419C64.252 240.987 64.8198 240.987 65.3877 240.987Z" fill="#1A171B"/>
<path d="M73.3398 246.1C73.3398 246.667 73.9077 247.235 74.4756 247.235H83.5615C84.1293 247.235 84.6972 246.667 84.6972 246.1C84.6972 245.532 84.1293 244.965 83.5615 244.965H74.4756C73.9077 244.965 73.3398 245.532 73.3398 246.1Z" fill="#1A171B"/>
<path d="M65.3877 247.235H69.3628C69.9306 247.235 70.4985 246.667 70.4985 246.1C70.4985 245.532 69.9306 244.965 69.3628 244.965H65.3877C64.8198 244.965 64.252 245.532 64.252 246.1C64.252 246.667 64.8198 247.235 65.3877 247.235Z" fill="#1A171B"/>
<path d="M81.4237 1.59187V4.27894H84.3549V5.14387H81.4237V7.91167H84.7011V8.77661H80.3735V0.726929H84.7011V1.59187H81.4237Z" fill="black"/>
<path d="M90.5254 8.77661L88.6097 5.48985H87.3403V8.77661H86.2901V0.738461H88.8867C89.4945 0.738461 90.0061 0.842254 90.4215 1.04984C90.8447 1.25742 91.1601 1.53805 91.3678 1.89171C91.5756 2.24537 91.6794 2.64901 91.6794 3.10262C91.6794 3.65618 91.5179 4.14439 91.1947 4.56725C90.8793 4.99011 90.4023 5.27073 89.7638 5.40912L91.7833 8.77661H90.5254ZM87.3403 4.64798H88.8867C89.456 4.64798 89.883 4.50959 90.1677 4.23281C90.4523 3.94834 90.5947 3.57161 90.5947 3.10262C90.5947 2.62595 90.4523 2.25691 90.1677 1.9955C89.8907 1.7341 89.4637 1.6034 88.8867 1.6034H87.3403V4.64798Z" fill="black"/>
<path d="M98.6889 3.09109C98.6889 3.75997 98.4581 4.31738 97.9965 4.7633C97.5426 5.20154 96.8464 5.42065 95.9077 5.42065H94.3614V8.77661H93.3112V0.738461H95.9077C96.8156 0.738461 97.5041 0.957578 97.9734 1.39581C98.4504 1.83405 98.6889 2.39914 98.6889 3.09109ZM95.9077 4.55572C96.4925 4.55572 96.9233 4.42886 97.2003 4.17514C97.4772 3.92143 97.6157 3.56008 97.6157 3.09109C97.6157 2.09929 97.0464 1.6034 95.9077 1.6034H94.3614V4.55572H95.9077Z" fill="black"/>
<path d="M87.0319 301.86C87.3243 301.906 87.5897 302.025 87.8282 302.217C88.0744 302.41 88.2667 302.648 88.4052 302.932C88.5514 303.217 88.6245 303.521 88.6245 303.843C88.6245 304.251 88.5206 304.62 88.3129 304.951C88.1052 305.274 87.8013 305.531 87.4012 305.723C87.0088 305.908 86.5434 306 86.0049 306H83.0044V297.962H85.8894C86.4357 297.962 86.9011 298.054 87.2858 298.239C87.6705 298.416 87.959 298.658 88.1513 298.965C88.3437 299.273 88.4398 299.619 88.4398 300.003C88.4398 300.48 88.309 300.876 88.0475 301.191C87.7936 301.499 87.4551 301.722 87.0319 301.86ZM84.0546 301.433H85.8202C86.3126 301.433 86.6934 301.318 86.9627 301.087C87.232 300.857 87.3666 300.538 87.3666 300.13C87.3666 299.723 87.232 299.403 86.9627 299.173C86.6934 298.942 86.3049 298.827 85.7971 298.827H84.0546V301.433ZM85.9125 305.135C86.4357 305.135 86.8434 305.012 87.1358 304.766C87.4281 304.52 87.5743 304.178 87.5743 303.74C87.5743 303.294 87.4205 302.944 87.1127 302.69C86.805 302.429 86.3934 302.298 85.8779 302.298H84.0546V305.135H85.9125Z" fill="black"/>
<path d="M91.132 297.962V306H90.0818V297.962H91.132Z" fill="black"/>
<path d="M269.157 7.92282H271.972V8.77622H268.106V0.738079H269.157V7.92282Z" fill="black"/>
<path d="M275.846 8.88002C275.253 8.88002 274.715 8.74547 274.23 8.47638C273.753 8.20729 273.376 7.82672 273.099 7.33466C272.83 6.83492 272.695 6.2583 272.695 5.60479C272.695 4.95897 272.834 4.39003 273.111 3.89798C273.395 3.39824 273.78 3.01767 274.265 2.75627C274.749 2.48717 275.292 2.35263 275.892 2.35263C276.492 2.35263 277.034 2.48717 277.519 2.75627C278.004 3.01767 278.385 3.3944 278.662 3.88645C278.946 4.3785 279.089 4.95128 279.089 5.60479C279.089 6.2583 278.942 6.83492 278.65 7.33466C278.365 7.82672 277.977 8.20729 277.484 8.47638C276.992 8.74547 276.446 8.88002 275.846 8.88002ZM275.846 7.95742C276.223 7.95742 276.577 7.869 276.907 7.69217C277.238 7.51534 277.504 7.25009 277.704 6.89643C277.911 6.54277 278.015 6.11222 278.015 5.60479C278.015 5.09736 277.915 4.66681 277.715 4.31315C277.515 3.95949 277.254 3.69809 276.931 3.52894C276.607 3.35211 276.257 3.26369 275.88 3.26369C275.496 3.26369 275.142 3.35211 274.819 3.52894C274.503 3.69809 274.249 3.95949 274.057 4.31315C273.865 4.66681 273.769 5.09736 273.769 5.60479C273.769 6.11991 273.861 6.5543 274.046 6.90796C274.238 7.26162 274.492 7.52687 274.807 7.7037C275.123 7.87285 275.469 7.95742 275.846 7.95742Z" fill="black"/>
<path d="M281.035 1.43003C280.835 1.43003 280.666 1.36083 280.527 1.22244C280.396 1.08405 280.331 0.914911 280.331 0.715014C280.331 0.515118 280.396 0.345975 280.527 0.207585C280.666 0.069195 280.835 0 281.035 0C281.235 0 281.4 0.069195 281.531 0.207585C281.67 0.345975 281.739 0.515118 281.739 0.715014C281.739 0.914911 281.67 1.08405 281.531 1.22244C281.4 1.36083 281.235 1.43003 281.035 1.43003ZM281.554 10.1486C281.554 10.7098 281.412 11.1212 281.127 11.3826C280.842 11.644 280.427 11.7747 279.881 11.7747H279.269V10.8867H279.708C280 10.8867 280.204 10.829 280.319 10.7137C280.442 10.5984 280.504 10.4023 280.504 10.1255V2.45642H281.554V10.1486Z" fill="black"/>
<path d="M282.939 5.59326C282.939 4.94744 283.07 4.38235 283.332 3.89798C283.593 3.40593 283.951 3.02536 284.405 2.75627C284.867 2.48717 285.378 2.35263 285.94 2.35263C286.494 2.35263 286.975 2.4718 287.382 2.71014C287.79 2.94847 288.094 3.24832 288.294 3.60967V2.45642H289.356V8.77622H288.294V7.59991C288.086 7.96895 287.775 8.27648 287.359 8.52251C286.952 8.76085 286.475 8.88002 285.928 8.88002C285.367 8.88002 284.859 8.74163 284.405 8.46485C283.951 8.18807 283.593 7.79981 283.332 7.30007C283.07 6.80033 282.939 6.23139 282.939 5.59326ZM288.294 5.60479C288.294 5.12811 288.198 4.71294 288.006 4.35928C287.813 4.00562 287.552 3.73653 287.221 3.55201C286.898 3.3598 286.54 3.26369 286.148 3.26369C285.755 3.26369 285.398 3.35595 285.074 3.54047C284.751 3.72499 284.494 3.99409 284.301 4.34775C284.109 4.70141 284.013 5.11658 284.013 5.59326C284.013 6.07762 284.109 6.50048 284.301 6.86183C284.494 7.21549 284.751 7.48843 285.074 7.68064C285.398 7.86516 285.755 7.95742 286.148 7.95742C286.54 7.95742 286.898 7.86516 287.221 7.68064C287.552 7.48843 287.813 7.21549 288.006 6.86183C288.198 6.50048 288.294 6.08147 288.294 5.60479Z" fill="black"/>
<path d="M271.349 295.341L269.018 303.379H267.841L265.971 296.909L264.033 303.379L262.867 303.391L260.617 295.341H261.736L263.49 302.157L265.429 295.341H266.606L268.453 302.133L270.218 295.341H271.349Z" fill="black"/>
<path d="M280.657 295.399V303.379H279.607V297.428L276.953 303.379H276.214L273.549 297.417V303.379H272.498V295.399H273.629L276.584 301.995L279.538 295.399H280.657Z" fill="black"/>
<path d="M284.989 303.46C284.458 303.46 283.981 303.367 283.558 303.183C283.142 302.991 282.815 302.729 282.577 302.399C282.338 302.06 282.215 301.672 282.207 301.234H283.327C283.365 301.611 283.519 301.93 283.788 302.191C284.065 302.445 284.465 302.572 284.989 302.572C285.489 302.572 285.881 302.449 286.166 302.203C286.458 301.949 286.604 301.626 286.604 301.234C286.604 300.926 286.52 300.677 286.35 300.484C286.181 300.292 285.97 300.146 285.716 300.046C285.462 299.946 285.119 299.839 284.689 299.723C284.158 299.585 283.731 299.446 283.408 299.308C283.092 299.17 282.819 298.954 282.588 298.662C282.365 298.362 282.254 297.963 282.254 297.463C282.254 297.025 282.365 296.636 282.588 296.298C282.811 295.96 283.123 295.698 283.523 295.514C283.931 295.329 284.396 295.237 284.919 295.237C285.673 295.237 286.289 295.425 286.766 295.802C287.251 296.179 287.524 296.679 287.585 297.301H286.431C286.393 296.994 286.231 296.725 285.946 296.494C285.662 296.256 285.285 296.137 284.816 296.137C284.377 296.137 284.019 296.252 283.742 296.483C283.465 296.706 283.327 297.021 283.327 297.428C283.327 297.72 283.408 297.959 283.569 298.143C283.738 298.328 283.942 298.47 284.181 298.57C284.427 298.662 284.769 298.77 285.208 298.893C285.739 299.039 286.166 299.185 286.489 299.331C286.812 299.469 287.089 299.689 287.32 299.988C287.551 300.281 287.666 300.68 287.666 301.188C287.666 301.58 287.562 301.949 287.354 302.295C287.147 302.641 286.839 302.922 286.431 303.137C286.023 303.352 285.543 303.46 284.989 303.46Z" fill="black"/>
<path d="M51.1431 57.1746C52.6049 57.1513 54.0667 57.0983 55.5265 57.1195C56.1402 57.128 56.5301 57.0178 56.6772 56.3564C56.7688 55.9514 56.9989 55.5783 57.2099 55.0886C55.9846 53.9311 54.7359 52.7503 53.3614 51.4508C54.3331 50.5307 55.2047 49.7252 56.0528 48.8942C56.886 48.078 57.6958 47.2385 58.5652 46.3587C59.669 47.4589 60.7345 48.4914 61.7616 49.5598C62.1175 49.9308 62.3881 49.9499 62.9102 49.8227C64.1291 49.528 64.3721 48.8284 64.2826 47.7112C64.1867 46.5304 64.2613 45.3348 64.2613 44.0882C66.6692 44.0882 69.0218 44.0882 71.4511 44.0882C71.4511 45.6019 71.4831 47.0795 71.4362 48.5571C71.4192 49.1146 71.6834 49.2673 72.1096 49.5301C73.1751 50.1873 73.8506 49.8269 74.5708 48.9768C75.3401 48.0695 76.2351 47.2682 77.0513 46.4456C77.1493 46.4753 77.1855 46.4753 77.1983 46.4923C78.0251 47.6794 79.2377 47.6794 80.5141 47.6349C82.0995 47.5777 83.6871 47.6222 85.4366 47.6222C85.1852 47.3296 85.0509 47.1516 84.8954 46.9947C82.4682 44.5758 80.0474 42.1506 77.5947 39.7593C77.3283 39.4986 76.8723 39.312 76.4972 39.2993C75.061 39.2463 73.6226 39.2908 72.1842 39.2696C71.7388 39.2632 71.4873 39.3841 71.2551 39.8081C70.4048 41.3599 68.6809 42.0404 67.0379 41.5528C65.4482 41.08 64.3209 39.4625 64.4616 37.8577C64.615 36.0939 65.8851 34.7647 67.6601 34.5082C69.0346 34.3089 70.505 35.0106 71.2125 36.3059C71.4746 36.785 71.7644 36.9101 72.2694 36.9038C73.9209 36.8783 75.5724 36.9207 77.2218 36.8804C77.8568 36.8656 78.3086 37.0479 78.7603 37.5016C81.9802 40.7408 85.2235 43.9589 88.4796 47.1622C88.714 47.3932 89.1019 47.6031 89.4194 47.6052C93.9455 47.6328 98.4717 47.6243 103 47.6222C103.102 47.6222 103.202 47.6052 103.313 47.5967C100.622 44.9256 97.9475 42.2693 95.288 39.63C95.9998 38.9368 96.5453 38.4047 97.1292 37.8365C99.6885 40.3868 102.367 42.8608 104.799 45.5531C106.262 47.1749 107.81 47.7133 109.977 47.6752C117.644 47.5437 125.313 47.6307 132.983 47.6349C132.983 56.3267 132.983 65.0184 132.983 73.7102C130.14 73.7102 127.297 73.7102 124.408 73.7102C124.408 72.9258 124.408 72.1966 124.408 71.3655C126.443 71.3655 128.473 71.3655 130.545 71.3655C130.545 64.2065 130.545 57.1471 130.545 50.0474C114.013 50.0474 97.517 50.0474 80.887 50.0474C81.3665 50.5562 81.7714 50.9865 82.2316 51.4762C81.1449 52.5489 80.1113 53.611 79.0267 54.6201C78.6239 54.9953 78.6772 55.2815 78.7987 55.7755C79.097 56.9796 79.8215 57.2149 80.936 57.1259C82.0995 57.0326 83.2758 57.1047 84.5139 57.1047C84.5139 59.4875 84.5139 61.8258 84.5139 64.2595C83.1011 64.2595 81.6946 64.2977 80.2903 64.2425C79.6084 64.2171 79.3335 64.4524 79.0032 65.063C78.4833 66.0212 78.7624 66.5618 79.4891 67.1914C80.431 68.0076 81.2876 68.9213 82.3318 69.9409C81.7799 70.3141 81.277 70.6511 80.7762 70.9903C80.8508 71.1006 80.9232 71.2108 80.9978 71.321C93.0335 71.321 105.067 71.321 117.145 71.321C117.145 72.1605 117.145 72.8898 117.145 73.7272C116.849 73.7272 116.566 73.7272 116.284 73.7272C113.461 73.7272 110.637 73.7484 107.816 73.7123C107.168 73.7039 106.736 73.918 106.292 74.361C100.298 80.3499 94.2822 86.3175 88.2857 92.3064C87.8957 92.6964 87.5079 92.8597 86.9603 92.8512C84.857 92.8236 82.7516 92.8491 80.6483 92.8342C80.2115 92.8321 79.9473 92.9254 79.7107 93.3557C78.8711 94.8863 77.2047 95.5732 75.5745 95.1407C74.036 94.7316 72.9087 93.2667 72.9023 91.6704C72.8959 90.0635 73.9976 88.6113 75.5447 88.1831C77.1877 87.7294 78.8498 88.3972 79.6937 89.9214C79.9238 90.3348 80.1667 90.4684 80.6164 90.4641C82.4533 90.4429 84.2923 90.4747 86.1292 90.4387C86.4616 90.4323 86.875 90.2903 87.1052 90.0656C92.4517 84.7806 97.777 79.4743 103.107 74.1702C103.198 74.0791 103.275 73.9731 103.43 73.7844C103.119 73.7611 102.898 73.7314 102.674 73.7314C98.3055 73.7293 93.9391 73.7187 89.5707 73.7484C89.1999 73.7505 88.7417 73.9392 88.4754 74.1957C86.9453 75.6648 85.4622 77.1827 83.9407 78.7048C83.3611 78.1154 82.8326 77.5791 82.1507 76.888C83.2098 75.8959 84.2816 74.8931 85.524 73.7272C83.7446 73.7272 82.2125 73.7229 80.6803 73.7293C79.374 73.7356 77.9527 73.4028 77.2047 75.0415C76.0391 73.8734 74.9715 72.841 73.9507 71.7599C73.5778 71.3634 73.2965 71.4122 72.7936 71.5351C71.5768 71.8341 71.3531 72.557 71.4405 73.6636C71.5342 74.8444 71.4618 76.0358 71.4618 77.2738C69.0602 77.2738 66.731 77.2738 64.2719 77.2738C64.2719 76.3792 64.2719 75.491 64.2719 74.6027C64.2719 73.9413 64.3124 73.2735 64.2506 72.6184C64.2272 72.3768 64.0141 72.0439 63.7988 71.9485C62.2923 71.2765 62.2837 71.2913 61.1138 72.4616C60.2891 73.2862 59.4709 74.1172 58.6824 74.9101C56.9755 73.212 55.3219 71.5669 53.6981 69.9537C54.8595 68.811 56.0805 67.6111 57.2611 66.4494C56.967 65.7032 56.7816 65.1562 56.5301 64.6432C56.447 64.4736 56.1934 64.2807 56.0166 64.2786C54.3949 64.2722 52.7754 64.3061 51.1537 64.3273C51.1431 61.9445 51.1431 59.5596 51.1431 57.1746ZM66.6565 74.8974C67.5025 74.8974 68.2355 74.8974 69.0389 74.8974C69.0389 73.3265 69.0389 71.8001 69.0389 70.4391C70.7181 69.748 72.2779 69.1057 74.0189 68.3891C74.9352 69.3601 75.9879 70.4752 77.0726 71.6284C77.6906 70.9861 78.2148 70.4413 78.8392 69.7904C77.7311 68.7559 76.6123 67.7086 75.6342 66.795C76.233 65.3004 76.8382 64.0072 77.2559 62.6547C77.4583 61.9975 77.7204 61.8428 78.3426 61.864C79.5871 61.9064 80.8359 61.8767 82.1123 61.8767C82.1123 61.0414 82.1123 60.2931 82.1123 59.4917C80.7229 59.4917 79.3911 59.5087 78.0635 59.4748C77.8333 59.4684 77.4732 59.3031 77.4008 59.1208C76.8147 57.6601 76.2841 56.1783 75.6598 54.495C76.5867 53.5919 77.6842 52.5235 78.7177 51.5165C78.1658 50.9314 77.648 50.3824 77.0342 49.7336C75.9325 50.8593 74.8607 51.9575 73.9188 52.9199C72.2545 52.2373 70.6946 51.5992 69.0154 50.9102C69.0154 49.528 69.0154 48.0059 69.0154 46.4668C68.2014 46.4668 67.4684 46.4668 66.6607 46.4668C66.6607 48.0419 66.6607 49.5683 66.6607 50.9187C64.9773 51.6183 63.4217 52.2649 61.6785 52.9899C60.7239 52.0189 59.6499 50.9251 58.6781 49.9393C58.1028 50.4672 57.5466 50.9781 56.8519 51.6162C57.9536 52.6804 59.0553 53.7425 60.0249 54.6774C59.4602 56.1168 58.8785 57.446 58.431 58.8176C58.2541 59.3561 58.0559 59.5193 57.5146 59.5045C56.2169 59.4684 54.9191 59.4917 53.5809 59.4917C53.5809 60.31 53.5809 61.0414 53.5809 61.8767C53.8792 61.8767 54.1648 61.8767 54.4503 61.8767C55.5414 61.8767 56.6346 61.8597 57.7256 61.8936C57.9302 61.9 58.2456 62.0611 58.3137 62.2286C58.8976 63.6914 59.4368 65.1732 60.059 66.8331C59.1278 67.7426 58.0303 68.8153 56.9819 69.8371C57.5381 70.4349 58.0516 70.9882 58.6249 71.603C59.7436 70.4625 60.8176 69.3664 61.7595 68.4061C63.4558 69.1078 65.0135 69.7502 66.6543 70.4285C66.6543 71.0433 66.6543 71.7832 66.6543 72.523C66.6565 73.2862 66.6565 74.0536 66.6565 74.8974ZM69.3202 38.1185C69.3351 37.4804 68.7768 36.891 68.129 36.8656C67.4897 36.8402 66.8887 37.3871 66.8504 38.0316C66.8099 38.6972 67.4044 39.3226 68.0821 39.3247C68.7256 39.3268 69.3052 38.7608 69.3202 38.1185ZM76.542 90.4281C75.8942 90.4196 75.3167 90.9687 75.2911 91.6174C75.2655 92.2915 75.8622 92.8893 76.5462 92.8787C77.2132 92.8681 77.7502 92.3212 77.7481 91.6534C77.746 90.9983 77.1941 90.4366 76.542 90.4281Z" fill="black"/>
<path d="M108.813 61.7261C109.619 63.3436 110.405 64.9209 111.253 66.621C110.294 66.621 109.474 66.6571 108.66 66.5956C108.453 66.5808 108.197 66.2882 108.086 66.0635C107.569 65.0057 107.093 63.9266 106.441 62.8836C106.441 64.1026 106.441 65.3215 106.441 66.5808C105.614 66.5808 104.879 66.5808 104.091 66.5808C104.091 62.6631 104.091 58.7603 104.091 54.8405C105.595 54.8405 107.113 54.7027 108.592 54.8808C109.966 55.0462 111.049 56.3817 111.215 57.7448C111.398 59.2394 110.87 60.4435 109.595 61.2915C109.378 61.4378 109.135 61.5501 108.813 61.7261ZM106.48 57.1195C106.48 57.9568 106.48 58.6819 106.48 59.4832C107.266 59.4366 108.116 59.7482 108.613 58.9553C108.809 58.6437 108.832 58.048 108.664 57.7215C108.199 56.8269 107.3 57.164 106.48 57.1195Z" fill="black"/>
<path d="M81.9377 80.6401C80.7486 81.8273 79.5638 83.0378 78.3364 84.2059C78.1424 84.3903 77.761 84.4391 77.4648 84.4433C75.7365 84.4645 74.0061 84.4666 72.2779 84.4454C71.7878 84.4391 71.4809 84.5366 71.2103 85.0242C70.3472 86.5866 68.5444 87.231 66.8971 86.6565C65.3031 86.1011 64.2589 84.4751 64.4699 82.8767C64.7064 81.0811 66.0788 79.7349 67.8646 79.6501C69.3414 79.5801 70.5113 80.2098 71.2316 81.5051C71.4766 81.946 71.7366 82.088 72.2182 82.0796C73.6545 82.052 75.093 82.0986 76.5271 82.0499C76.8787 82.0372 77.3007 81.8591 77.5564 81.6153C78.4813 80.744 79.3486 79.8133 80.2329 78.906C80.8445 79.525 81.3794 80.0699 81.9377 80.6401ZM68.1033 84.4793C68.749 84.4666 69.3201 83.89 69.3201 83.2498C69.3201 82.6074 68.7511 82.0329 68.1054 82.0202C67.4299 82.0075 66.8247 82.618 66.8502 83.29C66.8715 83.9324 67.4618 84.4921 68.1033 84.4793Z" fill="black"/>
<path d="M96.7602 66.5616C94.399 66.5616 92.0698 66.5616 89.6831 66.5616C89.6831 62.6524 89.6831 58.7496 89.6831 54.7896C92.0208 54.7896 94.35 54.7896 96.7452 54.7896C96.7452 55.5188 96.7452 56.2438 96.7452 57.0855C95.2173 57.0855 93.6659 57.0855 92.0677 57.0855C92.0677 57.9292 92.0677 58.6584 92.0677 59.4767C92.8242 59.4767 93.5615 59.4767 94.3543 59.4767C94.3543 60.2908 94.3543 61.0158 94.3543 61.832C93.6233 61.832 92.8903 61.832 92.0869 61.832C92.0869 62.663 92.0869 63.4071 92.0869 64.2445C93.6446 64.2445 95.1747 64.2445 96.758 64.2445C96.7602 65.0564 96.7602 65.7815 96.7602 66.5616Z" fill="black"/>
<path d="M121.952 66.5785C121.136 66.5785 120.401 66.5785 119.61 66.5785C119.61 62.6566 119.61 58.7517 119.61 54.8256C121.106 54.8256 122.607 54.6708 124.058 54.8659C125.765 55.0948 126.862 56.7717 126.762 58.563C126.668 60.2187 125.368 61.6073 123.689 61.8129C123.139 61.8807 122.583 61.8871 121.952 61.9253C121.952 63.4834 121.952 65.0098 121.952 66.5785ZM121.997 59.4576C122.813 59.464 123.672 59.7396 124.145 58.9361C124.339 58.6054 124.333 57.9631 124.132 57.6345C123.646 56.8332 122.783 57.166 121.995 57.1172C121.997 57.9143 121.997 58.6436 121.997 59.4576Z" fill="black"/>
<path d="M119.63 71.3718C120.419 71.3718 121.131 71.3718 121.906 71.3718C121.906 72.1435 121.906 72.8897 121.906 73.6826C121.16 73.6826 120.427 73.6826 119.63 73.6826C119.63 72.9385 119.63 72.1901 119.63 71.3718Z" fill="black"/>
<path d="M101.557 66.585C100.775 66.585 100.065 66.585 99.2876 66.585C99.2876 65.8346 99.2876 65.0947 99.2876 64.3082C100.042 64.3082 100.771 64.3082 101.557 64.3082C101.557 65.0566 101.557 65.7752 101.557 66.585Z" fill="black"/>
<path d="M117.096 66.5807C116.331 66.5807 115.598 66.5807 114.813 66.5807C114.813 65.8218 114.813 65.0989 114.813 64.3187C115.568 64.3187 116.301 64.3187 117.096 64.3187C117.096 65.0289 117.096 65.7539 117.096 66.5807Z" fill="black"/>
<path d="M95.2481 35.9644C94.6493 36.5347 94.0995 37.0605 93.4921 37.6371C91.7255 35.8733 89.8716 34.1604 88.1881 32.2927C87.1865 31.1819 86.1274 30.7345 84.6549 30.8639C83.3358 30.9805 81.9954 30.9063 80.6656 30.8787C80.1925 30.8702 79.9176 30.9847 79.6704 31.4362C78.8479 32.9308 77.2155 33.5922 75.5981 33.1725C74.0084 32.7591 72.8789 31.2963 72.8917 29.6597C72.9045 28.0634 74.0339 26.6007 75.5704 26.1979C77.175 25.776 78.8521 26.4438 79.6598 27.9193C79.924 28.4047 80.2202 28.515 80.7189 28.5107C82.8478 28.4895 84.9766 28.4916 87.1055 28.5128C87.3996 28.515 87.7789 28.5849 87.9707 28.7715C90.4001 31.1416 92.8017 33.5392 95.2481 35.9644ZM76.5485 28.4662C75.8943 28.4535 75.3168 28.9962 75.2912 29.6449C75.2657 30.319 75.8602 30.9253 76.5379 30.9169C77.1899 30.9084 77.744 30.3487 77.7461 29.6937C77.7525 29.028 77.2155 28.4789 76.5485 28.4662Z" fill="black"/>
<path d="M72.6165 60.7805C72.5547 63.4049 70.3533 65.5016 67.7386 65.4252C65.1025 65.3468 63.061 63.1866 63.1143 60.5324C63.1654 57.9631 65.3583 55.8728 67.9474 55.9258C70.5813 55.9788 72.6761 58.1581 72.6165 60.7805ZM65.5074 60.6723C65.5074 61.9803 66.5793 63.053 67.8771 63.0424C69.1749 63.0318 70.2383 61.9401 70.2212 60.6405C70.202 59.3707 69.1536 58.3256 67.8856 58.3107C66.5878 58.2938 65.5074 59.3665 65.5074 60.6723Z" fill="black"/>
<mask id="path-59-outside-1_116_928" maskUnits="userSpaceOnUse" x="176" y="337" width="22" height="28" fill="black">
<rect fill="white" x="176" y="337" width="22" height="28"/>
<path d="M195.832 350.246L192.668 345.861C192.235 345.259 192 344.528 192 343.775L192 339.742C192 338.78 191.25 338 190.325 338L183.673 338C182.75 338 182 338.78 182 339.742L182 343.775C182 344.528 181.765 345.259 181.332 345.861L178.168 350.248C177.41 351.299 177 352.577 177 353.891L177 357.067L197 357.067L197 353.891C197 352.577 196.59 351.298 195.832 350.246ZM193.667 358.8L190.333 358.8L190.333 364L193.667 364L193.667 358.8ZM180.333 358.8L180.333 364L183.667 364L183.667 358.8L180.333 358.8Z"/>
</mask>
<path d="M195.832 350.246L192.668 345.861C192.235 345.259 192 344.528 192 343.775L192 339.742C192 338.78 191.25 338 190.325 338L183.673 338C182.75 338 182 338.78 182 339.742L182 343.775C182 344.528 181.765 345.259 181.332 345.861L178.168 350.248C177.41 351.299 177 352.577 177 353.891L177 357.067L197 357.067L197 353.891C197 352.577 196.59 351.298 195.832 350.246ZM193.667 358.8L190.333 358.8L190.333 364L193.667 364L193.667 358.8ZM180.333 358.8L180.333 364L183.667 364L183.667 358.8L180.333 358.8Z" fill="#272FF5"/>
<path d="M195.832 350.246L196.643 349.661L196.643 349.661L195.832 350.246ZM192.668 345.861L191.857 346.445L191.857 346.446L192.668 345.861ZM181.332 345.861L182.143 346.446L182.143 346.445L181.332 345.861ZM178.168 350.248L178.979 350.833L178.979 350.833L178.168 350.248ZM177 353.891L178 353.891L177 353.891ZM177 357.067L176 357.067L176 358.067L177 358.067L177 357.067ZM197 357.067L197 358.067L198 358.067L198 357.067L197 357.067ZM193.667 358.8L194.667 358.8C194.667 358.248 194.219 357.8 193.667 357.8L193.667 358.8ZM190.333 358.8L190.333 357.8C189.781 357.8 189.333 358.248 189.333 358.8L190.333 358.8ZM190.333 364L189.333 364C189.333 364.552 189.781 365 190.333 365L190.333 364ZM193.667 364L193.667 365C194.219 365 194.667 364.552 194.667 364L193.667 364ZM180.333 358.8L180.333 357.8C179.781 357.8 179.333 358.248 179.333 358.8L180.333 358.8ZM180.333 364L179.333 364C179.333 364.552 179.781 365 180.333 365L180.333 364ZM183.667 364L183.667 365C184.219 365 184.667 364.552 184.667 364L183.667 364ZM183.667 358.8L184.667 358.8C184.667 358.248 184.219 357.8 183.667 357.8L183.667 358.8ZM196.643 349.661L193.479 345.276L191.857 346.446L195.021 350.831L196.643 349.661ZM193.48 345.276C193.17 344.847 193 344.32 193 343.775L191 343.775C191 344.735 191.3 345.671 191.857 346.445L193.48 345.276ZM193 343.775L193 339.742L191 339.742L191 343.775L193 343.775ZM193 339.742C193 338.265 191.839 337 190.325 337L190.325 339C190.661 339 191 339.295 191 339.742L193 339.742ZM190.325 337L183.673 337L183.673 339L190.325 339L190.325 337ZM183.673 337C182.16 337 181 338.266 181 339.742L183 339.742C183 339.294 183.34 339 183.673 339L183.673 337ZM181 339.742L181 343.775L183 343.775L183 339.742L181 339.742ZM181 343.775C181 344.32 180.83 344.847 180.52 345.276L182.143 346.445C182.7 345.671 183 344.735 183 343.775L181 343.775ZM180.521 345.276L177.357 349.663L178.979 350.833L182.143 346.446L180.521 345.276ZM177.357 349.663C176.474 350.886 176 352.37 176 353.891L178 353.891C178 352.784 178.346 351.711 178.979 350.833L177.357 349.663ZM176 353.891L176 357.067L178 357.067L178 353.891L176 353.891ZM177 358.067L197 358.067L197 356.067L177 356.067L177 358.067ZM198 357.067L198 353.891L196 353.891L196 357.067L198 357.067ZM198 353.891C198 352.37 197.526 350.886 196.643 349.661L195.02 350.831C195.654 351.71 196 352.784 196 353.891L198 353.891ZM193.667 357.8L190.333 357.8L190.333 359.8L193.667 359.8L193.667 357.8ZM189.333 358.8L189.333 364L191.333 364L191.333 358.8L189.333 358.8ZM190.333 365L193.667 365L193.667 363L190.333 363L190.333 365ZM194.667 364L194.667 358.8L192.667 358.8L192.667 364L194.667 364ZM179.333 358.8L179.333 364L181.333 364L181.333 358.8L179.333 358.8ZM180.333 365L183.667 365L183.667 363L180.333 363L180.333 365ZM184.667 364L184.667 358.8L182.667 358.8L182.667 364L184.667 364ZM183.667 357.8L180.333 357.8L180.333 359.8L183.667 359.8L183.667 357.8Z" fill="#272FF5" mask="url(#path-59-outside-1_116_928)"/>
<path d="M187 260L187 344" stroke="#272FF5" stroke-width="2" stroke-linecap="square"/>
<defs>
<clipPath id="clip0_116_928">
<rect width="56.6508" height="56.614" fill="white" transform="translate(245.749 227.369)"/>
</clipPath>
</defs>
</svg>
