<svg width="130" height="62" viewBox="0 0 130 62" fill="none" xmlns="http://www.w3.org/2000/svg">
<path d="M39.9966 40.9277H19.9983V61.3887H39.9966V40.9277Z" fill="#009DDE"/>
<path d="M39.9966 0H19.9983V20.4604H39.9966V0Z" fill="#3B4DF8"/>
<path d="M19.9983 0C8.95553 0 0 9.16249 0 20.4604H19.9983V0Z" fill="#1E87F0"/>
<path d="M60 40.9277C60 29.629 51.0445 20.4658 40.0017 20.4658V40.9277H60Z" fill="#3137F9"/>
<path d="M0 20.4604C0 31.7642 8.95553 40.9219 19.9983 40.9219V20.4604H0Z" fill="#00A8D3"/>
<path d="M19.9983 61.3887C8.95553 61.3887 0 52.2257 0 40.9219H19.9983V61.3887Z" fill="#00B8A7"/>
<path d="M40.0017 0C51.0445 0 60 9.16249 60 20.4604H40.0017V0Z" fill="#5A40FB"/>
<path d="M40.0017 61.3887C51.0445 61.3887 60 52.226 60 40.9277H40.0017V61.3887Z" fill="#365FF7"/>
<path d="M19.9983 20.4604V40.922V30.8069V20.5762H29.9974C35.5188 20.5762 39.9966 25.1577 39.9966 30.8069C39.9966 35.967 36.2591 40.2277 31.4009 40.9272H39.9966V20.4604H19.9983Z" fill="#3B4DF8"/>
<path d="M67.1663 30.4235C66.7962 30.2552 66.5083 30.0185 66.2975 29.7186C66.0867 29.4188 65.9788 29.0664 65.9736 28.6718H66.9607C66.9967 29.0138 67.1304 29.2978 67.372 29.5293C67.6136 29.7607 67.9632 29.8764 68.4259 29.8764C68.868 29.8764 69.2124 29.766 69.4695 29.5398C69.7214 29.3136 69.8499 29.0243 69.8499 28.6718C69.8499 28.393 69.7728 28.1721 69.6289 27.9985C69.4798 27.8249 69.2947 27.6934 69.0685 27.604C68.8474 27.5146 68.5441 27.4146 68.1637 27.3147C67.6959 27.1884 67.3206 27.0675 67.043 26.9412C66.7602 26.815 66.5237 26.6203 66.3232 26.3521C66.1227 26.0838 66.025 25.7261 66.025 25.2737C66.025 24.8792 66.1227 24.5267 66.3181 24.2216C66.5134 23.9165 66.791 23.6798 67.1458 23.5168C67.5005 23.3484 67.9118 23.2695 68.3693 23.2695C69.0325 23.2695 69.5775 23.4379 69.999 23.7798C70.4206 24.1217 70.6622 24.5688 70.7136 25.1317H69.6957C69.6597 24.8529 69.5209 24.6109 69.269 24.4005C69.0171 24.1901 68.6881 24.0849 68.2716 24.0849C67.8861 24.0849 67.5725 24.1901 67.3257 24.39C67.0841 24.5951 66.9607 24.8792 66.9607 25.2474C66.9607 25.5104 67.0327 25.7261 67.1766 25.8944C67.3206 26.0627 67.5005 26.189 67.7164 26.2731C67.9323 26.3626 68.2305 26.4573 68.6161 26.5677C69.0839 26.6992 69.4592 26.8307 69.742 26.957C70.0247 27.0832 70.2715 27.2831 70.472 27.5514C70.6776 27.8197 70.7753 28.1826 70.7753 28.6403C70.7753 28.9927 70.6828 29.3241 70.5028 29.6397C70.3229 29.9553 70.0504 30.2026 69.6906 30.3972C69.3307 30.5918 68.9091 30.6865 68.4207 30.6865C67.958 30.6813 67.5365 30.5971 67.1663 30.4235Z" fill="#3AB5F8"/>
<path d="M73.1504 30.3392C72.7289 30.0972 72.3947 29.75 72.1531 29.3028C71.9115 28.8557 71.7932 28.3401 71.7932 27.751C71.7932 27.167 71.9166 26.6515 72.1634 26.2096C72.4101 25.7624 72.7494 25.4205 73.1761 25.1785C73.6028 24.9365 74.0809 24.8208 74.6104 24.8208C75.14 24.8208 75.6181 24.9418 76.0448 25.1785C76.4715 25.4152 76.8108 25.7572 77.0575 26.2043C77.3043 26.6462 77.4277 27.167 77.4277 27.751C77.4277 28.3401 77.2991 28.8557 77.0472 29.3028C76.7953 29.75 76.4509 30.0972 76.0139 30.3392C75.5821 30.5812 75.0988 30.7021 74.5693 30.7021C74.0501 30.7021 73.5771 30.5812 73.1504 30.3392ZM75.505 29.629C75.798 29.4712 76.0293 29.2292 76.2093 28.9135C76.3892 28.5927 76.4766 28.2086 76.4766 27.751C76.4766 27.2933 76.3892 26.904 76.2144 26.5884C76.0396 26.2675 75.8083 26.0307 75.5255 25.8782C75.2428 25.7204 74.9343 25.6467 74.6002 25.6467C74.2609 25.6467 73.9524 25.7256 73.6697 25.8782C73.3869 26.036 73.1607 26.2727 72.9962 26.5884C72.8265 26.9093 72.7443 27.2933 72.7443 27.751C72.7443 28.2139 72.8265 28.6084 72.9911 28.9241C73.1556 29.245 73.3766 29.4817 73.6542 29.6342C73.9318 29.7921 74.2352 29.8657 74.5693 29.8657C74.9035 29.871 75.2119 29.7921 75.505 29.629Z" fill="#3AB5F8"/>
<path d="M78.6462 26.2045C78.8775 25.7627 79.1963 25.4261 79.6076 25.1789C80.0188 24.9369 80.4867 24.8159 81.0162 24.8159C81.6999 24.8159 82.2654 24.9842 82.7075 25.3261C83.1497 25.668 83.4427 26.1362 83.5866 26.741H82.5893C82.4968 26.3939 82.3117 26.1204 82.0341 25.9205C81.7616 25.7206 81.4172 25.6207 81.011 25.6207C80.4815 25.6207 80.0548 25.8048 79.7309 26.1782C79.4071 26.5517 79.2426 27.0724 79.2426 27.751C79.2426 28.4347 79.4071 28.966 79.7309 29.3395C80.0548 29.7129 80.4815 29.9023 81.011 29.9023C81.4172 29.9023 81.7565 29.8076 82.0289 29.613C82.3014 29.4183 82.4865 29.1396 82.5893 28.7819H83.5866C83.4376 29.3658 83.1394 29.8286 82.6921 30.181C82.2449 30.5335 81.6845 30.707 81.0162 30.707C80.4867 30.707 80.0188 30.5861 79.6076 30.3441C79.1963 30.1021 78.8775 29.7602 78.6462 29.3132C78.4149 28.8713 78.3018 28.3506 78.3018 27.7562C78.3018 27.1566 78.4149 26.6464 78.6462 26.2045Z" fill="#3AB5F8"/>
<path d="M84.8408 23.796C84.7175 23.6697 84.6558 23.5172 84.6558 23.3384C84.6558 23.1595 84.7175 23.007 84.8408 22.8808C84.9642 22.7545 85.1133 22.6914 85.2881 22.6914C85.4577 22.6914 85.6017 22.7545 85.7199 22.8808C85.8382 23.007 85.8999 23.1595 85.8999 23.3384C85.8999 23.5172 85.8382 23.6697 85.7199 23.796C85.6017 23.9222 85.4577 23.9853 85.2881 23.9853C85.1133 23.9853 84.9642 23.9222 84.8408 23.796ZM85.7354 24.911V30.6074H84.81V24.911H85.7354Z" fill="#3AB5F8"/>
<path d="M87.3136 26.2046C87.5449 25.7627 87.8585 25.4261 88.2647 25.1789C88.6657 24.9369 89.1181 24.8159 89.6116 24.8159C90.1 24.8159 90.5215 24.9264 90.8814 25.1368C91.2413 25.3524 91.5086 25.6207 91.6834 25.9468V24.9053H92.619V30.602H91.6834V29.5395C91.4983 29.8708 91.2259 30.1496 90.866 30.3653C90.501 30.5862 90.0794 30.6914 89.6013 30.6914C89.1078 30.6914 88.6605 30.5652 88.2595 30.3179C87.8585 30.0707 87.5449 29.7183 87.3136 29.2659C87.0823 28.8136 86.9692 28.3033 86.9692 27.7247C86.964 27.1566 87.0823 26.6464 87.3136 26.2046ZM91.4263 26.6254C91.2567 26.3045 91.0305 26.0626 90.7426 25.8942C90.4547 25.7259 90.136 25.6417 89.7915 25.6417C89.4471 25.6417 89.1335 25.7259 88.8456 25.889C88.5629 26.0573 88.3315 26.2993 88.167 26.6149C87.9973 26.9357 87.9151 27.3092 87.9151 27.7353C87.9151 28.1718 87.9973 28.5506 88.167 28.8714C88.3366 29.1923 88.5629 29.4395 88.8456 29.6078C89.1284 29.7762 89.4471 29.8603 89.7915 29.8603C90.136 29.8603 90.4547 29.7762 90.7426 29.6078C91.0305 29.4395 91.2567 29.1923 91.4263 28.8714C91.596 28.5506 91.6783 28.1718 91.6783 27.7458C91.6783 27.3197 91.596 26.9462 91.4263 26.6254Z" fill="#3AB5F8"/>
<path d="M95.1024 22.9121V30.6074H94.177V22.9121H95.1024Z" fill="#3AB5F8"/>
<path d="M103.605 23.8012C104.171 24.0958 104.603 24.5165 104.906 25.0636C105.209 25.6106 105.359 26.2575 105.359 26.9992C105.359 27.7408 105.209 28.3825 104.906 28.9295C104.603 29.4766 104.171 29.8921 103.605 30.1761C103.04 30.4654 102.372 30.6074 101.6 30.6074H99.395V23.3594H101.6C102.366 23.3594 103.04 23.5067 103.605 23.8012ZM103.688 29.0821C104.171 28.5876 104.407 27.8934 104.407 26.9992C104.407 26.0997 104.166 25.3949 103.683 24.89C103.199 24.385 102.5 24.1326 101.595 24.1326H100.315V29.829H101.595C102.51 29.829 103.21 29.5818 103.688 29.0821Z" fill="#3AB5F8"/>
<path d="M106.608 23.796C106.484 23.6697 106.423 23.5172 106.423 23.3384C106.423 23.1595 106.484 23.007 106.608 22.8808C106.731 22.7545 106.88 22.6914 107.055 22.6914C107.225 22.6914 107.369 22.7545 107.487 22.8808C107.605 23.007 107.667 23.1595 107.667 23.3384C107.667 23.5172 107.605 23.6697 107.487 23.796C107.369 23.9222 107.225 23.9853 107.055 23.9853C106.875 23.9853 106.726 23.9222 106.608 23.796ZM107.502 24.911V30.6074H106.577V24.911H107.502Z" fill="#3AB5F8"/>
<path d="M112.638 25.1369C112.998 25.3526 113.27 25.6209 113.445 25.947V24.9055H114.381V30.7285C114.381 31.2492 114.273 31.7121 114.057 32.1171C113.841 32.5222 113.533 32.8378 113.126 33.0692C112.725 33.2954 112.253 33.4111 111.718 33.4111C110.988 33.4111 110.376 33.2323 109.888 32.8799C109.399 32.5274 109.111 32.0435 109.024 31.4333H109.939C110.042 31.7805 110.253 32.0593 110.571 32.2697C110.89 32.4801 111.271 32.5853 111.718 32.5853C112.227 32.5853 112.638 32.4222 112.962 32.0961C113.286 31.77 113.445 31.3123 113.445 30.7232V29.5292C113.26 29.8605 112.993 30.1393 112.633 30.3603C112.273 30.5812 111.852 30.6916 111.373 30.6916C110.88 30.6916 110.433 30.5654 110.026 30.3182C109.625 30.0709 109.307 29.7185 109.075 29.2661C108.844 28.8138 108.731 28.3035 108.731 27.7249C108.731 27.1411 108.844 26.6308 109.075 26.189C109.307 25.7471 109.62 25.4105 110.026 25.1632C110.427 24.9213 110.88 24.8003 111.373 24.8003C111.852 24.8161 112.273 24.9265 112.638 25.1369ZM113.188 26.6256C113.019 26.3047 112.792 26.0627 112.504 25.8944C112.217 25.7261 111.898 25.6419 111.553 25.6419C111.209 25.6419 110.895 25.7261 110.607 25.8891C110.325 26.0575 110.098 26.2994 109.929 26.615C109.759 26.9359 109.677 27.3094 109.677 27.7354C109.677 28.172 109.759 28.5508 109.929 28.8716C110.098 29.1925 110.325 29.4397 110.607 29.6081C110.89 29.7764 111.209 29.8605 111.553 29.8605C111.898 29.8605 112.217 29.7764 112.504 29.6081C112.792 29.4397 113.019 29.1925 113.188 28.8716C113.358 28.5508 113.44 28.172 113.44 27.746C113.445 27.3199 113.358 26.9464 113.188 26.6256Z" fill="#3AB5F8"/>
<path d="M115.974 23.796C115.851 23.6697 115.789 23.5172 115.789 23.3384C115.789 23.1595 115.851 23.007 115.974 22.8808C116.098 22.7545 116.247 22.6914 116.422 22.6914C116.591 22.6914 116.735 22.7545 116.853 22.8808C116.972 23.007 117.033 23.1595 117.033 23.3384C117.033 23.5172 116.972 23.6697 116.853 23.796C116.735 23.9222 116.591 23.9853 116.422 23.9853C116.242 23.9853 116.098 23.9222 115.974 23.796ZM116.869 24.911V30.6074H115.944V24.911H116.869Z" fill="#3AB5F8"/>
<path d="M119.568 25.6896V29.0453C119.568 29.324 119.625 29.5187 119.743 29.6344C119.856 29.7501 120.057 29.8079 120.344 29.8079H121.023V30.6074H120.19C119.676 30.6074 119.291 30.4864 119.034 30.2445C118.776 30.0026 118.648 29.6028 118.648 29.0505V25.6948H117.928V24.9164H118.648V23.4805H119.573V24.9164H121.028V25.6948H119.568V25.6896Z" fill="#3AB5F8"/>
<path d="M122.139 26.2046C122.37 25.7627 122.684 25.4261 123.09 25.1789C123.491 24.9369 123.943 24.8159 124.437 24.8159C124.925 24.8159 125.347 24.9264 125.706 25.1368C126.066 25.3524 126.334 25.6207 126.508 25.9468V24.9053H127.444V30.602H126.508V29.5395C126.323 29.8708 126.051 30.1496 125.691 30.3653C125.326 30.5862 124.904 30.6914 124.426 30.6914C123.933 30.6914 123.486 30.5652 123.085 30.3179C122.684 30.0707 122.37 29.7183 122.139 29.2659C121.907 28.8136 121.794 28.3033 121.794 27.7247C121.794 27.1566 121.912 26.6464 122.139 26.2046ZM126.257 26.6254C126.087 26.3045 125.861 26.0626 125.573 25.8942C125.285 25.7259 124.966 25.6417 124.622 25.6417C124.277 25.6417 123.964 25.7259 123.676 25.889C123.393 26.0573 123.167 26.2993 122.997 26.6149C122.828 26.9357 122.745 27.3092 122.745 27.7353C122.745 28.1718 122.828 28.5506 122.997 28.8714C123.167 29.1923 123.393 29.4395 123.676 29.6078C123.959 29.7762 124.277 29.8603 124.622 29.8603C124.966 29.8603 125.285 29.7762 125.573 29.6078C125.861 29.4395 126.087 29.1923 126.257 28.8714C126.426 28.5506 126.508 28.1718 126.508 27.7458C126.508 27.3197 126.426 26.9462 126.257 26.6254Z" fill="#3AB5F8"/>
<path d="M129.932 22.9121V30.6074H129.007V22.9121H129.932Z" fill="#3AB5F8"/>
<path d="M66.2874 36.2511C66.5959 35.6935 67.0123 35.2568 67.5469 34.9412C68.0765 34.6256 68.6677 34.4678 69.3154 34.4678C70.0763 34.4678 70.7395 34.6572 71.3101 35.0306C71.8756 35.4094 72.292 35.9407 72.5542 36.6298H71.4643C71.269 36.1985 70.9914 35.8671 70.6264 35.6356C70.2614 35.4041 69.8244 35.2884 69.3206 35.2884C68.8322 35.2884 68.3952 35.4041 68.0096 35.6356C67.624 35.8671 67.3207 36.1985 67.0997 36.6246C66.8786 37.0507 66.7706 37.5504 66.7706 38.1238C66.7706 38.6919 66.8786 39.1864 67.0997 39.6125C67.3207 40.0386 67.624 40.37 68.0096 40.6015C68.3952 40.8329 68.8322 40.9487 69.3206 40.9487C69.8295 40.9487 70.2614 40.8329 70.6264 40.6067C70.9914 40.3805 71.269 40.0491 71.4643 39.6178H72.5542C72.292 40.3016 71.8808 40.8277 71.3101 41.2012C70.7446 41.5747 70.0763 41.7588 69.3154 41.7588C68.6677 41.7588 68.0765 41.601 67.5469 41.2906C67.0174 40.9802 66.5959 40.5489 66.2874 39.9965C65.9789 39.4442 65.8247 38.8182 65.8247 38.1185C65.8247 37.4347 65.9789 36.8087 66.2874 36.2511Z" fill="#3AB5F8"/>
<path d="M76.0295 41.4426C75.6131 41.2059 75.2841 40.864 75.0476 40.4222C74.8111 39.9804 74.6929 39.4702 74.6929 38.8916C74.6929 38.3183 74.8163 37.808 75.0579 37.3715C75.2995 36.9349 75.6337 36.593 76.0552 36.3563C76.4768 36.1196 76.9446 36.0039 77.469 36.0039C77.9882 36.0039 78.4612 36.1196 78.8827 36.3563C79.3043 36.593 79.6333 36.9296 79.8801 37.3662C80.1217 37.8028 80.2451 38.313 80.2451 38.8916C80.2451 39.4702 80.1217 39.9856 79.8698 40.4222C79.6179 40.864 79.2786 41.2007 78.8519 41.4426C78.4252 41.6793 77.9522 41.8003 77.4279 41.8003C76.9138 41.8003 76.4459 41.6846 76.0295 41.4426ZM78.3481 40.7483C78.636 40.5905 78.8673 40.3538 79.0421 40.0435C79.2169 39.7279 79.3094 39.3439 79.3094 38.8968C79.3094 38.4445 79.222 38.0658 79.0472 37.7502C78.8725 37.4346 78.6463 37.2032 78.3635 37.0454C78.0807 36.8928 77.7774 36.8139 77.4536 36.8139C77.1194 36.8139 76.8161 36.8928 76.5385 37.0454C76.2609 37.1979 76.0398 37.4346 75.8702 37.7502C75.7056 38.0658 75.6182 38.4445 75.6182 38.8968C75.6182 39.3544 75.7005 39.7384 75.865 40.054C76.0295 40.3696 76.2454 40.601 76.5231 40.7536C76.7955 40.9061 77.0988 40.985 77.4227 40.985C77.7517 40.9798 78.0602 40.9009 78.3481 40.7483Z" fill="#3AB5F8"/>
<path d="M90.3162 36.2618C90.6504 36.4407 90.9126 36.7142 91.108 37.0771C91.3033 37.4401 91.3958 37.8819 91.3958 38.3974V41.7061H90.4962V38.5289C90.4962 37.9714 90.3625 37.54 90.09 37.2455C89.8176 36.9456 89.4526 36.7983 88.995 36.7983C88.522 36.7983 88.1416 36.9561 87.864 37.2665C87.5813 37.5768 87.4424 38.0292 87.4424 38.6131V41.7061H86.5428V38.5289C86.5428 37.9714 86.4091 37.54 86.1366 37.2455C85.8642 36.9456 85.4992 36.7983 85.0416 36.7983C84.5686 36.7983 84.1882 36.9561 83.9106 37.2665C83.6279 37.5768 83.489 38.0292 83.489 38.6131V41.7061H82.5791V36.0935H83.489V36.9035C83.669 36.609 83.9106 36.3828 84.2139 36.225C84.5172 36.0672 84.8514 35.9883 85.2216 35.9883C85.6842 35.9883 86.0904 36.0935 86.4451 36.3039C86.7998 36.5143 87.062 36.8246 87.2368 37.2349C87.391 36.8404 87.6429 36.5301 87.9977 36.3144C88.3524 36.0935 88.7431 35.9883 89.1801 35.9883C89.6016 35.9883 89.9821 36.083 90.3162 36.2618Z" fill="#3AB5F8"/>
<path d="M101.755 36.2618C102.089 36.4407 102.351 36.7142 102.547 37.0771C102.742 37.4401 102.835 37.8819 102.835 38.3974V41.7061H101.935V38.5289C101.935 37.9714 101.801 37.54 101.529 37.2455C101.256 36.9456 100.891 36.7983 100.434 36.7983C99.9607 36.7983 99.5803 36.9561 99.3027 37.2665C99.02 37.5768 98.8811 38.0292 98.8811 38.6131V41.7061H97.9815V38.5289C97.9815 37.9714 97.8478 37.54 97.5754 37.2455C97.3029 36.9456 96.9379 36.7983 96.4803 36.7983C96.0074 36.7983 95.6269 36.9561 95.3493 37.2665C95.0666 37.5768 94.9278 38.0292 94.9278 38.6131V41.7061H94.0178V36.0935H94.9278V36.9035C95.1077 36.609 95.3493 36.3828 95.6526 36.225C95.956 36.0672 96.2901 35.9883 96.6603 35.9883C97.123 35.9883 97.5291 36.0935 97.8838 36.3039C98.2385 36.5143 98.5007 36.8246 98.6755 37.2349C98.8297 36.8404 99.0816 36.5301 99.4364 36.3144C99.7911 36.0935 100.182 35.9883 100.619 35.9883C101.04 35.9883 101.421 36.083 101.755 36.2618Z" fill="#3AB5F8"/>
<path d="M110.433 39.2496H106.047C106.078 39.802 106.269 40.2333 106.603 40.5489C106.942 40.8593 107.348 41.0171 107.831 41.0171C108.227 41.0171 108.556 40.9224 108.818 40.7383C109.081 40.5542 109.266 40.2964 109.374 39.9861H110.356C110.206 40.5279 109.913 40.9645 109.476 41.3012C109.034 41.6378 108.489 41.8062 107.831 41.8062C107.312 41.8062 106.844 41.6852 106.433 41.4485C106.022 41.2117 105.698 40.8698 105.467 40.4279C105.23 39.9861 105.117 39.4758 105.117 38.8972C105.117 38.3186 105.23 37.8083 105.456 37.3717C105.682 36.9351 106.001 36.5984 106.412 36.3617C106.824 36.125 107.297 36.0093 107.831 36.0093C108.351 36.0093 108.813 36.125 109.214 36.3565C109.615 36.5879 109.924 36.9088 110.14 37.3138C110.356 37.7189 110.464 38.1818 110.464 38.692C110.464 38.8656 110.453 39.0497 110.433 39.2496ZM109.291 37.5716C109.137 37.3138 108.932 37.1192 108.664 36.9877C108.397 36.8562 108.109 36.7878 107.79 36.7878C107.328 36.7878 106.937 36.9404 106.613 37.2402C106.289 37.54 106.104 37.9556 106.058 38.4921H109.523C109.518 38.1344 109.44 37.8293 109.291 37.5716Z" fill="#3AB5F8"/>
<path d="M114.391 36.2565C114.689 36.0777 115.049 35.9883 115.476 35.9883V36.9509H115.234C114.211 36.9509 113.702 37.519 113.702 38.6499V41.7061H112.792V36.0935H113.702V37.0035C113.867 36.6826 114.098 36.4354 114.391 36.2565Z" fill="#3AB5F8"/>
<path d="M117.661 37.3715C117.887 36.9349 118.206 36.5983 118.607 36.3616C119.013 36.1249 119.476 36.0039 119.995 36.0039C120.668 36.0039 121.224 36.1722 121.661 36.5036C122.098 36.8402 122.386 37.3031 122.529 37.8975H121.548C121.455 37.5556 121.27 37.2873 121.003 37.0874C120.735 36.8876 120.396 36.7929 119.995 36.7929C119.476 36.7929 119.054 36.977 118.73 37.3399C118.412 37.7028 118.247 38.2236 118.247 38.8916C118.247 39.5701 118.406 40.0908 118.73 40.459C119.049 40.8272 119.471 41.0113 119.995 41.0113C120.396 41.0113 120.73 40.9166 120.997 40.7273C121.265 40.5379 121.45 40.2644 121.548 39.9067H122.529C122.38 40.4801 122.087 40.9429 121.65 41.2848C121.208 41.632 120.658 41.8003 120 41.8003C119.481 41.8003 119.018 41.6793 118.612 41.4426C118.206 41.2059 117.892 40.864 117.666 40.4275C117.44 39.9909 117.327 39.4807 117.327 38.8916C117.322 38.313 117.435 37.8028 117.661 37.3715Z" fill="#3AB5F8"/>
<path d="M129.855 39.2496H125.47C125.501 39.802 125.691 40.2333 126.025 40.5489C126.365 40.8593 126.771 41.0171 127.254 41.0171C127.65 41.0171 127.979 40.9224 128.241 40.7383C128.503 40.5489 128.688 40.2964 128.796 39.9861H129.778C129.629 40.5279 129.336 40.9645 128.899 41.3012C128.457 41.6378 127.912 41.8062 127.254 41.8062C126.735 41.8062 126.267 41.6852 125.856 41.4485C125.444 41.2117 125.12 40.8698 124.889 40.4279C124.653 39.9861 124.54 39.4758 124.54 38.8972C124.54 38.3186 124.653 37.8083 124.879 37.3717C125.105 36.9351 125.424 36.5984 125.835 36.3617C126.246 36.125 126.719 36.0093 127.254 36.0093C127.773 36.0093 128.236 36.125 128.637 36.3565C129.038 36.5879 129.346 36.9088 129.562 37.3138C129.778 37.7189 129.886 38.1818 129.886 38.692C129.886 38.8656 129.876 39.0497 129.855 39.2496ZM128.714 37.5716C128.56 37.3138 128.354 37.1192 128.087 36.9877C127.819 36.8562 127.532 36.7878 127.213 36.7878C126.75 36.7878 126.359 36.9404 126.036 37.2402C125.712 37.54 125.527 37.9556 125.48 38.4921H128.945C128.94 38.1344 128.863 37.8293 128.714 37.5716Z" fill="#3AB5F8"/>
</svg>
