<svg width="714" height="605" viewBox="0 0 714 605" fill="none" xmlns="http://www.w3.org/2000/svg">
<path d="M132.5 501.482H84.6241C38.9936 501.482 2 464.488 2 418.858V209.624C2 163.994 38.9936 127 84.6241 127L133.5 127" stroke="#272FF5" stroke-width="3" stroke-miterlimit="10" stroke-linecap="round" stroke-linejoin="round"/>
<path d="M486 501.482H234.5" stroke="#272FF5" stroke-width="3" stroke-miterlimit="10" stroke-linecap="round" stroke-linejoin="round"/>
<path d="M477 127H203" stroke="#272FF5" stroke-width="3" stroke-miterlimit="10" stroke-linecap="round" stroke-linejoin="round"/>
<path d="M556.5 127L629.376 127C675.006 127 712 163.994 712 209.624V418.858C712 464.488 675.006 501.482 629.376 501.482H533" stroke="#272FF5" stroke-width="3" stroke-miterlimit="10" stroke-linecap="round" stroke-linejoin="round"/>
<path d="M307.161 303.932V324H304.522V309.036L297.852 324H295.996L289.297 309.007V324H286.658V303.932H289.5L296.924 320.52L304.348 303.932H307.161ZM310.65 315.996C310.65 314.372 310.979 312.951 311.636 311.733C312.294 310.496 313.193 309.539 314.333 308.862C315.493 308.185 316.779 307.847 318.19 307.847C319.582 307.847 320.791 308.147 321.815 308.746C322.84 309.345 323.604 310.099 324.106 311.008V308.108H326.774V324H324.106V321.042C323.584 321.97 322.801 322.743 321.757 323.362C320.733 323.961 319.534 324.261 318.161 324.261C316.75 324.261 315.474 323.913 314.333 323.217C313.193 322.521 312.294 321.545 311.636 320.288C310.979 319.031 310.65 317.601 310.65 315.996ZM324.106 316.025C324.106 314.826 323.865 313.782 323.381 312.893C322.898 312.004 322.241 311.327 321.409 310.863C320.597 310.38 319.698 310.138 318.712 310.138C317.726 310.138 316.827 310.37 316.015 310.834C315.203 311.298 314.556 311.975 314.072 312.864C313.589 313.753 313.347 314.797 313.347 315.996C313.347 317.214 313.589 318.277 314.072 319.186C314.556 320.075 315.203 320.762 316.015 321.245C316.827 321.709 317.726 321.941 318.712 321.941C319.698 321.941 320.597 321.709 321.409 321.245C322.241 320.762 322.898 320.075 323.381 319.186C323.865 318.277 324.106 317.224 324.106 316.025ZM333.873 310.689C334.337 309.78 334.994 309.075 335.845 308.572C336.715 308.069 337.769 307.818 339.006 307.818V310.544H338.31C335.352 310.544 333.873 312.149 333.873 315.358V324H331.234V308.108H333.873V310.689ZM350.926 324L344.691 316.982V324H342.052V302.54H344.691V315.155L350.81 308.108H354.493L347.011 316.025L354.522 324H350.926ZM371.477 315.445C371.477 315.948 371.448 316.479 371.39 317.04H358.688C358.785 318.606 359.316 319.834 360.283 320.723C361.269 321.593 362.458 322.028 363.85 322.028C364.991 322.028 365.938 321.767 366.692 321.245C367.465 320.704 368.007 319.988 368.316 319.099H371.158C370.733 320.626 369.882 321.873 368.606 322.84C367.33 323.787 365.745 324.261 363.85 324.261C362.342 324.261 360.989 323.923 359.79 323.246C358.611 322.569 357.683 321.612 357.006 320.375C356.329 319.118 355.991 317.668 355.991 316.025C355.991 314.382 356.32 312.941 356.977 311.704C357.634 310.467 358.553 309.519 359.732 308.862C360.931 308.185 362.303 307.847 363.85 307.847C365.358 307.847 366.692 308.176 367.852 308.833C369.012 309.49 369.901 310.399 370.52 311.559C371.158 312.7 371.477 313.995 371.477 315.445ZM368.751 314.894C368.751 313.889 368.529 313.028 368.084 312.313C367.639 311.578 367.03 311.027 366.257 310.66C365.503 310.273 364.662 310.08 363.734 310.08C362.4 310.08 361.259 310.505 360.312 311.356C359.384 312.207 358.852 313.386 358.717 314.894H368.751ZM378.18 310.283V319.65C378.18 320.423 378.344 320.974 378.673 321.303C379.001 321.612 379.572 321.767 380.384 321.767H382.327V324H379.949C378.479 324 377.377 323.662 376.643 322.985C375.908 322.308 375.541 321.197 375.541 319.65V310.283H373.482V308.108H375.541V304.106H378.18V308.108H382.327V310.283H378.18ZM386.887 305.527C386.384 305.527 385.959 305.353 385.611 305.005C385.263 304.657 385.089 304.232 385.089 303.729C385.089 303.226 385.263 302.801 385.611 302.453C385.959 302.105 386.384 301.931 386.887 301.931C387.37 301.931 387.776 302.105 388.105 302.453C388.453 302.801 388.627 303.226 388.627 303.729C388.627 304.232 388.453 304.657 388.105 305.005C387.776 305.353 387.37 305.527 386.887 305.527ZM388.163 308.108V324H385.524V308.108H388.163ZM400.404 307.818C402.337 307.818 403.903 308.408 405.102 309.587C406.3 310.747 406.9 312.429 406.9 314.633V324H404.29V315.01C404.29 313.425 403.893 312.216 403.101 311.385C402.308 310.534 401.225 310.109 399.853 310.109C398.461 310.109 397.349 310.544 396.518 311.414C395.706 312.284 395.3 313.55 395.3 315.213V324H392.661V308.108H395.3V310.37C395.822 309.558 396.527 308.93 397.417 308.485C398.325 308.04 399.321 307.818 400.404 307.818ZM417.765 307.847C419.137 307.847 420.336 308.147 421.361 308.746C422.405 309.345 423.178 310.099 423.681 311.008V308.108H426.349V324.348C426.349 325.798 426.039 327.084 425.421 328.205C424.802 329.346 423.913 330.235 422.753 330.873C421.612 331.511 420.278 331.83 418.751 331.83C416.663 331.83 414.923 331.337 413.531 330.351C412.139 329.365 411.317 328.021 411.066 326.32H413.676C413.966 327.287 414.565 328.06 415.474 328.64C416.382 329.239 417.475 329.539 418.751 329.539C420.201 329.539 421.38 329.085 422.289 328.176C423.217 327.267 423.681 325.991 423.681 324.348V321.013C423.159 321.941 422.385 322.714 421.361 323.333C420.336 323.952 419.137 324.261 417.765 324.261C416.353 324.261 415.068 323.913 413.908 323.217C412.767 322.521 411.868 321.545 411.211 320.288C410.553 319.031 410.225 317.601 410.225 315.996C410.225 314.372 410.553 312.951 411.211 311.733C411.868 310.496 412.767 309.539 413.908 308.862C415.068 308.185 416.353 307.847 417.765 307.847ZM423.681 316.025C423.681 314.826 423.439 313.782 422.956 312.893C422.472 312.004 421.815 311.327 420.984 310.863C420.172 310.38 419.273 310.138 418.287 310.138C417.301 310.138 416.402 310.37 415.59 310.834C414.778 311.298 414.13 311.975 413.647 312.864C413.163 313.753 412.922 314.797 412.922 315.996C412.922 317.214 413.163 318.277 413.647 319.186C414.13 320.075 414.778 320.762 415.59 321.245C416.402 321.709 417.301 321.941 418.287 321.941C419.273 321.941 420.172 321.709 420.984 321.245C421.815 320.762 422.472 320.075 422.956 319.186C423.439 318.277 423.681 317.224 423.681 316.025Z" fill="black"/>
<rect x="141" y="456" width="86" height="60" rx="20" fill="#EDF8FF"/>
<path fill-rule="evenodd" clip-rule="evenodd" d="M236.333 471.446C236.333 470.214 235.338 469.214 234.111 469.214H131.889C130.662 469.214 129.667 470.214 129.667 471.446V533.943C129.667 535.176 130.662 536.176 131.889 536.176H234.111C235.338 536.176 236.333 535.176 236.333 533.943V471.446ZM134.111 473.678V531.711H231.889V473.678H134.111Z" fill="black"/>
<path fill-rule="evenodd" clip-rule="evenodd" d="M236.333 458.054C236.333 456.822 235.338 455.822 234.111 455.822H131.889C130.662 455.822 129.667 456.822 129.667 458.054V471.446C129.667 472.679 130.662 473.678 131.889 473.678H234.111C235.338 473.678 236.333 472.679 236.333 471.446V458.054ZM134.111 460.286V469.214H231.889V460.286H134.111Z" fill="black"/>
<path d="M138.556 466.982C139.783 466.982 140.778 465.983 140.778 464.75C140.778 463.518 139.783 462.518 138.556 462.518C137.328 462.518 136.333 463.518 136.333 464.75C136.333 465.983 137.328 466.982 138.556 466.982Z" fill="black"/>
<path d="M147.444 466.982C148.672 466.982 149.667 465.983 149.667 464.75C149.667 463.518 148.672 462.518 147.444 462.518C146.217 462.518 145.222 463.518 145.222 464.75C145.222 465.983 146.217 466.982 147.444 466.982Z" fill="black"/>
<path d="M156.334 466.982C157.561 466.982 158.556 465.983 158.556 464.75C158.556 463.518 157.561 462.518 156.334 462.518C155.106 462.518 154.111 463.518 154.111 464.75C154.111 465.983 155.106 466.982 156.334 466.982Z" fill="black"/>
<path fill-rule="evenodd" clip-rule="evenodd" d="M209.667 518.319V493.767C209.667 492.535 210.662 491.535 211.889 491.535C213.116 491.535 214.111 492.535 214.111 493.767V520.551C214.111 521.783 213.116 522.783 211.889 522.783H154.111C152.884 522.783 151.889 521.783 151.889 520.551V487.071C151.889 485.839 152.884 484.839 154.111 484.839H205.222C206.449 484.839 207.444 485.839 207.444 487.071C207.444 488.303 206.449 489.303 205.222 489.303H156.333V518.319H209.667Z" fill="black"/>
<path fill-rule="evenodd" clip-rule="evenodd" d="M210.778 480.375C206.484 480.375 203 483.874 203 488.187C203 492.499 206.484 495.999 210.778 495.999C215.071 495.999 218.556 492.499 218.556 488.187C218.556 483.874 215.071 480.375 210.778 480.375ZM210.778 484.839C212.618 484.839 214.111 486.339 214.111 488.187C214.111 490.035 212.618 491.535 210.778 491.535C208.938 491.535 207.444 490.035 207.444 488.187C207.444 486.339 208.938 484.839 210.778 484.839Z" fill="black"/>
<path fill-rule="evenodd" clip-rule="evenodd" d="M165.222 500.463H200.778C202.004 500.463 203 499.463 203 498.231C203 496.999 202.004 495.999 200.778 495.999H165.222C163.996 495.999 163 496.999 163 498.231C163 499.463 163.996 500.463 165.222 500.463Z" fill="black"/>
<path fill-rule="evenodd" clip-rule="evenodd" d="M171.889 511.623H194.111C195.338 511.623 196.333 510.623 196.333 509.391C196.333 508.159 195.338 507.159 194.111 507.159H171.889C170.662 507.159 169.667 508.159 169.667 509.391C169.667 510.623 170.662 511.623 171.889 511.623Z" fill="black"/>
<path d="M144.358 548.666L139.914 564H137.67L134.106 551.658L130.41 564L128.188 564.022L123.898 548.666H126.032L129.376 561.668L133.072 548.666H135.316L138.836 561.624L142.202 548.666H144.358ZM157.548 557.51C157.548 557.891 157.526 558.295 157.482 558.72H147.846C147.92 559.908 148.323 560.839 149.056 561.514C149.804 562.174 150.706 562.504 151.762 562.504C152.628 562.504 153.346 562.306 153.918 561.91C154.505 561.499 154.916 560.957 155.15 560.282H157.306C156.984 561.441 156.338 562.387 155.37 563.12C154.402 563.839 153.2 564.198 151.762 564.198C150.618 564.198 149.592 563.941 148.682 563.428C147.788 562.915 147.084 562.189 146.57 561.25C146.057 560.297 145.8 559.197 145.8 557.95C145.8 556.703 146.05 555.611 146.548 554.672C147.047 553.733 147.744 553.015 148.638 552.516C149.548 552.003 150.589 551.746 151.762 551.746C152.906 551.746 153.918 551.995 154.798 552.494C155.678 552.993 156.353 553.682 156.822 554.562C157.306 555.427 157.548 556.41 157.548 557.51ZM155.48 557.092C155.48 556.329 155.312 555.677 154.974 555.134C154.637 554.577 154.175 554.159 153.588 553.88C153.016 553.587 152.378 553.44 151.674 553.44C150.662 553.44 149.797 553.763 149.078 554.408C148.374 555.053 147.971 555.948 147.868 557.092H155.48ZM162.193 554.188C162.604 553.469 163.205 552.883 163.997 552.428C164.789 551.973 165.691 551.746 166.703 551.746C167.788 551.746 168.764 552.003 169.629 552.516C170.494 553.029 171.176 553.755 171.675 554.694C172.174 555.618 172.423 556.696 172.423 557.928C172.423 559.145 172.174 560.231 171.675 561.184C171.176 562.137 170.487 562.878 169.607 563.406C168.742 563.934 167.774 564.198 166.703 564.198C165.662 564.198 164.745 563.971 163.953 563.516C163.176 563.061 162.589 562.482 162.193 561.778V564H160.191V547.72H162.193V554.188ZM170.377 557.928C170.377 557.019 170.194 556.227 169.827 555.552C169.46 554.877 168.962 554.364 168.331 554.012C167.715 553.66 167.033 553.484 166.285 553.484C165.552 553.484 164.87 553.667 164.239 554.034C163.623 554.386 163.124 554.907 162.743 555.596C162.376 556.271 162.193 557.055 162.193 557.95C162.193 558.859 162.376 559.659 162.743 560.348C163.124 561.023 163.623 561.543 164.239 561.91C164.87 562.262 165.552 562.438 166.285 562.438C167.033 562.438 167.715 562.262 168.331 561.91C168.962 561.543 169.46 561.023 169.827 560.348C170.194 559.659 170.377 558.852 170.377 557.928ZM191.175 553.154C191.175 554.43 190.735 555.493 189.855 556.344C188.99 557.18 187.663 557.598 185.873 557.598H182.925V564H180.923V548.666H185.873C187.604 548.666 188.917 549.084 189.811 549.92C190.721 550.756 191.175 551.834 191.175 553.154ZM185.873 555.948C186.988 555.948 187.809 555.706 188.337 555.222C188.865 554.738 189.129 554.049 189.129 553.154C189.129 551.262 188.044 550.316 185.873 550.316H182.925V555.948H185.873ZM204.356 551.944V564H202.354V562.218C201.972 562.834 201.437 563.318 200.748 563.67C200.073 564.007 199.325 564.176 198.504 564.176C197.565 564.176 196.722 563.985 195.974 563.604C195.226 563.208 194.632 562.621 194.192 561.844C193.766 561.067 193.554 560.121 193.554 559.006V551.944H195.534V558.742C195.534 559.93 195.834 560.847 196.436 561.492C197.037 562.123 197.858 562.438 198.9 562.438C199.97 562.438 200.814 562.108 201.43 561.448C202.046 560.788 202.354 559.827 202.354 558.566V551.944H204.356ZM212.004 564.198C211.08 564.198 210.251 564.044 209.518 563.736C208.785 563.413 208.205 562.973 207.78 562.416C207.355 561.844 207.12 561.191 207.076 560.458H209.144C209.203 561.059 209.481 561.551 209.98 561.932C210.493 562.313 211.161 562.504 211.982 562.504C212.745 562.504 213.346 562.335 213.786 561.998C214.226 561.661 214.446 561.235 214.446 560.722C214.446 560.194 214.211 559.805 213.742 559.556C213.273 559.292 212.547 559.035 211.564 558.786C210.669 558.551 209.936 558.317 209.364 558.082C208.807 557.833 208.323 557.473 207.912 557.004C207.516 556.52 207.318 555.889 207.318 555.112C207.318 554.496 207.501 553.931 207.868 553.418C208.235 552.905 208.755 552.501 209.43 552.208C210.105 551.9 210.875 551.746 211.74 551.746C213.075 551.746 214.153 552.083 214.974 552.758C215.795 553.433 216.235 554.357 216.294 555.53H214.292C214.248 554.899 213.991 554.393 213.522 554.012C213.067 553.631 212.451 553.44 211.674 553.44C210.955 553.44 210.383 553.594 209.958 553.902C209.533 554.21 209.32 554.613 209.32 555.112C209.32 555.508 209.445 555.838 209.694 556.102C209.958 556.351 210.281 556.557 210.662 556.718C211.058 556.865 211.601 557.033 212.29 557.224C213.155 557.459 213.859 557.693 214.402 557.928C214.945 558.148 215.407 558.485 215.788 558.94C216.184 559.395 216.389 559.989 216.404 560.722C216.404 561.382 216.221 561.976 215.854 562.504C215.487 563.032 214.967 563.45 214.292 563.758C213.632 564.051 212.869 564.198 212.004 564.198ZM225.214 551.724C226.123 551.724 226.945 551.922 227.678 552.318C228.411 552.699 228.983 553.279 229.394 554.056C229.819 554.833 230.032 555.779 230.032 556.894V564H228.052V557.18C228.052 555.977 227.751 555.061 227.15 554.43C226.549 553.785 225.727 553.462 224.686 553.462C223.63 553.462 222.787 553.792 222.156 554.452C221.54 555.112 221.232 556.073 221.232 557.334V564H219.23V547.72H221.232V553.66C221.628 553.044 222.171 552.567 222.86 552.23C223.564 551.893 224.349 551.724 225.214 551.724Z" fill="black"/>
<rect x="549" y="434" width="51" height="70" rx="20" transform="rotate(90 549 434)" fill="#EDF8FF"/>
<path d="M497.233 519.02C490.596 519.02 485.103 524.537 485.103 531.204C485.103 537.871 490.596 543.388 497.233 543.388C503.871 543.388 509.364 537.871 509.364 531.204C509.364 524.537 503.871 519.02 497.233 519.02ZM497.233 538.79C493.114 538.79 489.68 535.342 489.68 531.204C489.68 527.066 493.114 523.617 497.233 523.617C501.353 523.617 504.786 527.066 504.786 531.204C504.786 535.342 501.353 538.79 497.233 538.79Z" fill="black"/>
<path d="M543.239 519.02C536.601 519.02 531.108 524.537 531.108 531.204C531.108 537.871 536.601 543.388 543.239 543.388C549.876 543.388 555.369 537.871 555.369 531.204C555.369 524.537 549.876 519.02 543.239 519.02ZM543.239 538.79C539.119 538.79 535.685 535.342 535.685 531.204C535.685 527.066 539.119 523.617 543.239 523.617C547.358 523.617 550.792 527.066 550.792 531.204C550.792 535.342 547.358 538.79 543.239 538.79Z" fill="black"/>
<path d="M557.2 493.961V458.788C557.2 457.639 556.285 456.489 555.14 456.489L472.286 450.512L470.226 441.546C469.31 436.719 464.733 433.04 459.697 433.04H453.289C451.916 433.04 451 433.96 451 435.339C451 436.719 451.916 437.638 453.289 437.638H459.697C462.673 437.638 465.191 439.707 465.877 442.466L479.381 506.146C480.525 511.433 485.103 515.111 490.596 515.111H554.911C556.285 515.111 557.2 514.192 557.2 512.812C557.2 511.433 556.285 510.514 554.911 510.514H490.596C488.307 510.514 486.019 509.364 484.874 507.295L555.369 496.03C556.514 496.03 557.2 495.111 557.2 493.961ZM487.392 502.467L483.501 502.927L480.068 486.605H487.621L487.392 502.467ZM487.392 482.007H478.923L476.863 472.352H487.392V482.007ZM487.392 467.754H475.948L473.201 455.11L487.392 456.029V467.754ZM510.28 498.789L491.969 501.778V486.835H510.28V498.789ZM510.28 482.007H491.969V472.352H510.28V482.007ZM510.28 467.754H491.969V456.489L510.28 457.868V467.754ZM533.397 495.111L515.086 498.099V486.605H533.397V495.111ZM533.397 482.007H515.086V472.352H533.397V482.007ZM533.397 467.754H515.086V458.328L533.397 459.708V467.754ZM552.623 491.892L537.745 494.191V486.375H552.623V491.892ZM552.623 482.007H537.745V472.352H552.623V482.007ZM552.623 467.754H537.745V459.938L552.623 461.087V467.754Z" fill="black"/>
<path d="M494.717 416.488C494.717 404.074 504.787 393.729 517.376 393.729C523.785 393.729 529.735 396.487 534.084 401.085L524.929 404.074C523.785 404.533 523.327 405.683 523.556 406.602C524.013 407.752 525.158 408.212 526.073 407.982L538.433 403.844C539.348 403.614 539.806 402.694 539.806 401.775V389.59C539.806 388.441 538.891 387.521 537.746 387.521C536.602 387.521 535.686 388.441 535.686 389.59V397.177C525.158 386.832 508.221 387.292 498.15 397.867C493.343 402.924 490.597 409.591 490.597 416.488C490.597 417.637 491.512 418.557 492.657 418.557C493.801 418.557 494.717 417.637 494.717 416.488Z" fill="black"/>
<path d="M541.866 414.419C540.721 414.419 539.806 415.338 539.806 416.488C539.806 428.902 529.735 439.247 517.147 439.247C510.738 439.247 504.787 436.488 500.438 431.891L509.593 428.902C510.738 428.442 511.196 427.293 510.967 426.373C510.509 425.224 509.365 424.764 508.449 424.994L496.09 429.132C495.174 429.362 494.716 430.281 494.716 431.201V443.615C494.716 444.765 495.632 445.684 496.776 445.684C497.921 445.684 498.836 444.765 498.836 443.615V436.029C509.365 446.374 526.302 445.914 536.372 435.339C541.179 430.281 543.925 423.614 543.925 416.718C543.925 415.338 543.01 414.419 541.866 414.419Z" fill="black"/>
<path d="M449.093 563L445.441 556.73H443.021V563H441.019V547.666H445.969C447.128 547.666 448.103 547.864 448.895 548.26C449.702 548.656 450.303 549.191 450.699 549.866C451.095 550.541 451.293 551.311 451.293 552.176C451.293 553.232 450.985 554.163 450.369 554.97C449.768 555.777 448.859 556.312 447.641 556.576L451.491 563H449.093ZM443.021 555.124H445.969C447.055 555.124 447.869 554.86 448.411 554.332C448.954 553.789 449.225 553.071 449.225 552.176C449.225 551.267 448.954 550.563 448.411 550.064C447.883 549.565 447.069 549.316 445.969 549.316H443.021V555.124ZM465.404 556.51C465.404 556.891 465.382 557.295 465.338 557.72H455.702C455.775 558.908 456.179 559.839 456.912 560.514C457.66 561.174 458.562 561.504 459.618 561.504C460.483 561.504 461.202 561.306 461.774 560.91C462.361 560.499 462.771 559.957 463.006 559.282H465.162C464.839 560.441 464.194 561.387 463.226 562.12C462.258 562.839 461.055 563.198 459.618 563.198C458.474 563.198 457.447 562.941 456.538 562.428C455.643 561.915 454.939 561.189 454.426 560.25C453.913 559.297 453.656 558.197 453.656 556.95C453.656 555.703 453.905 554.611 454.404 553.672C454.903 552.733 455.599 552.015 456.494 551.516C457.403 551.003 458.445 550.746 459.618 550.746C460.762 550.746 461.774 550.995 462.654 551.494C463.534 551.993 464.209 552.682 464.678 553.562C465.162 554.427 465.404 555.41 465.404 556.51ZM463.336 556.092C463.336 555.329 463.167 554.677 462.83 554.134C462.493 553.577 462.031 553.159 461.444 552.88C460.872 552.587 460.234 552.44 459.53 552.44C458.518 552.44 457.653 552.763 456.934 553.408C456.23 554.053 455.827 554.948 455.724 556.092H463.336ZM467.299 556.95C467.299 555.703 467.548 554.618 468.047 553.694C468.545 552.755 469.235 552.029 470.115 551.516C471.009 551.003 472.029 550.746 473.173 550.746C474.654 550.746 475.871 551.105 476.825 551.824C477.793 552.543 478.431 553.54 478.739 554.816H476.583C476.377 554.083 475.974 553.503 475.373 553.078C474.786 552.653 474.053 552.44 473.173 552.44C472.029 552.44 471.105 552.836 470.401 553.628C469.697 554.405 469.345 555.513 469.345 556.95C469.345 558.402 469.697 559.524 470.401 560.316C471.105 561.108 472.029 561.504 473.173 561.504C474.053 561.504 474.786 561.299 475.373 560.888C475.959 560.477 476.363 559.891 476.583 559.128H478.739C478.416 560.36 477.771 561.35 476.803 562.098C475.835 562.831 474.625 563.198 473.173 563.198C472.029 563.198 471.009 562.941 470.115 562.428C469.235 561.915 468.545 561.189 468.047 560.25C467.548 559.311 467.299 558.211 467.299 556.95ZM492.102 550.944V563H490.1V561.218C489.718 561.834 489.183 562.318 488.494 562.67C487.819 563.007 487.071 563.176 486.25 563.176C485.311 563.176 484.468 562.985 483.72 562.604C482.972 562.208 482.378 561.621 481.938 560.844C481.512 560.067 481.3 559.121 481.3 558.006V550.944H483.28V557.742C483.28 558.93 483.58 559.847 484.182 560.492C484.783 561.123 485.604 561.438 486.646 561.438C487.716 561.438 488.56 561.108 489.176 560.448C489.792 559.788 490.1 558.827 490.1 557.566V550.944H492.102ZM497.484 553.166C497.88 552.477 498.467 551.905 499.244 551.45C500.036 550.981 500.953 550.746 501.994 550.746C503.065 550.746 504.033 551.003 504.898 551.516C505.778 552.029 506.467 552.755 506.966 553.694C507.465 554.618 507.714 555.696 507.714 556.928C507.714 558.145 507.465 559.231 506.966 560.184C506.467 561.137 505.778 561.878 504.898 562.406C504.033 562.934 503.065 563.198 501.994 563.198C500.967 563.198 500.058 562.971 499.266 562.516C498.489 562.047 497.895 561.467 497.484 560.778V568.72H495.482V550.944H497.484V553.166ZM505.668 556.928C505.668 556.019 505.485 555.227 505.118 554.552C504.751 553.877 504.253 553.364 503.622 553.012C503.006 552.66 502.324 552.484 501.576 552.484C500.843 552.484 500.161 552.667 499.53 553.034C498.914 553.386 498.415 553.907 498.034 554.596C497.667 555.271 497.484 556.055 497.484 556.95C497.484 557.859 497.667 558.659 498.034 559.348C498.415 560.023 498.914 560.543 499.53 560.91C500.161 561.262 500.843 561.438 501.576 561.438C502.324 561.438 503.006 561.262 503.622 560.91C504.253 560.543 504.751 560.023 505.118 559.348C505.485 558.659 505.668 557.852 505.668 556.928ZM521.349 556.51C521.349 556.891 521.327 557.295 521.283 557.72H511.647C511.721 558.908 512.124 559.839 512.857 560.514C513.605 561.174 514.507 561.504 515.563 561.504C516.429 561.504 517.147 561.306 517.719 560.91C518.306 560.499 518.717 559.957 518.951 559.282H521.107C520.785 560.441 520.139 561.387 519.171 562.12C518.203 562.839 517.001 563.198 515.563 563.198C514.419 563.198 513.393 562.941 512.483 562.428C511.589 561.915 510.885 561.189 510.371 560.25C509.858 559.297 509.601 558.197 509.601 556.95C509.601 555.703 509.851 554.611 510.349 553.672C510.848 552.733 511.545 552.015 512.439 551.516C513.349 551.003 514.39 550.746 515.563 550.746C516.707 550.746 517.719 550.995 518.599 551.494C519.479 551.993 520.154 552.682 520.623 553.562C521.107 554.427 521.349 555.41 521.349 556.51ZM519.281 556.092C519.281 555.329 519.113 554.677 518.775 554.134C518.438 553.577 517.976 553.159 517.389 552.88C516.817 552.587 516.179 552.44 515.475 552.44C514.463 552.44 513.598 552.763 512.879 553.408C512.175 554.053 511.772 554.948 511.669 556.092H519.281ZM525.994 552.902C526.346 552.213 526.845 551.677 527.49 551.296C528.15 550.915 528.949 550.724 529.888 550.724V552.792H529.36C527.116 552.792 525.994 554.009 525.994 556.444V563H523.992V550.944H525.994V552.902ZM531.451 556.928C531.451 555.696 531.7 554.618 532.199 553.694C532.698 552.755 533.38 552.029 534.245 551.516C535.125 551.003 536.1 550.746 537.171 550.746C538.227 550.746 539.144 550.973 539.921 551.428C540.698 551.883 541.278 552.455 541.659 553.144V550.944H543.683V563H541.659V560.756C541.263 561.46 540.669 562.047 539.877 562.516C539.1 562.971 538.19 563.198 537.149 563.198C536.078 563.198 535.11 562.934 534.245 562.406C533.38 561.878 532.698 561.137 532.199 560.184C531.7 559.231 531.451 558.145 531.451 556.928ZM541.659 556.95C541.659 556.041 541.476 555.249 541.109 554.574C540.742 553.899 540.244 553.386 539.613 553.034C538.997 552.667 538.315 552.484 537.567 552.484C536.819 552.484 536.137 552.66 535.521 553.012C534.905 553.364 534.414 553.877 534.047 554.552C533.68 555.227 533.497 556.019 533.497 556.928C533.497 557.852 533.68 558.659 534.047 559.348C534.414 560.023 534.905 560.543 535.521 560.91C536.137 561.262 536.819 561.438 537.567 561.438C538.315 561.438 538.997 561.262 539.613 560.91C540.244 560.543 540.742 560.023 541.109 559.348C541.476 558.659 541.659 557.859 541.659 556.95ZM552.192 561.504C553.072 561.504 553.805 561.299 554.392 560.888C554.979 560.477 555.382 559.891 555.602 559.128H557.758C557.465 560.272 556.885 561.211 556.02 561.944C555.169 562.663 554.099 563.073 552.808 563.176V564.276C553.673 564.261 554.363 564.445 554.876 564.826C555.389 565.207 555.646 565.75 555.646 566.454C555.646 567.143 555.397 567.693 554.898 568.104C554.399 568.515 553.754 568.72 552.962 568.72H550.432V567.422H552.566C553.05 567.422 553.402 567.349 553.622 567.202C553.857 567.055 553.974 566.806 553.974 566.454C553.974 566.117 553.857 565.875 553.622 565.728C553.402 565.581 553.05 565.508 552.566 565.508H551.466V563.154C550.454 563.051 549.559 562.736 548.782 562.208C548.005 561.665 547.396 560.947 546.956 560.052C546.531 559.143 546.318 558.109 546.318 556.95C546.318 555.703 546.567 554.618 547.066 553.694C547.565 552.755 548.254 552.029 549.134 551.516C550.029 551.003 551.048 550.746 552.192 550.746C553.673 550.746 554.891 551.105 555.844 551.824C556.812 552.543 557.45 553.54 557.758 554.816H555.602C555.397 554.083 554.993 553.503 554.392 553.078C553.805 552.653 553.072 552.44 552.192 552.44C551.048 552.44 550.124 552.836 549.42 553.628C548.716 554.405 548.364 555.513 548.364 556.95C548.364 558.402 548.716 559.524 549.42 560.316C550.124 561.108 551.048 561.504 552.192 561.504ZM559.681 556.928C559.681 555.696 559.931 554.618 560.429 553.694C560.928 552.755 561.61 552.029 562.475 551.516C563.355 551.003 564.331 550.746 565.401 550.746C566.457 550.746 567.374 550.973 568.151 551.428C568.929 551.883 569.508 552.455 569.889 553.144V550.944H571.913V563H569.889V560.756C569.493 561.46 568.899 562.047 568.107 562.516C567.33 562.971 566.421 563.198 565.379 563.198C564.309 563.198 563.341 562.934 562.475 562.406C561.61 561.878 560.928 561.137 560.429 560.184C559.931 559.231 559.681 558.145 559.681 556.928ZM569.889 556.95C569.889 556.041 569.706 555.249 569.339 554.574C568.973 553.899 568.474 553.386 567.843 553.034C567.227 552.667 566.545 552.484 565.797 552.484C565.049 552.484 564.367 552.66 563.751 553.012C563.135 553.364 562.644 553.877 562.277 554.552C561.911 555.227 561.727 556.019 561.727 556.928C561.727 557.852 561.911 558.659 562.277 559.348C562.644 560.023 563.135 560.543 563.751 560.91C564.367 561.262 565.049 561.438 565.797 561.438C566.545 561.438 567.227 561.262 567.843 560.91C568.474 560.543 568.973 560.023 569.339 559.348C569.706 558.659 569.889 557.859 569.889 556.95ZM562.959 549.646C563.062 548.898 563.304 548.326 563.685 547.93C564.081 547.534 564.573 547.336 565.159 547.336C565.438 547.336 565.673 547.387 565.863 547.49C566.069 547.578 566.311 547.71 566.589 547.886C566.795 548.033 566.978 548.15 567.139 548.238C567.301 548.311 567.477 548.348 567.667 548.348C567.917 548.348 568.129 548.267 568.305 548.106C568.481 547.945 568.591 547.71 568.635 547.402H569.779C569.691 548.135 569.449 548.7 569.053 549.096C568.657 549.492 568.166 549.69 567.579 549.69C567.301 549.69 567.051 549.646 566.831 549.558C566.626 549.455 566.391 549.309 566.127 549.118C565.893 548.971 565.702 548.861 565.555 548.788C565.423 548.715 565.262 548.678 565.071 548.678C564.822 548.678 564.609 548.759 564.433 548.92C564.272 549.081 564.169 549.323 564.125 549.646H562.959ZM580.555 563.198C579.425 563.198 578.399 562.941 577.475 562.428C576.565 561.915 575.847 561.189 575.319 560.25C574.805 559.297 574.549 558.197 574.549 556.95C574.549 555.718 574.813 554.633 575.341 553.694C575.883 552.741 576.617 552.015 577.541 551.516C578.465 551.003 579.499 550.746 580.643 550.746C581.787 550.746 582.821 551.003 583.745 551.516C584.669 552.015 585.395 552.733 585.923 553.672C586.465 554.611 586.737 555.703 586.737 556.95C586.737 558.197 586.458 559.297 585.901 560.25C585.358 561.189 584.617 561.915 583.679 562.428C582.74 562.941 581.699 563.198 580.555 563.198ZM580.555 561.438C581.273 561.438 581.948 561.269 582.579 560.932C583.209 560.595 583.715 560.089 584.097 559.414C584.493 558.739 584.691 557.918 584.691 556.95C584.691 555.982 584.5 555.161 584.119 554.486C583.737 553.811 583.239 553.313 582.623 552.99C582.007 552.653 581.339 552.484 580.621 552.484C579.887 552.484 579.213 552.653 578.597 552.99C577.995 553.313 577.511 553.811 577.145 554.486C576.778 555.161 576.595 555.982 576.595 556.95C576.595 557.933 576.771 558.761 577.123 559.436C577.489 560.111 577.973 560.617 578.575 560.954C579.176 561.277 579.836 561.438 580.555 561.438ZM451.121 589.928C451.121 588.696 451.37 587.618 451.869 586.694C452.367 585.755 453.049 585.029 453.915 584.516C454.795 584.003 455.777 583.746 456.863 583.746C457.801 583.746 458.674 583.966 459.481 584.406C460.287 584.831 460.903 585.396 461.329 586.1V579.72H463.353V596H461.329V593.734C460.933 594.453 460.346 595.047 459.569 595.516C458.791 595.971 457.882 596.198 456.841 596.198C455.77 596.198 454.795 595.934 453.915 595.406C453.049 594.878 452.367 594.137 451.869 593.184C451.37 592.231 451.121 591.145 451.121 589.928ZM461.329 589.95C461.329 589.041 461.145 588.249 460.779 587.574C460.412 586.899 459.913 586.386 459.283 586.034C458.667 585.667 457.985 585.484 457.237 585.484C456.489 585.484 455.807 585.66 455.191 586.012C454.575 586.364 454.083 586.877 453.717 587.552C453.35 588.227 453.167 589.019 453.167 589.928C453.167 590.852 453.35 591.659 453.717 592.348C454.083 593.023 454.575 593.543 455.191 593.91C455.807 594.262 456.489 594.438 457.237 594.438C457.985 594.438 458.667 594.262 459.283 593.91C459.913 593.543 460.412 593.023 460.779 592.348C461.145 591.659 461.329 590.859 461.329 589.95ZM477.736 589.51C477.736 589.891 477.714 590.295 477.67 590.72H468.034C468.107 591.908 468.511 592.839 469.244 593.514C469.992 594.174 470.894 594.504 471.95 594.504C472.815 594.504 473.534 594.306 474.106 593.91C474.693 593.499 475.103 592.957 475.338 592.282H477.494C477.171 593.441 476.526 594.387 475.558 595.12C474.59 595.839 473.387 596.198 471.95 596.198C470.806 596.198 469.779 595.941 468.87 595.428C467.975 594.915 467.271 594.189 466.758 593.25C466.245 592.297 465.988 591.197 465.988 589.95C465.988 588.703 466.237 587.611 466.736 586.672C467.235 585.733 467.931 585.015 468.826 584.516C469.735 584.003 470.777 583.746 471.95 583.746C473.094 583.746 474.106 583.995 474.986 584.494C475.866 584.993 476.541 585.682 477.01 586.562C477.494 587.427 477.736 588.41 477.736 589.51ZM475.668 589.092C475.668 588.329 475.499 587.677 475.162 587.134C474.825 586.577 474.363 586.159 473.776 585.88C473.204 585.587 472.566 585.44 471.862 585.44C470.85 585.44 469.985 585.763 469.266 586.408C468.562 587.053 468.159 587.948 468.056 589.092H475.668ZM485.496 589.95C485.496 588.703 485.745 587.618 486.244 586.694C486.742 585.755 487.432 585.029 488.312 584.516C489.206 584.003 490.226 583.746 491.37 583.746C492.851 583.746 494.068 584.105 495.022 584.824C495.99 585.543 496.628 586.54 496.936 587.816H494.78C494.574 587.083 494.171 586.503 493.57 586.078C492.983 585.653 492.25 585.44 491.37 585.44C490.226 585.44 489.302 585.836 488.598 586.628C487.894 587.405 487.542 588.513 487.542 589.95C487.542 591.402 487.894 592.524 488.598 593.316C489.302 594.108 490.226 594.504 491.37 594.504C492.25 594.504 492.983 594.299 493.57 593.888C494.156 593.477 494.56 592.891 494.78 592.128H496.936C496.613 593.36 495.968 594.35 495 595.098C494.032 595.831 492.822 596.198 491.37 596.198C490.226 596.198 489.206 595.941 488.312 595.428C487.432 594.915 486.742 594.189 486.244 593.25C485.745 592.311 485.496 591.211 485.496 589.95ZM498.859 589.928C498.859 588.696 499.108 587.618 499.607 586.694C500.106 585.755 500.788 585.029 501.653 584.516C502.533 584.003 503.508 583.746 504.579 583.746C505.635 583.746 506.552 583.973 507.329 584.428C508.106 584.883 508.686 585.455 509.067 586.144V583.944H511.091V596H509.067V593.756C508.671 594.46 508.077 595.047 507.285 595.516C506.508 595.971 505.598 596.198 504.557 596.198C503.486 596.198 502.518 595.934 501.653 595.406C500.788 594.878 500.106 594.137 499.607 593.184C499.108 592.231 498.859 591.145 498.859 589.928ZM509.067 589.95C509.067 589.041 508.884 588.249 508.517 587.574C508.15 586.899 507.652 586.386 507.021 586.034C506.405 585.667 505.723 585.484 504.975 585.484C504.227 585.484 503.545 585.66 502.929 586.012C502.313 586.364 501.822 586.877 501.455 587.552C501.088 588.227 500.905 589.019 500.905 589.928C500.905 590.852 501.088 591.659 501.455 592.348C501.822 593.023 502.313 593.543 502.929 593.91C503.545 594.262 504.227 594.438 504.975 594.438C505.723 594.438 506.405 594.262 507.021 593.91C507.652 593.543 508.15 593.023 508.517 592.348C508.884 591.659 509.067 590.859 509.067 589.95ZM516.476 585.902C516.828 585.213 517.327 584.677 517.972 584.296C518.632 583.915 519.432 583.724 520.37 583.724V585.792H519.842C517.598 585.792 516.476 587.009 516.476 589.444V596H514.474V583.944H516.476V585.902ZM524.683 585.902C525.035 585.213 525.534 584.677 526.179 584.296C526.839 583.915 527.639 583.724 528.577 583.724V585.792H528.049C525.805 585.792 524.683 587.009 524.683 589.444V596H522.681V583.944H524.683V585.902ZM531.922 581.986C531.541 581.986 531.218 581.854 530.954 581.59C530.69 581.326 530.558 581.003 530.558 580.622C530.558 580.241 530.69 579.918 530.954 579.654C531.218 579.39 531.541 579.258 531.922 579.258C532.289 579.258 532.597 579.39 532.846 579.654C533.11 579.918 533.242 580.241 533.242 580.622C533.242 581.003 533.11 581.326 532.846 581.59C532.597 581.854 532.289 581.986 531.922 581.986ZM532.89 583.944V596H530.888V583.944H532.89ZM542.176 583.724C543.643 583.724 544.831 584.171 545.74 585.066C546.65 585.946 547.104 587.222 547.104 588.894V596H545.124V589.18C545.124 587.977 544.824 587.061 544.222 586.43C543.621 585.785 542.8 585.462 541.758 585.462C540.702 585.462 539.859 585.792 539.228 586.452C538.612 587.112 538.304 588.073 538.304 589.334V596H536.302V583.944H538.304V585.66C538.7 585.044 539.236 584.567 539.91 584.23C540.6 583.893 541.355 583.724 542.176 583.724ZM556.359 583.724C557.268 583.724 558.089 583.922 558.823 584.318C559.556 584.699 560.128 585.279 560.539 586.056C560.964 586.833 561.177 587.779 561.177 588.894V596H559.197V589.18C559.197 587.977 558.896 587.061 558.295 586.43C557.693 585.785 556.872 585.462 555.831 585.462C554.775 585.462 553.931 585.792 553.301 586.452C552.685 587.112 552.377 588.073 552.377 589.334V596H550.375V579.72H552.377V585.66C552.773 585.044 553.315 584.567 554.005 584.23C554.709 583.893 555.493 583.724 556.359 583.724ZM569.705 596.198C568.576 596.198 567.549 595.941 566.625 595.428C565.716 594.915 564.997 594.189 564.469 593.25C563.956 592.297 563.699 591.197 563.699 589.95C563.699 588.718 563.963 587.633 564.491 586.694C565.034 585.741 565.767 585.015 566.691 584.516C567.615 584.003 568.649 583.746 569.793 583.746C570.937 583.746 571.971 584.003 572.895 584.516C573.819 585.015 574.545 585.733 575.073 586.672C575.616 587.611 575.887 588.703 575.887 589.95C575.887 591.197 575.608 592.297 575.051 593.25C574.508 594.189 573.768 594.915 572.829 595.428C571.89 595.941 570.849 596.198 569.705 596.198ZM569.705 594.438C570.424 594.438 571.098 594.269 571.729 593.932C572.36 593.595 572.866 593.089 573.247 592.414C573.643 591.739 573.841 590.918 573.841 589.95C573.841 588.982 573.65 588.161 573.269 587.486C572.888 586.811 572.389 586.313 571.773 585.99C571.157 585.653 570.49 585.484 569.771 585.484C569.038 585.484 568.363 585.653 567.747 585.99C567.146 586.313 566.662 586.811 566.295 587.486C565.928 588.161 565.745 588.982 565.745 589.95C565.745 590.933 565.921 591.761 566.273 592.436C566.64 593.111 567.124 593.617 567.725 593.954C568.326 594.277 568.986 594.438 569.705 594.438Z" fill="black"/>
<rect x="139" y="55" width="58" height="107" rx="20" fill="#EDF8FF"/>
<path d="M135.301 185.166C134.596 186.115 134.864 187.446 135.808 188.14C136.203 188.395 136.64 188.579 137.007 188.579C137.712 188.579 138.346 188.268 138.784 187.701C139.474 186.752 139.291 185.35 138.276 184.713C137.317 184.033 136.006 184.203 135.301 185.166Z" fill="#1A171B"/>
<path d="M136.88 102.316C137.317 102.316 137.769 102.203 138.149 101.877C139.094 101.183 139.291 99.8521 138.586 98.9032C137.881 97.9543 136.57 97.756 135.625 98.3933C134.667 99.144 134.483 100.489 135.174 101.438C135.569 102.005 136.246 102.316 136.88 102.316Z" fill="#1A171B"/>
<path d="M152.489 191.964C151.347 191.581 150.162 192.219 149.838 193.352C149.457 194.428 150.035 195.646 151.177 196.028C151.417 196.085 151.685 196.142 151.868 196.142C152.757 196.142 153.574 195.575 153.899 194.683C154.265 193.536 153.631 192.332 152.489 191.964Z" fill="#1A171B"/>
<path d="M117.042 157.804C115.899 158.116 115.335 159.32 115.716 160.467C115.956 161.359 116.844 161.982 117.732 161.982C117.916 161.982 118.113 161.911 118.367 161.869C119.495 161.472 120.129 160.283 119.749 159.136C119.368 157.988 118.184 157.422 117.042 157.804Z" fill="#1A171B"/>
<path d="M117.239 143.33C117.239 142.127 116.28 141.178 115.096 141.178C113.953 141.178 112.938 142.127 112.938 143.33C113.009 144.534 113.953 145.483 115.081 145.483C116.28 145.497 117.239 144.548 117.239 143.33Z" fill="#1A171B"/>
<path d="M124.063 172.916C123.048 173.624 122.865 174.941 123.555 175.904C123.993 176.47 124.627 176.782 125.262 176.782C125.699 176.782 126.136 176.654 126.517 176.399C127.546 175.691 127.715 174.36 127.038 173.34C126.333 172.406 125.008 172.208 124.063 172.916Z" fill="#1A171B"/>
<path d="M125.135 114.142C125.84 114.142 126.474 113.816 126.911 113.25C127.602 112.301 127.419 110.969 126.404 110.276C125.445 109.567 124.119 109.766 123.429 110.715C122.738 111.663 122.991 113.009 123.936 113.759C124.317 114.014 124.754 114.142 125.135 114.142Z" fill="#1A171B"/>
<path d="M116.971 128.913C117.224 128.984 117.408 128.984 117.676 128.984C118.55 128.984 119.382 128.418 119.692 127.525C120.073 126.378 119.452 125.174 118.31 124.792C117.168 124.41 115.97 125.047 115.659 126.18C115.265 127.327 115.899 128.545 116.971 128.913Z" fill="#1A171B"/>
<path d="M209.439 173.284C208.734 174.247 208.931 175.635 209.946 176.272C210.327 176.583 210.764 176.711 211.201 176.711C211.836 176.711 212.47 176.399 212.907 175.833C213.612 174.884 213.344 173.539 212.4 172.845C211.455 172.151 210.129 172.335 209.439 173.284Z" fill="#1A171B"/>
<path d="M211.018 113.873C211.455 113.873 211.892 113.745 212.343 113.434C213.231 112.726 213.485 111.409 212.794 110.446C212.089 109.497 210.764 109.313 209.819 110.006C208.804 110.715 208.621 112.046 209.312 112.995C209.749 113.561 210.383 113.873 211.018 113.873Z" fill="#1A171B"/>
<path d="M168.224 194.428C167.026 194.428 166.138 195.391 166.138 196.581C166.138 197.728 167.012 198.691 168.224 198.691C169.423 198.691 170.368 197.728 170.368 196.581C170.382 195.391 169.437 194.428 168.224 194.428Z" fill="#1A171B"/>
<path d="M221.325 140.852C220.127 140.852 219.182 141.872 219.182 143.005V143.203C219.182 144.407 220.127 145.356 221.325 145.356C222.509 145.356 223.412 144.407 223.412 143.203V143.132C223.412 143.061 223.412 143.061 223.412 143.061C223.412 141.815 222.467 140.852 221.325 140.852Z" fill="#1A171B"/>
<path d="M219.351 157.677C218.279 157.294 217.024 157.932 216.7 159.079C216.319 160.155 216.954 161.373 218.096 161.741C218.279 161.812 218.477 161.869 218.73 161.869C219.605 161.869 220.422 161.302 220.747 160.339C221.127 159.192 220.493 158.059 219.351 157.677Z" fill="#1A171B"/>
<path d="M218.674 128.743C218.857 128.743 219.111 128.672 219.294 128.616C220.437 128.233 221.071 127.03 220.69 125.882C220.31 124.735 219.111 124.169 217.969 124.537C216.897 124.933 216.263 126.137 216.63 127.214C216.897 128.106 217.772 128.743 218.674 128.743Z" fill="#1A171B"/>
<path d="M183.974 191.893C182.903 192.275 182.268 193.479 182.592 194.626C182.903 195.504 183.72 196.085 184.679 196.085C184.862 196.085 185.116 196.085 185.314 196.029C186.442 195.632 187.076 194.428 186.695 193.295C186.315 192.148 185.102 191.581 183.974 191.893Z" fill="#1A171B"/>
<path d="M198.187 184.67C197.228 185.364 196.988 186.695 197.736 187.644C198.13 188.211 198.807 188.522 199.442 188.522C199.879 188.522 200.274 188.409 200.711 188.083C201.655 187.375 201.853 186.058 201.148 185.109C200.457 184.146 199.131 183.962 198.187 184.67Z" fill="#1A171B"/>
<path d="M199.273 102.132C199.964 102.132 200.598 101.807 201.035 101.24C201.67 100.291 201.486 98.96 200.528 98.1952C200.528 98.266 200.528 98.266 200.528 98.266C199.583 97.5579 198.243 97.7562 197.567 98.705C196.862 99.6539 197.059 100.999 198.004 101.764C198.37 102.005 198.822 102.132 199.273 102.132Z" fill="#1A171B"/>
<path d="M189.276 115.785C194.013 73.1843 170.579 58.0873 169.31 57.3225C169.183 57.2517 169.071 57.2517 168.93 57.1951C168.803 57.1951 168.732 57.1243 168.605 57.0676C168.492 57.0676 168.366 57.0676 168.225 57.0676C168.027 57.0676 167.914 57.0676 167.787 57.0676C167.661 57.1384 167.59 57.1384 167.534 57.1951C167.35 57.2659 167.223 57.2659 167.026 57.3225C165.842 58.0732 142.379 73.1843 147.117 115.785C125.262 133.813 132.777 157.563 132.904 157.804C133.087 158.512 133.722 159.079 134.483 159.192C134.596 159.192 134.723 159.263 134.864 159.263C135.498 159.263 136.133 158.951 136.514 158.512C142.14 151.714 149.711 150.511 153.899 150.454L149.979 158.187C149.669 158.895 149.725 159.659 150.106 160.297C150.487 160.92 151.178 161.316 151.925 161.316H184.482C185.243 161.316 185.934 160.92 186.315 160.297C186.696 159.659 186.752 158.895 186.385 158.187L182.522 150.454C186.696 150.525 194.211 151.714 199.893 158.512C200.288 158.951 200.922 159.263 201.486 159.263C201.67 159.263 201.797 159.192 201.924 159.192C202.671 159.079 203.305 158.498 203.573 157.804C203.63 157.563 211.145 133.813 189.276 115.785ZM177.657 146.248H168.168H158.82C154.773 134.946 152.559 124.99 151.488 116.224C151.488 116.153 151.488 116.153 151.488 116.153C149.838 102.444 151.248 91.8361 153.828 83.7211H182.592C185.187 91.8503 186.498 102.444 184.919 116.096C184.919 116.096 184.919 116.167 184.919 116.224C183.833 124.99 181.62 134.946 177.657 146.248ZM168.168 61.7554C170.706 63.6673 176.769 69.0631 180.999 79.4158H155.408C159.638 69.0631 165.701 63.6673 168.168 61.7554ZM136.133 152.791C135.118 146.375 134.991 132.737 147.822 120.869C148.964 128.488 151.107 136.872 154.266 146.134C149.965 146.191 142.506 147.14 136.133 152.791ZM155.337 157.039L158.622 150.567H168.168H177.77L180.999 157.039H155.337ZM200.274 152.791C193.887 147.154 186.428 146.205 182.198 146.134C185.356 136.872 187.386 128.474 188.585 120.869C201.416 132.723 201.289 146.375 200.274 152.791Z" fill="#1A171B"/>
<path d="M168.168 94.5271C162.866 94.5271 158.566 98.8466 158.566 104.172C158.566 109.497 162.866 113.816 168.168 113.816C173.47 113.816 177.77 109.497 177.77 104.172C177.77 98.8466 173.47 94.5271 168.168 94.5271ZM168.168 109.567C165.263 109.567 162.866 107.16 162.866 104.172C162.866 101.198 165.278 98.7758 168.168 98.7758C171.143 98.7758 173.54 101.198 173.54 104.172C173.54 107.16 171.143 109.567 168.168 109.567Z" fill="#1A171B"/>
<path d="M168.168 185.223C169.366 185.223 170.311 184.274 170.311 183.07V171.074C170.311 169.927 169.366 168.964 168.168 168.964C167.026 168.964 166.081 169.927 166.081 171.074V183.056C166.081 184.274 167.026 185.223 168.168 185.223Z" fill="#1A171B"/>
<path d="M178.912 172.731C177.728 172.731 176.769 173.68 176.769 174.884V186.865C176.769 188.069 177.728 189.018 178.912 189.018C180.054 189.018 180.999 188.069 180.999 186.865V174.884C180.999 173.68 180.054 172.731 178.912 172.731Z" fill="#1A171B"/>
<path d="M157.495 165.168C156.352 165.168 155.408 166.132 155.408 167.321V179.317C155.408 180.464 156.352 181.413 157.495 181.413C158.693 181.413 159.638 180.464 159.638 179.317V167.321C159.638 166.132 158.693 165.168 157.495 165.168Z" fill="#1A171B"/>
<path d="M122.122 13.154C122.122 14.43 121.682 15.4933 120.802 16.344C119.936 17.18 118.609 17.598 116.82 17.598H113.872V24H111.87V8.666H116.82C118.55 8.666 119.863 9.084 120.758 9.92C121.667 10.756 122.122 11.834 122.122 13.154ZM116.82 15.948C117.934 15.948 118.756 15.706 119.284 15.222C119.812 14.738 120.076 14.0487 120.076 13.154C120.076 11.262 118.99 10.316 116.82 10.316H113.872V15.948H116.82ZM135.61 17.51C135.61 17.8913 135.588 18.2947 135.544 18.72H125.908C125.981 19.908 126.385 20.8393 127.118 21.514C127.866 22.174 128.768 22.504 129.824 22.504C130.689 22.504 131.408 22.306 131.98 21.91C132.567 21.4993 132.977 20.9567 133.212 20.282H135.368C135.045 21.4407 134.4 22.3867 133.432 23.12C132.464 23.8387 131.261 24.198 129.824 24.198C128.68 24.198 127.653 23.9413 126.744 23.428C125.849 22.9147 125.145 22.1887 124.632 21.25C124.119 20.2967 123.862 19.1967 123.862 17.95C123.862 16.7033 124.111 15.6107 124.61 14.672C125.109 13.7333 125.805 13.0147 126.7 12.516C127.609 12.0027 128.651 11.746 129.824 11.746C130.968 11.746 131.98 11.9953 132.86 12.494C133.74 12.9927 134.415 13.682 134.884 14.562C135.368 15.4273 135.61 16.41 135.61 17.51ZM133.542 17.092C133.542 16.3293 133.373 15.6767 133.036 15.134C132.699 14.5767 132.237 14.1587 131.65 13.88C131.078 13.5867 130.44 13.44 129.736 13.44C128.724 13.44 127.859 13.7627 127.14 14.408C126.436 15.0533 126.033 15.948 125.93 17.092H133.542ZM140.255 13.902C140.607 13.2127 141.105 12.6773 141.751 12.296C142.411 11.9147 143.21 11.724 144.149 11.724V13.792H143.621C141.377 13.792 140.255 15.0093 140.255 17.444V24H138.253V11.944H140.255V13.902ZM151.366 13.594H148.836V24H146.834V13.594H145.272V11.944H146.834V11.086C146.834 9.73667 147.178 8.754 147.868 8.138C148.572 7.50733 149.694 7.192 151.234 7.192V8.864C150.354 8.864 149.73 9.04 149.364 9.392C149.012 9.72933 148.836 10.294 148.836 11.086V11.944H151.366V13.594ZM158.958 24.198C157.829 24.198 156.802 23.9413 155.878 23.428C154.969 22.9147 154.25 22.1887 153.722 21.25C153.209 20.2967 152.952 19.1967 152.952 17.95C152.952 16.718 153.216 15.6327 153.744 14.694C154.287 13.7407 155.02 13.0147 155.944 12.516C156.868 12.0027 157.902 11.746 159.046 11.746C160.19 11.746 161.224 12.0027 162.148 12.516C163.072 13.0147 163.798 13.7333 164.326 14.672C164.869 15.6107 165.14 16.7033 165.14 17.95C165.14 19.1967 164.861 20.2967 164.304 21.25C163.761 22.1887 163.021 22.9147 162.082 23.428C161.143 23.9413 160.102 24.198 158.958 24.198ZM158.958 22.438C159.677 22.438 160.351 22.2693 160.982 21.932C161.613 21.5947 162.119 21.0887 162.5 20.414C162.896 19.7393 163.094 18.918 163.094 17.95C163.094 16.982 162.903 16.1607 162.522 15.486C162.141 14.8113 161.642 14.3127 161.026 13.99C160.41 13.6527 159.743 13.484 159.024 13.484C158.291 13.484 157.616 13.6527 157 13.99C156.399 14.3127 155.915 14.8113 155.548 15.486C155.181 16.1607 154.998 16.982 154.998 17.95C154.998 18.9327 155.174 19.7613 155.526 20.436C155.893 21.1107 156.377 21.6167 156.978 21.954C157.579 22.2767 158.239 22.438 158.958 22.438ZM169.774 13.902C170.126 13.2127 170.625 12.6773 171.27 12.296C171.93 11.9147 172.729 11.724 173.668 11.724V13.792H173.14C170.896 13.792 169.774 15.0093 169.774 17.444V24H167.772V11.944H169.774V13.902ZM190.477 11.724C191.416 11.724 192.252 11.922 192.985 12.318C193.718 12.6993 194.298 13.2787 194.723 14.056C195.148 14.8333 195.361 15.7793 195.361 16.894V24H193.381V17.18C193.381 15.9773 193.08 15.0607 192.479 14.43C191.892 13.7847 191.093 13.462 190.081 13.462C189.04 13.462 188.211 13.7993 187.595 14.474C186.979 15.134 186.671 16.0947 186.671 17.356V24H184.691V17.18C184.691 15.9773 184.39 15.0607 183.789 14.43C183.202 13.7847 182.403 13.462 181.391 13.462C180.35 13.462 179.521 13.7993 178.905 14.474C178.289 15.134 177.981 16.0947 177.981 17.356V24H175.979V11.944H177.981V13.682C178.377 13.0513 178.905 12.5673 179.565 12.23C180.24 11.8927 180.98 11.724 181.787 11.724C182.799 11.724 183.694 11.9513 184.471 12.406C185.248 12.8607 185.828 13.528 186.209 14.408C186.546 13.5573 187.104 12.8973 187.881 12.428C188.658 11.9587 189.524 11.724 190.477 11.724ZM197.897 17.928C197.897 16.696 198.147 15.618 198.645 14.694C199.144 13.7553 199.826 13.0293 200.691 12.516C201.571 12.0027 202.547 11.746 203.617 11.746C204.673 11.746 205.59 11.9733 206.367 12.428C207.145 12.8827 207.724 13.4547 208.105 14.144V11.944H210.129V24H208.105V21.756C207.709 22.46 207.115 23.0467 206.323 23.516C205.546 23.9707 204.637 24.198 203.595 24.198C202.525 24.198 201.557 23.934 200.691 23.406C199.826 22.878 199.144 22.1373 198.645 21.184C198.147 20.2307 197.897 19.1453 197.897 17.928ZM208.105 17.95C208.105 17.0407 207.922 16.2487 207.555 15.574C207.189 14.8993 206.69 14.386 206.059 14.034C205.443 13.6673 204.761 13.484 204.013 13.484C203.265 13.484 202.583 13.66 201.967 14.012C201.351 14.364 200.86 14.8773 200.493 15.552C200.127 16.2267 199.943 17.0187 199.943 17.928C199.943 18.852 200.127 19.6587 200.493 20.348C200.86 21.0227 201.351 21.5433 201.967 21.91C202.583 22.262 203.265 22.438 204.013 22.438C204.761 22.438 205.443 22.262 206.059 21.91C206.69 21.5433 207.189 21.0227 207.555 20.348C207.922 19.6587 208.105 18.8593 208.105 17.95ZM212.764 17.95C212.764 16.7033 213.014 15.618 213.512 14.694C214.011 13.7553 214.7 13.0293 215.58 12.516C216.475 12.0027 217.494 11.746 218.638 11.746C220.12 11.746 221.337 12.1053 222.29 12.824C223.258 13.5427 223.896 14.54 224.204 15.816H222.048C221.843 15.0827 221.44 14.5033 220.838 14.078C220.252 13.6527 219.518 13.44 218.638 13.44C217.494 13.44 216.57 13.836 215.866 14.628C215.162 15.4053 214.81 16.5127 214.81 17.95C214.81 19.402 215.162 20.524 215.866 21.316C216.57 22.108 217.494 22.504 218.638 22.504C219.518 22.504 220.252 22.2987 220.838 21.888C221.425 21.4773 221.828 20.8907 222.048 20.128H224.204C223.882 21.36 223.236 22.35 222.268 23.098C221.3 23.8313 220.09 24.198 218.638 24.198C217.494 24.198 216.475 23.9413 215.58 23.428C214.7 22.9147 214.011 22.1887 213.512 21.25C213.014 20.3113 212.764 19.2113 212.764 17.95ZM237.876 17.51C237.876 17.8913 237.854 18.2947 237.81 18.72H228.174C228.247 19.908 228.65 20.8393 229.384 21.514C230.132 22.174 231.034 22.504 232.09 22.504C232.955 22.504 233.674 22.306 234.246 21.91C234.832 21.4993 235.243 20.9567 235.478 20.282H237.634C237.311 21.4407 236.666 22.3867 235.698 23.12C234.73 23.8387 233.527 24.198 232.09 24.198C230.946 24.198 229.919 23.9413 229.01 23.428C228.115 22.9147 227.411 22.1887 226.898 21.25C226.384 20.2967 226.128 19.1967 226.128 17.95C226.128 16.7033 226.377 15.6107 226.876 14.672C227.374 13.7333 228.071 13.0147 228.966 12.516C229.875 12.0027 230.916 11.746 232.09 11.746C233.234 11.746 234.246 11.9953 235.126 12.494C236.006 12.9927 236.68 13.682 237.15 14.562C237.634 15.4273 237.876 16.41 237.876 17.51ZM235.808 17.092C235.808 16.3293 235.639 15.6767 235.302 15.134C234.964 14.5767 234.502 14.1587 233.916 13.88C233.344 13.5867 232.706 13.44 232.002 13.44C230.99 13.44 230.124 13.7627 229.406 14.408C228.702 15.0533 228.298 15.948 228.196 17.092H235.808Z" fill="black"/>
<rect x="548" y="81" width="67" height="64" rx="20" transform="rotate(90 548 81)" fill="#EDF8FF"/>
<path d="M478.255 93.8753L486.262 85.2264C487.415 83.9492 488.055 82.2787 488.055 80.5452C488.055 78.8117 487.415 77.1413 486.262 75.8641C485.679 75.2531 484.981 74.7673 484.209 74.4355C483.438 74.1037 482.609 73.9328 481.772 73.9328C480.934 73.9328 480.105 74.1037 479.334 74.4355C478.562 74.7673 477.865 75.2531 477.282 75.8641L476.9 76.2804L476.513 75.8641C475.94 75.235 475.246 74.7329 474.473 74.3894C473.701 74.0459 472.867 73.8683 472.024 73.8679V73.8679C471.18 73.8683 470.346 74.0458 469.573 74.3893C468.8 74.7328 468.105 75.2349 467.533 75.8641C466.379 77.1413 465.739 78.8117 465.739 80.5452C465.739 82.2787 466.379 83.9492 467.533 85.2264L475.539 93.8753C475.713 94.0631 475.923 94.2128 476.156 94.3151C476.389 94.4174 476.64 94.4702 476.894 94.4702C477.148 94.4702 477.399 94.4174 477.633 94.3151C477.866 94.2128 478.076 94.0631 478.25 93.8753H478.255ZM470.249 82.6323C469.744 82.0584 469.464 81.3153 469.464 80.5452C469.464 79.7751 469.744 79.0321 470.249 78.4582C470.475 78.2065 470.75 78.0049 471.056 77.8662C471.363 77.7275 471.694 77.6546 472.029 77.6522C472.364 77.6541 472.695 77.7267 473.001 77.8655C473.308 78.0043 473.582 78.2061 473.807 78.4582L475.55 80.339C475.91 80.7037 476.397 80.9084 476.905 80.9084C477.414 80.9084 477.901 80.7037 478.261 80.339L480.004 78.4582C480.232 78.212 480.508 78.0159 480.814 77.8819C481.12 77.7478 481.45 77.6787 481.783 77.6787C482.116 77.6787 482.446 77.7478 482.751 77.8819C483.057 78.0159 483.333 78.212 483.562 78.4582C484.067 79.0321 484.347 79.7751 484.347 80.5452C484.347 81.3153 484.067 82.0584 483.562 82.6323L476.9 89.8167L470.249 82.6323Z" fill="black"/>
<path d="M553.425 151.908L550.982 156.939L545.517 157.747C545.173 157.798 544.85 157.945 544.585 158.173C544.319 158.4 544.121 158.699 544.014 159.035C543.907 159.371 543.894 159.73 543.977 160.073C544.061 160.416 544.237 160.728 544.486 160.975L548.439 164.891L547.508 170.42C547.448 170.768 547.486 171.126 547.617 171.454C547.748 171.781 547.966 172.065 548.247 172.272C548.529 172.48 548.861 172.604 549.208 172.629C549.555 172.655 549.902 172.581 550.209 172.416L555.1 169.809L559.988 172.42C560.255 172.562 560.552 172.636 560.854 172.636C561.125 172.636 561.393 172.576 561.639 172.46C561.885 172.344 562.103 172.174 562.278 171.964C562.453 171.753 562.58 171.506 562.651 171.24C562.722 170.974 562.735 170.696 562.69 170.424L561.759 164.895L565.712 160.979C565.96 160.732 566.137 160.42 566.22 160.077C566.303 159.734 566.291 159.375 566.183 159.039C566.076 158.703 565.878 158.404 565.613 158.177C565.347 157.949 565.024 157.801 564.68 157.751L559.215 156.943L556.776 151.908C556.605 151.61 556.361 151.363 556.067 151.192C555.773 151.02 555.44 150.93 555.1 150.93C554.761 150.93 554.428 151.02 554.134 151.192C553.84 151.363 553.596 151.61 553.425 151.908V151.908ZM557.707 160.541L560.407 160.941L558.452 162.882C558.236 163.096 558.074 163.36 557.98 163.652C557.887 163.944 557.865 164.254 557.916 164.557L558.377 167.289L555.957 166C555.69 165.858 555.393 165.783 555.091 165.783C554.79 165.783 554.492 165.858 554.225 166L551.805 167.289L552.267 164.557C552.32 164.256 552.301 163.946 552.21 163.655C552.12 163.363 551.962 163.098 551.749 162.882L549.796 160.948L552.496 160.549C552.794 160.505 553.078 160.388 553.322 160.207C553.567 160.027 553.764 159.789 553.898 159.514L555.1 157.016L556.307 159.503C556.439 159.779 556.636 160.018 556.88 160.2C557.124 160.382 557.408 160.5 557.707 160.545V160.541Z" fill="black"/>
<path d="M551.377 74.708H547.653V78.4922H551.377V74.708Z" fill="black"/>
<path d="M562.548 74.708H558.824V78.4922H562.548V74.708Z" fill="black"/>
<path d="M555.1 89.8453C553.619 89.8453 552.198 89.2472 551.151 88.1826C550.103 87.1181 549.515 85.6742 549.515 84.1687H545.791C545.791 86.6779 546.772 89.0843 548.517 90.8586C550.263 92.6329 552.631 93.6296 555.1 93.6296C557.569 93.6296 559.937 92.6329 561.683 90.8586C563.429 89.0843 564.41 86.6779 564.41 84.1687H560.686C560.686 85.6742 560.098 87.1181 559.05 88.1826C558.003 89.2472 556.582 89.8453 555.1 89.8453V89.8453Z" fill="black"/>
<path d="M573.72 83.2227C573.715 78.3713 571.878 73.7067 568.586 70.1929C565.295 66.679 560.801 64.5842 556.033 64.3413C551.265 64.0984 546.587 65.726 542.966 68.8877C539.345 72.0495 537.058 76.5038 536.576 81.3306H495.428C495.076 77.7675 493.736 74.3791 491.564 71.5591C489.392 68.7391 486.477 66.6034 483.158 65.4001C479.84 64.1967 476.253 63.9752 472.815 64.7613C469.377 65.5473 466.229 67.3086 463.737 69.8406C461.245 72.3725 459.512 75.5711 458.738 79.0646C457.963 82.5581 458.181 86.2032 459.364 89.5762C460.548 92.9492 462.649 95.9117 465.423 98.1193C468.198 100.327 471.532 101.689 475.038 102.048V143.864C471.532 144.222 468.198 145.583 465.423 147.791C462.648 149.998 460.546 152.96 459.362 156.333C458.178 159.705 457.96 163.35 458.733 166.844C459.507 170.338 461.24 173.537 463.732 176.069C466.223 178.601 469.37 180.363 472.808 181.15C476.246 181.937 479.833 181.716 483.152 180.513C486.471 179.31 489.386 177.175 491.559 174.356C493.731 171.536 495.071 168.148 495.424 164.585H536.572C536.925 168.148 538.264 171.536 540.436 174.356C542.608 177.176 545.523 179.312 548.842 180.515C552.161 181.719 555.747 181.94 559.185 181.154C562.623 180.368 565.771 178.607 568.263 176.075C570.755 173.543 572.489 170.344 573.263 166.851C574.037 163.357 573.82 159.712 572.636 156.339C571.453 152.966 569.351 150.004 566.577 147.796C563.802 145.589 560.468 144.226 556.962 143.868V102.051C561.553 101.577 565.808 99.3892 568.903 95.9112C571.999 92.4332 573.715 87.9122 573.72 83.2227V83.2227ZM462.005 83.2227C462.005 80.2289 462.878 77.3023 464.515 74.813C466.152 72.3237 468.478 70.3835 471.2 69.2378C473.921 68.0921 476.916 67.7923 479.806 68.3764C482.695 68.9605 485.349 70.4022 487.432 72.5191C489.516 74.6361 490.934 77.3333 491.509 80.2696C492.084 83.2059 491.789 86.2495 490.661 89.0155C489.534 91.7814 487.625 94.1455 485.175 95.8088C482.726 97.4721 479.846 98.3599 476.9 98.3599C472.951 98.3554 469.165 96.7591 466.372 93.9213C463.58 91.0835 462.009 87.236 462.005 83.2227V83.2227ZM476.9 177.83C473.954 177.83 471.074 176.942 468.624 175.279C466.175 173.616 464.266 171.252 463.138 168.486C462.011 165.72 461.716 162.676 462.291 159.74C462.866 156.803 464.284 154.106 466.367 151.989C468.45 149.872 471.105 148.431 473.994 147.847C476.883 147.262 479.878 147.562 482.6 148.708C485.322 149.854 487.648 151.794 489.285 154.283C490.922 156.772 491.795 159.699 491.795 162.693C491.791 166.706 490.22 170.554 487.428 173.391C484.635 176.229 480.849 177.825 476.9 177.83V177.83ZM495.424 160.801C494.989 156.46 493.094 152.406 490.058 149.321C487.023 146.236 483.033 144.31 478.762 143.868V102.051C483.033 101.609 487.024 99.6828 490.059 96.5972C493.095 93.5115 494.99 89.4558 495.424 85.1149H536.572C537.007 89.4557 538.903 93.511 541.94 96.596C544.976 99.6809 548.967 101.607 553.238 102.048V143.864C548.967 144.306 544.976 146.233 541.941 149.318C538.905 152.404 537.01 156.46 536.576 160.801H495.424ZM569.996 162.693C569.996 165.687 569.122 168.613 567.485 171.103C565.849 173.592 563.522 175.532 560.801 176.678C558.079 177.823 555.084 178.123 552.194 177.539C549.305 176.955 546.651 175.513 544.568 173.396C542.485 171.279 541.066 168.582 540.491 165.646C539.917 162.71 540.211 159.666 541.339 156.9C542.466 154.134 544.375 151.77 546.825 150.107C549.275 148.443 552.154 147.556 555.1 147.556C559.05 147.56 562.836 149.156 565.628 151.994C568.421 154.832 569.991 158.68 569.996 162.693ZM555.1 98.3599C552.154 98.3599 549.275 97.4721 546.825 95.8088C544.375 94.1455 542.466 91.7814 541.339 89.0155C540.211 86.2495 539.917 83.2059 540.491 80.2696C541.066 77.3333 542.485 74.6361 544.568 72.5191C546.651 70.4022 549.305 68.9605 552.194 68.3764C555.084 67.7923 558.079 68.0921 560.801 69.2378C563.522 70.3835 565.849 72.3237 567.485 74.813C569.122 77.3023 569.996 80.2289 569.996 83.2227C569.991 87.236 568.421 91.0835 565.628 93.9213C562.836 96.7591 559.05 98.3554 555.1 98.3599Z" fill="black"/>
<path d="M475.503 157.016H478.296C478.85 156.962 479.403 157.129 479.838 157.482C480.273 157.836 480.554 158.347 480.624 158.909H484.347C484.29 157.426 483.682 156.02 482.646 154.975C481.609 153.929 480.221 153.322 478.762 153.276V151.34H475.038V153.276C473.578 153.322 472.191 153.929 471.154 154.975C470.117 156.02 469.509 157.426 469.452 158.909C469.518 160.475 470.191 161.952 471.325 163.016C472.459 164.079 473.961 164.643 475.503 164.585H478.296C478.575 164.521 478.865 164.522 479.144 164.587C479.423 164.653 479.684 164.781 479.907 164.963C480.131 165.144 480.311 165.375 480.435 165.637C480.559 165.899 480.624 166.186 480.624 166.477C480.624 166.768 480.559 167.055 480.435 167.317C480.311 167.58 480.131 167.81 479.907 167.992C479.684 168.173 479.423 168.302 479.144 168.367C478.865 168.432 478.575 168.433 478.296 168.369H475.503C474.949 168.424 474.396 168.257 473.962 167.904C473.527 167.55 473.245 167.038 473.176 166.477H469.452C469.509 167.96 470.117 169.366 471.154 170.411C472.191 171.456 473.578 172.063 475.038 172.11V174.046H478.762V172.11C480.221 172.063 481.609 171.456 482.646 170.411C483.682 169.366 484.29 167.96 484.347 166.477C484.282 164.91 483.608 163.434 482.474 162.37C481.34 161.307 479.838 160.742 478.296 160.801H475.503C475.224 160.865 474.934 160.864 474.655 160.798C474.377 160.733 474.116 160.605 473.892 160.423C473.669 160.241 473.488 160.011 473.364 159.749C473.24 159.487 473.176 159.199 473.176 158.909C473.176 158.618 473.24 158.331 473.364 158.068C473.488 157.806 473.669 157.576 473.892 157.394C474.116 157.212 474.377 157.084 474.655 157.019C474.934 156.953 475.224 156.953 475.503 157.016V157.016Z" fill="black"/>
<path d="M516 96.4382C511.148 96.4382 506.404 97.8835 502.37 100.591C498.335 103.299 495.191 107.147 493.334 111.65C491.477 116.153 490.991 121.107 491.938 125.887C492.885 130.668 495.221 135.058 498.652 138.504C502.083 141.951 506.455 144.298 511.214 145.248C515.973 146.199 520.906 145.711 525.389 143.846C529.872 141.981 533.703 138.823 536.399 134.77C539.095 130.718 540.534 125.954 540.534 121.08C540.526 114.547 537.939 108.283 533.34 103.664C528.741 99.0439 522.505 96.4454 516 96.4382ZM523.36 139.342C518.643 141.277 513.358 141.277 508.64 139.342V130.937C508.64 130.283 508.898 129.656 509.359 129.194C509.819 128.732 510.443 128.473 511.093 128.473H520.907C521.557 128.473 522.181 128.732 522.642 129.194C523.102 129.656 523.36 130.283 523.36 130.937V139.342ZM512.32 117.384C512.32 116.653 512.536 115.938 512.94 115.33C513.345 114.722 513.919 114.249 514.592 113.969C515.264 113.689 516.004 113.616 516.718 113.759C517.432 113.901 518.088 114.253 518.602 114.77C519.117 115.287 519.467 115.946 519.609 116.663C519.751 117.38 519.678 118.123 519.4 118.798C519.121 119.474 518.65 120.051 518.045 120.457C517.439 120.863 516.728 121.08 516 121.08C515.024 121.08 514.088 120.691 513.398 119.997C512.708 119.304 512.32 118.364 512.32 117.384ZM528.267 136.444V130.937C528.262 129.149 527.611 127.424 526.434 126.082C525.258 124.74 523.636 123.873 521.871 123.643C523.128 122.46 524.001 120.925 524.378 119.238C524.755 117.55 524.619 115.787 523.986 114.179C523.353 112.57 522.253 111.19 520.829 110.217C519.404 109.244 517.722 108.724 516 108.724C514.278 108.724 512.596 109.244 511.172 110.217C509.748 111.19 508.648 112.57 508.015 114.179C507.381 115.787 507.245 117.55 507.622 119.238C507.999 120.925 508.872 122.46 510.129 123.643C508.364 123.873 506.742 124.74 505.566 126.082C504.389 127.424 503.738 129.149 503.733 130.937V136.444C500.559 133.892 498.253 130.412 497.132 126.485C496.012 122.559 496.134 118.38 497.481 114.527C498.828 110.673 501.333 107.334 504.65 104.972C507.968 102.611 511.934 101.342 516 101.342C520.066 101.342 524.032 102.611 527.35 104.972C530.667 107.334 533.172 110.673 534.519 114.527C535.866 118.38 535.988 122.559 534.868 126.485C533.748 130.412 531.441 133.892 528.267 136.444Z" fill="black"/>
<path d="M492.282 16.322C492.282 14.826 492.619 13.484 493.294 12.296C493.969 11.0933 494.885 10.1547 496.044 9.48C497.217 8.80533 498.515 8.468 499.938 8.468C501.61 8.468 503.069 8.87133 504.316 9.678C505.563 10.4847 506.472 11.6287 507.044 13.11H504.646C504.221 12.186 503.605 11.4747 502.798 10.976C502.006 10.4773 501.053 10.228 499.938 10.228C498.867 10.228 497.907 10.4773 497.056 10.976C496.205 11.4747 495.538 12.186 495.054 13.11C494.57 14.0193 494.328 15.09 494.328 16.322C494.328 17.5393 494.57 18.61 495.054 19.534C495.538 20.4433 496.205 21.1473 497.056 21.646C497.907 22.1447 498.867 22.394 499.938 22.394C501.053 22.394 502.006 22.152 502.798 21.668C503.605 21.1693 504.221 20.458 504.646 19.534H507.044C506.472 21.0007 505.563 22.1373 504.316 22.944C503.069 23.736 501.61 24.132 499.938 24.132C498.515 24.132 497.217 23.802 496.044 23.142C494.885 22.4673 493.969 21.536 493.294 20.348C492.619 19.16 492.282 17.818 492.282 16.322ZM518.098 24L514.446 17.73H512.026V24H510.024V8.666H514.974C516.133 8.666 517.108 8.864 517.9 9.26C518.707 9.656 519.308 10.1913 519.704 10.866C520.1 11.5407 520.298 12.3107 520.298 13.176C520.298 14.232 519.99 15.1633 519.374 15.97C518.773 16.7767 517.863 17.312 516.646 17.576L520.496 24H518.098ZM512.026 16.124H514.974C516.059 16.124 516.873 15.86 517.416 15.332C517.959 14.7893 518.23 14.0707 518.23 13.176C518.23 12.2667 517.959 11.5627 517.416 11.064C516.888 10.5653 516.074 10.316 514.974 10.316H512.026V16.124ZM538.963 8.776V24H536.961V12.648L531.901 24H530.493L525.411 12.626V24H523.409V8.776H525.565L531.197 21.36L536.829 8.776H538.963Z" fill="black"/>
</svg>
