<svg width="151" height="158" viewBox="0 0 151 158" fill="none" xmlns="http://www.w3.org/2000/svg">
<rect width="130" height="130" rx="40" transform="matrix(1 0 0 -1 11 144)" fill="#D8ECFF"/>
<path fill-rule="evenodd" clip-rule="evenodd" d="M27.8912 8.24229C53.9923 -11.0765 90.9171 5.66596 93.8274 36.6657L107.702 36.4583C109.275 36.4348 110.712 37.3306 111.362 38.7394C112.012 40.1482 111.751 41.8019 110.697 42.9504L77.8705 78.7208C77.1405 79.5162 76.1091 79.9802 75.0197 80.0032C73.9304 80.0261 72.8797 79.6061 72.1157 78.8421L37.1365 43.8655C36.0255 42.7547 35.6963 41.099 36.2999 39.6584C36.9034 38.2179 38.3233 37.2708 39.9077 37.2519L53.6868 37.0872C53.0636 23.0153 37.8861 13.9445 24.7831 20.1913C22.9519 21.0643 20.7458 20.428 19.6844 18.7207C18.623 17.0133 19.053 14.7926 20.6781 13.5882L27.8912 8.24229ZM86.1027 40.6104C86.1027 15.9537 59.9594 0.983731 38.6722 10.8665C51.2129 13.1858 61.5712 23.8749 61.6146 37.8999L61.6146 37.9117L61.6146 40.9279C61.6146 43.0567 59.8735 44.7896 57.7087 44.8155L49.2782 44.9163L74.8113 70.4475L98.7437 44.3689L90.1168 44.4978C89.0579 44.5137 88.0367 44.1111 87.2822 43.3803C86.5276 42.6496 86.1027 41.6518 86.1027 40.6104Z" fill="#0082FA"/>
<path fill-rule="evenodd" clip-rule="evenodd" d="M101.46 57.7573C102.35 55.7965 104.688 54.9164 106.682 55.7915L132.244 67.0095C132.831 67.2668 133.344 67.6607 133.741 68.1571L150.155 88.688C150.913 89.6363 151.18 90.877 150.879 92.0463C150.577 93.2156 149.741 94.181 148.615 94.6596L93.4551 118.101C91.8054 118.802 89.8824 118.321 88.774 116.93L79.2118 104.929V148.333L126.463 129.431V110.14C126.463 107.993 128.234 106.252 130.417 106.252C132.601 106.252 134.371 107.993 134.371 110.14V132.047C134.371 133.628 133.397 135.052 131.907 135.648L76.7479 157.713C75.7925 158.096 74.7232 158.096 73.7678 157.713L18.6083 135.648C17.1185 135.052 16.1443 133.628 16.1443 132.047V110.14C16.1443 107.993 17.9146 106.252 20.0983 106.252C22.282 106.252 24.0523 107.993 24.0523 110.14V129.431L71.3038 148.333V105.683L62.2107 116.949C61.0992 118.326 59.1862 118.798 57.5449 118.101L2.38537 94.6596C1.25926 94.181 0.422846 93.2156 0.121324 92.0463C-0.180197 90.8771 0.0873334 89.6364 0.84549 88.688L17.2588 68.1571C17.6537 67.6632 18.1644 67.2707 18.7473 67.0133L41.5107 56.9595C43.5027 56.0797 45.8429 56.9543 46.7376 58.913C47.6324 60.8718 46.7429 63.1728 44.7509 64.0526L30.2331 70.4646L75.5271 89.7639L120.775 70.4915L103.459 62.8922C101.465 62.0171 100.57 59.7181 101.46 57.7573ZM129.39 75.2964L140.765 89.5246L93.1177 109.773L81.7979 95.5671L129.39 75.2964ZM10.2354 89.5247L21.6289 75.2729L69.3435 95.6036L57.9004 109.781L10.2354 89.5247Z" fill="#0082FA"/>
</svg>
