<svg width="107" height="82" viewBox="0 0 107 82" fill="none" xmlns="http://www.w3.org/2000/svg">
<rect x="97" y="10" width="62" height="87" rx="20" transform="rotate(90 97 10)" fill="#D8D9FF"/>
<path d="M4.75 43.5C4.41848 43.5 4.10054 43.6317 3.86612 43.8661C3.6317 44.1005 3.5 44.4185 3.5 44.75V74.75C3.5 76.8175 5.1825 78.5 7.25 78.5H32.25C32.5815 78.5 32.8995 78.3683 33.1339 78.1339C33.3683 77.8995 33.5 77.5815 33.5 77.25C33.5 76.9185 33.3683 76.6005 33.1339 76.3661C32.8995 76.1317 32.5815 76 32.25 76H7.25C6.91848 76 6.60054 75.8683 6.36612 75.6339C6.1317 75.3995 6 75.0815 6 74.75V44.75C6 44.4185 5.8683 44.1005 5.63388 43.8661C5.39946 43.6317 5.08152 43.5 4.75 43.5Z" fill="black" stroke="black"/>
<path d="M102.25 43.5C101.918 43.5 101.601 43.6317 101.366 43.8661C101.132 44.1005 101 44.4185 101 44.75V74.75C101 75.0815 100.868 75.3995 100.634 75.6339C100.399 75.8683 100.082 76 99.75 76H47.25C46.9185 76 46.6005 76.1317 46.3661 76.3661C46.1317 76.6005 46 76.9185 46 77.25C46 77.5815 46.1317 77.8995 46.3661 78.1339C46.6005 78.3683 46.9185 78.5 47.25 78.5H99.75C101.818 78.5 103.5 76.8175 103.5 74.75V44.75C103.5 44.4185 103.368 44.1005 103.134 43.8661C102.899 43.6317 102.582 43.5 102.25 43.5Z" fill="black" stroke="black"/>
<path d="M46 4.75C46 5.08152 46.1317 5.39946 46.3661 5.63388C46.6005 5.8683 46.9185 6 47.25 6H99.75C100.082 6 100.399 6.1317 100.634 6.36612C100.868 6.60054 101 6.91848 101 7.25V29.645C101 29.9765 101.132 30.2945 101.366 30.5289C101.601 30.7633 101.918 30.895 102.25 30.895C102.582 30.895 102.899 30.7633 103.134 30.5289C103.368 30.2945 103.5 29.9765 103.5 29.645V7.25C103.5 5.1825 101.818 3.5 99.75 3.5H47.25C46.9185 3.5 46.6005 3.6317 46.3661 3.86612C46.1317 4.10054 46 4.41848 46 4.75Z" fill="black" stroke="black"/>
<path d="M7.25 3.5C5.1825 3.5 3.5 5.1825 3.5 7.25V29.645C3.5 29.9765 3.6317 30.2945 3.86612 30.5289C4.10054 30.7633 4.41848 30.895 4.75 30.895C5.08152 30.895 5.39946 30.7633 5.63388 30.5289C5.8683 30.2945 6 29.9765 6 29.645V7.25C6 6.91848 6.1317 6.60054 6.36612 6.36612C6.60054 6.1317 6.91848 6 7.25 6H32.25C32.5815 6 32.8995 5.8683 33.1339 5.63388C33.3683 5.39946 33.5 5.08152 33.5 4.75C33.5 4.41848 33.3683 4.10054 33.1339 3.86612C32.8995 3.6317 32.5815 3.5 32.25 3.5H7.25Z" fill="black" stroke="black"/>
<path d="M104.75 35.895H53.75C54.7425 35.455 55.6 34.9425 56.21 34.3325C58.0243 32.5145 59.0432 30.0509 59.0432 27.4825C59.0432 24.9141 58.0243 22.4505 56.21 20.6325C52.55 16.9725 46.17 16.9725 42.51 20.6325C41.9225 21.22 41.43 22.04 41 22.9825V2.25C41 1.91848 40.8683 1.60054 40.6339 1.36612C40.3995 1.1317 40.0815 1 39.75 1C39.4185 1 39.1005 1.1317 38.8661 1.36612C38.6317 1.60054 38.5 1.91848 38.5 2.25V35.3125C34.2425 33.5575 26.7475 29.9525 25.21 26.845C24.7158 25.8534 24.4231 24.7737 24.3488 23.6683C24.2746 22.5629 24.4203 21.4537 24.7775 20.405C25.1295 19.3549 25.6861 18.3849 26.4151 17.5512C27.1442 16.7174 28.0312 16.0364 29.025 15.5475C29.3224 15.4006 29.5492 15.1417 29.6557 14.8275C29.7621 14.5134 29.7394 14.1699 29.5925 13.8725C29.4456 13.5751 29.1867 13.3483 28.8725 13.2418C28.5584 13.1354 28.2149 13.1581 27.9175 13.305C26.6284 13.9386 25.4778 14.8217 24.5324 15.9031C23.5871 16.9845 22.8656 18.2428 22.41 19.605C21.9467 20.9643 21.7576 22.402 21.8537 23.8349C21.9498 25.2677 22.3292 26.6673 22.97 27.9525C24.4825 31.0075 29.545 33.93 33.6575 35.895H2.25C1.91848 35.895 1.60054 36.0267 1.36612 36.2611C1.1317 36.4955 1 36.8135 1 37.145C1 37.4765 1.1317 37.7945 1.36612 38.0289C1.60054 38.2633 1.91848 38.395 2.25 38.395H25.615C24.6475 38.83 23.81 39.3325 23.2125 39.93C21.3982 41.748 20.3793 44.2116 20.3793 46.78C20.3793 49.3484 21.3982 51.812 23.2125 53.63C25.0425 55.46 27.475 56.4675 30.0625 56.4675C32.65 56.4675 35.0825 55.46 36.9125 53.63C37.5325 53.01 38.0525 52.1325 38.5 51.1175V79.75C38.5 80.0815 38.6317 80.3995 38.8661 80.6339C39.1005 80.8683 39.4185 81 39.75 81C40.0815 81 40.3995 80.8683 40.6339 80.6339C40.8683 80.3995 41 80.0815 41 79.75V38.9875C45.27 40.7525 52.6825 44.3325 54.2125 47.4225C55.2125 49.4425 55.365 51.7275 54.645 53.8625C54.293 54.9126 53.7364 55.8826 53.0074 56.7163C52.2783 57.5501 51.3913 58.2311 50.3975 58.72C50.2453 58.7896 50.1086 58.889 49.9955 59.0124C49.8824 59.1358 49.7952 59.2806 49.7392 59.4383C49.6831 59.596 49.6593 59.7634 49.6691 59.9304C49.679 60.0975 49.7223 60.2609 49.7965 60.4109C49.8706 60.561 49.9742 60.6946 50.101 60.8038C50.2278 60.9131 50.3752 60.9958 50.5346 61.047C50.6939 61.0982 50.8619 61.1169 51.0286 61.1019C51.1953 61.087 51.3573 61.0387 51.505 60.96C52.7941 60.3264 53.9447 59.4433 54.8901 58.3619C55.8354 57.2805 56.5569 56.0222 57.0125 54.66C57.4758 53.3007 57.6649 51.863 57.5688 50.4301C57.4727 48.9973 57.0933 47.5977 56.4525 46.3125C54.9475 43.2725 49.925 40.3625 45.8225 38.395H104.75C105.082 38.395 105.399 38.2633 105.634 38.0289C105.868 37.7945 106 37.4765 106 37.145C106 36.8135 105.868 36.4955 105.634 36.2611C105.399 36.0267 105.082 35.895 104.75 35.895ZM44.2775 22.4025C45.635 21.045 47.44 20.2975 49.36 20.2975C51.28 20.2975 53.085 21.045 54.4425 22.4025C55.7887 23.7514 56.5447 25.5793 56.5447 27.485C56.5447 29.3907 55.7887 31.2186 54.4425 32.5675C52.3075 34.7025 44.9675 35.5725 41.025 35.8175C41.305 31.1575 42.33 24.35 44.2775 22.4025ZM35.145 51.8625C32.43 54.5775 27.695 54.5775 24.98 51.8625C23.6338 50.5136 22.8778 48.6857 22.8778 46.78C22.8778 44.8743 23.6338 43.0464 24.98 41.6975C27.115 39.5625 34.455 38.6925 38.3975 38.4475C38.1175 43.1075 37.0925 49.915 35.145 51.8625Z" fill="black" stroke="black"/>
</svg>
