<svg width="394" height="376" viewBox="0 0 394 376" fill="none" xmlns="http://www.w3.org/2000/svg">
<path fill-rule="evenodd" clip-rule="evenodd" d="M0 375.493V373.366C10.6243 369.568 22.0706 367.5 34 367.5L145 367.5C181.175 367.5 210.5 338.175 210.5 302L212.5 302C212.5 339.279 182.279 369.5 145 369.5L34 369.5C22.0544 369.5 10.603 371.616 0 375.493Z" fill="#272FF5"/>
<mask id="path-2-outside-1_116_927" maskUnits="userSpaceOnUse" x="196" y="-0.93335" width="22" height="22" fill="black">
<rect fill="white" x="196" y="-0.93335" width="22" height="22"/>
<path d="M198.168 7.82065L201.332 12.206C201.765 12.8074 202 13.5389 202 14.2912L202 18.3246C202 19.2866 202.75 20.0667 203.675 20.0667L210.327 20.0667C211.25 20.0667 212 19.2866 212 18.3246L212 14.2912C212 13.5389 212.235 12.8074 212.668 12.206L215.832 7.81892C216.59 6.76795 217 5.48944 217 4.17545L217 0.999983L197 0.999983L197 4.17545C197 5.48932 197.41 6.76852 198.168 7.82065Z"/>
</mask>
<path d="M198.168 7.82065L201.332 12.206C201.765 12.8074 202 13.5389 202 14.2912L202 18.3246C202 19.2866 202.75 20.0667 203.675 20.0667L210.327 20.0667C211.25 20.0667 212 19.2866 212 18.3246L212 14.2912C212 13.5389 212.235 12.8074 212.668 12.206L215.832 7.81892C216.59 6.76795 217 5.48944 217 4.17545L217 0.999983L197 0.999983L197 4.17545C197 5.48932 197.41 6.76852 198.168 7.82065Z" fill="#272FF5"/>
<path d="M198.168 7.82065L197.357 8.40536L197.357 8.40567L198.168 7.82065ZM201.332 12.206L202.143 11.6214L202.143 11.621L201.332 12.206ZM212.668 12.206L211.857 11.6211L211.857 11.6214L212.668 12.206ZM215.832 7.81892L215.021 7.23377L215.021 7.23405L215.832 7.81892ZM217 4.17545L216 4.17545V4.17545L217 4.17545ZM217 0.999983L218 0.999983L218 -1.69157e-05L217 -1.69276e-05L217 0.999983ZM197 0.999983L197 -1.71661e-05L196 -1.71781e-05L196 0.999983L197 0.999983ZM197.357 8.40567L200.521 12.791L202.143 11.621L198.979 7.23563L197.357 8.40567ZM200.52 12.7905C200.83 13.2197 201 13.7462 201 14.2912L203 14.2912C203 13.3317 202.7 12.3952 202.143 11.6214L200.52 12.7905ZM201 14.2912L201 18.3246L203 18.3246L203 14.2912L201 14.2912ZM201 18.3246C201 19.8016 202.161 21.0667 203.675 21.0667L203.675 19.0667C203.339 19.0667 203 18.7717 203 18.3246L201 18.3246ZM203.675 21.0667L210.327 21.0667L210.327 19.0667L203.675 19.0667L203.675 21.0667ZM210.327 21.0667C211.84 21.0667 213 19.8009 213 18.3246L211 18.3246C211 18.7724 210.66 19.0667 210.327 19.0667L210.327 21.0667ZM213 18.3246L213 14.2912L211 14.2912L211 18.3246L213 18.3246ZM213 14.2912C213 13.7462 213.17 13.2197 213.48 12.7905L211.857 11.6214C211.3 12.3952 211 13.3317 211 14.2912L213 14.2912ZM213.479 12.7909L216.643 8.40379L215.021 7.23405L211.857 11.6211L213.479 12.7909ZM216.643 8.40407C217.526 7.18023 218 5.69638 218 4.17545L216 4.17545C216 5.2825 215.654 6.35567 215.021 7.23377L216.643 8.40407ZM218 4.17545L218 0.999983L216 0.999983L216 4.17545L218 4.17545ZM217 -1.69276e-05L197 -1.71661e-05L197 1.99998L217 1.99998L217 -1.69276e-05ZM196 0.999983L196 4.17545L198 4.17545L198 0.999983L196 0.999983ZM196 4.17545C196 5.69626 196.474 7.18059 197.357 8.40536L198.98 7.23594C198.346 6.35644 198 5.28238 198 4.17545L196 4.17545Z" fill="#272FF5" mask="url(#path-2-outside-1_116_927)"/>
<path d="M207 20L207 104" stroke="#272FF5" stroke-width="2" stroke-linecap="round"/>
<path fill-rule="evenodd" clip-rule="evenodd" d="M64.1268 105.631C40.6261 105.631 21.5736 124.684 21.5736 148.185V257.937C21.5736 281.437 40.6261 300.49 64.1268 300.49H89.2398C89.6744 300.49 90.0266 300.842 90.0266 301.277C90.0266 301.711 89.6744 302.064 89.2398 302.064H64.1268C39.757 302.064 20 282.307 20 257.937V148.185C20 123.815 39.757 104.058 64.1268 104.058H89.7644C90.1989 104.058 90.5512 104.41 90.5512 104.845C90.5512 105.279 90.1989 105.631 89.7644 105.631H64.1268Z" fill="#272FF5"/>
<path fill-rule="evenodd" clip-rule="evenodd" d="M141.957 301.277C141.957 300.842 142.309 300.49 142.743 300.49H274.666C275.101 300.49 275.453 300.842 275.453 301.277C275.453 301.711 275.101 302.064 274.666 302.064H142.743C142.309 302.064 141.957 301.711 141.957 301.277Z" fill="#272FF5"/>
<path fill-rule="evenodd" clip-rule="evenodd" d="M125.434 104.845C125.434 104.41 125.786 104.058 126.22 104.058H269.946C270.38 104.058 270.732 104.41 270.732 104.845C270.732 105.279 270.38 105.631 269.946 105.631H126.22C125.786 105.631 125.434 105.279 125.434 104.845Z" fill="#272FF5"/>
<path fill-rule="evenodd" clip-rule="evenodd" d="M310.86 104.845C310.86 104.41 311.212 104.058 311.647 104.058H349.873C374.243 104.058 394 123.815 394 148.185V257.937C394 282.307 374.243 302.064 349.873 302.064H299.32C298.885 302.064 298.533 301.711 298.533 301.277C298.533 300.842 298.885 300.49 299.32 300.49H349.873C373.374 300.49 392.427 281.437 392.427 257.937V148.185C392.427 124.684 373.374 105.631 349.873 105.631H311.647C311.212 105.631 310.86 105.279 310.86 104.845Z" fill="#272FF5"/>
<path d="M180.857 197.653V208.18H179.473V200.331L175.974 208.18H175.001L171.487 200.315V208.18H170.103V197.653H171.593L175.488 206.354L179.382 197.653H180.857Z" fill="black"/>
<path d="M182.688 203.981C182.688 203.129 182.86 202.384 183.205 201.745C183.55 201.096 184.021 200.594 184.62 200.239C185.228 199.884 185.902 199.707 186.643 199.707C187.373 199.707 188.007 199.864 188.544 200.178C189.082 200.493 189.482 200.888 189.746 201.365V199.844H191.145V208.18H189.746V206.628C189.472 207.115 189.061 207.521 188.514 207.845C187.976 208.16 187.348 208.317 186.628 208.317C185.887 208.317 185.218 208.134 184.62 207.769C184.021 207.404 183.55 206.892 183.205 206.233C182.86 205.574 182.688 204.823 182.688 203.981ZM189.746 203.997C189.746 203.368 189.619 202.82 189.366 202.354C189.112 201.887 188.767 201.532 188.331 201.289C187.905 201.035 187.434 200.909 186.917 200.909C186.399 200.909 185.928 201.03 185.502 201.274C185.076 201.517 184.736 201.872 184.483 202.338C184.229 202.805 184.102 203.353 184.102 203.981C184.102 204.62 184.229 205.178 184.483 205.655C184.736 206.121 185.076 206.481 185.502 206.735C185.928 206.978 186.399 207.1 186.917 207.1C187.434 207.1 187.905 206.978 188.331 206.735C188.767 206.481 189.112 206.121 189.366 205.655C189.619 205.178 189.746 204.625 189.746 203.997Z" fill="black"/>
<path d="M194.869 201.198C195.112 200.721 195.457 200.351 195.903 200.087C196.36 199.823 196.912 199.692 197.561 199.692V201.122H197.196C195.645 201.122 194.869 201.963 194.869 203.647V208.18H193.485V199.844H194.869V201.198Z" fill="black"/>
<path d="M203.814 208.18L200.544 204.499V208.18H199.159V196.923H200.544V203.54L203.753 199.844H205.685L201.761 203.997L205.7 208.18H203.814Z" fill="black"/>
<path d="M214.594 203.692C214.594 203.956 214.579 204.235 214.548 204.529H207.886C207.936 205.35 208.215 205.994 208.722 206.461C209.239 206.917 209.863 207.145 210.593 207.145C211.192 207.145 211.689 207.008 212.084 206.735C212.49 206.451 212.774 206.076 212.936 205.609H214.427C214.204 206.41 213.757 207.064 213.088 207.571C212.419 208.068 211.587 208.317 210.593 208.317C209.802 208.317 209.092 208.139 208.464 207.784C207.845 207.429 207.358 206.927 207.003 206.278C206.648 205.619 206.471 204.859 206.471 203.997C206.471 203.135 206.643 202.379 206.988 201.73C207.333 201.081 207.815 200.584 208.433 200.239C209.062 199.884 209.782 199.707 210.593 199.707C211.384 199.707 212.084 199.879 212.693 200.224C213.301 200.569 213.768 201.045 214.092 201.654C214.427 202.252 214.594 202.932 214.594 203.692ZM213.164 203.403C213.164 202.876 213.047 202.425 212.814 202.049C212.581 201.664 212.262 201.375 211.856 201.182C211.46 200.98 211.019 200.878 210.532 200.878C209.833 200.878 209.234 201.101 208.737 201.547C208.251 201.994 207.972 202.612 207.901 203.403H213.164Z" fill="black"/>
<path d="M218.11 200.985V205.898C218.11 206.304 218.196 206.593 218.368 206.765C218.541 206.927 218.84 207.008 219.266 207.008H220.285V208.18H219.038C218.267 208.18 217.689 208.002 217.304 207.647C216.918 207.292 216.725 206.709 216.725 205.898V200.985H215.645V199.844H216.725V197.745H218.11V199.844H220.285V200.985H218.11Z" fill="black"/>
<path d="M222.677 198.49C222.414 198.49 222.19 198.399 222.008 198.216C221.825 198.034 221.734 197.81 221.734 197.547C221.734 197.283 221.825 197.06 222.008 196.877C222.19 196.695 222.414 196.604 222.677 196.604C222.931 196.604 223.144 196.695 223.316 196.877C223.499 197.06 223.59 197.283 223.59 197.547C223.59 197.81 223.499 198.034 223.316 198.216C223.144 198.399 222.931 198.49 222.677 198.49ZM223.347 199.844V208.18H221.962V199.844H223.347Z" fill="black"/>
<path d="M229.767 199.692C230.781 199.692 231.603 200.001 232.232 200.62C232.86 201.228 233.175 202.11 233.175 203.266V208.18H231.806V203.464C231.806 202.633 231.598 201.999 231.182 201.563C230.766 201.116 230.198 200.893 229.478 200.893C228.748 200.893 228.165 201.122 227.729 201.578C227.303 202.034 227.09 202.698 227.09 203.571V208.18H225.706V199.844H227.09V201.03C227.364 200.604 227.734 200.275 228.2 200.042C228.677 199.808 229.199 199.692 229.767 199.692Z" fill="black"/>
<path d="M238.874 199.707C239.594 199.707 240.223 199.864 240.76 200.178C241.308 200.493 241.713 200.888 241.977 201.365V199.844H243.377V208.362C243.377 209.123 243.214 209.797 242.89 210.386C242.565 210.984 242.099 211.45 241.49 211.785C240.892 212.12 240.192 212.287 239.391 212.287C238.296 212.287 237.383 212.028 236.653 211.511C235.923 210.994 235.492 210.289 235.36 209.397H236.729C236.881 209.904 237.195 210.309 237.672 210.614C238.149 210.928 238.722 211.085 239.391 211.085C240.152 211.085 240.77 210.847 241.247 210.37C241.734 209.894 241.977 209.224 241.977 208.362V206.613C241.703 207.1 241.298 207.505 240.76 207.83C240.223 208.154 239.594 208.317 238.874 208.317C238.134 208.317 237.459 208.134 236.851 207.769C236.252 207.404 235.781 206.892 235.436 206.233C235.091 205.574 234.919 204.823 234.919 203.981C234.919 203.129 235.091 202.384 235.436 201.745C235.781 201.096 236.252 200.594 236.851 200.239C237.459 199.884 238.134 199.707 238.874 199.707ZM241.977 203.997C241.977 203.368 241.85 202.82 241.597 202.354C241.343 201.887 240.998 201.532 240.562 201.289C240.136 201.035 239.665 200.909 239.148 200.909C238.63 200.909 238.159 201.03 237.733 201.274C237.307 201.517 236.967 201.872 236.714 202.338C236.46 202.805 236.333 203.353 236.333 203.981C236.333 204.62 236.46 205.178 236.714 205.655C236.967 206.121 237.307 206.481 237.733 206.735C238.159 206.978 238.63 207.1 239.148 207.1C239.665 207.1 240.136 206.978 240.562 206.735C240.998 206.481 241.343 206.121 241.597 205.655C241.85 205.178 241.977 204.625 241.977 203.997Z" fill="black"/>
<path d="M93.6987 287.911C93.6987 282.117 98.3957 277.42 104.19 277.42H128.319C134.113 277.42 138.81 282.117 138.81 287.911V298.401C138.81 304.195 134.113 308.892 128.319 308.892H104.19C98.3957 308.892 93.6987 304.195 93.6987 298.401V287.911Z" fill="#EDF8FF"/>
<path fill-rule="evenodd" clip-rule="evenodd" d="M143.705 285.522C143.705 284.876 143.183 284.351 142.54 284.351H88.9196C88.2761 284.351 87.7539 284.876 87.7539 285.522V318.304C87.7539 318.951 88.2761 319.475 88.9196 319.475H142.54C143.183 319.475 143.705 318.951 143.705 318.304V285.522ZM90.0852 286.693V317.134H141.374V286.693H90.0852Z" fill="black"/>
<path fill-rule="evenodd" clip-rule="evenodd" d="M143.705 278.497C143.705 277.851 143.183 277.326 142.54 277.326H88.9196C88.2761 277.326 87.7539 277.851 87.7539 278.497V285.522C87.7539 286.168 88.2761 286.693 88.9196 286.693H142.54C143.183 286.693 143.705 286.168 143.705 285.522V278.497ZM90.0852 279.668V284.351H141.374V279.668H90.0852Z" fill="black"/>
<path d="M92.4166 283.18C93.0604 283.18 93.5823 282.656 93.5823 282.01C93.5823 281.363 93.0604 280.839 92.4166 280.839C91.7729 280.839 91.251 281.363 91.251 282.01C91.251 282.656 91.7729 283.18 92.4166 283.18Z" fill="black"/>
<path d="M97.0792 283.18C97.723 283.18 98.2449 282.656 98.2449 282.01C98.2449 281.363 97.723 280.839 97.0792 280.839C96.4355 280.839 95.9136 281.363 95.9136 282.01C95.9136 282.656 96.4355 283.18 97.0792 283.18Z" fill="black"/>
<path d="M101.742 283.18C102.386 283.18 102.907 282.656 102.907 282.01C102.907 281.363 102.386 280.839 101.742 280.839C101.098 280.839 100.576 281.363 100.576 282.01C100.576 282.656 101.098 283.18 101.742 283.18Z" fill="black"/>
<path fill-rule="evenodd" clip-rule="evenodd" d="M129.718 310.109V297.23C129.718 296.584 130.24 296.059 130.883 296.059C131.527 296.059 132.049 296.584 132.049 297.23V311.28C132.049 311.926 131.527 312.451 130.883 312.451H100.576C99.9329 312.451 99.4106 311.926 99.4106 311.28V293.718C99.4106 293.071 99.9329 292.547 100.576 292.547H127.386C128.03 292.547 128.552 293.071 128.552 293.718C128.552 294.364 128.03 294.888 127.386 294.888H101.742V310.109H129.718Z" fill="black"/>
<path fill-rule="evenodd" clip-rule="evenodd" d="M130.3 290.205C128.048 290.205 126.22 292.041 126.22 294.303C126.22 296.565 128.048 298.401 130.3 298.401C132.552 298.401 134.38 296.565 134.38 294.303C134.38 292.041 132.552 290.205 130.3 290.205ZM130.3 292.547C131.265 292.547 132.048 293.333 132.048 294.303C132.048 295.272 131.265 296.059 130.3 296.059C129.335 296.059 128.552 295.272 128.552 294.303C128.552 293.333 129.335 292.547 130.3 292.547Z" fill="black"/>
<path fill-rule="evenodd" clip-rule="evenodd" d="M106.404 300.743H125.055C125.698 300.743 126.221 300.218 126.221 299.572C126.221 298.925 125.698 298.401 125.055 298.401H106.404C105.761 298.401 105.239 298.925 105.239 299.572C105.239 300.218 105.761 300.743 106.404 300.743Z" fill="black"/>
<path fill-rule="evenodd" clip-rule="evenodd" d="M109.901 306.597H121.558C122.201 306.597 122.724 306.072 122.724 305.426C122.724 304.779 122.201 304.255 121.558 304.255H109.901C109.258 304.255 108.736 304.779 108.736 305.426C108.736 306.072 109.258 306.597 109.901 306.597Z" fill="black"/>
<path d="M95.4597 326.027L93.1286 334.07H91.9516L90.0821 327.596L88.1434 334.07L86.9778 334.082L84.7275 326.027H85.8469L87.601 332.847L89.5397 326.027H90.7168L92.5632 332.824L94.3288 326.027H95.4597Z" fill="black"/>
<path d="M102.379 330.666C102.379 330.866 102.367 331.078 102.344 331.301H97.2898C97.3283 331.924 97.5398 332.412 97.9245 332.766C98.3168 333.113 98.79 333.286 99.3439 333.286C99.7978 333.286 100.175 333.182 100.475 332.974C100.783 332.759 100.998 332.474 101.121 332.12H102.252C102.083 332.728 101.744 333.224 101.236 333.609C100.729 333.986 100.098 334.174 99.3439 334.174C98.7438 334.174 98.2053 334.04 97.7283 333.77C97.259 333.501 96.8897 333.12 96.6205 332.628C96.3512 332.128 96.2166 331.551 96.2166 330.897C96.2166 330.243 96.3474 329.67 96.6089 329.177C96.8705 328.685 97.2359 328.308 97.7052 328.046C98.1822 327.777 98.7284 327.643 99.3439 327.643C99.944 327.643 100.475 327.773 100.936 328.035C101.398 328.297 101.752 328.658 101.998 329.12C102.252 329.574 102.379 330.089 102.379 330.666ZM101.294 330.447C101.294 330.047 101.206 329.704 101.029 329.42C100.852 329.127 100.609 328.908 100.302 328.762C100.002 328.608 99.667 328.531 99.2977 328.531C98.7669 328.531 98.313 328.7 97.936 329.039C97.5667 329.377 97.3552 329.847 97.3013 330.447H101.294Z" fill="black"/>
<path d="M104.815 328.924C105.031 328.547 105.346 328.239 105.761 328C106.177 327.762 106.65 327.643 107.181 327.643C107.75 327.643 108.262 327.777 108.716 328.046C109.17 328.316 109.527 328.697 109.789 329.189C110.051 329.674 110.181 330.239 110.181 330.885C110.181 331.524 110.051 332.093 109.789 332.593C109.527 333.093 109.166 333.482 108.704 333.759C108.25 334.036 107.743 334.174 107.181 334.174C106.635 334.174 106.154 334.055 105.738 333.816C105.331 333.578 105.023 333.274 104.815 332.905V334.07H103.765V325.531H104.815V328.924ZM109.108 330.885C109.108 330.408 109.012 329.993 108.82 329.639C108.627 329.285 108.366 329.016 108.035 328.831C107.712 328.647 107.354 328.554 106.962 328.554C106.577 328.554 106.219 328.65 105.888 328.843C105.565 329.027 105.304 329.3 105.104 329.662C104.911 330.016 104.815 330.428 104.815 330.897C104.815 331.374 104.911 331.793 105.104 332.155C105.304 332.509 105.565 332.782 105.888 332.974C106.219 333.159 106.577 333.251 106.962 333.251C107.354 333.251 107.712 333.159 108.035 332.974C108.366 332.782 108.627 332.509 108.82 332.155C109.012 331.793 109.108 331.37 109.108 330.885Z" fill="black"/>
<path d="M120.018 328.381C120.018 329.05 119.787 329.608 119.325 330.054C118.871 330.493 118.175 330.712 117.237 330.712H115.69V334.07H114.64V326.027H117.237C118.144 326.027 118.833 326.246 119.302 326.685C119.779 327.123 120.018 327.689 120.018 328.381ZM117.237 329.847C117.821 329.847 118.252 329.72 118.529 329.466C118.806 329.212 118.945 328.85 118.945 328.381C118.945 327.389 118.375 326.892 117.237 326.892H115.69V329.847H117.237Z" fill="black"/>
<path d="M126.931 327.746V334.07H125.881V333.136C125.681 333.459 125.4 333.713 125.039 333.897C124.685 334.074 124.293 334.163 123.862 334.163C123.369 334.163 122.927 334.063 122.535 333.863C122.142 333.655 121.831 333.347 121.6 332.939C121.377 332.532 121.265 332.035 121.265 331.451V327.746H122.304V331.312C122.304 331.935 122.462 332.416 122.777 332.755C123.092 333.086 123.523 333.251 124.069 333.251C124.631 333.251 125.073 333.078 125.397 332.732C125.72 332.386 125.881 331.882 125.881 331.22V327.746H126.931Z" fill="black"/>
<path d="M130.943 334.174C130.459 334.174 130.024 334.093 129.639 333.932C129.255 333.763 128.951 333.532 128.728 333.239C128.504 332.939 128.381 332.597 128.358 332.212H129.443C129.474 332.528 129.62 332.786 129.882 332.986C130.151 333.186 130.501 333.286 130.932 333.286C131.332 333.286 131.647 333.197 131.878 333.02C132.109 332.843 132.224 332.62 132.224 332.351C132.224 332.074 132.101 331.87 131.855 331.739C131.609 331.601 131.228 331.466 130.712 331.335C130.243 331.212 129.858 331.089 129.558 330.966C129.266 330.835 129.012 330.647 128.797 330.401C128.589 330.147 128.485 329.816 128.485 329.408C128.485 329.085 128.581 328.789 128.774 328.52C128.966 328.25 129.239 328.039 129.593 327.885C129.947 327.723 130.351 327.643 130.805 327.643C131.505 327.643 132.07 327.82 132.501 328.173C132.932 328.527 133.163 329.012 133.194 329.627H132.143C132.12 329.297 131.986 329.031 131.739 328.831C131.501 328.631 131.178 328.531 130.77 328.531C130.393 328.531 130.093 328.612 129.87 328.773C129.647 328.935 129.535 329.147 129.535 329.408C129.535 329.616 129.601 329.789 129.732 329.927C129.87 330.058 130.039 330.166 130.239 330.251C130.447 330.328 130.732 330.416 131.093 330.516C131.547 330.639 131.916 330.762 132.201 330.885C132.486 331.001 132.728 331.178 132.928 331.416C133.136 331.655 133.244 331.966 133.251 332.351C133.251 332.697 133.155 333.009 132.963 333.286C132.77 333.563 132.497 333.782 132.143 333.943C131.797 334.097 131.397 334.174 130.943 334.174Z" fill="black"/>
<path d="M137.873 327.631C138.35 327.631 138.78 327.735 139.165 327.943C139.55 328.143 139.85 328.447 140.065 328.854C140.288 329.262 140.4 329.758 140.4 330.343V334.07H139.361V330.493C139.361 329.862 139.203 329.381 138.888 329.05C138.573 328.712 138.142 328.543 137.596 328.543C137.042 328.543 136.599 328.716 136.268 329.062C135.945 329.408 135.784 329.912 135.784 330.574V334.07H134.734V325.531H135.784V328.647C135.992 328.323 136.276 328.073 136.638 327.896C137.007 327.72 137.419 327.631 137.873 327.631Z" fill="black"/>
<path d="M297.222 265.88C303.015 265.88 307.712 270.577 307.712 276.371L307.712 282.141C307.712 287.935 303.015 292.632 297.222 292.632L281.485 292.632C275.691 292.632 270.994 287.935 270.994 282.141L270.994 276.371C270.994 270.577 275.691 265.88 281.485 265.88L297.222 265.88Z" fill="#EDF8FF"/>
<path d="M280.559 310.476C277.077 310.476 274.196 313.37 274.196 316.867C274.196 320.364 277.077 323.259 280.559 323.259C284.041 323.259 286.922 320.364 286.922 316.867C286.922 313.37 284.041 310.476 280.559 310.476ZM280.559 320.847C278.398 320.847 276.597 319.038 276.597 316.867C276.597 314.697 278.398 312.888 280.559 312.888C282.72 312.888 284.521 314.697 284.521 316.867C284.521 319.038 282.72 320.847 280.559 320.847Z" fill="black"/>
<path d="M304.69 310.476C301.209 310.476 298.327 313.37 298.327 316.867C298.327 320.364 301.209 323.259 304.69 323.259C308.172 323.259 311.053 320.364 311.053 316.867C311.053 313.37 308.172 310.476 304.69 310.476ZM304.69 320.847C302.529 320.847 300.728 319.038 300.728 316.867C300.728 314.697 302.529 312.888 304.69 312.888C306.851 312.888 308.652 314.697 308.652 316.867C308.652 319.038 306.851 320.847 304.69 320.847Z" fill="black"/>
<path d="M312.014 297.332V278.882C312.014 278.279 311.534 277.676 310.933 277.676L267.472 274.541L266.392 269.838C265.912 267.306 263.511 265.376 260.869 265.376H257.508C256.787 265.376 256.307 265.859 256.307 266.582C256.307 267.306 256.787 267.788 257.508 267.788H260.869C262.43 267.788 263.751 268.873 264.111 270.32L271.194 303.723C271.795 306.497 274.196 308.426 277.077 308.426H310.813C311.534 308.426 312.014 307.944 312.014 307.22C312.014 306.497 311.534 306.014 310.813 306.014H277.077C275.877 306.014 274.676 305.412 274.076 304.326L311.053 298.417C311.654 298.417 312.014 297.935 312.014 297.332ZM275.396 301.794L273.355 302.035L271.554 293.473H275.516L275.396 301.794ZM275.396 291.062H270.954L269.874 285.997H275.396V291.062ZM275.396 283.585H269.393L267.953 276.953L275.396 277.435V283.585ZM287.402 299.864L277.797 301.432V293.594H287.402V299.864ZM287.402 291.062H277.797V285.997H287.402V291.062ZM287.402 283.585H277.797V277.676L287.402 278.4V283.585ZM299.528 297.935L289.923 299.503V293.473H299.528V297.935ZM299.528 291.062H289.923V285.997H299.528V291.062ZM299.528 283.585H289.923V278.641L299.528 279.365V283.585ZM309.613 296.247L301.809 297.453V293.353H309.613V296.247ZM309.613 291.062H301.809V285.997H309.613V291.062ZM309.613 283.585H301.809V279.485L309.613 280.088V283.585Z" fill="black"/>
<path d="M279.239 256.694C279.239 250.182 284.521 244.755 291.124 244.755C294.486 244.755 297.607 246.203 299.889 248.614L295.086 250.182C294.486 250.423 294.246 251.026 294.366 251.508C294.606 252.111 295.206 252.353 295.687 252.232L302.17 250.061C302.65 249.941 302.89 249.458 302.89 248.976V242.585C302.89 241.982 302.41 241.5 301.81 241.5C301.209 241.5 300.729 241.982 300.729 242.585V246.564C295.206 241.138 286.322 241.379 281.04 246.926C278.518 249.579 277.078 253.076 277.078 256.694C277.078 257.297 277.558 257.779 278.158 257.779C278.758 257.779 279.239 257.297 279.239 256.694Z" fill="black"/>
<path d="M303.97 255.608C303.37 255.608 302.89 256.091 302.89 256.694C302.89 263.205 297.607 268.632 291.004 268.632C287.642 268.632 284.521 267.185 282.24 264.773L287.042 263.205C287.642 262.964 287.882 262.361 287.762 261.879C287.522 261.276 286.922 261.035 286.442 261.155L279.959 263.326C279.478 263.447 279.238 263.929 279.238 264.411V270.923C279.238 271.526 279.719 272.008 280.319 272.008C280.919 272.008 281.399 271.526 281.399 270.923V266.944C286.922 272.37 295.806 272.129 301.089 266.582C303.61 263.929 305.051 260.432 305.051 256.814C305.051 256.091 304.57 255.608 303.97 255.608Z" fill="black"/>
<path d="M255.307 333.546L253.391 330.257H252.122V333.546H251.072V325.502H253.668C254.276 325.502 254.788 325.606 255.203 325.814C255.626 326.022 255.942 326.303 256.149 326.656C256.357 327.01 256.461 327.414 256.461 327.868C256.461 328.422 256.299 328.911 255.976 329.334C255.661 329.757 255.184 330.038 254.545 330.176L256.565 333.546H255.307ZM252.122 329.414H253.668C254.238 329.414 254.665 329.276 254.949 328.999C255.234 328.714 255.376 328.337 255.376 327.868C255.376 327.391 255.234 327.022 254.949 326.76C254.672 326.499 254.245 326.368 253.668 326.368H252.122V329.414Z" fill="black"/>
<path d="M263.863 330.142C263.863 330.342 263.851 330.553 263.828 330.776H258.774C258.812 331.399 259.024 331.888 259.408 332.242C259.801 332.588 260.274 332.761 260.828 332.761C261.282 332.761 261.659 332.657 261.959 332.45C262.266 332.234 262.482 331.949 262.605 331.596H263.736C263.566 332.203 263.228 332.7 262.72 333.084C262.212 333.461 261.582 333.65 260.828 333.65C260.228 333.65 259.689 333.515 259.212 333.246C258.743 332.977 258.373 332.596 258.104 332.103C257.835 331.603 257.7 331.026 257.7 330.372C257.7 329.718 257.831 329.145 258.093 328.653C258.354 328.16 258.72 327.784 259.189 327.522C259.666 327.253 260.212 327.118 260.828 327.118C261.428 327.118 261.959 327.249 262.42 327.51C262.882 327.772 263.236 328.134 263.482 328.595C263.736 329.049 263.863 329.565 263.863 330.142ZM262.778 329.922C262.778 329.522 262.689 329.18 262.512 328.895C262.336 328.603 262.093 328.384 261.785 328.237C261.485 328.084 261.151 328.007 260.781 328.007C260.251 328.007 259.797 328.176 259.42 328.514C259.05 328.853 258.839 329.322 258.785 329.922H262.778Z" fill="black"/>
<path d="M264.856 330.372C264.856 329.718 264.987 329.149 265.249 328.664C265.51 328.172 265.872 327.791 266.334 327.522C266.803 327.253 267.338 327.118 267.938 327.118C268.715 327.118 269.353 327.307 269.853 327.683C270.361 328.06 270.696 328.584 270.857 329.253H269.726C269.619 328.868 269.407 328.564 269.092 328.341C268.784 328.118 268.399 328.007 267.938 328.007C267.338 328.007 266.853 328.214 266.484 328.63C266.114 329.038 265.93 329.618 265.93 330.372C265.93 331.134 266.114 331.722 266.484 332.138C266.853 332.553 267.338 332.761 267.938 332.761C268.399 332.761 268.784 332.653 269.092 332.438C269.399 332.223 269.611 331.915 269.726 331.515H270.857C270.688 332.161 270.349 332.68 269.842 333.073C269.334 333.457 268.699 333.65 267.938 333.65C267.338 333.65 266.803 333.515 266.334 333.246C265.872 332.977 265.51 332.596 265.249 332.103C264.987 331.611 264.856 331.034 264.856 330.372Z" fill="black"/>
<path d="M277.867 327.222V333.546H276.817V332.611C276.617 332.934 276.336 333.188 275.974 333.373C275.62 333.55 275.228 333.638 274.797 333.638C274.305 333.638 273.863 333.538 273.47 333.338C273.078 333.13 272.766 332.823 272.535 332.415C272.312 332.007 272.201 331.511 272.201 330.926V327.222H273.239V330.788C273.239 331.411 273.397 331.892 273.712 332.23C274.028 332.561 274.459 332.726 275.005 332.726C275.567 332.726 276.009 332.553 276.332 332.207C276.655 331.861 276.817 331.357 276.817 330.695V327.222H277.867Z" fill="black"/>
<path d="M280.69 328.387C280.898 328.026 281.206 327.726 281.613 327.487C282.029 327.241 282.51 327.118 283.056 327.118C283.617 327.118 284.125 327.253 284.579 327.522C285.041 327.791 285.402 328.172 285.664 328.664C285.925 329.149 286.056 329.715 286.056 330.361C286.056 330.999 285.925 331.569 285.664 332.069C285.402 332.569 285.041 332.957 284.579 333.234C284.125 333.511 283.617 333.65 283.056 333.65C282.517 333.65 282.04 333.53 281.625 333.292C281.217 333.046 280.906 332.742 280.69 332.38V336.546H279.64V327.222H280.69V328.387ZM284.983 330.361C284.983 329.884 284.887 329.468 284.694 329.114C284.502 328.761 284.241 328.491 283.91 328.307C283.587 328.122 283.229 328.03 282.837 328.03C282.452 328.03 282.094 328.126 281.763 328.318C281.44 328.503 281.179 328.776 280.979 329.138C280.786 329.491 280.69 329.903 280.69 330.372C280.69 330.849 280.786 331.269 280.979 331.63C281.179 331.984 281.44 332.257 281.763 332.45C282.094 332.634 282.452 332.726 282.837 332.726C283.229 332.726 283.587 332.634 283.91 332.45C284.241 332.257 284.502 331.984 284.694 331.63C284.887 331.269 284.983 330.845 284.983 330.361Z" fill="black"/>
<path d="M293.208 330.142C293.208 330.342 293.197 330.553 293.174 330.776H288.119C288.158 331.399 288.369 331.888 288.754 332.242C289.146 332.588 289.62 332.761 290.173 332.761C290.627 332.761 291.004 332.657 291.304 332.45C291.612 332.234 291.828 331.949 291.951 331.596H293.082C292.912 332.203 292.574 332.7 292.066 333.084C291.558 333.461 290.927 333.65 290.173 333.65C289.573 333.65 289.035 333.515 288.558 333.246C288.089 332.977 287.719 332.596 287.45 332.103C287.181 331.603 287.046 331.026 287.046 330.372C287.046 329.718 287.177 329.145 287.438 328.653C287.7 328.16 288.065 327.784 288.535 327.522C289.012 327.253 289.558 327.118 290.173 327.118C290.774 327.118 291.304 327.249 291.766 327.51C292.228 327.772 292.581 328.134 292.828 328.595C293.082 329.049 293.208 329.565 293.208 330.142ZM292.124 329.922C292.124 329.522 292.035 329.18 291.858 328.895C291.681 328.603 291.439 328.384 291.131 328.237C290.831 328.084 290.497 328.007 290.127 328.007C289.596 328.007 289.143 328.176 288.766 328.514C288.396 328.853 288.185 329.322 288.131 329.922H292.124Z" fill="black"/>
<path d="M295.645 328.249C295.829 327.887 296.091 327.607 296.429 327.407C296.776 327.207 297.195 327.107 297.687 327.107V328.191H297.41C296.233 328.191 295.645 328.83 295.645 330.107V333.546H294.595V327.222H295.645V328.249Z" fill="black"/>
<path d="M298.507 330.361C298.507 329.715 298.638 329.149 298.9 328.664C299.161 328.172 299.519 327.791 299.973 327.522C300.434 327.253 300.946 327.118 301.508 327.118C302.062 327.118 302.542 327.237 302.95 327.476C303.358 327.714 303.662 328.014 303.862 328.376V327.222H304.923V333.546H303.862V332.369C303.654 332.738 303.342 333.046 302.927 333.292C302.519 333.53 302.042 333.65 301.496 333.65C300.934 333.65 300.427 333.511 299.973 333.234C299.519 332.957 299.161 332.569 298.9 332.069C298.638 331.569 298.507 330.999 298.507 330.361ZM303.862 330.372C303.862 329.895 303.766 329.48 303.573 329.126C303.381 328.772 303.119 328.503 302.789 328.318C302.465 328.126 302.108 328.03 301.715 328.03C301.323 328.03 300.965 328.122 300.642 328.307C300.319 328.491 300.061 328.761 299.869 329.114C299.677 329.468 299.58 329.884 299.58 330.361C299.58 330.845 299.677 331.269 299.869 331.63C300.061 331.984 300.319 332.257 300.642 332.45C300.965 332.634 301.323 332.726 301.715 332.726C302.108 332.726 302.465 332.634 302.789 332.45C303.119 332.257 303.381 331.984 303.573 331.63C303.766 331.269 303.862 330.849 303.862 330.372Z" fill="black"/>
<path d="M309.387 332.761C309.848 332.761 310.233 332.653 310.541 332.438C310.849 332.223 311.06 331.915 311.176 331.515H312.306C312.153 332.115 311.849 332.607 311.395 332.992C310.949 333.369 310.387 333.584 309.71 333.638V334.215C310.164 334.207 310.525 334.304 310.795 334.504C311.064 334.704 311.199 334.988 311.199 335.358C311.199 335.719 311.068 336.008 310.806 336.223C310.545 336.438 310.206 336.546 309.791 336.546H308.464V335.865H309.583C309.837 335.865 310.022 335.827 310.137 335.75C310.26 335.673 310.322 335.542 310.322 335.358C310.322 335.181 310.26 335.054 310.137 334.977C310.022 334.9 309.837 334.861 309.583 334.861H309.006V333.627C308.475 333.573 308.006 333.407 307.598 333.13C307.19 332.846 306.871 332.469 306.64 331.999C306.417 331.522 306.306 330.98 306.306 330.372C306.306 329.718 306.436 329.149 306.698 328.664C306.96 328.172 307.321 327.791 307.783 327.522C308.252 327.253 308.787 327.118 309.387 327.118C310.164 327.118 310.802 327.307 311.302 327.683C311.81 328.06 312.145 328.584 312.306 329.253H311.176C311.068 328.868 310.856 328.564 310.541 328.341C310.233 328.118 309.848 328.007 309.387 328.007C308.787 328.007 308.302 328.214 307.933 328.63C307.564 329.038 307.379 329.618 307.379 330.372C307.379 331.134 307.564 331.722 307.933 332.138C308.302 332.553 308.787 332.761 309.387 332.761Z" fill="black"/>
<path d="M313.315 330.361C313.315 329.715 313.446 329.149 313.708 328.664C313.969 328.172 314.327 327.791 314.781 327.522C315.242 327.253 315.754 327.118 316.316 327.118C316.87 327.118 317.35 327.237 317.758 327.476C318.166 327.714 318.47 328.014 318.67 328.376V327.222H319.732V333.546H318.67V332.369C318.462 332.738 318.151 333.046 317.735 333.292C317.327 333.53 316.85 333.65 316.304 333.65C315.743 333.65 315.235 333.511 314.781 333.234C314.327 332.957 313.969 332.569 313.708 332.069C313.446 331.569 313.315 330.999 313.315 330.361ZM318.67 330.372C318.67 329.895 318.574 329.48 318.381 329.126C318.189 328.772 317.927 328.503 317.597 328.318C317.274 328.126 316.916 328.03 316.523 328.03C316.131 328.03 315.773 328.122 315.45 328.307C315.127 328.491 314.869 328.761 314.677 329.114C314.485 329.468 314.389 329.884 314.389 330.361C314.389 330.845 314.485 331.269 314.677 331.63C314.869 331.984 315.127 332.257 315.45 332.45C315.773 332.634 316.131 332.726 316.523 332.726C316.916 332.726 317.274 332.634 317.597 332.45C317.927 332.257 318.189 331.984 318.381 331.63C318.574 331.269 318.67 330.849 318.67 330.372ZM315.035 326.541C315.089 326.149 315.216 325.849 315.416 325.641C315.623 325.433 315.881 325.329 316.189 325.329C316.335 325.329 316.458 325.356 316.558 325.41C316.666 325.456 316.793 325.526 316.939 325.618C317.047 325.695 317.143 325.756 317.227 325.802C317.312 325.841 317.404 325.86 317.504 325.86C317.635 325.86 317.747 325.818 317.839 325.733C317.931 325.649 317.989 325.526 318.012 325.364H318.612C318.566 325.749 318.439 326.045 318.231 326.253C318.024 326.46 317.766 326.564 317.458 326.564C317.312 326.564 317.181 326.541 317.066 326.495C316.958 326.441 316.835 326.364 316.697 326.264C316.573 326.187 316.473 326.129 316.396 326.091C316.327 326.053 316.243 326.033 316.143 326.033C316.012 326.033 315.9 326.076 315.808 326.16C315.723 326.245 315.669 326.372 315.646 326.541H315.035Z" fill="black"/>
<path d="M324.264 333.65C323.672 333.65 323.133 333.515 322.649 333.246C322.172 332.977 321.795 332.596 321.518 332.103C321.248 331.603 321.114 331.026 321.114 330.372C321.114 329.726 321.252 329.157 321.529 328.664C321.814 328.164 322.199 327.784 322.683 327.522C323.168 327.253 323.71 327.118 324.31 327.118C324.91 327.118 325.453 327.253 325.938 327.522C326.422 327.784 326.803 328.16 327.08 328.653C327.365 329.145 327.507 329.718 327.507 330.372C327.507 331.026 327.361 331.603 327.068 332.103C326.784 332.596 326.395 332.977 325.903 333.246C325.411 333.515 324.864 333.65 324.264 333.65ZM324.264 332.726C324.641 332.726 324.995 332.638 325.326 332.461C325.657 332.284 325.922 332.019 326.122 331.665C326.33 331.311 326.434 330.88 326.434 330.372C326.434 329.865 326.334 329.434 326.134 329.08C325.934 328.726 325.672 328.464 325.349 328.295C325.026 328.118 324.676 328.03 324.299 328.03C323.914 328.03 323.56 328.118 323.237 328.295C322.922 328.464 322.668 328.726 322.476 329.08C322.283 329.434 322.187 329.865 322.187 330.372C322.187 330.888 322.279 331.322 322.464 331.676C322.656 332.03 322.91 332.296 323.226 332.473C323.541 332.642 323.887 332.726 324.264 332.726Z" fill="black"/>
<path d="M256.371 347.671C256.371 347.024 256.501 346.459 256.763 345.974C257.024 345.482 257.382 345.101 257.836 344.832C258.298 344.563 258.813 344.428 259.382 344.428C259.875 344.428 260.333 344.543 260.756 344.774C261.179 344.997 261.502 345.293 261.725 345.663V342.316H262.787V350.856H261.725V349.667C261.517 350.044 261.21 350.356 260.802 350.602C260.394 350.84 259.917 350.96 259.371 350.96C258.809 350.96 258.298 350.821 257.836 350.544C257.382 350.267 257.024 349.879 256.763 349.379C256.501 348.879 256.371 348.309 256.371 347.671ZM261.725 347.682C261.725 347.205 261.629 346.79 261.437 346.436C261.244 346.082 260.983 345.813 260.652 345.628C260.329 345.436 259.971 345.34 259.579 345.34C259.186 345.34 258.829 345.432 258.505 345.617C258.182 345.801 257.925 346.071 257.732 346.424C257.54 346.778 257.444 347.194 257.444 347.671C257.444 348.155 257.54 348.579 257.732 348.94C257.925 349.294 258.182 349.567 258.505 349.759C258.829 349.944 259.186 350.036 259.579 350.036C259.971 350.036 260.329 349.944 260.652 349.759C260.983 349.567 261.244 349.294 261.437 348.94C261.629 348.579 261.725 348.159 261.725 347.682Z" fill="black"/>
<path d="M270.331 347.451C270.331 347.651 270.32 347.863 270.297 348.086H265.242C265.281 348.709 265.492 349.198 265.877 349.552C266.269 349.898 266.742 350.071 267.296 350.071C267.75 350.071 268.127 349.967 268.427 349.759C268.735 349.544 268.95 349.259 269.074 348.906H270.204C270.035 349.513 269.697 350.009 269.189 350.394C268.681 350.771 268.05 350.96 267.296 350.96C266.696 350.96 266.158 350.825 265.681 350.556C265.211 350.286 264.842 349.906 264.573 349.413C264.304 348.913 264.169 348.336 264.169 347.682C264.169 347.028 264.3 346.455 264.561 345.963C264.823 345.47 265.188 345.093 265.658 344.832C266.135 344.563 266.681 344.428 267.296 344.428C267.896 344.428 268.427 344.559 268.889 344.82C269.35 345.082 269.704 345.444 269.951 345.905C270.204 346.359 270.331 346.874 270.331 347.451ZM269.247 347.232C269.247 346.832 269.158 346.49 268.981 346.205C268.804 345.913 268.562 345.694 268.254 345.547C267.954 345.394 267.619 345.317 267.25 345.317C266.719 345.317 266.265 345.486 265.888 345.824C265.519 346.163 265.308 346.632 265.254 347.232H269.247Z" fill="black"/>
<path d="M274.402 347.682C274.402 347.028 274.533 346.459 274.794 345.974C275.056 345.482 275.417 345.101 275.879 344.832C276.348 344.563 276.883 344.428 277.483 344.428C278.26 344.428 278.898 344.616 279.399 344.993C279.906 345.37 280.241 345.894 280.403 346.563H279.272C279.164 346.178 278.952 345.874 278.637 345.651C278.329 345.428 277.944 345.317 277.483 345.317C276.883 345.317 276.398 345.524 276.029 345.94C275.66 346.347 275.475 346.928 275.475 347.682C275.475 348.444 275.66 349.032 276.029 349.448C276.398 349.863 276.883 350.071 277.483 350.071C277.944 350.071 278.329 349.963 278.637 349.748C278.945 349.533 279.156 349.225 279.272 348.825H280.403C280.233 349.471 279.895 349.99 279.387 350.383C278.879 350.767 278.245 350.96 277.483 350.96C276.883 350.96 276.348 350.825 275.879 350.556C275.417 350.286 275.056 349.906 274.794 349.413C274.533 348.921 274.402 348.344 274.402 347.682Z" fill="black"/>
<path d="M281.411 347.671C281.411 347.024 281.542 346.459 281.804 345.974C282.065 345.482 282.423 345.101 282.877 344.832C283.339 344.563 283.85 344.428 284.412 344.428C284.966 344.428 285.446 344.547 285.854 344.786C286.262 345.024 286.566 345.324 286.766 345.686V344.532H287.828V350.856H286.766V349.679C286.558 350.048 286.247 350.356 285.831 350.602C285.423 350.84 284.946 350.96 284.4 350.96C283.839 350.96 283.331 350.821 282.877 350.544C282.423 350.267 282.065 349.879 281.804 349.379C281.542 348.879 281.411 348.309 281.411 347.671ZM286.766 347.682C286.766 347.205 286.67 346.79 286.477 346.436C286.285 346.082 286.023 345.813 285.693 345.628C285.37 345.436 285.012 345.34 284.619 345.34C284.227 345.34 283.869 345.432 283.546 345.617C283.223 345.801 282.965 346.071 282.773 346.424C282.581 346.778 282.485 347.194 282.485 347.671C282.485 348.155 282.581 348.579 282.773 348.94C282.965 349.294 283.223 349.567 283.546 349.759C283.869 349.944 284.227 350.036 284.619 350.036C285.012 350.036 285.37 349.944 285.693 349.759C286.023 349.567 286.285 349.294 286.477 348.94C286.67 348.579 286.766 348.159 286.766 347.682Z" fill="black"/>
<path d="M290.652 345.559C290.837 345.197 291.099 344.917 291.437 344.717C291.783 344.516 292.203 344.416 292.695 344.416V345.501H292.418C291.241 345.501 290.652 346.14 290.652 347.417V350.856H289.602V344.532H290.652V345.559Z" fill="black"/>
<path d="M294.957 345.559C295.142 345.197 295.404 344.917 295.742 344.717C296.088 344.516 296.508 344.416 297 344.416V345.501H296.723C295.546 345.501 294.957 346.14 294.957 347.417V350.856H293.907V344.532H294.957V345.559Z" fill="black"/>
<path d="M298.754 343.505C298.554 343.505 298.385 343.436 298.247 343.297C298.108 343.159 298.039 342.989 298.039 342.789C298.039 342.589 298.108 342.42 298.247 342.282C298.385 342.143 298.554 342.074 298.754 342.074C298.947 342.074 299.108 342.143 299.239 342.282C299.378 342.42 299.447 342.589 299.447 342.789C299.447 342.989 299.378 343.159 299.239 343.297C299.108 343.436 298.947 343.505 298.754 343.505ZM299.262 344.532V350.856H298.212V344.532H299.262Z" fill="black"/>
<path d="M304.133 344.416C304.903 344.416 305.526 344.651 306.003 345.12C306.48 345.582 306.718 346.251 306.718 347.128V350.856H305.68V347.278C305.68 346.648 305.522 346.167 305.206 345.836C304.891 345.497 304.46 345.328 303.914 345.328C303.36 345.328 302.918 345.501 302.587 345.847C302.264 346.194 302.102 346.698 302.102 347.359V350.856H301.052V344.532H302.102V345.432C302.31 345.109 302.591 344.859 302.945 344.682C303.306 344.505 303.702 344.416 304.133 344.416Z" fill="black"/>
<path d="M311.572 344.416C312.049 344.416 312.48 344.52 312.865 344.728C313.25 344.928 313.55 345.232 313.765 345.64C313.988 346.047 314.1 346.544 314.1 347.128V350.856H313.061V347.278C313.061 346.648 312.903 346.167 312.588 345.836C312.273 345.497 311.842 345.328 311.295 345.328C310.742 345.328 310.299 345.501 309.968 345.847C309.645 346.194 309.484 346.698 309.484 347.359V350.856H308.434V342.316H309.484V345.432C309.691 345.109 309.976 344.859 310.338 344.682C310.707 344.505 311.119 344.416 311.572 344.416Z" fill="black"/>
<path d="M318.573 350.96C317.981 350.96 317.442 350.825 316.958 350.556C316.481 350.286 316.104 349.906 315.827 349.413C315.557 348.913 315.423 348.336 315.423 347.682C315.423 347.036 315.561 346.467 315.838 345.974C316.123 345.474 316.507 345.093 316.992 344.832C317.477 344.563 318.019 344.428 318.619 344.428C319.219 344.428 319.762 344.563 320.246 344.832C320.731 345.093 321.112 345.47 321.389 345.963C321.674 346.455 321.816 347.028 321.816 347.682C321.816 348.336 321.67 348.913 321.377 349.413C321.093 349.906 320.704 350.286 320.212 350.556C319.719 350.825 319.173 350.96 318.573 350.96ZM318.573 350.036C318.95 350.036 319.304 349.948 319.635 349.771C319.966 349.594 320.231 349.329 320.431 348.975C320.639 348.621 320.743 348.19 320.743 347.682C320.743 347.175 320.643 346.744 320.443 346.39C320.243 346.036 319.981 345.774 319.658 345.605C319.335 345.428 318.985 345.34 318.608 345.34C318.223 345.34 317.869 345.428 317.546 345.605C317.231 345.774 316.977 346.036 316.784 346.39C316.592 346.744 316.496 347.175 316.496 347.682C316.496 348.198 316.588 348.632 316.773 348.986C316.965 349.34 317.219 349.606 317.535 349.783C317.85 349.952 318.196 350.036 318.573 350.036Z" fill="black"/>
<path d="M92.6494 77.5683C92.6494 71.7743 97.3463 67.0774 103.14 67.0774H112.582C118.376 67.0774 123.073 71.7743 123.073 77.5683V112.713C123.073 118.507 118.376 123.204 112.582 123.204H103.14C97.3463 123.204 92.6494 118.507 92.6494 112.713V77.5683Z" fill="#EDF8FF"/>
<path d="M90.7091 135.355C90.3393 135.853 90.4798 136.551 90.9753 136.915C91.1824 137.049 91.4117 137.145 91.604 137.145C91.9738 137.145 92.3066 136.982 92.5359 136.685C92.8983 136.187 92.8021 135.452 92.2696 135.117C91.7667 134.761 91.0789 134.85 90.7091 135.355Z" fill="#1A171B"/>
<path d="M91.5378 91.8969C91.7671 91.8969 92.0038 91.8374 92.2035 91.6666C92.699 91.3025 92.8026 90.6042 92.4328 90.1065C92.063 89.6087 91.3751 89.5047 90.8796 89.839C90.3767 90.2328 90.2805 90.9385 90.6429 91.4363C90.85 91.7334 91.205 91.8969 91.5378 91.8969Z" fill="#1A171B"/>
<path d="M99.7251 138.921C99.126 138.72 98.5047 139.055 98.3346 139.649C98.1349 140.213 98.4382 140.852 99.0373 141.053C99.163 141.083 99.3035 141.112 99.3997 141.112C99.8656 141.112 100.295 140.815 100.465 140.347C100.657 139.745 100.324 139.114 99.7251 138.921Z" fill="#1A171B"/>
<path d="M81.1313 121.003C80.5322 121.166 80.2364 121.798 80.4361 122.399C80.5618 122.867 81.0277 123.194 81.4937 123.194C81.5898 123.194 81.6934 123.157 81.8265 123.135C82.4182 122.927 82.751 122.303 82.5513 121.701C82.3516 121.099 81.7304 120.802 81.1313 121.003Z" fill="#1A171B"/>
<path d="M81.2348 113.411C81.2348 112.779 80.7319 112.281 80.1106 112.281C79.5115 112.281 78.979 112.779 78.979 113.411C79.016 114.042 79.5115 114.54 80.1032 114.54C80.7319 114.547 81.2348 114.05 81.2348 113.411Z" fill="#1A171B"/>
<path d="M84.8145 128.929C84.282 129.301 84.1858 129.992 84.5482 130.497C84.7775 130.794 85.1103 130.957 85.4432 130.957C85.6724 130.957 85.9017 130.89 86.1014 130.757C86.6413 130.385 86.7301 129.687 86.3751 129.152C86.0053 128.662 85.31 128.558 84.8145 128.929Z" fill="#1A171B"/>
<path d="M85.3766 98.0999C85.7464 98.0999 86.0793 97.9291 86.3085 97.6319C86.6709 97.1342 86.5748 96.4359 86.0423 96.0719C85.5393 95.7005 84.8441 95.8045 84.4817 96.3022C84.1193 96.7999 84.2524 97.5056 84.748 97.8994C84.9477 98.0331 85.1769 98.0999 85.3766 98.0999Z" fill="#1A171B"/>
<path d="M81.094 105.848C81.2272 105.885 81.3233 105.885 81.4638 105.885C81.9224 105.885 82.3588 105.588 82.5215 105.12C82.7212 104.518 82.3957 103.887 81.7967 103.686C81.1976 103.486 80.5689 103.82 80.4062 104.414C80.1991 105.016 80.5319 105.655 81.094 105.848Z" fill="#1A171B"/>
<path d="M129.598 129.122C129.228 129.628 129.332 130.356 129.864 130.69C130.064 130.853 130.293 130.92 130.522 130.92C130.855 130.92 131.188 130.757 131.417 130.46C131.787 129.962 131.647 129.256 131.151 128.892C130.655 128.528 129.96 128.625 129.598 129.122Z" fill="#1A171B"/>
<path d="M130.426 97.9588C130.655 97.9588 130.885 97.8919 131.121 97.7285C131.587 97.3571 131.72 96.6662 131.358 96.161C130.988 95.6633 130.293 95.5668 129.797 95.9308C129.265 96.3022 129.169 97.0005 129.531 97.4982C129.76 97.7954 130.093 97.9588 130.426 97.9588Z" fill="#1A171B"/>
<path d="M107.979 140.213C107.35 140.213 106.884 140.719 106.884 141.343C106.884 141.944 107.343 142.45 107.979 142.45C108.608 142.45 109.103 141.944 109.103 141.343C109.11 140.719 108.615 140.213 107.979 140.213Z" fill="#1A171B"/>
<path d="M135.833 112.111C135.204 112.111 134.708 112.645 134.708 113.24V113.344C134.708 113.975 135.204 114.473 135.833 114.473C136.454 114.473 136.927 113.975 136.927 113.344V113.307C136.927 113.269 136.927 113.269 136.927 113.269C136.927 112.616 136.432 112.111 135.833 112.111Z" fill="#1A171B"/>
<path d="M134.797 120.936C134.235 120.735 133.577 121.069 133.407 121.671C133.207 122.236 133.54 122.875 134.139 123.068C134.235 123.105 134.339 123.135 134.472 123.135C134.93 123.135 135.359 122.838 135.529 122.332C135.729 121.731 135.396 121.136 134.797 120.936Z" fill="#1A171B"/>
<path d="M134.442 105.759C134.538 105.759 134.671 105.722 134.768 105.692C135.367 105.491 135.699 104.86 135.5 104.258C135.3 103.656 134.671 103.359 134.072 103.552C133.51 103.76 133.177 104.392 133.37 104.957C133.51 105.425 133.969 105.759 134.442 105.759Z" fill="#1A171B"/>
<path d="M116.241 138.884C115.678 139.084 115.346 139.716 115.516 140.318C115.678 140.778 116.107 141.083 116.61 141.083C116.707 141.083 116.84 141.083 116.943 141.053C117.535 140.845 117.868 140.214 117.668 139.619C117.468 139.018 116.832 138.72 116.241 138.884Z" fill="#1A171B"/>
<path d="M123.696 135.095C123.193 135.459 123.067 136.157 123.459 136.655C123.666 136.952 124.021 137.116 124.354 137.116C124.583 137.116 124.79 137.056 125.019 136.885C125.515 136.514 125.619 135.823 125.249 135.325C124.886 134.82 124.191 134.724 123.696 135.095Z" fill="#1A171B"/>
<path d="M124.265 91.8004C124.628 91.8004 124.96 91.6295 125.19 91.3324C125.522 90.8346 125.426 90.1363 124.923 89.7352C124.923 89.7723 124.923 89.7723 124.923 89.7723C124.428 89.4009 123.725 89.5049 123.37 90.0026C123 90.5004 123.104 91.2061 123.6 91.6072C123.792 91.7335 124.028 91.8004 124.265 91.8004Z" fill="#1A171B"/>
<path d="M119.022 98.9615C121.507 76.6158 109.214 68.6967 108.549 68.2956C108.482 68.2584 108.423 68.2584 108.349 68.2287C108.282 68.2287 108.245 68.1916 108.179 68.1619C108.12 68.1619 108.053 68.1619 107.979 68.1619C107.876 68.1619 107.816 68.1619 107.75 68.1619C107.683 68.199 107.646 68.199 107.617 68.2287C107.521 68.2659 107.454 68.2659 107.351 68.2956C106.729 68.6893 94.4222 76.6158 96.9073 98.9615C85.4434 108.418 89.3855 120.876 89.452 121.003C89.5482 121.374 89.881 121.671 90.2804 121.731C90.3396 121.731 90.4061 121.768 90.4801 121.768C90.8129 121.768 91.1457 121.604 91.3454 121.374C94.2965 117.808 98.2682 117.177 100.465 117.147L98.4087 121.203C98.246 121.575 98.2756 121.976 98.4752 122.31C98.6749 122.637 99.0373 122.845 99.4293 122.845H116.507C116.906 122.845 117.269 122.637 117.468 122.31C117.668 121.976 117.698 121.575 117.505 121.203L115.479 117.147C117.668 117.184 121.61 117.808 124.591 121.374C124.798 121.604 125.131 121.768 125.427 121.768C125.523 121.768 125.589 121.731 125.656 121.731C126.048 121.671 126.381 121.367 126.521 121.003C126.551 120.876 130.493 108.418 119.022 98.9615ZM112.927 114.941H107.95H103.046C100.923 109.013 99.7622 103.79 99.2001 99.1918C99.2001 99.1546 99.2001 99.1546 99.2001 99.1546C98.3347 91.9636 99.0743 86.3995 100.428 82.1428H115.516C116.877 86.4069 117.565 91.9636 116.736 99.1249C116.736 99.1249 116.736 99.1621 116.736 99.1918C116.167 103.79 115.005 109.013 112.927 114.941ZM107.95 70.6208C109.281 71.6237 112.461 74.454 114.68 79.8844H101.256C103.475 74.454 106.655 71.6237 107.95 70.6208ZM91.1457 118.373C90.6132 115.008 90.5467 107.854 97.2771 101.628C97.8762 105.625 99.0004 110.023 100.657 114.881C98.4013 114.911 94.4888 115.409 91.1457 118.373ZM101.219 120.601L102.942 117.207H107.95H112.986L114.68 120.601H101.219ZM124.79 118.373C121.44 115.416 117.528 114.918 115.309 114.881C116.965 110.023 118.03 105.618 118.659 101.628C125.39 107.846 125.323 115.008 124.79 118.373Z" fill="#1A171B"/>
<path d="M107.949 87.811C105.168 87.811 102.913 90.0768 102.913 92.87C102.913 95.6632 105.168 97.929 107.949 97.929C110.73 97.929 112.986 95.6632 112.986 92.87C112.986 90.0768 110.73 87.811 107.949 87.811ZM107.949 95.7004C106.426 95.7004 105.168 94.4375 105.168 92.87C105.168 91.31 106.433 90.0397 107.949 90.0397C109.51 90.0397 110.767 91.31 110.767 92.87C110.767 94.4375 109.51 95.7004 107.949 95.7004Z" fill="#1A171B"/>
<path d="M107.95 135.385C108.578 135.385 109.074 134.887 109.074 134.256V127.964C109.074 127.362 108.578 126.857 107.95 126.857C107.351 126.857 106.855 127.362 106.855 127.964V134.248C106.855 134.887 107.351 135.385 107.95 135.385Z" fill="#1A171B"/>
<path d="M113.585 128.833C112.964 128.833 112.461 129.33 112.461 129.962V136.247C112.461 136.878 112.964 137.376 113.585 137.376C114.184 137.376 114.68 136.878 114.68 136.247V129.962C114.68 129.33 114.184 128.833 113.585 128.833Z" fill="#1A171B"/>
<path d="M102.351 124.866C101.752 124.866 101.256 125.371 101.256 125.995V132.287C101.256 132.889 101.752 133.387 102.351 133.387C102.98 133.387 103.475 132.889 103.475 132.287V125.995C103.475 125.371 102.98 124.866 102.351 124.866Z" fill="#1A171B"/>
<path d="M83.7961 45.1273C83.7961 45.7967 83.5653 46.3544 83.1037 46.8006C82.6498 47.2391 81.9535 47.4584 81.015 47.4584H79.4686V50.8165H78.4185V42.7732H81.015C81.9228 42.7732 82.6113 42.9924 83.0806 43.431C83.5576 43.8695 83.7961 44.4349 83.7961 45.1273ZM81.015 46.5929C81.5996 46.5929 82.0305 46.466 82.3074 46.2121C82.5844 45.9582 82.7229 45.5966 82.7229 45.1273C82.7229 44.1349 82.1536 43.6387 81.015 43.6387H79.4686V46.5929H81.015Z" fill="black"/>
<path d="M90.8713 47.4122C90.8713 47.6123 90.8597 47.8238 90.8366 48.0469H85.7821C85.8206 48.6701 86.0322 49.1586 86.4168 49.5125C86.8092 49.8587 87.2823 50.0318 87.8362 50.0318C88.2902 50.0318 88.6671 49.928 88.9672 49.7202C89.2749 49.5048 89.4903 49.2202 89.6134 48.8663H90.7443C90.5751 49.4741 90.2366 49.9703 89.7288 50.3549C89.221 50.7319 88.5902 50.9204 87.8362 50.9204C87.2362 50.9204 86.6976 50.7858 86.2207 50.5165C85.7514 50.2472 85.3821 49.8664 85.1128 49.374C84.8435 48.874 84.7089 48.297 84.7089 47.643C84.7089 46.9891 84.8397 46.416 85.1013 45.9236C85.3628 45.4312 85.7283 45.0542 86.1976 44.7927C86.6746 44.5234 87.2208 44.3888 87.8362 44.3888C88.4363 44.3888 88.9672 44.5196 89.4288 44.7811C89.8904 45.0427 90.2443 45.4043 90.4904 45.8659C90.7443 46.3198 90.8713 46.8352 90.8713 47.4122ZM89.7865 47.193C89.7865 46.7929 89.698 46.4506 89.5211 46.1659C89.3441 45.8736 89.1018 45.6543 88.7941 45.5082C88.494 45.3543 88.1594 45.2774 87.7901 45.2774C87.2592 45.2774 86.8053 45.4466 86.4284 45.7851C86.0591 46.1236 85.8475 46.5929 85.7937 47.193H89.7865Z" fill="black"/>
<path d="M93.3075 45.5197C93.4922 45.1581 93.7538 44.8773 94.0923 44.6773C94.4385 44.4772 94.8577 44.3772 95.3501 44.3772V45.462H95.0732C93.8961 45.462 93.3075 46.1005 93.3075 47.3776V50.8165H92.2574V44.4926H93.3075V45.5197Z" fill="black"/>
<path d="M99.1358 45.3581H97.8087V50.8165H96.7585V45.3581H95.9392V44.4926H96.7585V44.0426C96.7585 43.3348 96.9393 42.8193 97.3009 42.4962C97.6702 42.1654 98.2587 42 99.0665 42V42.877C98.6049 42.877 98.278 42.9694 98.0856 43.154C97.901 43.3309 97.8087 43.6271 97.8087 44.0426V44.4926H99.1358V45.3581Z" fill="black"/>
<path d="M103.118 50.9204C102.526 50.9204 101.987 50.7858 101.503 50.5165C101.026 50.2472 100.649 49.8664 100.372 49.374C100.102 48.874 99.9678 48.297 99.9678 47.643C99.9678 46.9968 100.106 46.4275 100.383 45.9351C100.668 45.4351 101.053 45.0542 101.537 44.7927C102.022 44.5234 102.564 44.3888 103.164 44.3888C103.764 44.3888 104.307 44.5234 104.792 44.7927C105.276 45.0542 105.657 45.4312 105.934 45.9236C106.219 46.416 106.361 46.9891 106.361 47.643C106.361 48.297 106.215 48.874 105.922 49.374C105.638 49.8664 105.249 50.2472 104.757 50.5165C104.265 50.7858 103.718 50.9204 103.118 50.9204ZM103.118 49.9972C103.495 49.9972 103.849 49.9087 104.18 49.7318C104.511 49.5548 104.776 49.2894 104.976 48.9355C105.184 48.5816 105.288 48.1508 105.288 47.643C105.288 47.1353 105.188 46.7045 104.988 46.3506C104.788 45.9967 104.526 45.7351 104.203 45.5659C103.88 45.3889 103.53 45.3004 103.153 45.3004C102.768 45.3004 102.414 45.3889 102.091 45.5659C101.776 45.7351 101.522 45.9967 101.33 46.3506C101.137 46.7045 101.041 47.1353 101.041 47.643C101.041 48.1585 101.133 48.5932 101.318 48.9471C101.51 49.301 101.764 49.5664 102.08 49.7433C102.395 49.9126 102.741 49.9972 103.118 49.9972Z" fill="black"/>
<path d="M108.792 45.5197C108.976 45.1581 109.238 44.8773 109.577 44.6773C109.923 44.4772 110.342 44.3772 110.834 44.3772V45.462H110.557C109.38 45.462 108.792 46.1005 108.792 47.3776V50.8165H107.742V44.4926H108.792V45.5197Z" fill="black"/>
<path d="M119.651 44.3772C120.144 44.3772 120.582 44.4811 120.967 44.6888C121.352 44.8888 121.656 45.1927 121.879 45.6005C122.102 46.0082 122.213 46.5044 122.213 47.0891V50.8165H121.175V47.2391C121.175 46.6083 121.017 46.1275 120.702 45.7967C120.394 45.4581 119.975 45.2889 119.444 45.2889C118.898 45.2889 118.463 45.4658 118.14 45.8197C117.817 46.1659 117.655 46.6698 117.655 47.3315V50.8165H116.616V47.2391C116.616 46.6083 116.459 46.1275 116.143 45.7967C115.836 45.4581 115.416 45.2889 114.885 45.2889C114.339 45.2889 113.905 45.4658 113.581 45.8197C113.258 46.1659 113.097 46.6698 113.097 47.3315V50.8165H112.047V44.4926H113.097V45.4043C113.305 45.0735 113.581 44.8196 113.928 44.6427C114.282 44.4657 114.67 44.3772 115.093 44.3772C115.624 44.3772 116.093 44.4965 116.501 44.735C116.909 44.9735 117.213 45.3235 117.413 45.7851C117.59 45.3389 117.882 44.9927 118.29 44.7465C118.698 44.5003 119.151 44.3772 119.651 44.3772Z" fill="black"/>
<path d="M123.544 47.6315C123.544 46.9853 123.674 46.4198 123.936 45.9351C124.198 45.4428 124.555 45.0619 125.009 44.7927C125.471 44.5234 125.982 44.3888 126.544 44.3888C127.098 44.3888 127.579 44.508 127.987 44.7465C128.394 44.985 128.698 45.285 128.898 45.6466V44.4926H129.96V50.8165H128.898V49.6395C128.69 50.0087 128.379 50.3165 127.963 50.5627C127.556 50.8012 127.079 50.9204 126.532 50.9204C125.971 50.9204 125.463 50.7819 125.009 50.505C124.555 50.228 124.198 49.8395 123.936 49.3394C123.674 48.8394 123.544 48.2701 123.544 47.6315ZM128.898 47.643C128.898 47.1661 128.802 46.7506 128.61 46.3967C128.417 46.0428 128.156 45.7736 127.825 45.5889C127.502 45.3966 127.144 45.3004 126.752 45.3004C126.359 45.3004 126.002 45.3928 125.679 45.5774C125.355 45.762 125.098 46.0313 124.905 46.3852C124.713 46.7391 124.617 47.1545 124.617 47.6315C124.617 48.1162 124.713 48.5393 124.905 48.9009C125.098 49.2548 125.355 49.5279 125.679 49.7202C126.002 49.9049 126.359 49.9972 126.752 49.9972C127.144 49.9972 127.502 49.9049 127.825 49.7202C128.156 49.5279 128.417 49.2548 128.61 48.9009C128.802 48.5393 128.898 48.12 128.898 47.643Z" fill="black"/>
<path d="M131.342 47.643C131.342 46.9891 131.473 46.4198 131.734 45.9351C131.996 45.4428 132.358 45.0619 132.819 44.7927C133.289 44.5234 133.823 44.3888 134.423 44.3888C135.2 44.3888 135.839 44.5773 136.339 44.9542C136.847 45.3312 137.181 45.8544 137.343 46.5237H136.212C136.104 46.139 135.893 45.8351 135.577 45.612C135.27 45.3889 134.885 45.2774 134.423 45.2774C133.823 45.2774 133.339 45.4851 132.969 45.9005C132.6 46.3083 132.415 46.8891 132.415 47.643C132.415 48.4047 132.6 48.9932 132.969 49.4087C133.339 49.8241 133.823 50.0318 134.423 50.0318C134.885 50.0318 135.27 49.9241 135.577 49.7087C135.885 49.4933 136.097 49.1856 136.212 48.7855H137.343C137.174 49.4317 136.835 49.951 136.327 50.3434C135.82 50.7281 135.185 50.9204 134.423 50.9204C133.823 50.9204 133.289 50.7858 132.819 50.5165C132.358 50.2472 131.996 49.8664 131.734 49.374C131.473 48.8817 131.342 48.3047 131.342 47.643Z" fill="black"/>
<path d="M144.514 47.4122C144.514 47.6123 144.503 47.8238 144.479 48.0469H139.425C139.463 48.6701 139.675 49.1586 140.06 49.5125C140.452 49.8587 140.925 50.0318 141.479 50.0318C141.933 50.0318 142.31 49.928 142.61 49.7202C142.918 49.5048 143.133 49.2202 143.256 48.8663H144.387C144.218 49.4741 143.879 49.9703 143.372 50.3549C142.864 50.7319 142.233 50.9204 141.479 50.9204C140.879 50.9204 140.34 50.7858 139.863 50.5165C139.394 50.2472 139.025 49.8664 138.756 49.374C138.486 48.874 138.352 48.297 138.352 47.643C138.352 46.9891 138.483 46.416 138.744 45.9236C139.006 45.4312 139.371 45.0542 139.84 44.7927C140.317 44.5234 140.864 44.3888 141.479 44.3888C142.079 44.3888 142.61 44.5196 143.072 44.7811C143.533 45.0427 143.887 45.4043 144.133 45.8659C144.387 46.3198 144.514 46.8352 144.514 47.4122ZM143.429 47.193C143.429 46.7929 143.341 46.4506 143.164 46.1659C142.987 45.8736 142.745 45.6543 142.437 45.5082C142.137 45.3543 141.802 45.2774 141.433 45.2774C140.902 45.2774 140.448 45.4466 140.071 45.7851C139.702 46.1236 139.49 46.5929 139.437 47.193H143.429Z" fill="black"/>
<path d="M296.697 80.7156C302.491 80.7156 307.188 85.4125 307.188 91.2065L307.188 105.369C307.188 111.163 302.491 115.86 296.697 115.86L284.108 115.86C278.314 115.86 273.617 111.163 273.617 105.369L273.617 91.2065C273.617 85.4125 278.314 80.7156 284.108 80.7156L296.697 80.7156Z" fill="#EDF8FF"/>
<path d="M270.604 87.4692L274.803 82.9325C275.408 82.2625 275.744 81.3863 275.744 80.477C275.744 79.5677 275.408 78.6915 274.803 78.0216C274.498 77.7011 274.132 77.4462 273.727 77.2722C273.322 77.0982 272.888 77.0085 272.448 77.0085C272.009 77.0085 271.574 77.0982 271.169 77.2722C270.765 77.4462 270.399 77.7011 270.093 78.0216L269.893 78.2399L269.69 78.0216C269.389 77.6916 269.025 77.4282 268.62 77.248C268.215 77.0678 267.777 76.9747 267.335 76.9745V76.9745C266.892 76.9747 266.455 77.0678 266.049 77.248C265.644 77.4282 265.28 77.6915 264.979 78.0216C264.374 78.6915 264.039 79.5677 264.039 80.477C264.039 81.3863 264.374 82.2625 264.979 82.9325L269.179 87.4692C269.27 87.5678 269.38 87.6463 269.503 87.6999C269.625 87.7536 269.757 87.7813 269.89 87.7813C270.023 87.7813 270.155 87.7536 270.277 87.6999C270.399 87.6463 270.51 87.5678 270.601 87.4692H270.604ZM266.404 81.5718C266.139 81.2708 265.993 80.881 265.993 80.477C265.993 80.0731 266.139 79.6833 266.404 79.3823C266.523 79.2503 266.667 79.1445 266.828 79.0718C266.988 78.999 267.162 78.9608 267.338 78.9595C267.514 78.9605 267.687 78.9986 267.848 79.0714C268.008 79.1442 268.152 79.25 268.271 79.3823L269.185 80.3689C269.373 80.5601 269.629 80.6675 269.896 80.6675C270.162 80.6675 270.418 80.5601 270.607 80.3689L271.521 79.3823C271.641 79.2532 271.786 79.1503 271.946 79.08C272.106 79.0097 272.279 78.9734 272.454 78.9734C272.629 78.9734 272.802 79.0097 272.962 79.08C273.123 79.1503 273.267 79.2532 273.387 79.3823C273.652 79.6833 273.799 80.0731 273.799 80.477C273.799 80.881 273.652 81.2708 273.387 81.5718L269.893 85.3403L266.404 81.5718Z" fill="black"/>
<path d="M310.033 117.91L308.752 120.549L305.886 120.973C305.705 120.999 305.536 121.077 305.396 121.196C305.257 121.315 305.153 121.472 305.097 121.648C305.041 121.824 305.034 122.013 305.078 122.193C305.122 122.373 305.214 122.537 305.345 122.666L307.418 124.72L306.93 127.62C306.899 127.803 306.919 127.991 306.987 128.162C307.056 128.334 307.17 128.483 307.318 128.592C307.465 128.701 307.64 128.766 307.822 128.779C308.004 128.792 308.185 128.754 308.347 128.668L310.912 127.3L313.476 128.669C313.616 128.744 313.772 128.783 313.93 128.783C314.073 128.783 314.213 128.751 314.342 128.69C314.471 128.629 314.586 128.541 314.677 128.43C314.769 128.32 314.836 128.19 314.873 128.05C314.91 127.911 314.917 127.765 314.893 127.622L314.405 124.722L316.478 122.668C316.609 122.539 316.701 122.375 316.745 122.195C316.789 122.015 316.782 121.826 316.726 121.65C316.67 121.474 316.566 121.317 316.427 121.198C316.287 121.079 316.118 121.001 315.937 120.975L313.071 120.551L311.791 117.91C311.702 117.754 311.574 117.624 311.419 117.534C311.265 117.444 311.09 117.397 310.912 117.397C310.735 117.397 310.56 117.444 310.406 117.534C310.251 117.624 310.123 117.754 310.033 117.91V117.91ZM312.28 122.439L313.696 122.648L312.67 123.666C312.557 123.779 312.472 123.917 312.423 124.07C312.374 124.223 312.362 124.386 312.389 124.545L312.631 125.978L311.362 125.302C311.222 125.227 311.066 125.188 310.908 125.188C310.749 125.188 310.594 125.227 310.453 125.302L309.184 125.978L309.426 124.545C309.454 124.387 309.444 124.224 309.397 124.072C309.349 123.919 309.266 123.779 309.154 123.666L308.13 122.652L309.546 122.443C309.703 122.419 309.852 122.358 309.98 122.263C310.108 122.169 310.211 122.044 310.282 121.9L310.912 120.589L311.545 121.894C311.615 122.039 311.718 122.164 311.846 122.259C311.974 122.355 312.123 122.417 312.28 122.441V122.439Z" fill="black"/>
<path d="M308.959 77.4152H307.006V79.4001H308.959V77.4152Z" fill="black"/>
<path d="M314.819 77.4152H312.866V79.4001H314.819V77.4152Z" fill="black"/>
<path d="M310.913 85.3553C310.136 85.3553 309.39 85.0416 308.841 84.4832C308.291 83.9248 307.983 83.1674 307.983 82.3777H306.029C306.029 83.6939 306.544 84.9561 307.46 85.8868C308.375 86.8175 309.617 87.3404 310.913 87.3404C312.208 87.3404 313.45 86.8175 314.366 85.8868C315.281 84.9561 315.796 83.6939 315.796 82.3777H313.843C313.843 83.1674 313.534 83.9248 312.984 84.4832C312.435 85.0416 311.69 85.3553 310.913 85.3553V85.3553Z" fill="black"/>
<path d="M320.679 81.8815C320.677 79.3367 319.713 76.8899 317.986 75.0467C316.26 73.2035 313.902 72.1047 311.401 71.9773C308.9 71.8499 306.447 72.7037 304.547 74.3621C302.648 76.0206 301.448 78.3571 301.196 80.889H279.612C279.427 79.02 278.724 77.2426 277.585 75.7634C276.446 74.2842 274.917 73.1639 273.176 72.5327C271.435 71.9015 269.553 71.7853 267.75 72.1976C265.947 72.6099 264.296 73.5338 262.988 74.8619C261.681 76.19 260.772 77.8678 260.366 79.7004C259.96 81.5329 260.074 83.4449 260.695 85.2142C261.315 86.9834 262.417 88.5374 263.873 89.6954C265.328 90.8534 267.077 91.5679 268.916 91.756V113.691C267.077 113.878 265.328 114.592 263.872 115.75C262.417 116.908 261.315 118.462 260.693 120.231C260.072 122 259.958 123.912 260.364 125.745C260.769 127.577 261.679 129.255 262.985 130.583C264.292 131.912 265.943 132.836 267.747 133.249C269.55 133.661 271.431 133.545 273.172 132.915C274.913 132.284 276.442 131.164 277.582 129.685C278.721 128.206 279.425 126.429 279.61 124.56H301.194C301.378 126.429 302.081 128.206 303.22 129.685C304.36 131.164 305.889 132.285 307.63 132.916C309.37 133.547 311.252 133.663 313.055 133.251C314.858 132.839 316.51 131.915 317.817 130.587C319.124 129.258 320.033 127.581 320.439 125.748C320.845 123.916 320.731 122.004 320.111 120.234C319.49 118.465 318.388 116.911 316.932 115.753C315.477 114.595 313.728 113.881 311.889 113.693V91.758C314.297 91.5091 316.529 90.3615 318.153 88.5371C319.776 86.7128 320.676 84.3413 320.679 81.8815V81.8815ZM262.08 81.8815C262.08 80.3111 262.538 78.7759 263.396 77.4702C264.255 76.1644 265.475 75.1467 266.903 74.5458C268.33 73.9448 269.901 73.7876 271.417 74.0939C272.933 74.4003 274.325 75.1565 275.418 76.267C276.51 77.3774 277.254 78.7922 277.556 80.3324C277.857 81.8727 277.703 83.4692 277.111 84.92C276.52 86.3709 275.519 87.611 274.234 88.4834C272.949 89.3559 271.438 89.8216 269.893 89.8216C267.821 89.8192 265.835 88.9819 264.371 87.4934C262.906 86.0048 262.082 83.9866 262.08 81.8815V81.8815ZM269.893 131.507C268.347 131.507 266.837 131.041 265.552 130.169C264.267 129.297 263.266 128.056 262.674 126.606C262.083 125.155 261.928 123.558 262.23 122.018C262.531 120.478 263.275 119.063 264.368 117.953C265.461 116.842 266.853 116.086 268.369 115.78C269.884 115.473 271.455 115.63 272.883 116.231C274.311 116.832 275.531 117.85 276.389 119.156C277.248 120.462 277.706 121.997 277.706 123.567C277.704 125.672 276.88 127.69 275.415 129.179C273.95 130.667 271.964 131.505 269.893 131.507V131.507ZM279.61 122.575C279.381 120.298 278.387 118.171 276.795 116.553C275.203 114.935 273.11 113.924 270.869 113.693V91.758C273.11 91.5261 275.203 90.5155 276.796 88.897C278.388 87.2784 279.382 85.151 279.61 82.874H301.194C301.422 85.1509 302.416 87.2781 304.009 88.8963C305.602 90.5145 307.695 91.5246 309.936 91.756V113.691C307.695 113.922 305.602 114.933 304.01 116.552C302.417 118.17 301.423 120.298 301.196 122.575H279.61ZM318.726 123.567C318.726 125.137 318.267 126.673 317.409 127.978C316.55 129.284 315.33 130.302 313.902 130.903C312.475 131.504 310.904 131.661 309.388 131.355C307.873 131.048 306.48 130.292 305.388 129.182C304.295 128.071 303.551 126.656 303.249 125.116C302.948 123.576 303.103 121.979 303.694 120.528C304.285 119.078 305.287 117.838 306.572 116.965C307.856 116.093 309.367 115.627 310.912 115.627C312.984 115.629 314.97 116.467 316.435 117.955C317.899 119.444 318.723 121.462 318.726 123.567ZM310.912 89.8216C309.367 89.8216 307.856 89.3559 306.572 88.4834C305.287 87.611 304.285 86.3709 303.694 84.92C303.103 83.4692 302.948 81.8727 303.249 80.3324C303.551 78.7922 304.295 77.3774 305.388 76.267C306.48 75.1565 307.873 74.4003 309.388 74.0939C310.904 73.7876 312.475 73.9448 313.902 74.5458C315.33 75.1467 316.55 76.1644 317.409 77.4702C318.267 78.7759 318.726 80.3111 318.726 81.8815C318.723 83.9866 317.899 86.0048 316.435 87.4934C314.97 88.9819 312.984 89.8192 310.912 89.8216Z" fill="black"/>
<path d="M269.16 120.59H270.625C270.916 120.561 271.206 120.649 271.434 120.834C271.662 121.019 271.81 121.288 271.846 121.582H273.8C273.77 120.804 273.451 120.067 272.907 119.519C272.363 118.97 271.635 118.652 270.87 118.627V117.612H268.916V118.627C268.151 118.652 267.423 118.97 266.879 119.519C266.335 120.067 266.016 120.804 265.986 121.582C266.021 122.404 266.374 123.178 266.969 123.736C267.564 124.294 268.352 124.59 269.16 124.56H270.625C270.772 124.526 270.924 124.527 271.07 124.561C271.217 124.595 271.353 124.662 271.471 124.758C271.588 124.853 271.682 124.974 271.747 125.111C271.813 125.249 271.846 125.4 271.846 125.552C271.846 125.705 271.813 125.855 271.747 125.993C271.682 126.13 271.588 126.251 271.471 126.347C271.353 126.442 271.217 126.509 271.07 126.543C270.924 126.578 270.772 126.578 270.625 126.545H269.16C268.87 126.573 268.58 126.486 268.352 126.3C268.124 126.115 267.976 125.847 267.94 125.552H265.986C266.016 126.33 266.335 127.067 266.879 127.616C267.423 128.164 268.151 128.482 268.916 128.507V129.522H270.87V128.507C271.635 128.482 272.363 128.164 272.907 127.616C273.451 127.067 273.77 126.33 273.8 125.552C273.765 124.73 273.412 123.956 272.817 123.398C272.222 122.84 271.434 122.544 270.625 122.575H269.16C269.014 122.608 268.862 122.608 268.716 122.573C268.569 122.539 268.433 122.472 268.315 122.376C268.198 122.281 268.103 122.16 268.038 122.023C267.973 121.885 267.94 121.735 267.94 121.582C267.94 121.429 267.973 121.279 268.038 121.141C268.103 121.004 268.198 120.883 268.315 120.788C268.433 120.692 268.569 120.625 268.716 120.591C268.862 120.556 269.014 120.556 269.16 120.59V120.59Z" fill="black"/>
<path d="M290.403 88.8136C287.857 88.8136 285.369 89.5717 283.253 90.992C281.137 92.4123 279.487 94.431 278.513 96.7929C277.539 99.1547 277.284 101.754 277.781 104.261C278.278 106.768 279.503 109.072 281.303 110.879C283.103 112.687 285.396 113.918 287.892 114.417C290.388 114.915 292.976 114.659 295.327 113.681C297.679 112.703 299.689 111.046 301.103 108.92C302.517 106.795 303.272 104.296 303.272 101.739C303.268 98.3124 301.911 95.0268 299.498 92.6036C297.086 90.1804 293.814 88.8174 290.403 88.8136ZM294.263 111.319C291.789 112.334 289.017 112.334 286.542 111.319V106.91C286.542 106.567 286.678 106.238 286.919 105.996C287.16 105.753 287.488 105.617 287.829 105.617H292.976C293.318 105.617 293.645 105.753 293.886 105.996C294.128 106.238 294.263 106.567 294.263 106.91V111.319ZM288.472 99.8005C288.472 99.417 288.585 99.0421 288.798 98.7233C289.01 98.4045 289.311 98.1559 289.664 98.0092C290.017 97.8625 290.405 97.8241 290.779 97.8989C291.154 97.9737 291.498 98.1583 291.768 98.4295C292.038 98.7006 292.221 99.0461 292.296 99.4222C292.37 99.7983 292.332 100.188 292.186 100.542C292.04 100.897 291.792 101.2 291.475 101.413C291.158 101.626 290.784 101.739 290.403 101.739C289.891 101.739 289.4 101.535 289.038 101.171C288.676 100.808 288.472 100.315 288.472 99.8005ZM296.837 109.799V106.91C296.835 105.972 296.493 105.067 295.876 104.363C295.259 103.659 294.408 103.205 293.482 103.084C294.141 102.463 294.6 101.658 294.797 100.773C294.995 99.8876 294.923 98.963 294.591 98.1192C294.259 97.2754 293.682 96.5514 292.935 96.0412C292.188 95.531 291.306 95.2582 290.403 95.2582C289.499 95.2582 288.617 95.531 287.87 96.0412C287.123 96.5514 286.546 97.2754 286.214 98.1192C285.882 98.963 285.81 99.8876 286.008 100.773C286.206 101.658 286.664 102.463 287.323 103.084C286.397 103.205 285.547 103.659 284.929 104.363C284.312 105.067 283.971 105.972 283.968 106.91V109.799C282.303 108.46 281.093 106.634 280.506 104.575C279.918 102.515 279.982 100.323 280.688 98.3017C281.395 96.2802 282.709 94.529 284.449 93.2901C286.189 92.0512 288.27 91.3858 290.403 91.3858C292.536 91.3858 294.616 92.0512 296.356 93.2901C298.096 94.529 299.41 96.2802 300.117 98.3017C300.823 100.323 300.887 102.515 300.299 104.575C299.712 106.634 298.502 108.46 296.837 109.799Z" fill="black"/>
<path d="M277.961 46.7891C277.961 46.0044 278.138 45.3004 278.492 44.6773C278.846 44.0464 279.327 43.554 279.935 43.2002C280.55 42.8463 281.231 42.6693 281.977 42.6693C282.854 42.6693 283.62 42.8809 284.274 43.304C284.928 43.7271 285.405 44.3272 285.705 45.1042H284.447C284.224 44.6196 283.901 44.2464 283.478 43.9849C283.062 43.7233 282.562 43.5925 281.977 43.5925C281.416 43.5925 280.912 43.7233 280.466 43.9849C280.019 44.2464 279.669 44.6196 279.415 45.1042C279.162 45.5812 279.035 46.1428 279.035 46.7891C279.035 47.4276 279.162 47.9892 279.415 48.4739C279.669 48.9509 280.019 49.3202 280.466 49.5818C280.912 49.8433 281.416 49.9741 281.977 49.9741C282.562 49.9741 283.062 49.8472 283.478 49.5933C283.901 49.3317 284.224 48.9586 284.447 48.4739H285.705C285.405 49.2432 284.928 49.8395 284.274 50.2626C283.62 50.6781 282.854 50.8858 281.977 50.8858C281.231 50.8858 280.55 50.7127 279.935 50.3665C279.327 50.0126 278.846 49.5241 278.492 48.9009C278.138 48.2777 277.961 47.5738 277.961 46.7891Z" fill="black"/>
<path d="M291.503 50.8165L289.587 47.5276H288.318V50.8165H287.268V42.7732H289.864C290.472 42.7732 290.984 42.877 291.399 43.0848C291.822 43.2925 292.138 43.5733 292.346 43.9272C292.553 44.2811 292.657 44.685 292.657 45.1389C292.657 45.6928 292.496 46.1813 292.172 46.6044C291.857 47.0276 291.38 47.3084 290.741 47.4469L292.761 50.8165H291.503ZM288.318 46.6852H289.864C290.434 46.6852 290.861 46.5467 291.145 46.2698C291.43 45.9851 291.572 45.6082 291.572 45.1389C291.572 44.6619 291.43 44.2926 291.145 44.031C290.868 43.7695 290.441 43.6387 289.864 43.6387H288.318V46.6852Z" fill="black"/>
<path d="M302.448 42.8309V50.8165H301.397V44.8619L298.743 50.8165H298.005L295.339 44.8504V50.8165H294.289V42.8309H295.42L298.374 49.4317L301.328 42.8309H302.448Z" fill="black"/>
</svg>
