<svg width="820" height="538" viewBox="0 0 820 538" fill="none" xmlns="http://www.w3.org/2000/svg">
<rect x="356" y="406" width="63" height="68" rx="20" transform="rotate(90 356 406)" fill="#D8D9FF"/>
<path d="M271 422.116C271.474 420.887 271.985 419.671 272.414 418.428C272.839 417.196 273.634 416.461 274.922 416.229C276.378 415.967 277.825 415.654 279.279 415.393C279.812 415.296 280.104 415.118 280.155 414.498C280.331 412.361 280.686 410.233 280.751 408.093C280.788 406.885 280.428 405.654 280.175 404.449C279.699 402.183 280.606 400.85 282.923 400.499C283.879 400.354 284.833 400.205 285.786 400.043C286.922 399.851 287.878 400.163 288.641 401.03C289.339 401.823 290.032 402.621 290.808 403.511C291.824 402.94 292.833 402.372 293.889 401.779C293.58 400.832 293.276 399.954 293.009 399.065C292.435 397.164 293.365 395.588 295.321 395.229C297.636 394.803 299.961 394.418 302.286 394.045C303.823 393.8 305.025 394.56 305.565 396.121C306.235 398.055 306.866 400.005 307.558 402.081C308.84 401.783 310.096 401.508 311.337 401.177C311.501 401.134 311.617 400.819 311.708 400.609C312.393 399.024 313.609 398.418 315.298 398.86C316.406 399.151 317.513 399.453 318.615 399.776C319.08 399.912 319.413 399.863 319.667 399.396C319.869 399.027 320.141 398.695 320.407 398.367C321.834 396.61 324.391 396.932 325.276 399.02C325.97 400.658 326.527 402.355 327.224 403.991C327.415 404.438 327.828 404.873 328.251 405.125C329.235 405.709 330.293 406.168 331.312 406.696C332.214 407.163 332.514 407.859 332.166 408.599C331.797 409.386 331.03 409.598 330.093 409.144C328.98 408.604 327.899 407.993 326.766 407.497C325.78 407.064 325.162 406.368 324.802 405.378C324.473 404.471 324.106 403.577 323.758 402.675C323.422 401.808 323.09 400.939 322.686 399.889C322.332 400.383 322.064 400.758 321.794 401.128C320.741 402.579 319.771 402.917 318.026 402.439C316.89 402.128 315.757 401.812 314.621 401.501C314.567 401.486 314.503 401.499 314.314 401.499C313.934 403.458 312.337 403.876 310.646 404.184C309.845 404.329 309.063 404.574 308.262 404.718C306.655 405.005 305.465 404.329 304.919 402.793C304.345 401.172 303.827 399.531 303.28 397.9C303.156 397.533 303.013 397.172 302.853 396.735C300.426 397.141 298.034 397.54 295.553 397.955C295.872 398.958 296.153 399.812 296.413 400.672C296.891 402.259 296.43 403.458 295.005 404.295C294.094 404.831 293.174 405.354 292.238 405.841C290.96 406.508 289.681 406.285 288.689 405.24C288.23 404.758 287.756 404.278 287.384 403.735C286.824 402.92 286.168 402.606 285.175 402.89C284.43 403.102 283.638 403.157 282.811 403.289C282.838 403.542 282.827 403.751 282.885 403.938C283.605 406.236 283.647 408.566 283.312 410.93C283.109 412.366 282.985 413.811 282.816 415.253C282.638 416.787 281.86 417.639 280.333 417.954C278.825 418.264 277.305 418.522 275.809 418.879C275.477 418.957 275.09 419.288 274.946 419.6C274.548 420.476 274.226 421.394 273.961 422.321C273.874 422.625 273.946 423.099 274.141 423.335C275.079 424.48 276.066 425.587 277.08 426.665C277.281 426.878 277.687 427.021 277.985 427.001C279.882 426.874 281.051 427.774 281.356 429.626C281.393 429.842 281.605 430.202 281.735 430.2C282.654 430.189 283.636 430.286 284.481 430C286.019 429.482 287.471 428.712 288.97 428.07C291.211 427.112 293.231 428.444 293.116 430.869C293.076 431.698 293.305 432.198 294.045 432.479C296.237 433.316 298.403 434.237 300.639 434.939C302.224 435.437 303.176 436.304 303.543 437.927C303.802 439.068 304.223 440.173 304.527 441.147C305.336 441.384 306.073 441.485 306.693 441.809C307.546 442.254 307.938 443.076 308.029 444.045C308.325 447.173 308.636 450.299 308.945 453.427C308.98 453.785 309.045 454.139 309.111 454.605C309.681 454.605 310.223 454.577 310.759 454.61C312.059 454.692 312.984 455.323 313.442 456.56C313.704 457.267 313.956 457.982 314.154 458.707C314.391 459.567 313.996 460.294 313.238 460.515C312.546 460.717 311.755 460.346 311.57 459.516C311.224 457.969 310.626 457.071 308.771 457.218C307.471 457.32 306.506 456.126 306.352 454.721C305.979 451.328 305.652 447.929 305.305 444.534C305.292 444.417 305.263 444.301 305.232 444.139C305.023 444.114 304.819 444.079 304.618 444.063C303.198 443.954 302.255 443.265 301.855 441.864C301.533 440.731 301.212 439.597 300.808 438.494C300.686 438.163 300.337 437.801 300.01 437.68C298.625 437.165 297.173 436.82 295.813 436.253C294.347 435.642 292.936 434.888 291.54 434.126C290.773 433.708 290.439 432.945 290.401 432.076C290.379 431.573 290.397 431.067 290.397 430.44C288.845 431.134 287.365 431.734 285.944 432.447C284.234 433.305 282.467 433.179 280.72 432.796C279.214 432.465 278.657 431.256 278.579 429.713C276.807 430.28 275.684 429.382 274.673 428.132C273.857 427.121 272.939 426.194 272.111 425.195C271.692 424.693 271.371 424.111 271.005 423.566C271 423.083 271 422.599 271 422.116Z" fill="black"/>
<path d="M309.803 473.998C311.755 476.034 313.654 478.015 315.601 480.047C315.841 479.836 316.023 479.698 316.183 479.534C318.647 477.041 321.121 474.556 323.56 472.037C323.869 471.719 324.093 471.239 324.178 470.797C324.442 469.465 324.543 468.098 324.858 466.781C325.023 466.088 325.363 465.33 325.861 464.843C327.241 463.493 328.704 462.215 330.225 461.026C330.727 460.634 331.496 460.479 332.161 460.415C334.687 460.174 337.219 459.997 339.751 459.83C340.344 459.79 340.74 459.588 341.087 459.085C343.004 456.297 344.978 453.549 346.88 450.75C347.219 450.248 347.368 449.59 347.507 448.983C348.212 445.862 348.848 442.727 349.593 439.615C349.76 438.921 350.155 438.205 350.64 437.68C351.665 436.575 352.812 435.58 353.924 434.559C354.653 433.89 355.449 433.857 356.016 434.432C356.631 435.055 356.56 435.833 355.789 436.569C354.915 437.403 354.044 438.247 353.125 439.028C352.538 439.528 352.249 440.121 352.092 440.86C351.393 444.136 350.667 447.407 349.911 450.67C349.786 451.211 349.526 451.753 349.211 452.215C347.248 455.081 345.224 457.904 343.283 460.786C342.521 461.917 341.554 462.469 340.211 462.549C337.677 462.7 335.147 462.896 332.621 463.127C332.179 463.167 331.694 463.384 331.345 463.663C330.283 464.512 329.24 465.39 328.271 466.343C327.877 466.732 327.564 467.309 327.444 467.851C327.177 469.056 327.148 470.318 326.845 471.512C326.645 472.295 326.283 473.138 325.739 473.713C323.206 476.39 320.588 478.989 317.991 481.608C316.484 483.128 314.919 483.135 313.404 481.648C311.592 479.869 309.778 478.093 307.98 476.301C306.482 474.809 306.588 473.017 308.249 471.704C309.956 470.356 311.67 469.016 313.409 467.709C313.913 467.331 314.134 466.979 313.871 466.353C313.684 465.914 313.584 465.43 313.491 464.958C313.344 464.209 313.767 463.522 314.456 463.329C315.147 463.136 315.866 463.494 316.117 464.229C316.352 464.912 316.535 465.617 316.697 466.323C316.988 467.589 316.644 468.649 315.599 469.458C313.762 470.883 311.924 472.311 310.088 473.742C309.97 473.836 309.865 473.944 309.803 473.998Z" fill="black"/>
<path d="M359.005 421.458C357.949 421.629 357.083 421.282 356.307 420.622C353.961 418.624 351.618 416.62 349.239 414.662C348.886 414.371 348.33 414.179 347.874 414.189C345.88 414.239 343.89 414.389 341.898 414.477C341.483 414.495 341.012 414.511 340.656 414.342C338.859 413.486 337.076 412.597 335.322 411.658C334.631 411.289 334.486 410.487 334.855 409.847C335.234 409.188 335.954 408.973 336.745 409.358C338.101 410.02 339.42 410.758 340.789 411.392C341.254 411.609 341.821 411.712 342.337 411.698C344.36 411.643 346.382 411.518 348.404 411.423C349.291 411.381 350.037 411.678 350.718 412.27C352.861 414.135 355.059 415.938 357.185 417.819C357.934 418.483 358.694 418.868 359.704 418.741C360.057 418.697 360.429 418.744 360.786 418.799C362.036 418.99 362.972 419.853 363.149 421.091C363.425 423.034 363.725 424.982 363.819 426.938C363.854 427.67 363.507 428.561 363.04 429.146C362.178 430.224 361.113 431.145 360.104 432.103C359.379 432.792 358.579 432.818 358.025 432.238C357.461 431.649 357.516 430.84 358.196 430.151C359.023 429.312 359.888 428.508 360.698 427.654C360.898 427.443 361.071 427.08 361.047 426.805C360.92 425.271 360.708 423.743 360.562 422.21C360.451 421.003 359.541 421.649 359.005 421.458Z" fill="black"/>
<path d="M271.411 500.21C272.779 500.21 273.961 500.468 274.957 500.984C275.965 501.488 276.733 502.214 277.261 503.162C277.801 504.11 278.071 505.226 278.071 506.51C278.071 507.794 277.801 508.91 277.261 509.858C276.733 510.794 275.965 511.514 274.957 512.018C273.961 512.51 272.779 512.756 271.411 512.756H267.505V500.21H271.411ZM271.411 511.406C273.031 511.406 274.267 510.98 275.119 510.128C275.971 509.264 276.397 508.058 276.397 506.51C276.397 504.95 275.965 503.732 275.101 502.856C274.249 501.98 273.019 501.542 271.411 501.542H269.143V511.406H271.411ZM281.078 501.29C280.766 501.29 280.502 501.182 280.286 500.966C280.07 500.75 279.962 500.486 279.962 500.174C279.962 499.862 280.07 499.598 280.286 499.382C280.502 499.166 280.766 499.058 281.078 499.058C281.378 499.058 281.63 499.166 281.834 499.382C282.05 499.598 282.158 499.862 282.158 500.174C282.158 500.486 282.05 500.75 281.834 500.966C281.63 501.182 281.378 501.29 281.078 501.29ZM281.87 502.892V512.756H280.232V502.892H281.87ZM288.153 512.918C287.397 512.918 286.719 512.792 286.119 512.54C285.519 512.276 285.045 511.916 284.697 511.46C284.349 510.992 284.157 510.458 284.121 509.858H285.813C285.861 510.35 286.089 510.752 286.497 511.064C286.917 511.376 287.463 511.532 288.135 511.532C288.759 511.532 289.251 511.394 289.611 511.118C289.971 510.842 290.151 510.494 290.151 510.074C290.151 509.642 289.959 509.324 289.575 509.12C289.191 508.904 288.597 508.694 287.793 508.49C287.061 508.298 286.461 508.106 285.993 507.914C285.537 507.71 285.141 507.416 284.805 507.032C284.481 506.636 284.319 506.12 284.319 505.484C284.319 504.98 284.469 504.518 284.769 504.098C285.069 503.678 285.495 503.348 286.047 503.108C286.599 502.856 287.229 502.73 287.937 502.73C289.029 502.73 289.911 503.006 290.583 503.558C291.255 504.11 291.615 504.866 291.663 505.826H290.025C289.989 505.31 289.779 504.896 289.395 504.584C289.023 504.272 288.519 504.116 287.883 504.116C287.295 504.116 286.827 504.242 286.479 504.494C286.131 504.746 285.957 505.076 285.957 505.484C285.957 505.808 286.059 506.078 286.263 506.294C286.479 506.498 286.743 506.666 287.055 506.798C287.379 506.918 287.823 507.056 288.387 507.212C289.095 507.404 289.671 507.596 290.115 507.788C290.559 507.968 290.937 508.244 291.249 508.616C291.573 508.988 291.741 509.474 291.753 510.074C291.753 510.614 291.603 511.1 291.303 511.532C291.003 511.964 290.577 512.306 290.025 512.558C289.485 512.798 288.861 512.918 288.153 512.918ZM296.064 504.242V510.056C296.064 510.536 296.166 510.878 296.37 511.082C296.574 511.274 296.928 511.37 297.432 511.37H298.638V512.756H297.162C296.25 512.756 295.566 512.546 295.11 512.126C294.654 511.706 294.426 511.016 294.426 510.056V504.242H293.148V502.892H294.426V500.408H296.064V502.892H298.638V504.242H296.064ZM302.26 504.494C302.548 503.93 302.956 503.492 303.484 503.18C304.024 502.868 304.678 502.712 305.446 502.712V504.404H305.014C303.178 504.404 302.26 505.4 302.26 507.392V512.756H300.622V502.892H302.26V504.494ZM308.183 501.29C307.871 501.29 307.607 501.182 307.391 500.966C307.175 500.75 307.067 500.486 307.067 500.174C307.067 499.862 307.175 499.598 307.391 499.382C307.607 499.166 307.871 499.058 308.183 499.058C308.483 499.058 308.735 499.166 308.939 499.382C309.155 499.598 309.263 499.862 309.263 500.174C309.263 500.486 309.155 500.75 308.939 500.966C308.735 501.182 308.483 501.29 308.183 501.29ZM308.975 502.892V512.756H307.337V502.892H308.975ZM313.405 504.728C313.741 504.14 314.233 503.66 314.881 503.288C315.529 502.916 316.267 502.73 317.095 502.73C317.983 502.73 318.781 502.94 319.489 503.36C320.197 503.78 320.755 504.374 321.163 505.142C321.571 505.898 321.775 506.78 321.775 507.788C321.775 508.784 321.571 509.672 321.163 510.452C320.755 511.232 320.191 511.838 319.471 512.27C318.763 512.702 317.971 512.918 317.095 512.918C316.243 512.918 315.493 512.732 314.845 512.36C314.209 511.988 313.729 511.514 313.405 510.938V512.756H311.767V499.436H313.405V504.728ZM320.101 507.788C320.101 507.044 319.951 506.396 319.651 505.844C319.351 505.292 318.943 504.872 318.427 504.584C317.923 504.296 317.365 504.152 316.753 504.152C316.153 504.152 315.595 504.302 315.079 504.602C314.575 504.89 314.167 505.316 313.855 505.88C313.555 506.432 313.405 507.074 313.405 507.806C313.405 508.55 313.555 509.204 313.855 509.768C314.167 510.32 314.575 510.746 315.079 511.046C315.595 511.334 316.153 511.478 316.753 511.478C317.365 511.478 317.923 511.334 318.427 511.046C318.943 510.746 319.351 510.32 319.651 509.768C319.951 509.204 320.101 508.544 320.101 507.788ZM332.679 502.892V512.756H331.041V511.298C330.729 511.802 330.291 512.198 329.727 512.486C329.175 512.762 328.563 512.9 327.891 512.9C327.123 512.9 326.433 512.744 325.821 512.432C325.209 512.108 324.723 511.628 324.363 510.992C324.015 510.356 323.841 509.582 323.841 508.67V502.892H325.461V508.454C325.461 509.426 325.707 510.176 326.199 510.704C326.691 511.22 327.363 511.478 328.215 511.478C329.091 511.478 329.781 511.208 330.285 510.668C330.789 510.128 331.041 509.342 331.041 508.31V502.892H332.679ZM336.291 501.29C335.979 501.29 335.715 501.182 335.499 500.966C335.283 500.75 335.175 500.486 335.175 500.174C335.175 499.862 335.283 499.598 335.499 499.382C335.715 499.166 335.979 499.058 336.291 499.058C336.591 499.058 336.843 499.166 337.047 499.382C337.263 499.598 337.371 499.862 337.371 500.174C337.371 500.486 337.263 500.75 337.047 500.966C336.843 501.182 336.591 501.29 336.291 501.29ZM337.083 502.892V512.756H335.445V502.892H337.083ZM339.262 507.788C339.262 506.78 339.466 505.898 339.874 505.142C340.282 504.374 340.84 503.78 341.548 503.36C342.268 502.94 343.072 502.73 343.96 502.73C344.728 502.73 345.442 502.91 346.102 503.27C346.762 503.618 347.266 504.08 347.614 504.656V499.436H349.27V512.756H347.614V510.902C347.29 511.49 346.81 511.976 346.174 512.36C345.538 512.732 344.794 512.918 343.942 512.918C343.066 512.918 342.268 512.702 341.548 512.27C340.84 511.838 340.282 511.232 339.874 510.452C339.466 509.672 339.262 508.784 339.262 507.788ZM347.614 507.806C347.614 507.062 347.464 506.414 347.164 505.862C346.864 505.31 346.456 504.89 345.94 504.602C345.436 504.302 344.878 504.152 344.266 504.152C343.654 504.152 343.096 504.296 342.592 504.584C342.088 504.872 341.686 505.292 341.386 505.844C341.086 506.396 340.936 507.044 340.936 507.788C340.936 508.544 341.086 509.204 341.386 509.768C341.686 510.32 342.088 510.746 342.592 511.046C343.096 511.334 343.654 511.478 344.266 511.478C344.878 511.478 345.436 511.334 345.94 511.046C346.456 510.746 346.864 510.32 347.164 509.768C347.464 509.204 347.614 508.55 347.614 507.806ZM356.34 512.918C355.416 512.918 354.576 512.708 353.82 512.288C353.076 511.868 352.488 511.274 352.056 510.506C351.636 509.726 351.426 508.826 351.426 507.806C351.426 506.798 351.642 505.91 352.074 505.142C352.518 504.362 353.118 503.768 353.874 503.36C354.63 502.94 355.476 502.73 356.412 502.73C357.348 502.73 358.194 502.94 358.95 503.36C359.706 503.768 360.3 504.356 360.732 505.124C361.176 505.892 361.398 506.786 361.398 507.806C361.398 508.826 361.17 509.726 360.714 510.506C360.27 511.274 359.664 511.868 358.896 512.288C358.128 512.708 357.276 512.918 356.34 512.918ZM356.34 511.478C356.928 511.478 357.48 511.34 357.996 511.064C358.512 510.788 358.926 510.374 359.238 509.822C359.562 509.27 359.724 508.598 359.724 507.806C359.724 507.014 359.568 506.342 359.256 505.79C358.944 505.238 358.536 504.83 358.032 504.566C357.528 504.29 356.982 504.152 356.394 504.152C355.794 504.152 355.242 504.29 354.738 504.566C354.246 504.83 353.85 505.238 353.55 505.79C353.25 506.342 353.1 507.014 353.1 507.806C353.1 508.61 353.244 509.288 353.532 509.84C353.832 510.392 354.228 510.806 354.72 511.082C355.212 511.346 355.752 511.478 356.34 511.478ZM365.19 504.494C365.478 503.93 365.886 503.492 366.414 503.18C366.954 502.868 367.608 502.712 368.376 502.712V504.404H367.944C366.108 504.404 365.19 505.4 365.19 507.392V512.756H363.552V502.892H365.19V504.494Z" fill="black"/>
<rect x="160" y="401" width="79" height="76" rx="20" transform="rotate(90 160 401)" fill="#D8D9FF"/>
<path d="M160.947 394H82.7285C79.3642 394 76 397.364 76 400.728V409.139V448.669C76 449.51 76.8411 450.351 77.6821 450.351C78.5232 450.351 79.3642 449.51 79.3642 448.669V410.821H165.152V478.947C165.152 481.47 163.47 483.152 160.947 483.152H82.7285C80.2053 483.152 78.5232 481.47 78.5232 478.947V478.106C78.5232 477.265 77.6821 476.424 76.8411 476.424C76.8411 476.424 76 477.265 76 478.106V478.947C76 483.152 79.3642 485.676 82.7285 485.676H160.106C164.311 485.676 166.835 482.311 166.835 478.947V409.139V400.728C167.676 397.364 164.311 394 160.947 394ZM165.152 408.298H78.5232V400.728C78.5232 398.205 80.2053 396.523 82.7285 396.523H160.106C162.629 396.523 164.311 398.205 164.311 400.728V408.298H165.152Z" fill="#1A171B"/>
<path d="M157.581 401.571V402.412V403.253H158.422H159.263V402.412V401.571C159.263 400.73 158.422 400.73 157.581 401.571Z" fill="#1A171B"/>
<path d="M151.696 400.73C150.855 400.73 150.014 401.571 150.014 402.412C150.014 403.253 150.855 404.094 151.696 404.094C152.537 404.094 153.378 403.253 153.378 402.412C152.537 401.571 151.696 400.73 151.696 400.73Z" fill="#1A171B"/>
<path d="M142.447 401.571V402.412V403.253H143.288H144.129V402.412V401.571C144.129 400.73 143.288 400.73 142.447 401.571Z" fill="#1A171B"/>
<path d="M76.8411 472.22C77.6821 472.22 77.6821 472.22 78.5232 472.22L100.391 449.511C101.232 448.67 102.914 448.67 104.596 449.511L116.371 461.286C117.212 462.127 118.894 462.968 120.576 462.968C122.258 462.968 123.099 462.127 123.94 461.286L148.331 436.895L152.537 441.942C152.537 441.942 153.378 442.783 154.219 441.942C155.06 441.942 155.06 441.101 155.06 440.26V423.438C155.06 422.597 154.219 421.756 153.378 421.756H136.556C135.715 421.756 135.715 421.756 134.874 422.597C134.874 423.438 134.874 423.438 134.874 424.28L139.08 428.485L122.258 446.988C121.417 447.829 119.735 447.829 118.053 446.988L106.278 435.213C103.755 432.69 100.391 432.69 98.7087 435.213L76 457.922V458.763V471.379C76 471.379 76 472.22 76.8411 472.22ZM78.5232 458.763L100.391 436.895C101.232 436.054 102.914 436.054 104.596 436.895L116.371 448.67C117.212 449.511 118.894 450.352 120.576 450.352C122.258 450.352 123.099 449.511 124.782 448.67L143.285 429.326C143.285 429.326 143.285 428.485 143.285 427.644L139.921 424.28H152.537V436.895L149.172 433.531C148.331 432.69 147.49 432.69 147.49 433.531L122.258 458.763C121.417 459.604 119.735 459.604 118.053 458.763L106.278 447.829C103.755 445.306 100.391 445.306 98.7087 447.829L78.5232 468.015V458.763Z" fill="#1A171B"/>
<path d="M75.1932 515.676L72.2052 510.546H70.2252V515.676H68.5872V503.13H72.6372C73.5852 503.13 74.3832 503.292 75.0312 503.616C75.6912 503.94 76.1832 504.378 76.5072 504.93C76.8312 505.482 76.9932 506.112 76.9932 506.82C76.9932 507.684 76.7412 508.446 76.2372 509.106C75.7452 509.766 75.0012 510.204 74.0052 510.42L77.1552 515.676H75.1932ZM70.2252 509.232H72.6372C73.5252 509.232 74.1912 509.016 74.6352 508.584C75.0792 508.14 75.3012 507.552 75.3012 506.82C75.3012 506.076 75.0792 505.5 74.6352 505.092C74.2032 504.684 73.5372 504.48 72.6372 504.48H70.2252V509.232ZM88.5383 510.366C88.5383 510.678 88.5203 511.008 88.4843 511.356H80.6003C80.6603 512.328 80.9903 513.09 81.5903 513.642C82.2023 514.182 82.9403 514.452 83.8043 514.452C84.5123 514.452 85.1003 514.29 85.5683 513.966C86.0483 513.63 86.3843 513.186 86.5763 512.634H88.3403C88.0763 513.582 87.5483 514.356 86.7563 514.956C85.9643 515.544 84.9803 515.838 83.8043 515.838C82.8683 515.838 82.0283 515.628 81.2843 515.208C80.5523 514.788 79.9763 514.194 79.5563 513.426C79.1363 512.646 78.9263 511.746 78.9263 510.726C78.9263 509.706 79.1303 508.812 79.5383 508.044C79.9463 507.276 80.5163 506.688 81.2483 506.28C81.9923 505.86 82.8443 505.65 83.8043 505.65C84.7403 505.65 85.5683 505.854 86.2883 506.262C87.0083 506.67 87.5603 507.234 87.9443 507.954C88.3403 508.662 88.5383 509.466 88.5383 510.366ZM86.8463 510.024C86.8463 509.4 86.7083 508.866 86.4323 508.422C86.1563 507.966 85.7783 507.624 85.2983 507.396C84.8303 507.156 84.3083 507.036 83.7323 507.036C82.9043 507.036 82.1963 507.3 81.6083 507.828C81.0323 508.356 80.7023 509.088 80.6183 510.024H86.8463ZM94.3725 514.164L97.4325 505.812H99.1785L95.3085 515.676H93.4005L89.5305 505.812H91.2945L94.3725 514.164ZM109.79 510.366C109.79 510.678 109.772 511.008 109.736 511.356H101.852C101.912 512.328 102.242 513.09 102.842 513.642C103.454 514.182 104.192 514.452 105.056 514.452C105.764 514.452 106.352 514.29 106.82 513.966C107.3 513.63 107.636 513.186 107.828 512.634H109.592C109.328 513.582 108.8 514.356 108.008 514.956C107.216 515.544 106.232 515.838 105.056 515.838C104.12 515.838 103.28 515.628 102.536 515.208C101.804 514.788 101.228 514.194 100.808 513.426C100.388 512.646 100.178 511.746 100.178 510.726C100.178 509.706 100.382 508.812 100.79 508.044C101.198 507.276 101.768 506.688 102.5 506.28C103.244 505.86 104.096 505.65 105.056 505.65C105.992 505.65 106.82 505.854 107.54 506.262C108.26 506.67 108.812 507.234 109.196 507.954C109.592 508.662 109.79 509.466 109.79 510.366ZM108.098 510.024C108.098 509.4 107.96 508.866 107.684 508.422C107.408 507.966 107.03 507.624 106.55 507.396C106.082 507.156 105.56 507.036 104.984 507.036C104.156 507.036 103.448 507.3 102.86 507.828C102.284 508.356 101.954 509.088 101.87 510.024H108.098ZM116.758 505.632C117.958 505.632 118.93 505.998 119.674 506.73C120.418 507.45 120.79 508.494 120.79 509.862V515.676H119.17V510.096C119.17 509.112 118.924 508.362 118.432 507.846C117.94 507.318 117.268 507.054 116.416 507.054C115.552 507.054 114.862 507.324 114.346 507.864C113.842 508.404 113.59 509.19 113.59 510.222V515.676H111.952V505.812H113.59V507.216C113.914 506.712 114.352 506.322 114.904 506.046C115.468 505.77 116.086 505.632 116.758 505.632ZM122.854 510.708C122.854 509.7 123.058 508.818 123.466 508.062C123.874 507.294 124.432 506.7 125.14 506.28C125.86 505.86 126.664 505.65 127.552 505.65C128.32 505.65 129.034 505.83 129.694 506.19C130.354 506.538 130.858 507 131.206 507.576V502.356H132.862V515.676H131.206V513.822C130.882 514.41 130.402 514.896 129.766 515.28C129.13 515.652 128.386 515.838 127.534 515.838C126.658 515.838 125.86 515.622 125.14 515.19C124.432 514.758 123.874 514.152 123.466 513.372C123.058 512.592 122.854 511.704 122.854 510.708ZM131.206 510.726C131.206 509.982 131.056 509.334 130.756 508.782C130.456 508.23 130.048 507.81 129.532 507.522C129.028 507.222 128.47 507.072 127.858 507.072C127.246 507.072 126.688 507.216 126.184 507.504C125.68 507.792 125.278 508.212 124.978 508.764C124.678 509.316 124.528 509.964 124.528 510.708C124.528 511.464 124.678 512.124 124.978 512.688C125.278 513.24 125.68 513.666 126.184 513.966C126.688 514.254 127.246 514.398 127.858 514.398C128.47 514.398 129.028 514.254 129.532 513.966C130.048 513.666 130.456 513.24 130.756 512.688C131.056 512.124 131.206 511.47 131.206 510.726ZM144.63 510.366C144.63 510.678 144.612 511.008 144.576 511.356H136.692C136.752 512.328 137.082 513.09 137.682 513.642C138.294 514.182 139.032 514.452 139.896 514.452C140.604 514.452 141.192 514.29 141.66 513.966C142.14 513.63 142.476 513.186 142.668 512.634H144.432C144.168 513.582 143.64 514.356 142.848 514.956C142.056 515.544 141.072 515.838 139.896 515.838C138.96 515.838 138.12 515.628 137.376 515.208C136.644 514.788 136.068 514.194 135.648 513.426C135.228 512.646 135.018 511.746 135.018 510.726C135.018 509.706 135.222 508.812 135.63 508.044C136.038 507.276 136.608 506.688 137.34 506.28C138.084 505.86 138.936 505.65 139.896 505.65C140.832 505.65 141.66 505.854 142.38 506.262C143.1 506.67 143.652 507.234 144.036 507.954C144.432 508.662 144.63 509.466 144.63 510.366ZM142.938 510.024C142.938 509.4 142.8 508.866 142.524 508.422C142.248 507.966 141.87 507.624 141.39 507.396C140.922 507.156 140.4 507.036 139.824 507.036C138.996 507.036 138.288 507.3 137.7 507.828C137.124 508.356 136.794 509.088 136.71 510.024H142.938ZM146.18 510.708C146.18 509.7 146.384 508.818 146.792 508.062C147.2 507.294 147.758 506.7 148.466 506.28C149.186 505.86 149.99 505.65 150.878 505.65C151.646 505.65 152.36 505.83 153.02 506.19C153.68 506.538 154.184 507 154.532 507.576V502.356H156.188V515.676H154.532V513.822C154.208 514.41 153.728 514.896 153.092 515.28C152.456 515.652 151.712 515.838 150.86 515.838C149.984 515.838 149.186 515.622 148.466 515.19C147.758 514.758 147.2 514.152 146.792 513.372C146.384 512.592 146.18 511.704 146.18 510.708ZM154.532 510.726C154.532 509.982 154.382 509.334 154.082 508.782C153.782 508.23 153.374 507.81 152.858 507.522C152.354 507.222 151.796 507.072 151.184 507.072C150.572 507.072 150.014 507.216 149.51 507.504C149.006 507.792 148.604 508.212 148.304 508.764C148.004 509.316 147.854 509.964 147.854 510.708C147.854 511.464 148.004 512.124 148.304 512.688C148.604 513.24 149.006 513.666 149.51 513.966C150.014 514.254 150.572 514.398 151.184 514.398C151.796 514.398 152.354 514.254 152.858 513.966C153.374 513.666 153.782 513.24 154.082 512.688C154.382 512.124 154.532 511.47 154.532 510.726ZM163.258 515.838C162.334 515.838 161.494 515.628 160.738 515.208C159.994 514.788 159.406 514.194 158.974 513.426C158.554 512.646 158.344 511.746 158.344 510.726C158.344 509.718 158.56 508.83 158.992 508.062C159.436 507.282 160.036 506.688 160.792 506.28C161.548 505.86 162.394 505.65 163.33 505.65C164.266 505.65 165.112 505.86 165.868 506.28C166.624 506.688 167.218 507.276 167.65 508.044C168.094 508.812 168.316 509.706 168.316 510.726C168.316 511.746 168.088 512.646 167.632 513.426C167.188 514.194 166.582 514.788 165.814 515.208C165.046 515.628 164.194 515.838 163.258 515.838ZM163.258 514.398C163.846 514.398 164.398 514.26 164.914 513.984C165.43 513.708 165.844 513.294 166.156 512.742C166.48 512.19 166.642 511.518 166.642 510.726C166.642 509.934 166.486 509.262 166.174 508.71C165.862 508.158 165.454 507.75 164.95 507.486C164.446 507.21 163.9 507.072 163.312 507.072C162.712 507.072 162.16 507.21 161.656 507.486C161.164 507.75 160.768 508.158 160.468 508.71C160.168 509.262 160.018 509.934 160.018 510.726C160.018 511.53 160.162 512.208 160.45 512.76C160.75 513.312 161.146 513.726 161.638 514.002C162.13 514.266 162.67 514.398 163.258 514.398ZM172.108 507.414C172.396 506.85 172.804 506.412 173.332 506.1C173.872 505.788 174.526 505.632 175.294 505.632V507.324H174.862C173.026 507.324 172.108 508.32 172.108 510.312V515.676H170.47V505.812H172.108V507.414Z" fill="black"/>
<rect x="547" y="403" width="81" height="54" rx="20" transform="rotate(90 547 403)" fill="#D8D9FF"/>
<path d="M476.969 514.036H471.497L470.489 516.826H468.761L473.297 504.352H475.187L479.705 516.826H477.977L476.969 514.036ZM476.501 512.704L474.233 506.368L471.965 512.704H476.501ZM483.68 508.312V514.126C483.68 514.606 483.782 514.948 483.986 515.152C484.19 515.344 484.544 515.44 485.048 515.44H486.254V516.826H484.778C483.866 516.826 483.182 516.616 482.726 516.196C482.27 515.776 482.042 515.086 482.042 514.126V508.312H480.764V506.962H482.042V504.478H483.68V506.962H486.254V508.312H483.68ZM487.627 511.858C487.627 510.85 487.831 509.968 488.239 509.212C488.647 508.444 489.205 507.85 489.913 507.43C490.633 507.01 491.431 506.8 492.307 506.8C493.171 506.8 493.921 506.986 494.557 507.358C495.193 507.73 495.667 508.198 495.979 508.762V506.962H497.635V516.826H495.979V514.99C495.655 515.566 495.169 516.046 494.521 516.43C493.885 516.802 493.141 516.988 492.289 516.988C491.413 516.988 490.621 516.772 489.913 516.34C489.205 515.908 488.647 515.302 488.239 514.522C487.831 513.742 487.627 512.854 487.627 511.858ZM495.979 511.876C495.979 511.132 495.829 510.484 495.529 509.932C495.229 509.38 494.821 508.96 494.305 508.672C493.801 508.372 493.243 508.222 492.631 508.222C492.019 508.222 491.461 508.366 490.957 508.654C490.453 508.942 490.051 509.362 489.751 509.914C489.451 510.466 489.301 511.114 489.301 511.858C489.301 512.614 489.451 513.274 489.751 513.838C490.051 514.39 490.453 514.816 490.957 515.116C491.461 515.404 492.019 515.548 492.631 515.548C493.243 515.548 493.801 515.404 494.305 515.116C494.821 514.816 495.229 514.39 495.529 513.838C495.829 513.274 495.979 512.62 495.979 511.876ZM499.791 511.876C499.791 510.856 499.995 509.968 500.403 509.212C500.811 508.444 501.375 507.85 502.095 507.43C502.827 507.01 503.661 506.8 504.597 506.8C505.809 506.8 506.805 507.094 507.585 507.682C508.377 508.27 508.899 509.086 509.151 510.13H507.387C507.219 509.53 506.889 509.056 506.397 508.708C505.917 508.36 505.317 508.186 504.597 508.186C503.661 508.186 502.905 508.51 502.329 509.158C501.753 509.794 501.465 510.7 501.465 511.876C501.465 513.064 501.753 513.982 502.329 514.63C502.905 515.278 503.661 515.602 504.597 515.602C505.317 515.602 505.917 515.434 506.397 515.098C506.877 514.762 507.207 514.282 507.387 513.658H509.151C508.887 514.666 508.359 515.476 507.567 516.088C506.775 516.688 505.785 516.988 504.597 516.988C503.661 516.988 502.827 516.778 502.095 516.358C501.375 515.938 500.811 515.344 500.403 514.576C499.995 513.808 499.791 512.908 499.791 511.876ZM510.724 511.858C510.724 510.85 510.928 509.968 511.336 509.212C511.744 508.444 512.302 507.85 513.01 507.43C513.73 507.01 514.528 506.8 515.404 506.8C516.268 506.8 517.018 506.986 517.654 507.358C518.29 507.73 518.764 508.198 519.076 508.762V506.962H520.732V516.826H519.076V514.99C518.752 515.566 518.266 516.046 517.618 516.43C516.982 516.802 516.238 516.988 515.386 516.988C514.51 516.988 513.718 516.772 513.01 516.34C512.302 515.908 511.744 515.302 511.336 514.522C510.928 513.742 510.724 512.854 510.724 511.858ZM519.076 511.876C519.076 511.132 518.926 510.484 518.626 509.932C518.326 509.38 517.918 508.96 517.402 508.672C516.898 508.372 516.34 508.222 515.728 508.222C515.116 508.222 514.558 508.366 514.054 508.654C513.55 508.942 513.148 509.362 512.848 509.914C512.548 510.466 512.398 511.114 512.398 511.858C512.398 512.614 512.548 513.274 512.848 513.838C513.148 514.39 513.55 514.816 514.054 515.116C514.558 515.404 515.116 515.548 515.728 515.548C516.34 515.548 516.898 515.404 517.402 515.116C517.918 514.816 518.326 514.39 518.626 513.838C518.926 513.274 519.076 512.62 519.076 511.876ZM522.888 511.858C522.888 510.85 523.092 509.968 523.5 509.212C523.908 508.444 524.466 507.85 525.174 507.43C525.894 507.01 526.698 506.8 527.586 506.8C528.354 506.8 529.068 506.98 529.728 507.34C530.388 507.688 530.892 508.15 531.24 508.726V503.506H532.896V516.826H531.24V514.972C530.916 515.56 530.436 516.046 529.8 516.43C529.164 516.802 528.42 516.988 527.568 516.988C526.692 516.988 525.894 516.772 525.174 516.34C524.466 515.908 523.908 515.302 523.5 514.522C523.092 513.742 522.888 512.854 522.888 511.858ZM531.24 511.876C531.24 511.132 531.09 510.484 530.79 509.932C530.49 509.38 530.082 508.96 529.566 508.672C529.062 508.372 528.504 508.222 527.892 508.222C527.28 508.222 526.722 508.366 526.218 508.654C525.714 508.942 525.312 509.362 525.012 509.914C524.712 510.466 524.562 511.114 524.562 511.858C524.562 512.614 524.712 513.274 525.012 513.838C525.312 514.39 525.714 514.816 526.218 515.116C526.722 515.404 527.28 515.548 527.892 515.548C528.504 515.548 529.062 515.404 529.566 515.116C530.082 514.816 530.49 514.39 530.79 513.838C531.09 513.274 531.24 512.62 531.24 511.876ZM536.51 505.36C536.198 505.36 535.934 505.252 535.718 505.036C535.502 504.82 535.394 504.556 535.394 504.244C535.394 503.932 535.502 503.668 535.718 503.452C535.934 503.236 536.198 503.128 536.51 503.128C536.81 503.128 537.062 503.236 537.266 503.452C537.482 503.668 537.59 503.932 537.59 504.244C537.59 504.556 537.482 504.82 537.266 505.036C537.062 505.252 536.81 505.36 536.51 505.36ZM537.302 506.962V516.826H535.664V506.962H537.302ZM543.586 516.988C542.83 516.988 542.152 516.862 541.552 516.61C540.952 516.346 540.478 515.986 540.13 515.53C539.782 515.062 539.59 514.528 539.554 513.928H541.246C541.294 514.42 541.522 514.822 541.93 515.134C542.35 515.446 542.896 515.602 543.568 515.602C544.192 515.602 544.684 515.464 545.044 515.188C545.404 514.912 545.584 514.564 545.584 514.144C545.584 513.712 545.392 513.394 545.008 513.19C544.624 512.974 544.03 512.764 543.226 512.56C542.494 512.368 541.894 512.176 541.426 511.984C540.97 511.78 540.574 511.486 540.238 511.102C539.914 510.706 539.752 510.19 539.752 509.554C539.752 509.05 539.902 508.588 540.202 508.168C540.502 507.748 540.928 507.418 541.48 507.178C542.032 506.926 542.662 506.8 543.37 506.8C544.462 506.8 545.344 507.076 546.016 507.628C546.688 508.18 547.048 508.936 547.096 509.896H545.458C545.422 509.38 545.212 508.966 544.828 508.654C544.456 508.342 543.952 508.186 543.316 508.186C542.728 508.186 542.26 508.312 541.912 508.564C541.564 508.816 541.39 509.146 541.39 509.554C541.39 509.878 541.492 510.148 541.696 510.364C541.912 510.568 542.176 510.736 542.488 510.868C542.812 510.988 543.256 511.126 543.82 511.282C544.528 511.474 545.104 511.666 545.548 511.858C545.992 512.038 546.37 512.314 546.682 512.686C547.006 513.058 547.174 513.544 547.186 514.144C547.186 514.684 547.036 515.17 546.736 515.602C546.436 516.034 546.01 516.376 545.458 516.628C544.918 516.868 544.294 516.988 543.586 516.988ZM551.496 508.312V514.126C551.496 514.606 551.598 514.948 551.802 515.152C552.006 515.344 552.36 515.44 552.864 515.44H554.07V516.826H552.594C551.682 516.826 550.998 516.616 550.542 516.196C550.086 515.776 549.858 515.086 549.858 514.126V508.312H548.58V506.962H549.858V504.478H551.496V506.962H554.07V508.312H551.496ZM555.443 511.858C555.443 510.85 555.647 509.968 556.055 509.212C556.463 508.444 557.021 507.85 557.729 507.43C558.449 507.01 559.247 506.8 560.123 506.8C560.987 506.8 561.737 506.986 562.373 507.358C563.009 507.73 563.483 508.198 563.795 508.762V506.962H565.451V516.826H563.795V514.99C563.471 515.566 562.985 516.046 562.337 516.43C561.701 516.802 560.957 516.988 560.105 516.988C559.229 516.988 558.437 516.772 557.729 516.34C557.021 515.908 556.463 515.302 556.055 514.522C555.647 513.742 555.443 512.854 555.443 511.858ZM563.795 511.876C563.795 511.132 563.645 510.484 563.345 509.932C563.045 509.38 562.637 508.96 562.121 508.672C561.617 508.372 561.059 508.222 560.447 508.222C559.835 508.222 559.277 508.366 558.773 508.654C558.269 508.942 557.867 509.362 557.567 509.914C557.267 510.466 557.117 511.114 557.117 511.858C557.117 512.614 557.267 513.274 557.567 513.838C557.867 514.39 558.269 514.816 558.773 515.116C559.277 515.404 559.835 515.548 560.447 515.548C561.059 515.548 561.617 515.404 562.121 515.116C562.637 514.816 563.045 514.39 563.345 513.838C563.645 513.274 563.795 512.62 563.795 511.876Z" fill="black"/>
<path d="M539.981 456.163H521.246C518.691 456.163 516.988 457.866 516.988 460.421V468.937C516.988 471.491 518.691 473.195 521.246 473.195H539.981C542.536 473.195 544.239 471.491 544.239 468.937V460.421C544.239 457.866 542.536 456.163 539.981 456.163ZM519.543 468.085V459.569C519.543 458.718 520.395 457.866 521.246 457.866H528.91V468.937H521.246C520.395 469.788 519.543 468.937 519.543 468.085ZM541.684 468.085C541.684 468.937 540.832 469.788 539.981 469.788H532.317V458.718H539.981C540.832 458.718 541.684 459.569 541.684 460.421V468.085Z" fill="#1A171B"/>
<path d="M562.118 483.42H553.603V451.06C553.603 451.06 554.454 451.06 555.306 451.06C560.415 451.06 563.822 446.802 563.822 441.693L552.751 430.622H551.9H540.829H528.907H527.204C526.352 430.622 525.501 431.474 525.501 432.325C525.501 433.177 526.352 434.028 527.204 434.028H528.055L530.61 440.841H516.985H504.211L506.766 433.177H507.618C508.469 433.177 509.321 432.325 509.321 431.474C509.321 430.622 508.469 430.622 507.618 430.622H505.915H493.993H482.922H482.07L471 440.841C471 445.95 475.258 450.208 479.516 450.208C479.516 450.208 480.367 450.208 481.219 450.208V482.568H472.703C471.852 483.42 471 484.271 471 485.123C471 485.974 471.852 486.826 472.703 486.826H482.922H492.289H509.321H552.751H562.97C563.822 486.826 564.673 485.974 564.673 485.123C564.673 484.271 562.97 483.42 562.118 483.42ZM554.454 448.505C551.9 448.505 549.345 446.802 548.493 443.396H560.415C560.415 445.95 557.861 448.505 554.454 448.505ZM558.712 440.841H548.493L543.384 433.177H551.048L558.712 440.841ZM539.978 433.177L544.235 440.841H533.165L530.61 433.177H539.978ZM545.939 443.396C545.087 445.95 542.532 448.505 539.978 448.505C537.423 448.505 534.868 446.802 534.017 443.396H545.939ZM530.61 443.396C530.61 445.95 528.055 448.505 524.649 448.505C522.094 448.505 519.54 446.802 518.688 443.396H530.61ZM501.657 440.841H489.735L493.993 433.177H503.36L501.657 440.841ZM500.805 443.396C499.954 445.95 497.399 448.505 494.844 448.505C492.289 448.505 489.735 446.802 488.883 443.396H500.805ZM516.133 443.396C515.282 445.95 512.727 448.505 510.172 448.505C507.618 448.505 505.063 446.802 504.211 443.396H516.133ZM482.922 433.177H490.586L486.328 440.841H476.109L482.922 433.177ZM473.555 443.396H485.477C485.477 445.95 482.922 448.505 479.516 448.505C476.961 448.505 474.406 445.95 473.555 443.396ZM507.618 469.794H493.141V459.576C493.141 458.724 493.993 457.872 494.844 457.872H505.915C506.766 457.872 507.618 458.724 507.618 459.576V469.794ZM493.141 483.42V472.349H507.618V483.42H493.141ZM510.172 483.42V459.576C510.172 457.021 508.469 455.318 505.915 455.318H494.844C492.289 455.318 490.586 457.021 490.586 459.576V483.42H483.774V450.208C485.477 449.357 486.328 448.505 487.18 446.802C488.883 449.357 491.438 451.06 494.844 451.06C498.25 451.06 500.805 449.357 502.508 446.802C504.211 449.357 506.766 451.06 510.172 451.06C513.579 451.06 516.133 449.357 517.837 446.802C518.688 449.357 522.094 451.06 524.649 451.06C528.055 451.06 530.61 449.357 532.313 446.802C534.017 449.357 536.571 451.06 539.978 451.06C543.384 451.06 545.939 449.357 547.642 446.802C548.493 448.505 549.345 449.357 551.048 450.208V483.42H510.172Z" fill="#1A171B"/>
<path d="M516.984 438.282C516.984 438.282 517.835 438.282 517.835 437.43C518.687 436.579 532.312 420.399 532.312 409.328C532.312 400.813 525.499 394 516.984 394C508.468 394 501.655 400.813 501.655 409.328C501.655 420.399 515.28 437.43 516.132 437.43C516.984 438.282 516.984 438.282 516.984 438.282ZM516.984 396.555C523.796 396.555 529.757 402.516 529.757 409.328C529.757 417.844 520.39 430.618 516.984 434.876C514.429 430.618 505.062 417.844 505.062 409.328C505.062 402.516 510.171 396.555 516.984 396.555Z" fill="#1A171B"/>
<path d="M524.647 409.326C524.647 405.068 521.24 402.514 517.834 402.514C513.576 402.514 511.021 405.92 511.021 409.326C511.021 413.584 514.428 416.139 517.834 416.139C521.24 416.139 524.647 413.584 524.647 409.326ZM513.576 409.326C513.576 406.772 515.279 405.068 517.834 405.068C520.389 405.068 522.092 406.772 522.092 409.326C522.092 411.881 520.389 413.584 517.834 413.584C515.279 413.584 513.576 411.881 513.576 409.326Z" fill="#1A171B"/>
<path d="M421 292L421 345.413V345.413C421 361.345 408.085 374.26 392.153 374.26L76.7397 374.26C34.9098 374.26 0.999959 408.17 0.999954 450V450" stroke="#272FF5" stroke-width="2"/>
<path d="M772.5 0.999993V0.999993C736.878 0.99999 708 29.8776 708 65.5L708 69.0002C708 106.556 677.555 137 640 137L521 137C465.772 137 421 181.772 421 237L421 292.001L421 345.244V345.244C421 361.126 433.875 374 449.756 374L743 374C784.698 374 818.5 407.803 818.5 449.5V449.5" stroke="#272FF5" stroke-width="2"/>
<rect x="728.999" y="407" width="55" height="14" rx="7" transform="rotate(90 728.999 407)" fill="#D8D9FF"/>
<path d="M667.165 497.684C667.165 496.46 667.441 495.362 667.993 494.39C668.545 493.406 669.295 492.638 670.243 492.086C671.203 491.534 672.265 491.258 673.429 491.258C674.797 491.258 675.991 491.588 677.011 492.248C678.031 492.908 678.775 493.844 679.243 495.056H677.281C676.933 494.3 676.429 493.718 675.769 493.31C675.121 492.902 674.341 492.698 673.429 492.698C672.553 492.698 671.767 492.902 671.071 493.31C670.375 493.718 669.829 494.3 669.433 495.056C669.037 495.8 668.839 496.676 668.839 497.684C668.839 498.68 669.037 499.556 669.433 500.312C669.829 501.056 670.375 501.632 671.071 502.04C671.767 502.448 672.553 502.652 673.429 502.652C674.341 502.652 675.121 502.454 675.769 502.058C676.429 501.65 676.933 501.068 677.281 500.312H679.243C678.775 501.512 678.031 502.442 677.011 503.102C675.991 503.75 674.797 504.074 673.429 504.074C672.265 504.074 671.203 503.804 670.243 503.264C669.295 502.712 668.545 501.95 667.993 500.978C667.441 500.006 667.165 498.908 667.165 497.684ZM685.983 504.128C685.059 504.128 684.219 503.918 683.463 503.498C682.719 503.078 682.131 502.484 681.699 501.716C681.279 500.936 681.069 500.036 681.069 499.016C681.069 498.008 681.285 497.12 681.717 496.352C682.161 495.572 682.761 494.978 683.517 494.57C684.273 494.15 685.119 493.94 686.055 493.94C686.991 493.94 687.837 494.15 688.593 494.57C689.349 494.978 689.943 495.566 690.375 496.334C690.819 497.102 691.041 497.996 691.041 499.016C691.041 500.036 690.813 500.936 690.357 501.716C689.913 502.484 689.307 503.078 688.539 503.498C687.771 503.918 686.919 504.128 685.983 504.128ZM685.983 502.688C686.571 502.688 687.123 502.55 687.639 502.274C688.155 501.998 688.569 501.584 688.881 501.032C689.205 500.48 689.367 499.808 689.367 499.016C689.367 498.224 689.211 497.552 688.899 497C688.587 496.448 688.179 496.04 687.675 495.776C687.171 495.5 686.625 495.362 686.037 495.362C685.437 495.362 684.885 495.5 684.381 495.776C683.889 496.04 683.493 496.448 683.193 497C682.893 497.552 682.743 498.224 682.743 499.016C682.743 499.82 682.887 500.498 683.175 501.05C683.475 501.602 683.871 502.016 684.363 502.292C684.855 502.556 685.395 502.688 685.983 502.688ZM698.001 493.922C699.201 493.922 700.173 494.288 700.917 495.02C701.661 495.74 702.033 496.784 702.033 498.152V503.966H700.413V498.386C700.413 497.402 700.167 496.652 699.675 496.136C699.183 495.608 698.511 495.344 697.659 495.344C696.795 495.344 696.105 495.614 695.589 496.154C695.085 496.694 694.833 497.48 694.833 498.512V503.966H693.195V494.102H694.833V495.506C695.157 495.002 695.595 494.612 696.147 494.336C696.711 494.06 697.329 493.922 698.001 493.922ZM708.2 504.128C707.444 504.128 706.766 504.002 706.166 503.75C705.566 503.486 705.092 503.126 704.744 502.67C704.396 502.202 704.204 501.668 704.168 501.068H705.86C705.908 501.56 706.136 501.962 706.544 502.274C706.964 502.586 707.51 502.742 708.182 502.742C708.806 502.742 709.298 502.604 709.658 502.328C710.018 502.052 710.198 501.704 710.198 501.284C710.198 500.852 710.006 500.534 709.622 500.33C709.238 500.114 708.644 499.904 707.84 499.7C707.108 499.508 706.508 499.316 706.04 499.124C705.584 498.92 705.188 498.626 704.852 498.242C704.528 497.846 704.366 497.33 704.366 496.694C704.366 496.19 704.516 495.728 704.816 495.308C705.116 494.888 705.542 494.558 706.094 494.318C706.646 494.066 707.276 493.94 707.984 493.94C709.076 493.94 709.958 494.216 710.63 494.768C711.302 495.32 711.662 496.076 711.71 497.036H710.072C710.036 496.52 709.826 496.106 709.442 495.794C709.07 495.482 708.566 495.326 707.93 495.326C707.342 495.326 706.874 495.452 706.526 495.704C706.178 495.956 706.004 496.286 706.004 496.694C706.004 497.018 706.106 497.288 706.31 497.504C706.526 497.708 706.79 497.876 707.102 498.008C707.426 498.128 707.87 498.266 708.434 498.422C709.142 498.614 709.718 498.806 710.162 498.998C710.606 499.178 710.984 499.454 711.296 499.826C711.62 500.198 711.788 500.684 711.8 501.284C711.8 501.824 711.65 502.31 711.35 502.742C711.05 503.174 710.624 503.516 710.072 503.768C709.532 504.008 708.908 504.128 708.2 504.128ZM722.861 494.102V503.966H721.223V502.508C720.911 503.012 720.473 503.408 719.909 503.696C719.357 503.972 718.745 504.11 718.073 504.11C717.305 504.11 716.615 503.954 716.003 503.642C715.391 503.318 714.905 502.838 714.545 502.202C714.197 501.566 714.023 500.792 714.023 499.88V494.102H715.643V499.664C715.643 500.636 715.889 501.386 716.381 501.914C716.873 502.43 717.545 502.688 718.397 502.688C719.273 502.688 719.963 502.418 720.467 501.878C720.971 501.338 721.223 500.552 721.223 499.52V494.102H722.861ZM737.488 493.922C738.256 493.922 738.94 494.084 739.54 494.408C740.14 494.72 740.614 495.194 740.962 495.83C741.31 496.466 741.484 497.24 741.484 498.152V503.966H739.864V498.386C739.864 497.402 739.618 496.652 739.126 496.136C738.646 495.608 737.992 495.344 737.164 495.344C736.312 495.344 735.634 495.62 735.13 496.172C734.626 496.712 734.374 497.498 734.374 498.53V503.966H732.754V498.386C732.754 497.402 732.508 496.652 732.016 496.136C731.536 495.608 730.882 495.344 730.054 495.344C729.202 495.344 728.524 495.62 728.02 496.172C727.516 496.712 727.264 497.498 727.264 498.53V503.966H725.626V494.102H727.264V495.524C727.588 495.008 728.02 494.612 728.56 494.336C729.112 494.06 729.718 493.922 730.378 493.922C731.206 493.922 731.938 494.108 732.574 494.48C733.21 494.852 733.684 495.398 733.996 496.118C734.272 495.422 734.728 494.882 735.364 494.498C736 494.114 736.708 493.922 737.488 493.922ZM745.017 492.5C744.705 492.5 744.441 492.392 744.225 492.176C744.009 491.96 743.901 491.696 743.901 491.384C743.901 491.072 744.009 490.808 744.225 490.592C744.441 490.376 744.705 490.268 745.017 490.268C745.317 490.268 745.569 490.376 745.773 490.592C745.989 490.808 746.097 491.072 746.097 491.384C746.097 491.696 745.989 491.96 745.773 492.176C745.569 492.392 745.317 492.5 745.017 492.5ZM745.809 494.102V503.966H744.171V494.102H745.809ZM747.989 498.998C747.989 497.99 748.193 497.108 748.601 496.352C749.009 495.584 749.567 494.99 750.275 494.57C750.995 494.15 751.799 493.94 752.687 493.94C753.455 493.94 754.169 494.12 754.829 494.48C755.489 494.828 755.993 495.29 756.341 495.866V490.646H757.997V503.966H756.341V502.112C756.017 502.7 755.537 503.186 754.901 503.57C754.265 503.942 753.521 504.128 752.669 504.128C751.793 504.128 750.995 503.912 750.275 503.48C749.567 503.048 749.009 502.442 748.601 501.662C748.193 500.882 747.989 499.994 747.989 498.998ZM756.341 499.016C756.341 498.272 756.191 497.624 755.891 497.072C755.591 496.52 755.183 496.1 754.667 495.812C754.163 495.512 753.605 495.362 752.993 495.362C752.381 495.362 751.823 495.506 751.319 495.794C750.815 496.082 750.413 496.502 750.113 497.054C749.813 497.606 749.663 498.254 749.663 498.998C749.663 499.754 749.813 500.414 750.113 500.978C750.413 501.53 750.815 501.956 751.319 502.256C751.823 502.544 752.381 502.688 752.993 502.688C753.605 502.688 754.163 502.544 754.667 502.256C755.183 501.956 755.591 501.53 755.891 500.978C756.191 500.414 756.341 499.76 756.341 499.016ZM765.067 504.128C764.143 504.128 763.303 503.918 762.547 503.498C761.803 503.078 761.215 502.484 760.783 501.716C760.363 500.936 760.153 500.036 760.153 499.016C760.153 498.008 760.369 497.12 760.801 496.352C761.245 495.572 761.845 494.978 762.601 494.57C763.357 494.15 764.203 493.94 765.139 493.94C766.075 493.94 766.921 494.15 767.677 494.57C768.433 494.978 769.027 495.566 769.459 496.334C769.903 497.102 770.125 497.996 770.125 499.016C770.125 500.036 769.897 500.936 769.441 501.716C768.997 502.484 768.391 503.078 767.623 503.498C766.855 503.918 766.003 504.128 765.067 504.128ZM765.067 502.688C765.655 502.688 766.207 502.55 766.723 502.274C767.239 501.998 767.653 501.584 767.965 501.032C768.289 500.48 768.451 499.808 768.451 499.016C768.451 498.224 768.295 497.552 767.983 497C767.671 496.448 767.263 496.04 766.759 495.776C766.255 495.5 765.709 495.362 765.121 495.362C764.521 495.362 763.969 495.5 763.465 495.776C762.973 496.04 762.577 496.448 762.277 497C761.977 497.552 761.827 498.224 761.827 499.016C761.827 499.82 761.971 500.498 762.259 501.05C762.559 501.602 762.955 502.016 763.447 502.292C763.939 502.556 764.479 502.688 765.067 502.688ZM773.917 495.704C774.205 495.14 774.613 494.702 775.141 494.39C775.681 494.078 776.335 493.922 777.103 493.922V495.614H776.671C774.835 495.614 773.917 496.61 773.917 498.602V503.966H772.279V494.102H773.917V495.704ZM708.169 522.452H706.099V530.966H704.461V522.452H703.183V521.102H704.461V520.4C704.461 519.296 704.743 518.492 705.307 517.988C705.883 517.472 706.801 517.214 708.061 517.214V518.582C707.341 518.582 706.831 518.726 706.531 519.014C706.243 519.29 706.099 519.752 706.099 520.4V521.102H708.169V522.452ZM710.924 519.5C710.612 519.5 710.348 519.392 710.132 519.176C709.916 518.96 709.808 518.696 709.808 518.384C709.808 518.072 709.916 517.808 710.132 517.592C710.348 517.376 710.612 517.268 710.924 517.268C711.224 517.268 711.476 517.376 711.68 517.592C711.896 517.808 712.004 518.072 712.004 518.384C712.004 518.696 711.896 518.96 711.68 519.176C711.476 519.392 711.224 519.5 710.924 519.5ZM711.716 521.102V530.966H710.078V521.102H711.716ZM719.314 520.922C720.514 520.922 721.486 521.288 722.23 522.02C722.974 522.74 723.346 523.784 723.346 525.152V530.966H721.726V525.386C721.726 524.402 721.48 523.652 720.988 523.136C720.496 522.608 719.824 522.344 718.972 522.344C718.108 522.344 717.418 522.614 716.902 523.154C716.398 523.694 716.146 524.48 716.146 525.512V530.966H714.508V521.102H716.146V522.506C716.47 522.002 716.908 521.612 717.46 521.336C718.024 521.06 718.642 520.922 719.314 520.922ZM725.41 525.998C725.41 524.99 725.614 524.108 726.022 523.352C726.43 522.584 726.988 521.99 727.696 521.57C728.416 521.15 729.214 520.94 730.09 520.94C730.954 520.94 731.704 521.126 732.34 521.498C732.976 521.87 733.45 522.338 733.762 522.902V521.102H735.418V530.966H733.762V529.13C733.438 529.706 732.952 530.186 732.304 530.57C731.668 530.942 730.924 531.128 730.072 531.128C729.196 531.128 728.404 530.912 727.696 530.48C726.988 530.048 726.43 529.442 726.022 528.662C725.614 527.882 725.41 526.994 725.41 525.998ZM733.762 526.016C733.762 525.272 733.612 524.624 733.312 524.072C733.012 523.52 732.604 523.1 732.088 522.812C731.584 522.512 731.026 522.362 730.414 522.362C729.802 522.362 729.244 522.506 728.74 522.794C728.236 523.082 727.834 523.502 727.534 524.054C727.234 524.606 727.084 525.254 727.084 525.998C727.084 526.754 727.234 527.414 727.534 527.978C727.834 528.53 728.236 528.956 728.74 529.256C729.244 529.544 729.802 529.688 730.414 529.688C731.026 529.688 731.584 529.544 732.088 529.256C732.604 528.956 733.012 528.53 733.312 527.978C733.612 527.414 733.762 526.76 733.762 526.016ZM739.824 517.646V530.966H738.186V517.646H739.824Z" fill="black"/>
<path d="M727.058 473.966H716.029C714.566 473.966 713.163 473.385 712.129 472.35C711.095 471.316 710.514 469.913 710.514 468.451V449.149C709.051 449.149 707.649 448.568 706.614 447.533C705.58 446.499 704.999 445.096 704.999 443.634V427.089C704.999 424.895 705.871 422.791 707.422 421.24C708.973 419.688 711.077 418.817 713.271 418.817H729.816C732.01 418.817 734.114 419.688 735.665 421.24C737.217 422.791 738.088 424.895 738.088 427.089V443.634C738.088 445.096 737.507 446.499 736.473 447.533C735.439 448.568 734.036 449.149 732.573 449.149V468.451C732.573 469.913 731.992 471.316 730.958 472.35C729.924 473.385 728.521 473.966 727.058 473.966ZM713.271 424.332C712.903 424.307 712.534 424.362 712.188 424.492C711.842 424.622 711.528 424.824 711.267 425.085C711.006 425.346 710.804 425.66 710.674 426.006C710.544 426.351 710.49 426.721 710.514 427.089V443.634H716.029V468.451H727.058V443.634H732.573V427.089C732.598 426.721 732.543 426.351 732.413 426.006C732.283 425.66 732.081 425.346 731.82 425.085C731.559 424.824 731.245 424.622 730.899 424.492C730.554 424.362 730.184 424.307 729.816 424.332H713.271Z" fill="black"/>
<path d="M721.544 416.059C719.362 416.059 717.23 415.413 715.416 414.201C713.602 412.989 712.188 411.266 711.354 409.251C710.519 407.235 710.3 405.017 710.726 402.878C711.151 400.738 712.202 398.773 713.744 397.231C715.287 395.688 717.252 394.638 719.392 394.212C721.531 393.786 723.749 394.005 725.765 394.84C727.78 395.674 729.503 397.088 730.715 398.902C731.926 400.716 732.573 402.848 732.573 405.03C732.573 407.955 731.411 410.76 729.343 412.829C727.274 414.897 724.469 416.059 721.544 416.059ZM721.544 399.515C720.453 399.515 719.387 399.838 718.48 400.444C717.573 401.05 716.866 401.912 716.449 402.919C716.031 403.927 715.922 405.036 716.135 406.106C716.348 407.175 716.873 408.158 717.644 408.929C718.415 409.701 719.398 410.226 720.468 410.439C721.538 410.651 722.646 410.542 723.654 410.125C724.662 409.707 725.523 409.001 726.129 408.094C726.735 407.187 727.059 406.12 727.059 405.03C727.059 403.567 726.477 402.164 725.443 401.13C724.409 400.096 723.006 399.515 721.544 399.515Z" fill="black"/>
</svg>
