<svg width="92" height="74" viewBox="0 0 92 74" fill="none" xmlns="http://www.w3.org/2000/svg">
<rect x="83" y="23" width="45" height="75" rx="20" transform="rotate(90 83 23)" fill="#D8D9FF"/>
<path d="M24 15.125C24 11.644 25.3907 8.30564 27.8662 5.84423C30.3417 3.38281 33.6991 2 37.2 2H57C60.5009 2 63.8583 3.38281 66.3338 5.84423C68.8093 8.30564 70.2 11.644 70.2 15.125V19.5H24V15.125Z" stroke="black" stroke-width="4" stroke-linecap="round" stroke-linejoin="round"/>
<path d="M2 39.1875L44.933 49.8603C45.6326 50.0353 46.3674 50.0353 47.067 49.8603L90 39.1875V67.625C90 68.7853 89.5364 69.8981 88.7113 70.7186C87.8861 71.5391 86.767 72 85.6 72H6.4C5.23305 72 4.11389 71.5391 3.28873 70.7186C2.46357 69.8981 2 68.7853 2 67.625V39.1875Z" stroke="black" stroke-width="4" stroke-linecap="round" stroke-linejoin="round"/>
<path d="M90 43.5625V23.875C90 22.7147 89.5364 21.6019 88.7113 20.7814C87.8861 19.9609 86.767 19.5 85.6 19.5H6.4C5.23305 19.5 4.11389 19.9609 3.28873 20.7814C2.46357 21.6019 2 22.7147 2 23.875V43.5625" stroke="black" stroke-width="4" stroke-linecap="round" stroke-linejoin="round"/>
<path d="M51.5 34.8125C51.5 36.2629 50.9205 37.6539 49.8891 38.6795C48.8576 39.7051 47.4587 40.2813 46 40.2813C44.5413 40.2813 43.1424 39.7051 42.1109 38.6795C41.0795 37.6539 40.5 36.2629 40.5 34.8125C40.5 33.3621 41.0795 31.9711 42.1109 30.9455C43.1424 29.9199 44.5413 29.3438 46 29.3438C47.4587 29.3438 48.8576 29.9199 49.8891 30.9455C50.9205 31.9711 51.5 33.3621 51.5 34.8125Z" fill="black"/>
</svg>
