<svg width="363" height="293" viewBox="0 0 363 293" fill="none" xmlns="http://www.w3.org/2000/svg">
<mask id="path-1-outside-1_101_76" maskUnits="userSpaceOnUse" x="-1.18021e-06" y="265" width="22" height="28" fill="black">
<rect fill="white" x="-1.18021e-06" y="265" width="22" height="28"/>
<path d="M19.8317 278.246L16.6683 273.861C16.235 273.259 16 272.528 16 271.775L16 267.742C16 266.78 15.25 266 14.325 266L7.67333 266C6.75 266 6 266.78 6 267.742L6 271.775C6 272.528 5.765 273.259 5.33167 273.861L2.16834 278.248C1.40998 279.299 1 280.577 1 281.891L1 285.067L21 285.067L21 281.891C21 280.577 20.59 279.298 19.8317 278.246ZM17.6667 286.8L14.3333 286.8L14.3333 292L17.6667 292L17.6667 286.8ZM4.33333 286.8L4.33333 292L7.66667 292L7.66667 286.8L4.33333 286.8Z"/>
</mask>
<path d="M19.8317 278.246L16.6683 273.861C16.235 273.259 16 272.528 16 271.775L16 267.742C16 266.78 15.25 266 14.325 266L7.67333 266C6.75 266 6 266.78 6 267.742L6 271.775C6 272.528 5.765 273.259 5.33167 273.861L2.16834 278.248C1.40998 279.299 1 280.577 1 281.891L1 285.067L21 285.067L21 281.891C21 280.577 20.59 279.298 19.8317 278.246ZM17.6667 286.8L14.3333 286.8L14.3333 292L17.6667 292L17.6667 286.8ZM4.33333 286.8L4.33333 292L7.66667 292L7.66667 286.8L4.33333 286.8Z" fill="#064CFF"/>
<path d="M19.8317 278.246L20.6429 277.661L20.6427 277.661L19.8317 278.246ZM16.6683 273.861L15.857 274.445L15.8573 274.446L16.6683 273.861ZM5.33167 273.861L6.1428 274.446L6.14303 274.445L5.33167 273.861ZM2.16834 278.248L2.97926 278.833L2.97946 278.833L2.16834 278.248ZM1 281.891L2 281.891L1 281.891ZM1 285.067L1.07392e-06 285.067L1.03021e-06 286.067L1 286.067L1 285.067ZM21 285.067L21 286.067L22 286.067L22 285.067L21 285.067ZM17.6667 286.8L18.6667 286.8C18.6667 286.248 18.219 285.8 17.6667 285.8L17.6667 286.8ZM14.3333 286.8L14.3333 285.8C13.781 285.8 13.3333 286.248 13.3333 286.8L14.3333 286.8ZM14.3333 292L13.3333 292C13.3333 292.552 13.781 293 14.3333 293L14.3333 292ZM17.6667 292L17.6667 293C18.219 293 18.6667 292.552 18.6667 292L17.6667 292ZM4.33333 286.8L4.33334 285.8C3.78105 285.8 3.33333 286.248 3.33333 286.8L4.33333 286.8ZM4.33333 292L3.33333 292C3.33333 292.552 3.78105 293 4.33333 293L4.33333 292ZM7.66667 292L7.66667 293C8.21895 293 8.66667 292.552 8.66667 292L7.66667 292ZM7.66667 286.8L8.66667 286.8C8.66667 286.248 8.21895 285.8 7.66667 285.8L7.66667 286.8ZM20.6427 277.661L17.4794 273.276L15.8573 274.446L19.0206 278.831L20.6427 277.661ZM17.4797 273.276C17.1705 272.847 17 272.32 17 271.775L15 271.775C15 272.735 15.2995 273.671 15.857 274.445L17.4797 273.276ZM17 271.775L17 267.742L15 267.742L15 271.775L17 271.775ZM17 267.742C17 266.265 15.8389 265 14.325 265L14.325 267C14.6611 267 15 267.295 15 267.742L17 267.742ZM14.325 265L7.67333 265L7.67333 267L14.325 267L14.325 265ZM7.67333 265C6.16048 265 5 266.266 5 267.742L7 267.742C7 267.294 7.33953 267 7.67333 267L7.67333 265ZM5 267.742L5 271.775L7 271.775L7 267.742L5 267.742ZM5 271.775C5 272.32 4.82951 272.847 4.52031 273.276L6.14303 274.445C6.70049 273.671 7 272.735 7 271.775L5 271.775ZM4.52054 273.276L1.35721 277.663L2.97946 278.833L6.1428 274.446L4.52054 273.276ZM1.35741 277.663C0.474311 278.886 1.2792e-06 280.37 1.21272e-06 281.891L2 281.891C2 280.784 2.34564 279.711 2.97926 278.833L1.35741 277.663ZM1.21272e-06 281.891L1.07392e-06 285.067L2 285.067L2 281.891L1.21272e-06 281.891ZM1 286.067L21 286.067L21 284.067L1 284.067L1 286.067ZM22 285.067L22 281.891L20 281.891L20 285.067L22 285.067ZM22 281.891C22 280.37 21.5257 278.886 20.6429 277.661L19.0204 278.831C19.6543 279.71 20 280.784 20 281.891L22 281.891ZM17.6667 285.8L14.3333 285.8L14.3333 287.8L17.6667 287.8L17.6667 285.8ZM13.3333 286.8L13.3333 292L15.3333 292L15.3333 286.8L13.3333 286.8ZM14.3333 293L17.6667 293L17.6667 291L14.3333 291L14.3333 293ZM18.6667 292L18.6667 286.8L16.6667 286.8L16.6667 292L18.6667 292ZM3.33333 286.8L3.33333 292L5.33333 292L5.33333 286.8L3.33333 286.8ZM4.33333 293L7.66667 293L7.66667 291L4.33333 291L4.33333 293ZM8.66667 292L8.66667 286.8L6.66667 286.8L6.66667 292L8.66667 292ZM7.66667 285.8L4.33334 285.8L4.33333 287.8L7.66667 287.8L7.66667 285.8Z" fill="#064CFF" mask="url(#path-1-outside-1_101_76)"/>
<path d="M11 266L11 248.737C11 221.123 33.3857 198.737 61 198.737L271.553 198.737C299.167 198.737 321.553 176.351 321.553 148.737L321.553 41.9475C321.553 19.3328 339.885 1 362.5 0.999999V0.999999" stroke="#064CFF" stroke-width="2" stroke-linecap="round"/>
</svg>
