<svg width="409" height="122" viewBox="0 0 409 122" fill="none" xmlns="http://www.w3.org/2000/svg">
<mask id="path-1-outside-1_101_78" maskUnits="userSpaceOnUse" x="381" y="100" width="28" height="22" fill="black">
<rect fill="white" x="381" y="100" width="28" height="22"/>
<path d="M394.246 102.168L389.861 105.332C389.259 105.765 388.528 106 387.775 106H383.742C382.78 106 382 106.75 382 107.675V114.327C382 115.25 382.78 116 383.742 116H387.775C388.528 116 389.259 116.235 389.861 116.668L394.248 119.832C395.299 120.59 396.577 121 397.891 121H401.067V101H397.891C396.577 101 395.298 101.41 394.246 102.168ZM402.8 104.333V107.667H408V104.333H402.8ZM402.8 117.667H408V114.333H402.8V117.667Z"/>
</mask>
<path d="M394.246 102.168L389.861 105.332C389.259 105.765 388.528 106 387.775 106H383.742C382.78 106 382 106.75 382 107.675V114.327C382 115.25 382.78 116 383.742 116H387.775C388.528 116 389.259 116.235 389.861 116.668L394.248 119.832C395.299 120.59 396.577 121 397.891 121H401.067V101H397.891C396.577 101 395.298 101.41 394.246 102.168ZM402.8 104.333V107.667H408V104.333H402.8ZM402.8 117.667H408V114.333H402.8V117.667Z" fill="#064CFF"/>
<path d="M394.246 102.168L393.661 101.357L393.661 101.357L394.246 102.168ZM389.861 105.332L390.445 106.143L390.446 106.143L389.861 105.332ZM389.861 116.668L390.446 115.857L390.445 115.857L389.861 116.668ZM394.248 119.832L394.833 119.021L394.833 119.021L394.248 119.832ZM397.891 121V120V121ZM401.067 121V122H402.067V121H401.067ZM401.067 101H402.067V100H401.067V101ZM402.8 104.333V103.333C402.248 103.333 401.8 103.781 401.8 104.333H402.8ZM402.8 107.667H401.8C401.8 108.219 402.248 108.667 402.8 108.667V107.667ZM408 107.667V108.667C408.552 108.667 409 108.219 409 107.667H408ZM408 104.333H409C409 103.781 408.552 103.333 408 103.333V104.333ZM402.8 117.667H401.8C401.8 118.219 402.248 118.667 402.8 118.667V117.667ZM408 117.667V118.667C408.552 118.667 409 118.219 409 117.667H408ZM408 114.333H409C409 113.781 408.552 113.333 408 113.333V114.333ZM402.8 114.333V113.333C402.248 113.333 401.8 113.781 401.8 114.333H402.8ZM393.661 101.357L389.276 104.521L390.446 106.143L394.831 102.979L393.661 101.357ZM389.276 104.52C388.847 104.83 388.32 105 387.775 105V107C388.735 107 389.671 106.7 390.445 106.143L389.276 104.52ZM387.775 105H383.742V107H387.775V105ZM383.742 105C382.265 105 381 106.161 381 107.675H383C383 107.339 383.295 107 383.742 107V105ZM381 107.675V114.327H383V107.675H381ZM381 114.327C381 115.84 382.266 117 383.742 117V115C383.294 115 383 114.66 383 114.327H381ZM383.742 117H387.775V115H383.742V117ZM387.775 117C388.32 117 388.847 117.17 389.276 117.48L390.445 115.857C389.671 115.3 388.735 115 387.775 115V117ZM389.276 117.479L393.663 120.643L394.833 119.021L390.446 115.857L389.276 117.479ZM393.663 120.643C394.886 121.526 396.37 122 397.891 122V120C396.784 120 395.711 119.654 394.833 119.021L393.663 120.643ZM397.891 122H401.067V120H397.891V122ZM402.067 121V101H400.067V121H402.067ZM401.067 100H397.891V102H401.067V100ZM397.891 100C396.37 100 394.886 100.474 393.661 101.357L394.831 102.98C395.71 102.346 396.784 102 397.891 102V100ZM401.8 104.333V107.667H403.8V104.333H401.8ZM402.8 108.667H408V106.667H402.8V108.667ZM409 107.667V104.333H407V107.667H409ZM408 103.333H402.8V105.333H408V103.333ZM402.8 118.667H408V116.667H402.8V118.667ZM409 117.667V114.333H407V117.667H409ZM408 113.333H402.8V115.333H408V113.333ZM401.8 114.333V117.667H403.8V114.333H401.8Z" fill="#064CFF" mask="url(#path-1-outside-1_101_78)"/>
<path d="M1.00001 0.999983L1.00014 61.0001C1.0002 88.6143 23.3859 111 51.0001 111L382 111" stroke="#064CFF" stroke-width="2" stroke-linecap="round"/>
</svg>
