<svg width="85" height="81" viewBox="0 0 85 81" fill="none" xmlns="http://www.w3.org/2000/svg">
<rect x="70" width="55" height="53" rx="20" transform="rotate(90 70 0)" fill="#D8D9FF"/>
<path d="M29.507 81C32.9566 81 35.753 78.2269 35.753 74.8062C35.753 71.3854 32.9566 68.6123 29.507 68.6123C26.0574 68.6123 23.261 71.3854 23.261 74.8062C23.261 78.2269 26.0574 81 29.507 81Z" fill="black"/>
<path d="M67.4551 81C70.9047 81 73.7012 78.2269 73.7012 74.8062C73.7012 71.3854 70.9047 68.6123 67.4551 68.6123C64.0055 68.6123 61.2091 71.3854 61.2091 74.8062C61.2091 78.2269 64.0055 81 67.4551 81Z" fill="black"/>
<path d="M84.3333 7.69223C84.075 7.37644 83.7493 7.12133 83.3797 6.94522C83.0101 6.7691 82.6058 6.67637 82.1957 6.67368H24.3992L26.2036 12.1793H78.5592L71.1472 45.2132H29.5071L16.8207 5.37986C16.6835 4.95718 16.4452 4.5737 16.1261 4.26212C15.8071 3.95055 15.4168 3.72013 14.9885 3.59052L3.60688 0.121959C3.25691 0.0153148 2.88919 -0.0219293 2.52471 0.0123529C2.16022 0.0466351 1.80612 0.151772 1.48261 0.321762C0.829251 0.665071 0.340182 1.2517 0.12299 1.95259C-0.0942015 2.65348 -0.0217248 3.41122 0.324476 4.05912C0.670677 4.70702 1.26224 5.19201 1.96904 5.40738L11.9349 8.43549L24.6768 48.3514L20.1241 52.0402L19.7633 52.3981C18.6371 53.685 17.9988 55.3211 17.9583 57.0245C17.9178 58.7279 18.4775 60.392 19.5412 61.7302C20.2978 62.6426 21.2593 63.3668 22.3487 63.8448C23.4381 64.3228 24.6251 64.5414 25.815 64.483H72.1466C72.8828 64.483 73.5889 64.193 74.1095 63.6767C74.6301 63.1605 74.9226 62.4603 74.9226 61.7302C74.9226 61.0001 74.6301 60.2999 74.1095 59.7836C73.5889 59.2674 72.8828 58.9774 72.1466 58.9774H25.3708C25.0511 58.9665 24.7397 58.8741 24.4665 58.7091C24.1934 58.5441 23.9678 58.312 23.8115 58.0352C23.6552 57.7585 23.5736 57.4464 23.5744 57.1293C23.5752 56.8121 23.6585 56.5005 23.8162 56.2245L30.5064 50.7189H73.368C74.0097 50.7344 74.637 50.529 75.1432 50.1375C75.6493 49.746 76.003 49.1927 76.144 48.5717L84.944 10.0321C85.0284 9.62173 85.0173 9.19764 84.9114 8.79216C84.8056 8.38667 84.6079 8.01048 84.3333 7.69223Z" fill="black"/>
</svg>
