<svg width="395" height="472" viewBox="0 0 395 472" fill="none" xmlns="http://www.w3.org/2000/svg">
<rect x="327" y="183.274" width="63" height="68" rx="20" transform="rotate(90 327 183.274)" fill="#D8D9FF"/>
<path d="M242 199.39C242.474 198.161 242.985 196.945 243.414 195.702C243.839 194.47 244.634 193.735 245.922 193.503C247.378 193.241 248.825 192.928 250.279 192.666C250.812 192.57 251.104 192.392 251.155 191.772C251.331 189.635 251.686 187.506 251.751 185.367C251.788 184.158 251.428 182.928 251.175 181.723C250.699 179.456 251.606 178.124 253.923 177.773C254.879 177.628 255.833 177.479 256.786 177.317C257.922 177.125 258.878 177.437 259.641 178.304C260.339 179.097 261.032 179.894 261.808 180.785C262.824 180.214 263.833 179.645 264.889 179.053C264.58 178.106 264.276 177.228 264.009 176.339C263.435 174.438 264.365 172.862 266.321 172.502C268.636 172.077 270.961 171.692 273.286 171.319C274.823 171.074 276.025 171.834 276.565 173.395C277.235 175.329 277.866 177.279 278.558 179.355C279.84 179.057 281.096 178.782 282.337 178.451C282.501 178.408 282.617 178.093 282.708 177.882C283.393 176.298 284.609 175.692 286.298 176.134C287.406 176.425 288.513 176.726 289.615 177.05C290.08 177.186 290.413 177.137 290.667 176.67C290.869 176.301 291.141 175.969 291.407 175.641C292.834 173.884 295.391 174.206 296.276 176.294C296.97 177.932 297.527 179.629 298.224 181.265C298.415 181.712 298.828 182.146 299.251 182.399C300.235 182.983 301.293 183.442 302.312 183.969C303.214 184.437 303.514 185.133 303.166 185.872C302.797 186.659 302.03 186.872 301.093 186.418C299.98 185.878 298.899 185.267 297.766 184.771C296.78 184.338 296.162 183.642 295.802 182.652C295.473 181.745 295.106 180.851 294.758 179.949C294.422 179.082 294.09 178.213 293.686 177.163C293.332 177.657 293.064 178.031 292.794 178.402C291.741 179.853 290.771 180.191 289.026 179.713C287.89 179.402 286.757 179.086 285.621 178.775C285.567 178.76 285.503 178.773 285.314 178.773C284.934 180.732 283.337 181.15 281.646 181.458C280.845 181.603 280.063 181.848 279.262 181.992C277.655 182.279 276.465 181.603 275.919 180.067C275.345 178.446 274.827 176.805 274.28 175.174C274.156 174.807 274.013 174.445 273.853 174.009C271.426 174.415 269.034 174.814 266.553 175.229C266.872 176.232 267.153 177.086 267.413 177.946C267.891 179.533 267.43 180.732 266.005 181.568C265.094 182.105 264.174 182.628 263.238 183.115C261.96 183.782 260.681 183.559 259.689 182.514C259.23 182.032 258.756 181.552 258.384 181.009C257.824 180.194 257.168 179.88 256.175 180.163C255.43 180.376 254.638 180.431 253.811 180.563C253.838 180.816 253.827 181.025 253.885 181.212C254.605 183.51 254.647 185.84 254.312 188.204C254.109 189.64 253.985 191.085 253.816 192.527C253.638 194.061 252.86 194.913 251.333 195.227C249.825 195.538 248.305 195.796 246.809 196.153C246.477 196.231 246.09 196.562 245.946 196.874C245.548 197.75 245.226 198.668 244.961 199.595C244.874 199.899 244.946 200.373 245.141 200.609C246.079 201.754 247.066 202.861 248.08 203.939C248.281 204.152 248.687 204.295 248.985 204.275C250.882 204.148 252.051 205.048 252.356 206.9C252.393 207.116 252.605 207.476 252.735 207.474C253.654 207.463 254.636 207.56 255.481 207.274C257.019 206.756 258.471 205.986 259.97 205.344C262.211 204.386 264.231 205.718 264.116 208.143C264.076 208.972 264.305 209.472 265.045 209.753C267.237 210.589 269.403 211.511 271.639 212.213C273.224 212.711 274.176 213.578 274.543 215.201C274.802 216.342 275.223 217.447 275.527 218.421C276.336 218.658 277.073 218.759 277.693 219.083C278.546 219.528 278.938 220.35 279.029 221.319C279.325 224.447 279.636 227.573 279.945 230.701C279.98 231.059 280.045 231.413 280.111 231.879C280.681 231.879 281.223 231.851 281.759 231.884C283.059 231.966 283.984 232.597 284.442 233.834C284.704 234.541 284.956 235.256 285.154 235.981C285.391 236.841 284.996 237.568 284.238 237.789C283.546 237.991 282.755 237.62 282.57 236.79C282.224 235.243 281.626 234.345 279.771 234.492C278.471 234.594 277.506 233.4 277.352 231.995C276.979 228.602 276.652 225.203 276.305 221.807C276.292 221.691 276.263 221.575 276.232 221.413C276.023 221.388 275.819 221.353 275.618 221.337C274.198 221.228 273.255 220.539 272.855 219.137C272.533 218.005 272.212 216.871 271.808 215.768C271.686 215.437 271.337 215.075 271.01 214.953C269.625 214.439 268.173 214.094 266.813 213.527C265.347 212.916 263.936 212.162 262.54 211.4C261.773 210.982 261.439 210.219 261.401 209.35C261.379 208.846 261.397 208.341 261.397 207.714C259.845 208.408 258.365 209.008 256.944 209.721C255.234 210.579 253.467 210.453 251.72 210.07C250.214 209.739 249.657 208.53 249.579 206.987C247.807 207.554 246.684 206.656 245.673 205.406C244.857 204.395 243.939 203.468 243.111 202.469C242.692 201.967 242.371 201.385 242.005 200.84C242 200.357 242 199.873 242 199.39Z" fill="black"/>
<path d="M280.803 251.272C282.755 253.307 284.654 255.289 286.601 257.321C286.841 257.11 287.023 256.972 287.183 256.808C289.647 254.314 292.121 251.83 294.56 249.311C294.869 248.993 295.093 248.513 295.178 248.071C295.442 246.739 295.543 245.372 295.858 244.054C296.023 243.362 296.363 242.604 296.861 242.117C298.241 240.766 299.704 239.489 301.225 238.3C301.727 237.907 302.496 237.753 303.161 237.689C305.687 237.447 308.219 237.271 310.751 237.104C311.344 237.064 311.74 236.862 312.087 236.359C314.004 233.571 315.978 230.822 317.88 228.023C318.219 227.522 318.368 226.864 318.507 226.257C319.212 223.136 319.848 220.001 320.593 216.889C320.76 216.195 321.155 215.479 321.64 214.953C322.665 213.848 323.812 212.854 324.924 211.833C325.653 211.164 326.449 211.131 327.016 211.705C327.631 212.329 327.56 213.107 326.789 213.843C325.915 214.677 325.044 215.52 324.125 216.302C323.538 216.802 323.249 217.394 323.092 218.134C322.393 221.409 321.667 224.681 320.911 227.943C320.786 228.485 320.526 229.027 320.211 229.488C318.248 232.355 316.224 235.177 314.283 238.06C313.521 239.19 312.554 239.743 311.211 239.823C308.677 239.974 306.147 240.17 303.621 240.401C303.179 240.441 302.694 240.657 302.345 240.937C301.283 241.786 300.24 242.664 299.271 243.616C298.877 244.005 298.564 244.583 298.444 245.125C298.177 246.33 298.148 247.591 297.845 248.785C297.645 249.569 297.283 250.412 296.739 250.986C294.206 253.664 291.588 256.263 288.991 258.882C287.484 260.401 285.919 260.409 284.404 258.922C282.592 257.143 280.778 255.367 278.98 253.575C277.482 252.082 277.588 250.29 279.249 248.978C280.956 247.629 282.67 246.29 284.409 244.983C284.913 244.605 285.134 244.252 284.871 243.627C284.684 243.187 284.584 242.704 284.491 242.231C284.344 241.482 284.767 240.795 285.456 240.603C286.147 240.41 286.866 240.768 287.117 241.502C287.352 242.186 287.535 242.891 287.697 243.596C287.988 244.863 287.644 245.923 286.599 246.732C284.762 248.157 282.924 249.585 281.088 251.016C280.97 251.11 280.865 251.217 280.803 251.272Z" fill="black"/>
<path d="M330.005 198.732C328.949 198.902 328.084 198.555 327.307 197.895C324.961 195.898 322.618 193.893 320.239 191.936C319.886 191.645 319.33 191.452 318.874 191.463C316.88 191.512 314.89 191.663 312.898 191.75C312.483 191.768 312.013 191.785 311.656 191.616C309.859 190.76 308.076 189.871 306.322 188.931C305.631 188.562 305.486 187.761 305.855 187.121C306.235 186.461 306.954 186.247 307.745 186.632C309.101 187.294 310.421 188.032 311.789 188.666C312.254 188.882 312.822 188.986 313.338 188.971C315.361 188.917 317.382 188.791 319.405 188.697C320.292 188.655 321.037 188.951 321.718 189.544C323.861 191.409 326.059 193.212 328.185 195.093C328.934 195.756 329.694 196.142 330.705 196.014C331.057 195.971 331.43 196.018 331.786 196.072C333.036 196.263 333.972 197.127 334.149 198.364C334.425 200.307 334.725 202.256 334.819 204.212C334.854 204.944 334.507 205.835 334.04 206.42C333.178 207.498 332.113 208.419 331.104 209.377C330.379 210.066 329.579 210.091 329.025 209.512C328.462 208.923 328.516 208.114 329.196 207.425C330.023 206.585 330.888 205.782 331.699 204.928C331.899 204.717 332.071 204.353 332.048 204.079C331.92 202.545 331.708 201.016 331.562 199.484C331.452 198.277 330.541 198.922 330.005 198.732Z" fill="black"/>
<path d="M242.411 277.483C243.779 277.483 244.961 277.741 245.957 278.257C246.965 278.761 247.733 279.487 248.261 280.435C248.801 281.383 249.071 282.499 249.071 283.783C249.071 285.067 248.801 286.183 248.261 287.131C247.733 288.067 246.965 288.787 245.957 289.291C244.961 289.783 243.779 290.029 242.411 290.029H238.505V277.483H242.411ZM242.411 288.679C244.031 288.679 245.267 288.253 246.119 287.401C246.971 286.537 247.397 285.331 247.397 283.783C247.397 282.223 246.965 281.005 246.101 280.129C245.249 279.253 244.019 278.815 242.411 278.815H240.143V288.679H242.411ZM252.078 278.563C251.766 278.563 251.502 278.455 251.286 278.239C251.07 278.023 250.962 277.759 250.962 277.447C250.962 277.135 251.07 276.871 251.286 276.655C251.502 276.439 251.766 276.331 252.078 276.331C252.378 276.331 252.63 276.439 252.834 276.655C253.05 276.871 253.158 277.135 253.158 277.447C253.158 277.759 253.05 278.023 252.834 278.239C252.63 278.455 252.378 278.563 252.078 278.563ZM252.87 280.165V290.029H251.232V280.165H252.87ZM259.153 290.191C258.397 290.191 257.719 290.065 257.119 289.813C256.519 289.549 256.045 289.189 255.697 288.733C255.349 288.265 255.157 287.731 255.121 287.131H256.813C256.861 287.623 257.089 288.025 257.497 288.337C257.917 288.649 258.463 288.805 259.135 288.805C259.759 288.805 260.251 288.667 260.611 288.391C260.971 288.115 261.151 287.767 261.151 287.347C261.151 286.915 260.959 286.597 260.575 286.393C260.191 286.177 259.597 285.967 258.793 285.763C258.061 285.571 257.461 285.379 256.993 285.187C256.537 284.983 256.141 284.689 255.805 284.305C255.481 283.909 255.319 283.393 255.319 282.757C255.319 282.253 255.469 281.791 255.769 281.371C256.069 280.951 256.495 280.621 257.047 280.381C257.599 280.129 258.229 280.003 258.937 280.003C260.029 280.003 260.911 280.279 261.583 280.831C262.255 281.383 262.615 282.139 262.663 283.099H261.025C260.989 282.583 260.779 282.169 260.395 281.857C260.023 281.545 259.519 281.389 258.883 281.389C258.295 281.389 257.827 281.515 257.479 281.767C257.131 282.019 256.957 282.349 256.957 282.757C256.957 283.081 257.059 283.351 257.263 283.567C257.479 283.771 257.743 283.939 258.055 284.071C258.379 284.191 258.823 284.329 259.387 284.485C260.095 284.677 260.671 284.869 261.115 285.061C261.559 285.241 261.937 285.517 262.249 285.889C262.573 286.261 262.741 286.747 262.753 287.347C262.753 287.887 262.603 288.373 262.303 288.805C262.003 289.237 261.577 289.579 261.025 289.831C260.485 290.071 259.861 290.191 259.153 290.191ZM267.064 281.515V287.329C267.064 287.809 267.166 288.151 267.37 288.355C267.574 288.547 267.928 288.643 268.432 288.643H269.638V290.029H268.162C267.25 290.029 266.566 289.819 266.11 289.399C265.654 288.979 265.426 288.289 265.426 287.329V281.515H264.148V280.165H265.426V277.681H267.064V280.165H269.638V281.515H267.064ZM273.26 281.767C273.548 281.203 273.956 280.765 274.484 280.453C275.024 280.141 275.678 279.985 276.446 279.985V281.677H276.014C274.178 281.677 273.26 282.673 273.26 284.665V290.029H271.622V280.165H273.26V281.767ZM279.183 278.563C278.871 278.563 278.607 278.455 278.391 278.239C278.175 278.023 278.067 277.759 278.067 277.447C278.067 277.135 278.175 276.871 278.391 276.655C278.607 276.439 278.871 276.331 279.183 276.331C279.483 276.331 279.735 276.439 279.939 276.655C280.155 276.871 280.263 277.135 280.263 277.447C280.263 277.759 280.155 278.023 279.939 278.239C279.735 278.455 279.483 278.563 279.183 278.563ZM279.975 280.165V290.029H278.337V280.165H279.975ZM284.405 282.001C284.741 281.413 285.233 280.933 285.881 280.561C286.529 280.189 287.267 280.003 288.095 280.003C288.983 280.003 289.781 280.213 290.489 280.633C291.197 281.053 291.755 281.647 292.163 282.415C292.571 283.171 292.775 284.053 292.775 285.061C292.775 286.057 292.571 286.945 292.163 287.725C291.755 288.505 291.191 289.111 290.471 289.543C289.763 289.975 288.971 290.191 288.095 290.191C287.243 290.191 286.493 290.005 285.845 289.633C285.209 289.261 284.729 288.787 284.405 288.211V290.029H282.767V276.709H284.405V282.001ZM291.101 285.061C291.101 284.317 290.951 283.669 290.651 283.117C290.351 282.565 289.943 282.145 289.427 281.857C288.923 281.569 288.365 281.425 287.753 281.425C287.153 281.425 286.595 281.575 286.079 281.875C285.575 282.163 285.167 282.589 284.855 283.153C284.555 283.705 284.405 284.347 284.405 285.079C284.405 285.823 284.555 286.477 284.855 287.041C285.167 287.593 285.575 288.019 286.079 288.319C286.595 288.607 287.153 288.751 287.753 288.751C288.365 288.751 288.923 288.607 289.427 288.319C289.943 288.019 290.351 287.593 290.651 287.041C290.951 286.477 291.101 285.817 291.101 285.061ZM303.679 280.165V290.029H302.041V288.571C301.729 289.075 301.291 289.471 300.727 289.759C300.175 290.035 299.563 290.173 298.891 290.173C298.123 290.173 297.433 290.017 296.821 289.705C296.209 289.381 295.723 288.901 295.363 288.265C295.015 287.629 294.841 286.855 294.841 285.943V280.165H296.461V285.727C296.461 286.699 296.707 287.449 297.199 287.977C297.691 288.493 298.363 288.751 299.215 288.751C300.091 288.751 300.781 288.481 301.285 287.941C301.789 287.401 302.041 286.615 302.041 285.583V280.165H303.679ZM307.291 278.563C306.979 278.563 306.715 278.455 306.499 278.239C306.283 278.023 306.175 277.759 306.175 277.447C306.175 277.135 306.283 276.871 306.499 276.655C306.715 276.439 306.979 276.331 307.291 276.331C307.591 276.331 307.843 276.439 308.047 276.655C308.263 276.871 308.371 277.135 308.371 277.447C308.371 277.759 308.263 278.023 308.047 278.239C307.843 278.455 307.591 278.563 307.291 278.563ZM308.083 280.165V290.029H306.445V280.165H308.083ZM310.262 285.061C310.262 284.053 310.466 283.171 310.874 282.415C311.282 281.647 311.84 281.053 312.548 280.633C313.268 280.213 314.072 280.003 314.96 280.003C315.728 280.003 316.442 280.183 317.102 280.543C317.762 280.891 318.266 281.353 318.614 281.929V276.709H320.27V290.029H318.614V288.175C318.29 288.763 317.81 289.249 317.174 289.633C316.538 290.005 315.794 290.191 314.942 290.191C314.066 290.191 313.268 289.975 312.548 289.543C311.84 289.111 311.282 288.505 310.874 287.725C310.466 286.945 310.262 286.057 310.262 285.061ZM318.614 285.079C318.614 284.335 318.464 283.687 318.164 283.135C317.864 282.583 317.456 282.163 316.94 281.875C316.436 281.575 315.878 281.425 315.266 281.425C314.654 281.425 314.096 281.569 313.592 281.857C313.088 282.145 312.686 282.565 312.386 283.117C312.086 283.669 311.936 284.317 311.936 285.061C311.936 285.817 312.086 286.477 312.386 287.041C312.686 287.593 313.088 288.019 313.592 288.319C314.096 288.607 314.654 288.751 315.266 288.751C315.878 288.751 316.436 288.607 316.94 288.319C317.456 288.019 317.864 287.593 318.164 287.041C318.464 286.477 318.614 285.823 318.614 285.079ZM327.34 290.191C326.416 290.191 325.576 289.981 324.82 289.561C324.076 289.141 323.488 288.547 323.056 287.779C322.636 286.999 322.426 286.099 322.426 285.079C322.426 284.071 322.642 283.183 323.074 282.415C323.518 281.635 324.118 281.041 324.874 280.633C325.63 280.213 326.476 280.003 327.412 280.003C328.348 280.003 329.194 280.213 329.95 280.633C330.706 281.041 331.3 281.629 331.732 282.397C332.176 283.165 332.398 284.059 332.398 285.079C332.398 286.099 332.17 286.999 331.714 287.779C331.27 288.547 330.664 289.141 329.896 289.561C329.128 289.981 328.276 290.191 327.34 290.191ZM327.34 288.751C327.928 288.751 328.48 288.613 328.996 288.337C329.512 288.061 329.926 287.647 330.238 287.095C330.562 286.543 330.724 285.871 330.724 285.079C330.724 284.287 330.568 283.615 330.256 283.063C329.944 282.511 329.536 282.103 329.032 281.839C328.528 281.563 327.982 281.425 327.394 281.425C326.794 281.425 326.242 281.563 325.738 281.839C325.246 282.103 324.85 282.511 324.55 283.063C324.25 283.615 324.1 284.287 324.1 285.079C324.1 285.883 324.244 286.561 324.532 287.113C324.832 287.665 325.228 288.079 325.72 288.355C326.212 288.619 326.752 288.751 327.34 288.751ZM336.19 281.767C336.478 281.203 336.886 280.765 337.414 280.453C337.954 280.141 338.608 279.985 339.376 279.985V281.677H338.944C337.108 281.677 336.19 282.673 336.19 284.665V290.029H334.552V280.165H336.19V281.767Z" fill="black"/>
<rect x="124" y="178.274" width="79" height="76" rx="20" transform="rotate(90 124 178.274)" fill="#D8D9FF"/>
<path d="M124.947 171.274H46.7285C43.3642 171.274 40 174.638 40 178.002V186.413V225.943C40 226.784 40.8411 227.625 41.6821 227.625C42.5232 227.625 43.3642 226.784 43.3642 225.943V188.095H129.152V256.221C129.152 258.744 127.47 260.426 124.947 260.426H46.7285C44.2053 260.426 42.5232 258.744 42.5232 256.221V255.38C42.5232 254.539 41.6821 253.698 40.8411 253.698C40.8411 253.698 40 254.539 40 255.38V256.221C40 260.426 43.3642 262.95 46.7285 262.95H124.106C128.311 262.95 130.835 259.585 130.835 256.221V186.413V178.002C131.676 174.638 128.311 171.274 124.947 171.274ZM129.152 185.572H42.5232V178.002C42.5232 175.479 44.2053 173.797 46.7285 173.797H124.106C126.629 173.797 128.311 175.479 128.311 178.002V185.572H129.152Z" fill="#1A171B"/>
<path d="M121.581 178.845V179.686V180.527H122.422H123.263V179.686V178.845C123.263 178.004 122.422 178.004 121.581 178.845Z" fill="#1A171B"/>
<path d="M115.696 178.004C114.855 178.004 114.014 178.845 114.014 179.686C114.014 180.527 114.855 181.368 115.696 181.368C116.537 181.368 117.378 180.527 117.378 179.686C116.537 178.845 115.696 178.004 115.696 178.004Z" fill="#1A171B"/>
<path d="M106.447 178.845V179.686V180.527H107.288H108.129V179.686V178.845C108.129 178.004 107.288 178.004 106.447 178.845Z" fill="#1A171B"/>
<path d="M40.8411 249.494C41.6821 249.494 41.6821 249.494 42.5232 249.494L64.3908 226.785C65.2318 225.944 66.914 225.944 68.5961 226.785L80.3709 238.56C81.212 239.401 82.8941 240.242 84.5762 240.242C86.2584 240.242 87.0994 239.401 87.9405 238.56L112.331 214.169L116.537 219.216C116.537 219.216 117.378 220.057 118.219 219.216C119.06 219.216 119.06 218.375 119.06 217.534V200.712C119.06 199.871 118.219 199.03 117.378 199.03H100.556C99.7153 199.03 99.7153 199.03 98.8743 199.871C98.8743 200.712 98.8743 200.712 98.8743 201.553L103.08 205.759L86.2584 224.262C85.4173 225.103 83.7352 225.103 82.0531 224.262L70.2782 212.487C67.755 209.964 64.3908 209.964 62.7087 212.487L40 235.196V236.037V248.653C40 248.653 40 249.494 40.8411 249.494ZM42.5232 236.037L64.3908 214.169C65.2318 213.328 66.914 213.328 68.5961 214.169L80.3709 225.944C81.212 226.785 82.8941 227.626 84.5762 227.626C86.2584 227.626 87.0994 226.785 88.7815 225.944L107.285 206.6C107.285 206.6 107.285 205.759 107.285 204.918L103.921 201.553H116.537V214.169L113.172 210.805C112.331 209.964 111.49 209.964 111.49 210.805L86.2584 236.037C85.4173 236.878 83.7352 236.878 82.0531 236.037L70.2782 225.103C67.755 222.58 64.3908 222.58 62.7087 225.103L42.5232 245.289V236.037Z" fill="#1A171B"/>
<path d="M39.1932 292.95L36.2052 287.82H34.2252V292.95H32.5872V280.404H36.6372C37.5852 280.404 38.3832 280.566 39.0312 280.89C39.6912 281.214 40.1832 281.652 40.5072 282.204C40.8312 282.756 40.9932 283.386 40.9932 284.094C40.9932 284.958 40.7412 285.72 40.2372 286.38C39.7452 287.04 39.0012 287.478 38.0052 287.694L41.1552 292.95H39.1932ZM34.2252 286.506H36.6372C37.5252 286.506 38.1912 286.29 38.6352 285.858C39.0792 285.414 39.3012 284.826 39.3012 284.094C39.3012 283.35 39.0792 282.774 38.6352 282.366C38.2032 281.958 37.5372 281.754 36.6372 281.754H34.2252V286.506ZM52.5383 287.64C52.5383 287.952 52.5203 288.282 52.4843 288.63H44.6003C44.6603 289.602 44.9903 290.364 45.5903 290.916C46.2023 291.456 46.9403 291.726 47.8043 291.726C48.5123 291.726 49.1003 291.564 49.5683 291.24C50.0483 290.904 50.3843 290.46 50.5763 289.908H52.3403C52.0763 290.856 51.5483 291.63 50.7563 292.23C49.9643 292.818 48.9803 293.112 47.8043 293.112C46.8683 293.112 46.0283 292.902 45.2843 292.482C44.5523 292.062 43.9763 291.468 43.5563 290.7C43.1363 289.92 42.9263 289.02 42.9263 288C42.9263 286.98 43.1303 286.086 43.5383 285.318C43.9463 284.55 44.5163 283.962 45.2483 283.554C45.9923 283.134 46.8443 282.924 47.8043 282.924C48.7403 282.924 49.5683 283.128 50.2883 283.536C51.0083 283.944 51.5603 284.508 51.9443 285.228C52.3403 285.936 52.5383 286.74 52.5383 287.64ZM50.8463 287.298C50.8463 286.674 50.7083 286.14 50.4323 285.696C50.1563 285.24 49.7783 284.898 49.2983 284.67C48.8303 284.43 48.3083 284.31 47.7323 284.31C46.9043 284.31 46.1963 284.574 45.6083 285.102C45.0323 285.63 44.7023 286.362 44.6183 287.298H50.8463ZM58.3725 291.438L61.4325 283.086H63.1785L59.3085 292.95H57.4005L53.5305 283.086H55.2945L58.3725 291.438ZM73.7903 287.64C73.7903 287.952 73.7723 288.282 73.7363 288.63H65.8523C65.9123 289.602 66.2423 290.364 66.8423 290.916C67.4543 291.456 68.1923 291.726 69.0563 291.726C69.7643 291.726 70.3523 291.564 70.8203 291.24C71.3003 290.904 71.6363 290.46 71.8283 289.908H73.5923C73.3283 290.856 72.8003 291.63 72.0083 292.23C71.2163 292.818 70.2323 293.112 69.0563 293.112C68.1203 293.112 67.2803 292.902 66.5363 292.482C65.8043 292.062 65.2283 291.468 64.8083 290.7C64.3883 289.92 64.1783 289.02 64.1783 288C64.1783 286.98 64.3823 286.086 64.7903 285.318C65.1983 284.55 65.7683 283.962 66.5003 283.554C67.2443 283.134 68.0963 282.924 69.0563 282.924C69.9923 282.924 70.8203 283.128 71.5403 283.536C72.2603 283.944 72.8123 284.508 73.1963 285.228C73.5923 285.936 73.7903 286.74 73.7903 287.64ZM72.0983 287.298C72.0983 286.674 71.9603 286.14 71.6843 285.696C71.4083 285.24 71.0303 284.898 70.5503 284.67C70.0823 284.43 69.5603 284.31 68.9843 284.31C68.1563 284.31 67.4483 284.574 66.8603 285.102C66.2843 285.63 65.9543 286.362 65.8703 287.298H72.0983ZM80.7584 282.906C81.9584 282.906 82.9304 283.272 83.6744 284.004C84.4184 284.724 84.7904 285.768 84.7904 287.136V292.95H83.1704V287.37C83.1704 286.386 82.9244 285.636 82.4324 285.12C81.9404 284.592 81.2684 284.328 80.4164 284.328C79.5524 284.328 78.8624 284.598 78.3464 285.138C77.8424 285.678 77.5904 286.464 77.5904 287.496V292.95H75.9524V283.086H77.5904V284.49C77.9144 283.986 78.3524 283.596 78.9044 283.32C79.4684 283.044 80.0864 282.906 80.7584 282.906ZM86.8541 287.982C86.8541 286.974 87.0581 286.092 87.4661 285.336C87.8741 284.568 88.4321 283.974 89.1401 283.554C89.8601 283.134 90.6641 282.924 91.5521 282.924C92.3201 282.924 93.0341 283.104 93.6941 283.464C94.3541 283.812 94.8581 284.274 95.2061 284.85V279.63H96.8621V292.95H95.2061V291.096C94.8821 291.684 94.4021 292.17 93.7661 292.554C93.1301 292.926 92.3861 293.112 91.5341 293.112C90.6581 293.112 89.8601 292.896 89.1401 292.464C88.4321 292.032 87.8741 291.426 87.4661 290.646C87.0581 289.866 86.8541 288.978 86.8541 287.982ZM95.2061 288C95.2061 287.256 95.0561 286.608 94.7561 286.056C94.4561 285.504 94.0481 285.084 93.5321 284.796C93.0281 284.496 92.4701 284.346 91.8581 284.346C91.2461 284.346 90.6881 284.49 90.1841 284.778C89.6801 285.066 89.2781 285.486 88.9781 286.038C88.6781 286.59 88.5281 287.238 88.5281 287.982C88.5281 288.738 88.6781 289.398 88.9781 289.962C89.2781 290.514 89.6801 290.94 90.1841 291.24C90.6881 291.528 91.2461 291.672 91.8581 291.672C92.4701 291.672 93.0281 291.528 93.5321 291.24C94.0481 290.94 94.4561 290.514 94.7561 289.962C95.0561 289.398 95.2061 288.744 95.2061 288ZM108.63 287.64C108.63 287.952 108.612 288.282 108.576 288.63H100.692C100.752 289.602 101.082 290.364 101.682 290.916C102.294 291.456 103.032 291.726 103.896 291.726C104.604 291.726 105.192 291.564 105.66 291.24C106.14 290.904 106.476 290.46 106.668 289.908H108.432C108.168 290.856 107.64 291.63 106.848 292.23C106.056 292.818 105.072 293.112 103.896 293.112C102.96 293.112 102.12 292.902 101.376 292.482C100.644 292.062 100.068 291.468 99.6481 290.7C99.2281 289.92 99.0181 289.02 99.0181 288C99.0181 286.98 99.2221 286.086 99.6301 285.318C100.038 284.55 100.608 283.962 101.34 283.554C102.084 283.134 102.936 282.924 103.896 282.924C104.832 282.924 105.66 283.128 106.38 283.536C107.1 283.944 107.652 284.508 108.036 285.228C108.432 285.936 108.63 286.74 108.63 287.64ZM106.938 287.298C106.938 286.674 106.8 286.14 106.524 285.696C106.248 285.24 105.87 284.898 105.39 284.67C104.922 284.43 104.4 284.31 103.824 284.31C102.996 284.31 102.288 284.574 101.7 285.102C101.124 285.63 100.794 286.362 100.71 287.298H106.938ZM110.18 287.982C110.18 286.974 110.384 286.092 110.792 285.336C111.2 284.568 111.758 283.974 112.466 283.554C113.186 283.134 113.99 282.924 114.878 282.924C115.646 282.924 116.36 283.104 117.02 283.464C117.68 283.812 118.184 284.274 118.532 284.85V279.63H120.188V292.95H118.532V291.096C118.208 291.684 117.728 292.17 117.092 292.554C116.456 292.926 115.712 293.112 114.86 293.112C113.984 293.112 113.186 292.896 112.466 292.464C111.758 292.032 111.2 291.426 110.792 290.646C110.384 289.866 110.18 288.978 110.18 287.982ZM118.532 288C118.532 287.256 118.382 286.608 118.082 286.056C117.782 285.504 117.374 285.084 116.858 284.796C116.354 284.496 115.796 284.346 115.184 284.346C114.572 284.346 114.014 284.49 113.51 284.778C113.006 285.066 112.604 285.486 112.304 286.038C112.004 286.59 111.854 287.238 111.854 287.982C111.854 288.738 112.004 289.398 112.304 289.962C112.604 290.514 113.006 290.94 113.51 291.24C114.014 291.528 114.572 291.672 115.184 291.672C115.796 291.672 116.354 291.528 116.858 291.24C117.374 290.94 117.782 290.514 118.082 289.962C118.382 289.398 118.532 288.744 118.532 288ZM127.258 293.112C126.334 293.112 125.494 292.902 124.738 292.482C123.994 292.062 123.406 291.468 122.974 290.7C122.554 289.92 122.344 289.02 122.344 288C122.344 286.992 122.56 286.104 122.992 285.336C123.436 284.556 124.036 283.962 124.792 283.554C125.548 283.134 126.394 282.924 127.33 282.924C128.266 282.924 129.112 283.134 129.868 283.554C130.624 283.962 131.218 284.55 131.65 285.318C132.094 286.086 132.316 286.98 132.316 288C132.316 289.02 132.088 289.92 131.632 290.7C131.188 291.468 130.582 292.062 129.814 292.482C129.046 292.902 128.194 293.112 127.258 293.112ZM127.258 291.672C127.846 291.672 128.398 291.534 128.914 291.258C129.43 290.982 129.844 290.568 130.156 290.016C130.48 289.464 130.642 288.792 130.642 288C130.642 287.208 130.486 286.536 130.174 285.984C129.862 285.432 129.454 285.024 128.95 284.76C128.446 284.484 127.9 284.346 127.312 284.346C126.712 284.346 126.16 284.484 125.656 284.76C125.164 285.024 124.768 285.432 124.468 285.984C124.168 286.536 124.018 287.208 124.018 288C124.018 288.804 124.162 289.482 124.45 290.034C124.75 290.586 125.146 291 125.638 291.276C126.13 291.54 126.67 291.672 127.258 291.672ZM136.108 284.688C136.396 284.124 136.804 283.686 137.332 283.374C137.872 283.062 138.526 282.906 139.294 282.906V284.598H138.862C137.026 284.598 136.108 285.594 136.108 287.586V292.95H134.47V283.086H136.108V284.688Z" fill="black"/>
<rect x="115" y="336.274" width="81" height="54" rx="20" transform="rotate(90 115 336.274)" fill="#D8D9FF"/>
<path d="M44.969 447.31H39.497L38.489 450.1H36.761L41.297 437.626H43.187L47.705 450.1H45.977L44.969 447.31ZM44.501 445.978L42.233 439.642L39.965 445.978H44.501ZM51.6799 441.586V447.4C51.6799 447.88 51.7819 448.222 51.9859 448.426C52.1899 448.618 52.5439 448.714 53.0479 448.714H54.2539V450.1H52.7779C51.8659 450.1 51.1819 449.89 50.7259 449.47C50.2699 449.05 50.0419 448.36 50.0419 447.4V441.586H48.7639V440.236H50.0419V437.752H51.6799V440.236H54.2539V441.586H51.6799ZM55.6265 445.132C55.6265 444.124 55.8305 443.242 56.2385 442.486C56.6465 441.718 57.2045 441.124 57.9125 440.704C58.6325 440.284 59.4305 440.074 60.3065 440.074C61.1705 440.074 61.9205 440.26 62.5565 440.632C63.1925 441.004 63.6665 441.472 63.9785 442.036V440.236H65.6345V450.1H63.9785V448.264C63.6545 448.84 63.1685 449.32 62.5205 449.704C61.8845 450.076 61.1405 450.262 60.2885 450.262C59.4125 450.262 58.6205 450.046 57.9125 449.614C57.2045 449.182 56.6465 448.576 56.2385 447.796C55.8305 447.016 55.6265 446.128 55.6265 445.132ZM63.9785 445.15C63.9785 444.406 63.8285 443.758 63.5285 443.206C63.2285 442.654 62.8205 442.234 62.3045 441.946C61.8005 441.646 61.2425 441.496 60.6305 441.496C60.0185 441.496 59.4605 441.64 58.9565 441.928C58.4525 442.216 58.0505 442.636 57.7505 443.188C57.4505 443.74 57.3005 444.388 57.3005 445.132C57.3005 445.888 57.4505 446.548 57.7505 447.112C58.0505 447.664 58.4525 448.09 58.9565 448.39C59.4605 448.678 60.0185 448.822 60.6305 448.822C61.2425 448.822 61.8005 448.678 62.3045 448.39C62.8205 448.09 63.2285 447.664 63.5285 447.112C63.8285 446.548 63.9785 445.894 63.9785 445.15ZM67.7906 445.15C67.7906 444.13 67.9946 443.242 68.4026 442.486C68.8106 441.718 69.3746 441.124 70.0946 440.704C70.8266 440.284 71.6606 440.074 72.5966 440.074C73.8086 440.074 74.8046 440.368 75.5846 440.956C76.3766 441.544 76.8986 442.36 77.1506 443.404H75.3866C75.2186 442.804 74.8886 442.33 74.3966 441.982C73.9166 441.634 73.3166 441.46 72.5966 441.46C71.6606 441.46 70.9046 441.784 70.3286 442.432C69.7526 443.068 69.4646 443.974 69.4646 445.15C69.4646 446.338 69.7526 447.256 70.3286 447.904C70.9046 448.552 71.6606 448.876 72.5966 448.876C73.3166 448.876 73.9166 448.708 74.3966 448.372C74.8766 448.036 75.2066 447.556 75.3866 446.932H77.1506C76.8866 447.94 76.3586 448.75 75.5666 449.362C74.7746 449.962 73.7846 450.262 72.5966 450.262C71.6606 450.262 70.8266 450.052 70.0946 449.632C69.3746 449.212 68.8106 448.618 68.4026 447.85C67.9946 447.082 67.7906 446.182 67.7906 445.15ZM78.7242 445.132C78.7242 444.124 78.9282 443.242 79.3362 442.486C79.7442 441.718 80.3022 441.124 81.0102 440.704C81.7302 440.284 82.5282 440.074 83.4042 440.074C84.2682 440.074 85.0182 440.26 85.6542 440.632C86.2902 441.004 86.7642 441.472 87.0762 442.036V440.236H88.7322V450.1H87.0762V448.264C86.7522 448.84 86.2662 449.32 85.6182 449.704C84.9822 450.076 84.2382 450.262 83.3862 450.262C82.5102 450.262 81.7182 450.046 81.0102 449.614C80.3022 449.182 79.7442 448.576 79.3362 447.796C78.9282 447.016 78.7242 446.128 78.7242 445.132ZM87.0762 445.15C87.0762 444.406 86.9262 443.758 86.6262 443.206C86.3262 442.654 85.9182 442.234 85.4022 441.946C84.8982 441.646 84.3402 441.496 83.7282 441.496C83.1162 441.496 82.5582 441.64 82.0542 441.928C81.5502 442.216 81.1482 442.636 80.8482 443.188C80.5482 443.74 80.3982 444.388 80.3982 445.132C80.3982 445.888 80.5482 446.548 80.8482 447.112C81.1482 447.664 81.5502 448.09 82.0542 448.39C82.5582 448.678 83.1162 448.822 83.7282 448.822C84.3402 448.822 84.8982 448.678 85.4022 448.39C85.9182 448.09 86.3262 447.664 86.6262 447.112C86.9262 446.548 87.0762 445.894 87.0762 445.15ZM90.8883 445.132C90.8883 444.124 91.0923 443.242 91.5003 442.486C91.9083 441.718 92.4663 441.124 93.1743 440.704C93.8943 440.284 94.6983 440.074 95.5863 440.074C96.3543 440.074 97.0683 440.254 97.7283 440.614C98.3883 440.962 98.8923 441.424 99.2403 442V436.78H100.896V450.1H99.2403V448.246C98.9163 448.834 98.4363 449.32 97.8003 449.704C97.1643 450.076 96.4203 450.262 95.5683 450.262C94.6923 450.262 93.8943 450.046 93.1743 449.614C92.4663 449.182 91.9083 448.576 91.5003 447.796C91.0923 447.016 90.8883 446.128 90.8883 445.132ZM99.2403 445.15C99.2403 444.406 99.0903 443.758 98.7903 443.206C98.4903 442.654 98.0823 442.234 97.5663 441.946C97.0623 441.646 96.5043 441.496 95.8923 441.496C95.2803 441.496 94.7223 441.64 94.2183 441.928C93.7143 442.216 93.3123 442.636 93.0123 443.188C92.7123 443.74 92.5623 444.388 92.5623 445.132C92.5623 445.888 92.7123 446.548 93.0123 447.112C93.3123 447.664 93.7143 448.09 94.2183 448.39C94.7223 448.678 95.2803 448.822 95.8923 448.822C96.5043 448.822 97.0623 448.678 97.5663 448.39C98.0823 448.09 98.4903 447.664 98.7903 447.112C99.0903 446.548 99.2403 445.894 99.2403 445.15ZM104.51 438.634C104.198 438.634 103.934 438.526 103.718 438.31C103.502 438.094 103.394 437.83 103.394 437.518C103.394 437.206 103.502 436.942 103.718 436.726C103.934 436.51 104.198 436.402 104.51 436.402C104.81 436.402 105.062 436.51 105.266 436.726C105.482 436.942 105.59 437.206 105.59 437.518C105.59 437.83 105.482 438.094 105.266 438.31C105.062 438.526 104.81 438.634 104.51 438.634ZM105.302 440.236V450.1H103.664V440.236H105.302ZM111.586 450.262C110.83 450.262 110.152 450.136 109.552 449.884C108.952 449.62 108.478 449.26 108.13 448.804C107.782 448.336 107.59 447.802 107.554 447.202H109.246C109.294 447.694 109.522 448.096 109.93 448.408C110.35 448.72 110.896 448.876 111.568 448.876C112.192 448.876 112.684 448.738 113.044 448.462C113.404 448.186 113.584 447.838 113.584 447.418C113.584 446.986 113.392 446.668 113.008 446.464C112.624 446.248 112.03 446.038 111.226 445.834C110.494 445.642 109.894 445.45 109.426 445.258C108.97 445.054 108.574 444.76 108.238 444.376C107.914 443.98 107.752 443.464 107.752 442.828C107.752 442.324 107.902 441.862 108.202 441.442C108.502 441.022 108.928 440.692 109.48 440.452C110.032 440.2 110.662 440.074 111.37 440.074C112.462 440.074 113.344 440.35 114.016 440.902C114.688 441.454 115.048 442.21 115.096 443.17H113.458C113.422 442.654 113.212 442.24 112.828 441.928C112.456 441.616 111.952 441.46 111.316 441.46C110.728 441.46 110.26 441.586 109.912 441.838C109.564 442.09 109.39 442.42 109.39 442.828C109.39 443.152 109.492 443.422 109.696 443.638C109.912 443.842 110.176 444.01 110.488 444.142C110.812 444.262 111.256 444.4 111.82 444.556C112.528 444.748 113.104 444.94 113.548 445.132C113.992 445.312 114.37 445.588 114.682 445.96C115.006 446.332 115.174 446.818 115.186 447.418C115.186 447.958 115.036 448.444 114.736 448.876C114.436 449.308 114.01 449.65 113.458 449.902C112.918 450.142 112.294 450.262 111.586 450.262ZM119.496 441.586V447.4C119.496 447.88 119.598 448.222 119.802 448.426C120.006 448.618 120.36 448.714 120.864 448.714H122.07V450.1H120.594C119.682 450.1 118.998 449.89 118.542 449.47C118.086 449.05 117.858 448.36 117.858 447.4V441.586H116.58V440.236H117.858V437.752H119.496V440.236H122.07V441.586H119.496ZM123.443 445.132C123.443 444.124 123.647 443.242 124.055 442.486C124.463 441.718 125.021 441.124 125.729 440.704C126.449 440.284 127.247 440.074 128.123 440.074C128.987 440.074 129.737 440.26 130.373 440.632C131.009 441.004 131.483 441.472 131.795 442.036V440.236H133.451V450.1H131.795V448.264C131.471 448.84 130.985 449.32 130.337 449.704C129.701 450.076 128.957 450.262 128.105 450.262C127.229 450.262 126.437 450.046 125.729 449.614C125.021 449.182 124.463 448.576 124.055 447.796C123.647 447.016 123.443 446.128 123.443 445.132ZM131.795 445.15C131.795 444.406 131.645 443.758 131.345 443.206C131.045 442.654 130.637 442.234 130.121 441.946C129.617 441.646 129.059 441.496 128.447 441.496C127.835 441.496 127.277 441.64 126.773 441.928C126.269 442.216 125.867 442.636 125.567 443.188C125.267 443.74 125.117 444.388 125.117 445.132C125.117 445.888 125.267 446.548 125.567 447.112C125.867 447.664 126.269 448.09 126.773 448.39C127.277 448.678 127.835 448.822 128.447 448.822C129.059 448.822 129.617 448.678 130.121 448.39C130.637 448.09 131.045 447.664 131.345 447.112C131.645 446.548 131.795 445.894 131.795 445.15Z" fill="black"/>
<path d="M107.981 389.437H89.2461C86.6914 389.437 84.9883 391.14 84.9883 393.695V402.211C84.9883 404.765 86.6914 406.468 89.2461 406.468H107.981C110.536 406.468 112.239 404.765 112.239 402.211V393.695C112.239 391.14 110.536 389.437 107.981 389.437ZM87.543 401.359V392.843C87.543 391.992 88.3946 391.14 89.2461 391.14H96.9103V402.211H89.2461C88.3946 403.062 87.543 402.211 87.543 401.359ZM109.684 401.359C109.684 402.211 108.832 403.062 107.981 403.062H100.317V391.992H107.981C108.832 391.992 109.684 392.843 109.684 393.695V401.359Z" fill="#1A171B"/>
<path d="M130.118 416.694H121.603V384.334C121.603 384.334 122.454 384.334 123.306 384.334C128.415 384.334 131.822 380.076 131.822 374.966L120.751 363.896H119.9H108.829H96.9071H95.2039C94.3523 363.896 93.5008 364.748 93.5008 365.599C93.5008 366.451 94.3523 367.302 95.2039 367.302H96.0555L98.6102 374.115H84.985H72.2114L74.7661 366.451H75.6177C76.4693 366.451 77.3209 365.599 77.3209 364.748C77.3209 363.896 76.4693 363.896 75.6177 363.896H73.9146H61.9925H50.922H50.0705L39 374.115C39 379.224 43.2579 383.482 47.5157 383.482C47.5157 383.482 48.3673 383.482 49.2189 383.482V415.842H40.7031C39.8516 416.694 39 417.545 39 418.397C39 419.248 39.8516 420.1 40.7031 420.1H50.922H60.2894H77.3209H120.751H130.97C131.822 420.1 132.673 419.248 132.673 418.397C132.673 417.545 130.97 416.694 130.118 416.694ZM122.454 381.779C119.9 381.779 117.345 380.076 116.493 376.67H128.415C128.415 379.224 125.861 381.779 122.454 381.779ZM126.712 374.115H116.493L111.384 366.451H119.048L126.712 374.115ZM107.978 366.451L112.235 374.115H101.165L98.6102 366.451H107.978ZM113.939 376.67C113.087 379.224 110.532 381.779 107.978 381.779C105.423 381.779 102.868 380.076 102.017 376.67H113.939ZM98.6102 376.67C98.6102 379.224 96.0555 381.779 92.6492 381.779C90.0945 381.779 87.5397 380.076 86.6882 376.67H98.6102ZM69.6567 374.115H57.7346L61.9925 366.451H71.3598L69.6567 374.115ZM68.8051 376.67C67.9535 379.224 65.3988 381.779 62.8441 381.779C60.2894 381.779 57.7346 380.076 56.8831 376.67H68.8051ZM84.1334 376.67C83.2819 379.224 80.7271 381.779 78.1724 381.779C75.6177 381.779 73.063 380.076 72.2114 376.67H84.1334ZM50.922 366.451H58.5862L54.3283 374.115H44.1094L50.922 366.451ZM41.5547 376.67H53.4768C53.4768 379.224 50.922 381.779 47.5157 381.779C44.961 381.779 42.4063 379.224 41.5547 376.67ZM75.6177 403.068H61.1409V392.85C61.1409 391.998 61.9925 391.146 62.8441 391.146H73.9146C74.7661 391.146 75.6177 391.998 75.6177 392.85V403.068ZM61.1409 416.694V405.623H75.6177V416.694H61.1409ZM78.1724 416.694V392.85C78.1724 390.295 76.4693 388.592 73.9146 388.592H62.8441C60.2894 388.592 58.5862 390.295 58.5862 392.85V416.694H51.7736V383.482C53.4768 382.631 54.3283 381.779 55.1799 380.076C56.8831 382.631 59.4378 384.334 62.8441 384.334C66.2504 384.334 68.8051 382.631 70.5083 380.076C72.2114 382.631 74.7661 384.334 78.1724 384.334C81.5787 384.334 84.1334 382.631 85.8366 380.076C86.6882 382.631 90.0945 384.334 92.6492 384.334C96.0555 384.334 98.6102 382.631 100.313 380.076C102.017 382.631 104.571 384.334 107.978 384.334C111.384 384.334 113.939 382.631 115.642 380.076C116.493 381.779 117.345 382.631 119.048 383.482V416.694H78.1724Z" fill="#1A171B"/>
<path d="M84.9836 371.556C84.9836 371.556 85.8352 371.556 85.8352 370.704C86.6868 369.853 100.312 353.673 100.312 342.602C100.312 334.087 93.4994 327.274 84.9836 327.274C76.4679 327.274 69.6553 334.087 69.6553 342.602C69.6553 353.673 83.2805 370.704 84.132 370.704C84.9836 371.556 84.9836 371.556 84.9836 371.556ZM84.9836 329.829C91.7962 329.829 97.7572 335.79 97.7572 342.602C97.7572 351.118 88.3899 363.892 84.9836 368.149C82.4289 363.892 73.0616 351.118 73.0616 342.602C73.0616 335.79 78.171 329.829 84.9836 329.829Z" fill="#1A171B"/>
<path d="M92.6467 342.6C92.6467 338.342 89.2404 335.788 85.8341 335.788C81.5762 335.788 79.0215 339.194 79.0215 342.6C79.0215 346.858 82.4278 349.413 85.8341 349.413C89.2404 349.413 92.6467 346.858 92.6467 342.6ZM81.5762 342.6C81.5762 340.045 83.2794 338.342 85.8341 338.342C88.3888 338.342 90.092 340.045 90.092 342.6C90.092 345.155 88.3888 346.858 85.8341 346.858C83.2794 346.858 81.5762 345.155 81.5762 342.6Z" fill="#1A171B"/>
<rect x="296" y="340.274" width="55" height="14" rx="7" transform="rotate(90 296 340.274)" fill="#D8D9FF"/>
<path d="M234.166 430.957C234.166 429.733 234.442 428.635 234.994 427.663C235.546 426.679 236.296 425.911 237.244 425.359C238.204 424.807 239.266 424.531 240.43 424.531C241.798 424.531 242.992 424.861 244.012 425.521C245.032 426.181 245.776 427.117 246.244 428.329H244.282C243.934 427.573 243.43 426.991 242.77 426.583C242.122 426.175 241.342 425.971 240.43 425.971C239.554 425.971 238.768 426.175 238.072 426.583C237.376 426.991 236.83 427.573 236.434 428.329C236.038 429.073 235.84 429.949 235.84 430.957C235.84 431.953 236.038 432.829 236.434 433.585C236.83 434.329 237.376 434.905 238.072 435.313C238.768 435.721 239.554 435.925 240.43 435.925C241.342 435.925 242.122 435.727 242.77 435.331C243.43 434.923 243.934 434.341 244.282 433.585H246.244C245.776 434.785 245.032 435.715 244.012 436.375C242.992 437.023 241.798 437.347 240.43 437.347C239.266 437.347 238.204 437.077 237.244 436.537C236.296 435.985 235.546 435.223 234.994 434.251C234.442 433.279 234.166 432.181 234.166 430.957ZM252.984 437.401C252.06 437.401 251.22 437.191 250.464 436.771C249.72 436.351 249.132 435.757 248.7 434.989C248.28 434.209 248.07 433.309 248.07 432.289C248.07 431.281 248.286 430.393 248.718 429.625C249.162 428.845 249.762 428.251 250.518 427.843C251.274 427.423 252.12 427.213 253.056 427.213C253.992 427.213 254.838 427.423 255.594 427.843C256.35 428.251 256.944 428.839 257.376 429.607C257.82 430.375 258.042 431.269 258.042 432.289C258.042 433.309 257.814 434.209 257.358 434.989C256.914 435.757 256.308 436.351 255.54 436.771C254.772 437.191 253.92 437.401 252.984 437.401ZM252.984 435.961C253.572 435.961 254.124 435.823 254.64 435.547C255.156 435.271 255.57 434.857 255.882 434.305C256.206 433.753 256.368 433.081 256.368 432.289C256.368 431.497 256.212 430.825 255.9 430.273C255.588 429.721 255.18 429.313 254.676 429.049C254.172 428.773 253.626 428.635 253.038 428.635C252.438 428.635 251.886 428.773 251.382 429.049C250.89 429.313 250.494 429.721 250.194 430.273C249.894 430.825 249.744 431.497 249.744 432.289C249.744 433.093 249.888 433.771 250.176 434.323C250.476 434.875 250.872 435.289 251.364 435.565C251.856 435.829 252.396 435.961 252.984 435.961ZM265.002 427.195C266.202 427.195 267.174 427.561 267.918 428.293C268.662 429.013 269.034 430.057 269.034 431.425V437.239H267.414V431.659C267.414 430.675 267.168 429.925 266.676 429.409C266.184 428.881 265.512 428.617 264.66 428.617C263.796 428.617 263.106 428.887 262.59 429.427C262.086 429.967 261.834 430.753 261.834 431.785V437.239H260.196V427.375H261.834V428.779C262.158 428.275 262.596 427.885 263.148 427.609C263.712 427.333 264.33 427.195 265.002 427.195ZM275.201 437.401C274.445 437.401 273.767 437.275 273.167 437.023C272.567 436.759 272.093 436.399 271.745 435.943C271.397 435.475 271.205 434.941 271.169 434.341H272.861C272.909 434.833 273.137 435.235 273.545 435.547C273.965 435.859 274.511 436.015 275.183 436.015C275.807 436.015 276.299 435.877 276.659 435.601C277.019 435.325 277.199 434.977 277.199 434.557C277.199 434.125 277.007 433.807 276.623 433.603C276.239 433.387 275.645 433.177 274.841 432.973C274.109 432.781 273.509 432.589 273.041 432.397C272.585 432.193 272.189 431.899 271.853 431.515C271.529 431.119 271.367 430.603 271.367 429.967C271.367 429.463 271.517 429.001 271.817 428.581C272.117 428.161 272.543 427.831 273.095 427.591C273.647 427.339 274.277 427.213 274.985 427.213C276.077 427.213 276.959 427.489 277.631 428.041C278.303 428.593 278.663 429.349 278.711 430.309H277.073C277.037 429.793 276.827 429.379 276.443 429.067C276.071 428.755 275.567 428.599 274.931 428.599C274.343 428.599 273.875 428.725 273.527 428.977C273.179 429.229 273.005 429.559 273.005 429.967C273.005 430.291 273.107 430.561 273.311 430.777C273.527 430.981 273.791 431.149 274.103 431.281C274.427 431.401 274.871 431.539 275.435 431.695C276.143 431.887 276.719 432.079 277.163 432.271C277.607 432.451 277.985 432.727 278.297 433.099C278.621 433.471 278.789 433.957 278.801 434.557C278.801 435.097 278.651 435.583 278.351 436.015C278.051 436.447 277.625 436.789 277.073 437.041C276.533 437.281 275.909 437.401 275.201 437.401ZM289.862 427.375V437.239H288.224V435.781C287.912 436.285 287.474 436.681 286.91 436.969C286.358 437.245 285.746 437.383 285.074 437.383C284.306 437.383 283.616 437.227 283.004 436.915C282.392 436.591 281.906 436.111 281.546 435.475C281.198 434.839 281.024 434.065 281.024 433.153V427.375H282.644V432.937C282.644 433.909 282.89 434.659 283.382 435.187C283.874 435.703 284.546 435.961 285.398 435.961C286.274 435.961 286.964 435.691 287.468 435.151C287.972 434.611 288.224 433.825 288.224 432.793V427.375H289.862ZM304.489 427.195C305.257 427.195 305.941 427.357 306.541 427.681C307.141 427.993 307.615 428.467 307.963 429.103C308.311 429.739 308.485 430.513 308.485 431.425V437.239H306.865V431.659C306.865 430.675 306.619 429.925 306.127 429.409C305.647 428.881 304.993 428.617 304.165 428.617C303.313 428.617 302.635 428.893 302.131 429.445C301.627 429.985 301.375 430.771 301.375 431.803V437.239H299.755V431.659C299.755 430.675 299.509 429.925 299.017 429.409C298.537 428.881 297.883 428.617 297.055 428.617C296.203 428.617 295.525 428.893 295.021 429.445C294.517 429.985 294.265 430.771 294.265 431.803V437.239H292.627V427.375H294.265V428.797C294.589 428.281 295.021 427.885 295.561 427.609C296.113 427.333 296.719 427.195 297.379 427.195C298.207 427.195 298.939 427.381 299.575 427.753C300.211 428.125 300.685 428.671 300.997 429.391C301.273 428.695 301.729 428.155 302.365 427.771C303.001 427.387 303.709 427.195 304.489 427.195ZM312.018 425.773C311.706 425.773 311.442 425.665 311.226 425.449C311.01 425.233 310.902 424.969 310.902 424.657C310.902 424.345 311.01 424.081 311.226 423.865C311.442 423.649 311.706 423.541 312.018 423.541C312.318 423.541 312.57 423.649 312.774 423.865C312.99 424.081 313.098 424.345 313.098 424.657C313.098 424.969 312.99 425.233 312.774 425.449C312.57 425.665 312.318 425.773 312.018 425.773ZM312.81 427.375V437.239H311.172V427.375H312.81ZM314.99 432.271C314.99 431.263 315.194 430.381 315.602 429.625C316.01 428.857 316.568 428.263 317.276 427.843C317.996 427.423 318.8 427.213 319.688 427.213C320.456 427.213 321.17 427.393 321.83 427.753C322.49 428.101 322.994 428.563 323.342 429.139V423.919H324.998V437.239H323.342V435.385C323.018 435.973 322.538 436.459 321.902 436.843C321.266 437.215 320.522 437.401 319.67 437.401C318.794 437.401 317.996 437.185 317.276 436.753C316.568 436.321 316.01 435.715 315.602 434.935C315.194 434.155 314.99 433.267 314.99 432.271ZM323.342 432.289C323.342 431.545 323.192 430.897 322.892 430.345C322.592 429.793 322.184 429.373 321.668 429.085C321.164 428.785 320.606 428.635 319.994 428.635C319.382 428.635 318.824 428.779 318.32 429.067C317.816 429.355 317.414 429.775 317.114 430.327C316.814 430.879 316.664 431.527 316.664 432.271C316.664 433.027 316.814 433.687 317.114 434.251C317.414 434.803 317.816 435.229 318.32 435.529C318.824 435.817 319.382 435.961 319.994 435.961C320.606 435.961 321.164 435.817 321.668 435.529C322.184 435.229 322.592 434.803 322.892 434.251C323.192 433.687 323.342 433.033 323.342 432.289ZM332.068 437.401C331.144 437.401 330.304 437.191 329.548 436.771C328.804 436.351 328.216 435.757 327.784 434.989C327.364 434.209 327.154 433.309 327.154 432.289C327.154 431.281 327.37 430.393 327.802 429.625C328.246 428.845 328.846 428.251 329.602 427.843C330.358 427.423 331.204 427.213 332.14 427.213C333.076 427.213 333.922 427.423 334.678 427.843C335.434 428.251 336.028 428.839 336.46 429.607C336.904 430.375 337.126 431.269 337.126 432.289C337.126 433.309 336.898 434.209 336.442 434.989C335.998 435.757 335.392 436.351 334.624 436.771C333.856 437.191 333.004 437.401 332.068 437.401ZM332.068 435.961C332.656 435.961 333.208 435.823 333.724 435.547C334.24 435.271 334.654 434.857 334.966 434.305C335.29 433.753 335.452 433.081 335.452 432.289C335.452 431.497 335.296 430.825 334.984 430.273C334.672 429.721 334.264 429.313 333.76 429.049C333.256 428.773 332.71 428.635 332.122 428.635C331.522 428.635 330.97 428.773 330.466 429.049C329.974 429.313 329.578 429.721 329.278 430.273C328.978 430.825 328.828 431.497 328.828 432.289C328.828 433.093 328.972 433.771 329.26 434.323C329.56 434.875 329.956 435.289 330.448 435.565C330.94 435.829 331.48 435.961 332.068 435.961ZM340.918 428.977C341.206 428.413 341.614 427.975 342.142 427.663C342.682 427.351 343.336 427.195 344.104 427.195V428.887H343.672C341.836 428.887 340.918 429.883 340.918 431.875V437.239H339.28V427.375H340.918V428.977ZM275.17 455.725H273.1V464.239H271.462V455.725H270.184V454.375H271.462V453.673C271.462 452.569 271.744 451.765 272.308 451.261C272.884 450.745 273.802 450.487 275.062 450.487V451.855C274.342 451.855 273.832 451.999 273.532 452.287C273.244 452.563 273.1 453.025 273.1 453.673V454.375H275.17V455.725ZM277.925 452.773C277.613 452.773 277.349 452.665 277.133 452.449C276.917 452.233 276.809 451.969 276.809 451.657C276.809 451.345 276.917 451.081 277.133 450.865C277.349 450.649 277.613 450.541 277.925 450.541C278.225 450.541 278.477 450.649 278.681 450.865C278.897 451.081 279.005 451.345 279.005 451.657C279.005 451.969 278.897 452.233 278.681 452.449C278.477 452.665 278.225 452.773 277.925 452.773ZM278.717 454.375V464.239H277.079V454.375H278.717ZM286.315 454.195C287.515 454.195 288.487 454.561 289.231 455.293C289.975 456.013 290.347 457.057 290.347 458.425V464.239H288.727V458.659C288.727 457.675 288.481 456.925 287.989 456.409C287.497 455.881 286.825 455.617 285.973 455.617C285.109 455.617 284.419 455.887 283.903 456.427C283.399 456.967 283.147 457.753 283.147 458.785V464.239H281.509V454.375H283.147V455.779C283.471 455.275 283.909 454.885 284.461 454.609C285.025 454.333 285.643 454.195 286.315 454.195ZM292.411 459.271C292.411 458.263 292.615 457.381 293.023 456.625C293.431 455.857 293.989 455.263 294.697 454.843C295.417 454.423 296.215 454.213 297.091 454.213C297.955 454.213 298.705 454.399 299.341 454.771C299.977 455.143 300.451 455.611 300.763 456.175V454.375H302.419V464.239H300.763V462.403C300.439 462.979 299.953 463.459 299.305 463.843C298.669 464.215 297.925 464.401 297.073 464.401C296.197 464.401 295.405 464.185 294.697 463.753C293.989 463.321 293.431 462.715 293.023 461.935C292.615 461.155 292.411 460.267 292.411 459.271ZM300.763 459.289C300.763 458.545 300.613 457.897 300.313 457.345C300.013 456.793 299.605 456.373 299.089 456.085C298.585 455.785 298.027 455.635 297.415 455.635C296.803 455.635 296.245 455.779 295.741 456.067C295.237 456.355 294.835 456.775 294.535 457.327C294.235 457.879 294.085 458.527 294.085 459.271C294.085 460.027 294.235 460.687 294.535 461.251C294.835 461.803 295.237 462.229 295.741 462.529C296.245 462.817 296.803 462.961 297.415 462.961C298.027 462.961 298.585 462.817 299.089 462.529C299.605 462.229 300.013 461.803 300.313 461.251C300.613 460.687 300.763 460.033 300.763 459.289ZM306.825 450.919V464.239H305.187V450.919H306.825Z" fill="black"/>
<path d="M294.059 407.239H283.03C281.567 407.239 280.164 406.658 279.13 405.624C278.096 404.59 277.515 403.187 277.515 401.725V382.423C276.052 382.423 274.65 381.842 273.615 380.807C272.581 379.773 272 378.37 272 376.908V360.363C272 358.169 272.872 356.065 274.423 354.514C275.974 352.962 278.078 352.091 280.272 352.091H296.817C299.011 352.091 301.115 352.962 302.666 354.514C304.218 356.065 305.089 358.169 305.089 360.363V376.908C305.089 378.37 304.508 379.773 303.474 380.807C302.44 381.842 301.037 382.423 299.574 382.423V401.725C299.574 403.187 298.993 404.59 297.959 405.624C296.925 406.658 295.522 407.239 294.059 407.239ZM280.272 357.606C279.904 357.581 279.535 357.636 279.189 357.766C278.843 357.896 278.529 358.098 278.268 358.359C278.007 358.62 277.805 358.934 277.675 359.28C277.545 359.625 277.49 359.995 277.515 360.363V376.908H283.03V401.725H294.059V376.908H299.574V360.363C299.599 359.995 299.544 359.625 299.414 359.28C299.284 358.934 299.082 358.62 298.821 358.359C298.56 358.098 298.246 357.896 297.9 357.766C297.555 357.636 297.185 357.581 296.817 357.606H280.272Z" fill="black"/>
<path d="M288.544 349.333C286.363 349.333 284.23 348.687 282.417 347.475C280.603 346.263 279.189 344.54 278.354 342.525C277.519 340.509 277.301 338.291 277.727 336.152C278.152 334.012 279.203 332.047 280.745 330.504C282.288 328.962 284.253 327.911 286.393 327.486C288.532 327.06 290.75 327.279 292.765 328.114C294.781 328.948 296.503 330.362 297.715 332.176C298.927 333.99 299.574 336.122 299.574 338.304C299.574 341.229 298.412 344.034 296.344 346.103C294.275 348.171 291.47 349.333 288.544 349.333ZM288.544 332.789C287.454 332.789 286.387 333.112 285.48 333.718C284.574 334.324 283.867 335.186 283.449 336.193C283.032 337.201 282.923 338.31 283.135 339.38C283.348 340.449 283.874 341.432 284.645 342.203C285.416 342.975 286.399 343.5 287.468 343.713C288.538 343.925 289.647 343.816 290.655 343.399C291.663 342.981 292.524 342.274 293.13 341.368C293.736 340.461 294.059 339.394 294.059 338.304C294.059 336.841 293.478 335.438 292.444 334.404C291.41 333.37 290.007 332.789 288.544 332.789Z" fill="black"/>
<path fill-rule="evenodd" clip-rule="evenodd" d="M375.999 213.274C375.805 174.304 344.155 142.774 305.14 142.774H215.608C201.465 142.774 190 131.308 190 117.165V116.681L190 116.63L190 67.8284C190.038 45.8893 207.835 28.1159 229.783 28.1159H328C353.707 28.1159 377.172 18.5114 395 2.69506V0C377.37 16.2151 353.841 26.1159 328 26.1159H229.783C206.915 26.1159 188.339 44.4859 188.005 67.2737H188V67.8266L188 67.8987V116.679C187.974 130.826 176.497 142.286 162.344 142.286L70.9873 142.286C31.7821 142.286 2.50922e-06 174.068 0 213.274H2C2 175.173 32.8867 144.286 70.9873 144.286L162.344 144.286C174.962 144.286 185.607 135.836 188.927 124.285C192.067 136.082 202.822 144.774 215.608 144.774H305.14C343.05 144.774 373.805 175.409 373.999 213.274H375.999Z" fill="#272FF5"/>
</svg>
