<svg id="Camada_1" data-name="Camada 1" xmlns="http://www.w3.org/2000/svg" viewBox="0 0 862.99 12.47"><defs><style>.cls-1{fill:#583900;}.cls-2{fill:#fff;opacity:0.4;}.cls-3{fill:#3f3f3e;}</style></defs><title>Trilho</title><rect class="cls-1" width="862.85" height="4.69"/><rect class="cls-2" y="0.77" width="862.99" height="1.52"/><rect class="cls-3" x="455.21" y="3.29" width="4.48" height="7.15"/><rect class="cls-2" x="455.72" y="3.41" width="1.03" height="7.03"/><rect class="cls-3" x="425.47" y="3.29" width="4.47" height="7.15"/><rect class="cls-2" x="425.99" y="3.41" width="1.02" height="7.03"/><rect class="cls-3" x="395.73" y="3.29" width="4.48" height="7.15"/><rect class="cls-2" x="396.25" y="3.41" width="1.03" height="7.03"/><rect class="cls-3" x="366" y="3.29" width="4.48" height="7.15"/><rect class="cls-2" x="366.51" y="3.41" width="1.03" height="7.03"/><rect class="cls-3" x="336.26" y="3.29" width="4.48" height="7.15"/><rect class="cls-2" x="336.77" y="3.41" width="1.03" height="7.03"/><rect class="cls-3" x="306.51" y="3.29" width="4.49" height="7.15"/><rect class="cls-2" x="307.03" y="3.41" width="1.03" height="7.03"/><rect class="cls-3" x="276.78" y="3.29" width="4.48" height="7.15"/><rect class="cls-2" x="277.29" y="3.41" width="1.02" height="7.03"/><rect class="cls-3" x="217.3" y="3.29" width="4.49" height="7.15"/><rect class="cls-2" x="217.82" y="3.41" width="1.03" height="7.03"/><rect class="cls-3" x="247.04" y="3.29" width="4.49" height="7.15"/><rect class="cls-2" x="247.56" y="3.41" width="1.03" height="7.03"/><rect class="cls-3" x="187.57" y="3.29" width="4.48" height="7.15"/><rect class="cls-2" x="188.08" y="3.41" width="1.03" height="7.03"/><rect class="cls-3" x="157.84" y="3.29" width="4.47" height="7.15"/><rect class="cls-2" x="158.34" y="3.41" width="1.03" height="7.03"/><rect class="cls-3" x="128.09" y="3.29" width="4.48" height="7.15"/><rect class="cls-2" x="128.6" y="3.41" width="1.03" height="7.03"/><rect class="cls-3" x="98.35" y="3.29" width="4.48" height="7.15"/><rect class="cls-2" x="98.87" y="3.41" width="1.03" height="7.03"/><rect class="cls-3" x="68.62" y="3.29" width="4.48" height="7.15"/><rect class="cls-2" x="69.13" y="3.41" width="1.03" height="7.03"/><rect class="cls-3" x="38.88" y="3.29" width="4.49" height="7.15"/><rect class="cls-2" x="39.39" y="3.41" width="1.03" height="7.03"/><rect class="cls-3" x="9.14" y="3.29" width="4.48" height="7.15"/><rect class="cls-2" x="9.65" y="3.41" width="1.03" height="7.03"/><rect class="cls-3" x="841.8" y="3.29" width="4.48" height="7.15"/><rect class="cls-2" x="842.31" y="3.41" width="1.02" height="7.03"/><rect class="cls-3" x="812.06" y="3.29" width="4.48" height="7.15"/><rect class="cls-2" x="812.57" y="3.41" width="1.03" height="7.03"/><rect class="cls-3" x="782.32" y="3.29" width="4.49" height="7.15"/><rect class="cls-2" x="782.84" y="3.41" width="1.03" height="7.03"/><rect class="cls-3" x="752.59" y="3.29" width="4.48" height="7.15"/><rect class="cls-2" x="753.1" y="3.41" width="1.03" height="7.03"/><rect class="cls-3" x="693.11" y="3.29" width="4.48" height="7.15"/><rect class="cls-2" x="693.62" y="3.41" width="1.03" height="7.03"/><rect class="cls-3" x="722.85" y="3.29" width="4.48" height="7.15"/><rect class="cls-2" x="723.36" y="3.41" width="1.03" height="7.03"/><rect class="cls-3" x="663.37" y="3.29" width="4.48" height="7.15"/><rect class="cls-2" x="663.89" y="3.41" width="1.03" height="7.03"/><rect class="cls-3" x="633.63" y="3.29" width="4.48" height="7.15"/><rect class="cls-2" x="634.15" y="3.41" width="1.03" height="7.03"/><rect class="cls-3" x="603.9" y="3.29" width="4.49" height="7.15"/><rect class="cls-2" x="604.41" y="3.41" width="1.03" height="7.03"/><rect class="cls-3" x="574.16" y="3.29" width="4.48" height="7.15"/><rect class="cls-2" x="574.67" y="3.41" width="1.03" height="7.03"/><rect class="cls-3" x="544.42" y="3.29" width="4.48" height="7.15"/><rect class="cls-2" x="544.94" y="3.41" width="1.03" height="7.03"/><rect class="cls-3" x="514.68" y="3.29" width="4.49" height="7.15"/><rect class="cls-2" x="515.2" y="3.41" width="1.03" height="7.03"/><rect class="cls-3" x="484.95" y="3.29" width="4.48" height="7.15"/><rect class="cls-2" x="485.46" y="3.41" width="1.03" height="7.03"/><rect class="cls-1" y="7.78" width="862.85" height="4.69"/><rect class="cls-2" y="8.56" width="862.99" height="1.51"/></svg>