<svg width="65" height="60" viewBox="0 0 65 60" fill="none" xmlns="http://www.w3.org/2000/svg">
<path d="M17.343 38.4322H54.4022C56.859 38.4322 58.9812 36.757 59.5626 34.3585L64.9568 12.1178C65.067 11.6617 64.9639 11.1787 64.6747 10.81C64.386 10.4402 63.9441 10.2249 63.4769 10.2249L13.8228 10.2244L11.6785 1.17596C11.5153 0.486301 10.9025 0 10.1967 0H3.82027C2.97937 0 2.29736 0.685333 2.29736 1.5304C2.29736 2.37544 2.97934 3.06079 3.82027 3.06079H8.99361L10.6907 10.2235L1.5229 10.224C0.682001 10.224 0 10.9093 0 11.7544C0 12.5995 0.681976 13.2848 1.5229 13.2848H61.5386L56.6033 33.6336C56.3509 34.6729 55.4665 35.3711 54.4027 35.3711H17.3436C14.0993 35.3711 11.4597 38.0237 11.4597 41.284C11.4597 44.5443 14.0989 47.1968 17.3436 47.1968H17.8943C15.5139 48.2088 13.8393 50.5804 13.8393 53.3366C13.8393 57.0108 16.814 60 20.47 60C24.1261 60 27.1008 57.0107 27.1008 53.3366C27.1008 50.5799 25.4261 48.2088 23.0457 47.1968H52.2429C49.8625 48.2088 48.1878 50.5804 48.1878 53.3366C48.1878 57.0108 51.1625 60 54.8186 60C58.4747 60 61.4493 57.0107 61.4493 53.3366C61.4493 50.5799 59.7747 48.2088 57.3943 47.1968H59.5714C60.4123 47.1968 61.0943 46.5115 61.0943 45.6665C61.0943 44.8214 60.4123 44.1361 59.5714 44.1361L17.3431 44.1356C15.7787 44.1356 14.5058 42.8565 14.5058 41.2844C14.5058 39.7117 15.7787 38.4327 17.3431 38.4327L17.343 38.4322ZM20.4695 56.9382C18.4932 56.9382 16.8854 55.3225 16.8854 53.3364C16.8854 51.3504 18.4932 49.7347 20.4695 49.7347C22.4458 49.7347 24.0536 51.3504 24.0536 53.3364C24.0545 55.3225 22.4467 56.9382 20.4695 56.9382ZM54.8175 56.9382C52.8413 56.9382 51.2334 55.3225 51.2334 53.3364C51.2334 51.3504 52.8413 49.7347 54.8175 49.7347C56.7938 49.7347 58.4016 51.3504 58.4016 53.3364C58.4021 55.3225 56.7943 56.9382 54.8175 56.9382ZM10.8409 21.6685C10 21.6685 9.31802 20.9831 9.31802 20.1381C9.31802 19.293 10 18.6077 10.8409 18.6077H29.4456C30.2865 18.6077 30.9685 19.293 30.9685 20.1381C30.9685 20.9831 30.2865 21.6685 29.4456 21.6685H10.8409ZM21.0086 30.0507H2.56643C1.72553 30.0507 1.04353 29.3654 1.04353 28.5203C1.04353 27.6753 1.7255 26.9899 2.56643 26.9899H21.0086C21.8495 26.9899 22.5315 27.6753 22.5315 28.5203C22.532 29.3649 21.85 30.0507 21.0086 30.0507Z" fill="black"/>
</svg>
