<svg xmlns="http://www.w3.org/2000/svg" width="16.25" height="16" viewBox="0 0 16.25 16">
  <g id="icon" transform="translate(-48 -15.797)">
    <rect id="Retângulo_273" data-name="Retângulo 273" width="16" height="16" transform="translate(48 15.797)" fill="none"/>
    <path id="truck" d="M15.844-2.031h-.406V-4.979A1.839,1.839,0,0,0,14.9-6.271L12.771-8.4a1.843,1.843,0,0,0-1.292-.536h-.917V-9.953a1.423,1.423,0,0,0-1.422-1.422H1.422A1.423,1.423,0,0,0,0-9.953v7.719A1.423,1.423,0,0,0,1.422-.812h.2A2.438,2.438,0,0,0,4.062,1.625,2.438,2.438,0,0,0,6.5-.812H9.75a2.438,2.438,0,0,0,2.437,2.437A2.438,2.438,0,0,0,14.625-.812h1.219a.407.407,0,0,0,.406-.406v-.406A.407.407,0,0,0,15.844-2.031ZM4.062.406A1.219,1.219,0,0,1,2.844-.812,1.219,1.219,0,0,1,4.062-2.031,1.219,1.219,0,0,1,5.281-.812,1.219,1.219,0,0,1,4.062.406ZM9.344-2.031H6.162a2.424,2.424,0,0,0-2.1-1.219,2.424,2.424,0,0,0-2.1,1.219H1.422a.2.2,0,0,1-.2-.2V-9.953a.2.2,0,0,1,.2-.2H9.141a.2.2,0,0,1,.2.2Zm1.219-5.687h.917a.624.624,0,0,1,.432.178l1.854,1.854h-3.2ZM12.187.406A1.219,1.219,0,0,1,10.969-.812a1.219,1.219,0,0,1,1.219-1.219A1.219,1.219,0,0,1,13.406-.812,1.219,1.219,0,0,1,12.187.406Zm2.031-2.562A2.437,2.437,0,0,0,12.187-3.25a2.421,2.421,0,0,0-1.625.632V-4.469h3.656Z" transform="translate(48 28.797)" fill="#3d2b1c"/>
  </g>
</svg>
