<svg xmlns="http://www.w3.org/2000/svg" width="37.4" height="24" viewBox="0 0 37.4 24"><defs><style>.a{fill:#b3b3b3;}</style></defs><path class="a" d="M35.4,0H2A2.006,2.006,0,0,0,0,2V22a2.006,2.006,0,0,0,2,2H35.4a2.006,2.006,0,0,0,2-2V2A2.006,2.006,0,0,0,35.4,0ZM7.4,17,5.1,8.3A16.235,16.235,0,0,0,2.3,7.2V7H6.6a1.037,1.037,0,0,1,1.2.8l.9,4.6h0L9,13.8,11.6,7h2.8L10.2,17Zm9.1,0H13.8L15.5,7h2.7Zm4.6.1a10.474,10.474,0,0,1-3-.5l.4-2.2.3.2a5.338,5.338,0,0,0,2.5.5c.8,0,1.6-.3,1.6-1,0-.4-.3-.8-1.4-1.2a3.1,3.1,0,0,1-2.3-2.7c0-1.9,1.9-3.3,4.5-3.3a6.722,6.722,0,0,1,2.4.4l-.4,2.2-.2-.1a4.477,4.477,0,0,0-2-.4c-1,0-1.5.4-1.5.9s.6.8,1.5,1.2c1.5.7,2.2,1.6,2.2,2.7,0,2-1.8,3.3-4.6,3.3ZM32.6,17s-.2-1.1-.3-1.5H28.9L28.3,17H25.5l4-9.1A1.416,1.416,0,0,1,30.9,7h2l2.2,10Z"/><path class="a" d="M29.7,13.5l1.1-2.8a9.417,9.417,0,0,1,.4-1l.2.9.6,2.9Z"/></svg>