<svg xmlns="http://www.w3.org/2000/svg" width="24.997" height="19.997" viewBox="0 0 24.997 19.997">
  <defs>
    <style>
      .cls-1 {
        fill: gray;
      }
    </style>
  </defs>
  <path id="Caminho_836" data-name="Caminho 836" class="cls-1" d="M1.562-2.5H3.437a.313.313,0,0,0,.312-.312v-9.374a.313.313,0,0,0-.312-.312H1.562a.313.313,0,0,0-.312.312v9.374A.313.313,0,0,0,1.562-2.5Zm3.749,0H7.187A.313.313,0,0,0,7.5-2.812v-9.374a.313.313,0,0,0-.312-.312H5.312A.313.313,0,0,0,5-12.186v9.374A.313.313,0,0,0,5.312-2.5Zm-6.249,0h.625A.313.313,0,0,0,0-2.812v-9.374A.313.313,0,0,0-.312-12.5H-.937a.313.313,0,0,0-.312.312v9.374A.313.313,0,0,0-.937-2.5Zm11.561-15H-10.624A1.875,1.875,0,0,0-12.5-15.623V.625A1.875,1.875,0,0,0-10.624,2.5H10.624A1.875,1.875,0,0,0,12.5.625V-15.623A1.875,1.875,0,0,0,10.624-17.5Zm0,18.123H-10.624V-15.623H10.624ZM-7.187-2.5h1.875A.313.313,0,0,0-5-2.812v-9.374a.313.313,0,0,0-.312-.312H-7.187a.313.313,0,0,0-.312.312v9.374A.313.313,0,0,0-7.187-2.5Zm3.749,0h.625A.313.313,0,0,0-2.5-2.812v-9.374a.313.313,0,0,0-.312-.312h-.625a.313.313,0,0,0-.312.312v9.374A.313.313,0,0,0-3.437-2.5Z" transform="translate(12.498 17.498)"/>
</svg>
