<svg xmlns="http://www.w3.org/2000/svg" width="14.222" height="16" viewBox="0 0 14.222 16"><defs><style>.a,.b,.d{fill:none;}.a{stroke:#3d2b1c;}.c,.e{stroke:none;}.e{fill:#3d2b1c;}</style></defs><g transform="translate(-1204 -148)"><g class="a" transform="translate(1204 151.556)"><path class="c" d="M0,0H14.222a0,0,0,0,1,0,0V9.444a3,3,0,0,1-3,3H3a3,3,0,0,1-3-3V0A0,0,0,0,1,0,0Z"/><path class="d" d="M1,.5H13.222a.5.5,0,0,1,.5.5V9.444a2.5,2.5,0,0,1-2.5,2.5H3a2.5,2.5,0,0,1-2.5-2.5V1A.5.5,0,0,1,1,.5Z"/></g><g class="b" transform="translate(1206.666 148)"><path class="c" d="M4.444,0A4.444,4.444,0,0,1,8.889,4.444H0A4.444,4.444,0,0,1,4.444,0Z"/><path class="e" d="M 4.44444465637207 1.000002384185791 C 2.892825603485107 1.000002384185791 1.577522754669189 2.031329154968262 1.147998332977295 3.444442272186279 L 7.740890979766846 3.444442272186279 C 7.311366558074951 2.031329154968262 5.996064186096191 1.000002384185791 4.44444465637207 1.000002384185791 M 4.44444465637207 2.384185791015625e-06 C 6.899044513702393 2.384185791015625e-06 8.888884544372559 1.989842414855957 8.888884544372559 4.444442272186279 C 5.234224319458008 4.444442272186279 2.786244869232178 4.444442272186279 4.76837158203125e-06 4.444442272186279 C 4.76837158203125e-06 1.989842414855957 1.989844799041748 2.384185791015625e-06 4.44444465637207 2.384185791015625e-06 Z"/></g></g></svg>