<svg xmlns="http://www.w3.org/2000/svg" width="12.001" height="12.001" viewBox="0 0 12.001 12.001"><defs><style>.a{fill:#3d2b1c;}</style></defs><path class="a" d="M11.918.49,9.073-2.355a.278.278,0,0,0-.2-.082H8.564A4.862,4.862,0,0,0,9.75-5.625,4.874,4.874,0,0,0,4.875-10.5,4.874,4.874,0,0,0,0-5.625,4.874,4.874,0,0,0,4.875-.75,4.862,4.862,0,0,0,8.062-1.936v.309a.288.288,0,0,0,.082.2L10.99,1.418a.281.281,0,0,0,.4,0l.53-.53A.281.281,0,0,0,11.918.49ZM4.875-1.875a3.749,3.749,0,0,1-3.75-3.75,3.749,3.749,0,0,1,3.75-3.75,3.749,3.749,0,0,1,3.75,3.75A3.749,3.749,0,0,1,4.875-1.875Z" transform="translate(0 10.5)"/></svg>