<svg version="1.1" id="Layer_1" xmlns="http://www.w3.org/2000/svg" xmlns:xlink="http://www.w3.org/1999/xlink" x="0px" y="0px" viewBox="0 0 160 75" style="enable-background:new 0 0 160 75;" xml:space="preserve">
                    <style type="text/css">
                    	.st0{fill:#A0A0A0;}
                    </style>
                    <g>
                    	<g>
                    		<path class="st0" d="M58.5,44.6c-0.6-0.3-1-0.6-1.3-1.1c-0.3-0.5-0.5-1-0.5-1.6h1.5c0.1,0.5,0.3,0.9,0.6,1.3                        c0.4,0.3,0.9,0.5,1.6,0.5c0.7,0,1.2-0.2,1.6-0.5c0.4-0.3,0.6-0.8,0.6-1.3c0-0.4-0.1-0.8-0.3-1c-0.2-0.3-0.5-0.5-0.9-0.6                        c-0.3-0.1-0.8-0.3-1.4-0.4c-0.7-0.2-1.3-0.4-1.7-0.6c-0.4-0.2-0.8-0.5-1.1-0.9c-0.3-0.4-0.5-0.9-0.5-1.6c0-0.6,0.2-1.1,0.5-1.6                        c0.3-0.5,0.7-0.8,1.3-1.1s1.2-0.4,1.9-0.4c1,0,1.9,0.3,2.5,0.8c0.7,0.5,1,1.2,1.1,2h-1.6c-0.1-0.4-0.3-0.8-0.7-1.1                        c-0.4-0.3-0.9-0.5-1.5-0.5c-0.6,0-1.1,0.2-1.5,0.5c-0.4,0.3-0.6,0.7-0.6,1.3c0,0.4,0.1,0.7,0.3,1c0.2,0.2,0.5,0.4,0.8,0.6                        c0.3,0.1,0.8,0.3,1.4,0.4c0.7,0.2,1.3,0.4,1.7,0.6c0.4,0.2,0.8,0.5,1.1,0.9c0.3,0.4,0.5,0.9,0.5,1.6c0,0.5-0.1,1-0.4,1.5                        s-0.7,0.8-1.2,1.1c-0.6,0.3-1.2,0.4-2,0.4C59.7,45,59.1,44.9,58.5,44.6z"></path>
                    		<path class="st0" d="M67.7,44.5c-0.7-0.4-1.2-0.9-1.5-1.6c-0.4-0.7-0.6-1.5-0.6-2.3c0-0.9,0.2-1.6,0.6-2.3                        c0.4-0.7,0.9-1.2,1.6-1.5s1.4-0.5,2.2-0.5s1.5,0.2,2.2,0.5s1.2,0.9,1.6,1.5c0.4,0.7,0.6,1.4,0.6,2.3c0,0.9-0.2,1.7-0.6,2.3                        s-0.9,1.2-1.6,1.6c-0.7,0.4-1.4,0.5-2.2,0.5C69.1,45,68.4,44.8,67.7,44.5z M71.4,43.4c0.4-0.2,0.8-0.6,1.1-1.1                        c0.3-0.5,0.4-1.1,0.4-1.8s-0.1-1.3-0.4-1.8c-0.3-0.5-0.6-0.8-1.1-1.1s-0.9-0.4-1.4-0.4c-0.5,0-1,0.1-1.4,0.4                        c-0.4,0.2-0.8,0.6-1,1.1c-0.3,0.5-0.4,1.1-0.4,1.8c0,0.7,0.1,1.3,0.4,1.8c0.3,0.5,0.6,0.8,1,1.1c0.4,0.2,0.9,0.4,1.4,0.4                        C70.4,43.8,70.9,43.6,71.4,43.4z"></path>
                    		<path class="st0" d="M76.2,38.3c0.4-0.7,0.8-1.2,1.5-1.5c0.6-0.4,1.4-0.5,2.2-0.5c1.1,0,1.9,0.3,2.6,0.8c0.7,0.5,1.1,1.2,1.4,2.1                        h-1.5c-0.1-0.5-0.4-0.9-0.9-1.2c-0.4-0.3-0.9-0.5-1.6-0.5c-0.8,0-1.5,0.3-2,0.8c-0.5,0.6-0.8,1.3-0.8,2.4c0,1,0.2,1.8,0.8,2.4                        s1.2,0.8,2,0.8c0.6,0,1.1-0.1,1.6-0.4c0.4-0.3,0.7-0.7,0.9-1.2h1.5c-0.2,0.9-0.7,1.6-1.4,2.1c-0.7,0.5-1.5,0.8-2.6,0.8                        c-0.8,0-1.5-0.2-2.2-0.5c-0.6-0.4-1.1-0.9-1.5-1.5c-0.4-0.7-0.5-1.4-0.5-2.3C75.6,39.7,75.8,38.9,76.2,38.3z"></path>
                    		<path class="st0" d="M85.7,34.6c-0.2-0.2-0.3-0.4-0.3-0.7c0-0.3,0.1-0.5,0.3-0.7s0.4-0.3,0.7-0.3c0.3,0,0.5,0.1,0.7,0.3                        c0.2,0.2,0.3,0.4,0.3,0.7c0,0.3-0.1,0.5-0.3,0.7c-0.2,0.2-0.4,0.3-0.7,0.3C86.1,34.9,85.9,34.8,85.7,34.6z M87.1,36.3v8.6h-1.4                        v-8.6H87.1z"></path>
                    		<path class="st0" d="M89.5,38.3c0.4-0.7,0.8-1.2,1.5-1.5c0.6-0.4,1.3-0.5,2.1-0.5c0.8,0,1.4,0.2,2,0.5c0.6,0.3,1,0.7,1.2,1.2v-1.6                        h1.4v8.6h-1.4v-1.6c-0.3,0.5-0.7,0.9-1.3,1.2S93.8,45,93,45c-0.8,0-1.4-0.2-2.1-0.6s-1.1-0.9-1.5-1.6c-0.4-0.7-0.5-1.4-0.5-2.3                        C89,39.7,89.2,38.9,89.5,38.3z M95.8,38.9c-0.3-0.5-0.6-0.8-1.1-1.1c-0.4-0.3-0.9-0.4-1.5-0.4s-1,0.1-1.5,0.4s-0.8,0.6-1,1.1                        c-0.3,0.5-0.4,1-0.4,1.7c0,0.7,0.1,1.2,0.4,1.7s0.6,0.9,1,1.1c0.4,0.3,0.9,0.4,1.5,0.4s1-0.1,1.5-0.4c0.4-0.3,0.8-0.6,1.1-1.1                        s0.4-1,0.4-1.7C96.2,39.9,96.1,39.4,95.8,38.9z"></path>
                    		<path class="st0" d="M101.5,33.3v11.6h-1.4V33.3H101.5z"></path>
                    		<path class="st0" d="M114.6,34.6c0.9,0.4,1.5,1.1,2,1.9c0.5,0.8,0.7,1.8,0.7,2.9c0,1.1-0.2,2.1-0.7,2.9c-0.5,0.8-1.1,1.4-2,1.9                        c-0.9,0.4-1.9,0.6-3.1,0.6h-3.4V34h3.4C112.7,34,113.7,34.2,114.6,34.6z M114.7,42.6c0.7-0.7,1.1-1.8,1.1-3.1                        c0-1.4-0.4-2.4-1.1-3.2c-0.7-0.8-1.8-1.1-3.2-1.1h-2v8.6h2C112.9,43.7,114,43.3,114.7,42.6z"></path>
                    		<path class="st0" d="M119.2,34.6c-0.2-0.2-0.3-0.4-0.3-0.7c0-0.3,0.1-0.5,0.3-0.7s0.4-0.3,0.7-0.3c0.3,0,0.5,0.1,0.7,0.3                        c0.2,0.2,0.3,0.4,0.3,0.7c0,0.3-0.1,0.5-0.3,0.7c-0.2,0.2-0.4,0.3-0.7,0.3C119.6,34.9,119.4,34.8,119.2,34.6z M120.6,36.3v8.6                        h-1.4v-8.6H120.6z"></path>
                    		<path class="st0" d="M128.5,36.7c0.6,0.3,1,0.7,1.2,1.2v-1.6h1.4v8.8c0,0.8-0.2,1.5-0.5,2.1c-0.3,0.6-0.8,1.1-1.4,1.4                        c-0.6,0.3-1.3,0.5-2.2,0.5c-1.1,0-2.1-0.3-2.8-0.8s-1.2-1.3-1.3-2.2h1.4c0.2,0.5,0.5,0.9,1,1.3c0.5,0.3,1.1,0.5,1.8,0.5                        c0.8,0,1.4-0.2,1.9-0.7c0.5-0.5,0.7-1.2,0.7-2.1v-1.8c-0.3,0.5-0.7,0.9-1.2,1.2c-0.6,0.3-1.2,0.5-1.9,0.5c-0.8,0-1.5-0.2-2.1-0.6                        c-0.6-0.4-1.1-0.9-1.5-1.6c-0.4-0.7-0.5-1.4-0.5-2.3c0-0.9,0.2-1.6,0.5-2.3c0.4-0.7,0.8-1.2,1.5-1.5c0.6-0.4,1.3-0.5,2.1-0.5                        C127.2,36.2,127.9,36.3,128.5,36.7z M129.3,38.9c-0.3-0.5-0.6-0.8-1.1-1.1c-0.4-0.3-0.9-0.4-1.5-0.4s-1,0.1-1.5,0.4                        s-0.8,0.6-1,1.1c-0.3,0.5-0.4,1-0.4,1.7c0,0.7,0.1,1.2,0.4,1.7c0.3,0.5,0.6,0.9,1,1.1c0.4,0.3,0.9,0.4,1.5,0.4s1-0.1,1.5-0.4                        c0.4-0.3,0.8-0.6,1.1-1.1c0.3-0.5,0.4-1,0.4-1.7C129.7,39.9,129.6,39.4,129.3,38.9z"></path>
                    		<path class="st0" d="M133.6,34.6c-0.2-0.2-0.3-0.4-0.3-0.7c0-0.3,0.1-0.5,0.3-0.7s0.4-0.3,0.7-0.3c0.3,0,0.5,0.1,0.7,0.3                        c0.2,0.2,0.3,0.4,0.3,0.7c0,0.3-0.1,0.5-0.3,0.7c-0.2,0.2-0.4,0.3-0.7,0.3C134,34.9,133.8,34.8,133.6,34.6z M135,36.3v8.6h-1.4                        v-8.6H135z"></path>
                    		<path class="st0" d="M139.1,37.5v5c0,0.4,0.1,0.7,0.3,0.9c0.2,0.2,0.5,0.3,0.9,0.3h1v1.2h-1.3c-0.8,0-1.4-0.2-1.8-0.5                        c-0.4-0.4-0.6-1-0.6-1.8v-5h-1.1v-1.2h1.1v-2.2h1.4v2.2h2.2v1.2H139.1z"></path>
                    		<path class="st0" d="M143.1,38.3c0.4-0.7,0.8-1.2,1.5-1.5c0.6-0.4,1.3-0.5,2.1-0.5c0.8,0,1.4,0.2,2,0.5c0.6,0.3,1,0.7,1.2,1.2                        v-1.6h1.4v8.6h-1.4v-1.6c-0.3,0.5-0.7,0.9-1.3,1.2s-1.2,0.5-1.9,0.5c-0.8,0-1.4-0.2-2.1-0.6s-1.1-0.9-1.5-1.6                        c-0.4-0.7-0.5-1.4-0.5-2.3C142.5,39.7,142.7,38.9,143.1,38.3z M149.4,38.9c-0.3-0.5-0.6-0.8-1.1-1.1c-0.4-0.3-0.9-0.4-1.5-0.4                        s-1,0.1-1.5,0.4s-0.8,0.6-1,1.1c-0.3,0.5-0.4,1-0.4,1.7c0,0.7,0.1,1.2,0.4,1.7s0.6,0.9,1,1.1c0.4,0.3,0.9,0.4,1.5,0.4                        s1-0.1,1.5-0.4c0.4-0.3,0.8-0.6,1.1-1.1s0.4-1,0.4-1.7C149.8,39.9,149.7,39.4,149.4,38.9z"></path>
                    		<path class="st0" d="M155.1,33.3v11.6h-1.4V33.3H155.1z"></path>
                    		<path class="st0" d="M57.2,53.4c0.5-0.8,1.1-1.5,1.9-2c0.8-0.5,1.7-0.7,2.7-0.7c1.2,0,2.2,0.3,3.1,0.8c0.9,0.6,1.5,1.4,1.9,2.4                        h-1.7c-0.3-0.6-0.7-1.1-1.3-1.5c-0.6-0.3-1.2-0.5-2-0.5c-0.7,0-1.4,0.2-2,0.5c-0.6,0.3-1.1,0.8-1.4,1.5c-0.3,0.6-0.5,1.4-0.5,2.3                        c0,0.9,0.2,1.6,0.5,2.2c0.3,0.6,0.8,1.1,1.4,1.5c0.6,0.3,1.3,0.5,2,0.5c0.8,0,1.5-0.2,2-0.5c0.6-0.3,1-0.8,1.3-1.5h1.7                        c-0.4,1-1,1.8-1.9,2.4c-0.9,0.6-1.9,0.8-3.1,0.8c-1,0-1.9-0.2-2.7-0.7c-0.8-0.5-1.5-1.1-1.9-1.9c-0.5-0.8-0.7-1.8-0.7-2.8                        S56.7,54.2,57.2,53.4z"></path>
                    		<path class="st0" d="M72.2,61.2c-0.6-0.4-1.1-0.9-1.5-1.5c-0.4-0.7-0.5-1.4-0.5-2.3c0-0.9,0.2-1.6,0.6-2.3s0.9-1.2,1.5-1.5                        s1.4-0.5,2.2-0.5c0.8,0,1.5,0.2,2.2,0.5s1.2,0.9,1.5,1.5s0.6,1.4,0.6,2.3c0,0.9-0.2,1.6-0.6,2.3c-0.4,0.7-0.9,1.2-1.6,1.5                        c-0.7,0.4-1.4,0.5-2.2,0.5C73.5,61.7,72.8,61.5,72.2,61.2z M75.7,60.1c0.4-0.2,0.8-0.6,1.1-1.1c0.3-0.5,0.4-1,0.4-1.7                        s-0.1-1.3-0.4-1.7c-0.3-0.5-0.6-0.8-1-1.1c-0.4-0.2-0.9-0.3-1.4-0.3c-0.5,0-1,0.1-1.4,0.3s-0.8,0.6-1,1.1c-0.3,0.5-0.4,1-0.4,1.7                        c0,0.7,0.1,1.3,0.4,1.7c0.3,0.5,0.6,0.8,1,1.1c0.4,0.2,0.9,0.3,1.4,0.3C74.8,60.5,75.3,60.3,75.7,60.1z"></path>
                    		<path class="st0" d="M94.1,53.4c0.5,0.3,0.9,0.7,1.2,1.2c0.3,0.5,0.4,1.2,0.4,2v5h-1.4v-4.8c0-0.8-0.2-1.5-0.6-1.9                        c-0.4-0.4-1-0.7-1.7-0.7c-0.7,0-1.3,0.2-1.7,0.7c-0.4,0.5-0.6,1.1-0.6,2v4.7h-1.4v-4.8c0-0.8-0.2-1.5-0.6-1.9                        c-0.4-0.4-1-0.7-1.7-0.7c-0.7,0-1.3,0.2-1.7,0.7c-0.4,0.5-0.6,1.1-0.6,2v4.7h-1.4v-8.4h1.4v1.2c0.3-0.4,0.6-0.8,1.1-1                        c0.5-0.2,1-0.4,1.5-0.4c0.7,0,1.3,0.2,1.9,0.5s1,0.8,1.2,1.4c0.2-0.6,0.6-1.1,1.2-1.4c0.5-0.3,1.1-0.5,1.8-0.5                        C93,53,93.6,53.1,94.1,53.4z"></path>
                    		<path class="st0" d="M111.7,53.4c0.5,0.3,0.9,0.7,1.2,1.2c0.3,0.5,0.4,1.2,0.4,2v5H112v-4.8c0-0.8-0.2-1.5-0.6-1.9                        c-0.4-0.4-1-0.7-1.7-0.7c-0.7,0-1.3,0.2-1.7,0.7c-0.4,0.5-0.6,1.1-0.6,2v4.7h-1.4v-4.8c0-0.8-0.2-1.5-0.6-1.9                        c-0.4-0.4-1-0.7-1.7-0.7c-0.7,0-1.3,0.2-1.7,0.7c-0.4,0.5-0.6,1.1-0.6,2v4.7h-1.4v-8.4h1.4v1.2c0.3-0.4,0.7-0.8,1.1-1                        s1-0.4,1.5-0.4c0.7,0,1.3,0.2,1.9,0.5c0.5,0.3,0.9,0.8,1.2,1.4c0.2-0.6,0.6-1.1,1.2-1.4c0.5-0.3,1.2-0.5,1.8-0.5                        C110.6,53,111.2,53.1,111.7,53.4z"></path>
                    		<path class="st0" d="M125.1,57.9h-6.7c0.1,0.8,0.3,1.5,0.9,1.9c0.5,0.5,1.1,0.7,1.9,0.7c0.6,0,1.1-0.1,1.5-0.4s0.7-0.7,0.9-1.1                        h1.5c-0.2,0.8-0.7,1.5-1.4,2c-0.7,0.5-1.5,0.8-2.5,0.8c-0.8,0-1.5-0.2-2.1-0.5s-1.1-0.9-1.5-1.5c-0.4-0.7-0.5-1.4-0.5-2.3                        c0-0.9,0.2-1.6,0.5-2.3s0.8-1.2,1.5-1.5c0.6-0.4,1.4-0.5,2.2-0.5c0.8,0,1.5,0.2,2.1,0.5c0.6,0.3,1.1,0.8,1.4,1.4                        c0.3,0.6,0.5,1.3,0.5,2.1C125.1,57.3,125.1,57.6,125.1,57.9z M123.3,55.3c-0.2-0.4-0.6-0.7-1-0.9c-0.4-0.2-0.9-0.3-1.3-0.3                        c-0.7,0-1.3,0.2-1.8,0.7s-0.8,1.1-0.9,1.9h5.3C123.7,56.2,123.6,55.7,123.3,55.3z"></path>
                    		<path class="st0" d="M131.2,53.4c0.5-0.3,1-0.4,1.7-0.4v1.4h-0.4c-1.6,0-2.4,0.9-2.4,2.6v4.6h-1.4v-8.4h1.4v1.4                        C130.4,54,130.7,53.6,131.2,53.4z"></path>
                    		<path class="st0" d="M136.2,55c0.3-0.7,0.8-1.2,1.5-1.5c0.6-0.4,1.3-0.5,2.1-0.5c1,0,1.9,0.3,2.6,0.8c0.7,0.5,1.1,1.2,1.3,2.1                        h-1.5c-0.1-0.5-0.4-0.9-0.8-1.2s-0.9-0.4-1.5-0.4c-0.8,0-1.4,0.3-1.9,0.8c-0.5,0.5-0.7,1.3-0.7,2.3c0,1,0.2,1.8,0.7,2.4                        c0.5,0.6,1.1,0.8,1.9,0.8c0.6,0,1.1-0.1,1.5-0.4c0.4-0.3,0.7-0.7,0.8-1.2h1.5c-0.2,0.9-0.7,1.6-1.4,2.1c-0.7,0.5-1.5,0.8-2.5,0.8                        c-0.8,0-1.5-0.2-2.1-0.5c-0.6-0.4-1.1-0.9-1.5-1.5s-0.5-1.4-0.5-2.3C135.7,56.4,135.9,55.7,136.2,55z"></path>
                    		<path class="st0" d="M155,57.9h-6.7c0.1,0.8,0.3,1.5,0.9,1.9c0.5,0.5,1.1,0.7,1.9,0.7c0.6,0,1.1-0.1,1.5-0.4s0.7-0.7,0.9-1.1h1.5                        c-0.2,0.8-0.7,1.5-1.4,2c-0.7,0.5-1.5,0.8-2.5,0.8c-0.8,0-1.5-0.2-2.1-0.5s-1.1-0.9-1.5-1.5c-0.4-0.7-0.5-1.4-0.5-2.3                        c0-0.9,0.2-1.6,0.5-2.3s0.8-1.2,1.5-1.5c0.6-0.4,1.4-0.5,2.2-0.5c0.8,0,1.5,0.2,2.1,0.5c0.6,0.3,1.1,0.8,1.4,1.4                        c0.3,0.6,0.5,1.3,0.5,2.1C155,57.3,155,57.6,155,57.9z M153.2,55.3c-0.2-0.4-0.6-0.7-1-0.9c-0.4-0.2-0.9-0.3-1.3-0.3                        c-0.7,0-1.3,0.2-1.8,0.7s-0.8,1.1-0.9,1.9h5.3C153.6,56.2,153.4,55.7,153.2,55.3z"></path>
                    	</g>
                    	<g>
                    		<rect x="18.6" y="55.4" class="st0" width="16.4" height="16.4"></rect>
                    		<rect x="18.6" y="21.9" class="st0" width="16.4" height="16.4"></rect>
                    		<path class="st0" d="M18.2,21.9c-9.1,0-16.4,7.3-16.4,16.4h16.4V21.9z"></path>
                    		<path class="st0" d="M51.8,55.1c0-9.1-7.3-16.4-16.4-16.4v16.4H51.8z"></path>
                    		<path class="st0" d="M1.8,38.6c0,9.1,7.3,16.4,16.4,16.4V38.6H1.8z"></path>
                    		<path class="st0" d="M18.2,71.9c-9.1,0-16.4-7.3-16.4-16.4h16.4V71.9z"></path>
                    		<path class="st0" d="M35.4,21.9c9.1,0,16.4,7.3,16.4,16.4H35.4V21.9z"></path>
                    		<path class="st0" d="M35.4,71.9c9.1,0,16.4-7.3,16.4-16.4H35.4V71.9z"></path>
                    		<path class="st0" d="M35,55.1H18.6V38.6H35V55.1z M26.8,55.1c4.5,0,8.2-3.7,8.2-8.2c0-4.5-3.7-8.2-8.2-8.2h-8.2v8.2v8.2H26.8z"></path>
                    	</g>
                    </g>
                    <g>
                    	<path class="st0" d="M11.2,4.7V13h-1.1V6.8L7.4,13H6.6L3.8,6.8V13H2.7V4.7h1.2L7,11.6l3.1-6.9H11.2z"></path>
                    	<path class="st0" d="M13.1,7.9c0.3-0.5,0.6-0.9,1.1-1.2s1-0.4,1.6-0.4c0.6,0,1.1,0.1,1.5,0.4C17.7,7,18,7.3,18.2,7.7V6.5h1.1V13                       h-1.1v-1.2c-0.2,0.4-0.5,0.7-1,1c-0.4,0.3-0.9,0.4-1.5,0.4c-0.6,0-1.1-0.1-1.6-0.4c-0.5-0.3-0.8-0.7-1.1-1.2                       c-0.3-0.5-0.4-1.1-0.4-1.8C12.7,9,12.8,8.5,13.1,7.9z M17.9,8.4c-0.2-0.4-0.5-0.7-0.8-0.8c-0.3-0.2-0.7-0.3-1.1-0.3                       c-0.4,0-0.8,0.1-1.1,0.3c-0.3,0.2-0.6,0.5-0.8,0.8c-0.2,0.4-0.3,0.8-0.3,1.3c0,0.5,0.1,0.9,0.3,1.3c0.2,0.4,0.5,0.7,0.8,0.9                       c0.3,0.2,0.7,0.3,1.1,0.3c0.4,0,0.8-0.1,1.1-0.3c0.3-0.2,0.6-0.5,0.8-0.9c0.2-0.4,0.3-0.8,0.3-1.3S18.1,8.8,17.9,8.4z"></path>
                    	<path class="st0" d="M26.3,7.1c0.5,0.5,0.7,1.2,0.7,2.1V13H26V9.3c0-0.7-0.2-1.2-0.5-1.5c-0.3-0.3-0.8-0.5-1.3-0.5                       c-0.6,0-1,0.2-1.4,0.5s-0.5,0.9-0.5,1.6V13h-1.1V6.5h1.1v0.9c0.2-0.3,0.5-0.6,0.9-0.8s0.8-0.3,1.2-0.3C25.2,6.3,25.8,6.6,26.3,7.1z                       "></path>
                    	<path class="st0" d="M28.9,7.9C29.1,7.4,29.5,7,30,6.8s1-0.4,1.6-0.4c0.6,0,1.1,0.1,1.5,0.4C33.5,7,33.8,7.3,34,7.7V6.5h1.1V13H34                       v-1.2c-0.2,0.4-0.5,0.7-1,1c-0.4,0.3-0.9,0.4-1.5,0.4c-0.6,0-1.1-0.1-1.6-0.4c-0.5-0.3-0.8-0.7-1.1-1.2c-0.3-0.5-0.4-1.1-0.4-1.8                       C28.5,9,28.6,8.5,28.9,7.9z M33.7,8.4c-0.2-0.4-0.5-0.7-0.8-0.8c-0.3-0.2-0.7-0.3-1.1-0.3c-0.4,0-0.8,0.1-1.1,0.3                       c-0.3,0.2-0.6,0.5-0.8,0.8c-0.2,0.4-0.3,0.8-0.3,1.3c0,0.5,0.1,0.9,0.3,1.3c0.2,0.4,0.5,0.7,0.8,0.9c0.3,0.2,0.7,0.3,1.1,0.3                       c0.4,0,0.8-0.1,1.1-0.3c0.3-0.2,0.6-0.5,0.8-0.9c0.2-0.4,0.3-0.8,0.3-1.3S33.9,8.8,33.7,8.4z"></path>
                    	<path class="st0" d="M41.2,6.7c0.4,0.2,0.7,0.6,1,0.9V6.5h1.1v6.7c0,0.6-0.1,1.1-0.4,1.6c-0.3,0.5-0.6,0.8-1.1,1.1                       c-0.5,0.3-1,0.4-1.7,0.4c-0.9,0-1.6-0.2-2.2-0.6c-0.6-0.4-0.9-1-1-1.7H38c0.1,0.4,0.4,0.7,0.7,1s0.8,0.4,1.4,0.4                       c0.6,0,1.1-0.2,1.5-0.6c0.4-0.4,0.6-0.9,0.6-1.6v-1.4c-0.2,0.4-0.5,0.7-1,1c-0.4,0.3-0.9,0.4-1.5,0.4c-0.6,0-1.1-0.1-1.6-0.4                       S37.3,12,37,11.5c-0.3-0.5-0.4-1.1-0.4-1.8c0-0.7,0.1-1.3,0.4-1.8s0.6-0.9,1.1-1.2s1-0.4,1.6-0.4C40.3,6.3,40.8,6.5,41.2,6.7z                        M41.8,8.4c-0.2-0.4-0.5-0.7-0.8-0.8c-0.3-0.2-0.7-0.3-1.1-0.3c-0.4,0-0.8,0.1-1.1,0.3c-0.3,0.2-0.6,0.5-0.8,0.8                       c-0.2,0.4-0.3,0.8-0.3,1.3c0,0.5,0.1,0.9,0.3,1.3c0.2,0.4,0.5,0.7,0.8,0.9c0.3,0.2,0.7,0.3,1.1,0.3c0.4,0,0.8-0.1,1.1-0.3                       c0.3-0.2,0.6-0.5,0.8-0.9c0.2-0.4,0.3-0.8,0.3-1.3S42,8.8,41.8,8.4z"></path>
                    	<path class="st0" d="M51.1,10.1h-5.3c0,0.6,0.3,1.2,0.7,1.5c0.4,0.4,0.9,0.5,1.5,0.5c0.5,0,0.9-0.1,1.2-0.3                       c0.3-0.2,0.5-0.5,0.7-0.9H51c-0.2,0.6-0.5,1.1-1.1,1.5c-0.5,0.4-1.2,0.6-2,0.6c-0.6,0-1.2-0.1-1.7-0.4c-0.5-0.3-0.9-0.7-1.2-1.2                       c-0.3-0.5-0.4-1.1-0.4-1.8s0.1-1.3,0.4-1.8s0.7-0.9,1.1-1.2c0.5-0.3,1.1-0.4,1.7-0.4c0.6,0,1.2,0.1,1.7,0.4                       c0.5,0.3,0.9,0.6,1.1,1.1c0.3,0.5,0.4,1,0.4,1.6C51.1,9.7,51.1,9.9,51.1,10.1z M49.7,8.2c-0.2-0.3-0.4-0.5-0.8-0.7                       c-0.3-0.2-0.7-0.2-1-0.2c-0.6,0-1,0.2-1.4,0.5c-0.4,0.4-0.6,0.8-0.7,1.5H50C50,8.8,49.9,8.5,49.7,8.2z"></path>
                    	<path class="st0" d="M52.5,7.9c0.3-0.5,0.6-0.9,1.1-1.2s1-0.4,1.6-0.4c0.5,0,1,0.1,1.4,0.4c0.4,0.2,0.8,0.5,1,0.9V4.1h1.1V13h-1.1                       v-1.2c-0.2,0.4-0.5,0.7-1,1c-0.4,0.3-0.9,0.4-1.5,0.4c-0.6,0-1.1-0.1-1.6-0.4s-0.9-0.7-1.1-1.2c-0.3-0.5-0.4-1.1-0.4-1.8                       C52.1,9,52.3,8.5,52.5,7.9z M57.4,8.4c-0.2-0.4-0.5-0.7-0.8-0.8c-0.3-0.2-0.7-0.3-1.1-0.3c-0.4,0-0.8,0.1-1.1,0.3                       c-0.3,0.2-0.6,0.5-0.8,0.8c-0.2,0.4-0.3,0.8-0.3,1.3c0,0.5,0.1,0.9,0.3,1.3c0.2,0.4,0.5,0.7,0.8,0.9c0.3,0.2,0.7,0.3,1.1,0.3                       c0.4,0,0.8-0.1,1.1-0.3c0.3-0.2,0.6-0.5,0.8-0.9c0.2-0.4,0.3-0.8,0.3-1.3S57.6,8.8,57.4,8.4z"></path>
                    	<path class="st0" d="M65.9,6.7c0.4-0.2,0.9-0.4,1.5-0.4c0.6,0,1.1,0.1,1.6,0.4c0.5,0.3,0.8,0.7,1.1,1.2s0.4,1.1,0.4,1.8                       c0,0.7-0.1,1.3-0.4,1.8c-0.3,0.5-0.6,0.9-1.1,1.2s-1,0.4-1.6,0.4c-0.6,0-1.1-0.1-1.5-0.4c-0.4-0.2-0.8-0.6-1-0.9V13h-1.1V4.1h1.1                       v3.5C65.2,7.3,65.5,7,65.9,6.7z M69.1,8.4c-0.2-0.4-0.5-0.6-0.8-0.8c-0.3-0.2-0.7-0.3-1.1-0.3c-0.4,0-0.8,0.1-1.1,0.3                       c-0.3,0.2-0.6,0.5-0.8,0.9c-0.2,0.4-0.3,0.8-0.3,1.3c0,0.5,0.1,0.9,0.3,1.3c0.2,0.4,0.5,0.7,0.8,0.9c0.3,0.2,0.7,0.3,1.1,0.3                       c0.4,0,0.8-0.1,1.1-0.3c0.3-0.2,0.6-0.5,0.8-0.9c0.2-0.4,0.3-0.8,0.3-1.3C69.4,9.2,69.3,8.8,69.1,8.4z"></path>
                    	<path class="st0" d="M77.6,6.5l-4,9.7h-1.1l1.3-3.2l-2.7-6.5h1.2l2.1,5.3l2-5.3H77.6z"></path>
                    	<path class="st0" d="M78.5,7.7c-0.1-0.1-0.2-0.3-0.2-0.5s0.1-0.4,0.2-0.5c0.1-0.1,0.3-0.2,0.5-0.2c0.2,0,0.4,0.1,0.5,0.2                       c0.1,0.1,0.2,0.3,0.2,0.5s-0.1,0.4-0.2,0.5C79.4,7.9,79.3,8,79.1,8C78.9,8,78.7,7.9,78.5,7.7z M78.5,12.9c-0.1-0.1-0.2-0.3-0.2-0.5                       s0.1-0.4,0.2-0.5c0.1-0.1,0.3-0.2,0.5-0.2c0.2,0,0.4,0.1,0.5,0.2c0.1,0.1,0.2,0.3,0.2,0.5s-0.1,0.4-0.2,0.5                       c-0.1,0.1-0.3,0.2-0.5,0.2C78.9,13.1,78.7,13,78.5,12.9z"></path>
                    </g>
                    </svg>