<svg xmlns="http://www.w3.org/2000/svg" width="70.598" height="20" viewBox="0 0 70.598 20"><defs><style>.a{fill:#a0a0a0;}</style></defs><g transform="translate(189 98.002)"><g transform="translate(-189 -98)"><g transform="translate(0 -0.002)"><path class="a" d="M433.987,36.934a5.325,5.325,0,0,0-5.322-5.324h0a5.325,5.325,0,0,0-5.324,5.322h0a5.325,5.325,0,0,0,5.322,5.324h0a5.335,5.335,0,0,0,3.99-1.8v1.183a.672.672,0,0,0,.667.667h0a.672.672,0,0,0,.667-.667V36.971h0v-.038Zm-5.324,3.99h0a3.991,3.991,0,0,1-3.99-3.99h0a3.991,3.991,0,0,1,3.99-3.99h0a3.991,3.991,0,0,1,3.99,3.99h0A3.991,3.991,0,0,1,428.664,40.923Z" transform="translate(-370.06 -27.631)"/><path class="a" d="M79.464,4h0a5.272,5.272,0,0,0-2.656.718V1.335A1.335,1.335,0,0,0,75.474,0h0A1.335,1.335,0,0,0,74.14,1.334V9.326h0a5.325,5.325,0,0,0,5.322,5.324h0a5.325,5.325,0,0,0,5.324-5.322h0A5.334,5.334,0,0,0,79.464,4Zm2.668,5.324A2.669,2.669,0,0,1,79.464,12h0A2.669,2.669,0,0,1,76.8,9.327h0a2.669,2.669,0,0,1,2.668-2.668h0a2.669,2.669,0,0,1,2.668,2.668Z" transform="translate(-64.809 0)"/><g transform="translate(45.288 1.336)"><path class="a" d="M360.607,31.81a.672.672,0,0,0-.667.667V41.8a.667.667,0,0,0,1.334,0V32.477a.663.663,0,0,0-.667-.667Z" transform="translate(-359.927 -29.142)"/><circle class="a" cx="0.667" cy="0.667" r="0.667"/></g><g transform="translate(30.626 1.336)"><path class="a" d="M244.207,31.81a.672.672,0,0,0-.667.667V41.8a.667.667,0,1,0,1.334,0V32.477a.663.663,0,0,0-.667-.667Z" transform="translate(-243.515 -29.142)"/><circle class="a" cx="0.667" cy="0.667" r="0.667"/></g><path class="a" d="M275.287,36.934a5.325,5.325,0,0,0-5.322-5.324h0a5.325,5.325,0,0,0-5.324,5.322h0a5.325,5.325,0,0,0,5.322,5.324h0a5.335,5.335,0,0,0,3.99-1.8V42.3h0v.038a3.991,3.991,0,0,1-3.99,3.99h0a4.011,4.011,0,0,1-3.952-3.448.662.662,0,1,0-1.309.2,5.33,5.33,0,0,0,5.273,4.556h0a5.327,5.327,0,0,0,5.324-5.21v-5.45h0l-.013-.038Zm-5.336,4.015h0a3.991,3.991,0,0,1-3.99-3.99h0a3.991,3.991,0,0,1,3.99-3.99h0a3.991,3.991,0,0,1,3.99,3.99v.013a3.972,3.972,0,0,1-3.99,3.977Z" transform="translate(-231.333 -27.631)"/><path class="a" d="M8.651,11.981H5.3L8.651,9.464V1.17A5.343,5.343,0,0,0,4.485.063h0a5.326,5.326,0,0,0-4.418,6.1h0a5.908,5.908,0,0,0,.239.957A1.319,1.319,0,0,0,2.383,7.7l.025-.013a1.349,1.349,0,0,0,.4-1.5A2.8,2.8,0,0,1,2.7,5.725h0A2.661,2.661,0,0,1,4.908,2.68h0A2.661,2.661,0,0,1,7.954,4.9h0a2.674,2.674,0,0,1-.838,2.4c-.013.013-.013.013-.025.013L.533,12.258l-.013.013a.1.1,0,0,0-.05.05l-.05.05L.395,12.4a.334.334,0,0,0-.063.076h0a1.342,1.342,0,0,0-.038,1.649h0a1.316,1.316,0,0,0,1.145.529H8.676a1.335,1.335,0,0,0,1.334-1.334h0a1.373,1.373,0,0,0-1.359-1.334Z" transform="translate(0 0.002)"/><path class="a" d="M158.887,9.135V.677A.672.672,0,0,0,158.22.01h0a.672.672,0,0,0-.667.667V5.812a5.311,5.311,0,0,0-3.99-1.8h0a5.325,5.325,0,0,0-5.324,5.322h0a5.325,5.325,0,0,0,5.322,5.324h0a5.325,5.325,0,0,0,5.324-5.322h0Zm-1.334.2a3.991,3.991,0,0,1-3.99,3.99h0a3.991,3.991,0,0,1-3.99-3.99h0a3.991,3.991,0,0,1,3.99-3.99h0a3.975,3.975,0,0,1,3.99,3.99Z" transform="translate(-129.583 -0.009)"/><path class="a" d="M385.61,13.426a3.941,3.941,0,0,1-2.265-1.133h0a4.027,4.027,0,0,1-1.17-2.794V5.434h1.988a.667.667,0,1,0,0-1.334h-1.988V.777a.667.667,0,0,0-1.334,0V9.549h0a5.34,5.34,0,0,0,1.561,3.688h0a5.331,5.331,0,0,0,3.021,1.51.663.663,0,0,0,.755-.654A.656.656,0,0,0,385.61,13.426Z" transform="translate(-332.909 -0.096)"/><path class="a" d="M523.21,13.513a3.941,3.941,0,0,1-2.265-1.133h0a4.027,4.027,0,0,1-1.17-2.794V.877a.667.667,0,1,0-1.334,0V9.649h0A5.34,5.34,0,0,0,520,13.337h0a5.331,5.331,0,0,0,3.021,1.51.674.674,0,0,0,.189-1.334Z" transform="translate(-453.191 -0.183)"/></g></g></g></svg>