<svg xmlns="http://www.w3.org/2000/svg" width="296.3" height="24.064" viewBox="0 0 296.3 24.064"><defs><style>.a{fill:#dca399;}</style></defs><g transform="translate(2 0.366)"><g transform="translate(-2 -0.366)"><path class="a" d="M14.308,18.2a6.283,6.283,0,0,1-2.454,4.57A7.448,7.448,0,0,1,6.42,24.041,9.691,9.691,0,0,1,0,19.923l.633-.7C2.454,21.788,3.8,22.789,6.2,23.192a4.781,4.781,0,0,0,3.927-.982,4.261,4.261,0,0,0,1.635-2.945,3.868,3.868,0,0,0-.834-3,15,15,0,0,0-4-2.9A35.342,35.342,0,0,1,3,10.822,6.465,6.465,0,0,1,1.07,8.29a6.165,6.165,0,0,1-.437-3.1,5.4,5.4,0,0,1,2.1-3.878A6.042,6.042,0,0,1,7.206.141,7.967,7.967,0,0,1,9.871.912a7.044,7.044,0,0,1,2.454,2.233l-.751.6a8.973,8.973,0,0,0-.668-.864A5.223,5.223,0,0,0,7.3.976a3.656,3.656,0,0,0-3.1.771,3.559,3.559,0,0,0-.275,5.134,16.524,16.524,0,0,0,4,2.97,38.837,38.837,0,0,1,4.04,2.567A5.826,5.826,0,0,1,13.9,14.872a6.676,6.676,0,0,1,.407,3.333" transform="translate(0 -0.039)"/><path class="a" d="M48.9,23.178H56.27v.834H42.33V0H56.339V.8H45.766V10.971H52.7v.834H45.766V23.178Z" transform="translate(-21.552 0.004)"/><path class="a" d="M94.457,20.512a9.984,9.984,0,0,1-7.8,3.5,11.214,11.214,0,0,1-8.2-3.166,11.3,11.3,0,0,1-3.171-8.408,14.446,14.446,0,0,1,1.473-6.469,9.685,9.685,0,0,1,4.1-4.5A11.692,11.692,0,0,1,86.623,0,10.431,10.431,0,0,1,91.34,1.064a9.94,9.94,0,0,1,3.1,2.3v.1l-.668.633a5.891,5.891,0,0,0-1.3-1.4A8.507,8.507,0,0,0,87.124.868a6.833,6.833,0,0,0-5.807,2.945c-1.433,1.963-2.135,4.771-2.135,8.443,0,3.465.771,6.136,2.336,8a7.363,7.363,0,0,0,5.836,2.813,9.056,9.056,0,0,0,3.8-.9,6.312,6.312,0,0,0,2.636-2.361Z" transform="translate(-38.328 0.005)"/><path class="a" d="M130.562,0a19.329,19.329,0,0,1,5.5.569A7.22,7.22,0,0,1,139.5,2.5a4.943,4.943,0,0,1,1.3,3.436,5.3,5.3,0,0,1-1.7,3.971,8.948,8.948,0,0,1-5.036,2.268,10.915,10.915,0,0,1,4.771,4.069,39.857,39.857,0,0,1,3.971,7.77h-2.739c-.265-1.1-3.8-11.407-10.308-11.407h-1.036v11.4h-3.4V0Zm.982,11.805a8.1,8.1,0,0,0,2.4-.515,4.01,4.01,0,0,0,1.669-1.07,3.99,3.99,0,0,0,.982-1.566,6.381,6.381,0,0,0,.363-2.371,5.841,5.841,0,0,0-1.232-3.927c-.815-1.021-2.71-1.374-5.483-1.374h-1.5v10.8Z" transform="translate(-63.806 0.004)"/><path class="a" d="M180.718,23.178h7.373v.834H174.15V0h14V.8H177.581V10.971h6.941v.834h-6.941V23.178Z" transform="translate(-88.667 0.004)"/><path class="a" d="M234.759.8h-10V24.013h-3.47V.8H211.38l.034-.8h23.345Z" transform="translate(-107.623 0.004)"/><path class="a" d="M278.044,18.205a6.283,6.283,0,0,1-2.454,4.57,7.455,7.455,0,0,1-5.439,1.266,9.579,9.579,0,0,1-6.381-4.133l.6-.687c1.8,2.567,3.171,3.569,5.571,3.971a4.781,4.781,0,0,0,3.927-.982,4.261,4.261,0,0,0,1.635-2.945,3.868,3.868,0,0,0-.834-3,15.1,15.1,0,0,0-4.005-2.9,35.675,35.675,0,0,1-3.927-2.538,6.464,6.464,0,0,1-1.934-2.533,6.164,6.164,0,0,1-.437-3.1,5.4,5.4,0,0,1,2.135-3.9A6.042,6.042,0,0,1,270.941.142a7.966,7.966,0,0,1,2.665.771,7.044,7.044,0,0,1,2.454,2.233l-.731.6a8.979,8.979,0,0,0-.668-.864,5.223,5.223,0,0,0-3.6-1.9,3.656,3.656,0,0,0-3.1.771,3.583,3.583,0,0,0-1.232,2.332,3.544,3.544,0,0,0,.933,2.8,16.525,16.525,0,0,0,4,2.97,38.11,38.11,0,0,1,4.005,2.567,5.8,5.8,0,0,1,1.963,2.454,6.677,6.677,0,0,1,.432,3.367" transform="translate(-134.297 -0.039)"/><path class="a" d="M339.724,23.213v.8H323.01V0h3.47V23.213Z" transform="translate(-164.459 0.004)"/><path class="a" d="M358.423,3.235A10.931,10.931,0,0,1,366.6,0a11.176,11.176,0,0,1,8.237,3.2,11.185,11.185,0,0,1,3.642,8.772A11.511,11.511,0,0,1,375,20.68a12.051,12.051,0,0,1-16.64,0,11.507,11.507,0,0,1-3.534-8.835,11.044,11.044,0,0,1,3.6-8.6m2.538,17.111a6.569,6.569,0,0,0,5.89,2.8,6.784,6.784,0,0,0,5.807-2.8c1.5-1.87,1.865-4.639,1.865-8.345,0-3.6-.334-6.381-1.831-8.271A7.068,7.068,0,0,0,366.591.869a6.242,6.242,0,0,0-5.635,2.8c-1.5,1.865-2.2,4.639-2.2,8.305s.736,6.5,2.2,8.374" transform="translate(-180.66 0.004)"/><path class="a" d="M435.715,0V13.543a26.9,26.9,0,0,1-.363,4.5,6.47,6.47,0,0,1-1.5,2.867,7.642,7.642,0,0,1-3.171,2.268,12.144,12.144,0,0,1-4.7.834,12.37,12.37,0,0,1-5.37-1.065,6.872,6.872,0,0,1-3.068-2.822,8.109,8.109,0,0,1-.864-4.57l.167-2.454V0h3.407V13.253a34.272,34.272,0,0,0,.2,5.5,4.668,4.668,0,0,0,1.9,2.842,7.186,7.186,0,0,0,4.418,1.237A9.243,9.243,0,0,0,430.733,22a6.573,6.573,0,0,0,2.67-2,6.455,6.455,0,0,0,1.134-2.533,24.712,24.712,0,0,0,.334-4.04V0Z" transform="translate(-212.125 0.004)"/><path class="a" d="M488.365,0V24.013h-.633L470.891,1.9V23.414h-.771V0h3.6l13.641,18.245V0Z" transform="translate(-239.359 0.004)"/><path class="a" d="M537.874,13.769h3.333v3.8a4.752,4.752,0,0,1-1.7,3.7,9.418,9.418,0,0,1-2.371,1.635,15.477,15.477,0,0,1-5.4,1.1,11.329,11.329,0,0,1-8.271-3.269,11.205,11.205,0,0,1-3.269-8.305,13.115,13.115,0,0,1,3.132-8.7A10.516,10.516,0,0,1,531.837,0a9.7,9.7,0,0,1,7.6,3.333v.1l-.766.8a7.186,7.186,0,0,0-1.134-1.291A7.431,7.431,0,0,0,532.2.83a7.746,7.746,0,0,0-5.7,2.454c-1.6,1.6-2.454,4.467-2.454,8.6s.8,7,2.366,8.737a7.5,7.5,0,0,0,5.807,2.567,6.872,6.872,0,0,0,3.2-.731,3.927,3.927,0,0,0,1.934-1.767,5.635,5.635,0,0,0,.491-2.636Z" transform="translate(-264.855 0.008)"/><path class="a" d="M581.668,23.178h7.373v.834H575.1V0h14.009V.8H578.536V10.971h6.936v.834h-6.936V23.178Z" transform="translate(-292.809 0.004)"/></g></g></svg>