<svg width="37" height="37" viewBox="0 0 37 37" fill="none" xmlns="http://www.w3.org/2000/svg">
<path d="M3.51997 3.51997C5.86105 1.17837 8.91865 0 11.9909 0C15.0631 0 18.1207 1.17837 20.4618 3.51997C22.8028 5.86157 23.9812 8.91918 23.9812 11.9914C23.9812 14.7353 23.0413 17.4647 21.1772 19.6868L23.1906 21.7001C23.9066 21.2675 24.7264 21.0436 25.5317 21.0436C26.6949 21.0436 27.8435 21.4909 28.7234 22.3561L34.7039 28.3518C35.5843 29.2317 36.017 30.3803 36.017 31.5284C36.017 32.6765 35.5843 33.8251 34.7039 34.705C33.8392 35.5854 32.676 36.018 31.5274 36.018C30.3793 36.018 29.2312 35.5854 28.3508 34.705L22.3556 28.7244C21.4909 27.8446 21.0431 26.6959 21.0431 25.5332C21.0431 24.7275 21.267 23.9076 21.6996 23.1916L19.6863 21.1788C17.4642 23.0429 14.7348 23.9823 11.9909 23.9823C8.91865 23.9823 5.86105 22.8039 3.51997 20.4628C1.17837 18.1207 0 15.0631 0 11.9914C0 8.91865 1.17837 5.86105 3.51997 3.51997ZM24.4582 27.8446L27.8435 24.4592L27.2319 23.8476C26.7695 23.3852 26.1579 23.1462 25.5317 23.1462C24.9206 23.1462 24.3089 23.3852 23.8466 23.8476C23.3837 24.31 23.1452 24.9216 23.1452 25.5327C23.1452 26.1589 23.3837 26.7706 23.8466 27.2329L24.4582 27.8446ZM28.5893 25.205L25.2045 28.5903L29.8428 33.2135C30.3052 33.6905 30.9163 33.9144 31.5279 33.9144C32.1395 33.9144 32.7511 33.6905 33.213 33.2135H33.2276C33.6905 32.7663 33.9133 32.1395 33.9133 31.5284C33.9133 30.9173 33.69 30.3052 33.2125 29.8433L28.5893 25.205ZM6.3683 6.3683C7.91928 4.81733 9.96238 4.04184 11.9909 4.04184C14.0193 4.04184 16.0624 4.81733 17.6134 6.3683L16.8677 7.11405C15.5254 5.75668 13.7506 5.08556 11.9909 5.08556C10.2311 5.08556 8.45628 5.75668 7.11405 7.11405L6.3683 6.3683ZM11.9909 2.10311C9.45565 2.10311 6.93505 3.07221 4.99632 4.99632C3.07221 6.93505 2.10311 9.45565 2.10311 11.9914C2.10311 14.5266 3.07221 17.0472 4.99632 18.9859C6.93505 20.91 9.45513 21.8791 11.9909 21.8791C14.5266 21.8791 17.0467 20.91 18.9854 18.9859C20.9095 17.0472 21.8786 14.5266 21.8786 11.9914C21.8786 9.45617 20.9095 6.93557 18.9854 4.99685C17.0467 3.07221 14.5261 2.10311 11.9909 2.10311Z" fill="#5CA1C7"/>
</svg>
