<svg width="39" height="34" viewBox="0 0 39 34" fill="none" xmlns="http://www.w3.org/2000/svg">
<path d="M31.278 33.8656H2.96401C2.34001 33.8656 1.75498 33.5968 1.32598 33.136C0.896979 32.6752 0.741008 32.0608 0.819008 31.4464L4.68002 0.534401H33.735L38.22 30.3712C38.259 30.9088 38.103 31.4464 37.752 31.8688C37.401 32.2912 36.855 32.5216 36.309 32.5216L35.451 32.56C34.515 32.5984 33.657 32.8672 32.994 33.328C32.487 33.6736 31.902 33.8656 31.278 33.8656ZM5.928 1.9168L2.18401 31.6384C2.14501 31.8688 2.22301 32.0608 2.37901 32.2144C2.53501 32.368 2.73001 32.4832 2.96401 32.4832H31.278C31.59 32.4832 31.902 32.368 32.175 32.2144C33.072 31.6 34.164 31.2544 35.373 31.1776L36.27 31.1392C36.426 31.1392 36.582 31.0624 36.699 30.9472C36.816 30.832 36.855 30.6784 36.855 30.5248L32.565 1.9168H5.928Z" fill="#5CA1C7"/>
<path d="M23.166 5.7952C21.957 5.7952 20.982 6.7552 20.982 7.9456C20.982 9.136 21.957 10.096 23.166 10.096C24.375 10.096 25.35 9.136 25.35 7.9456C25.35 6.7552 24.375 5.7952 23.166 5.7952ZM23.166 8.6368C22.776 8.6368 22.425 8.3296 22.425 7.9072C22.425 7.5232 22.737 7.1776 23.166 7.1776C23.556 7.1776 23.907 7.4848 23.907 7.9072C23.907 8.3296 23.595 8.6368 23.166 8.6368Z" fill="#5CA1C7"/>
<path d="M12.285 5.7952C11.076 5.7952 10.101 6.7552 10.101 7.9456C10.101 9.136 11.076 10.096 12.285 10.096C13.494 10.096 14.469 9.136 14.469 7.9456C14.469 6.7552 13.494 5.7952 12.285 5.7952ZM12.285 8.6368C11.895 8.6368 11.544 8.3296 11.544 7.9072C11.544 7.5232 11.856 7.1776 12.285 7.1776C12.714 7.1776 13.026 7.4848 13.026 7.9072C13.026 8.3296 12.675 8.6368 12.285 8.6368Z" fill="#5CA1C7"/>
<path d="M23.166 7.9456H23.127C22.737 7.9456 22.386 8.2528 22.386 8.6752C22.386 8.7904 22.425 8.8672 22.425 8.944V12.592C22.425 15.1648 20.319 17.2384 17.706 17.2384C15.093 17.2384 12.987 15.1648 12.987 12.592V8.6368C12.987 8.2528 12.675 7.9072 12.246 7.9072C11.817 7.9072 11.505 8.2144 11.505 8.6368V12.5536C11.505 15.8944 14.274 18.6208 17.667 18.6208C21.06 18.6208 23.829 15.8944 23.829 12.5536V8.6368C23.907 8.2528 23.595 7.9456 23.166 7.9456Z" fill="#5CA1C7"/>
<path d="M32.604 33.0592H31.083L31.278 1.072H32.682L32.604 33.0592Z" fill="#5CA1C7"/>
</svg>
