<svg width="48" height="39" viewBox="0 0 48 39" fill="none" xmlns="http://www.w3.org/2000/svg">
<path d="M46.3107 27.4777C46.2562 27.3142 46.1472 27.2051 46.0381 27.0961C45.5475 26.6054 43.7483 23.1162 42.6579 21.0444C42.6034 20.9354 42.5489 20.7718 42.4399 20.6628L40.2046 15.538C40.0955 15.2654 39.8229 14.7202 38.8961 14.066C38.8416 14.0115 32.1357 10.2496 30.0095 10.5767C28.5374 10.7948 25.4844 14.7202 24.0669 16.5193C22.7039 14.6657 19.6508 10.7948 18.1243 10.5767C15.998 10.2496 9.29214 14.0115 9.23762 14.066C8.31079 14.6657 8.0382 15.2109 7.92916 15.538L5.69387 20.7173C5.63935 20.8264 5.58483 20.9354 5.47579 21.099C4.38541 23.1707 2.53175 26.6054 2.0956 27.1506C1.93204 27.2596 1.823 27.4232 1.76848 27.6413L0.0238656 34.7288C-0.085173 35.2194 0.187423 35.7101 0.678097 35.8192C1.16877 35.9282 1.65944 35.6556 1.823 35.1649L3.56762 28.2955C4.11281 27.6958 4.98512 26.1147 7.22041 21.9167C8.0382 20.3357 9.07406 18.4275 9.29214 18.1549C9.67378 17.7733 11.691 17.01 12.9449 16.5193L13.6537 16.2467C13.8718 16.1377 14.0898 16.0832 14.3079 15.9741C15.2893 15.5925 17.0884 14.8838 17.47 15.1018C20.087 16.6829 22.0496 18.5911 22.1042 18.6456L22.1587 18.7001C22.1587 18.7001 23.2491 19.6815 22.8674 20.1721C22.7039 20.3902 22.5403 20.4447 22.4313 20.4447C22.0496 20.4447 21.559 20.1176 21.3954 19.9541C20.087 18.6456 18.5059 17.6097 18.4514 17.5552C18.2878 17.4462 18.1243 17.3917 17.9062 17.3917C16.5432 17.3917 13.8172 18.2094 13.054 21.1535C12.3997 23.7704 13.2175 26.3328 15.5073 28.8407C17.1429 30.5853 21.0683 32.0028 22.2677 32.3844C23.1946 32.7116 23.1946 33.2022 23.1946 33.3113C23.031 34.02 22.5948 34.1291 22.3768 34.0745C18.833 33.4203 15.2347 33.1477 15.0712 33.1477C15.0167 33.1477 15.0167 33.1477 14.9621 33.1477C10.4916 33.3658 8.85599 32.0573 8.80147 32.0028C8.41983 31.6757 7.87464 31.6757 7.493 32.0573C7.16589 32.439 7.16589 33.0387 7.54752 33.3658C7.65656 33.4748 8.52887 34.1836 10.437 34.6743C9.4557 35.5466 8.63791 36.5824 8.14724 37.5093C7.92916 37.9454 8.09272 38.4906 8.52887 38.7632C8.63791 38.8177 8.80147 38.8722 8.96503 38.8722C9.29214 38.8722 9.61926 38.7087 9.78281 38.3816C10.4916 36.9641 12.0726 35.5466 13.3266 35.0559C13.8172 35.0559 14.417 35.0559 15.0167 35.0559C15.5073 35.1104 18.8875 35.383 22.1042 35.9282H22.1587C22.2132 35.9282 22.3222 35.9282 22.4313 35.9282C22.9765 35.9282 23.6852 35.7101 24.2304 35.2194C24.8301 35.7646 25.6479 35.9827 26.3022 35.9827C26.4112 35.9827 26.4657 35.9827 26.5747 35.9827C26.6293 35.9827 26.6293 35.9827 26.6838 35.9827C29.5733 35.4375 32.9535 35.1104 33.4442 35.0559C34.0439 35.1104 34.5891 35.1104 35.1343 35.0559C36.4427 35.492 37.9693 36.9641 38.678 38.3816C38.8416 38.7087 39.1687 38.8722 39.4958 38.8722C39.6594 38.8722 39.7684 38.8177 39.932 38.7632C40.3681 38.5451 40.5862 37.9999 40.3136 37.5093C39.8229 36.5824 39.0051 35.5466 38.0238 34.6743C39.932 34.2381 40.7498 33.4748 40.9133 33.3658C41.2949 33.0387 41.295 32.439 40.9678 32.0573C40.6407 31.6757 40.041 31.6757 39.6594 32.0028C39.6594 32.0028 37.9693 33.4203 33.4987 33.1477C33.4442 33.1477 33.3897 33.1477 33.3897 33.1477C33.2261 33.1477 29.6278 33.4748 26.4112 34.0745C26.1386 34.0745 25.4298 34.0745 25.2663 33.3658C25.2663 33.1477 25.3208 32.657 26.1931 32.3844C27.338 32.0028 31.2634 30.6398 32.9535 28.8407C35.2433 26.3328 36.0611 23.7704 35.4069 21.1535C34.6436 18.2094 31.9176 17.3917 30.5547 17.3917C30.3911 17.3917 30.173 17.4462 30.0095 17.5552C29.9549 17.6097 28.3739 18.6456 27.0654 19.8995C26.9019 20.0631 26.3022 20.4447 25.866 20.4447C25.757 20.4447 25.6479 20.3902 25.4844 20.1721C25.0482 19.5724 26.1931 18.6456 26.1931 18.6456C26.2476 18.5911 26.3022 18.5911 26.3022 18.5366C26.3022 18.5366 28.2103 16.5193 30.8272 15.0473C31.2634 14.7747 32.899 15.429 33.9348 15.8651C34.2074 15.9741 34.48 16.0832 34.6981 16.1922L35.4069 16.4648C36.6063 16.901 38.678 17.7188 39.0051 18.1004C39.2232 18.373 40.2591 20.3357 41.0769 21.9167C43.3667 26.1693 44.239 27.7503 44.7297 28.2955L46.2017 32.2754C46.3652 32.7661 46.9104 32.9842 47.4011 32.8206C47.8918 32.657 48.1099 32.1119 47.9463 31.6212L46.3107 27.4777ZM13.5992 14.2841C13.3811 14.3931 13.163 14.4476 12.9449 14.5566L12.2362 14.8292C11.691 15.0473 11.2003 15.2109 10.7096 15.429C12.2362 14.5566 16.9248 12.3214 17.8517 12.4849C18.2333 12.594 19.2146 13.6298 20.4141 14.9928C19.8144 14.5566 19.1601 14.066 18.3969 13.6298C17.252 12.812 15.5073 13.5208 13.5992 14.2841ZM25.5389 22.2984C26.8473 22.4074 27.9922 21.4261 28.1558 21.2625C29.0826 20.3902 30.1185 19.6269 30.6092 19.2453C31.2634 19.3543 32.9535 19.736 33.4442 21.5896C33.9348 23.5523 33.2806 25.515 31.427 27.5868C30.4456 28.6771 27.7197 29.8766 25.4844 30.6398C24.9392 30.8034 24.503 31.076 24.1759 31.4031C23.8488 31.076 23.4126 30.8034 22.8129 30.6398C20.7412 29.9311 17.9062 28.7317 16.8703 27.5868C15.0167 25.515 14.3079 23.6068 14.8531 21.5896C15.3438 19.736 17.0339 19.2998 17.6881 19.2453C18.1788 19.5724 19.2146 20.3357 20.1415 21.2625C20.2505 21.3716 21.3409 22.3529 22.5948 22.2439C23.031 22.1893 23.5762 22.0803 24.1214 21.5351C24.4485 21.9713 24.9937 22.2439 25.5389 22.2984ZM35.2433 14.5021C34.9707 14.3931 34.7526 14.2841 34.48 14.2295C32.6809 13.5208 31.0453 12.8665 29.7914 13.5208C29.1372 13.9024 28.4829 14.2841 27.9377 14.6657C29.0281 13.4117 29.9549 12.5394 30.2821 12.3759C31.2634 12.2123 35.8975 14.4476 37.4241 15.3199C36.9879 15.1564 36.4427 14.9383 35.8975 14.7202L35.2433 14.5021Z" fill="#5CA1C7"/>
<path d="M6.56622 7.95982L9.56478 10.3041C9.72833 10.4132 9.94641 10.5222 10.11 10.5222C10.3826 10.5222 10.6552 10.4132 10.8187 10.1406C11.1458 9.75895 11.0368 9.15924 10.6552 8.83212L7.6566 6.48779C7.27497 6.16068 6.67526 6.26972 6.34814 6.65135C6.07554 7.08751 6.13006 7.68722 6.56622 7.95982Z" fill="#5CA1C7"/>
<path d="M23.031 0.926827V7.14202C23.031 7.6327 23.4672 8.06885 23.9578 8.06885C24.4485 8.06885 24.8847 7.6327 24.8847 7.14202V0.926827C24.8847 0.436154 24.4485 0 23.9578 0C23.4672 0 23.031 0.436154 23.031 0.926827Z" fill="#5CA1C7"/>
<path d="M39.6594 6.05164L37.206 8.61405C36.8789 8.99568 36.8789 9.54087 37.2605 9.92251C37.4241 10.0861 37.6422 10.1951 37.9148 10.1951C38.1328 10.1951 38.4054 10.0861 38.569 9.92251L41.0224 7.3601C41.3495 6.97847 41.3495 6.43328 40.9678 6.05164C40.5862 5.67001 39.9865 5.67001 39.6594 6.05164Z" fill="#5CA1C7"/>
<path d="M33.3351 3.1076L30.7727 7.41463C30.5001 7.85078 30.6637 8.39597 31.0999 8.66857C31.2634 8.77761 31.427 8.77761 31.5905 8.77761C31.9176 8.77761 32.1902 8.61405 32.4083 8.34145L34.9707 4.03443C35.2433 3.59828 35.0798 3.05308 34.6436 2.78049C34.1529 2.56241 33.6077 2.67145 33.3351 3.1076Z" fill="#5CA1C7"/>
<path d="M13.8172 2.78049C13.381 3.05308 13.2175 3.59828 13.4901 4.03443L16.0525 8.34145C16.216 8.61405 16.5432 8.77761 16.8703 8.77761C17.0338 8.77761 17.1974 8.72309 17.3609 8.66857C17.7971 8.39597 17.9607 7.85078 17.6881 7.41463L15.1257 3.1076C14.7985 2.67145 14.2534 2.56241 13.8172 2.78049Z" fill="#5CA1C7"/>
</svg>
