<svg width="39" height="39" viewBox="0 0 39 39" fill="none" xmlns="http://www.w3.org/2000/svg">
<path d="M15.0034 18.6915V17.9329C16.2162 17.2537 17.1217 16.1382 17.5339 14.8155C18.0742 14.7699 18.5759 14.5183 18.9341 14.1131C19.2923 13.708 19.4792 13.1807 19.4558 12.6416C19.448 12.2289 19.3285 11.8258 19.1098 11.475L19.4494 8.12175C19.5023 7.5482 19.4377 6.96991 19.2593 6.42199C19.0809 5.87406 18.7925 5.36791 18.4116 4.93425C18.0889 4.57523 17.6941 4.28759 17.2527 4.08992C16.8113 3.89226 16.3331 3.78898 15.8491 3.78675C15.3879 3.19063 14.7175 2.78988 13.972 2.66475C13.7653 2.60431 13.5527 2.56584 13.3378 2.55H12.5242C8.57156 2.55 5.34922 5.48887 5.34922 9.1035C5.34922 9.1035 5.34922 9.16087 5.34922 9.18637L5.66953 11.4622C5.45829 11.8199 5.34559 12.2267 5.34281 12.6416C5.32108 13.1797 5.50876 13.7053 5.86677 14.1091C6.22478 14.5128 6.72552 14.7636 7.26469 14.8091C7.46996 15.753 7.94362 16.6182 8.62922 17.3017C8.82653 17.5006 9.04088 17.6819 9.26984 17.8436V18.6851C7.51453 18.921 2.5625 19.8772 2.5625 23.1667V28.6875C2.5625 28.8566 2.62999 29.0187 2.75013 29.1383C2.87028 29.2578 3.03322 29.325 3.20312 29.325H20.5C20.6699 29.325 20.8328 29.2578 20.953 29.1383C21.0731 29.0187 21.1406 28.8566 21.1406 28.6875V23.1667C21.1406 19.9091 16.6562 18.9337 15.0034 18.6915ZM10.5191 19.1632C10.5191 19.1632 10.5191 19.1122 10.5191 19.0804V18.4875L10.7305 18.5449L10.8522 18.5831C11.2689 18.7007 11.7003 18.7587 12.1334 18.7552C12.2614 18.7648 12.3899 18.7648 12.5178 18.7552H12.6652C12.7898 18.7449 12.9139 18.7279 13.0367 18.7042H13.088C13.2353 18.6724 13.3827 18.6405 13.53 18.5959L13.6773 18.5512V19.1059C13.6773 19.1377 13.6773 19.1696 13.6773 19.1824C13.6836 19.2118 13.6836 19.2422 13.6773 19.2716C13.6773 19.2716 13.6773 19.3545 13.6453 19.3673C13.6432 19.3863 13.6432 19.4056 13.6453 19.4246V19.4629L13.6133 19.5011L13.5428 19.5712L13.4595 19.6222C13.4425 19.6363 13.4229 19.6471 13.4019 19.6541H13.3314H13.2161H11.1853C11.0381 19.658 10.894 19.6114 10.7774 19.522C10.6607 19.4326 10.5785 19.3059 10.5447 19.1632H10.5191ZM17.6813 13.5022V11.7874C17.7221 11.8091 17.7607 11.8348 17.7966 11.8639C17.8321 11.8945 17.8643 11.9287 17.8927 11.9659C18.0357 12.1477 18.1125 12.3725 18.1105 12.6034C18.1342 12.7785 18.1062 12.9567 18.03 13.1162C17.9538 13.2758 17.8326 13.4099 17.6813 13.5022ZM12.5242 3.825H13.3378C13.4559 3.82668 13.5737 3.83734 13.6902 3.85687C13.9395 3.89941 14.1767 3.99488 14.3856 4.13679C14.5945 4.27869 14.7703 4.46371 14.9009 4.67925C14.9566 4.77772 15.0375 4.85972 15.1354 4.91685C15.2333 4.97397 15.3448 5.00418 15.4583 5.00437H15.817C16.1272 5.00255 16.4342 5.06707 16.7171 5.19355C17.0001 5.32003 17.2524 5.50554 17.457 5.7375C17.7227 6.04139 17.9233 6.39598 18.0467 6.7796C18.17 7.16322 18.2135 7.56784 18.1745 7.96875L17.9183 10.5187H17.8798H17.6813V10.2C17.6832 10.0472 17.63 9.89877 17.5312 9.78176C17.4324 9.66475 17.2947 9.58694 17.1431 9.5625C16.0998 9.33946 15.1525 8.7979 14.4333 8.01337C14.3723 7.94965 14.2986 7.89919 14.217 7.86518C14.1354 7.83116 14.0477 7.81433 13.9592 7.81575C13.7784 7.81558 13.6043 7.88397 13.4723 8.007L13.4147 8.058C12.4473 8.7975 8.62281 9.73462 8.00781 9.60075C7.91026 9.56087 7.80432 9.54557 7.69939 9.55621C7.59447 9.56686 7.49381 9.60311 7.40635 9.66177C7.31889 9.72042 7.24734 9.79965 7.19804 9.89243C7.14874 9.98522 7.12322 10.0887 7.12375 10.1936V10.4486H6.94438H6.87391H6.84188L6.63047 8.976C6.6625 6.171 9.29547 3.825 12.5242 3.825ZM6.63047 12.6416C6.63506 12.4108 6.71361 12.1874 6.85469 12.0041C6.88295 11.9728 6.91289 11.943 6.94438 11.9149L6.97641 11.883C7.01148 11.8545 7.05027 11.8309 7.09172 11.8129V13.5277C6.93715 13.44 6.81136 13.3097 6.72953 13.1525C6.64769 12.9953 6.61329 12.8179 6.63047 12.6416ZM8.41141 14.0569C8.41141 13.9549 8.41141 13.8465 8.41141 13.7445V10.8885C10.3131 10.6761 12.1639 10.1391 13.8823 9.30112C14.6056 9.95929 15.4682 10.4473 16.4064 10.7291V13.7445C16.4064 13.821 16.4064 13.8975 16.4064 13.974C16.4038 13.9888 16.4038 14.0039 16.4064 14.0186C16.295 14.666 16.026 15.2764 15.6228 15.7965C15.2197 16.3166 14.6947 16.7305 14.0938 17.0021C13.9313 17.0853 13.7645 17.1598 13.5941 17.2252L13.2417 17.3464C13.1408 17.3779 13.0381 17.4034 12.9342 17.4229H12.8702L12.5883 17.4675H12.4858H12.2039C11.6251 17.4623 11.0553 17.3249 10.5383 17.0659C10.4422 17.0212 10.3461 16.9766 10.2564 16.9256C9.99495 16.7659 9.75216 16.5777 9.5325 16.3646C8.9032 15.7466 8.50726 14.9315 8.41141 14.0569ZM19.8594 28.05H17.7902V25.3597H16.5089V28.05H7.19422V25.3597H5.91297V28.05H3.84375V23.1667C3.84375 21.0757 7.57859 20.1769 9.46203 19.9346V19.9729C9.47457 19.9997 9.48958 20.0253 9.50688 20.0494C9.54364 20.1149 9.58654 20.1768 9.635 20.2342L9.69266 20.3107C9.74322 20.3727 9.79894 20.4303 9.85922 20.4829L9.91047 20.5339C9.98838 20.6005 10.072 20.6602 10.1603 20.7124H10.218C10.2894 20.7548 10.3645 20.7911 10.4422 20.8207L10.5319 20.859L10.7497 20.9164H10.8458C10.9502 20.9261 11.0553 20.9261 11.1597 20.9164H13.0495C13.1476 20.9235 13.2461 20.9235 13.3442 20.9164C13.4343 20.9073 13.5227 20.8858 13.6069 20.8526C13.6893 20.8328 13.7689 20.8028 13.8439 20.7634C13.9515 20.7155 14.0544 20.6579 14.1514 20.5912C14.2128 20.5516 14.2707 20.5068 14.3244 20.4574C14.3976 20.3899 14.4661 20.3175 14.5294 20.2406C14.6014 20.1564 14.6637 20.0645 14.7152 19.9665C14.7118 19.9518 14.7118 19.9366 14.7152 19.9219C16.0669 20.1322 19.7825 20.9164 19.7825 23.1094L19.8594 28.05Z" fill="#5CA1C7"/>
<path d="M35.2344 0H3.20312C2.3536 0 1.53888 0.335825 0.938174 0.933597C0.337471 1.53137 0 2.34212 0 3.1875V28.6875C0 29.5329 0.337471 30.3436 0.938174 30.9414C1.53888 31.5392 2.3536 31.875 3.20312 31.875H35.2344C36.0839 31.875 36.8986 31.5392 37.4993 30.9414C38.1 30.3436 38.4375 29.5329 38.4375 28.6875V3.1875C38.4375 2.34212 38.1 1.53137 37.4993 0.933597C36.8986 0.335825 36.0839 0 35.2344 0ZM37.1562 28.6875C37.1562 29.1947 36.9538 29.6812 36.5933 30.0398C36.2329 30.3985 35.7441 30.6 35.2344 30.6H3.20312C2.69341 30.6 2.20458 30.3985 1.84415 30.0398C1.48373 29.6812 1.28125 29.1947 1.28125 28.6875V3.1875C1.28125 2.68027 1.48373 2.19382 1.84415 1.83516C2.20458 1.4765 2.69341 1.275 3.20312 1.275H35.2344C35.7441 1.275 36.2329 1.4765 36.5933 1.83516C36.9538 2.19382 37.1562 2.68027 37.1562 3.1875V28.6875Z" fill="#5CA1C7"/>
<path d="M4.16406 35.0625C3.8473 35.0625 3.53766 35.156 3.27428 35.3311C3.01091 35.5062 2.80563 35.7551 2.68441 36.0463C2.56319 36.3376 2.53148 36.658 2.59327 36.9672C2.65507 37.2763 2.80761 37.5603 3.03159 37.7832C3.25557 38.0061 3.54094 38.1579 3.85161 38.2194C4.16229 38.2809 4.48431 38.2493 4.77695 38.1287C5.0696 38.0081 5.31973 37.8038 5.49571 37.5417C5.6717 37.2796 5.76562 36.9715 5.76562 36.6562C5.76562 36.2336 5.59689 35.8282 5.29654 35.5293C4.99619 35.2304 4.58882 35.0625 4.16406 35.0625ZM4.16406 36.975C4.10071 36.975 4.03878 36.9563 3.98611 36.9213C3.93343 36.8863 3.89238 36.8365 3.86813 36.7782C3.84389 36.72 3.83755 36.6559 3.84991 36.5941C3.86226 36.5322 3.89277 36.4754 3.93757 36.4309C3.98236 36.3863 4.03944 36.3559 4.10157 36.3436C4.16371 36.3313 4.22811 36.3376 4.28664 36.3618C4.34517 36.3859 4.3952 36.4267 4.43039 36.4792C4.46559 36.5316 4.48438 36.5932 4.48438 36.6562C4.48438 36.7408 4.45063 36.8219 4.39056 36.8816C4.33049 36.9414 4.24902 36.975 4.16406 36.975Z" fill="#5CA1C7"/>
<path d="M8.64844 32.5125C8.20498 32.5125 7.77147 32.6434 7.40275 32.8885C7.03402 33.1337 6.74663 33.4822 6.57693 33.8899C6.40722 34.2976 6.36282 34.7462 6.44933 35.179C6.53585 35.6119 6.7494 36.0094 7.06297 36.3215C7.37655 36.6335 7.77607 36.846 8.21101 36.9321C8.64595 37.0182 9.09678 36.974 9.50649 36.8052C9.91619 36.6363 10.2664 36.3503 10.5127 35.9834C10.7591 35.6164 10.8906 35.185 10.8906 34.7437C10.8906 34.152 10.6544 33.5845 10.2339 33.166C9.81341 32.7476 9.2431 32.5125 8.64844 32.5125ZM8.64844 35.7C8.45838 35.7 8.2726 35.6439 8.11457 35.5388C7.95655 35.4338 7.83338 35.2844 7.76065 35.1097C7.68792 34.935 7.66889 34.7427 7.70597 34.5572C7.74304 34.3717 7.83456 34.2013 7.96895 34.0676C8.10334 33.9338 8.27456 33.8428 8.46097 33.8059C8.64737 33.769 8.84058 33.7879 9.01617 33.8603C9.19176 33.9327 9.34184 34.0552 9.44743 34.2125C9.55302 34.3697 9.60938 34.5546 9.60938 34.7437C9.60938 34.9974 9.50813 35.2406 9.32792 35.4199C9.14771 35.5993 8.9033 35.7 8.64844 35.7Z" fill="#5CA1C7"/>
<path d="M24.3438 2.55H20.5V3.825H24.3438V2.55Z" fill="#5CA1C7"/>
<path d="M35.2344 5.1H21.1406C20.9707 5.1 20.8078 5.16717 20.6876 5.28672C20.5675 5.40627 20.5 5.56842 20.5 5.7375V8.2875C20.5 8.45658 20.5675 8.61873 20.6876 8.73828C20.8078 8.85784 20.9707 8.925 21.1406 8.925H35.2344C35.4043 8.925 35.5672 8.85784 35.6874 8.73828C35.8075 8.61873 35.875 8.45658 35.875 8.2875V5.7375C35.875 5.56842 35.8075 5.40627 35.6874 5.28672C35.5672 5.16717 35.4043 5.1 35.2344 5.1ZM21.7812 6.375H29.4688V7.65H21.7812V6.375ZM34.5938 7.65H30.75V6.375H34.5938V7.65Z" fill="#5CA1C7"/>
<path d="M24.3438 10.2H20.5V11.475H24.3438V10.2Z" fill="#5CA1C7"/>
<path d="M35.2344 12.75H21.1406C20.9707 12.75 20.8078 12.8172 20.6876 12.9367C20.5675 13.0563 20.5 13.2184 20.5 13.3875V15.9375C20.5 16.1066 20.5675 16.2687 20.6876 16.3883C20.8078 16.5078 20.9707 16.575 21.1406 16.575H35.2344C35.4043 16.575 35.5672 16.5078 35.6874 16.3883C35.8075 16.2687 35.875 16.1066 35.875 15.9375V13.3875C35.875 13.2184 35.8075 13.0563 35.6874 12.9367C35.5672 12.8172 35.4043 12.75 35.2344 12.75ZM21.7812 15.3V14.025H24.3438V15.3H21.7812ZM34.5938 15.3H25.625V14.025H34.5938V15.3Z" fill="#5CA1C7"/>
<path d="M24.9844 19.7625H22.4219V21.0375H24.9844V19.7625Z" fill="#5CA1C7"/>
<path d="M35.875 19.7625H26.2656V21.0375H35.875V19.7625Z" fill="#5CA1C7"/>
<path d="M27.5469 22.3125H22.4219V23.5875H27.5469V22.3125Z" fill="#5CA1C7"/>
<path d="M35.875 22.3125H28.8281V23.5875H35.875V22.3125Z" fill="#5CA1C7"/>
<path d="M28.8281 24.8625H22.4219V26.1375H28.8281V24.8625Z" fill="#5CA1C7"/>
<path d="M35.875 24.8625H30.1094V26.1375H35.875V24.8625Z" fill="#5CA1C7"/>
<path d="M24.9844 27.4125H22.4219V28.6875H24.9844V27.4125Z" fill="#5CA1C7"/>
<path d="M35.875 27.4125H26.2656V28.6875H35.875V27.4125Z" fill="#5CA1C7"/>
</svg>
