<svg width="63" height="44" viewBox="0 0 63 44" fill="none" xmlns="http://www.w3.org/2000/svg">
<path d="M40.4115 2.07211C40.904 2.07212 41.3862 2.26933 41.8034 2.63624L60.4617 19.161C61.173 19.7939 61.6005 20.8533 61.6005 21.9953C61.6005 23.1419 61.1764 24.2014 60.4617 24.8297L41.8034 41.3636C41.3862 41.7351 40.904 41.9277 40.4115 41.9277C39.0128 41.9277 37.874 40.4005 37.874 38.5246L37.874 33.7227L4.77744 35.8187C4.7364 35.8233 4.69195 35.8233 4.65091 35.8233C3.72757 35.8233 2.89657 35.1858 2.42464 34.1171C1.95271 33.0485 1.93903 31.7597 2.38702 30.6728L5.97779 21.9403L2.40412 13.3317C1.95271 12.2447 1.96297 10.9559 2.4349 9.88271C2.90683 8.8095 3.73783 8.16741 4.6646 8.16741C4.70563 8.16741 4.74667 8.16741 4.79113 8.172L37.8775 10.268L37.8775 5.46604C37.8741 3.59479 39.0094 2.07211 40.4115 2.07211Z" fill="white"/>
<path d="M40.4115 40.1437C39.7857 40.1437 39.2043 39.4741 39.2043 38.5293L39.2043 31.8561L4.71243 34.0392C4.69191 34.0392 4.67139 34.0392 4.65087 34.0392C3.70359 34.0392 3.08803 32.6679 3.55312 31.5351L7.49613 21.9404L3.56338 12.4695C3.09487 11.3367 3.71043 9.96076 4.66113 9.96076C4.68165 9.96076 4.70217 9.96076 4.72269 9.96076L39.2043 12.1439L39.2043 5.4707C39.2043 4.52132 39.7857 3.8563 40.4115 3.8563C40.6338 3.8563 40.8629 3.93886 41.0715 4.1269L59.7264 20.6516C60.448 21.2891 60.448 22.7063 59.7264 23.3438L41.0715 39.8731C40.8595 40.0566 40.6338 40.1437 40.4115 40.1437ZM40.4115 43.7119C41.1673 43.7119 41.9025 43.4138 42.5386 42.8497L61.1935 26.325C62.281 25.3618 62.9273 23.7474 62.9273 22C62.9273 20.2526 62.2776 18.6382 61.1935 17.6751L42.5352 1.15034C41.8991 0.58621 41.1638 0.288099 40.4081 0.288099C38.2741 0.288099 36.5403 2.61339 36.5403 5.47529L36.5403 8.40598L4.84922 6.39715C4.78424 6.39256 4.72269 6.39256 4.66113 6.39256C3.27954 6.39256 1.98687 7.38781 1.28239 8.98845C0.571078 10.612 0.553977 12.5658 1.23793 14.2123L4.45252 21.9541L1.22083 29.8198C0.543718 31.4663 0.564233 33.4155 1.27897 35.0345C1.99028 36.6535 3.25218 37.6212 4.65087 37.6212C4.71243 37.6212 4.7774 37.6212 4.83896 37.6166L36.5403 35.6078L36.5403 38.5385C36.5403 41.3866 38.2775 43.7119 40.4115 43.7119Z" fill="white"/>
<path d="M40.4115 3.26006C40.7295 3.26006 41.0442 3.38848 41.3143 3.62697L59.9726 20.1563C60.4343 20.5645 60.7113 21.257 60.7113 22C60.7113 22.743 60.4343 23.431 59.9726 23.8437L41.3143 40.3684C41.0407 40.6115 40.7295 40.7353 40.4115 40.7353C39.5018 40.7353 38.7598 39.7447 38.7598 38.5247L38.7598 32.4753L4.73297 34.6309C4.70561 34.6309 4.67825 34.6355 4.65089 34.6355C4.04559 34.6355 3.49843 34.2135 3.18723 33.5118C2.87944 32.8101 2.86919 31.9616 3.16329 31.2507L6.99002 21.9404L3.17697 12.7585C2.87945 12.043 2.88629 11.1945 3.19749 10.4928C3.50527 9.78647 4.05585 9.36453 4.66115 9.36453C4.68851 9.36453 4.71587 9.36453 4.74323 9.36911L38.7563 11.5247L38.7563 5.47528C38.7598 4.2553 39.5018 3.26006 40.4115 3.26006Z" fill="#C896EB"/>
<path d="M40.4115 40.1437C39.7857 40.1437 39.2043 39.4741 39.2043 38.5293L39.2043 31.8561L4.71246 34.0392C4.69194 34.0392 4.67142 34.0392 4.6509 34.0392C3.70363 34.0392 3.08807 32.6679 3.55316 31.535L7.49616 21.9403L3.56342 12.4695C3.09491 11.3366 3.71047 9.96072 4.66116 9.96072C4.68168 9.96072 4.7022 9.96072 4.72272 9.96072L39.2043 12.1438L39.2043 5.47066C39.2043 4.52128 39.7857 3.85625 40.4115 3.85625C40.6338 3.85625 40.8629 3.93881 41.0715 4.12685L59.7264 20.6516C60.448 21.2891 60.448 22.7063 59.7264 23.3438L41.0715 39.8731C40.8595 40.0565 40.6338 40.1437 40.4115 40.1437ZM40.4115 41.3315C40.8185 41.3315 41.2152 41.171 41.5606 40.8637L60.2154 24.339C60.8037 23.8162 61.1525 22.9448 61.1525 22C61.1525 21.0552 60.8002 20.1792 60.2154 19.6609L41.5571 3.13619C41.2117 2.82891 40.8151 2.66838 40.4081 2.66838C39.2522 2.66838 38.3152 3.92964 38.3152 5.47524L38.3152 10.8963L4.76376 8.77285C4.72956 8.77285 4.69536 8.76826 4.65774 8.76826C3.89172 8.76826 3.20092 9.30028 2.81106 10.19C2.42121 11.0798 2.41095 12.1484 2.78713 13.0474L6.4839 21.9403L2.77687 30.9617C2.40753 31.8607 2.41779 32.9293 2.80764 33.8145C3.1975 34.6996 3.88829 35.2317 4.6509 35.2317C4.6851 35.2317 4.7193 35.2317 4.75692 35.2271L38.3152 33.099L38.3152 38.5247C38.3152 40.0749 39.2556 41.3315 40.4115 41.3315Z" fill="#965FD7"/>
<path opacity="0.5" d="M43.4073 12.8547C42.6857 12.5107 41.9231 13.2261 41.9231 14.2581L41.9231 17.9685C41.9231 18.7848 41.4306 19.4453 40.8219 19.4453L13.4021 19.4453C12.9199 19.4453 12.4548 19.6654 12.0821 20.0736L5.17072 27.5998L7.49617 21.9403L3.56343 12.4694C3.08466 11.3136 3.73784 9.90102 4.72273 9.96064L39.2044 12.1438L39.2044 5.47058C39.2044 4.1864 40.2713 3.41589 41.0716 4.12219L59.7264 20.6515L43.4073 12.8547Z" fill="#C896EB"/>
<path d="M56.1083 23.6099L56.3853 23.3622" stroke="white" stroke-width="4.7747" stroke-miterlimit="10" stroke-linecap="round" stroke-linejoin="round"/>
<path d="M45.3839 33.1082L54.2582 25.2471" stroke="white" stroke-width="4.7747" stroke-miterlimit="10" stroke-linecap="round" stroke-linejoin="round"/>
</svg>
