<svg width="86" height="106" viewBox="0 0 86 106" fill="none" xmlns="http://www.w3.org/2000/svg">
<path fill-rule="evenodd" clip-rule="evenodd" d="M85.8 100.245C84.6 100.345 83.4 100.445 82.2 100.745L70.9 72.9452V72.4452L70.7 70.1452C70.7 68.4452 71.4 64.3452 71.5 61.1452C71.5 61.0452 71.5 60.9452 71.5 60.8452V60.7452V60.5452V60.3452V60.1452V59.9452V59.7452V59.5452V59.3452V59.1452V58.9452C71.5 58.7452 71.6 58.6452 71.6 58.4452V58.3452V58.1452V58.0452C71.7 58.1452 71.7 58.1452 71.8 58.2452C73.7 58.3452 74.9 56.8452 75.3 55.1452C75.6 54.1452 75.5 53.1452 75.3 52.3452C75.2 51.9452 75.3 50.5452 75.4 50.1452C75.6 49.5452 75.6 49.1452 75.6 48.3452C75.5 48.3452 75.3 48.3452 75.2 48.3452C75.8 45.7452 76.4 43.0452 76.6 40.2452C76.7 39.1452 76.7 38.5452 76.5 37.6452C76.5 37.5452 76.4 37.3452 76.4 37.2452C75.7 34.6452 75 31.3452 74.1 28.1452C74.4 27.6452 74.6 27.1452 74.6 26.7452L74.5 26.6452C72.1 22.8452 73.2 19.9452 70.5 17.1452C69.9 16.5452 69.1 16.2452 68.1 15.6452C68 14.0452 67 14.6452 65.8 13.0452C65.6 12.7452 64.3 12.2452 63.8 12.8452C63.7 12.6452 63.7 12.4452 63.6 12.1452C63.9 11.6452 64.2 11.0452 64.5 10.1452C65.4 10.0452 66.1 9.84519 66.1 9.84519C66.2 9.64519 66.3 9.54519 66.2 9.34519C66.2 8.94519 65.9 8.64519 65.3 8.34519C65.3 6.04519 64.6 3.24519 62.7 2.44519C60.9 1.44519 58.6 1.64519 56.8 3.14519C56 3.84519 55.3 4.94519 55 6.54519C55 6.64519 54.7 7.74519 54.6 8.14519C53.8 8.54519 53.7 9.04519 54.6 9.44519C54.9 9.64519 55.4 9.74519 56 9.84519C56.4 10.8452 56.9 11.8452 57.4 12.6452C57.2 12.7452 56.9 12.9452 56.6 13.1452C56.6 13.1452 56.5 13.2452 56.4 13.2452C54.5 13.8452 54.5 14.4452 54 15.7452C53.5 15.8452 53.1 15.4452 53 16.1452C52.8 16.2452 52.7 16.3452 52.5 16.3452C51.5 16.7452 50.8 17.4452 50 18.9452C49.7 19.6452 49.3 20.4452 48.9 21.2452C48.3 22.6452 47.1 25.8452 46.2 28.0452C46.1 28.2452 46 28.3452 46 28.5452C46 28.2452 46 28.0452 46 27.7452C46 27.4452 46 27.2452 46 27.0452C46 26.8452 46 26.6452 46 26.4452L46.1 26.3452C46.1 26.1452 46.1 25.9452 46 25.7452C45.9 24.8452 45.6 23.5452 45.3 22.5452C44.5 19.7452 43.3 15.5452 41.7 14.9452C40.5 14.5452 39.3 13.8452 38.6 13.6452L38.8 13.5452C38.7 13.4452 37.5 12.8452 37.3 12.7452C36.7 12.0452 36.1 11.4452 35.8 11.4452C35.7 11.4452 35.4 11.5452 35.1 11.7452C35.7 10.9452 36.2 9.94519 36.7 8.94519C38.7 8.64519 39.3 8.14519 38.7 7.64519C38.7 7.54519 38.5 7.34519 38.3 7.24519L39 6.74519C38.8 6.64519 38.6 6.44519 38.4 6.34519C38.3 5.94519 38.3 5.64519 38.2 5.24519C38 3.54519 37.4 2.34519 36.6 1.54519C35 -0.0548074 32.6 -0.454807 30.8 0.545193C28.8 1.34519 27.9 4.34519 27.8 6.84519C27.6 6.94519 27.5 7.04519 27.4 7.24519C27 7.54519 26.8 7.84519 27 8.24519C27.1 8.34519 27.9 8.64519 28.9 8.74519C29 9.14519 29.2 9.44519 29.3 9.74519C29.2 10.2452 29.1 11.1452 29 11.7452C28.8 11.8452 28.3 12.1452 27.5 12.9452C27.4 13.0452 26.1 13.5452 26 13.7452L26.1 13.8452C25.9 13.9452 25.6 14.0452 25.4 14.1452C25.2 14.2452 25 14.3452 24.8 14.4452C24.3 14.6452 23.2 15.2452 22.5 15.8452C22.4 15.9452 22.3 15.9452 22.2 16.0452L22 16.1452C21.9 16.3452 21.8 16.4452 21.7 16.6452C20.7 18.2452 18.9 22.1452 18.6 22.8452C18.4 23.5452 16.7 27.1452 16.2 27.2452C16.3 27.4452 16.4 27.5452 16.5 27.7452V27.6452C16.3 28.0452 16.1 28.3452 15.9 28.7452C15.7 28.9452 15.6 29.2452 15.4 29.5452C14.7 30.7452 13.6 31.9452 13 33.5452C12.9 33.6452 12.9 33.8452 12.8 33.9452C11.8 36.0452 13.2 38.1452 14 39.9452C14.6 41.7452 16.9 44.6452 18.6 46.9452C18.7 47.0452 18.8 47.1452 18.9 47.3452L18.8 47.4452C19 47.7452 19.1 47.8452 19.1 47.8452C19.2 47.9452 19.3 48.2452 19.4 48.4452V48.5452V48.6452C19.4 48.7452 19.5 48.8452 19.5 48.9452C20.5 50.3452 21.3 51.8452 22.4 52.9452C22.4 53.7452 22.3 54.6452 22.3 55.6452L3.8 101.245C2.7 101.045 1.5 100.945 0.4 100.845C0.3 101.545 0.1 102.145 0 102.845C3.2 103.945 5.6 104.345 7.6 104.245C7.7 103.645 7.8 103.045 7.9 102.445C7 102.045 6.1 101.745 5.2 101.545L22.5 59.0452C22.5 59.2452 22.5 59.5452 22.5 59.7452C22.5 59.8452 22.4 59.9452 22.3 60.0452C22.1 60.2452 22.8 62.6452 22.8 63.8452C22.8 64.5452 22.9 65.0452 23.1 65.4452C23.1 65.1452 23 64.8452 23 64.4452C22.9 63.5452 22.8 62.7452 22.7 61.8452C22.7 62.1452 22.8 62.4452 22.8 62.8452C22.9 63.9452 23 64.7452 23.1 65.4452V65.3452C23.2 66.0452 23.2 66.5452 23.3 67.0452C23.5 68.9452 23.3 68.9452 23.4 70.8452C23.4 71.0452 23.4 71.2452 23.4 71.4452C23.1 71.3452 22.9 71.1452 22.9 71.0452C22.9 72.3452 22.3 72.3452 22.3 74.8452C22.3 77.4452 23.8 77.9452 23.7 80.7452C23.7 81.2452 24.1 81.4452 24.6 81.6452C24.7 82.5452 24.7 83.4452 24.8 84.4452V84.5452C24.8 84.6452 24.8 84.8452 24.8 84.9452V85.0452C24.8 85.1452 24.8 85.3452 24.8 85.4452C24.8 85.6452 24.8 85.9452 24.8 86.1452V86.3452C24.8 86.4452 24.8 86.5452 24.8 86.6452V86.8452C24.8 86.9452 24.8 87.0452 24.8 87.1452V87.3452V87.6452C24.8 87.7452 24.8 87.8452 24.8 88.0452C24.8 88.1452 24.8 88.2452 24.8 88.3452C24.8 88.4452 24.8 88.5452 24.8 88.6452V88.8452C24.8 88.9452 24.8 89.0452 24.8 89.1452V89.3452C24.8 89.4452 24.8 89.5452 24.8 89.6452V89.8452C24.8 89.9452 24.8 90.1452 24.8 90.2452V90.3452C24.8 90.4452 24.8 90.5452 24.8 90.6452V90.7452V91.0452V91.1452V91.3452V91.4452C24.8 91.5452 24.8 91.6452 24.8 91.7452C24.8 91.8452 24.8 91.9452 24.8 92.0452V92.1452V92.3452V92.4452L24.7 92.5452V92.6452L24.6 92.7452C24.3 93.1452 24.1 94.4452 23.5 95.0452C23.4 95.1452 23.2 95.3452 23.1 95.4452L23 95.8452C22.9 95.9452 22.7 96.1452 22.6 96.2452C21.5 97.5452 20.6 99.0452 21.1 100.245C21.2 100.345 21.2 100.445 21.3 100.545C22.2 101.845 27.7 101.945 28.9 97.8452C28.9 97.6452 29 97.5452 29.1 97.4452L29.2 97.3452L29.4 97.1452C29.5 97.0452 29.4 97.5452 29.6 97.4452C30.1 97.0452 31.2 96.7452 31.7 96.0452C32 95.6452 31.9 94.8452 32 94.4452V94.2452V94.0452C32 93.9452 32 93.8452 32 93.7452V93.5452C32 93.4452 32 93.2452 31.9 93.1452V92.9452C31.8 92.7452 31.8 92.4452 31.7 92.2452C31.2 91.0452 31 90.7452 31 89.9452C31 87.3452 31.3 84.7452 31.5 81.6452C31.6 81.6452 31.7 81.5452 31.7 81.5452C32.1 81.5452 31.9 79.6452 31.7 79.4452C31.7 77.7452 32 78.3452 31.7 76.5452C31.5 75.4452 31.7 72.7452 31.9 71.6452C31.9 71.5452 31.6 71.7452 31 71.9452C31.3 69.8452 31.8 67.0452 32.1 64.6452C32.2 64.7452 32.2 64.8452 32.3 64.9452C32.4 64.4452 32.4 63.5452 32.4 62.5452C32.5 61.4452 32.7 59.9452 33 58.7452C33.2 58.6452 33.2 58.4452 33.1 58.2452C33.5 56.8452 34 56.1452 34.7 57.4452C34.6 57.5452 34.7 57.7452 34.9 57.9452C35.4 59.4452 36.1 62.2452 36.3 63.1452C37 65.5452 37.2 68.5452 37.3 71.6452C37.3 72.0452 37.3 72.4452 37.4 72.8452C37.2 73.0452 37 73.0452 36.9 73.0452C37.1 74.1452 37.3 76.5452 37.1 77.7452C36.8 79.6452 37.1 79.0452 37.1 80.8452C36.9 81.0452 36.7 82.9452 37.1 83.0452L37.2 83.1452C37.3 86.7452 37.5 89.9452 37.5 92.7452C37.5 93.0452 37.5 93.2452 37.5 93.5452C37.4 93.6452 37.4 93.8452 37.2 94.2452C37.1 94.6452 37 94.9452 37 95.2452C36.9 95.5452 36.8 95.8452 36.8 96.1452V96.2452C36.7 96.7452 36.7 97.1452 36.8 97.4452C36.8 97.6452 36.8 97.7452 36.9 97.9452C37.3 98.8452 38.3 99.4452 38.8 100.045C38.9 100.245 38.9 99.6452 39 99.8452C39.1 100.145 39.2 100.445 39.3 100.745C39.9 105.345 45.2 106.645 46.2 105.645C46.4 105.545 46.6 105.445 46.7 105.245C47.6 103.945 47.2 102.145 46.3 100.645V100.545C46.2 100.345 46.1 100.145 45.9 99.9452L45.8 99.8452C45.7 99.6452 45.5 99.4452 45.4 99.2452C44.8 98.5452 43.9 96.0452 43.7 95.5452C43.7 95.4452 43.6 95.3452 43.6 95.2452V95.1452C43.6 95.0452 43.6 94.9452 43.6 94.8452C43.6 94.7452 43.6 94.5452 43.6 94.3452V94.2452C43.6 94.0452 43.6 93.9452 43.6 93.7452C43.6 93.5452 43.6 93.3452 43.6 93.1452V92.9452C43.6 92.7452 43.6 92.5452 43.6 92.3452V92.2452C43.6 92.0452 43.6 91.7452 43.6 91.5452V91.3452C43.6 91.1452 43.6 90.9452 43.6 90.7452V90.6452C43.6 90.3452 43.6 90.1452 43.7 89.8452V89.6452C43.7 89.4452 43.7 89.2452 43.8 88.9452V88.7452C43.8 88.4452 43.8 88.2452 43.9 87.9452C43.9 87.8452 43.9 87.7452 43.9 87.6452C43.9 87.5452 43.9 87.3452 43.9 87.2452C44 86.5452 44 85.8452 44.1 85.1452C44.1 84.8452 44.1 84.5452 44.2 84.3452V84.2452C44.2 84.0452 44.2 83.8452 44.2 83.6452C44.6 83.4452 45 83.2452 45 82.7452C44.9 80.6452 45.5 79.1452 45.8 77.6452C46 76.4452 45.9 75.0452 45.4 73.1452L45.5 73.0452L45.6 70.8452C45.6 70.7452 45.6 70.6452 45.6 70.5452V70.3452V70.1452V69.9452V69.7452V69.4452V69.2452C45.6 69.1452 45.6 69.0452 45.6 68.9452V68.7452C45.6 68.6452 45.6 68.5452 45.6 68.4452V68.2452C45.6 68.1452 45.6 67.9452 45.6 67.8452V67.7452C45.6 67.4452 45.7 67.2452 45.7 66.9452V66.8452C46 65.7452 46.1 64.3452 46 62.8452C46 62.7452 46 62.5452 46 62.4452V62.2452C46 62.0452 46 61.8452 46 61.6452C46 59.7452 46.1 55.3452 45.7 53.6452V53.5452C45.6 53.1452 45.5 52.1452 45.3 50.9452C45.6 51.1452 46.3 51.3452 47 50.4452C47.8 49.4452 45.4 46.6452 45.5 45.9452C45.6 45.3452 44.9 44.8452 44.3 44.4452C43.8 41.8452 43.1 37.9452 43.6 34.8452C44 34.5452 44.4 34.3452 44.8 34.0452C44.6 34.7452 44.4 35.3452 44.3 35.5452C44.1 36.2452 44 37.3452 44.1 38.1452C44.2 38.7452 44.5 38.9452 44.7 39.4452C45 40.1452 49 42.4452 51.3 43.7452C51.3 43.8452 51.3 43.9452 51.3 44.0452C51.1 44.7452 51 45.5452 50.9 46.2452C50.9 46.5452 50.8 46.8452 50.8 47.1452C50.7 47.9452 50.7 48.8452 51.1 49.5452C50.7 51.4452 50.4 52.1452 51.3 52.3452C50.8 54.8452 50.5 58.3452 50.8 63.5452C50.9 65.0452 51 67.0452 51.1 67.7452C51.3 70.0452 50.8 69.2452 50.7 71.8452C50.7 72.2452 50.8 74.1452 50.9 75.5452C50.6 78.1452 51.6 89.5452 51 91.7452L50.9 91.9452C50.7 92.4452 49.6 94.7452 49 95.4452C48.8 95.6452 48.7 95.8452 48.5 95.9452L48.4 96.0452C48.3 96.2452 48.1 96.4452 48 96.5452C47 98.0452 46.5 99.8452 47.2 101.045C47.3 101.245 47.4 101.345 47.6 101.445C48.6 102.445 54 101.445 54.9 96.9452C55 96.6452 55.1 96.3452 55.3 96.0452C55.4 95.8452 55.4 96.4452 55.5 96.2452C56 95.6452 57 95.1452 57.5 94.2452C57.6 94.1452 57.6 93.9452 57.6 93.7452C57.7 93.4452 57.7 93.0452 57.7 92.5452V92.4452C57.7 92.1452 57.6 91.8452 57.5 91.5452C57.5 91.2452 57.4 90.9452 57.3 90.5452C57.2 90.1452 57.1 89.9452 57.1 89.8452C57.1 89.6452 57.1 89.4452 57.1 89.1452C57.3 86.5452 57.7 82.6452 58 78.8452C58.2 77.3452 58.3 75.9452 58.5 74.5452C58.3 74.7452 58.1 74.3452 58 74.3452C58 74.0452 58.1 73.7452 58.1 73.3452C58.1 73.1452 58.1 73.0452 58.2 72.8452C58.3 72.4452 58.3 72.1452 58.4 71.7452L58.5 71.3452C58.6 70.8452 58.7 70.2452 58.8 69.7452C58.9 69.3452 58.9 68.9452 59 68.6452C59 68.4452 59.1 68.3452 59.1 68.1452C59.2 67.8452 59.2 67.5452 59.3 67.1452C59.3 66.9452 59.4 66.8452 59.4 66.6452C59.4 66.3452 59.5 66.0452 59.5 65.7452C59.5 65.6452 59.5 65.4452 59.6 65.2452C59.6 64.7452 59.7 64.3452 59.7 63.9452V63.8452V63.7452V63.6452V63.4452V63.3452V63.1452V63.0452C59.7 62.9452 59.7 62.8452 59.7 62.7452V62.6452C59.7 62.5452 59.7 62.4452 59.7 62.3452V62.2452C59.7 62.1452 59.7 62.0452 59.7 61.8452V61.7452C59.7 61.6452 59.7 61.4452 59.8 61.3452V61.2452C59.8 61.1452 59.8 60.9452 59.9 60.8452V60.7452C59.9 60.5452 59.9 60.4452 60 60.2452C60 60.1452 60 59.9452 60.1 59.8452V59.7452C60.2 59.4452 60.2 59.1452 60.3 58.8452V58.7452C60.4 58.4452 60.4 58.2452 60.5 58.0452C60.5 57.9452 60.6 57.8452 60.6 57.7452C60.7 57.4452 60.9 57.3452 61 57.2452C61.1 57.2452 61.2 57.2452 61.3 57.3452L61.4 57.4452V57.5452C61.4 57.6452 61.5 57.7452 61.6 57.8452C62.1 58.8452 62.5 63.0452 62.7 63.9452C62.8 64.2452 62.8 64.5452 62.9 64.8452C62.9 64.9452 62.9 65.0452 63 65.1452C63 65.3452 63.1 65.5452 63.1 65.8452C63.4 67.3452 63.5 69.0452 63.5 71.0452C63.5 72.1452 63.6 73.0452 63.7 74.0452C63.5 74.0452 63.4 74.0452 63.2 73.9452L63.4 75.7452C63.5 79.0452 63.8 81.7452 64.1 84.2452C64.2 85.0452 64.2 85.9452 64.3 86.7452C64.3 87.5452 64.2 87.8452 63.9 88.8452C63.8 89.1452 63.8 89.3452 63.7 89.5452V89.7452C63.7 89.8452 63.6 90.0452 63.6 90.1452V90.3452C63.6 90.4452 63.6 90.5452 63.6 90.6452V90.8452V91.0452C63.7 91.4452 63.6 92.2452 63.9 92.5452C64.4 93.2452 65.4 93.4452 65.9 93.8452C66 93.9452 66 93.4452 66.1 93.5452L66.2 93.7452L66.3 93.8452C66.4 93.9452 66.4 94.1452 66.5 94.2452C67.7 98.2452 73 97.9452 73.9 96.6452C74 96.5452 74 96.4452 74.1 96.3452C74.5 95.1452 73.6 93.7452 72.6 92.5452C72.3 92.2452 72 91.8452 71.7 91.5452C71.1 90.9452 70.9 89.6452 70.6 89.3452L70.5 89.2452V89.1452L70.4 89.0452V88.9452V88.7452V88.6452C70.4 88.5452 70.4 88.4452 70.3 88.3452C70.3 88.2452 70.3 88.1452 70.3 88.0452V87.9452V87.6452V87.5452C70.3 87.4452 70.3 87.3452 70.3 87.2452V87.1452C70.3 86.8452 70.3 86.6452 70.3 86.3452V86.2452C70.3 86.1452 70.3 86.0452 70.3 85.8452V85.7452C70.3 85.6452 70.3 85.5452 70.3 85.3452V85.2452C70.3 84.9452 70.3 84.5452 70.3 84.2452V84.1452C70.3 83.9452 70.3 83.8452 70.3 83.6452V83.5452C70.3 83.4452 70.3 83.2452 70.3 83.0452V82.9452C70.3 82.5452 70.3 82.2452 70.3 81.8452C70.3 81.6452 70.3 81.4452 70.3 81.3452V81.2452C70.3 81.1452 70.3 80.9452 70.3 80.8452V80.7452C70.3 80.3452 70.3 80.0452 70.3 79.6452V79.5452C70.3 79.4452 70.3 79.3452 70.3 79.1452C70.3 78.4452 70.4 77.8452 70.4 77.2452C70.4 76.6452 70.4 76.1452 70.5 75.7452L80.5 100.345C79.5 100.645 78.6 100.945 77.6 101.445C77.7 102.045 77.8 102.745 77.9 103.345C80 103.345 82.6 102.845 85.9 101.545C86 101.745 85.9 100.945 85.8 100.245ZM51.5 38.0452C51.5 38.5452 51.7 38.6452 51.8 38.8452C51.8 39.0452 52 39.0452 51.7 39.5452C51.1 38.8452 50.6 38.1452 49.4 37.2452C49 36.9452 49.7 34.9452 50.5 33.4452C50.6 33.4452 50.7 33.4452 50.8 33.4452C51 32.9452 51.3 32.4452 51.5 32.2452C51.7 35.2452 51.2 34.9452 51.5 38.0452ZM73 38.1452C72.8 39.2452 72.9 42.2452 72.9 45.1452C72.8 44.7452 72.8 44.4452 72.7 44.3452C72.3 43.0452 72.3 42.3452 72.3 41.8452C72.3 41.6452 72.3 41.4452 72.3 41.2452C72.3 40.8452 72.2 40.5452 71.6 39.9452C71.4 39.4452 71.2 38.8452 71.5 37.2452C71.6 36.6452 71.6 36.2452 71.6 35.9452C71.6 35.0452 71.3 35.0452 71.3 34.3452C71.3 34.1452 71.3 33.9452 71.4 33.7452C71.4 33.4452 71.5 33.1452 71.6 32.7452C71.6 32.7452 71.5 32.5452 71.4 32.1452C72.4 34.8452 73 35.9452 73 38.1452ZM72.9 54.2452C72.9 54.4452 72.8 54.7452 72.8 54.8452C72.7 55.0452 72.6 55.2452 72.5 55.4452V55.3452C72.6 55.0452 72.8 54.6452 72.9 54.2452C73 53.9452 73 53.6452 73 53.5452C73.1 53.1452 73 53.6452 72.9 54.2452ZM21.9 30.5452C21.9 30.6452 21.9 30.8452 22 31.0452V31.1452V31.2452C22 31.3452 22 31.4452 22 31.5452V31.6452C22 31.7452 22 31.8452 22 32.0452V32.1452C22 32.3452 22 32.4452 22 32.6452V32.7452C22 32.9452 22 33.1452 22 33.3452C22 33.7452 22.1 34.2452 22.1 34.7452C22.2 36.9452 22.1 37.5452 22 39.2452V39.3452C22 39.4452 22 39.5452 22 39.6452V39.8452C22 39.9452 22 40.0452 22 40.1452V40.3452C22 40.5452 22 40.6452 22 40.8452C22 41.2452 22 41.4452 22 41.5452C22 41.7452 22 41.8452 21.9 41.8452C21.9 43.0452 21.7 44.2452 21.7 45.4452V45.3452V45.2452V45.0452V44.9452C21.7 44.8452 21.7 44.7452 21.6 44.6452V45.0452C20.9 43.3452 20.1 41.3452 19.5 39.5452C18.9 37.6452 17.7 35.9452 17.8 35.9452C17.9 34.9452 19 34.2452 20 32.8452V32.7452C20.1 32.6452 20.1 32.5452 20.2 32.4452L20.3 32.3452L20.5 32.1452L20.7 31.9452C20.8 32.0452 20.9 32.0452 21 32.1452C21.5 31.6452 21.4 31.1452 21.9 30.5452Z" fill="#053664"/>
</svg>
