<svg width="55" height="23" viewBox="0 0 55 23" fill="none" xmlns="http://www.w3.org/2000/svg">
<path d="M39.6742 2.52524L38.6625 5.52838H40.6962L39.6742 2.52524Z" fill="white"/>
<path d="M4.71265 2.52524L3.71242 5.52838H5.72091L4.71265 2.52524Z" fill="white"/>
<path d="M27.9239 2.95215C27.7494 2.83137 27.4807 2.81592 27.2257 2.81592H25.4113V4.48861H27.2016C27.4852 4.48861 27.7241 4.48299 27.9297 4.33412C28.1191 4.21193 28.2328 3.94649 28.2328 3.61785C28.2328 3.29483 28.1145 3.06169 27.9239 2.95215Z" fill="white"/>
<path d="M34.2345 15.9105C34.0553 15.7799 33.7912 15.7743 33.5317 15.7743H31.7173V17.4665H33.5076C33.7947 17.4665 34.0392 17.4552 34.2379 17.3134C34.4285 17.1702 34.5422 16.9132 34.5422 16.5888C34.5388 16.2644 34.4251 16.0313 34.2345 15.9105Z" fill="white"/>
<path d="M27.0638 15.7738H25.1438V17.6944H27.0454C27.6116 17.6944 27.9641 17.3516 27.9641 16.7011C27.963 16.0379 27.5966 15.7738 27.0638 15.7738Z" fill="white"/>
<path d="M54.2652 16.905C54.2548 16.8924 54.2434 16.8783 54.233 16.8685C54.512 16.6466 54.698 16.2618 54.698 15.8237V14.2185C54.698 13.5289 54.2422 12.9728 53.6796 12.9728H50.7288C49.8091 12.9728 49.1156 13.3042 48.6104 13.8042C48.4692 13.3211 48.1063 12.9728 47.662 12.9728H44.7112C43.8994 12.9728 43.2599 13.2185 42.773 13.623C42.5962 13.2368 42.2782 12.9728 41.897 12.9728H36.9828C36.5866 12.9728 36.2525 13.2551 36.0837 13.6581C36.0137 13.5977 35.962 13.5275 35.8886 13.4741C35.1755 13.0079 34.4177 12.9728 33.637 12.9728H30.2349C29.8388 12.9728 29.5035 13.2579 29.3359 13.6637C28.8181 13.2523 28.0936 12.9728 27.0636 12.9728H22.3584C22.0748 12.9728 21.805 13.1132 21.6109 13.3688L20.4961 14.8392L19.426 13.3857C19.2342 13.1174 18.9598 12.9714 18.6693 12.9714H12.747C12.1844 12.9714 11.7297 13.5289 11.7297 14.2171V21.7543C11.7297 22.4439 12.1855 23 12.747 23H18.5809C18.8645 23 19.1343 22.8554 19.3272 22.5998L20.4513 21.1125L21.5179 22.5801C21.7108 22.8469 21.9887 22.9972 22.2792 22.9972H25.1416C25.7054 22.9972 26.16 22.4397 26.16 21.7543V20.4679H26.9787C27.9742 20.4679 28.6941 20.2179 29.2176 19.8374V21.7543C29.2176 22.4411 29.6735 22.9972 30.2361 22.9972H31.7161C32.2798 22.9972 32.7345 22.4397 32.7345 21.7543V20.2432H33.2891C33.4246 20.2432 33.5199 20.2488 33.5888 20.2545C33.5933 20.3893 33.5933 20.5508 33.591 20.6575V21.7543C33.591 22.4411 34.0492 22.9972 34.6095 22.9972H36.0872C36.2525 22.9972 36.4018 22.9424 36.5373 22.8568C36.6751 22.9396 36.8232 22.9972 36.9862 22.9972H41.9016C42.0612 22.9972 42.2093 22.9424 42.3436 22.8624C42.478 22.9424 42.6226 22.9972 42.7857 22.9972H45.6538C46.5666 22.9972 47.3106 22.7233 47.8675 22.2402C48.0202 22.684 48.3807 22.9972 48.8021 22.9972H51.6703C53.7565 22.9972 55 21.642 55 19.3739C55 18.3234 54.7681 17.5412 54.2652 16.905ZM26.9798 19.2222H25.1427V21.7515H22.2803L20.4662 19.2573L18.5809 21.7515H12.747V14.2128H18.6693L20.4834 16.6845L22.3573 14.2128H27.0625C28.2302 14.2128 29.5449 14.6131 29.5449 16.7C29.5449 18.7911 28.2681 19.2265 26.9798 19.2222ZM35.1239 18.2518C35.45 18.3979 35.7175 18.6633 35.8415 18.8852C36.0516 19.2531 36.0792 19.5958 36.086 20.2601V21.7543H34.6083V20.8106C34.6083 20.3584 34.6439 19.6857 34.3684 19.3346C34.1571 19.0664 33.8299 19.0032 33.2902 19.0032H31.7172V21.7543H30.2372V14.2171H33.6393C34.3833 14.2171 34.9252 14.255 35.4109 14.571C35.8748 14.9136 36.1676 15.3855 36.1676 16.2436C36.1676 17.4485 35.5097 18.0622 35.1239 18.2518ZM41.8993 15.7745H38.4501V17.1466H41.8143V18.6858H38.4501V20.1828L41.8993 20.1913V21.7543H36.9851V14.2171H41.8993V15.7745ZM45.655 21.7459H42.7868V20.1267H45.6423C45.9202 20.1267 46.1188 20.0845 46.2428 19.9399C46.3439 19.8247 46.4151 19.652 46.4151 19.4469C46.4151 19.2279 46.3393 19.0551 46.236 18.9498C46.1211 18.8346 45.9696 18.7827 45.7112 18.7827C44.3357 18.7279 42.61 18.8346 42.61 16.4514C42.61 15.3546 43.1703 14.2072 44.7158 14.2072H47.6666V15.811H44.9649C44.6951 15.811 44.5217 15.8251 44.3747 15.9486C44.2129 16.0722 44.152 16.2534 44.152 16.4921C44.152 16.7772 44.2886 16.9668 44.4735 17.0539C44.6308 17.1199 44.7961 17.1396 45.0476 17.1396L45.8387 17.1676C46.6367 17.1943 47.1866 17.3629 47.5185 17.7743C47.8078 18.1381 47.9605 18.5987 47.9605 19.3725C47.9605 20.9974 47.135 21.7543 45.655 21.7459ZM51.6726 21.7459H48.8044V20.1267H51.6611C51.939 20.1267 52.1376 20.0845 52.2604 19.9399C52.3615 19.8247 52.4327 19.652 52.4327 19.4469C52.4327 19.2279 52.3569 19.0551 52.2536 18.9498C52.1399 18.8346 51.9883 18.7827 51.7288 18.7827C50.3522 18.7279 48.6276 18.8346 48.6276 16.4514C48.6276 15.3546 49.1879 14.2072 50.7334 14.2072H53.6842V15.811H50.9837C50.7127 15.811 50.5382 15.8251 50.3924 15.9486C50.2305 16.0722 50.1708 16.2534 50.1708 16.4921C50.1708 16.7772 50.3085 16.9668 50.4911 17.0539C50.6495 17.1199 50.8137 17.1396 51.0652 17.1396L51.8563 17.1676C52.6554 17.1943 53.2065 17.3629 53.5384 17.7743C53.8254 18.1381 53.9804 18.5987 53.9804 19.3725C53.9804 20.9974 53.1526 21.7543 51.6726 21.7459Z" fill="white"/>
<path d="M49.6425 0H48.135C47.5712 0 47.1166 0.557497 47.1166 1.24419V2.02215L46.4173 0.602433C46.2313 0.2303 45.9018 0.0014035 45.547 0.0014035H43.3023C42.7397 0.0014035 42.285 0.5589 42.285 1.24559V2.30301L41.7442 0.755497C41.5846 0.299109 41.2172 0.0014035 40.8108 0.0014035H38.604C38.3801 0.0014035 38.1665 0.0912777 37.9966 0.248556C37.8278 0.092682 37.6154 0.0014035 37.3869 0.0014035H35.9643C34.7541 0.0014035 33.8585 0.359495 33.1995 1.05882C33.1237 0.464815 32.7207 0.0014035 32.2132 0.0014035H30.7091C30.3072 0.0014035 29.9708 0.292087 29.8032 0.702135C29.74 0.645964 29.6918 0.578561 29.6206 0.528007C28.9294 0.0393202 28.2026 0.0014035 27.3265 0.0014035H23.9394C23.7488 0.0014035 23.5823 0.0828514 23.4285 0.193789C23.2781 0.0828514 23.1093 0.0014035 22.9187 0.0014035H17.9999C17.7921 0.0014035 17.6118 0.0954903 17.4511 0.224683C17.2892 0.0954903 17.1089 0.0014035 16.9022 0.0014035H14.4474C14.041 0.0014035 13.6724 0.300515 13.5128 0.761117L12.6379 3.28319L11.6746 0.724604C11.5069 0.283663 11.1453 0.0014035 10.7503 0.0014035H8.346C7.7834 0.0014035 7.32872 0.5589 7.32872 1.24559V2.32828L6.77644 0.75269C6.6157 0.296302 6.24828 0 5.84068 0H3.65454C3.24694 0 2.87952 0.297705 2.71878 0.754094L0.0825593 8.29082C-0.0529258 8.677 -0.0196286 9.11513 0.167525 9.4662C0.355826 9.81446 0.67502 10.0251 1.01718 10.0251H2.61774C3.02649 10.0251 3.39735 9.72178 3.55465 9.25836L3.86581 8.34278H5.572L5.87857 9.25275C6.03472 9.71897 6.40673 10.0237 6.82007 10.0237H9.81567C10.3783 10.0237 10.833 9.4662 10.833 8.77951V8.75002L11.0259 9.28505C11.1889 9.73442 11.554 10.0251 11.9559 10.0251L13.2499 10.0279C13.654 10.0279 14.0169 9.73722 14.1799 9.28645L14.3751 8.75283V8.78372C14.3751 9.47041 14.8298 10.0265 15.3924 10.0265H16.9022C17.1089 10.0265 17.2892 9.93101 17.4511 9.80322C17.6118 9.93101 17.7921 10.0265 17.9999 10.0265H22.9187C23.1093 10.0265 23.2781 9.94505 23.4285 9.83412C23.5812 9.94505 23.7488 10.0265 23.9394 10.0265H25.4137C25.9763 10.0265 26.431 9.46901 26.431 8.78232V7.28536H26.9936C27.121 7.28536 27.2117 7.28958 27.2795 7.29519C27.2864 7.42298 27.2841 7.57464 27.2841 7.67575L27.2818 7.84146L27.2875 8.79215C27.2921 9.47462 27.7479 10.0265 28.3059 10.0265H29.7917C29.9582 10.0265 30.1086 9.96331 30.2475 9.87625C30.3887 9.96472 30.5403 10.0265 30.7079 10.0265H32.212C32.7058 10.0265 33.0961 9.59118 33.1914 9.02385C34.0262 9.88186 35.2019 10.0265 35.8564 10.0265H37.5821C37.9931 10.0265 38.3651 9.71756 38.5201 9.24713L38.8198 8.34419H40.5168L40.828 9.25977C40.9853 9.72178 41.355 10.0251 41.7672 10.0251H44.7639C45.3265 10.0251 45.7812 9.4676 45.7812 8.78091V7.59149L46.6848 9.42407C46.8697 9.7962 47.1992 10.0251 47.5575 10.0251H49.6425C50.2052 10.0251 50.6598 9.4676 50.6598 8.78091V1.24419C50.6598 0.557497 50.2029 0 49.6425 0ZM16.9011 8.77951H15.3912L15.3855 2.87735L13.2499 8.77951H11.9559L9.81682 2.87174V8.77951H6.81892L6.25287 7.0986H3.18723L2.61544 8.77951H1.01488L3.65225 1.24278H5.83838L8.34485 8.37929V1.24278H10.7491L12.6769 6.35574L14.4463 1.24278H16.9011V8.77951ZM22.9175 2.81276H19.4707V4.17069H22.836V5.71539H19.4707V7.22077H22.9175V8.77951H17.9987V1.24278H22.9175V2.81276ZM28.8157 5.28287C29.1384 5.43453 29.4139 5.69854 29.5448 5.9176C29.7538 6.29254 29.7894 6.62676 29.7894 7.29941V8.77811H28.3036L28.2968 7.82741C28.2968 7.37524 28.3324 6.72366 28.0648 6.35995C27.8501 6.09595 27.5217 6.03837 26.9913 6.03837H25.4125V8.77951H23.9371V1.24419H27.3243C28.0775 1.24419 28.632 1.26806 29.1074 1.60508C29.5735 1.94211 29.8525 2.4336 29.8525 3.27476C29.8525 4.47542 29.1969 5.09751 28.8157 5.28287ZM32.2132 8.77951H30.7091V1.24278H32.2132V8.77951ZM49.6425 8.77951H47.5563L44.7628 3.1231V8.77951H41.766L41.192 7.0986H38.1309L37.5775 8.77951H35.8529C35.1376 8.77951 34.234 8.58572 33.7219 7.94677C33.2006 7.30643 32.932 6.43859 32.932 5.06942C32.932 3.95162 33.0938 2.92931 33.7208 2.12045C34.195 1.51942 34.9401 1.24278 35.9574 1.24278H37.38V2.85769H35.985C35.4488 2.85769 35.1445 2.95459 34.8529 3.30425C34.6014 3.62162 34.4303 4.22124 34.4303 5.01185C34.4303 5.8179 34.5612 6.39927 34.8368 6.77983C35.0653 7.07894 35.4786 7.16881 35.8633 7.16881H36.5235L38.604 1.24278H40.8108L43.3023 8.37086V1.24278H45.547L48.135 6.49195V1.24278H49.6425V8.77951ZM36.4982 4.10328L35.8587 5.92743C35.7174 5.92743 35.6221 5.90777 35.5693 5.89092C35.52 5.77858 35.4522 5.53002 35.4522 5.01325C35.4522 4.49086 35.5555 4.21984 35.5693 4.19596C35.6118 4.14541 35.6474 4.10188 35.993 4.10188L36.4982 4.10328Z" fill="white"/>
<path d="M21.4146 17.9954L23.6768 21.0676V15.0258L21.4146 17.9954Z" fill="white"/>
<path d="M17.9073 15.7743H14.2178V17.1437H17.4493V18.683H14.2178V20.1829H17.8362L19.5179 17.9681L17.9073 15.7743Z" fill="white"/>
</svg>
