<svg width="37" height="23" viewBox="0 0 37 23" fill="none" xmlns="http://www.w3.org/2000/svg">
<path d="M4.8553 23H0.693614C0.310537 23 0 22.6782 0 22.2813V0.719259C0 0.322308 0.310537 0.000525229 0.693614 0.000525229H4.8553C5.23838 0.000525229 5.54891 0.322308 5.54891 0.719259V22.2813C5.54891 22.6782 5.23838 23 4.8553 23Z" fill="white"/>
<path d="M20.581 23H14.5686C14.1854 23 13.8748 22.6782 13.8748 22.2813V0.719259C13.8748 0.322308 14.1854 0.000525229 14.5686 0.000525229H20.581C20.9642 0.000525229 21.2748 0.322308 21.2748 0.719259V22.2813C21.2748 22.6782 20.9642 23 20.581 23Z" fill="white"/>
<path d="M27.0554 23H24.7433C24.3603 23 24.0497 22.6782 24.0497 22.2813V0.719259C24.0497 0.322308 24.3603 0.000525229 24.7433 0.000525229H27.0554C27.4385 0.000525229 27.749 0.322308 27.749 0.719259V22.2813C27.749 22.6782 27.4385 23 27.0554 23Z" fill="white"/>
<path d="M36.3053 23H33.9932C33.6101 23 33.2996 22.6782 33.2996 22.2813V0.719259C33.2996 0.322308 33.6101 0.000525229 33.9932 0.000525229H36.3053C36.6884 0.000525229 36.9989 0.322308 36.9989 0.719259V22.2813C36.9989 22.6782 36.6884 23 36.3053 23Z" fill="white"/>
<path d="M4.8553 0.000525229H3.00568C3.38889 0.000525229 3.69953 0.322308 3.69953 0.719259V22.2813C3.69953 22.6782 3.38889 23 3.00568 23H4.8553C5.23838 23 5.54891 22.6782 5.54891 22.2813V0.719259C5.54891 0.322308 5.23838 0.000525229 4.8553 0.000525229Z" fill="white"/>
<path d="M20.581 0.000525229L18.7311 0C19.1143 0 19.4249 0.321783 19.4249 0.718733V22.2807C19.4249 22.6777 19.1143 22.9995 18.7311 22.9995L20.581 23C20.9642 23 21.2748 22.6782 21.2748 22.2813V0.719259C21.2748 0.322308 20.9642 0.000525229 20.581 0.000525229Z" fill="white"/>
<path d="M27.0554 0.000525229L25.206 0C25.5892 0 25.8998 0.321783 25.8998 0.718733V22.2807C25.8998 22.6777 25.5892 22.9995 25.206 22.9995L27.0554 23C27.4386 23 27.7501 22.6777 27.7501 22.2807V0.718733C27.7501 0.321783 27.4386 0.000525229 27.0554 0.000525229Z" fill="white"/>
<path d="M36.3053 0.000525229L34.4559 0C34.8391 0 35.1497 0.321783 35.1497 0.718733V22.2807C35.1497 22.6777 34.8391 22.9995 34.4559 22.9995L36.3053 23C36.6885 23 37 22.6777 37 22.2807V0.718733C37 0.321783 36.6885 0.000525229 36.3053 0.000525229Z" fill="white"/>
<path d="M8.32505 22.9995C7.94184 22.9995 7.6312 22.6777 7.6312 22.2807V0.718733C7.6312 0.321783 7.94184 0 8.32505 0C8.70825 0 9.0189 0.321783 9.0189 0.718733V22.2807C9.0189 22.6777 8.70825 22.9995 8.32505 22.9995Z" fill="white"/>
<path d="M30.5248 22.9995C30.1416 22.9995 29.8309 22.6777 29.8309 22.2807V0.718733C29.8309 0.321783 30.1416 0 30.5248 0C30.908 0 31.2186 0.321783 31.2186 0.718733V22.2807C31.2186 22.6777 30.908 22.9995 30.5248 22.9995Z" fill="white"/>
<path d="M11.1 22.9995C10.7168 22.9995 10.4062 22.6777 10.4062 22.2807V0.718733C10.4062 0.321783 10.7168 0 11.1 0C11.4832 0 11.7938 0.321783 11.7938 0.718733V22.2807C11.7938 22.6777 11.4832 22.9995 11.1 22.9995Z" fill="white"/>
</svg>
