<svg width="28" height="26" viewBox="0 0 28 26" fill="none" xmlns="http://www.w3.org/2000/svg">
<path d="M7.59684 21.9802C8.75793 21.9802 9.70919 22.8823 9.70919 23.9967C9.70919 25.0979 8.75793 26 7.59684 26C6.42175 26 5.4705 25.0979 5.4705 23.9967C5.4705 22.8823 6.42175 21.9802 7.59684 21.9802ZM23.3346 21.9802C24.4957 21.9802 25.4469 22.8823 25.4469 23.9967C25.4469 25.0979 24.4957 26 23.3346 26C22.1595 26 21.2082 25.0979 21.2082 23.9967C21.2082 22.8823 22.1595 21.9802 23.3346 21.9802ZM1.23208 0.0113598L4.56848 0.487631C5.04411 0.568558 5.39384 0.938697 5.4358 1.38976L5.70159 4.36148C5.74356 4.78734 6.10728 5.10574 6.55493 5.10574H25.4472C26.3005 5.10574 26.8601 5.38434 27.4197 5.9946C27.9792 6.60487 28.0772 7.48047 27.9513 8.27514L26.6223 16.978C26.3705 18.651 24.8597 19.8834 23.083 19.8834H7.82094C5.96039 19.8834 4.42159 18.5316 4.26771 16.7804L2.98072 2.31842L0.868362 1.97349C0.308798 1.88063 -0.0828964 1.36323 0.0150273 0.832563C0.112951 0.289959 0.658526 -0.0695666 1.23208 0.0113598Z" fill="white"/>
</svg>
