<svg width="27" height="23" viewBox="0 0 27 23" fill="none" xmlns="http://www.w3.org/2000/svg">
<path d="M10.8676 23L15.703 22.9998L15.7566 23C15.7562 23 15.7567 23 15.7566 23C18.5927 23 21.4438 21.7823 23.5781 19.6593C25.7848 17.4645 27 14.5994 27 11.5924C27 8.36065 25.7775 5.38577 23.5576 3.21579C21.4668 1.17224 18.6085 0 15.7062 0H10.9095C4.69004 0 0 4.98367 0 11.5924C0 17.8825 4.87525 23 10.8676 23ZM19.6036 11.4805C19.6036 16.5544 15.7176 20.6825 10.9409 20.6825C6.16228 20.6825 2.27449 16.5544 2.27449 11.4805C2.27449 6.40651 6.16228 2.27842 10.9409 2.27842C15.7175 2.27859 19.6036 6.40651 19.6036 11.4805Z" fill="white"/>
<path d="M16.8462 11.4806C16.8415 8.81127 15.2707 6.52991 13.0536 5.624V17.3321C15.2707 16.4276 16.8415 14.1512 16.8462 11.4806Z" fill="white"/>
<path d="M5.03609 11.4806C5.04049 14.1511 6.60707 16.4276 8.82494 17.3321V5.624C6.60707 6.53492 5.04049 8.81127 5.03609 11.4806Z" fill="white"/>
</svg>
