<svg width="45" height="23" viewBox="0 0 45 23" fill="none" xmlns="http://www.w3.org/2000/svg">
<path d="M1.40402 18.4228C1.20282 18.0906 0.934564 17.56 0.768874 17.1671C-0.197647 14.8664 -0.241042 12.4847 0.571625 10.2003C1.46714 7.69301 3.17926 5.77712 5.3924 4.7969C8.17361 3.5696 11.2468 3.80858 13.9136 5.43283C15.606 6.42925 16.8052 7.96844 17.7165 10.1476C17.8309 10.4271 17.9335 10.7228 18.0361 10.978L1.40402 18.4228ZM6.95856 8.49501C4.98212 9.36586 3.96431 11.2696 4.17734 13.4974L12.5407 9.79927C11.1008 8.06565 9.23087 7.49048 6.95856 8.49501ZM13.5822 16.5393C13.5782 16.5393 13.5782 16.5434 13.5782 16.5434L13.4047 16.4218C12.9036 17.2522 12.1265 17.9286 11.1442 18.3661C9.27426 19.2005 7.54241 18.9858 6.2958 17.8638L6.18139 18.042C6.18139 18.042 6.18139 18.038 6.17745 18.038L4.05504 21.2986C4.58367 21.6753 5.14781 21.9913 5.73956 22.2465C8.08288 23.2469 10.4814 23.1983 12.8445 22.1452C14.5527 21.3837 15.894 20.2253 16.8092 18.7549L13.5822 16.5393Z" fill="white"/>
<path d="M23.847 0V18.1229L26.5927 19.2652L25.0344 23L22.0046 21.7038C21.3261 21.4 20.8606 20.9382 20.5134 20.4156C20.1781 19.885 19.9296 19.1518 19.9296 18.1715V0H23.847Z" fill="white"/>
<path d="M30.9558 13.5084C30.9558 11.965 31.6225 10.5797 32.6719 9.63991L29.8552 6.4155C27.9458 8.14923 26.7426 10.681 26.7426 13.5003C26.7386 16.3237 27.9419 18.8594 29.8473 20.5932L32.6601 17.3688C31.6146 16.4249 30.9558 15.0477 30.9558 13.5084Z" fill="white"/>
<path d="M35.9581 18.6489C35.4058 18.6489 34.8692 18.5517 34.3722 18.3816L33.0269 22.4846C33.9461 22.8005 34.9284 22.9747 35.9541 22.9747C40.4119 22.9788 44.1321 19.7304 44.996 15.4168L40.8617 14.55C40.3922 16.8952 38.3763 18.653 35.9581 18.6489Z" fill="white"/>
<path d="M35.9699 4.04225C34.9482 4.04225 33.9659 4.21238 33.0467 4.52428L34.3801 8.63167C34.8811 8.46154 35.4137 8.36837 35.966 8.36837C38.3882 8.37242 40.408 10.1385 40.8657 12.4879L45 11.6292C44.1518 7.3071 40.4317 4.0463 35.9699 4.04225Z" fill="white"/>
</svg>
