<svg width="26" height="22" viewBox="0 0 26 22" fill="none" xmlns="http://www.w3.org/2000/svg">
<path fill-rule="evenodd" clip-rule="evenodd" d="M13 2.37838C11.7 1.18919 9.568 0 7.15 0C3.25 0 0 2.97297 0 7.13514C0 14.9849 8.66991 19.6622 12.3837 21.6658C12.6083 21.7869 12.8147 21.8983 13 22C13.1853 21.8983 13.3917 21.7869 13.6163 21.6658C17.3301 19.6622 26 14.9849 26 7.13514C26 2.97297 22.7994 0 18.85 0C16.432 0 14.3 1.18919 13 2.37838ZM13 19.6564C14.7434 18.7115 17.1932 17.3429 19.3818 15.4552C22.0298 13.1714 23.9474 10.4218 23.9474 7.13514C23.9474 4.16708 21.7213 2.0625 18.85 2.0625C17.0785 2.0625 15.4175 2.95608 14.3818 3.90352L13 5.16756L11.6182 3.90352C10.5825 2.95608 8.92154 2.0625 7.15 2.0625C4.31874 2.0625 2.05263 4.17619 2.05263 7.13514C2.05263 10.4218 3.97025 13.1714 6.61818 15.4552C8.80676 17.3429 11.2566 18.7115 13 19.6564Z" fill="#BCBCBC"/>
</svg>
