<svg width="53" height="23" viewBox="0 0 53 23" fill="none" xmlns="http://www.w3.org/2000/svg">
<path fill-rule="evenodd" clip-rule="evenodd" d="M9.05659 0H53C52.1054 4.39616 51.2275 8.69481 50.3532 12.9763C50.1636 13.905 49.9741 14.8328 49.7846 15.7607C49.7429 15.9653 49.7011 16.1708 49.6592 16.3766C49.428 17.5139 49.1953 18.6586 48.954 19.6876C48.3405 22.3035 46.0705 23 42.7644 23H0C0.511647 20.561 1.00647 18.0688 1.50434 15.5613C2.11169 12.5023 2.72358 9.42041 3.3761 6.38447C3.45694 6.00842 3.5295 5.62463 3.6022 5.24004C3.73955 4.51347 3.87744 3.78408 4.07275 3.09873C4.6456 1.08899 6.62954 0.114407 9.05659 0ZM34.525 13.1009C34.3547 14.4845 36.0195 14.3201 36.6126 13.7412C37.0508 13.3136 37.1732 12.5502 37.2724 11.9312C37.2755 11.9118 37.2786 11.8926 37.2816 11.8735C35.9214 11.7075 34.6664 11.9517 34.525 13.1009ZM34.6036 9.8492C34.653 9.65655 34.7024 9.46388 34.7391 9.25857C34.9837 9.25152 35.2628 9.22904 35.5567 9.20536C36.8995 9.09719 38.5501 8.96423 38.6198 10.1657C38.6457 10.6107 38.5403 11.0932 38.4319 11.5897C38.3845 11.8068 38.3366 12.0266 38.2987 12.247C38.2927 12.2819 38.2867 12.3167 38.2808 12.3514C38.1417 13.161 38.0144 13.9019 38.0043 14.8086H37.014C36.9984 14.4816 37.0451 14.2169 37.0944 13.9548C36.6201 14.7119 35.25 15.263 34.1236 14.782C33.5387 14.5321 33.2334 13.6369 33.5079 12.7273C33.9178 11.3692 35.4764 11.0525 37.3888 11.2331L37.3908 11.2275C37.4754 10.9933 37.5897 10.677 37.5226 10.3792C37.3188 9.47552 35.2041 9.99603 34.525 10.1657C34.5498 10.0589 34.5767 9.95404 34.6036 9.8492ZM43.4909 12.9408C43.5086 13.7334 43.8939 14.2114 44.6686 14.1948C46.0747 14.1648 46.3057 12.647 46.5199 11.2399C46.5818 10.833 46.6423 10.4354 46.7295 10.0858C46.3064 9.94174 45.8883 9.80789 45.3109 9.87222C44.0708 10.0105 43.4601 11.5527 43.4909 12.9408ZM46.8366 9.33856C47.0074 8.54846 47.1393 7.71931 47.2379 6.85711H48.3889C48.2615 7.57969 48.1218 8.29007 47.9822 9.00045C47.616 10.8632 47.2498 12.7259 47.1042 14.8086H46.0604C46.0646 14.5851 46.0982 14.3908 46.1318 14.1966C46.1441 14.1253 46.1565 14.054 46.1673 13.9813C46.1532 13.9348 46.0964 14.0265 46.038 14.1207C46.0084 14.1685 45.9784 14.2169 45.9534 14.2483C45.8542 14.3721 45.7015 14.5505 45.5518 14.6485C44.7794 15.1549 43.2492 15.0108 42.7149 14.4083C42.4048 14.0586 42.3194 13.5684 42.3133 13.0741C42.2822 10.5184 44.0136 8.44776 46.8366 9.33856ZM15.5224 13.3143C15.6411 14.4082 17.1548 14.4181 17.7706 13.768C18.2805 13.2295 18.7037 11.8987 18.5467 10.8328C18.3659 9.60513 16.5838 9.69423 15.9773 10.4325C15.9261 10.6875 15.883 10.9563 15.8384 11.2349C15.8064 11.4344 15.7736 11.6388 15.7365 11.8468C15.7116 11.9861 15.6796 12.1259 15.6475 12.2655C15.5663 12.6197 15.4853 12.9729 15.5224 13.3143ZM16.0047 9.74344C16.5193 9.32923 17.7065 8.89378 18.6806 9.25857C20.6849 10.0092 19.5324 13.843 18.0382 14.6485C17.314 15.0388 15.5979 15.2319 15.3351 14.2216C15.1766 14.8779 15.075 15.5908 14.9734 16.3038C14.9263 16.6344 14.8792 16.9651 14.8265 17.29H13.6756C14.1921 14.6563 14.6815 11.9957 15.0942 9.25857H16.0844C16.0801 9.3476 16.0622 9.42312 16.0443 9.49865C16.0264 9.5742 16.0085 9.64977 16.0041 9.73888L16.0047 9.74344ZM16.0047 9.74344C16.0017 9.74588 15.9986 9.74833 15.9955 9.75077C15.9894 9.75568 15.9832 9.7606 15.9773 9.76551C15.9925 9.76416 16.0065 9.76168 16.0047 9.74344ZM21.4373 11.1797H24.1404C24.3855 10.1491 23.7919 9.814 22.9628 9.8456C22.082 9.87917 21.5229 10.5602 21.4373 11.1797ZM21.0091 9.97894C21.5086 9.45428 22.2115 9.21568 23.0431 9.15186C23.9917 9.07903 24.9238 9.27505 25.1842 10.0324C25.3325 10.4631 25.2422 10.9274 25.1547 11.3779C25.1256 11.5274 25.0968 11.6754 25.0772 11.8201C23.8344 11.7883 22.5445 11.7807 21.3035 11.8201C21.1108 12.6395 21.1142 13.5824 21.7049 13.9548C22.4872 14.4478 23.808 14.0518 24.5687 13.768C24.5498 13.8823 24.527 13.9927 24.5041 14.1031C24.466 14.2877 24.4278 14.4722 24.4081 14.6751C22.5616 15.1232 20.2529 15.1895 20.0455 13.341C19.9001 12.0453 20.3963 10.6225 21.0091 9.97894ZM12.8994 9.33856C12.8972 9.30074 12.8951 9.26303 12.9263 9.25857H14.0771C13.6801 11.0419 13.3633 12.9052 13.0868 14.8086H11.936C12.3027 13.0307 12.6459 11.2292 12.8994 9.33856ZM40.7611 10.139C41.0918 9.62896 41.9386 8.77826 42.9557 9.2852C42.9106 9.43046 42.8835 9.59372 42.8564 9.75696C42.8379 9.86848 42.8194 9.97999 42.7952 10.0858C40.9937 9.57778 40.6325 11.2671 40.3863 12.8074C40.3558 12.9982 40.3232 13.1767 40.2917 13.3495C40.204 13.8301 40.1242 14.2676 40.1187 14.8086H38.941C39.3265 13.0137 39.6572 11.1643 39.9313 9.25857H40.9484C40.9062 9.38766 40.8831 9.53574 40.8599 9.6838C40.8349 9.84351 40.81 10.0032 40.7611 10.139ZM29.9215 12.4338C29.895 12.7767 29.9225 13.2279 30.0285 13.5011C30.3936 14.4412 31.964 14.2201 32.7854 13.7946C32.7599 13.9152 32.7389 14.0401 32.7179 14.1649C32.6902 14.3295 32.6626 14.4941 32.6248 14.6485C31.1215 15.1661 29.265 15.0927 28.8509 13.7412C28.4971 12.5864 28.9976 10.7509 29.7609 9.95231C30.5408 9.13653 32.0116 8.97956 33.5614 9.23195C33.5451 9.35555 33.5249 9.47538 33.5047 9.59521C33.4749 9.77239 33.4451 9.94958 33.4276 10.139C32.4826 9.80975 31.2978 9.71267 30.6977 10.2992C30.2628 10.7241 29.981 11.6627 29.9215 12.4338ZM27.1917 10.1925C27.5636 9.54204 28.3658 8.84767 29.3863 9.25857C29.3727 9.38531 29.3482 9.50123 29.3237 9.61717C29.2923 9.76576 29.261 9.91436 29.2524 10.0858C28.1725 9.70138 27.424 10.406 27.1381 11.2331C26.8824 11.9725 26.7739 12.9281 26.6739 13.8081C26.634 14.1599 26.5954 14.4996 26.5493 14.8086H25.3984C25.4449 14.5653 25.4917 14.3223 25.5385 14.0793C25.8425 12.5019 26.1465 10.9244 26.3619 9.25857H27.3789C27.3515 9.38163 27.3295 9.51007 27.3074 9.63851C27.2747 9.82907 27.242 10.0196 27.1917 10.1925ZM10.3034 10.1657C10.4891 9.12347 10.6743 8.08069 10.8387 7.01718H12.1769C11.6505 9.55208 11.2065 12.169 10.7852 14.8086H9.47367C9.59139 14.0643 9.72895 13.3399 9.86651 12.6155C9.97036 12.0686 10.0742 11.5217 10.1695 10.9663C9.19503 10.8737 8.00207 10.9045 6.95433 10.9315C6.84676 10.9343 6.74072 10.937 6.63661 10.9396C6.40513 12.0005 6.23101 13.1188 6.05688 14.2371C6.0272 14.4277 5.99752 14.6183 5.96756 14.8086H4.65617C5.01339 13.0363 5.32453 11.218 5.63568 9.39969C5.7718 8.60425 5.90791 7.8088 6.04789 7.01718H7.33247C7.22592 7.52155 7.13399 8.04049 7.04207 8.55942C6.94787 9.09121 6.85368 9.62298 6.74375 10.139C7.66027 10.2071 8.61956 10.1916 9.57486 10.1762C9.81822 10.1722 10.0613 10.1683 10.3034 10.1657ZM14.2913 7.01718C14.6288 7.31598 14.3334 8.03375 14.1039 8.19123C13.9579 8.29142 13.4666 8.40663 13.2474 8.19123C13.0223 7.97004 13.1555 7.37472 13.301 7.17725C13.3914 7.05448 13.5245 6.97615 13.756 6.9372C14.0054 6.89513 14.1843 6.92259 14.2913 7.01718Z" fill="white"/>
</svg>
