<?xml version="1.0" standalone="no"?>
<!DOCTYPE svg PUBLIC "-//W3C//DTD SVG 20010904//EN"
 "http://www.w3.org/TR/2001/REC-SVG-20010904/DTD/svg10.dtd">
<svg version="1.0" xmlns="http://www.w3.org/2000/svg"
 width="512.000000pt" height="512.000000pt" viewBox="0 0 512.000000 512.000000"
 preserveAspectRatio="xMidYMid meet">

<g transform="translate(0.000000,512.000000) scale(0.100000,-0.100000)"
fill="#000000" stroke="none">
<path d="M2380 4794 c-196 -18 -455 -78 -628 -145 -665 -261 -1180 -836 -1357
-1515 -53 -204 -69 -331 -69 -569 -1 -242 11 -345 65 -559 195 -778 820 -1407
1599 -1610 219 -57 327 -70 565 -70 233 -1 356 14 559 65 779 196 1407 820
1610 1599 57 221 70 327 70 570 0 243 -13 349 -70 570 -223 857 -946 1508
-1829 1645 -97 15 -425 27 -515 19z m381 -164 c717 -73 1345 -508 1664 -1155
283 -573 285 -1242 5 -1821 -65 -134 -186 -321 -280 -433 l-63 -73 -183 183
-183 183 162 89 c89 49 170 98 180 109 16 19 17 74 17 839 0 601 -3 825 -12
844 -9 19 -180 119 -749 435 -406 226 -747 410 -759 410 -12 0 -244 -124 -517
-276 l-496 -276 -200 200 -199 199 73 63 c420 355 996 534 1540 480z m437
-915 c347 -192 631 -352 631 -355 0 -3 -282 -161 -627 -352 l-627 -348 -455
456 c-250 251 -450 458 -445 461 6 2 206 114 445 247 239 134 438 243 441 242
3 0 290 -158 637 -351z m-1961 -198 c-89 -49 -170 -99 -179 -111 -16 -19 -18
-79 -18 -847 0 -773 1 -828 18 -847 24 -28 1476 -832 1502 -832 12 0 244 124
517 276 l496 276 200 -200 199 -199 -73 -62 c-422 -357 -994 -536 -1540 -481
-406 41 -812 210 -1119 465 -99 83 -271 261 -342 356 -467 623 -548 1456 -208
2155 65 135 186 321 280 433 l63 73 183 -183 183 -183 -162 -89z m563 -313
l285 -286 -81 43 c-257 140 -713 395 -713 399 0 3 50 33 112 67 61 34 112 62
112 63 0 0 128 -129 285 -286z m48 -339 l631 -350 1 -708 c0 -390 -4 -707 -8
-705 -5 2 -293 161 -640 353 l-631 350 -1 708 c0 390 4 707 8 705 5 -1 293
-160 640 -353z m2072 -352 l-1 -708 -157 -87 -157 -87 -455 455 c-418 418
-453 456 -435 467 65 39 1191 665 1198 666 4 1 7 -317 7 -706z m-470 -963 c0
-4 -776 -438 -802 -448 -4 -2 -8 281 -8 630 l0 633 405 -405 c223 -223 405
-407 405 -410z"/>
</g>
</svg>
