<svg width="25" height="27" viewBox="0 0 25 27" fill="none" xmlns="http://www.w3.org/2000/svg">
<path d="M8.72997 25.0815V21.0017C8.72997 19.9603 9.56865 19.116 10.6032 19.116H14.385C14.8818 19.116 15.3583 19.3147 15.7096 19.6683C16.0609 20.022 16.2582 20.5016 16.2582 21.0017V25.0815C16.2551 25.5145 16.4238 25.9308 16.7268 26.2381C17.0298 26.5453 17.4422 26.7181 17.8723 26.7181H20.4524C21.6574 26.7213 22.8141 26.2416 23.6673 25.385C24.5205 24.5283 25 23.3652 25 22.1521V10.5295C25 9.54967 24.5685 8.62021 23.8219 7.99155L15.0448 0.934979C13.518 -0.302278 11.3304 -0.26233 9.8492 1.02986L1.27238 7.99155C0.490448 8.60168 0.0230951 9.53389 0 10.5295V22.1403C0 24.6685 2.03603 26.7181 4.5476 26.7181H7.0688C7.96214 26.7181 8.68815 25.9926 8.69463 25.0933L8.72997 25.0815Z" fill="#8E8E8E"/>
</svg>
