<svg width="31" height="50" viewBox="0 0 31 50" fill="none" xmlns="http://www.w3.org/2000/svg">
<path d="M26.3451 6.02999C25.9437 5.10586 24.9469 4.6404 24.1216 4.99514L24.1148 4.99966C23.2872 5.36118 22.9444 6.41185 23.3458 7.34277C26.0587 13.5971 30.0007 25.1771 25.9257 32.4753C23.6209 36.5898 18.937 38.9013 11.998 39.3442C17.6651 28.7132 19.025 16.9909 19.0791 16.4938C19.1873 15.5244 18.5401 14.5642 17.638 14.3563C17.2096 14.2591 16.7811 14.3405 16.4338 14.5867C16.0617 14.8511 15.8249 15.2646 15.7685 15.7572C15.755 15.8792 14.2824 28.2681 8.33562 38.6392C6.61045 36.5718 2.92556 31.3613 3.37659 25.0686C3.9539 17.1061 10.6562 9.83726 23.3007 3.46319C24.1058 3.05648 24.4012 1.98548 23.9569 1.07264C23.5127 0.157536 22.5182 -0.244656 21.6905 0.153017C7.99735 7.06033 0.717786 15.2465 0.0502669 24.4856C-0.545088 32.7215 4.30119 39.1318 6.48642 41.572C5.09725 43.574 3.59534 45.3183 2.019 46.7621C1.34697 47.3767 1.30863 48.5155 1.93105 49.2996C2.28736 49.7515 2.79025 50 3.29089 50C3.48934 50 3.6878 49.9616 3.87723 49.8802C4.02607 49.817 4.16363 49.7266 4.29217 49.6114C6.27218 47.797 8.1259 45.5872 9.80597 43.0385C14.4064 43.0272 18.3123 42.3448 21.4131 41.0139C24.7169 39.5972 27.2088 37.4168 28.8212 34.5337C33.663 25.8594 29.3489 12.9531 26.3451 6.02999Z" fill="white"/>
</svg>
