<svg width="51" height="51" viewBox="0 0 51 51" fill="none" xmlns="http://www.w3.org/2000/svg">
<path d="M30.0331 5.52126H20.9948V7.97324H30.0331V5.52126Z" fill="white"/>
<path d="M50.4864 24.2451C50.4659 24.3178 50.416 24.3881 50.3547 24.4449C50.0823 24.3836 50.2434 24.2088 50.2662 24.0045C50.3888 24.0181 50.4546 24.0612 50.475 24.1134C50.4296 22.758 50.2752 21.4276 50.0187 20.1312C49.9687 20.1494 49.9233 20.1721 49.9188 20.2379C49.7985 20.2084 49.8461 20.02 49.8325 19.886C49.8915 19.8747 49.9347 19.8792 49.971 19.886C49.24 16.3783 47.7688 13.1385 45.73 10.3347C45.3599 10.3074 44.983 10.3551 44.8377 10.1598C44.9626 10.0123 45.1806 9.95096 45.4144 9.91237C43.7026 7.6579 41.6206 5.70767 39.2527 4.14113C39.2163 4.16383 39.18 4.18653 39.1414 4.20243C39.1914 4.17291 39.2118 4.1434 39.2163 4.11615C39.1664 4.0821 39.1187 4.05258 39.071 4.01853C39.0234 4.02534 38.9802 4.05258 38.9666 4.11615C38.8531 4.12296 38.8622 4.01172 38.8758 3.89139C38.5806 3.70295 38.2764 3.52132 37.9745 3.34423C37.9518 3.41461 37.8995 3.47364 37.8292 3.50089C37.7996 3.38283 37.702 3.26704 37.6384 3.15352C36.7553 2.66313 35.8381 2.22041 34.8936 1.83445C34.7642 1.83218 34.6507 1.81401 34.5871 1.7459C34.5984 1.73909 34.6143 1.73455 34.6257 1.72774C33.2998 1.20556 31.9172 0.792354 30.4891 0.501748C30.505 0.538074 30.5254 0.5744 30.5549 0.606185C30.4505 0.57894 30.3779 0.528992 30.3302 0.469963C28.7636 0.161195 27.1517 0 25.4989 0C24.543 0 23.5963 0.0567588 22.6655 0.161195C22.6677 0.163465 22.6655 0.168006 22.6655 0.168006C22.6655 0.165736 22.6632 0.161195 22.6632 0.161195C21.4508 0.297416 20.2612 0.524452 19.1101 0.828679C19.1646 0.924034 19.1169 1.11474 19.2486 1.13291C19.1918 1.394 19.0647 1.0489 18.8989 1.13291C18.8899 1.01031 18.9602 0.9649 18.9807 0.867275C15.8612 1.70958 12.9869 3.14217 10.4737 5.03565C10.6757 5.20365 10.0491 5.39663 10.1354 5.77578C9.99462 5.63048 10.0491 5.44204 10.1535 5.27857C9.60412 5.70994 9.07059 6.16174 8.55749 6.63624C8.63241 6.67257 8.72322 6.69981 8.82312 6.64987C8.69825 7.03356 9.1228 7.05172 8.91166 7.26286C8.65284 7.19248 8.671 6.84285 8.48029 6.70663C7.27247 7.83045 6.17361 9.07233 5.20644 10.4164H5.23369C5.18601 10.4868 5.14287 10.5617 5.14514 10.682C5.23142 10.6911 5.31542 10.7002 5.39488 10.7093C5.69003 10.741 5.95112 10.7637 6.23491 10.7342C6.1668 10.8273 6.10096 10.9227 6.03285 11.0158C5.78538 10.9658 5.48116 10.8523 5.22915 10.8659C5.09293 10.8727 4.97033 10.9181 4.88405 11.0294C4.78189 11.0498 4.94989 10.875 4.96579 10.7615C4.47312 11.4653 4.01905 12.2009 3.59903 12.9569C3.84877 12.8933 4.21657 12.9864 4.09624 13.3111C4.00997 13.3088 4.02586 13.2044 4.0077 13.134C3.72844 13.0568 3.82834 13.361 3.65806 13.3996C3.42649 13.5018 3.51049 13.2793 3.4787 13.1794C3.08366 13.915 2.72722 14.6665 2.40483 15.4407C2.53878 15.4089 2.68181 15.3885 2.86798 15.4134C2.843 15.5338 2.50245 15.7177 2.30493 15.6768C1.96892 16.5146 1.67377 17.3705 1.42857 18.2514C1.73734 18.2877 2.04384 18.4035 2.25271 18.567C2.28223 18.9166 2.09606 19.0528 2.16417 19.4433C2.00524 19.5273 1.90535 19.6613 1.72145 19.7112C1.48306 19.4365 1.38771 19.4774 1.09256 19.5727C0.974504 20.0994 0.874608 20.6307 0.792876 21.1665C0.915475 21.2142 1.0744 21.2119 1.28781 21.1143C1.44901 21.2778 1.29689 21.3322 1.28781 21.5502C1.26284 21.3935 1.00629 21.2664 0.776983 21.2732C0.593084 22.4901 0.5 23.7343 0.5 25.0034C0.5 26.1772 0.581733 27.3373 0.740657 28.4725C0.772442 28.4748 0.808768 28.4748 0.847364 28.4748C0.824661 28.5656 0.815579 28.6678 0.776983 28.7381C0.792876 28.8448 0.811038 28.9516 0.826931 29.0583C1.01991 28.9879 1.50804 29.1264 1.37182 29.4351C1.10618 29.4783 0.979045 29.3806 0.863257 29.2717C0.901853 29.4987 0.944989 29.7235 0.988126 29.9482C1.23559 29.7257 1.62155 29.6349 1.80999 29.3511C2.55467 30.03 1.43539 30.3365 1.37182 30.8405C1.29916 30.8518 1.24014 30.8496 1.18565 30.845C1.83951 33.5536 2.92928 36.0941 4.38685 38.3826C4.4822 38.369 4.58664 38.369 4.70015 38.3758C4.75691 38.4984 4.66837 38.5915 4.55031 38.6323C6.12367 41.0412 8.0966 43.1617 10.3783 44.9008C10.451 44.8054 10.569 44.7623 10.7461 44.7714C10.6371 45.0552 11.0276 44.8395 10.9209 45.121C10.7734 45.1528 10.7552 45.0529 10.7461 44.9462C10.6303 44.9303 10.6008 44.9916 10.535 45.0211C14.7101 48.1474 19.8934 50.0023 25.4966 50.0023C39.2799 50.0023 50.4955 38.789 50.4955 25.0034C50.4977 24.7491 50.4932 24.4971 50.4864 24.2451ZM48.6928 17.1707C49.0833 17.1593 49.0265 17.5952 49.215 17.7837C49.1151 17.8518 48.5793 17.6111 48.6928 17.1707ZM47.6416 14.1012H47.9027C47.8959 14.4826 48.0344 14.5053 47.8164 14.7142C47.5667 14.7028 47.6552 14.3509 47.6416 14.1012ZM46.3248 11.9988C46.5496 12.0056 46.536 12.3258 46.4134 12.437C46.1909 12.4302 46.209 12.1123 46.3248 11.9988ZM46.4134 12.6141C46.6404 12.6186 46.536 12.9569 46.763 12.966C46.6222 13.1567 46.1568 12.9342 46.1523 12.7004C46.2749 12.7094 46.3997 12.714 46.4134 12.6141ZM43.4347 7.8804C43.6844 7.92354 43.6867 8.21414 43.7843 8.40485C43.4801 8.33674 43.4483 8.53653 43.1713 8.49112C43.1577 8.18917 43.3824 8.12333 43.4347 7.8804ZM42.9079 7.53076C42.7263 7.73283 42.5379 7.97575 42.5583 8.14376C42.2427 8.08019 42.245 7.69877 42.2087 7.35368C42.4629 7.53531 42.4856 7.68969 42.9079 7.53076ZM38.088 4.11388C37.8223 4.17518 37.7724 4.02307 37.5635 4.02534C37.6861 3.88231 38.1357 3.71884 38.088 4.11388ZM35.3726 2.3589H35.7223C35.6882 2.57004 35.8835 2.55188 35.8108 2.79935C35.4067 2.83567 35.2182 2.65404 35.3726 2.3589ZM34.5848 2.3589C34.7097 2.36571 34.8346 2.37252 34.8482 2.27035C34.9958 2.42474 34.8346 2.50193 34.9345 2.79935C34.771 2.69945 34.5122 2.69491 34.5848 2.3589ZM27.4854 0.608455C27.6262 0.760569 27.8895 0.790083 27.9259 1.04663H27.3969C27.3719 0.842301 27.415 0.710621 27.4854 0.608455ZM26.0869 0.433638V0.871816C25.7804 0.799165 25.7486 1.00123 25.4716 0.96036C25.6873 0.796894 25.6782 0.404123 26.0869 0.433638ZM24.2434 0.170277C24.3274 0.172547 24.3115 0.279254 24.3319 0.342823C24.5816 0.417745 24.5612 0.220224 24.7701 0.25655C24.7587 0.356446 24.7905 0.413204 24.8586 0.431367C24.7519 0.837761 23.9323 0.444989 24.2434 0.170277ZM23.5418 0.170277C23.8756 0.186169 23.7007 0.715162 24.0663 0.694728C24.0141 0.917223 23.7507 1.15561 23.5418 0.96036C23.9459 0.717432 23.7007 0.501748 23.5418 0.170277ZM15.6569 2.3589C15.977 2.47015 16.288 2.39976 16.6172 2.3589C16.6309 2.75394 16.1972 2.69718 15.918 2.79935C15.893 2.59274 15.6137 2.63588 15.6569 2.3589ZM9.78575 6.30477H10.0468C10.0832 6.4864 9.98781 6.53635 9.96056 6.65441C9.80845 6.63397 9.7585 6.50229 9.78575 6.30477ZM7.15441 8.67048H7.50858V8.93157C7.41323 8.91114 7.44955 8.75903 7.33376 8.75903C7.22933 8.77265 7.25884 8.91795 7.24749 9.02239C7.45182 9.21537 7.00229 8.95882 7.15441 8.67048ZM7.39279 11.6378V11.7445C7.35193 11.715 7.31333 11.6878 7.27928 11.6673C7.31787 11.6583 7.35647 11.6492 7.39279 11.6378ZM6.18724 11.0657C6.30756 11.1134 6.14183 11.463 6.41654 11.354C6.32346 11.7196 6.30075 12.0079 6.76164 11.992C6.68671 12.1214 6.69125 12.3439 6.41654 12.2645C6.29848 11.7355 6.1441 11.7332 6.0828 11.2155C6.11685 11.1656 6.15091 11.1157 6.18724 11.0657ZM5.79673 11.6174C5.84895 11.6333 5.90571 11.6424 5.98517 11.6288C6.07372 11.9648 5.6923 11.8058 5.63554 11.992C5.62192 11.9693 5.60375 11.9511 5.58786 11.9307C5.65597 11.8263 5.72635 11.7218 5.79673 11.6174ZM3.47416 35.833C3.13134 35.8285 3.39016 35.22 2.86344 35.3971C2.86117 35.0043 3.52411 35.0974 3.65125 35.3085C3.6399 35.5333 3.6013 35.7263 3.47416 35.833ZM36.8007 45.7272L36.9528 45.8884C33.5859 47.7433 29.7263 48.8103 25.6237 48.8308C25.6669 48.9488 25.5829 49.1078 25.3831 49.0669V48.8308C17.766 48.7944 10.9845 45.1642 6.64585 39.5564C6.63904 39.57 6.63223 39.5836 6.63223 39.6018C6.45287 39.5586 6.47784 39.4905 6.5119 39.3838C5.27228 37.7469 4.237 35.9442 3.44465 34.019C3.25848 33.9168 3.02236 33.8646 2.68862 33.9055C2.74311 33.6353 2.87706 33.4469 2.95425 33.2017C3.02463 33.1948 3.07685 33.1971 3.13134 33.2107C2.25952 30.845 1.75324 28.3068 1.68285 25.6573C1.61701 25.6164 1.54209 25.5778 1.4649 25.5778C1.48987 25.4257 1.57615 25.4143 1.67831 25.4461C1.67604 25.2986 1.6715 25.1487 1.6715 25.0011C1.6715 22.061 2.20731 19.2435 3.18583 16.6417C3.14496 16.6599 3.09274 16.6848 3.03826 16.728C3.1495 16.4464 2.75673 16.6621 2.86571 16.3783C3.01328 16.3783 3.1654 16.3874 3.28799 16.3715C3.40378 16.0718 3.52638 15.7812 3.65352 15.4884V15.418C3.66714 15.4134 3.67395 15.418 3.68758 15.418C3.7239 15.3385 3.75796 15.259 3.78974 15.1796C3.74661 15.1387 3.72617 15.0774 3.74206 14.9821C3.78974 14.9821 3.83515 14.9866 3.88056 14.9889C3.97137 14.7959 4.06446 14.6029 4.15981 14.4099C4.10078 14.3441 4.06673 14.2533 4.0917 14.1057C4.15981 14.0558 4.24835 14.0217 4.3596 14.0126C4.55939 13.6312 4.76826 13.2566 4.98622 12.8865C4.89086 12.882 4.76826 12.8525 4.70242 12.8774C4.82956 12.6845 4.76145 12.2917 4.96579 12.1782C5.22461 12.3189 4.99984 12.5573 5.08384 12.7231C5.18147 12.5619 5.28818 12.4052 5.38807 12.2463L6.4506 13.3792L6.53687 13.4723L7.25203 14.2351L7.36328 14.3532L8.47802 15.5428H8.48256C8.48256 15.5451 8.48256 15.5451 8.48256 15.5474L8.98658 16.0855C8.99339 16.0559 9.0002 16.0264 9.0002 15.9992C9.44519 16.0151 9.82661 16.5804 10.2966 16.2671C10.5304 16.3511 10.065 16.4374 10.2103 16.7234C9.97873 16.6985 9.77439 16.7053 9.67223 16.8188L11.6225 18.8962C11.7201 18.7009 11.9131 19.239 12.022 18.8144C12.1764 18.8349 12.2196 18.9711 12.1969 19.1777C12.0016 19.1028 11.9244 19.1141 11.8677 19.1572L14.1176 21.5547C14.2152 21.3277 14.2447 21.0303 14.6102 21.0848C14.5444 21.1665 14.5194 21.2914 14.5262 21.4503C14.1448 21.1711 14.4604 21.6569 14.3151 21.7659L15.5434 23.0736C15.7886 23.0305 15.591 23.0373 15.7318 22.7217C15.8839 22.7421 15.9271 22.8784 15.9066 23.085C15.918 23.1917 16.061 23.1622 16.1654 23.1735C15.9248 23.3892 15.8317 23.2984 15.7318 23.2779L16.4583 24.0521V40.8959C16.4583 42.2944 17.6321 43.4296 19.0715 43.4296H31.8627C32.6164 43.4296 33.327 43.114 33.8242 42.5623L36.6418 45.5637C36.7053 45.3889 36.8733 45.3253 37.1299 45.3503C37.0686 45.5229 37.0096 45.7022 36.8007 45.7272ZM7.5835 11.7786C7.65842 11.7332 7.75832 11.715 7.88092 11.7173C7.87638 11.7423 7.86957 11.765 7.86276 11.7831C7.77421 11.6673 7.64253 11.8104 7.5835 11.7786ZM7.79919 11.8853C7.75378 11.9216 7.69475 11.9171 7.63118 11.8921C7.69021 11.8921 7.75151 11.8944 7.79919 11.8853ZM7.77875 13.6993C7.67886 13.7947 7.59258 13.9036 7.4995 14.0058C7.4609 13.7197 7.60394 13.6607 7.77875 13.6993ZM7.74243 14.0762C7.68567 14.0966 7.6221 14.1284 7.53583 14.1738C7.53583 14.1715 7.53583 14.1693 7.53356 14.1647C7.5994 14.1148 7.66751 14.0853 7.74243 14.0762ZM7.94449 14.0399C7.93768 13.9513 7.97627 13.8651 8.00806 13.7924C8.16244 13.8809 8.29639 14.0013 8.31456 14.0785C8.13974 14.0558 8.03303 14.0399 7.94449 14.0399ZM8.57111 14.9911C8.32591 14.7255 8.67554 14.3191 8.82993 14.1738C9.22497 14.3577 8.48256 14.5575 8.57111 14.9911ZM9.34757 13.3542C9.42476 13.1976 9.64952 13.1226 9.78348 13.2611C9.77212 13.495 9.45882 13.4768 9.34757 13.3542ZM10.9028 16.5373C11.0072 16.7302 11.2252 16.8006 11.2456 17.0844C10.9073 17.1366 10.7915 16.6803 10.9028 16.5373ZM12.7145 17.3546C12.4534 17.4204 12.3989 17.2615 12.1969 17.2615C12.2445 17.0435 12.2695 16.7983 12.5442 16.8097C12.5851 17.0935 12.2468 17.0481 12.4557 17.2615C12.6487 17.1957 12.7417 16.8347 12.9711 17.0844C13.0074 17.3001 12.5806 17.0299 12.7145 17.3546ZM12.1083 14.8095C12.2445 14.6619 12.5056 14.8527 12.5442 15.0797C12.2945 15.1001 12.0697 15.0933 12.1083 14.8095ZM12.3717 16.3579C12.0833 16.2943 11.8994 16.1218 11.9358 15.7222C12.0584 15.9583 12.3263 16.0332 12.3717 16.3579ZM11.9358 17.8109C12.1378 17.7814 12.2672 17.8245 12.3717 17.8995C12.4307 18.3672 11.9585 18.626 11.7655 18.5329C11.7019 18.1696 12.0425 18.2241 11.9358 17.8109ZM13.6658 16.3579C13.8338 16.3579 13.7725 16.6054 14.0063 16.5373C13.8815 16.7734 13.1981 16.7734 13.0619 16.7166C13.1254 16.2694 13.7044 16.9209 13.6658 16.3579ZM14.0063 18.4444C13.9632 18.5193 13.9155 18.5942 13.9246 18.7191H13.6658V18.4444H14.0063ZM13.1436 19.7158C13.1663 19.5273 13.4637 19.634 13.4887 19.4456C13.7475 19.6976 13.2912 20.0654 13.1436 19.7158ZM14.8713 18.5329C14.7487 18.8053 14.7556 18.181 14.6125 18.1719C14.6693 18.0493 14.7987 18.0016 14.9576 17.9903C15.0484 18.3377 14.6102 18.2718 14.8713 18.5329ZM14.9576 19.8088C14.7056 20.1585 14.7079 19.4774 14.4422 19.5387C14.4627 19.4388 14.6125 19.4751 14.6125 19.3548C14.7783 19.4524 14.8373 19.6613 14.9576 19.8088ZM15.1279 20.1721C15.2005 20.222 15.2709 20.2675 15.389 20.2652C15.2687 20.4423 14.8305 20.5558 14.6965 20.4468C14.7351 20.0858 15.0689 20.5558 15.1279 20.1721ZM16.8534 21.7182C16.926 21.3708 16.4424 21.6092 16.5083 21.2619C16.7081 21.2664 17.2075 21.7182 16.8534 21.7182ZM17.0009 22.2608V22.4447H16.6854C16.6309 22.1745 16.9056 22.1132 17.0009 22.2608ZM16.1677 22.0815C15.9452 22.061 16.2835 21.9248 16.1677 21.7182C16.5991 21.5479 16.6468 22.3448 16.2472 22.2631C16.4243 22.1836 16.2744 21.8022 16.1677 22.0815ZM16.8534 21.0802C16.5764 21.1211 16.7149 20.5853 16.422 20.8986C16.2721 20.8214 16.7126 20.6057 16.9419 20.6239C16.9782 20.8441 16.7852 20.8237 16.8534 21.0802ZM16.5105 19.9905C16.3017 19.9382 16.3221 19.6476 16.2494 19.4456C16.3266 19.4274 16.3312 19.4796 16.3403 19.5364C16.3266 19.7316 16.6468 19.5773 16.7694 19.6249C16.8465 19.9178 16.4878 19.7498 16.5105 19.9905ZM16.6854 20.1721C16.5923 20.5172 16.3312 20.3991 16.0769 20.2652C16.2449 20.0381 16.4515 20.3742 16.6854 20.1721ZM17.4709 24.3359C17.48 24.3041 17.4913 24.2769 17.5049 24.2497C17.4891 24.2746 17.4777 24.3041 17.4709 24.3359ZM23.006 10.7365H28.0258C27.8033 11.2178 27.7874 11.765 27.9849 12.2645L31.4495 20.9304V28.8585H25.626L22.5429 25.5733C22.4816 25.6505 22.4112 25.7277 22.2931 25.7163C22.2386 25.5369 22.082 25.3349 22.1887 25.1941L21.7914 24.7696C21.7936 24.9058 21.7573 25.0397 21.6869 25.0806C21.4327 25.0829 21.4576 24.5857 21.5053 24.4653L21.2397 24.1815C21.1988 24.2928 21.133 24.4177 21.1693 24.5357C20.9105 24.4721 21.0036 24.2179 21.0966 24.0317L19.4915 22.3199V20.9417L23.031 12.2872C23.2421 11.7854 23.2308 11.2314 23.006 10.7365ZM27.1471 30.4795L26.6545 29.955H31.4495V30.4795H27.1471ZM26.9973 30.4795C26.9905 30.4273 26.9564 30.3841 26.8656 30.3524C26.8974 30.3319 26.9973 30.3864 27.1131 30.4795H26.9973ZM25.4012 29.955C25.4012 29.9664 25.4012 29.9778 25.399 29.9914C25.3195 29.9936 25.2537 29.98 25.2014 29.955H25.4012ZM25.181 32.3412L25.1651 32.3457C25.1697 32.3389 25.1742 32.3344 25.1787 32.3276L25.181 32.3412ZM23.8438 30.2593C23.7757 30.341 23.6758 30.3887 23.6167 30.4795H23.2194C23.1672 30.3206 23.1945 30.1344 23.3307 29.9914C23.6326 29.9414 23.7053 30.1367 23.8438 30.2593ZM22.0025 29.955L22.4952 30.4795H20.0319V29.955H22.0025ZM20.0319 28.8585V27.8527L20.974 28.8585H20.0319ZM21.2578 25.2645C21.3123 25.5528 21.9866 25.26 22.2046 25.9002C22.0411 25.7254 21.6779 25.8071 21.7732 26.1749C21.6847 26.1159 21.6847 25.966 21.5167 25.9933C21.5462 25.873 21.6688 25.848 21.6869 25.7186C21.4871 25.6913 21.3623 25.739 21.3418 25.9002C21.1466 25.8616 21.3101 25.4507 21.2578 25.2645ZM22.5519 26.2612C22.3544 26.2362 22.2296 26.2816 22.2069 26.4428C21.9775 26.1681 22.5247 25.932 22.5519 25.6278C22.6428 25.6482 22.611 25.8071 22.7245 25.8071C22.6269 25.9184 22.477 25.9729 22.5519 26.2612ZM21.6029 28.6269C21.4486 28.5497 21.9276 28.3658 21.7732 27.9867C22.0479 28.0025 22.0638 27.746 22.3794 27.8073C22.3136 28.2818 21.7914 28.2818 21.6029 28.6269ZM22.0979 28.8585H21.8232C21.7959 28.7926 21.7846 28.7086 21.7732 28.6269C22.0025 28.5769 22.0661 28.6995 22.0979 28.8585ZM21.5167 26.6267C21.7732 26.6857 21.8027 26.99 21.7732 27.3532C21.6552 27.1444 21.5984 26.8719 21.5167 26.6267ZM22.4634 26.7175C22.5156 26.5291 22.6473 26.4224 22.7245 26.2612C22.9402 26.3861 22.779 26.8583 22.4634 26.7175ZM19.9592 23.4459C19.8321 23.6866 19.6731 23.6026 19.4915 23.5209V23.3392C19.6731 23.3256 19.9047 23.3846 19.9592 23.4459ZM19.5324 24.1725C19.739 24.2269 19.6731 24.5675 20.05 24.4426C19.9274 24.6787 19.9433 25.0602 19.5324 24.9875C19.5483 24.9058 19.5278 24.8626 19.4938 24.8377V24.2565C19.5074 24.2338 19.521 24.2042 19.5324 24.1725ZM33.94 39.2839V38.7686C34.0558 38.7504 34.1535 38.6982 34.2851 38.8049C34.1489 39.3679 33.8492 39.788 34.2851 40.1694C34.183 40.3873 34.0604 40.3487 33.94 40.2307V39.6268C33.94 39.6268 33.94 39.6268 33.9423 39.6245C33.9809 39.4701 33.9718 39.3657 33.94 39.2839ZM36.9914 41.6928C37.307 41.7972 37.005 42.0583 37.2366 42.2922C36.7871 42.5737 36.8052 41.9698 36.9914 41.6928ZM37.3297 45.6772C37.4228 45.4797 37.6067 45.2913 37.7361 45.4389C37.6021 45.5183 37.4659 45.5978 37.3297 45.6772ZM39.2663 44.4376C39.2232 44.4467 39.1755 44.4513 39.1187 44.4445C39.1414 44.1856 39.5069 44.0494 39.6364 44.1697C39.5138 44.2583 39.3912 44.3491 39.2663 44.4376ZM43.1713 41.443C43.0305 41.443 42.9829 41.3 42.9942 41.1638C42.0906 42.14 41.103 43.0436 40.0496 43.861C40.1404 43.9768 40.2403 44.0857 40.4582 44.0721C40.3492 44.424 40.1903 44.0381 39.8929 44.0653L39.8543 44.0222C39.8543 44.0176 39.8566 44.0154 39.8566 44.0108C39.8543 44.0131 39.852 44.0154 39.8498 44.0154L34.7914 38.6233C34.5803 38.6119 34.3623 38.6006 34.3805 38.3508C34.4327 38.3463 34.4849 38.3463 34.5326 38.3463L33.9468 37.7219V20.8305C33.9468 20.583 33.9014 20.3446 33.8106 20.1131L30.4028 11.5879L30.6344 11.1679C30.7865 10.8841 30.8682 10.564 30.8682 10.2416C30.8682 9.14044 29.9397 8.24593 28.7954 8.24593H22.2386C21.0944 8.24593 20.1635 9.14044 20.1635 10.2416C20.1635 10.5662 20.2475 10.8909 20.4087 11.1815L20.6312 11.5811L17.2257 19.9065L15.3844 17.9426C15.3844 18.0493 15.3958 18.1674 15.2164 18.0856C15.2096 17.9699 15.2255 17.8836 15.2528 17.8041L14.8032 17.3228C14.801 17.375 14.8191 17.4409 14.8713 17.5362C14.6579 17.5498 14.5149 17.4908 14.4422 17.3546C14.4604 17.2365 14.5217 17.1616 14.6034 17.1094L13.7294 16.1785C13.6749 16.2035 13.6204 16.2285 13.5772 16.2648C13.5818 16.1854 13.5772 16.1014 13.5772 16.0151L12.1991 14.5462C12.181 14.8572 11.8926 14.8867 11.8518 15.1773C11.5226 15.0706 11.8472 14.503 12.1923 14.5416L9.50195 11.6719C9.27265 12.2576 9.05469 11.6901 9.11599 11.261L7.44274 9.47646C8.10568 8.70681 8.81176 7.97348 9.56552 7.29465C9.56552 7.24243 9.55644 7.17886 9.52011 7.09032C9.35438 6.92458 9.36119 7.14026 9.08194 7.09032C9.09783 6.7089 9.23405 6.93139 9.52011 6.9155C9.54963 7.01766 9.59958 7.1221 9.64271 7.22881C11.1548 5.88022 12.8371 4.7178 14.6557 3.78468C14.6625 3.69387 14.667 3.60078 14.692 3.49862C14.7533 3.55764 14.7919 3.6303 14.8146 3.70295C15.5638 3.32607 16.3357 2.98779 17.1303 2.69037C17.1099 2.6654 17.0872 2.64269 17.0554 2.62226C17.0713 2.37706 17.2075 2.24765 17.4936 2.27035C17.5345 2.63361 17.2575 2.18862 17.2302 2.53599C17.2575 2.56777 17.2915 2.59274 17.3233 2.61545C17.7524 2.45879 18.1861 2.31576 18.6197 2.18408C18.2542 2.20905 18.295 1.96386 18.37 1.74817C18.5516 1.80039 18.6969 1.88212 18.631 2.18181C20.8106 1.52568 23.1105 1.17377 25.4966 1.17377C26.7612 1.17377 27.9985 1.2714 29.2154 1.46665C29.4107 1.40081 29.506 1.45757 29.6059 1.52568C33.7607 2.25446 37.5499 4.06166 40.6716 6.64306C40.7693 6.37061 40.3493 6.70436 40.456 6.12769C40.7556 6.15039 40.91 6.31613 40.8896 6.65214C40.851 6.67938 40.8124 6.70209 40.7647 6.71798C40.8896 6.82241 41.0122 6.92685 41.1325 7.03356C41.1393 7.02448 41.1461 7.01085 41.1552 7.00177C41.3187 7.02221 41.3527 7.16524 41.414 7.28557C41.4708 7.33324 41.523 7.38092 41.5798 7.43087C41.607 7.43768 41.6388 7.44222 41.6797 7.43995C41.6706 7.46265 41.6615 7.47855 41.6456 7.49671C43.4755 9.18358 45.0375 11.1542 46.2703 13.3338C46.2908 13.2997 46.3089 13.2611 46.3248 13.2225C46.595 13.2475 46.8039 13.5949 46.6767 13.7493C46.5541 13.7175 46.4996 13.7016 46.4724 13.697C46.7448 14.2011 46.9968 14.7142 47.233 15.2386H47.3805C47.2398 15.4044 47.3715 15.3589 47.3783 15.5565C47.846 16.6417 48.2365 17.7633 48.543 18.9211C48.7813 18.962 48.7859 18.7667 49.0424 18.8303C49.0561 19.0982 48.7268 19.2299 48.5838 19.0891C48.6973 19.5319 48.7995 19.9837 48.8858 20.4377C48.9334 20.3696 49.0061 20.3219 49.1287 20.3197C48.9902 20.4105 48.9993 20.6398 48.9607 20.8328C49.2014 22.1859 49.3285 23.5776 49.3285 24.9989C49.3285 31.1288 47.0014 36.7252 43.1826 40.9481C43.3075 41.0594 43.2735 41.35 43.1713 41.443ZM49.3058 23.48C49.2309 23.1985 49.4443 23.2053 49.4806 23.0418C49.6759 23.1031 49.5237 23.539 49.3058 23.48Z" fill="white"/>
</svg>
