<svg width="28" height="45" viewBox="0 0 28 45" fill="none" xmlns="http://www.w3.org/2000/svg">
<path d="M10.9841 10.3392C10.9841 7.4077 12.0555 4.5946 14 2.41051C15.9463 4.59654 17.0158 7.40965 17.0158 10.3392C17.0158 13.2688 15.9463 16.0819 14 18.268C12.0555 16.08 10.9841 13.2688 10.9841 10.3392ZM14.0019 20.6773C14.2527 20.6773 14.5036 20.588 14.6863 20.4093C17.4708 17.7457 19.003 14.1716 19.003 10.3392C19.003 6.50689 17.4708 2.92886 14.6883 0.267187C14.3188 -0.0880911 13.6927 -0.0900325 13.3136 0.267187C10.5311 2.92886 8.99884 6.50689 8.99884 10.3392C8.99884 14.1716 10.5311 17.7477 13.3155 20.4113C13.5002 20.588 13.7511 20.6773 14.0019 20.6773Z" fill="white"/>
<path d="M9.75272 35.2611C11.4385 36.9443 12.5683 39.074 13.0252 41.4212C13.1166 41.8852 13.5269 42.223 14.0013 42.223C14.4738 42.223 14.8841 41.8852 14.9735 41.4212C15.4305 39.074 16.5622 36.9443 18.246 35.2611C20.3227 33.1916 23.0702 31.9607 25.9947 31.786C25.8216 34.7059 24.5888 37.4491 22.5141 39.5225C20.3149 41.7163 17.373 42.951 14.2094 43.0073L14.1355 43.0132L13.9916 43.0112L13.9158 43.0132L13.7602 43.0035C10.6219 42.953 7.68577 41.7182 5.48661 39.5244C3.41383 37.451 2.17911 34.7078 2.00605 31.7879C4.9305 31.9607 7.67994 33.1916 9.75272 35.2611ZM27.0291 29.7844L26.7238 29.7824C22.9866 29.7824 19.4788 31.2327 16.8422 33.8613C15.6444 35.0534 14.6916 36.4376 14.0013 37.9713C13.3052 36.4357 12.3505 35.0514 11.1586 33.8613C8.52383 31.2327 5.01411 29.7824 1.273 29.7824L0.971607 29.7844C0.440774 29.796 0.0168849 30.2231 0.00327382 30.7531C-0.0783928 34.603 1.37022 38.214 4.08272 40.9261C6.61244 43.45 9.98994 44.8905 13.5774 44.9837L13.8069 45.0012L13.9235 44.9953L14.2522 45.0012L14.4097 44.9856C18.0185 44.8866 21.398 43.4461 23.9199 40.9261C26.6324 38.214 28.081 34.603 27.9974 30.7551C27.9858 30.2231 27.5619 29.798 27.0291 29.7844Z" fill="white"/>
<path d="M25.9947 17.9786C25.8216 20.9004 24.5888 23.6436 22.5141 25.717C20.3149 27.9089 17.373 29.1456 14.2094 29.1999L14.1316 29.2077L13.9858 29.2057L13.9138 29.2077L13.7583 29.198C10.6199 29.1475 7.68383 27.9128 5.48466 25.719C3.40994 23.6455 2.17522 20.9023 2.00216 17.9805C4.9305 18.1552 7.67799 19.388 9.75466 21.4595C11.4347 23.1408 12.5663 25.2686 13.0233 27.6177C13.1147 28.0817 13.521 28.4214 13.9974 28.4214C14.4719 28.4214 14.8822 28.0856 14.9716 27.6177C15.4285 25.2724 16.5602 23.1408 18.2441 21.4595C20.3188 19.3861 23.0683 18.1533 25.9947 17.9786ZM13.5891 31.1743L13.7972 31.1938L14.0616 31.1879L14.2502 31.1918L14.4077 31.1743C18.0166 31.0753 21.3941 29.6348 23.918 27.1148C26.6305 24.4027 28.0791 20.7917 27.9955 16.9457C27.9858 16.4138 27.5599 15.9867 27.0213 15.977L26.7238 15.9731C22.9886 15.9731 19.4788 17.4214 16.8422 20.052C15.6483 21.244 14.6936 22.6263 14.0013 24.162C13.3111 22.6263 12.3524 21.246 11.1605 20.052C8.52383 17.4233 5.01022 15.975 1.27105 15.975L0.971607 15.9789C0.440774 15.9906 0.0168849 16.4157 0.00327382 16.9477C-0.0783928 20.7955 1.37022 24.4085 4.08272 27.1168C6.6105 29.6406 9.98605 31.0792 13.5891 31.1743Z" fill="white"/>
</svg>
