<svg width="37" height="51" viewBox="0 0 37 51" fill="none" xmlns="http://www.w3.org/2000/svg">
<path d="M36.6688 0.667086C36.6104 0.283006 36.2802 0 35.8917 0H18.635C18.5923 0 18.5474 0.00449216 18.5047 0.0112304C18.2824 0.0494138 18.1319 0.157226 18.0443 0.235838C17.9747 0.28076 17.9118 0.336912 17.8601 0.402048C16.2182 2.44598 14.5292 4.50788 12.8985 6.50016C10.4436 9.49867 7.90548 12.5983 5.46399 15.7091C4.01078 17.3847 2.50591 19.1658 1.33121 20.8234C1.17173 21.048 1.14254 21.3378 1.25035 21.5893C1.35816 21.8409 1.58951 22.0183 1.86128 22.0565C3.55258 22.2991 5.25736 22.5641 6.90598 22.8224C8.51193 23.0717 10.1606 23.33 11.8204 23.5681C9.41036 26.05 6.88801 28.5724 4.43754 31.0229C4.40609 31.0565 4.36342 31.0857 4.32074 31.1194C3.46948 31.7888 3.7682 32.375 3.93666 32.5951C4.04672 32.7411 4.20619 32.8422 4.38363 32.8849C5.6347 33.1768 6.9509 33.4217 8.22218 33.6575C8.82862 33.7698 9.4463 33.8844 10.0595 34.0056C8.78146 35.926 7.45851 37.8622 6.17151 39.7421C4.14105 42.7092 2.04097 45.7796 0.122815 48.7938C-0.0793324 49.1128 -0.0276725 49.5283 0.246349 49.7889C0.396837 49.9304 0.59 50.0022 0.785409 50.0022C0.94488 50.0022 1.1066 49.9528 1.24586 49.854C5.10462 47.0666 9.06222 44.1647 12.8895 41.3593C16.9886 38.3541 21.2292 35.2455 25.3508 32.2739C25.3957 32.2425 25.4519 32.2133 25.5058 32.1818C25.7528 32.0426 26.5053 31.6158 26.2245 30.8319C26.1212 30.54 25.8517 30.3356 25.5417 30.3131C24.5669 30.2412 23.6797 30.1671 22.797 30.0907C24.0526 28.9452 25.3373 27.7975 26.5929 26.6789C28.0281 25.3964 29.515 24.0712 30.9233 22.7775C31.0221 22.6854 31.1277 22.5956 31.231 22.5057C31.5882 22.1958 31.9947 21.8476 32.2934 21.3827C32.4282 21.1715 32.4552 20.9088 32.3653 20.6752C32.2755 20.4416 32.0801 20.2641 31.8375 20.199C28.6638 19.3387 25.4317 18.4403 22.2085 17.5239C23.5584 15.9966 24.9173 14.4558 26.2784 12.9105C29.5218 9.22914 32.8774 5.42428 36.1455 1.80585C36.1589 1.79237 36.1724 1.7789 36.1881 1.76542C36.3454 1.62167 36.7586 1.24657 36.6688 0.667086ZM16.6966 19.1321C16.7753 19.3949 16.9841 19.5948 17.2492 19.6644C18.8753 20.0912 20.5082 20.5494 22.0872 20.9919C23.4933 21.3849 24.9375 21.7892 26.393 22.1778C26.2739 22.2699 26.1526 22.3687 26.0336 22.4743C24.9667 23.4423 23.8841 24.4284 22.7925 25.4189C20.5509 27.4583 18.2779 29.5247 16.0565 31.5327C15.8319 31.7371 15.7421 32.0516 15.8319 32.3436C15.9217 32.6355 16.1688 32.8489 16.4675 32.8938C17.0425 32.9792 17.667 33.069 18.3318 33.1499C16.5327 34.4998 14.6797 35.8137 12.8761 37.094C12.3595 37.4624 11.8361 37.833 11.3105 38.2081C11.6767 37.6713 12.045 37.1344 12.4089 36.6066C13.323 35.2792 14.2686 33.9046 15.1424 32.5412C15.2794 32.3278 15.3041 32.0583 15.2097 31.8225C15.1154 31.5866 14.911 31.4114 14.6617 31.3508C13.2399 31.0139 11.7935 30.6904 10.347 30.3872C11.461 29.2125 12.62 28.0625 13.7498 26.944C15.1918 25.5155 16.6809 24.0398 18.0802 22.508C18.2756 22.2923 18.3385 21.9869 18.2397 21.7129C18.1409 21.4388 17.9005 21.2412 17.613 21.1985C15.4838 20.8885 13.3657 20.5516 11.3173 20.2237C9.82588 19.9856 8.29406 19.743 6.76672 19.5095C10.3986 14.914 14.1676 10.3477 17.8197 5.92067C18.4666 5.13679 19.1134 4.3529 19.7603 3.56902H30.0384C27.2689 6.64166 24.4232 9.8558 21.6672 12.9689C20.0568 14.7882 18.4508 16.6008 16.8606 18.3842C16.6809 18.5863 16.618 18.8716 16.6966 19.1321Z" fill="white"/>
</svg>
