<svg width="30" height="30" viewBox="0 0 30 30" fill="none" xmlns="http://www.w3.org/2000/svg">
<path d="M21.7208 0H8.27869C3.71382 0 0 3.714 0 8.27887V21.721C0 26.286 3.71382 29.9998 8.27869 29.9998H21.7208C26.286 29.9998 29.9998 26.2858 29.9998 21.721V8.27887C30 3.714 26.286 0 21.7208 0ZM27.3383 21.721C27.3383 24.8183 24.8183 27.3381 21.721 27.3381H8.27869C5.1815 27.3383 2.66173 24.8183 2.66173 21.721V8.27887C2.66173 5.18168 5.1815 2.66173 8.27869 2.66173H21.7208C24.8181 2.66173 27.3381 5.18168 27.3381 8.27887L27.3383 21.721Z" fill="white"/>
<path d="M14.9999 7.26988C10.7374 7.26988 7.26973 10.7376 7.26973 15.0001C7.26973 19.2624 10.7374 22.7299 14.9999 22.7299C19.2624 22.7299 22.7301 19.2624 22.7301 15.0001C22.7301 10.7376 19.2624 7.26988 14.9999 7.26988ZM14.9999 20.068C12.2053 20.068 9.93146 17.7945 9.93146 14.9999C9.93146 12.2051 12.2051 9.93143 14.9999 9.93143C17.7947 9.93143 20.0684 12.2051 20.0684 14.9999C20.0684 17.7945 17.7946 20.068 14.9999 20.068Z" fill="white"/>
<path d="M23.0543 5.01329C22.5415 5.01329 22.0377 5.22091 21.6756 5.58468C21.3116 5.94667 21.1024 6.45063 21.1024 6.96523C21.1024 7.47823 21.3118 7.98201 21.6756 8.34578C22.0375 8.70777 22.5415 8.91716 23.0543 8.91716C23.5689 8.91716 24.0711 8.70777 24.4349 8.34578C24.7986 7.98201 25.0063 7.47805 25.0063 6.96523C25.0063 6.45063 24.7986 5.94667 24.4349 5.58468C24.0729 5.22091 23.5689 5.01329 23.0543 5.01329Z" fill="white"/>
</svg>
