<svg width="34" height="38" viewBox="0 0 34 38" fill="none" xmlns="http://www.w3.org/2000/svg">
<path d="M31.1 8V33.7C31.1 36 29.2 37.9 26.9 37.9H6.9C4.6 37.9 2.7 36 2.7 33.7V8C2.7 7.4 3.1 7 3.7 7C4.3 7 4.7 7.4 4.7 8V33.7C4.7 34.9 5.7 35.9 6.9 35.9H26.9C28.1 35.9 29.1 34.9 29.1 33.7V8C29.1 7.4 29.5 7 30.1 7C30.7 7 31.1 7.5 31.1 8ZM32.8 2.6H17.9V1C17.9 0.4 17.5 0 16.9 0C16.3 0 15.9 0.4 15.9 1V2.6H1C0.4 2.6 0 3 0 3.6C0 4.2 0.4 4.6 1 4.6H32.7C33.3 4.6 33.7 4.2 33.7 3.6C33.7 3 33.3 2.6 32.8 2.6ZM10.6 26.7C10.8 26.9 11.1 27 11.3 27C11.5 27 11.8 26.9 12 26.7L16.9 21.8L21.8 26.7C22 26.9 22.3 27 22.5 27C22.7 27 23 26.9 23.2 26.7C23.6 26.3 23.6 25.7 23.2 25.3L18.3 20.4L23.2 15.5C23.6 15.1 23.6 14.5 23.2 14.1C22.8 13.7 22.2 13.7 21.8 14.1L16.9 19L12 14.1C11.6 13.7 11 13.7 10.6 14.1C10.2 14.5 10.2 15.1 10.6 15.5L15.5 20.4L10.6 25.3C10.2 25.7 10.2 26.3 10.6 26.7Z" fill="black"/>
</svg>
