<svg width="20" height="20" viewBox="0 0 20 20" fill="none" xmlns="http://www.w3.org/2000/svg">
<path fill-rule="evenodd" clip-rule="evenodd" d="M0.963086 0.966517C1.73887 0.188828 2.86118 0 4.06727 0C5.27295 0 6.39502 0.188861 7.17067 0.96661C7.94552 1.74357 8.13353 2.86675 8.13353 4.07459C8.13353 5.2828 7.94557 6.40614 7.17057 7.18304C6.39485 7.96067 5.27268 8.14918 4.06727 8.14918C2.86145 8.14918 1.73905 7.9607 0.963178 7.18313C0.187955 6.40621 0 5.28279 0 4.07459C0 2.86676 0.188007 1.7435 0.963086 0.966517ZM2.37903 2.37899C2.19553 2.56294 2 2.97698 2 4.07459C2 5.17284 2.19558 5.58671 2.37894 5.77048C2.56166 5.95359 2.97289 6.14919 4.06727 6.14919C5.16105 6.14919 5.57202 5.95362 5.75462 5.77057C5.93796 5.58679 6.13353 5.17283 6.13353 4.07459C6.13353 2.97699 5.93801 2.56287 5.75453 2.37889C5.57184 2.19571 5.16078 1.99999 4.06727 1.99999C2.97316 1.99999 2.56183 2.19574 2.37903 2.37899ZM10.7089 4.07607C10.7089 3.52379 11.1566 3.07608 11.7089 3.07608H18.9996C19.5518 3.07608 19.9996 3.52379 19.9996 4.07607C19.9996 4.62836 19.5518 5.07607 18.9996 5.07607H11.7089C11.1566 5.07607 10.7089 4.62836 10.7089 4.07607ZM12.8303 12.817C13.6061 12.0393 14.7282 11.8508 15.9336 11.8508C17.1391 11.8508 18.2612 12.0393 19.0369 12.817C19.8119 13.5939 19.9999 14.7172 19.9999 15.9254C19.9999 17.1336 19.8119 18.257 19.0369 19.0339C18.2612 19.8115 17.1391 20 15.9336 20C14.7282 20 13.6061 19.8115 12.8303 19.0339C12.0553 18.257 11.8674 17.1336 11.8674 15.9254C11.8674 14.7172 12.0553 13.5939 12.8303 12.817ZM14.2463 14.2294C14.063 14.4132 13.8674 14.8272 13.8674 15.9254C13.8674 17.0237 14.063 17.4376 14.2463 17.6214C14.4289 17.8044 14.8399 18 15.9336 18C17.0274 18 17.4384 17.8044 17.621 17.6214C17.8043 17.4376 17.9999 17.0237 17.9999 15.9254C17.9999 14.8272 17.8043 14.4132 17.621 14.2294C17.4384 14.0464 17.0274 13.8508 15.9336 13.8508C14.8399 13.8508 14.4289 14.0464 14.2463 14.2294ZM0.000494361 15.9244C0.000494361 15.3721 0.44821 14.9244 1.00049 14.9244H8.29219C8.84447 14.9244 9.29219 15.3721 9.29219 15.9244C9.29219 16.4766 8.84447 16.9244 8.29219 16.9244H1.00049C0.44821 16.9244 0.000494361 16.4766 0.000494361 15.9244Z" fill="#FA3948"/>
</svg>
