<svg width="36" height="23" viewBox="0 0 36 23" fill="none" xmlns="http://www.w3.org/2000/svg">
<path d="M24.5443 0C22.1095 0 19.8547 0.768857 17.9992 2.07C19.1086 2.84707 20.074 3.81636 20.848 4.92857H15.1504C15.9244 3.81636 16.8898 2.84707 17.9992 2.07C16.1436 0.768857 13.8888 0 11.454 0C5.12813 0 0 5.14871 0 11.5C0 17.8513 5.12813 23 11.454 23C13.8888 23 16.1436 22.2311 17.9992 20.93C16.8898 20.1529 15.9244 19.1836 15.1504 18.0714H20.8496C20.074 19.1836 19.1086 20.1529 18.0008 20.93C19.8564 22.2311 22.1112 23 24.546 23C30.8719 23 36 17.8513 36 11.5C35.9984 5.14871 30.8702 0 24.5443 0ZM22.4123 8.21429C22.571 8.74821 22.7002 9.29364 22.7804 9.85714H13.2179C13.2981 9.29364 13.4274 8.74821 13.5861 8.21429H22.4123ZM13.5861 14.7857C13.4274 14.2518 13.2981 13.7064 13.2179 13.1429H22.7821C22.7019 13.7064 22.5726 14.2518 22.4139 14.7857H13.5861Z" fill="white"/>
</svg>
