<svg width="63" height="23" viewBox="0 0 63 23" fill="none" xmlns="http://www.w3.org/2000/svg">
<path d="M25.9165 21.9009C25.6984 21.9009 25.5306 21.7105 25.5306 21.5027V8.27857C25.5306 5.63027 27.6281 3.46663 30.1954 3.46663H33.9708C36.5382 3.46663 38.6189 5.63027 38.6189 8.26126V11.0653C38.6189 13.7136 36.5214 15.8773 33.9541 15.8773H28.6181C28.3999 15.8773 28.2321 15.6869 28.2321 15.4792C28.2321 15.2715 28.4167 15.0811 28.6181 15.0811H33.9541C36.0851 15.0811 37.8302 13.2982 37.8302 11.0826V8.27857C37.8302 6.08031 36.1019 4.29747 33.9708 4.29747H30.1954C28.0643 4.29747 26.3192 6.08031 26.3192 8.29588V21.5027C26.3192 21.7105 26.1347 21.9009 25.9165 21.9009ZM42.6628 15.9638C42.4447 15.9638 42.2769 15.7734 42.2769 15.5657V5.69951C42.2769 4.92059 41.6728 4.29747 40.9177 4.29747H39.2733C39.0551 4.29747 38.8873 4.10706 38.8873 3.89935C38.8873 3.69165 39.0719 3.50124 39.2733 3.50124H40.9177C42.0923 3.50124 43.0655 4.48786 43.0655 5.71681V15.583C43.0487 15.7734 42.8809 15.9638 42.6628 15.9638Z" fill="white"/>
<path d="M42.3106 2.35837L41.5721 1.59677C41.3875 1.40637 41.3875 1.0948 41.5721 0.904403L42.3106 0.1428C42.4952 -0.0476002 42.7973 -0.0476002 42.9819 0.1428L43.7203 0.904403C43.9049 1.0948 43.9049 1.40637 43.7203 1.59677L42.9819 2.35837C42.7973 2.54877 42.4952 2.54877 42.3106 2.35837Z" fill="white"/>
<path d="M47.4282 15.8759H45.8006C45.5825 15.8759 45.4147 15.6855 45.4147 15.4778C45.4147 15.2701 45.5992 15.0797 45.8006 15.0797H47.4282C48.1666 15.0797 48.8545 14.7855 49.3747 14.2489L53.1838 10.3197C53.5026 9.99082 53.9053 9.81773 54.3583 9.81773C54.8114 9.81773 55.2141 9.99082 55.5329 10.3197L59.3252 14.2316C59.8454 14.7681 60.5334 15.0624 61.2717 15.0624H62.5973C62.8154 15.0624 62.9832 15.2528 62.9832 15.4605C62.9832 15.6682 62.7986 15.8586 62.5973 15.8586H61.2717C60.332 15.8586 59.4259 15.4778 58.7547 14.7855L54.9624 10.8736C54.7946 10.7005 54.5765 10.614 54.3416 10.614C54.1066 10.614 53.8885 10.7005 53.7207 10.8736L49.9117 14.8028C49.274 15.4951 48.3847 15.8759 47.4282 15.8759ZM54.3583 9.54078C53.9221 9.54078 53.5026 9.36769 53.1838 9.03882L49.3747 5.10964C48.8545 4.57306 48.1666 4.2788 47.4282 4.2788H45.8006C45.5825 4.2788 45.4147 4.0884 45.4147 3.88069C45.4147 3.67298 45.5992 3.48258 45.8006 3.48258H47.4282C48.3679 3.48258 49.274 3.86338 49.9452 4.55575L53.7375 8.46762C53.9053 8.64071 54.1234 8.72725 54.3583 8.72725C54.5933 8.72725 54.8114 8.64071 54.9792 8.46762L58.7715 4.55575C59.4427 3.86338 60.332 3.48258 61.2885 3.48258H62.6141C62.8322 3.48258 63 3.67298 63 3.88069C63 4.0884 62.8154 4.2788 62.6141 4.2788H61.2885C60.5501 4.2788 59.8622 4.57306 59.342 5.10964L55.5497 9.02151C55.2141 9.35038 54.7946 9.54078 54.3583 9.54078Z" fill="white"/>
<path d="M16.2338 17.9717C15.4116 17.9717 14.6565 17.6428 14.0692 17.0543L10.9481 13.8348C10.73 13.6098 10.344 13.6098 10.1259 13.8348L7.00482 17.0543C6.43431 17.6428 5.66243 17.9717 4.84021 17.9717H4.21936L8.16264 22.0393C9.40435 23.3202 11.4012 23.3202 12.6261 22.0393L16.5862 17.9544H16.2338V17.9717Z" fill="white"/>
<path d="M4.84022 6.5821C5.66243 6.5821 6.41753 6.91098 7.00483 7.49949L10.1427 10.7363C10.3608 10.9613 10.73 10.9613 10.9649 10.7363L14.086 7.5168C14.6565 6.92829 15.4284 6.59941 16.2506 6.59941H16.6197L12.6429 2.51446C11.4012 1.23358 9.40436 1.23358 8.17943 2.51446L4.21936 6.5821H4.84022Z" fill="white"/>
<path d="M19.8757 9.97393L17.4762 7.49872C17.4259 7.51603 17.3588 7.53334 17.3084 7.53334H16.2177C15.6472 7.53334 15.1103 7.77567 14.7075 8.17378L11.6033 11.4106C11.318 11.7048 10.9321 11.8606 10.5461 11.8606C10.1602 11.8606 9.77427 11.7048 9.48901 11.4106L6.35118 8.17378C5.94846 7.75836 5.39472 7.53334 4.84099 7.53334H3.4986C3.44826 7.53334 3.38114 7.51603 3.3308 7.49872L0.931282 9.97393C-0.310427 11.2548 -0.310427 13.3146 0.931282 14.5782L3.3308 17.0534C3.38114 17.0361 3.43148 17.0187 3.4986 17.0187H4.84099C5.4115 17.0187 5.94846 16.7764 6.35118 16.3783L9.48901 13.1415C10.0595 12.553 11.0495 12.553 11.6033 13.1415L14.7243 16.361C15.127 16.7764 15.6808 17.0014 16.2345 17.0014H17.3252C17.3923 17.0014 17.4427 17.0187 17.493 17.0361L19.8925 14.5609C21.1174 13.3146 21.1175 11.2548 19.8757 9.97393Z" fill="white"/>
<path d="M29.1725 20.3604C28.9877 20.3604 28.7862 20.4124 28.5846 20.447V21.2432C28.719 21.2951 28.8869 21.3298 29.0381 21.3298C29.4244 21.3298 29.6092 21.1913 29.6092 20.8451C29.626 20.5162 29.4748 20.3604 29.1725 20.3604ZM28.4502 20.2739H28.551L28.5678 20.3431C28.7526 20.2912 29.0045 20.2393 29.1725 20.2393C29.3236 20.2393 29.458 20.2566 29.5756 20.3604C29.7099 20.4816 29.7603 20.6547 29.7603 20.8624C29.7603 21.0701 29.6931 21.2605 29.5084 21.3817C29.374 21.4509 29.2061 21.4855 29.0549 21.4855C28.9037 21.4855 28.7358 21.4682 28.5846 21.4163V21.8836H28.4502V20.2739Z" fill="white"/>
<path d="M30.7498 20.3606C30.3634 20.3606 30.1787 20.4817 30.1787 20.8452C30.1787 21.1914 30.3467 21.3472 30.7498 21.3472C31.1361 21.3472 31.3208 21.226 31.3208 20.8625C31.304 20.5164 31.1361 20.3606 30.7498 20.3606ZM31.2536 21.3472C31.1193 21.4511 30.9513 21.4684 30.7498 21.4684C30.5482 21.4684 30.3634 21.4337 30.2459 21.3472C30.0947 21.2433 30.0443 21.0703 30.0443 20.8625C30.0443 20.6548 30.0947 20.4817 30.2459 20.3779C30.3802 20.2913 30.5482 20.2567 30.7498 20.2567C30.9513 20.2567 31.1193 20.2913 31.2536 20.3779C31.4048 20.4817 31.4552 20.6548 31.4552 20.8625C31.4552 21.0703 31.388 21.2433 31.2536 21.3472Z" fill="white"/>
<path d="M33.0985 21.4329L32.6622 20.4636H32.6454L32.2258 21.4329H32.1083L31.6384 20.2732H31.7895L32.1755 21.2425L32.595 20.2732H32.7293L33.1489 21.2425H33.1656L33.5349 20.2732H33.6859L33.216 21.4329H33.0985Z" fill="white"/>
<path d="M34.5252 20.3604C34.1557 20.3604 34.0381 20.5335 34.0213 20.7585H35.0291C35.0291 20.4989 34.8947 20.3604 34.5252 20.3604ZM34.5252 21.4682C34.3068 21.4682 34.1725 21.4336 34.0549 21.3471C33.9205 21.2259 33.8701 21.0528 33.8701 20.8624C33.8701 20.672 33.9373 20.4816 34.0885 20.3604C34.2061 20.2739 34.374 20.2393 34.5252 20.2393C34.6763 20.2393 34.8443 20.2566 34.9787 20.3604C35.1466 20.4816 35.1802 20.672 35.1802 20.897H34.0213C34.0213 21.1394 34.1053 21.3471 34.542 21.3471C34.7435 21.3471 34.9451 21.3124 35.1298 21.2778V21.399C34.9283 21.4336 34.7267 21.4682 34.5252 21.4682Z" fill="white"/>
<path d="M35.5481 21.4336V20.2739H35.6489L35.6657 20.3431C35.9008 20.2739 36.0184 20.2393 36.2199 20.2393H36.2367V20.3604H36.2031C36.0184 20.3604 35.9176 20.3777 35.6657 20.447V21.4163H35.5481V21.4336Z" fill="white"/>
<path d="M37.0086 20.3604C36.6391 20.3604 36.5215 20.5335 36.5048 20.7585H37.5125C37.5125 20.4989 37.3781 20.3604 37.0086 20.3604ZM37.0086 21.4682C36.7903 21.4682 36.6559 21.4336 36.5383 21.3471C36.404 21.2259 36.3536 21.0528 36.3536 20.8624C36.3536 20.672 36.4208 20.4816 36.5719 20.3604C36.6895 20.2739 36.8575 20.2393 37.0086 20.2393C37.1598 20.2393 37.3277 20.2566 37.4621 20.3604C37.6301 20.4816 37.6637 20.672 37.6637 20.897H36.5048C36.5048 21.1394 36.5887 21.3471 37.0254 21.3471C37.227 21.3471 37.4285 21.3124 37.6133 21.2778V21.399C37.4117 21.4336 37.2102 21.4682 37.0086 21.4682Z" fill="white"/>
<path d="M39.1066 20.4288C38.9723 20.3769 38.8043 20.3422 38.6532 20.3422C38.2668 20.3422 38.0821 20.4807 38.0821 20.8269C38.0821 21.1558 38.2333 21.3116 38.5356 21.3116C38.7203 21.3116 38.9219 21.2596 39.1234 21.225V20.4288H39.1066ZM39.1234 21.4327L39.1066 21.3635C38.9219 21.4154 38.6699 21.4673 38.502 21.4673C38.3508 21.4673 38.2165 21.45 38.0989 21.3462C37.9645 21.225 37.9141 21.0519 37.9141 20.8442C37.9141 20.6365 37.9813 20.4461 38.1661 20.3422C38.3004 20.273 38.4684 20.2384 38.6196 20.2384C38.7707 20.2384 38.9219 20.273 39.0898 20.3076V19.771H39.2242V21.4327H39.1234Z" fill="white"/>
<path d="M41.1701 20.3596C40.9853 20.3596 40.7838 20.4115 40.5822 20.4461V21.2423C40.7334 21.2942 40.8845 21.3289 41.0357 21.3289C41.422 21.3289 41.6068 21.1904 41.6068 20.8442C41.6068 20.5153 41.4556 20.3596 41.1701 20.3596ZM41.506 21.3635C41.3716 21.4327 41.2037 21.4673 41.0525 21.4673C40.8845 21.4673 40.7166 21.4327 40.5486 21.3808V21.4327H40.4478V19.771H40.5822V20.3249C40.767 20.2903 41.0021 20.2211 41.1869 20.2211C41.338 20.2211 41.4724 20.2384 41.59 20.3422C41.7243 20.4634 41.7747 20.6365 41.7747 20.8442C41.7579 21.0519 41.6907 21.2596 41.506 21.3635Z" fill="white"/>
<path d="M41.9245 21.8836V21.7624C41.9917 21.7624 42.0421 21.7797 42.0925 21.7797C42.2605 21.7797 42.3612 21.7278 42.4452 21.5374L42.4956 21.4508L41.9077 20.2911H42.0589L42.5628 21.2951H42.5796L43.0667 20.2911H43.2178L42.5796 21.6066C42.462 21.849 42.3444 21.9182 42.1093 21.9182C42.0421 21.8836 41.9917 21.8836 41.9245 21.8836Z" fill="white"/>
<path d="M45.0127 20.7752H44.576V21.1906H45.0127C45.3151 21.1906 45.4326 21.156 45.4326 20.9829C45.4326 20.7925 45.2815 20.7752 45.0127 20.7752ZM44.9455 20.1001H44.5928V20.5156H44.9455C45.2479 20.5156 45.3654 20.4809 45.3654 20.3078C45.3486 20.1174 45.2143 20.1001 44.9455 20.1001ZM45.6174 21.3291C45.4494 21.4329 45.2647 21.4329 44.912 21.4329H44.2401V19.8578H44.8952C45.1975 19.8578 45.3822 19.8578 45.5502 19.9617C45.6678 20.0309 45.7014 20.1348 45.7014 20.2732C45.7014 20.4463 45.6342 20.5502 45.4662 20.6194V20.6367C45.6678 20.6886 45.7853 20.7925 45.7853 21.0175C45.7853 21.156 45.735 21.2598 45.6174 21.3291Z" fill="white"/>
<path d="M47.1105 20.9489C46.9761 20.9316 46.8417 20.9316 46.7074 20.9316C46.4722 20.9316 46.3883 20.9836 46.3883 21.0874C46.3883 21.1913 46.4554 21.2432 46.6402 21.2432C46.7914 21.2432 46.9593 21.2086 47.1105 21.174V20.9489ZM47.1777 21.4336L47.1609 21.3644C46.9761 21.4163 46.741 21.4682 46.5394 21.4682C46.4218 21.4682 46.2875 21.4509 46.2035 21.3817C46.1195 21.3124 46.0859 21.2259 46.0859 21.1047C46.0859 20.9663 46.1363 20.8451 46.2707 20.7932C46.3883 20.7412 46.5562 20.7239 46.6906 20.7239C46.8082 20.7239 46.9761 20.7239 47.0937 20.7412V20.7239C47.0937 20.5335 46.9761 20.4816 46.657 20.4816C46.5394 20.4816 46.3883 20.4816 46.2371 20.4989V20.2566C46.3883 20.2393 46.573 20.2393 46.7242 20.2393C46.9257 20.2393 47.1273 20.2566 47.2448 20.3431C47.3792 20.4297 47.396 20.5681 47.396 20.7412V21.4336H47.1777Z" fill="white"/>
<path d="M48.9059 21.4336V20.7932C48.9059 20.5855 48.8052 20.4989 48.6204 20.4989C48.486 20.4989 48.3013 20.5335 48.1669 20.5681V21.4336H47.831V20.2739H48.0829L48.0997 20.3431C48.3013 20.2912 48.5196 20.2393 48.7044 20.2393C48.8387 20.2393 48.9899 20.2566 49.0907 20.3604C49.1747 20.447 49.2083 20.5508 49.2083 20.7239V21.4336H48.9059Z" fill="white"/>
<path d="M50.1137 21.4681C49.9625 21.4681 49.8113 21.4508 49.6938 21.3469C49.5594 21.2258 49.509 21.0527 49.509 20.845C49.509 20.6546 49.5594 20.4641 49.7441 20.343C49.8785 20.2564 50.0633 20.2218 50.248 20.2218C50.3824 20.2218 50.5 20.2391 50.6511 20.2391V20.4815C50.5336 20.4642 50.3992 20.4642 50.2984 20.4642C49.9961 20.4642 49.8617 20.568 49.8617 20.8276C49.8617 21.0873 49.9625 21.1911 50.2144 21.1911C50.3656 21.1911 50.5336 21.1565 50.6847 21.1392V21.3815C50.4832 21.4335 50.2984 21.4681 50.1137 21.4681Z" fill="white"/>
<path d="M51.5904 20.4816C51.2881 20.4816 51.1537 20.5855 51.1537 20.8451C51.1537 21.1047 51.2881 21.2259 51.5904 21.2259C51.8927 21.2259 52.0103 21.1394 52.0103 20.8624C52.0271 20.6028 51.8927 20.4816 51.5904 20.4816ZM52.1279 21.3471C51.9935 21.4509 51.8087 21.4682 51.5904 21.4682C51.3721 21.4682 51.1873 21.4336 51.0529 21.3471C50.9018 21.2432 50.8346 21.0701 50.8346 20.8624C50.8346 20.6547 50.885 20.4816 51.0529 20.3604C51.1873 20.2739 51.3721 20.2393 51.5904 20.2393C51.8087 20.2393 51.9935 20.2739 52.1279 20.3604C52.279 20.4643 52.3462 20.6374 52.3462 20.8451C52.3462 21.0528 52.2958 21.2432 52.1279 21.3471Z" fill="white"/>
<path d="M54.1577 21.4678C53.973 21.4678 53.7546 21.4331 53.6035 21.312C53.4187 21.1562 53.3683 20.9139 53.3683 20.6542C53.3683 20.4292 53.4355 20.1523 53.6875 19.9792C53.8722 19.858 54.1073 19.8234 54.3425 19.8234C54.5104 19.8234 54.6952 19.8407 54.88 19.858V20.135C54.712 20.1177 54.5104 20.1177 54.3593 20.1177C53.9226 20.1177 53.7378 20.2907 53.7378 20.6542C53.7378 21.0177 53.9058 21.1908 54.2249 21.1908C54.4433 21.1908 54.6784 21.1389 54.9136 21.1043V21.3812C54.6616 21.4158 54.4097 21.4678 54.1577 21.4678Z" fill="white"/>
<path d="M55.8189 20.4471C55.5502 20.4471 55.4494 20.551 55.4326 20.7241H56.1884C56.1884 20.5337 56.0877 20.4471 55.8189 20.4471ZM55.7853 21.4684C55.6006 21.4684 55.4326 21.4511 55.2982 21.3472C55.1639 21.226 55.1135 21.0529 55.1135 20.8625C55.1135 20.6895 55.1639 20.4817 55.3318 20.3779C55.4662 20.274 55.651 20.2567 55.8189 20.2567C55.9869 20.2567 56.1716 20.274 56.306 20.3779C56.4907 20.5164 56.5075 20.7068 56.5075 20.9491H55.4326C55.4326 21.1222 55.5334 21.2433 55.8525 21.2433C56.0541 21.2433 56.2724 21.2087 56.4572 21.1914V21.4164C56.2388 21.4338 56.0037 21.4684 55.7853 21.4684Z" fill="white"/>
<path d="M57.9167 21.4336V20.7932C57.9167 20.5855 57.8159 20.4989 57.6312 20.4989C57.4968 20.4989 57.312 20.5335 57.1777 20.5681V21.4336H56.8586V20.2739H57.1105L57.1273 20.3431C57.3288 20.2912 57.5472 20.2393 57.7319 20.2393C57.8663 20.2393 58.0175 20.2566 58.1182 20.3604C58.2022 20.447 58.2358 20.5508 58.2358 20.7239V21.4336H57.9167Z" fill="white"/>
<path d="M59.1245 21.4676C58.9733 21.4676 58.839 21.4157 58.755 21.2945C58.7046 21.208 58.671 21.1041 58.671 20.9484V20.5156H58.4359V20.2733H58.671L58.7046 19.9271H58.9901V20.2733H59.4436V20.5156H58.9901V20.8964C58.9901 20.983 58.9901 21.0695 59.0237 21.1215C59.0573 21.208 59.1245 21.2253 59.2253 21.2253C59.2925 21.2253 59.3932 21.208 59.4436 21.208V21.433C59.3597 21.4503 59.2253 21.4676 59.1245 21.4676Z" fill="white"/>
<path d="M59.7447 21.4336V20.2739H59.9967L60.0135 20.3431C60.215 20.2912 60.383 20.2393 60.5677 20.2393C60.5845 20.2393 60.5845 20.2393 60.6013 20.2393V20.5162C60.5677 20.5162 60.5173 20.5162 60.4837 20.5162C60.3326 20.5162 60.215 20.5335 60.0471 20.5681V21.4336H59.7447Z" fill="white"/>
<path d="M61.7592 20.9489C61.6249 20.9316 61.4905 20.9316 61.3561 20.9316C61.121 20.9316 61.037 20.9836 61.037 21.0874C61.037 21.1913 61.1042 21.2432 61.289 21.2432C61.4401 21.2432 61.6081 21.2086 61.7592 21.174V20.9489ZM61.8264 21.4336L61.8096 21.3644C61.6249 21.4163 61.3897 21.4682 61.1882 21.4682C61.0706 21.4682 60.9362 21.4509 60.8523 21.3817C60.7683 21.3124 60.7347 21.2259 60.7347 21.1047C60.7347 20.9663 60.7851 20.8451 60.9194 20.7932C61.037 20.7412 61.205 20.7239 61.3393 20.7239C61.4569 20.7239 61.6249 20.7239 61.7424 20.7412V20.7239C61.7424 20.5335 61.6249 20.4816 61.3057 20.4816C61.1882 20.4816 61.037 20.4816 60.8859 20.4989V20.2566C61.037 20.2393 61.2218 20.2393 61.3729 20.2393C61.5745 20.2393 61.776 20.2566 61.8936 20.3431C62.028 20.4297 62.0448 20.5681 62.0448 20.7412V21.4336H61.8264Z" fill="white"/>
<path d="M62.4798 19.771H62.8005V21.4327H62.4798V19.771Z" fill="white"/>
</svg>
