<svg width="36" height="36" viewBox="0 0 36 36" fill="none" xmlns="http://www.w3.org/2000/svg">
<path d="M36 4.5C36 3.30653 35.5259 2.16193 34.682 1.31802C33.8381 0.474106 32.6935 -2.89066e-07 31.5 -3.93402e-07L4.5 -2.75382e-06C3.30653 -2.85815e-06 2.16194 0.474103 1.31802 1.31802C0.474109 2.16193 2.85815e-06 3.30652 2.75382e-06 4.5L3.93402e-07 31.5C2.89066e-07 32.6935 0.474106 33.8381 1.31802 34.682C2.16193 35.5259 3.30653 36 4.5 36L31.5 36C32.6935 36 33.8381 35.5259 34.682 34.682C35.5259 33.8381 36 32.6935 36 31.5L36 4.5ZM25.875 19.125L12.8408 19.125L17.6715 23.9535C17.8827 24.1647 18.0014 24.4513 18.0014 24.75C18.0014 25.0487 17.8827 25.3353 17.6715 25.5465C17.4603 25.7577 17.1737 25.8764 16.875 25.8764C16.5763 25.8764 16.2897 25.7577 16.0785 25.5465L9.3285 18.7965C9.22373 18.692 9.14061 18.5678 9.0839 18.4312C9.02719 18.2945 8.99799 18.148 8.99799 18C8.99799 17.852 9.02719 17.7055 9.0839 17.5688C9.14061 17.4321 9.22373 17.308 9.3285 17.2035L16.0785 10.4535C16.2897 10.2423 16.5763 10.1236 16.875 10.1236C17.1737 10.1236 17.4603 10.2423 17.6715 10.4535C17.8827 10.6647 18.0014 10.9513 18.0014 11.25C18.0014 11.5487 17.8827 11.8353 17.6715 12.0465L12.8408 16.875L25.875 16.875C26.1734 16.875 26.4595 16.9935 26.6705 17.2045C26.8815 17.4155 27 17.7016 27 18C27 18.2984 26.8815 18.5845 26.6705 18.7955C26.4595 19.0065 26.1734 19.125 25.875 19.125Z" fill="#F83B4D"/>
</svg>
