<svg width="25" height="23" viewBox="0 0 25 23" fill="none" xmlns="http://www.w3.org/2000/svg">
<path d="M24.8761 0.367682C24.7401 0.137827 24.512 0 24.2676 0H19.2031C18.8992 0 18.627 0.212357 18.5187 0.533809L14.4425 12.6323L12.4434 2.85915C12.1081 1.2197 10.8351 0.0747461 9.34797 0.0747461H0.732098C0.346241 0.0747461 0.0269509 0.413912 0.00158312 0.84986C-0.0235939 1.28602 0.254307 1.66969 0.636921 1.72694C0.657139 1.72996 2.68122 2.04299 5.15543 3.27976C5.56036 3.48218 5.99295 3.71808 6.44137 3.99049L10.6488 22.3785C10.7325 22.7444 11.0242 23 11.3579 23H16.5217C16.8187 23 17.0863 22.7969 17.1992 22.4858L24.9449 1.14496C25.0378 0.888961 25.0121 0.597537 24.8761 0.367682ZM5.69063 1.73407H9.34797C10.1496 1.73407 10.8357 2.35062 11.0163 3.23353L11.6606 6.38388C11.1315 5.75243 10.5572 5.15749 9.94002 4.60229C8.69127 3.47937 7.26553 2.51631 5.70208 1.73968C5.69826 1.73774 5.69445 1.7358 5.69063 1.73407Z" fill="white"/>
</svg>
