<svg width="37" height="25" viewBox="0 0 37 25" fill="none" xmlns="http://www.w3.org/2000/svg">
<path d="M20.0026 14.2275C23.9324 14.2423 27.5251 11.1196 27.5251 7.322C27.5251 3.16833 23.9324 0.297852 20.0026 0.297852H16.6168C12.6334 0.297852 9.36246 3.16833 9.36246 7.322C9.36246 11.1196 12.6411 14.2423 16.6168 14.2275H20.0026Z" fill="#004C94"/>
<path d="M18.1337 11.0235V3.47263C19.6964 4.05118 20.8148 5.51981 20.8148 7.24805C20.8071 8.96887 19.6964 10.4375 18.1337 11.0235ZM12.465 7.24805C12.465 5.52723 13.5758 4.0586 15.1461 3.47263V11.0235C13.5758 10.4375 12.465 8.96887 12.465 7.24805ZM16.6399 0.869141C13.0012 0.869141 10.0597 3.72481 10.052 7.24805C10.052 10.7713 13.0012 13.6195 16.6399 13.627C20.2786 13.627 23.2278 10.7713 23.2278 7.24805C23.2201 3.72481 20.2786 0.869141 16.6399 0.869141Z" fill="white"/>
<path d="M2.00863 18.9826C2.00863 19.5464 2.42995 19.6131 2.79765 19.6131C4.44462 19.6131 4.98085 18.4114 4.98085 17.3136C4.98085 15.9339 4.06927 14.9399 2.59848 14.9399C2.28441 14.9399 2.13886 14.9622 2.00098 14.9696V18.9826H2.00863ZM1.26558 15.5259C1.26558 14.8657 0.905537 14.9102 0.568481 14.9028V14.71C0.867235 14.7248 1.16599 14.7248 1.46474 14.7248C1.78648 14.7248 2.21546 14.71 2.78232 14.71C4.75104 14.71 5.82349 15.9858 5.82349 17.2914C5.82349 18.0183 5.37919 19.8579 2.6904 19.8579C2.29973 19.8579 1.94735 19.8431 1.58731 19.8431C1.24259 19.8431 0.913197 19.8505 0.568481 19.8579V19.665C1.0281 19.6205 1.2426 19.6057 1.26558 19.1087V15.5259Z" fill="black"/>
<path d="M6.90355 15.348C6.70438 15.348 6.52818 15.17 6.52818 14.9771C6.52818 14.7917 6.71204 14.6211 6.90355 14.6211C7.10273 14.6211 7.27893 14.7769 7.27893 14.9771C7.27127 15.1774 7.10273 15.348 6.90355 15.348ZM6.08386 19.6577H6.22942C6.44391 19.6577 6.59713 19.6577 6.59713 19.4129V17.4176C6.59713 17.0912 6.48222 17.0467 6.19878 16.9058V16.7871C6.55883 16.6832 6.98016 16.5423 7.0108 16.52C7.06443 16.4904 7.1104 16.4829 7.1487 16.4829C7.187 16.4829 7.20232 16.5274 7.20232 16.5868V19.4129C7.20232 19.6577 7.37085 19.6577 7.58535 19.6577H7.71558V19.8506C7.45512 19.8506 7.187 19.8358 6.91888 19.8358C6.6431 19.8358 6.36731 19.8432 6.09153 19.8506V19.6577H6.08386Z" fill="black"/>
<path d="M8.43561 17.4615C8.43561 17.1871 8.35135 17.1129 7.99131 16.9794V16.8385C8.3207 16.7346 8.62712 16.6382 8.99482 16.4824C9.0178 16.4824 9.04078 16.4973 9.04078 16.5566V17.0387C9.47742 16.7346 9.84512 16.4898 10.3584 16.4898C11.0018 16.4898 11.2317 16.9497 11.2317 17.5209V19.4197C11.2317 19.6645 11.4002 19.6645 11.6147 19.6645H11.7526V19.8573C11.4844 19.8573 11.2163 19.8425 10.9482 19.8425C10.6724 19.8425 10.3967 19.8499 10.1286 19.8573V19.6645H10.2664C10.4809 19.6645 10.6341 19.6645 10.6341 19.4197V17.5134C10.6341 17.0906 10.366 16.8904 9.93705 16.8904C9.69192 16.8904 9.30889 17.0832 9.0561 17.2464V19.4271C9.0561 19.6719 9.22463 19.6719 9.43912 19.6719H9.57701V19.8647C9.3089 19.8647 9.04078 19.8499 8.77267 19.8499C8.4969 19.8499 8.22878 19.8573 7.953 19.8647V19.6719H8.0909C8.30539 19.6719 8.45859 19.6719 8.45859 19.4271V17.4615H8.43561Z" fill="black"/>
<path d="M13.6752 17.5805C13.8667 17.5805 13.8897 17.4841 13.8897 17.3951C13.8897 17.0168 13.6522 16.7202 13.2309 16.7202C12.7636 16.7202 12.4495 17.0539 12.3576 17.5805H13.6752ZM12.3346 17.8179C12.3193 17.8846 12.3193 17.9959 12.3346 18.2481C12.3806 18.9453 12.8479 19.5238 13.4531 19.5238C13.8744 19.5238 14.1961 19.3013 14.4795 19.0269L14.5868 19.1307C14.2344 19.5832 13.8054 19.9614 13.1773 19.9614C11.9669 19.9614 11.7218 18.8266 11.7218 18.3593C11.7218 16.913 12.7253 16.4902 13.2615 16.4902C13.882 16.4902 14.5408 16.8685 14.5485 17.6473C14.5485 17.6918 14.5485 17.7363 14.5408 17.7808L14.4719 17.8253H12.3346V17.8179Z" fill="black"/>
<path d="M14.717 19.6573H14.9239C15.1384 19.6573 15.2916 19.6573 15.2916 19.4125V17.343C15.2916 17.113 15.0081 17.0685 14.8932 17.0092V16.8979C15.4448 16.668 15.7512 16.4751 15.8202 16.4751C15.8661 16.4751 15.8891 16.4973 15.8891 16.5715V17.2317H15.9044C16.0959 16.9424 16.4177 16.4751 16.8773 16.4751C17.0688 16.4751 17.314 16.6012 17.314 16.8682C17.314 17.0685 17.1684 17.2465 16.9539 17.2465C16.7164 17.2465 16.7165 17.0685 16.4483 17.0685C16.3181 17.0685 15.8968 17.2391 15.8968 17.6768V19.4051C15.8968 19.6499 16.05 19.6499 16.2645 19.6499H16.6935V19.8428C16.2721 19.8354 15.9581 19.8279 15.6286 19.8279C15.3146 19.8279 15.0005 19.8354 14.7247 19.8428V19.6573H14.717Z" fill="black"/>
<path d="M17.6509 18.8269C17.7505 19.3165 18.057 19.7244 18.6085 19.7244C19.0605 19.7244 19.2214 19.4574 19.2214 19.2052C19.2214 18.3373 17.5667 18.6192 17.5667 17.4323C17.5667 17.0169 17.9114 16.4902 18.7464 16.4902C18.9916 16.4902 19.3133 16.557 19.6121 16.7054L19.6657 17.4546H19.4895C19.4129 16.9947 19.1448 16.7276 18.6622 16.7276C18.3557 16.7276 18.0723 16.8982 18.0723 17.2172C18.0723 18.0777 19.8342 17.8106 19.8342 18.9678C19.8342 19.4574 19.4282 19.9692 18.5243 19.9692C18.2178 19.9692 17.8655 19.8654 17.5973 19.717L17.5131 18.8714L17.6509 18.8269Z" fill="black"/>
<path d="M26.6978 16.0454H26.5063C26.3608 15.185 25.7326 14.8364 24.8823 14.8364C24.0091 14.8364 22.7375 15.4001 22.7375 17.1729C22.7375 18.6638 23.8329 19.7319 25.0049 19.7319C25.7556 19.7319 26.3837 19.2349 26.537 18.4561L26.7131 18.5006L26.537 19.5761C26.2152 19.769 25.3573 19.9692 24.8517 19.9692C23.0745 19.9692 21.9485 18.8566 21.9485 17.2025C21.9485 15.6894 23.3426 14.6064 24.8287 14.6064C25.4415 14.6064 26.039 14.7993 26.6212 14.9996L26.6978 16.0454Z" fill="black"/>
<path d="M26.9736 19.6577H27.1192C27.3337 19.6577 27.4869 19.6577 27.4869 19.4129V15.3107C27.4869 14.8285 27.372 14.8137 27.0809 14.7395V14.6208C27.3873 14.5244 27.7013 14.3908 27.8622 14.3018C27.9465 14.2573 28.0077 14.2202 28.0307 14.2202C28.0767 14.2202 28.092 14.2647 28.092 14.3241V19.4129C28.092 19.6577 28.2605 19.6577 28.475 19.6577H28.6052V19.8506C28.3448 19.8506 28.0843 19.8358 27.8086 19.8358C27.5328 19.8358 27.2647 19.8432 26.9813 19.8506V19.6577H26.9736Z" fill="black"/>
<path d="M31.8609 19.4427C31.8609 19.5762 31.9452 19.5836 32.0754 19.5836C32.1673 19.5836 32.2823 19.5762 32.3818 19.5762V19.732C32.0524 19.7616 31.432 19.9174 31.2864 19.9619L31.2481 19.9397V19.3462C30.7961 19.7097 30.4438 19.9619 29.8999 19.9619C29.4862 19.9619 29.0649 19.7023 29.0649 19.0866V17.2025C29.0649 17.0096 29.0342 16.8242 28.6129 16.7871V16.6462C28.8887 16.6387 29.4939 16.5942 29.5934 16.5942C29.6777 16.5942 29.6777 16.6462 29.6777 16.8094V18.7083C29.6777 18.9308 29.6777 19.5614 30.3365 19.5614C30.597 19.5614 30.934 19.3685 31.2558 19.1163V17.1357C31.2558 16.9874 30.8881 16.9058 30.62 16.8316V16.6981C31.3017 16.6536 31.7307 16.5942 31.8073 16.5942C31.8686 16.5942 31.8686 16.6462 31.8686 16.7278V19.4427H31.8609Z" fill="black"/>
<path d="M33.37 19.0194C33.37 19.3013 33.6458 19.7686 34.1514 19.7686C34.9634 19.7686 35.3081 18.9971 35.3081 18.337C35.3081 17.5433 34.6876 16.8757 34.0901 16.8757C33.8067 16.8757 33.5692 17.0537 33.37 17.2243V19.0194ZM33.37 17.0166C33.6765 16.7644 34.0824 16.4826 34.5038 16.4826C35.3847 16.4826 35.9209 17.2243 35.9209 18.0329C35.9209 18.9971 35.1932 19.9614 34.1054 19.9614C33.5462 19.9614 33.2475 19.7834 33.0483 19.7018L32.8185 19.8724L32.6576 19.7908C32.7266 19.3532 32.7649 18.9304 32.7649 18.4779V15.3106C32.7649 14.8285 32.65 14.8136 32.3589 14.7394V14.6208C32.6653 14.5243 32.9794 14.3908 33.1402 14.3018C33.2245 14.2573 33.2858 14.2202 33.3088 14.2202C33.3547 14.2202 33.37 14.2647 33.37 14.3241V17.0166Z" fill="black"/>
<path d="M0.553101 24.1299H0.614371C0.759914 24.1299 0.920783 24.1076 0.920783 23.9V21.8012C0.920783 21.5935 0.759914 21.5713 0.614371 21.5713H0.553101V21.4526C0.713963 21.4526 0.959078 21.4675 1.1659 21.4675C1.37272 21.4675 1.61785 21.4526 1.81702 21.4526V21.5713H1.75573C1.61019 21.5713 1.44933 21.5935 1.44933 21.8012V23.9C1.44933 24.1076 1.61019 24.1299 1.75573 24.1299H1.81702V24.2485C1.61785 24.2485 1.37272 24.2337 1.1659 24.2337C0.966738 24.2337 0.721619 24.2485 0.560757 24.2485V24.1299H0.553101Z" fill="black"/>
<path d="M1.80178 24.2339V24.1449H1.76348C1.61792 24.1449 1.44172 24.1227 1.44172 23.9002V21.8013C1.44172 21.5788 1.61792 21.5566 1.76348 21.5566H1.80178V21.475C1.61026 21.475 1.37278 21.4898 1.1736 21.4898C0.974421 21.4898 0.736937 21.475 0.57606 21.475V21.5566H0.614355C0.75991 21.5566 0.936119 21.5788 0.936119 21.8013V23.9002C0.936119 24.1227 0.75991 24.1449 0.614355 24.1449H0.57606V24.2339C0.736937 24.2339 0.966752 24.2191 1.16593 24.2191C1.36511 24.2191 1.6026 24.2339 1.80178 24.2339ZM1.81711 24.271C1.61793 24.271 1.37278 24.2562 1.16593 24.2562C0.966752 24.2562 0.721612 24.271 0.560735 24.271H0.54541V24.2562V24.1375V24.1227H0.560735H0.622023C0.775239 24.1227 0.905465 24.1078 0.913125 23.915V21.8161C0.913125 21.6233 0.775239 21.6085 0.622023 21.6011H0.54541V21.5862V21.4453H0.560735C0.721612 21.4453 0.974421 21.4601 1.1736 21.4601C1.38044 21.4601 1.62558 21.4453 1.82476 21.4453H1.84009V21.4601V21.5936H1.82476H1.76348C1.61026 21.5936 1.47237 21.6085 1.47237 21.8087V23.9076C1.47237 24.1004 1.61026 24.1152 1.76348 24.1152H1.84009V24.1301V24.271H1.81711Z" fill="black"/>
<path d="M4.65902 23.4626L4.66668 23.4552V21.9496C4.66668 21.6233 4.4292 21.5714 4.30664 21.5714H4.21472V21.4527C4.40623 21.4527 4.59773 21.4676 4.7969 21.4676C4.96543 21.4676 5.13396 21.4527 5.30249 21.4527V21.5714H5.24121C5.06502 21.5714 4.87351 21.6011 4.87351 22.0831V23.9076C4.87351 24.0485 4.88117 24.1894 4.89649 24.3081H4.73562L2.60603 22.009V23.6629C2.60603 24.0114 2.67497 24.1301 2.9967 24.1301H3.06566V24.2488C2.88947 24.2488 2.71327 24.2339 2.52942 24.2339C2.34557 24.2339 2.15406 24.2488 1.97021 24.2488V24.1301H2.0315C2.31493 24.1301 2.40686 23.9447 2.40686 23.6184V21.9274C2.40686 21.7049 2.21535 21.564 2.0315 21.564H1.97788V21.4453C2.13875 21.4453 2.29962 21.4601 2.45282 21.4601C2.57539 21.4601 2.69795 21.4453 2.82052 21.4453L4.65902 23.4626Z" fill="black"/>
<path d="M4.65909 23.4624L4.6744 23.4475L4.65909 23.4624ZM4.74335 24.2929H4.88124C4.86592 24.1743 4.85826 24.0408 4.85826 23.9073V22.0831C4.85826 21.601 5.06509 21.5565 5.24127 21.5565H5.28723V21.475C5.12637 21.475 4.95784 21.4898 4.79697 21.4898C4.60546 21.4898 4.42162 21.475 4.23777 21.475V21.5565H4.31437C4.44459 21.5565 4.68973 21.6085 4.68973 21.9496L4.68207 23.4624L4.6744 23.4698L4.65909 23.4846L2.8206 21.4676C2.69804 21.4676 2.57547 21.4824 2.45291 21.4824C2.2997 21.4824 2.14649 21.4676 1.99328 21.4676V21.5491H2.03159C2.2231 21.5491 2.42226 21.69 2.42226 21.9273V23.6181C2.42226 23.937 2.33034 24.1446 2.03159 24.1446H1.99328V24.2336C2.16947 24.2336 2.36098 24.2188 2.53717 24.2188C2.71336 24.2188 2.88189 24.2336 3.05041 24.2336V24.152H2.99679C2.66739 24.152 2.59079 24.0111 2.59079 23.6626V21.9644L4.74335 24.2929ZM4.90422 24.33L4.73569 24.3226L2.63675 22.0534V23.6626C2.64441 24.0111 2.69804 24.1075 3.00445 24.1149H3.09637V24.1298V24.2707H3.08105C2.90486 24.2707 2.72102 24.2558 2.54483 24.2558C2.36098 24.2558 2.16948 24.2707 1.97797 24.2707H1.96265V24.2558V24.1149H1.97797H2.03924C2.31502 24.1149 2.39162 23.9444 2.39162 23.6255V21.9347C2.39162 21.7197 2.20777 21.5936 2.03159 21.5936H1.96265V21.5788V21.4453H1.97797C2.13884 21.4453 2.2997 21.4601 2.45291 21.4601C2.57547 21.4601 2.69804 21.4453 2.83593 21.4527L4.65142 23.4327V21.957C4.65142 21.6381 4.42928 21.601 4.30671 21.5936H4.19947V21.5788V21.4453H4.21479C4.41396 21.4453 4.5978 21.4601 4.79697 21.4601C4.9655 21.4601 5.13403 21.4453 5.30256 21.4453H5.31787V21.4601V21.601H5.30256H5.24127C5.07275 21.6085 4.89655 21.6233 4.88889 22.0905V23.9147C4.88889 24.0556 4.89655 24.1965 4.91187 24.3152L4.91954 24.3374H4.90422V24.33Z" fill="black"/>
<path d="M5.92296 21.653C5.60888 21.653 5.60122 21.7272 5.53993 22.0165H5.41736C5.43268 21.9052 5.45567 21.794 5.47099 21.6753C5.48631 21.564 5.49397 21.4528 5.49397 21.3341H5.59355C5.62419 21.4528 5.73144 21.4528 5.84635 21.4528H7.98367C8.09858 21.4528 8.19817 21.4453 8.20583 21.3267L8.30542 21.3415C8.2901 21.4528 8.27478 21.5566 8.25946 21.6679C8.2518 21.7791 8.25179 21.883 8.25179 21.9942L8.12923 22.0387C8.12157 21.8904 8.09858 21.653 7.8228 21.653H7.141V23.7818C7.141 24.0933 7.28655 24.123 7.48573 24.123H7.56234V24.2417C7.40146 24.2417 7.11036 24.2269 6.8882 24.2269C6.64306 24.2269 6.35196 24.2417 6.19109 24.2417V24.123H6.26769C6.49751 24.123 6.61242 24.1008 6.61242 23.7892V21.6456H5.92296V21.653Z" fill="black"/>
<path d="M7.55466 24.271C7.39379 24.271 7.1027 24.2562 6.88055 24.2562C6.63542 24.2562 6.34433 24.271 6.18347 24.271H6.16815V24.2562V24.1152H6.18347H6.26008C6.48988 24.1078 6.5818 24.1078 6.5818 23.7963V21.675H5.92302V21.6601V21.6453H6.62011V23.8037C6.62011 24.1226 6.48988 24.1597 6.26008 24.1597H6.19879V24.2413C6.35966 24.2413 6.64309 24.2265 6.88055 24.2265C7.09504 24.2265 7.37081 24.2413 7.53933 24.2413V24.1523H7.47805C7.27888 24.1523 7.11802 24.1078 7.11802 23.7889V21.6379H7.8151C8.09087 21.6379 8.12917 21.8678 8.13683 22.0162L8.22875 21.9865C8.22875 21.8827 8.22876 21.7788 8.23642 21.675C8.25174 21.5711 8.26705 21.4673 8.28238 21.3709L8.22109 21.3634C8.19811 21.4821 8.08321 21.4895 7.98363 21.4821H5.84642H5.82344C5.72385 21.4821 5.61661 21.4747 5.58597 21.3634H5.51703C5.51703 21.4747 5.50937 21.5785 5.49405 21.6898C5.47873 21.8011 5.46341 21.9049 5.44809 22.0087H5.54001C5.59363 21.7269 5.63194 21.6379 5.93835 21.6453V21.6601V21.675C5.63194 21.6824 5.63959 21.7269 5.57065 22.0236V22.0384H5.55534H5.40979V22.0162C5.42511 21.9049 5.44809 21.7936 5.46341 21.675C5.47873 21.5637 5.48639 21.4525 5.48639 21.3412V21.3264H5.50171H5.61662V21.3412C5.64726 21.445 5.72385 21.445 5.82344 21.445H5.84642H7.98363C8.09853 21.445 8.18278 21.445 8.19044 21.3338V21.3115H8.20577L8.32068 21.3264V21.3412C8.30536 21.445 8.29003 21.5563 8.27471 21.6676C8.26705 21.7714 8.26705 21.8826 8.26705 21.9939V22.0087L8.25173 22.0162L8.10619 22.0681V22.0458C8.09853 21.8975 8.07555 21.675 7.8151 21.675H7.15632V23.7889C7.16398 24.093 7.28654 24.1152 7.47805 24.1152H7.57764V24.1301V24.271H7.55466Z" fill="black"/>
<path d="M8.42798 24.1303H8.48926C8.63481 24.1303 8.79567 24.108 8.79567 23.9003V21.8012C8.79567 21.5936 8.63481 21.5713 8.48926 21.5713H8.42798V21.4526C8.68077 21.4526 9.10974 21.4675 9.45445 21.4675C9.79916 21.4675 10.2358 21.4526 10.5116 21.4526C10.5039 21.6232 10.5116 21.8903 10.5192 22.0683L10.3967 22.0979C10.3737 21.8383 10.3277 21.6306 9.89107 21.6306H9.31656V22.6839H9.80681C10.0519 22.6839 10.1056 22.5504 10.1362 22.3279H10.2588C10.2511 22.4836 10.2434 22.6394 10.2434 22.7952C10.2434 22.9509 10.2511 23.0993 10.2588 23.255L10.1362 23.2773C10.1132 23.0399 10.0979 22.8842 9.81448 22.8842H9.31656V23.8187C9.31656 24.0783 9.55403 24.0783 9.82213 24.0783C10.32 24.0783 10.5345 24.0487 10.6648 23.5888L10.7797 23.6185C10.726 23.8336 10.6724 24.0412 10.6418 24.2563C10.3737 24.2563 9.89873 24.2415 9.53104 24.2415C9.15569 24.2415 8.66545 24.2563 8.42798 24.2563V24.1303Z" fill="black"/>
<path d="M10.6265 24.2338C10.6648 24.0336 10.7107 23.8259 10.7644 23.6257L10.6801 23.6034C10.5575 24.0484 10.3201 24.0929 9.82979 24.0855C9.56934 24.0855 9.30887 24.0855 9.30887 23.8111V22.8618H9.82212C10.1132 22.8618 10.1439 23.025 10.1592 23.2549L10.2511 23.24C10.2434 23.0917 10.2358 22.9434 10.2358 22.7951C10.2358 22.6467 10.2434 22.491 10.2511 22.3427H10.1592C10.1362 22.5503 10.0673 22.6987 9.81447 22.6987H9.30122V21.6159H9.89107C10.3201 21.6159 10.3967 21.831 10.412 22.0831L10.5039 22.0609C10.4962 21.9496 10.4886 21.8013 10.4886 21.6678C10.4886 21.6011 10.4886 21.5343 10.4886 21.475C10.2051 21.475 9.79149 21.4898 9.44677 21.4898C9.10971 21.4898 8.68837 21.475 8.43558 21.475V21.5566H8.47388C8.61943 21.5566 8.79562 21.5788 8.79562 21.8013V23.9001C8.79562 24.1226 8.61943 24.1448 8.47388 24.1448H8.43558V24.2264C8.67305 24.2264 9.15567 24.2116 9.51571 24.2116C9.89873 24.219 10.366 24.2338 10.6265 24.2338ZM10.6418 24.2709C10.3737 24.2709 9.89873 24.2561 9.53102 24.2561C9.15566 24.2561 8.6654 24.2709 8.42792 24.2709H8.4126V24.2561V24.1374V24.1226H8.42792H8.48921C8.64242 24.1226 8.77264 24.1077 8.7803 23.9149V21.8161C8.7803 21.6233 8.64242 21.6085 8.48921 21.6011H8.4126V21.5862V21.4453H8.42792C8.68072 21.4453 9.1097 21.4601 9.45442 21.4601C9.79915 21.4601 10.2358 21.4453 10.5116 21.4453H10.5269V21.4601C10.5269 21.5195 10.5192 21.5936 10.5192 21.6678C10.5192 21.8087 10.5269 21.957 10.5346 22.0683V22.0831L10.5192 22.0905L10.3737 22.1276V22.1054C10.3507 21.8458 10.3124 21.653 9.88341 21.653H9.3242V22.669H9.79914C10.0366 22.669 10.0826 22.5503 10.1056 22.3353V22.3204H10.1209H10.2664V22.3353C10.2588 22.491 10.2511 22.6467 10.2511 22.8025C10.2511 22.9508 10.2588 23.1066 10.2664 23.2623V23.2771H10.2511L10.1056 23.3068V23.2845C10.0749 23.0398 10.0749 22.9063 9.79914 22.9063H9.3242V23.8259C9.3242 24.0707 9.53869 24.0707 9.81447 24.0707C10.3124 24.0707 10.5116 24.041 10.6341 23.596L10.6418 23.5812H10.6571L10.7874 23.6109V23.6257C10.7337 23.8408 10.6878 24.0484 10.6495 24.2635V24.2783H10.6418V24.2709Z" fill="black"/>
<path d="M11.8751 22.8095H12.0743C12.4879 22.8095 12.71 22.6611 12.71 22.1864C12.71 21.8304 12.4726 21.6004 12.1049 21.6004C11.9823 21.6004 11.9287 21.6152 11.8674 21.6152V22.8095H11.8751ZM11.3466 21.8823C11.3466 21.593 11.178 21.5782 11.0555 21.5782H10.9789V21.4595C11.1091 21.4595 11.3695 21.4743 11.6223 21.4743C11.8674 21.4743 12.0666 21.4595 12.2887 21.4595C12.8096 21.4595 13.2769 21.593 13.2769 22.1642C13.2769 22.5276 13.0318 22.7427 12.7024 22.8688L13.4071 23.8925C13.522 24.0631 13.6063 24.1076 13.8054 24.1299V24.2485C13.6675 24.2485 13.5373 24.2337 13.3994 24.2337C13.2692 24.2337 13.139 24.2485 13.0088 24.2485C12.6871 23.8406 12.419 23.4103 12.1509 22.9504H11.8751V23.8109C11.8751 24.1224 12.0206 24.1299 12.2121 24.1299H12.2887V24.2485C12.0513 24.2485 11.8138 24.2337 11.5764 24.2337C11.3772 24.2337 11.1857 24.2485 10.9789 24.2485V24.1299H11.0555C11.2087 24.1299 11.3466 24.0631 11.3466 23.9147V21.8823Z" fill="black"/>
<path d="M12.0743 22.7952C12.4879 22.7952 12.6871 22.6542 12.6948 22.1869C12.6948 21.8382 12.4649 21.6231 12.1049 21.6156C11.99 21.6156 11.944 21.6231 11.8904 21.6305V22.7952H12.0743ZM11.8751 22.8249H11.8598V21.6008H11.8751C11.9287 21.5934 11.99 21.586 12.1126 21.586C12.4879 21.586 12.7331 21.8234 12.7331 22.1869C12.7331 22.6617 12.4956 22.8249 12.0743 22.8249H11.8751ZM11.8751 22.9361H12.1585L12.1662 22.9436C12.4343 23.4035 12.7101 23.8338 13.0088 24.2344C13.1314 24.2344 13.2693 24.2195 13.3995 24.2195C13.5297 24.2195 13.66 24.2344 13.7902 24.2344V24.1454C13.5987 24.1231 13.5068 24.0638 13.3919 23.9006L12.6718 22.8545L12.6948 22.8471C13.0165 22.721 13.2616 22.5059 13.2616 22.1572C13.2616 21.6008 12.8173 21.4747 12.2964 21.4673C12.0819 21.4673 11.8827 21.4821 11.63 21.4821C11.3848 21.4821 11.1397 21.4673 11.0095 21.4673V21.5489H11.0631C11.1933 21.5489 11.3772 21.5711 11.3772 21.8679V23.908C11.3772 24.0712 11.2239 24.1454 11.0631 24.1454H11.0095V24.227C11.2086 24.227 11.4001 24.2121 11.5916 24.2121C11.8215 24.2121 12.0589 24.227 12.2888 24.227V24.1528H12.2351C12.0436 24.1528 11.8751 24.1305 11.8751 23.8115V22.9361ZM13.8055 24.2715C13.6676 24.2715 13.5374 24.2566 13.3995 24.2566C13.2769 24.2566 13.1391 24.2715 12.9935 24.2641C12.6794 23.8635 12.4037 23.4332 12.1355 22.9732H11.8904V23.8115C11.8981 24.1157 12.0206 24.1083 12.2121 24.1157H12.3041V24.1305V24.2715H12.2888C12.0513 24.2715 11.8138 24.2566 11.5763 24.2566C11.3772 24.2566 11.1857 24.2715 10.9788 24.2715H10.9635V24.2566V24.1157H10.9788H11.0554C11.201 24.1157 11.3312 24.0489 11.3312 23.9154V21.8753C11.3312 21.5934 11.1856 21.5934 11.0554 21.586H10.9635V21.5711V21.4302H10.9788C11.1167 21.4302 11.3695 21.445 11.6223 21.445C11.8674 21.445 12.0666 21.4302 12.2888 21.4302C12.8097 21.4302 13.2923 21.5711 13.2923 22.1498C13.2923 22.5133 13.0471 22.7358 12.7254 22.862L13.4225 23.8709C13.5374 24.0341 13.614 24.0786 13.8132 24.1009H13.8285V24.1157V24.2566H13.8055V24.2715Z" fill="black"/>
<path d="M16.6092 23.4626L16.6169 23.4552V21.9496C16.6169 21.6233 16.3794 21.5714 16.2569 21.5714H16.1649V21.4527C16.3564 21.4527 16.548 21.4676 16.7471 21.4676C16.9157 21.4676 17.0842 21.4527 17.2604 21.4527V21.5714H17.1991C17.0229 21.5714 16.8314 21.6011 16.8314 22.0831V23.9076C16.8314 24.0485 16.8391 24.1894 16.8544 24.3081H16.6935L14.5639 22.009V23.6629C14.5639 24.0114 14.6328 24.1301 14.9546 24.1301H15.0235V24.2488C14.8473 24.2488 14.6711 24.2339 14.4873 24.2339C14.3034 24.2339 14.1119 24.2488 13.9204 24.2488V24.1301H13.974C14.2575 24.1301 14.3494 23.9447 14.3494 23.6184V21.9274C14.3494 21.7049 14.1579 21.564 13.974 21.564H13.9204V21.4453C14.0736 21.4453 14.2421 21.4601 14.3954 21.4601C14.5179 21.4601 14.6405 21.4453 14.7631 21.4453L16.6092 23.4626Z" fill="black"/>
<path d="M16.6092 23.4624L16.6245 23.4476L16.6092 23.4624ZM16.6934 24.293H16.8313C16.816 24.1743 16.8083 24.0409 16.8083 23.9074V22.0831C16.8083 21.601 17.0152 21.5566 17.199 21.5566H17.245V21.475C17.0841 21.475 16.9156 21.4898 16.7547 21.4898C16.5632 21.4898 16.3794 21.475 16.1955 21.475V21.5566H16.2721C16.4024 21.5566 16.6475 21.6085 16.6475 21.9496L16.6398 23.4624L16.6322 23.4698L16.6168 23.4847L14.7783 21.4676C14.6558 21.4676 14.5332 21.4824 14.4107 21.4824C14.2574 21.4824 14.1042 21.4676 13.951 21.4676V21.5491H13.9893C14.1808 21.5491 14.38 21.69 14.38 21.9273V23.6107C14.38 23.9296 14.2881 24.1373 13.9893 24.1373H13.951V24.2188C14.1272 24.2188 14.3111 24.204 14.4949 24.204C14.6711 24.204 14.8396 24.2188 15.0082 24.2188V24.1521H14.9545C14.6251 24.1521 14.5485 24.0112 14.5485 23.6627V21.9644L16.6934 24.293ZM16.8543 24.3301L16.6858 24.3227L14.5868 22.0534V23.6627C14.5945 24.0112 14.6481 24.1076 14.9622 24.115H15.0465V24.1299V24.2708H15.0311C14.855 24.2708 14.6711 24.2559 14.4949 24.2559C14.3111 24.2559 14.1195 24.2708 13.9357 24.2708H13.9204V24.2559V24.115H13.9357H13.9893C14.2651 24.115 14.3417 23.9445 14.3417 23.6256V21.9422C14.3417 21.7271 14.1579 21.601 13.9817 21.601H13.9127V21.5862V21.4453H13.928C14.0889 21.4453 14.2498 21.4601 14.403 21.4601C14.5256 21.4601 14.6481 21.4453 14.786 21.4527L16.6092 23.4328V21.957C16.6092 21.6381 16.387 21.601 16.2645 21.601H16.1572V21.5862V21.4453H16.1725C16.3717 21.4453 16.5556 21.4601 16.7547 21.4601C16.9233 21.4601 17.0918 21.4453 17.2603 21.4453H17.2756V21.4601V21.5936H17.2603H17.199C17.0305 21.601 16.8543 21.6159 16.8467 22.0831V23.9074C16.8467 24.0483 16.8467 24.1892 16.8696 24.3078V24.3301H16.8543Z" fill="black"/>
<path d="M18.5243 21.9053H18.5166L18.1336 23.04H18.9073L18.5243 21.9053ZM17.9268 23.6779C17.8885 23.8114 17.8349 23.9152 17.8349 23.9893C17.8349 24.108 18.0111 24.1303 18.1489 24.1303H18.1949V24.2489C18.0264 24.2415 17.8579 24.2341 17.697 24.2341C17.5514 24.2341 17.3982 24.2415 17.2527 24.2489V24.1303H17.2757C17.4365 24.1303 17.5744 24.0413 17.6357 23.8707L18.3022 22.0314C18.3558 21.883 18.4324 21.6828 18.4554 21.5344C18.5856 21.4899 18.7541 21.4084 18.8307 21.3639C18.846 21.3564 18.8537 21.3564 18.8614 21.3564C18.8767 21.3564 18.8843 21.3564 18.892 21.3713C18.9073 21.4009 18.915 21.438 18.9303 21.4677L19.6887 23.5666C19.7346 23.7075 19.7883 23.8559 19.8419 23.9745C19.8955 24.0858 19.9798 24.1377 20.1176 24.1377H20.1406V24.2563C19.9568 24.2489 19.7653 24.2415 19.5661 24.2415C19.3593 24.2415 19.1524 24.2489 18.9456 24.2563V24.1377H18.9916C19.0835 24.1377 19.252 24.1228 19.252 24.019C19.252 23.9671 19.2137 23.8558 19.1678 23.7298L19.0069 23.2625H18.0647L17.9268 23.6779Z" fill="black"/>
<path d="M18.5089 21.9126H18.5166H18.5089ZM18.1566 23.0175H18.8843L18.5243 21.9423L18.1566 23.0175ZM18.1106 23.0546L18.5089 21.8829H18.5243H18.5319V21.8978H18.5243H18.5319V21.8829H18.5472L18.9379 23.0546H18.1106ZM18.9532 24.2336C19.1601 24.2262 19.3592 24.2188 19.5584 24.2188C19.7499 24.2188 19.9337 24.2262 20.1099 24.2336V24.1521H20.1023C19.9644 24.1521 19.8648 24.1002 19.8112 23.9815C19.7576 23.8629 19.7039 23.7146 19.658 23.5737L18.8996 21.4751C18.8843 21.4454 18.8766 21.4084 18.8613 21.3787C18.8613 21.3713 18.8613 21.3713 18.8537 21.3713H18.846C18.8383 21.3713 18.8307 21.3713 18.823 21.3787C18.7464 21.4306 18.5779 21.5048 18.4553 21.5418C18.4323 21.6901 18.3558 21.8904 18.3021 22.0387L17.6434 23.8777C17.5821 24.0483 17.4365 24.1521 17.268 24.1521H17.2603V24.2336C17.4059 24.2262 17.5438 24.2188 17.6893 24.2188C17.8502 24.2188 18.011 24.2262 18.1719 24.2336V24.1521H18.1489C18.011 24.1521 17.8272 24.1372 17.8195 23.9963C17.8195 23.9148 17.8732 23.811 17.9115 23.6775L17.9268 23.6849L17.9115 23.6775L18.0493 23.2474H19.0145L19.183 23.722C19.229 23.848 19.2673 23.9593 19.2673 24.0186C19.2596 24.1447 19.0835 24.1521 18.9915 24.1521H18.9609V24.2336H18.9532ZM20.1252 24.2707C19.9414 24.2633 19.7499 24.2559 19.5584 24.2559C19.3592 24.2559 19.1524 24.2633 18.9379 24.2707H18.9226V24.2559V24.115H18.9379H18.9839C19.0835 24.115 19.2213 24.0927 19.2213 24.0186C19.2213 23.9741 19.183 23.8629 19.1371 23.7368L18.9762 23.2845H18.0647L17.9344 23.6923C17.8961 23.8258 17.8425 23.937 17.8425 24.0038C17.8425 24.1002 17.9957 24.1224 18.1336 24.1224H18.1949V24.1372V24.2781H18.1796C18.011 24.2707 17.8425 24.2633 17.6817 24.2633C17.5361 24.2633 17.3829 24.2707 17.2374 24.2781H17.222V24.2633V24.1224H17.2374H17.2603C17.4136 24.1224 17.5438 24.0408 17.6051 23.8777L18.2715 22.0387C18.3251 21.8904 18.4017 21.6901 18.4324 21.5344C18.5626 21.4899 18.7311 21.4083 18.8077 21.3639C18.8154 21.3564 18.8307 21.3564 18.846 21.3564C18.8537 21.3564 18.8766 21.3564 18.892 21.3787C18.9073 21.4084 18.9149 21.4454 18.9303 21.4825L19.6963 23.5811C19.7422 23.722 19.7958 23.8703 19.8495 23.9889C19.8954 24.0927 19.972 24.1372 20.1099 24.1372H20.1559V24.1521V24.293L20.1252 24.2707Z" fill="black"/>
<path d="M20.3092 21.653C19.9951 21.653 19.9874 21.7272 19.9262 22.0165H19.8036C19.8189 21.9052 19.8419 21.794 19.8572 21.6753C19.8725 21.564 19.8802 21.4528 19.8802 21.3341H19.9798C20.0104 21.4528 20.1177 21.4528 20.2249 21.4528H22.3621C22.477 21.4528 22.5766 21.4453 22.5843 21.3267L22.6838 21.3415C22.6685 21.4528 22.6532 21.5566 22.6379 21.6679C22.6302 21.7791 22.6302 21.883 22.6302 21.9942L22.5076 22.0387C22.5 21.8904 22.477 21.653 22.2012 21.653H21.5195V23.7818C21.5195 24.0933 21.665 24.123 21.8642 24.123H21.9408V24.2417C21.7799 24.2417 21.4888 24.2269 21.2667 24.2269C21.0216 24.2269 20.7305 24.2417 20.5696 24.2417V24.123H20.6462C20.876 24.123 20.9909 24.1008 20.9909 23.7892V21.6456H20.3092V21.653Z" fill="black"/>
<path d="M21.9408 24.271C21.7799 24.271 21.4888 24.2562 21.2666 24.2562C21.0215 24.2562 20.7304 24.271 20.5696 24.271H20.5542V24.2562V24.1152H20.5696H20.6462C20.876 24.1078 20.9679 24.1078 20.9679 23.7963V21.675H20.3091V21.6601V21.6453H21.0062V23.8037C21.0062 24.1226 20.8683 24.1597 20.6462 24.1597H20.5849V24.2487C20.7457 24.2487 21.0292 24.2339 21.2666 24.2339C21.4811 24.2339 21.7569 24.2487 21.9254 24.2487V24.1597H21.8641C21.665 24.1597 21.5041 24.1152 21.5041 23.7963V21.6453H22.2012C22.477 21.6453 22.5153 21.8752 22.5229 22.0236L22.6149 21.9939C22.6149 21.8901 22.6149 21.7862 22.6225 21.6824C22.6302 21.5785 22.6532 21.4747 22.6608 21.3783L22.5995 21.3709C22.5842 21.4895 22.4616 21.497 22.3621 21.4895H20.2248H20.2019C20.1023 21.4895 19.995 21.4821 19.9644 21.3709H19.8955C19.8955 21.4821 19.8878 21.5934 19.8725 21.6972C19.8648 21.8085 19.8418 21.9123 19.8265 22.0162H19.9184C19.9721 21.7343 20.0103 21.6453 20.3168 21.6527V21.6676V21.6824C20.0103 21.6898 20.018 21.7343 19.9491 22.031V22.0458H19.9337H19.7882V22.0236C19.8035 21.9123 19.8265 21.8011 19.8418 21.6824C19.8571 21.5711 19.8648 21.4599 19.8648 21.3412V21.3264H19.8801H19.995V21.3412C20.0257 21.445 20.1023 21.445 20.2019 21.445C20.2095 21.445 20.2172 21.445 20.2248 21.445H22.3621C22.477 21.445 22.5612 21.445 22.5689 21.3338V21.3115H22.5919L22.7068 21.3264V21.3412C22.6915 21.445 22.6761 21.5563 22.6608 21.6676C22.6532 21.7714 22.6532 21.8826 22.6532 21.9939V22.0087L22.6378 22.0162L22.4923 22.0681V22.0458C22.4846 21.8975 22.4617 21.675 22.2012 21.675H21.5424V23.7889C21.5501 24.093 21.6726 24.1152 21.8641 24.1152H21.9637V24.1301V24.271H21.9408Z" fill="black"/>
<path d="M22.837 24.1299H22.8983C23.0515 24.1299 23.2047 24.1076 23.2047 23.9V21.8012C23.2047 21.5935 23.0515 21.5713 22.8983 21.5713H22.837V21.4526C22.9979 21.4526 23.243 21.4675 23.4498 21.4675C23.6567 21.4675 23.9094 21.4526 24.101 21.4526V21.5713H24.0397C23.8941 21.5713 23.7333 21.5935 23.7333 21.8012V23.9C23.7333 24.1076 23.8941 24.1299 24.0397 24.1299H24.101V24.2485C23.9018 24.2485 23.6567 24.2337 23.4498 24.2337C23.243 24.2337 23.0056 24.2485 22.8447 24.2485V24.1299H22.837Z" fill="black"/>
<path d="M24.0779 24.2338V24.1522H24.0396C23.8941 24.1522 23.7179 24.13 23.7179 23.9075V21.8087C23.7179 21.5862 23.8941 21.564 24.0396 21.564H24.0779V21.4824C23.8864 21.4824 23.649 21.4972 23.4498 21.4972C23.2507 21.4972 23.0132 21.4824 22.8523 21.4824V21.564H22.8906C23.0362 21.564 23.2123 21.5862 23.2123 21.8087V23.9075C23.2123 24.13 23.0362 24.1522 22.8906 24.1522H22.8523V24.2338C23.0132 24.2338 23.243 24.219 23.4422 24.219C23.6413 24.219 23.8864 24.2338 24.0779 24.2338ZM24.1009 24.2709C23.9018 24.2709 23.6566 24.2561 23.4498 24.2561C23.2507 24.2561 23.0055 24.2709 22.8447 24.2709H22.8293V24.2561V24.1374V24.1226H22.8447H22.906C23.0592 24.1226 23.1894 24.1077 23.197 23.9149V21.8161C23.197 21.6233 23.0592 21.6085 22.906 21.6011H22.8293V21.5862V21.4453H22.8447C23.0055 21.4453 23.2583 21.4601 23.4575 21.4601C23.6643 21.4601 23.9094 21.4453 24.1086 21.4453H24.1239V21.4601V21.6011H24.1086H24.0473C23.8941 21.6011 23.7639 21.6159 23.7562 21.8161V23.9149C23.7562 24.1077 23.8941 24.1226 24.0473 24.1226H24.1239V24.1374V24.2783H24.1009V24.2709Z" fill="black"/>
<path d="M25.8093 24.138C26.6136 24.138 26.7515 23.4554 26.7515 22.8694C26.7515 22.2833 26.4221 21.5711 25.7403 21.5711C25.0126 21.5711 24.7981 22.1943 24.7981 22.7358C24.7981 23.448 25.1428 24.138 25.8093 24.138ZM25.748 21.3931C26.6289 21.3931 27.3336 21.9198 27.3336 22.7729C27.3336 23.6928 26.6519 24.3086 25.771 24.3086C24.8901 24.3086 24.2236 23.7299 24.2236 22.8694C24.2236 22.0385 24.8901 21.3931 25.748 21.3931Z" fill="black"/>
<path d="M24.7828 22.7358C24.7828 22.1943 25.0049 21.5564 25.7403 21.5564C26.4451 21.5564 26.7745 22.2833 26.7745 22.8693C26.7745 23.4553 26.6289 24.1525 25.8092 24.1525V24.1377V24.1229C26.5983 24.1229 26.7362 23.4553 26.7362 22.8693C26.7362 22.2908 26.4144 21.5935 25.7403 21.5935C25.0279 21.5935 24.8211 22.2018 24.8211 22.7358C24.8211 23.4479 25.1581 24.1229 25.8169 24.1229V24.1377V24.1525C25.1275 24.1525 24.7828 23.4553 24.7828 22.7358ZM24.2006 22.8767C24.2006 22.0312 24.8747 21.3784 25.748 21.3784V21.3933V21.4081C24.8977 21.4081 24.2389 22.046 24.2389 22.8693C24.2389 23.7223 24.8977 24.2861 25.771 24.2935C26.6442 24.2935 27.3184 23.6927 27.3184 22.7729C27.3184 21.9273 26.6289 21.4081 25.748 21.4081V21.3933V21.3784C26.6366 21.3784 27.349 21.9125 27.349 22.7803C27.349 23.7149 26.6596 24.3306 25.7633 24.3306C24.8823 24.3306 24.2082 23.7446 24.2006 22.8767Z" fill="black"/>
<path d="M30.122 23.4626L30.1296 23.4552V21.9496C30.1296 21.6233 29.8922 21.5714 29.7696 21.5714H29.6777V21.4527C29.8692 21.4527 30.0607 21.4676 30.2598 21.4676C30.4284 21.4676 30.5969 21.4527 30.7731 21.4527V21.5714H30.7118C30.5356 21.5714 30.3441 21.6011 30.3441 22.0831V23.9076C30.3441 24.0485 30.3518 24.1894 30.3671 24.3081H30.2062L28.0767 22.009V23.6629C28.0767 24.0114 28.1456 24.1301 28.4673 24.1301H28.5363V24.2488C28.3601 24.2488 28.1839 24.2339 28.0001 24.2339C27.8162 24.2339 27.6247 24.2488 27.4332 24.2488V24.1301H27.4945C27.7779 24.1301 27.8699 23.9447 27.8699 23.6184V21.9274C27.8699 21.7049 27.6784 21.564 27.4945 21.564H27.4409V21.4453C27.6017 21.4453 27.7626 21.4601 27.9158 21.4601C28.0384 21.4601 28.1609 21.4453 28.2835 21.4453L30.122 23.4626Z" fill="black"/>
<path d="M30.122 23.4627L30.1373 23.4478L30.122 23.4627ZM30.2062 24.2935H30.3441C30.3288 24.1748 30.3211 24.0413 30.3211 23.9077V22.0829C30.3211 21.6008 30.528 21.5563 30.7042 21.5563H30.7501V21.4747C30.5893 21.4747 30.4207 21.4895 30.2599 21.4895C30.0684 21.4895 29.8845 21.4747 29.7007 21.4747V21.5563H29.7696C29.8998 21.5563 30.145 21.6156 30.145 21.9494L30.1373 23.4627L30.1296 23.4701L30.1143 23.4849L28.2758 21.4673C28.1533 21.4673 28.0307 21.4821 27.9081 21.4821C27.7549 21.4821 27.6017 21.4673 27.4485 21.4673V21.5489H27.4868C27.6783 21.5489 27.8775 21.6898 27.8775 21.9272V23.6184C27.8775 23.9374 27.7856 24.1451 27.4868 24.1451H27.4485V24.2267C27.6247 24.2267 27.8162 24.2119 27.9924 24.2119C28.1686 24.2119 28.3371 24.2267 28.5056 24.2267V24.1525H28.452C28.1303 24.1525 28.046 24.0116 28.046 23.663V21.9643L30.2062 24.2935ZM30.3671 24.3306L30.1986 24.3232L28.0996 22.0533V23.663C28.1073 24.0116 28.1609 24.108 28.4673 24.1154H28.5593V24.1303V24.2712H28.5439C28.3678 24.2712 28.1839 24.2564 28.0077 24.2564C27.8239 24.2564 27.6324 24.2712 27.4409 24.2712H27.4255V24.2564V24.1154H27.4409H27.5021C27.7779 24.1154 27.8545 23.9448 27.8545 23.6259V21.9346C27.8545 21.7195 27.6707 21.5934 27.4945 21.5934H27.4255V21.5785V21.4376H27.4409C27.6017 21.4376 27.7626 21.4524 27.9158 21.4524C28.0384 21.4524 28.1609 21.4376 28.2988 21.445L30.1143 23.4256V21.9494C30.1143 21.6305 29.8922 21.5934 29.7696 21.586H29.6624V21.5711V21.4302H29.6777C29.8692 21.4302 30.0607 21.445 30.2522 21.445C30.4207 21.445 30.5893 21.4302 30.7654 21.4302H30.7808V21.445V21.586H30.7654H30.7042C30.5356 21.5934 30.3594 21.6082 30.3518 22.0755V23.9003C30.3518 24.0413 30.3518 24.1822 30.3748 24.3009V24.3232H30.3671V24.3306Z" fill="black"/>
<path d="M32.0371 21.9053H32.0294L31.6464 23.04H32.4201L32.0371 21.9053ZM31.4319 23.6779C31.3936 23.8114 31.34 23.9152 31.34 23.9893C31.34 24.108 31.5162 24.1303 31.6541 24.1303H31.7V24.2489C31.5315 24.2415 31.363 24.2341 31.2021 24.2341C31.0566 24.2341 30.9034 24.2415 30.7578 24.2489V24.1303H30.7808C30.9417 24.1303 31.0795 24.0413 31.1408 23.8707L31.8073 22.0314C31.8609 21.883 31.9375 21.6828 31.9605 21.5344C32.0907 21.4899 32.2592 21.4084 32.3358 21.3639C32.3512 21.3564 32.3588 21.3564 32.3665 21.3564C32.3818 21.3564 32.3895 21.3564 32.3971 21.3713C32.4124 21.4009 32.4201 21.438 32.4354 21.4677L33.1938 23.5666C33.2398 23.7075 33.2934 23.8559 33.347 23.9745C33.393 24.0858 33.4849 24.1377 33.6228 24.1377H33.6458V24.2563C33.4619 24.2489 33.2704 24.2415 33.0712 24.2415C32.8721 24.2415 32.6652 24.2489 32.4507 24.2563V24.1377H32.4967C32.5886 24.1377 32.7572 24.1228 32.7572 24.019C32.7572 23.9671 32.7189 23.8558 32.6729 23.7298L32.512 23.2625H31.5698L31.4319 23.6779Z" fill="black"/>
<path d="M32.0218 21.9123H32.0294H32.0218ZM31.6694 23.0174H32.3971L32.0371 21.942L31.6694 23.0174ZM31.6235 23.0545L32.0218 21.8827H32.0371H32.0448V21.8975H32.0371H32.0448V21.8827H32.0601L32.4508 23.0545H31.6235ZM32.4661 24.2338C32.6729 24.2264 32.8721 24.219 33.0712 24.219C33.2627 24.219 33.4466 24.2264 33.6228 24.2338V24.1522H33.6151C33.4772 24.1522 33.3776 24.1003 33.324 23.9816C33.2704 23.863 33.2168 23.7146 33.1708 23.5737L32.4125 21.4747C32.3971 21.4451 32.3895 21.408 32.3742 21.3783C32.3742 21.3709 32.3742 21.3709 32.3665 21.3709H32.3588C32.3512 21.3709 32.3435 21.3709 32.3358 21.3783C32.2516 21.4302 32.0907 21.5044 31.9682 21.5415C31.9452 21.6898 31.8686 21.8901 31.815 22.0384L31.1485 23.8778C31.0872 24.0484 30.9417 24.1522 30.7732 24.1522H30.7655V24.2338C30.911 24.2264 31.0489 24.219 31.1945 24.219C31.3553 24.219 31.5162 24.2264 31.6771 24.2338V24.1522H31.6464C31.5085 24.1522 31.3247 24.1374 31.317 23.9965C31.317 23.9149 31.3707 23.8185 31.409 23.6776L31.4243 23.685L31.409 23.6776L31.5468 23.2474H32.512L32.6806 23.7221C32.7265 23.8481 32.7648 23.9594 32.7648 24.0187C32.7572 24.1448 32.5886 24.1522 32.4891 24.1522H32.4584V24.2338H32.4661ZM33.6381 24.2709C33.4542 24.2635 33.2627 24.2561 33.0712 24.2561C32.8721 24.2561 32.6652 24.2635 32.4508 24.2709H32.4354V24.2561V24.1151H32.4508H32.4967C32.5963 24.1151 32.7342 24.0929 32.7342 24.0187C32.7342 23.9742 32.6959 23.863 32.6499 23.7369L32.4891 23.2845H31.5775L31.4473 23.6924C31.409 23.8259 31.3553 23.9371 31.3553 23.9965C31.3553 24.0929 31.5085 24.1226 31.6464 24.1226H31.7077V24.1374V24.2783H31.6924C31.5239 24.2709 31.3553 24.2635 31.1945 24.2635C31.0489 24.2635 30.8957 24.2709 30.7502 24.2783H30.7349V24.2635V24.1226H30.7502H30.7732C30.9264 24.1226 31.0566 24.0336 31.1179 23.8704L31.7767 22.031C31.8303 21.8827 31.9069 21.6824 31.9375 21.5266C32.0677 21.4821 32.2363 21.4006 32.3129 21.3561C32.3205 21.3486 32.3359 21.3486 32.3512 21.3486C32.3588 21.3486 32.3818 21.3486 32.3971 21.3709C32.4125 21.4006 32.4201 21.4376 32.4354 21.4673L33.1938 23.5663C33.2398 23.7072 33.2934 23.8556 33.347 23.9742C33.393 24.0781 33.4696 24.1226 33.5998 24.1226H33.6458V24.1374V24.2783L33.6381 24.2709Z" fill="black"/>
<path d="M34.6876 23.8627C34.6876 24.0259 34.8025 24.0704 34.9327 24.0853C35.1012 24.1001 35.2851 24.1001 35.4766 24.0778C35.6528 24.0556 35.7983 23.9592 35.8749 23.8627C35.9439 23.7737 35.9745 23.6625 36.0051 23.5735H36.1277C36.0817 23.8034 36.0205 24.0259 35.9745 24.2559C35.6145 24.2559 35.2468 24.241 34.8791 24.241C34.5114 24.241 34.1514 24.2559 33.7837 24.2559V24.1372H33.8373C33.9905 24.1372 34.1514 24.1149 34.1514 23.8702V21.8081C34.1514 21.6004 33.9905 21.5781 33.8373 21.5781H33.7837V21.4595C34.0058 21.4595 34.2203 21.4743 34.4348 21.4743C34.6493 21.4743 34.8561 21.4595 35.0629 21.4595V21.5781H34.9557C34.8025 21.5781 34.6723 21.5856 34.6723 21.7933V23.8627H34.6876Z" fill="black"/>
<path d="M35.9515 24.2343C35.9975 24.0191 36.0511 23.8039 36.097 23.5888H36.0128C35.9898 23.6778 35.9515 23.7817 35.8825 23.8707C35.8059 23.9746 35.6528 24.0711 35.4689 24.0933C35.3617 24.1007 35.2544 24.1082 35.1548 24.1082C35.0782 24.1082 34.9939 24.1082 34.925 24.1007C34.7871 24.0859 34.6569 24.0265 34.6569 23.8559V21.7857C34.6569 21.5631 34.8024 21.5483 34.9556 21.5483H35.0399V21.4667C34.8331 21.4667 34.6339 21.4815 34.4271 21.4815C34.2126 21.4815 34.0058 21.4667 33.7913 21.4667V21.5483H33.8296C33.9751 21.5483 34.159 21.5706 34.159 21.7932V23.8559C34.159 24.1156 33.9828 24.1453 33.8296 24.1453H33.7913V24.2269C34.1513 24.2269 34.5037 24.212 34.8637 24.212C35.2391 24.2195 35.5991 24.2343 35.9515 24.2343ZM35.9668 24.2714C35.5991 24.2714 35.2391 24.2566 34.8714 24.2566C34.5037 24.2566 34.1436 24.2714 33.7759 24.2714H33.7606V24.2566V24.1156H33.7759H33.8372C33.9904 24.1156 34.1283 24.1007 34.1283 23.8633V21.8006C34.1283 21.6077 33.9828 21.5928 33.8372 21.5928H33.7606V21.578V21.437H33.7759C33.9981 21.437 34.2126 21.4519 34.4271 21.4519C34.6339 21.4519 34.8407 21.437 35.0552 21.437H35.0705V21.4519V21.5928H35.0552H34.948C34.7871 21.6003 34.6875 21.5928 34.6875 21.7932V23.8633C34.6875 24.0117 34.7871 24.0562 34.9174 24.0711C34.994 24.0785 35.0705 24.0785 35.1472 24.0785C35.2467 24.0785 35.354 24.0711 35.4612 24.0636C35.6298 24.0414 35.7753 23.9523 35.8443 23.8559C35.9055 23.7743 35.9438 23.663 35.9668 23.5739V23.5591H35.9821H36.1277V23.5813C36.0817 23.8114 36.0205 24.034 35.9745 24.264V24.2788H35.9668V24.2714Z" fill="black"/>
<path d="M36.0051 21.7639H36.0588C36.1124 21.7639 36.1431 21.7194 36.1431 21.66C36.1431 21.5932 36.1047 21.5709 36.0588 21.5709H36.0128V21.7639H36.0051ZM35.8596 21.9866V21.9643C35.9132 21.9569 35.9209 21.9569 35.9209 21.9272V21.6155C35.9209 21.5709 35.9132 21.5561 35.8596 21.5561V21.5338H36.0818C36.1584 21.5338 36.2273 21.5709 36.2273 21.6452C36.2273 21.7045 36.1813 21.7565 36.1277 21.7713L36.1967 21.8678C36.2273 21.9124 36.2656 21.9495 36.2962 21.9643V21.9792H36.212C36.1737 21.9792 36.1354 21.8975 36.0588 21.7862H36.0128V21.9272C36.0128 21.9569 36.0205 21.9569 36.0741 21.9643V21.9866H35.8596ZM36.0741 22.1054C36.2656 22.1054 36.4188 21.9421 36.4188 21.7639C36.4188 21.5783 36.2733 21.4225 36.0741 21.4225C35.8749 21.4225 35.7294 21.5858 35.7294 21.7639C35.7294 21.9495 35.8749 22.1054 36.0741 22.1054ZM36.0741 21.3408C36.3269 21.3408 36.5107 21.5264 36.5107 21.7639C36.5107 22.0014 36.3269 22.187 36.0741 22.187C35.8213 22.187 35.6375 22.0014 35.6375 21.7639C35.6375 21.5264 35.8213 21.3408 36.0741 21.3408Z" fill="black"/>
</svg>
