<svg width="28" height="27" viewBox="0 0 28 27" fill="none" xmlns="http://www.w3.org/2000/svg">
<path fill-rule="evenodd" clip-rule="evenodd" d="M0 0.193848H27.0946V14.3608V18.1955V26.4287H0V13.0776V11.253V0.193848Z" fill="#4C6EAE"/>
<path fill-rule="evenodd" clip-rule="evenodd" d="M5.255 18.4771V14.3599H9.75927L10.2419 14.9682L10.7398 14.3599H27.0869V18.1952C27.0869 18.1952 26.6579 18.4771 26.1677 18.4771H17.1132L16.5693 17.8242V18.4771H14.7844V17.3717C14.7844 17.3717 14.5393 17.5275 14.0108 17.5275H13.4056V18.4771H10.7015L10.2189 17.8539L9.72863 18.4771H5.255Z" fill="white"/>
<path fill-rule="evenodd" clip-rule="evenodd" d="M0 11.252L1.01882 8.95996H2.77304L3.34757 10.2432V8.95996H5.53076L5.87548 9.88714L6.20487 8.95996H16.0024V9.42727C16.0024 9.42727 16.5157 8.95996 17.366 8.95996L20.545 8.96738L21.1119 10.2358V8.95996H22.9427L23.4483 9.68688V8.95996H25.2944V13.0767H23.4483L22.9657 12.3497V13.0767H20.2846L20.0165 12.4239H19.2964L19.0283 13.0767H17.1975C16.4697 13.0767 16.0024 12.6168 16.0024 12.6168V13.0767H13.26L12.7162 12.4239V13.0767H2.51259L2.24448 12.4239H1.52441L1.25629 13.0767H0V11.252Z" fill="white"/>
<path fill-rule="evenodd" clip-rule="evenodd" d="M1.37122 9.47168L0 12.5576H0.888614L1.14141 11.9419H2.61222L2.86501 12.5576H3.77661L2.40539 9.47168H1.37122ZM1.87682 10.1838L2.32112 11.2594H1.42485L1.87682 10.1838Z" fill="#4C6EAE"/>
<path fill-rule="evenodd" clip-rule="evenodd" d="M3.8761 12.5498V9.46436L5.14005 9.47177L5.87544 11.4595L6.59551 9.46436H7.85181V12.5498H7.05513V10.2802L6.2125 12.5498H5.51541L4.67277 10.2802V12.5498H3.8761Z" fill="#4C6EAE"/>
<path fill-rule="evenodd" clip-rule="evenodd" d="M8.40344 12.5498V9.46436H11.0002V10.1541H9.20776V10.6882H10.9543V11.3334H9.20776V11.8823H11.0002V12.5498H8.40344Z" fill="#4C6EAE"/>
<path fill-rule="evenodd" clip-rule="evenodd" d="M11.4598 9.47168V12.5576H12.2565V11.4597H12.5936L13.5512 12.5576H14.524L13.4746 11.4226C13.9035 11.3856 14.3479 11.0295 14.3479 10.4731C14.3479 9.82775 13.8193 9.47168 13.2371 9.47168H11.4598ZM12.2565 10.1616H13.1681C13.3903 10.1616 13.5435 10.3248 13.5435 10.488C13.5435 10.6957 13.3367 10.8144 13.1758 10.8144H12.2565V10.1616Z" fill="#4C6EAE"/>
<path fill-rule="evenodd" clip-rule="evenodd" d="M15.4816 12.5498H14.6696V9.46436H15.4816V12.5498Z" fill="#4C6EAE"/>
<path fill-rule="evenodd" clip-rule="evenodd" d="M17.4119 12.5498H17.2358C16.3854 12.5498 15.8722 11.9045 15.8722 11.0219C15.8722 10.117 16.3854 9.46436 17.4579 9.46436H18.3389V10.1912H17.4273C16.9906 10.1912 16.6842 10.5176 16.6842 11.0219C16.6842 11.6227 17.0366 11.8674 17.5422 11.8674H17.749L17.4119 12.5498Z" fill="#4C6EAE"/>
<path fill-rule="evenodd" clip-rule="evenodd" d="M19.1432 9.47168L17.772 12.5576H18.6606L18.9134 11.9419H20.3842L20.637 12.5576H21.5486L20.1774 9.47168H19.1432ZM19.6488 10.1838L20.0931 11.2594H19.1968L19.6488 10.1838Z" fill="#4C6EAE"/>
<path fill-rule="evenodd" clip-rule="evenodd" d="M21.6405 12.5498V9.46436H22.6517L23.9462 11.4076V9.46436H24.7429V12.5498H23.7624L22.4372 10.5621V12.5498H21.6405Z" fill="#4C6EAE"/>
<path fill-rule="evenodd" clip-rule="evenodd" d="M5.79895 17.9497V14.8638H8.40344V15.5537H6.60328V16.0803H8.35748V16.7331H6.60328V17.2821H8.40344V17.9497H5.79895Z" fill="#4C6EAE"/>
<path fill-rule="evenodd" clip-rule="evenodd" d="M18.5304 17.9497V14.8638H21.1349V15.5537H19.3347V16.0803H21.0813V16.7331H19.3347V17.2821H21.1349V17.9497H18.5304Z" fill="#4C6EAE"/>
<path fill-rule="evenodd" clip-rule="evenodd" d="M8.50293 17.9497L9.76693 16.429L8.47229 14.8638H9.47583L10.2419 15.8281L11.0156 14.8638H11.9808L10.7015 16.4067L11.9732 17.9497H10.9696L10.2189 17.0002L9.49115 17.9497H8.50293Z" fill="#4C6EAE"/>
<path fill-rule="evenodd" clip-rule="evenodd" d="M12.0651 14.8638V17.9497H12.8847V16.9779H13.7197C14.4321 16.9779 14.9683 16.6144 14.9683 15.9023C14.9683 15.3163 14.547 14.8638 13.8269 14.8638H12.0651ZM12.8847 15.5611H13.7656C13.9954 15.5611 14.1563 15.6946 14.1563 15.9171C14.1563 16.1249 13.9954 16.2732 13.758 16.2732H12.877V15.5611H12.8847Z" fill="#4C6EAE"/>
<path fill-rule="evenodd" clip-rule="evenodd" d="M15.313 14.8638V17.9497H16.1097V16.8518H16.4467L17.4043 17.9497H18.3772L17.3277 16.8147C17.7567 16.7776 18.201 16.4216 18.201 15.8652C18.201 15.2198 17.6724 14.8638 17.0902 14.8638H15.313ZM16.1097 15.5537H17.0213C17.2434 15.5537 17.3967 15.7169 17.3967 15.8801C17.3967 16.0878 17.1898 16.2065 17.0289 16.2065H16.1097V15.5537Z" fill="#4C6EAE"/>
<path fill-rule="evenodd" clip-rule="evenodd" d="M21.5025 17.9497V17.2821H23.0959C23.3334 17.2821 23.4329 17.156 23.4329 17.0224C23.4329 16.8963 23.3334 16.7628 23.0959 16.7628H22.3758C21.7477 16.7628 21.403 16.3919 21.403 15.8355C21.403 15.3385 21.7247 14.8638 22.6516 14.8638H24.199L23.8619 15.5611H22.5214C22.2686 15.5611 22.1843 15.6946 22.1843 15.8133C22.1843 15.9394 22.2839 16.0803 22.4754 16.0803H23.2261C23.9232 16.0803 24.2296 16.4661 24.2296 16.9631C24.2296 17.5046 23.8926 17.9423 23.1878 17.9423L21.5025 17.9497Z" fill="#4C6EAE"/>
<path fill-rule="evenodd" clip-rule="evenodd" d="M24.4211 17.9497V17.2821H25.9455C26.183 17.2821 26.2826 17.156 26.2826 17.0224C26.2826 16.8963 26.183 16.7628 25.9455 16.7628H25.2944C24.6663 16.7628 24.3215 16.3919 24.3215 15.8355C24.3215 15.3385 24.6433 14.8638 25.5702 14.8638H27.0869L26.7499 15.5611H25.4399C25.1872 15.5611 25.1029 15.6946 25.1029 15.8133C25.1029 15.9394 25.2025 16.0803 25.394 16.0803H26.0834C26.7805 16.0803 27.0869 16.4661 27.0869 16.9631C27.0869 17.5046 26.7499 17.9423 26.0451 17.9423L24.4211 17.9497Z" fill="#4C6EAE"/>
</svg>
