<svg width="62" height="19" viewBox="0 0 62 19" fill="none" xmlns="http://www.w3.org/2000/svg">
<path d="M21.5715 18.4634L24.6663 0.854004H29.6301L26.5277 18.4634H21.5715Z" fill="#005397"/>
<path d="M44.5066 1.28278C43.5261 0.926732 41.9864 0.541016 40.0636 0.541016C35.1686 0.541016 31.7138 2.92949 31.6832 6.35642C31.6525 8.88583 34.1498 10.2952 36.0266 11.1408C37.957 12.0012 38.6081 12.5575 38.5928 13.329C38.5775 14.5084 37.0531 15.0499 35.6283 15.0499C33.6442 15.0499 32.5871 14.7828 30.9631 14.1227L30.3273 13.8408L29.6302 17.787C30.7869 18.2765 32.9318 18.7068 35.1533 18.729C40.3624 18.729 43.7483 16.3702 43.7866 12.7133C43.8019 10.7106 42.4843 9.18254 39.627 7.92896C37.8957 7.11302 36.8309 6.57154 36.8463 5.74818C36.8463 5.01384 37.7425 4.23499 39.6883 4.23499C41.3123 4.21273 42.4843 4.55394 43.3959 4.90999L43.8402 5.11027L44.5066 1.28278Z" fill="#005397"/>
<path d="M57.215 0.868652H53.3848C52.1975 0.868652 51.3089 1.18019 50.788 2.32993L43.4264 18.4707H48.6354C48.6354 18.4707 49.4857 16.2973 49.6772 15.8226C50.2441 15.8226 55.2999 15.83 56.0276 15.83C56.1732 16.4457 56.6328 18.4707 56.6328 18.4707H61.229L57.215 0.868652ZM51.102 12.2176C51.5157 11.2014 53.0784 7.29233 53.0784 7.29233C53.0478 7.33683 53.4844 6.27611 53.7372 5.60852L54.0743 7.12914C54.0743 7.12914 55.0241 11.3349 55.2233 12.2176H51.102Z" fill="#005397"/>
<path d="M17.412 0.867769L12.563 12.8767L12.042 10.4364C11.1381 7.62512 8.32676 4.57652 5.17834 3.04852L9.6137 18.4473L14.8611 18.4398L22.667 0.860352H17.412" fill="#005397"/>
<path d="M8.05864 0.854004H0.0612824L0 1.22486C6.22016 2.68605 10.3337 6.2018 12.042 10.437L10.3031 2.34486C10.0044 1.22486 9.13108 0.89109 8.05864 0.854004Z" fill="#E2A900"/>
</svg>
