<svg width="42" height="32" viewBox="0 0 42 32" fill="none" xmlns="http://www.w3.org/2000/svg">
<path d="M7.11644 28.0676C6.99387 27.9489 6.85599 27.8599 6.69513 27.8006C6.53426 27.7339 6.35041 27.7042 6.1589 27.7042C6.05932 27.7042 5.95208 27.7116 5.83717 27.7264C5.72993 27.7413 5.61503 27.7709 5.50778 27.8154C5.40054 27.8599 5.30095 27.9193 5.20137 27.9934C5.10179 28.0676 5.02518 28.164 4.94858 28.2827C4.83368 28.0973 4.68048 27.9564 4.48131 27.8525C4.28214 27.7487 4.05999 27.6968 3.8072 27.6968C3.72294 27.6968 3.63868 27.7042 3.54676 27.719C3.45484 27.7339 3.36291 27.7561 3.27865 27.7932C3.18672 27.8303 3.10246 27.8822 3.02586 27.9415C2.9416 28.0009 2.87266 28.0824 2.80371 28.1789V27.7784H2.09131V31.0713H2.81137V29.2468C2.81137 29.1059 2.83435 28.9798 2.88031 28.876C2.92628 28.7648 2.98756 28.6758 3.06416 28.6016C3.14076 28.5274 3.23269 28.4755 3.33227 28.4384C3.43186 28.4013 3.54675 28.3791 3.66166 28.3791C3.90679 28.3791 4.09064 28.4533 4.22852 28.6016C4.35875 28.7499 4.42768 28.965 4.42768 29.2394V31.0713H5.14775V29.2468C5.14775 29.1059 5.17073 28.9798 5.2167 28.876C5.26266 28.7648 5.32394 28.6758 5.40054 28.6016C5.47714 28.5274 5.56906 28.4755 5.66865 28.4384C5.76823 28.4013 5.88314 28.3791 5.99804 28.3791C6.24317 28.3791 6.42701 28.4533 6.5649 28.6016C6.69512 28.7499 6.76406 28.965 6.76406 29.2394V31.0713H7.48413V29.0021C7.48413 28.8093 7.45349 28.6313 7.38454 28.4755C7.33092 28.3272 7.239 28.1863 7.11644 28.0676Z" fill="black"/>
<path d="M10.9237 28.1862C10.8088 28.0379 10.6556 27.9192 10.487 27.8376C10.3108 27.7486 10.104 27.7041 9.85887 27.7041C9.62139 27.7041 9.39923 27.7486 9.1924 27.8302C8.98557 27.9192 8.80938 28.0379 8.65617 28.1862C8.50296 28.342 8.38039 28.52 8.29612 28.7351C8.21186 28.9502 8.16589 29.1802 8.16589 29.4324C8.16589 29.6846 8.21186 29.9145 8.29612 30.1296C8.38039 30.3447 8.50296 30.5227 8.65617 30.6785C8.80938 30.8343 8.99323 30.953 9.1924 31.0345C9.39923 31.1236 9.62139 31.1606 9.85887 31.1606C10.104 31.1606 10.3108 31.1161 10.487 31.0271C10.6632 30.9381 10.8088 30.8269 10.9237 30.6785V31.0716H11.6667V27.7783H10.9237V28.1862ZM10.893 29.8552C10.8471 29.9813 10.7705 30.0925 10.6862 30.189C10.5943 30.2854 10.487 30.3596 10.3645 30.4115C10.2419 30.4634 10.0963 30.4931 9.94313 30.4931C9.78226 30.4931 9.63671 30.4634 9.51415 30.4115C9.38392 30.3521 9.28433 30.278 9.1924 30.1815C9.10813 30.0851 9.03919 29.9739 8.99323 29.8478C8.94727 29.7217 8.92428 29.5807 8.92428 29.4398C8.92428 29.2989 8.94727 29.1579 8.99323 29.0318C9.03919 28.9057 9.10813 28.7945 9.1924 28.698C9.27667 28.6016 9.38392 28.5274 9.51415 28.4681C9.64437 28.4088 9.78226 28.3865 9.94313 28.3865C10.0963 28.3865 10.2342 28.4162 10.3645 28.4681C10.487 28.52 10.5943 28.5942 10.6862 28.6906C10.7781 28.7871 10.8471 28.8983 10.893 29.0244C10.939 29.1505 10.9696 29.2914 10.9696 29.4472C10.9696 29.603 10.939 29.7291 10.893 29.8552Z" fill="black"/>
<path d="M15.0679 29.432C14.861 29.2762 14.5699 29.1724 14.2022 29.1205L13.8499 29.0685C13.7733 29.0537 13.6967 29.0463 13.6277 29.0314C13.5588 29.0166 13.4975 28.9943 13.4515 28.9721C13.4056 28.9498 13.3596 28.9127 13.329 28.8756C13.2983 28.8386 13.283 28.7866 13.283 28.7347C13.283 28.616 13.3366 28.527 13.4515 28.4528C13.5664 28.3786 13.7196 28.3415 13.9265 28.3415C14.0337 28.3415 14.141 28.3489 14.2405 28.3712C14.3401 28.386 14.4397 28.4157 14.5316 28.438C14.6236 28.4676 14.7078 28.4973 14.7844 28.527C14.861 28.5566 14.9223 28.5937 14.9759 28.6234L15.2977 28.0596C15.1215 27.9483 14.9146 27.8667 14.6772 27.8C14.4397 27.7406 14.1869 27.7109 13.9188 27.7109C13.7043 27.7109 13.5052 27.7332 13.3366 27.7851C13.1604 27.8371 13.0149 27.9038 12.8923 27.9928C12.7698 28.0819 12.6778 28.1931 12.6089 28.3267C12.54 28.4602 12.5093 28.6012 12.5093 28.7644C12.5093 29.0314 12.6089 29.2466 12.8004 29.4098C12.9919 29.573 13.283 29.6843 13.6584 29.7288L14.0107 29.7733C14.2176 29.803 14.3631 29.8475 14.455 29.9068C14.547 29.9662 14.6006 30.0478 14.6006 30.1368C14.6006 30.2629 14.5316 30.3593 14.4091 30.4335C14.2788 30.5077 14.0873 30.5448 13.8269 30.5448C13.689 30.5448 13.5588 30.5374 13.4515 30.5151C13.3443 30.5003 13.2447 30.4706 13.1528 30.441C13.0609 30.4113 12.9766 30.3742 12.9077 30.3371C12.8387 30.3 12.7698 30.2555 12.7085 30.211L12.3638 30.7525C12.4863 30.8416 12.6166 30.9157 12.7468 30.9677C12.8847 31.0196 13.0149 31.0641 13.1451 31.0938C13.2753 31.1235 13.3979 31.1457 13.5128 31.1531C13.6277 31.1605 13.7273 31.168 13.8192 31.168C14.0644 31.168 14.2788 31.1383 14.4703 31.0864C14.6619 31.0344 14.8227 30.9603 14.953 30.8638C15.0832 30.7674 15.1828 30.6561 15.2517 30.5226C15.3206 30.389 15.3589 30.2481 15.3589 30.0849C15.3819 29.8104 15.2823 29.5878 15.0679 29.432Z" fill="black"/>
<path d="M22.0158 28.1862C21.8779 28.0305 21.7094 27.9192 21.5102 27.8302C21.3111 27.7486 21.0966 27.7041 20.8591 27.7041C20.6063 27.7041 20.3765 27.7486 20.1697 27.8302C19.9628 27.9118 19.7866 28.0305 19.6334 28.1862C19.4879 28.342 19.3653 28.52 19.2887 28.7351C19.2044 28.9502 19.1661 29.1801 19.1661 29.4397C19.1661 29.6993 19.2121 29.9366 19.2964 30.1517C19.3806 30.3668 19.5032 30.5448 19.6564 30.7006C19.8096 30.8489 19.9935 30.9676 20.208 31.0492C20.4225 31.1308 20.6523 31.1753 20.9127 31.1753C21.1732 31.1753 21.4183 31.1382 21.6481 31.0715C21.8779 31.0047 22.1001 30.886 22.3069 30.708L21.9392 30.1962C21.7937 30.3075 21.6405 30.3891 21.4719 30.4558C21.3034 30.5152 21.1272 30.5448 20.9587 30.5448C20.8361 30.5448 20.7212 30.53 20.614 30.5003C20.4991 30.4707 20.3995 30.4188 20.3152 30.352C20.2233 30.2852 20.1467 30.1962 20.0854 30.0924C20.0241 29.9886 19.9781 29.8625 19.9552 29.7141H22.4678C22.4755 29.6696 22.4755 29.6325 22.4755 29.5806C22.4755 29.5361 22.4755 29.4916 22.4755 29.4397C22.4755 29.1801 22.4372 28.9502 22.3529 28.7351C22.2686 28.52 22.1537 28.3346 22.0158 28.1862ZM19.9398 29.1579C19.9552 29.0392 19.9935 28.9279 20.0394 28.8315C20.0854 28.7351 20.1467 28.6461 20.2233 28.5719C20.2999 28.4977 20.3842 28.4458 20.4914 28.4087C20.591 28.3716 20.7136 28.3494 20.8438 28.3494C21.0813 28.3494 21.2728 28.4236 21.426 28.5645C21.5715 28.7054 21.6711 28.9057 21.7094 29.1653H19.9398V29.1579Z" fill="black"/>
<path d="M31.867 28.1862C31.7521 28.0379 31.5989 27.9192 31.4304 27.8376C31.2542 27.7486 31.0474 27.7041 30.8022 27.7041C30.5647 27.7041 30.3426 27.7486 30.1358 27.8302C29.9289 27.9192 29.7527 28.0379 29.5995 28.1862C29.4463 28.342 29.3238 28.52 29.2395 28.7351C29.1552 28.9502 29.1093 29.1802 29.1093 29.4324C29.1093 29.6846 29.1552 29.9145 29.2395 30.1296C29.3238 30.3447 29.4463 30.5227 29.5995 30.6785C29.7527 30.8343 29.9366 30.953 30.1358 31.0345C30.3426 31.1236 30.5647 31.1606 30.8022 31.1606C31.0474 31.1606 31.2542 31.1161 31.4304 31.0271C31.6066 30.9381 31.7521 30.8269 31.867 30.6785V31.0716H32.6101V27.7783H31.867V28.1862ZM31.8364 29.8552C31.7904 29.9813 31.7138 30.0925 31.6296 30.189C31.5376 30.2854 31.4304 30.3596 31.3078 30.4115C31.1853 30.4634 31.0397 30.4931 30.8865 30.4931C30.7256 30.4931 30.5801 30.4634 30.4575 30.4115C30.3273 30.3521 30.2277 30.278 30.1358 30.1815C30.0515 30.0851 29.9826 29.9739 29.9366 29.8478C29.8906 29.7217 29.8676 29.5807 29.8676 29.4398C29.8676 29.2989 29.8906 29.1579 29.9366 29.0318C29.9826 28.9057 30.0515 28.7945 30.1358 28.698C30.22 28.6016 30.3273 28.5274 30.4575 28.4681C30.5877 28.4088 30.7256 28.3865 30.8865 28.3865C31.0397 28.3865 31.1776 28.4162 31.3078 28.4681C31.4304 28.52 31.5376 28.5942 31.6296 28.6906C31.7215 28.7871 31.7904 28.8983 31.8364 29.0244C31.8824 29.1505 31.913 29.2914 31.913 29.4472C31.913 29.603 31.89 29.7291 31.8364 29.8552Z" fill="black"/>
<path d="M18.2546 30.4273C18.132 30.4718 18.0171 30.4941 17.9022 30.4941C17.8256 30.4941 17.7566 30.4793 17.6877 30.457C17.6188 30.4348 17.5651 30.3977 17.5192 30.3457C17.4732 30.2938 17.4349 30.2345 17.4043 30.1529C17.3736 30.0787 17.3583 29.9823 17.3583 29.8711V28.4396H18.5456V27.7869H17.3583V26.793H16.6153V27.7869H15.9412V28.4396H16.6153V29.8859C16.6153 30.3235 16.7225 30.6424 16.937 30.8501C17.1515 31.0578 17.4502 31.1616 17.8332 31.1616C18.0477 31.1616 18.2392 31.132 18.4154 31.0652C18.5303 31.0207 18.6376 30.9762 18.7295 30.9243L18.4767 30.3235C18.4078 30.368 18.3312 30.3977 18.2546 30.4273Z" fill="black"/>
<path d="M24.9497 27.7041C24.7429 27.7041 24.5514 27.7412 24.3829 27.8154C24.2143 27.8896 24.0765 28.0676 23.9616 28.2234V27.7931H23.2875V31.0869H23.9692V29.2768C23.9692 29.1359 23.9922 29.0098 24.0305 28.9059C24.0688 28.7946 24.1301 28.7056 24.199 28.624C24.268 28.5498 24.3522 28.4905 24.4518 28.4534C24.5514 28.4163 24.6586 28.394 24.7812 28.394C24.8731 28.394 24.965 28.4014 25.0723 28.4237C25.1259 28.4311 25.1718 28.4459 25.2178 28.4608L25.4399 27.7709C25.3787 27.756 25.3174 27.7338 25.2561 27.7264C25.1642 27.7115 25.0569 27.7041 24.9497 27.7041Z" fill="black"/>
<path d="M35.2529 27.7041C35.0461 27.7041 34.8545 27.7412 34.686 27.8154C34.5175 27.8896 34.3796 28.0676 34.2647 28.2234V27.7931H33.5906V31.0869H34.2724V29.2768C34.2724 29.1359 34.2953 29.0098 34.3336 28.9059C34.3719 28.7946 34.4332 28.7056 34.5022 28.624C34.5711 28.5498 34.6554 28.4905 34.755 28.4534C34.8545 28.4163 34.9618 28.394 35.0844 28.394C35.1763 28.394 35.2682 28.4014 35.3755 28.4237C35.4291 28.4311 35.475 28.4459 35.521 28.4608L35.7432 27.7709C35.6819 27.756 35.6206 27.7338 35.5593 27.7264C35.475 27.7115 35.3678 27.7041 35.2529 27.7041Z" fill="black"/>
<path d="M38.723 26.4503V28.1861C38.6081 28.0377 38.4549 27.919 38.2864 27.8374C38.1102 27.7484 37.9033 27.7039 37.6582 27.7039C37.4208 27.7039 37.1986 27.7484 36.9918 27.83C36.785 27.919 36.6088 28.0377 36.4556 28.1861C36.3024 28.3418 36.1798 28.5199 36.0955 28.735C36.0113 28.9501 35.9653 29.1801 35.9653 29.4323C35.9653 29.6845 36.0113 29.9144 36.0955 30.1296C36.1798 30.3447 36.3024 30.5227 36.4556 30.6785C36.6088 30.8343 36.7926 30.9529 36.9918 31.0345C37.1986 31.1236 37.4208 31.1606 37.6582 31.1606C37.9033 31.1606 38.1102 31.1161 38.2864 31.0271C38.4625 30.9381 38.6081 30.8268 38.723 30.6785V31.0716H39.466V26.4429H38.723V26.4503ZM38.6924 29.8551C38.6464 29.9812 38.5698 30.0925 38.4855 30.1889C38.3936 30.2853 38.2864 30.3595 38.1638 30.4114C38.0412 30.4634 37.8957 30.493 37.7425 30.493C37.5816 30.493 37.4361 30.4634 37.3135 30.4114C37.1833 30.3521 37.076 30.2779 36.9918 30.1815C36.9075 30.0851 36.8386 29.9738 36.7926 29.8477C36.7466 29.7216 36.7237 29.5806 36.7237 29.4397C36.7237 29.2988 36.7466 29.1578 36.7926 29.0317C36.8386 28.9056 36.9075 28.7943 36.9918 28.6979C37.076 28.6015 37.1833 28.5273 37.3135 28.468C37.4437 28.4086 37.5816 28.3864 37.7425 28.3864C37.8957 28.3864 38.0336 28.416 38.1638 28.468C38.2864 28.5199 38.3936 28.5941 38.4855 28.6905C38.5774 28.7869 38.6464 28.8982 38.6924 29.0243C38.7383 29.1504 38.7689 29.2913 38.7689 29.4471C38.7689 29.6029 38.7383 29.729 38.6924 29.8551Z" fill="black"/>
<path d="M26.7193 28.6757C26.8112 28.5793 26.9261 28.5126 27.0563 28.4606C27.1866 28.4087 27.3244 28.3865 27.4777 28.3865C27.6462 28.3865 27.7994 28.4087 27.9449 28.4606C28.0828 28.5126 28.2054 28.5793 28.305 28.6683L28.665 28.0898C28.5348 27.986 28.3816 27.9044 28.2131 27.8376C27.9909 27.7486 27.7458 27.7041 27.4853 27.7041C27.2249 27.7041 26.9797 27.7486 26.7576 27.8376C26.5354 27.9266 26.3439 28.0453 26.183 28.201C26.0222 28.3568 25.8919 28.5348 25.8 28.7499C25.7081 28.9576 25.6621 29.1875 25.6621 29.4397C25.6621 29.6845 25.7081 29.9144 25.8 30.1295C25.8919 30.3372 26.0222 30.5226 26.183 30.6784C26.3439 30.8341 26.5354 30.9528 26.7576 31.0418C26.9797 31.1308 27.2249 31.1753 27.4853 31.1753C27.7458 31.1753 27.9909 31.1308 28.2131 31.0418C28.3816 30.975 28.5348 30.8934 28.665 30.7896L28.305 30.2111C28.2054 30.3001 28.0828 30.3668 27.9449 30.4188C27.7994 30.4707 27.6462 30.4929 27.4777 30.4929C27.3244 30.4929 27.1866 30.4707 27.0563 30.4188C26.9261 30.3668 26.8112 30.2927 26.7193 30.2037C26.6273 30.1072 26.5507 30.0034 26.4971 29.8699C26.4435 29.7438 26.4128 29.5955 26.4128 29.4397C26.4128 29.2839 26.4435 29.143 26.4971 29.0095C26.5507 28.876 26.6273 28.7647 26.7193 28.6757Z" fill="black"/>
<path d="M41.0211 30.5972C41.0671 30.5972 41.113 30.6046 41.159 30.6268C41.2049 30.6417 41.2432 30.6713 41.2739 30.701C41.3045 30.7306 41.3351 30.7677 41.3505 30.8048C41.3658 30.8418 41.3811 30.8863 41.3811 30.9382C41.3811 30.9827 41.3734 31.0272 41.3505 31.0717C41.3351 31.1162 41.3045 31.1458 41.2739 31.1755C41.2432 31.2052 41.2049 31.2274 41.159 31.2496C41.113 31.2645 41.0671 31.2793 41.0211 31.2793C40.9675 31.2793 40.9215 31.2719 40.8832 31.2496C40.8373 31.2348 40.799 31.2052 40.7684 31.1755C40.7377 31.1458 40.7147 31.1088 40.6918 31.0717C40.6764 31.0272 40.6611 30.9901 40.6611 30.9382C40.6611 30.8937 40.6688 30.8493 40.6918 30.8048C40.7071 30.7677 40.7377 30.7306 40.7684 30.701C40.799 30.6713 40.8373 30.6491 40.8832 30.6268C40.9292 30.612 40.9752 30.5972 41.0211 30.5972ZM41.0211 31.1755C41.0518 31.1755 41.0901 31.1681 41.1207 31.1533C41.1513 31.1384 41.1743 31.1236 41.1973 31.1014C41.2203 31.0791 41.2356 31.0569 41.2509 31.0272C41.2662 30.9976 41.2739 30.9679 41.2739 30.9308C41.2739 30.9012 41.2662 30.8641 41.2509 30.8344C41.2356 30.8048 41.2203 30.7825 41.1973 30.7603C41.1743 30.738 41.1513 30.7232 41.1207 30.7084C41.0901 30.6936 41.0594 30.6861 41.0211 30.6861C40.9828 30.6861 40.9522 30.6936 40.9215 30.7084C40.8909 30.7232 40.8679 30.738 40.845 30.7603C40.822 30.7825 40.8067 30.8048 40.7913 30.8344C40.776 30.8641 40.7684 30.8937 40.7684 30.9308C40.7684 30.9679 40.776 30.9976 40.7913 31.0272C40.8067 31.0569 40.822 31.0791 40.845 31.1014C40.8679 31.1236 40.8909 31.1384 40.9215 31.1533C40.9522 31.1755 40.9905 31.1755 41.0211 31.1755ZM41.0441 30.7899C41.0901 30.7899 41.1207 30.7974 41.1437 30.8196C41.1666 30.8344 41.1743 30.8641 41.1743 30.8937C41.1743 30.916 41.1666 30.9382 41.1513 30.9531C41.136 30.9679 41.113 30.9827 41.0824 30.9827L41.1743 31.0865H41.0671L40.9828 30.9827H40.9752V31.0865H40.8909V30.7899H41.0441ZM40.9752 30.8567V30.9086H41.0364C41.0518 30.9086 41.0594 30.9086 41.0671 30.9012C41.0747 30.8937 41.0747 30.8937 41.0747 30.8789C41.0747 30.8715 41.0747 30.8641 41.0671 30.8567C41.0594 30.8493 41.0518 30.8493 41.0364 30.8493H40.9752V30.8567Z" fill="black"/>
<path d="M15.8875 12.4019C15.8875 8.45581 17.7873 4.94739 20.7518 2.67767C18.5686 1.00135 15.8109 0 12.8081 0C5.72993 0 0 5.55562 0 12.4019C0 19.2481 5.73759 24.8037 12.8081 24.8037C15.8109 24.8037 18.5686 23.8024 20.7518 22.126C17.7949 19.8563 15.8875 16.3479 15.8875 12.4019Z" fill="#C01917"/>
<path d="M20.7519 22.126C23.4384 22.126 25.6162 17.7722 25.6162 12.4016C25.6162 7.03099 23.4384 2.67725 20.7519 2.67725C18.0654 2.67725 15.8876 7.03099 15.8876 12.4016C15.8876 17.7722 18.0654 22.126 20.7519 22.126Z" fill="#CF6F00"/>
<path d="M40.6458 19.1147V18.7512H40.4926V18.6548H40.9062V18.7512H40.753V19.1147H40.6458ZM41.4424 19.1147V18.7957L41.3352 19.0702H41.2126L41.1054 18.7957V19.1147H40.9905V18.6548H41.1513L41.2739 18.9515L41.3888 18.6548H41.5497V19.1147H41.4424Z" fill="#DFA20B"/>
<path d="M28.7033 0C25.7004 0 22.9427 1.00135 20.7595 2.67767C23.7241 4.94739 25.6238 8.46323 25.6238 12.4019C25.6238 16.3405 23.7241 19.8563 20.7595 22.126C22.9427 23.8024 25.7004 24.8037 28.7033 24.8037C35.7814 24.8037 41.5114 19.2481 41.5114 12.4019C41.5114 5.55562 35.7738 0 28.7033 0Z" fill="#DFA20B"/>
</svg>
