<svg width="26" height="25" viewBox="0 0 26 25" fill="none" xmlns="http://www.w3.org/2000/svg">
<path fill-rule="evenodd" clip-rule="evenodd" d="M13.3102 0.664062C20.1049 0.664062 25.6204 5.99713 25.6204 12.5837C25.6204 19.1629 20.1126 24.5034 13.3102 24.5034C6.51546 24.5034 1 19.1703 1 12.5837C1 5.99713 6.51546 0.664062 13.3102 0.664062Z" fill="#000007" stroke="#1E1D1B" stroke-width="0.5669" stroke-miterlimit="22.9256"/>
<path fill-rule="evenodd" clip-rule="evenodd" d="M8.0245 9.38672C9.80934 9.38672 11.3031 10.581 11.7014 12.1906L10.177 12.8359L8.61434 13.4961L4.87615 15.0835C4.47781 14.5049 4.24036 13.8077 4.24036 13.0511C4.24036 11.026 5.93326 9.38672 8.0245 9.38672ZM9.64848 11.6639L5.87198 13.2439C5.86432 13.1772 5.86432 13.1178 5.86432 13.0511C5.86432 11.8939 6.82951 10.9518 8.03217 10.9518C8.66797 10.9518 9.25015 11.2337 9.64848 11.6639Z" fill="white"/>
<path fill-rule="evenodd" clip-rule="evenodd" d="M10.6674 15.6698C9.31148 16.9159 7.51897 17.0345 5.94861 16.1148L6.83721 14.802C7.73346 15.3212 8.62971 15.2396 9.53362 14.5498L10.6674 15.6698Z" fill="white"/>
<path fill-rule="evenodd" clip-rule="evenodd" d="M12.2071 14.7645L12.1995 7.83594H13.5553V14.579C13.5553 14.6458 13.563 14.6977 13.6549 14.7348L14.8346 15.1799L14.306 16.5151L12.9272 15.9514C12.391 15.7362 12.2071 15.4247 12.2071 14.7645Z" fill="white"/>
<path fill-rule="evenodd" clip-rule="evenodd" d="M17.3088 14.646C16.8033 14.2603 16.4739 13.6669 16.4739 12.9919C16.4739 12.3985 16.7343 11.857 17.148 11.4787L16.2747 10.1064C15.3938 10.7814 14.8269 11.8273 14.8269 12.9993C14.8269 14.2603 15.4857 15.3729 16.4815 16.0405L17.3088 14.646Z" fill="#669DD2"/>
<path fill-rule="evenodd" clip-rule="evenodd" d="M17.9064 11.0339C18.1362 10.9523 18.3813 10.9078 18.6341 10.9078C19.561 10.9078 20.35 11.4715 20.6564 12.2578L22.334 12.1243C21.928 10.5072 20.4266 9.31299 18.6341 9.31299C18.1285 9.31299 17.6459 9.40942 17.2016 9.58002L17.9064 11.0339Z" fill="#F5EB4F"/>
<path fill-rule="evenodd" clip-rule="evenodd" d="M20.7866 13.0957C20.733 14.201 19.7907 15.0837 18.634 15.0837C18.4502 15.0837 18.274 15.0615 18.1055 15.0244L17.4467 16.5006C17.822 16.6193 18.2204 16.686 18.634 16.686C20.687 16.686 22.357 15.1134 22.4336 13.155L20.7866 13.0957Z" fill="#C5490D"/>
</svg>
