<svg width="24" height="23" viewBox="0 0 24 23" fill="none" xmlns="http://www.w3.org/2000/svg">
<path d="M22.8388 4.10189C22.6301 2.14613 21.0855 0.601181 19.1296 0.392622C14.2246 -0.130874 9.30527 -0.130874 4.40046 0.392622C2.44453 0.601356 0.899757 2.14613 0.691023 4.10189C0.167527 9.00669 0.167527 13.9262 0.691023 18.831C0.899757 20.7869 2.44453 22.3317 4.40029 22.5404C9.30509 23.0639 14.2246 23.0639 19.1296 22.5404C21.0855 22.3317 22.6301 20.7869 22.8388 18.831C23.3623 13.9262 23.3623 9.00687 22.8388 4.10189Z" fill="url(#paint0_radial)"/>
<path d="M0.642029 18.3555C0.657776 18.514 0.674047 18.6725 0.691019 18.831C0.899753 20.7868 2.44452 22.3316 4.40046 22.5403C9.30526 23.0638 14.2248 23.0638 19.1296 22.5403C21.0855 22.3316 22.6301 20.7868 22.8388 18.831C22.8558 18.6725 22.8721 18.514 22.888 18.3555H0.642029Z" fill="url(#paint1_linear)"/>
<path d="M22.8388 18.8309C23.1202 16.1954 23.25 13.5557 23.229 10.9164L17.987 5.67442C17.3321 4.92679 16.3756 4.46016 15.2516 4.41974C12.9401 4.33646 10.6213 4.34066 8.30951 4.42009C6.38944 4.48623 5.04676 5.77677 4.70243 7.67357C4.64171 8.00846 4.60532 8.34772 4.55756 8.68505V14.2458C4.58398 14.426 4.62282 14.6054 4.63489 14.7866C4.71188 15.9403 5.18603 16.9285 5.94521 17.5971L11.2796 22.9313C13.8974 22.9496 16.5154 22.8195 19.1295 22.5404C21.0855 22.3316 22.6301 20.7869 22.8388 18.8309Z" fill="url(#paint2_linear)"/>
<path d="M22.8389 18.8309C22.6303 20.7865 21.0852 22.3316 19.1296 22.5402C16.5158 22.8191 13.8973 22.9494 11.2798 22.9311L5.95349 17.6048C6.57094 18.1452 7.37578 18.4744 8.30975 18.5095C10.621 18.5963 12.9404 18.594 15.2517 18.5107C17.3422 18.4352 18.8549 16.8879 18.9202 14.7975C18.9898 12.5778 18.9898 10.3525 18.9202 8.13285C18.8904 7.16844 18.5519 6.31986 17.9906 5.67773L23.2292 10.9164C23.2499 13.5554 23.12 16.1954 22.8389 18.8309Z" fill="url(#paint3_linear)"/>
<path d="M14.471 8.9834C13.7995 8.25222 12.8359 7.79346 11.765 7.79346C9.73641 7.79346 8.09174 9.43813 8.09174 11.4667C8.09174 12.5376 8.5505 13.5012 9.28168 14.1727L17.7803 22.6713C18.2301 22.6321 18.6799 22.5885 19.1294 22.5406C21.0854 22.3319 22.6301 20.7871 22.8389 18.8311C22.8868 18.3817 22.9304 17.9318 22.9696 17.482L14.471 8.9834Z" fill="url(#paint4_linear)"/>
<path d="M23.1871 13.9369L16.3473 7.09733C16.1877 6.8879 15.9363 6.75195 15.6527 6.75195C15.1701 6.75195 14.7787 7.14318 14.7787 7.62591C14.7787 7.90952 14.9147 8.16095 15.1241 8.32052L23.0648 16.2613C23.1186 15.4868 23.1594 14.7118 23.1871 13.9369Z" fill="url(#paint5_linear)"/>
<path d="M4.55756 8.68505C4.60532 8.34772 4.64171 8.00846 4.70243 7.67357C5.04658 5.77677 6.38944 4.48623 8.30951 4.42009C10.6213 4.34066 12.9401 4.33646 15.2516 4.41974C17.3414 4.49498 18.8549 6.04237 18.9201 8.13286C18.9896 10.3526 18.9896 12.5779 18.9201 14.7976C18.8549 16.8881 17.3419 18.4353 15.2518 18.5108C12.9403 18.5942 10.621 18.5963 8.30969 18.5095C6.21955 18.431 4.77469 16.8801 4.63489 14.7864C4.62282 14.6054 4.58398 14.4258 4.55756 14.2456C4.55756 12.392 4.55756 10.5385 4.55756 8.68505ZM11.7668 17.2718C12.8247 17.2718 13.8836 17.3035 14.94 17.2645C16.5964 17.2031 17.6152 16.2145 17.6539 14.5597C17.7018 12.4977 17.7018 10.433 17.6539 8.37081C17.6152 6.71634 16.5957 5.70469 14.94 5.66952C12.8385 5.62508 10.7347 5.62543 8.6332 5.66952C6.9901 5.70399 5.9683 6.69517 5.92369 8.33144C5.867 10.4195 5.867 12.5112 5.92369 14.5992C5.9683 16.2353 6.9901 17.2036 8.63337 17.2645C9.67652 17.3033 10.7223 17.2718 11.7668 17.2718Z" fill="url(#paint6_linear)"/>
<path d="M4.55756 8.68505C4.60532 8.34772 4.64171 8.00846 4.70243 7.67357C5.04658 5.77677 6.38944 4.48623 8.30951 4.42009C10.6213 4.34066 12.9401 4.33646 15.2516 4.41974C17.3414 4.49498 18.8549 6.04237 18.9201 8.13286C18.9896 10.3526 18.9896 12.5779 18.9201 14.7976C18.8549 16.8881 17.3419 18.4353 15.2518 18.5108C12.9403 18.5942 10.621 18.5963 8.30969 18.5095C6.21955 18.431 4.77469 16.8801 4.63489 14.7864C4.62282 14.6054 4.58398 14.4258 4.55756 14.2456C4.55756 12.392 4.55756 10.5385 4.55756 8.68505ZM11.7668 17.2718C12.8247 17.2718 13.8836 17.3035 14.94 17.2645C16.5964 17.2031 17.6152 16.2145 17.6539 14.5597C17.7018 12.4977 17.7018 10.433 17.6539 8.37081C17.6152 6.71634 16.5957 5.70469 14.94 5.66952C12.8385 5.62508 10.7347 5.62543 8.6332 5.66952C6.9901 5.70399 5.9683 6.69517 5.92369 8.33144C5.867 10.4195 5.867 12.5112 5.92369 14.5992C5.9683 16.2353 6.9901 17.2036 8.63337 17.2645C9.67652 17.3033 10.7223 17.2718 11.7668 17.2718Z" fill="white"/>
<path d="M11.7649 7.79346C9.73635 7.79346 8.09167 9.43796 8.09167 11.4665C8.09167 13.4952 9.73635 15.1397 11.7649 15.1397C13.7936 15.1397 15.4381 13.4952 15.4381 11.4665C15.4381 9.43796 13.7936 7.79346 11.7649 7.79346ZM11.7649 13.8751C10.4346 13.8751 9.35632 12.7968 9.35632 11.4665C9.35632 10.1362 10.4346 9.05793 11.7649 9.05793C13.0952 9.05793 14.1735 10.1362 14.1735 11.4665C14.1735 12.7968 13.0952 13.8751 11.7649 13.8751Z" fill="white"/>
<path d="M16.5264 7.62591C16.5264 8.10846 16.1352 8.49968 15.6526 8.49968C15.1701 8.49968 14.7787 8.10846 14.7787 7.62591C14.7787 7.14318 15.1701 6.75195 15.6526 6.75195C16.1352 6.75195 16.5264 7.14318 16.5264 7.62591Z" fill="white"/>
<defs>
<radialGradient id="paint0_radial" cx="0" cy="0" r="1" gradientUnits="userSpaceOnUse" gradientTransform="translate(4.99955 20.0417) scale(25.2911)">
<stop stop-color="#FAE100"/>
<stop offset="0.0544" stop-color="#FADC04"/>
<stop offset="0.1167" stop-color="#FBCE0E"/>
<stop offset="0.1829" stop-color="#FCB720"/>
<stop offset="0.2514" stop-color="#FE9838"/>
<stop offset="0.3054" stop-color="#FF7950"/>
<stop offset="0.4922" stop-color="#FF1C74"/>
<stop offset="1" stop-color="#6C1CD1"/>
</radialGradient>
<linearGradient id="paint1_linear" x1="11.7649" y1="20.2439" x2="11.7649" y2="23.8186" gradientUnits="userSpaceOnUse">
<stop stop-color="#FAE100" stop-opacity="0"/>
<stop offset="0.3068" stop-color="#FCA800" stop-opacity="0.305882"/>
<stop offset="0.6275" stop-color="#FE7300" stop-opacity="0.627451"/>
<stop offset="0.8685" stop-color="#FF5200" stop-opacity="0.866667"/>
<stop offset="1" stop-color="#FF4500"/>
</linearGradient>
<linearGradient id="paint2_linear" x1="10.4602" y1="10.1294" x2="4.78469" y2="4.4538" gradientUnits="userSpaceOnUse">
<stop stop-color="#833AB4" stop-opacity="0"/>
<stop offset="1" stop-color="#833AB4"/>
</linearGradient>
<linearGradient id="paint3_linear" x1="16.0156" y1="20.9749" x2="13.1829" y2="7.62041" gradientUnits="userSpaceOnUse">
<stop stop-color="#833AB4" stop-opacity="0"/>
<stop offset="1" stop-color="#833AB4"/>
</linearGradient>
<linearGradient id="paint4_linear" x1="17.0935" y1="16.7953" x2="5.71552" y2="5.41723" gradientUnits="userSpaceOnUse">
<stop stop-color="#833AB4" stop-opacity="0"/>
<stop offset="1" stop-color="#833AB4"/>
</linearGradient>
<linearGradient id="paint5_linear" x1="17.9375" y1="9.91067" x2="14.175" y2="6.14818" gradientUnits="userSpaceOnUse">
<stop stop-color="#833AB4" stop-opacity="0"/>
<stop offset="1" stop-color="#833AB4"/>
</linearGradient>
<linearGradient id="paint6_linear" x1="16.3183" y1="6.94479" x2="7.04135" y2="16.2217" gradientUnits="userSpaceOnUse">
<stop stop-color="#833AB4"/>
<stop offset="0.0922" stop-color="#9C3495"/>
<stop offset="0.2927" stop-color="#DC2546"/>
<stop offset="0.392" stop-color="#FD1D1D"/>
<stop offset="0.5589" stop-color="#FC6831"/>
<stop offset="0.6887" stop-color="#FC9B40"/>
<stop offset="0.7521" stop-color="#FCAF45"/>
<stop offset="0.7806" stop-color="#FDB750"/>
<stop offset="0.8656" stop-color="#FECB6A"/>
<stop offset="0.9415" stop-color="#FFD87A"/>
<stop offset="1" stop-color="#FFDC80"/>
</linearGradient>
</defs>
</svg>
