<svg width="24" height="23" viewBox="0 0 24 23" fill="none" xmlns="http://www.w3.org/2000/svg">
<path d="M23.2315 21.5096C23.2315 22.3004 22.5988 22.9331 21.808 22.9331H1.72182C0.931031 22.9331 0.298401 22.3004 0.298401 21.5096V1.42342C0.298401 0.63263 0.931031 0 1.72182 0H21.808C22.5988 0 23.2315 0.63263 23.2315 1.42342V21.5096Z" fill="#FF8000"/>
<path d="M18.8821 12.8897C18.8821 10.7546 18.2494 9.88468 16.1143 9.88468V7.90769C16.1143 5.77254 13.9001 4.34912 12.4766 4.34912H8.87851C6.3875 4.34912 4.64777 6.1284 4.64777 8.61942V14.3131C4.64777 16.7646 6.3875 18.5834 8.91806 18.5834H14.6513C17.1423 18.5834 18.8821 16.7646 18.8821 14.3131V12.8897Z" fill="white"/>
<path d="M12.358 9.88471H9.19479C8.64122 9.88471 8.2063 9.44978 8.2063 8.89621C8.2063 8.34264 8.64122 7.90771 9.19479 7.90771H12.358C12.9116 7.90771 13.3465 8.34264 13.3465 8.89621C13.3465 9.44974 12.9116 9.88471 12.358 9.88471Z" fill="#FF8000"/>
<path d="M14.335 15.0248H9.19486C8.64128 15.0248 8.20636 14.5899 8.20636 14.0363C8.20636 13.4828 8.64128 13.0479 9.19486 13.0479H14.335C14.8886 13.0479 15.3235 13.4828 15.3235 14.0363C15.3235 14.5899 14.8886 15.0248 14.335 15.0248Z" fill="#FF8000"/>
</svg>
