<svg width="24" height="23" viewBox="0 0 24 23" fill="none" xmlns="http://www.w3.org/2000/svg">
<path d="M20.6566 0H2.95095C1.3235 0 0 1.28568 0 2.86663V20.0664C0 21.6474 1.3235 22.9331 2.95095 22.9331H20.6566C22.2841 22.9331 23.6076 21.6474 23.6076 20.0664V2.86663C23.6076 1.28568 22.2841 0 20.6566 0Z" fill="#1976D2"/>
<path d="M19.9189 11.4664H16.2302V8.59975C16.2302 7.80856 16.8912 7.8831 17.7057 7.8831H19.1812V4.2998H16.2302C13.7853 4.2998 11.8038 6.22475 11.8038 8.59975V11.4664H8.85284V15.0497H11.8038V22.9329H16.2302V15.0497H18.4434L19.9189 11.4664Z" fill="#FAFAFA"/>
</svg>
