<svg width="41" height="25" viewBox="0 0 41 25" fill="none" xmlns="http://www.w3.org/2000/svg">
<path fill-rule="evenodd" clip-rule="evenodd" d="M20.4225 21.4705C22.8891 19.2897 24.4365 16.1373 24.4365 12.6362C24.4365 9.13517 22.8891 5.98273 20.4225 3.80199C18.2546 1.88827 15.3743 0.716309 12.2183 0.716309C5.4695 0.716309 0 6.04949 0 12.6362C0 19.2156 5.4695 24.5562 12.2183 24.5562C15.382 24.5562 18.2546 23.3842 20.4225 21.4705Z" fill="#4897D2"/>
<path fill-rule="evenodd" clip-rule="evenodd" d="M28.6267 0.71582C25.4706 0.71582 22.5904 1.88038 20.4225 3.80152C19.9782 4.19465 19.5645 4.61746 19.1892 5.06251H21.6558C21.9928 5.46306 22.3069 5.88586 22.5904 6.32349H18.2623C18.0018 6.73146 17.7643 7.14684 17.5575 7.58448H23.2951C23.4943 7.99244 23.6628 8.41524 23.816 8.84546H17.0443C16.9064 9.25343 16.7838 9.67623 16.6919 10.1064H24.176C24.3522 10.9224 24.4518 11.768 24.4518 12.6284C24.4518 13.9487 24.2297 15.2246 23.8237 16.4114H17.0519C17.1975 16.8416 17.3737 17.2644 17.5728 17.6724H23.3104C23.1036 18.11 22.8661 18.5328 22.6057 18.9333H18.2776C18.561 19.371 18.8751 19.7938 19.2121 20.1943H21.6788C21.2958 20.6468 20.8898 21.0622 20.4455 21.4553C22.6133 23.369 25.4936 24.541 28.6497 24.541C35.3984 24.541 40.8679 19.2078 40.8679 12.621C40.8449 6.05646 35.3755 0.71582 28.6267 0.71582Z" fill="#BF0024"/>
<path fill-rule="evenodd" clip-rule="evenodd" d="M39.2209 19.2817C39.2209 19.0666 39.3971 18.896 39.6193 18.896C39.8337 18.896 40.0176 19.0666 40.0176 19.2817C40.0176 19.4969 39.8414 19.6675 39.6193 19.6675C39.3971 19.6675 39.2209 19.4894 39.2209 19.2817ZM39.6116 19.571C39.7801 19.571 39.9103 19.4375 39.9103 19.2817C39.9103 19.1185 39.7725 18.9924 39.6116 18.9924C39.4431 18.9924 39.3129 19.126 39.3129 19.2817C39.3129 19.4449 39.4507 19.571 39.6116 19.571ZM39.558 19.4524H39.4737V19.1111H39.6193C39.6499 19.1111 39.6805 19.1111 39.7112 19.126C39.7418 19.1408 39.7571 19.1779 39.7571 19.2076C39.7571 19.2446 39.7342 19.2817 39.6959 19.2966L39.7571 19.4449H39.6652L39.6116 19.3114H39.5503V19.4524V19.2595H39.5963C39.6116 19.2595 39.6346 19.2595 39.6422 19.2521C39.6576 19.2446 39.6652 19.2298 39.6652 19.215C39.6652 19.2001 39.6576 19.1853 39.6422 19.1779C39.6269 19.1705 39.6039 19.1705 39.5886 19.1705H39.5427V19.2595V19.4524H39.558Z" fill="#BF0024"/>
<path fill-rule="evenodd" clip-rule="evenodd" d="M36.6317 15.217C36.6317 15.0021 36.8079 14.8315 37.0224 14.8315C37.2369 14.8315 37.4208 15.0021 37.4208 15.217C37.4208 15.432 37.2446 15.6025 37.0224 15.6025C36.8079 15.6025 36.6317 15.432 36.6317 15.217ZM37.0301 15.5136C37.1986 15.5136 37.3289 15.3801 37.3289 15.2245C37.3289 15.0614 37.191 14.9353 37.0301 14.9353C36.8615 14.9353 36.7313 15.0688 36.7313 15.2245C36.7313 15.3801 36.8615 15.5136 37.0301 15.5136ZM36.9764 15.3876H36.8922V15.0465H37.0377C37.0684 15.0465 37.099 15.0465 37.1297 15.0614C37.1603 15.0762 37.1756 15.1133 37.1756 15.1429C37.1756 15.18 37.1527 15.217 37.1143 15.2319L37.1756 15.3801H37.0837L37.0301 15.2467H36.9688V15.3876V15.1948H37.0148C37.0301 15.1948 37.0531 15.1948 37.0607 15.1874C37.076 15.18 37.0837 15.1651 37.0837 15.1503C37.0837 15.1355 37.076 15.1207 37.0607 15.1133C37.0454 15.1058 37.0224 15.1058 37.0071 15.1058H36.9611V15.1948V15.3876H36.9764Z" fill="white"/>
<path fill-rule="evenodd" clip-rule="evenodd" d="M10.6938 15.603H9.17707L10.081 10.9595L7.99737 15.603H6.61085L6.35806 10.9817L5.45414 15.603H4.06763L5.24731 9.56494H7.62202L7.75224 13.3035L9.42219 9.56494H11.8965L10.6938 15.603Z" fill="white"/>
<path fill-rule="evenodd" clip-rule="evenodd" d="M27.6921 15.5434C27.2785 15.6546 26.9491 15.7065 26.5967 15.7065C25.8153 15.7065 25.394 15.3283 25.394 14.6236C25.394 14.4827 25.4094 14.3417 25.44 14.186L25.5319 13.7038L25.6009 13.3181L26.3056 9.56494H27.8147L27.5925 10.6924H28.3662L28.1594 11.8866H27.378L26.9797 13.9338C26.9644 14.0228 26.9567 14.0896 26.9567 14.1341C26.9567 14.3862 27.1176 14.4975 27.4776 14.4975C27.6538 14.4975 27.784 14.4827 27.8913 14.453L27.6921 15.5434Z" fill="white"/>
<path fill-rule="evenodd" clip-rule="evenodd" d="M32.1351 10.7302C32.0049 10.6783 31.9743 10.6783 31.9666 10.6783C31.8823 10.6635 31.844 10.6486 31.8364 10.6486C31.7904 10.6412 31.7368 10.6338 31.6832 10.6338C31.1852 10.6338 30.8252 10.8489 30.3579 11.4348L30.4958 10.6931H29.117L28.1901 15.6104H29.7145C30.2584 12.6066 30.4958 12.08 31.2236 12.08C31.2772 12.08 31.3385 12.0875 31.4151 12.0949L31.5912 12.1319L32.1351 10.7302Z" fill="white"/>
<path fill-rule="evenodd" clip-rule="evenodd" d="M21.6635 12.243C21.6635 12.866 22.0235 13.2888 22.8355 13.6151C23.456 13.8599 23.5556 13.9341 23.5556 14.1566C23.5556 14.4607 23.2798 14.6016 22.6746 14.6016C22.215 14.6016 21.786 14.5423 21.2958 14.4088L21.0813 15.5436L21.1502 15.5584L21.4337 15.6103C21.5256 15.6251 21.6558 15.64 21.832 15.6548C22.1997 15.6845 22.4831 15.6919 22.6823 15.6919C24.3063 15.6919 25.057 15.1727 25.057 14.0527C25.057 13.3778 24.7429 12.9847 23.9692 12.688C23.3257 12.4358 23.2491 12.3839 23.2491 12.154C23.2491 11.887 23.5019 11.7535 23.9998 11.7535C24.2986 11.7535 24.7122 11.7831 25.1029 11.8276L25.3251 10.6928C24.9267 10.6409 24.3216 10.5964 23.9692 10.5964C22.2533 10.5816 21.6558 11.3381 21.6635 12.243Z" fill="white"/>
<path fill-rule="evenodd" clip-rule="evenodd" d="M15.6425 15.6025H14.3785L14.4091 15.0907C14.0261 15.4912 13.5128 15.6841 12.8157 15.6841C11.9884 15.6841 11.4292 15.1352 11.4292 14.3416C11.4292 13.1474 12.4097 12.4502 14.1027 12.4502C14.2789 12.4502 14.4934 12.4651 14.7232 12.4873C14.7692 12.3242 14.7845 12.2574 14.7845 12.1684C14.7845 11.842 14.5164 11.7234 13.8116 11.7234C13.375 11.7234 12.8847 11.7753 12.5476 11.8569L12.3331 11.9088L12.1952 11.9385L12.4097 10.8333C13.1681 10.6405 13.666 10.5737 14.2329 10.5737C15.5429 10.5737 16.2323 11.0707 16.2323 12.0126C16.2323 12.2574 16.2093 12.4428 16.1097 12.9843L15.7957 14.7273L15.742 15.0388L15.7037 15.291L15.6807 15.4616L15.6425 15.6025ZM14.5317 13.4145C14.3708 13.3996 14.3019 13.3922 14.1946 13.3922C13.329 13.3922 12.9 13.6444 12.9 14.1413C12.9 14.4454 13.1145 14.6457 13.4439 14.6457C14.0567 14.6457 14.501 14.1413 14.5317 13.4145Z" fill="white"/>
<path fill-rule="evenodd" clip-rule="evenodd" d="M20.6293 15.499C20.1084 15.6325 19.6028 15.6992 19.0743 15.6992C17.3737 15.6992 16.4851 14.9426 16.4851 13.4963C16.4851 11.8125 17.6112 10.5664 19.1432 10.5664C20.3918 10.5664 21.1962 11.2636 21.1962 12.354C21.1962 12.7174 21.1425 13.0661 21.0123 13.5704H17.9865C17.9712 13.6446 17.9712 13.6817 17.9712 13.7262C17.9712 14.2973 18.4232 14.5866 19.3041 14.5866C19.848 14.5866 20.3382 14.4902 20.8821 14.2751L20.6293 15.499ZM19.8173 12.5765C19.825 12.4727 19.8326 12.3911 19.8326 12.3243C19.8326 11.9238 19.5645 11.6938 19.1126 11.6938C18.63 11.6938 18.2853 12.0054 18.1397 12.5765H19.8173Z" fill="white"/>
<path fill-rule="evenodd" clip-rule="evenodd" d="M36.8616 13.3777C36.6318 15.0098 35.4674 15.7368 33.9046 15.7368C32.181 15.7368 31.4916 14.7205 31.4916 13.4742C31.4916 11.7308 32.6713 10.5513 34.4868 10.5513C36.0649 10.5513 36.8999 11.5231 36.8999 12.7694C36.8999 13.0736 36.8999 13.0884 36.8616 13.3777ZM35.2912 12.7472C35.2912 12.2353 35.0767 11.7457 34.4562 11.7457C33.6825 11.7457 33.1999 12.6433 33.1999 13.4297C33.1999 14.0973 33.5293 14.5424 34.0732 14.535C34.4026 14.535 35.1073 14.0973 35.2452 13.3332C35.2759 13.1552 35.2912 12.9623 35.2912 12.7472Z" fill="white"/>
</svg>
