<svg width="62" height="27" viewBox="0 0 62 27" fill="none" xmlns="http://www.w3.org/2000/svg">
<path fill-rule="evenodd" clip-rule="evenodd" d="M17.0368 0.37793C14.9149 0.37793 10.6787 0.37793 10.6787 0.37793C7.86734 0.504027 5.56924 1.60181 4.91046 3.86414C4.56574 5.04352 4.37423 6.33416 4.10612 7.55805C2.73492 13.7739 1.50926 20.1529 0.199341 26.2427H49.7158C53.5459 26.2427 56.1734 25.4564 56.8858 22.5191C57.2152 21.1543 57.5293 19.604 57.8511 18.1057C59.0844 12.2533 60.31 6.40092 61.574 0.37793H17.0368Z" fill="#7F181A"/>
<path fill-rule="evenodd" clip-rule="evenodd" d="M16.5388 9.57554C16.8069 9.39752 17.1439 8.58904 16.7533 8.25526C16.6307 8.15141 16.4239 8.11433 16.1328 8.16625C15.8647 8.21075 15.7115 8.29976 15.6042 8.43327C15.4357 8.65579 15.2825 9.32335 15.5429 9.57554C15.8034 9.81289 16.3702 9.6868 16.5388 9.57554ZM12.7546 8.24784C12.5631 9.44203 12.3486 10.6214 12.1341 11.7933C10.7552 11.8081 9.33805 11.8601 8.00515 11.7636C8.25794 10.614 8.43412 9.39752 8.68692 8.24784H7.20081C6.66458 11.1777 6.18198 14.152 5.58447 17.0225H7.10123C7.3387 15.5539 7.56085 14.063 7.87492 12.6686C9.16952 12.6389 10.7246 12.587 11.9732 12.6982C11.7128 14.152 11.4063 15.5539 11.1689 17.0225H12.6856C13.1759 14.0482 13.6891 11.1035 14.302 8.24784H12.7546ZM34.2572 10.7771C33.0775 10.3173 32.1429 11.0961 31.7139 11.8304C31.8135 11.504 31.8518 11.1258 31.9284 10.7771H30.7487C30.4576 12.943 30.0363 14.9753 29.6303 17.0225H30.9632C31.1471 15.8061 31.2313 14.1594 31.645 12.9949C31.9744 12.0603 32.8477 11.2741 34.0963 11.7043C34.1193 11.3631 34.2189 11.0961 34.2572 10.7771ZM35.0002 15.5539C34.8777 15.2498 34.847 14.738 34.8777 14.3523C34.9466 13.4845 35.276 12.4238 35.7739 11.9491C36.471 11.2889 37.8422 11.4002 38.9376 11.7711C38.9683 11.415 39.0449 11.0961 39.0908 10.7475C37.2907 10.4656 35.5901 10.6436 34.6861 11.556C33.7975 12.4535 33.223 14.5229 33.629 15.8209C34.1116 17.3415 36.2642 17.4231 38.0031 16.8445C38.0797 16.5404 38.118 16.1992 38.1869 15.8803C37.2447 16.3624 35.4292 16.6072 35.0002 15.5539ZM49.9915 10.8068C48.8118 10.2357 47.8313 11.1925 47.4483 11.7711C47.5555 11.4744 47.5632 11.0813 47.6628 10.7771H46.4831C46.169 12.9207 45.7783 15.005 45.334 17.0225H46.6976C46.7052 16.1918 46.8738 15.5836 47.004 14.7677C47.2874 13.032 47.7087 11.1332 49.8 11.7043C49.869 11.415 49.8996 11.0813 49.9915 10.8068ZM15.1752 10.7771C15.1369 10.7846 15.1446 10.8216 15.1446 10.8661C14.8535 12.9949 14.4552 15.0198 14.0262 17.0225H15.3591C15.6808 14.8789 16.0485 12.7798 16.5081 10.7771H15.1752ZM26.9032 10.651C25.938 10.7252 25.126 10.9922 24.5438 11.5856C23.8314 12.3125 23.2569 13.9147 23.4254 15.3685C23.6629 17.4527 26.344 17.3786 28.4813 16.8742C28.5196 16.5107 28.6115 16.1992 28.6651 15.8506C27.7842 16.1695 26.2521 16.6146 25.3482 16.0583C24.6664 15.6355 24.6587 14.5748 24.8809 13.6551C26.321 13.6106 27.8148 13.618 29.255 13.6551C29.3469 13.0023 29.6073 12.2903 29.3775 11.645C29.0864 10.792 28.0063 10.5695 26.9032 10.651ZM28.1748 12.9356H25.0418C25.1414 12.2384 25.7925 11.4744 26.8113 11.4299C27.7765 11.4002 28.4583 11.7785 28.1748 12.9356ZM21.8474 10.7771C20.7213 10.3692 19.3425 10.8587 18.745 11.326C18.745 11.3483 18.7296 11.3483 18.7143 11.3483C18.722 11.3409 18.7373 11.3334 18.745 11.326C18.745 11.326 18.745 11.326 18.745 11.3186C18.7526 11.1183 18.8292 10.9774 18.8369 10.7771H17.6878C17.2129 13.8553 16.6384 16.8519 16.0409 19.8188H17.3738C17.5653 18.6617 17.6955 17.4453 17.9636 16.3624C18.27 17.4972 20.254 17.2821 21.0967 16.8445C22.8356 15.9322 24.1685 11.6153 21.8474 10.7771ZM20.7903 15.8506C20.0779 16.5849 18.3236 16.5701 18.1858 15.3388C18.1245 14.8047 18.3313 14.241 18.4309 13.6847C18.5305 13.121 18.6071 12.587 18.7067 12.09C19.4114 11.2593 21.472 11.1554 21.6865 12.5425C21.878 13.7441 21.3878 15.2424 20.7903 15.8506ZM54.9554 8.06982C54.8405 9.04149 54.6873 9.97607 54.4882 10.8661C51.2172 9.86481 49.2102 12.1939 49.2485 15.0718C49.2561 15.6281 49.3557 16.177 49.7157 16.5775C50.3362 17.2525 52.1058 17.4156 53.002 16.8445C53.1782 16.7332 53.3544 16.533 53.4693 16.3921C53.5536 16.2882 53.6915 16.0138 53.7145 16.0879C53.6685 16.392 53.5995 16.6739 53.5919 17.0225H54.8022C55.032 13.7812 55.7598 11.0145 56.2883 8.06982H54.9554ZM51.9755 16.3327C51.0793 16.355 50.6273 15.8135 50.612 14.9234C50.5737 13.3584 51.2861 11.6227 52.7186 11.467C53.3851 11.3928 53.8753 11.5485 54.3656 11.7043C53.9136 13.4622 54.0745 16.2882 51.9755 16.3327ZM40.462 10.7771C40.3931 11.1332 40.2935 11.4595 40.2169 11.8007C41.0059 11.6079 43.4572 11.0219 43.6947 12.0381C43.7713 12.3793 43.6411 12.7353 43.5415 13.0023C41.3277 12.8021 39.5198 13.1581 39.0449 14.6861C38.7232 15.7097 39.0832 16.7184 39.7573 17.0003C41.0596 17.5417 42.6529 16.9187 43.2044 16.0657C43.1508 16.3624 43.0896 16.6591 43.1125 17.0299H44.2616C44.2769 15.9618 44.4301 15.1014 44.6063 14.1446C44.7518 13.3287 45.02 12.5202 44.9817 11.8007C44.8668 10.1467 42.0401 10.7326 40.462 10.7771ZM42.6376 15.8209C41.9482 16.4736 40.0177 16.6591 40.2169 15.1014C40.3778 13.8108 41.8333 13.529 43.4113 13.7218C43.2964 14.4265 43.1585 15.324 42.6376 15.8209Z" fill="white"/>
</svg>
