<svg width="29" height="22" viewBox="0 0 29 22" fill="none" xmlns="http://www.w3.org/2000/svg">
<path d="M28.2737 4.97918C28.2737 4.97918 27.9813 2.88345 27.1528 1.95746C26.0805 0.739018 24.8621 0.739017 24.326 0.690267C20.3783 0.397872 14.4323 0.349121 14.4323 0.349121C14.4323 0.349121 8.48628 0.397872 4.53856 0.690267C4.00247 0.739017 2.78403 0.787768 1.71179 1.95746C0.834494 2.8835 0.590851 4.97918 0.590851 4.97918C0.590851 4.97918 0.298401 7.46481 0.298401 9.95044V12.2411C0.298401 14.7268 0.590851 17.1636 0.590851 17.1636C0.590851 17.1636 0.883301 19.2594 1.71179 20.1854C2.78403 21.4038 4.19742 21.355 4.83101 21.5013C7.07289 21.7449 14.4323 21.7936 14.4323 21.7936C14.4323 21.7936 20.3783 21.7936 24.326 21.4525C24.8621 21.4037 26.0805 21.355 27.1528 20.1853C27.9813 19.2593 28.2737 17.1636 28.2737 17.1636C28.2737 17.1636 28.5662 14.6779 28.5662 12.2411V9.95039C28.5662 7.46481 28.2737 4.97918 28.2737 4.97918Z" fill="#D8362A"/>
<path d="M11.0207 6.14893V16.725L20.2808 11.5588L11.0207 6.14893Z" fill="white"/>
</svg>
