<svg width="77" height="29" viewBox="0 0 77 29" fill="none" xmlns="http://www.w3.org/2000/svg">
<path d="M30.5287 0H5.88659C3.97584 0 2.7523 2.08791 3.6464 3.82365L6.11126 8.62116H1.64274C1.35976 8.62125 1.08159 8.69645 0.835183 8.83949C0.588777 8.98252 0.382483 9.18854 0.236284 9.43758C0.0900849 9.68663 0.00893579 9.97026 0.000696739 10.261C-0.00754231 10.5517 0.0574079 10.8398 0.189256 11.0971L8.11755 26.5211C8.25732 26.7923 8.46637 27.0193 8.72223 27.1776C8.97809 27.336 9.27108 27.4196 9.56972 27.4196C9.86836 27.4196 10.1614 27.336 10.4172 27.1776C10.6731 27.0193 10.8821 26.7923 11.0219 26.5211L13.1751 22.3547L15.8765 27.6114C16.8273 29.4603 19.4028 29.4636 20.3569 27.6168L32.7083 3.72681C33.5813 2.03711 32.39 0 30.5287 0ZM19.4595 10.2072L14.1338 20.5106C14.0407 20.691 13.9016 20.842 13.7313 20.9472C13.5611 21.0525 13.3662 21.1081 13.1675 21.1081C12.9689 21.1081 12.774 21.0525 12.6037 20.9472C12.4335 20.842 12.2944 20.691 12.2013 20.5106L6.92696 10.2506C6.8388 10.0795 6.79512 9.88795 6.80013 9.69444C6.80514 9.50093 6.85869 9.31203 6.95557 9.14603C7.05246 8.98003 7.18941 8.84256 7.35316 8.74692C7.51691 8.65129 7.70191 8.60074 7.89024 8.60017H18.5199C18.7036 8.60017 18.8841 8.64902 19.0439 8.74196C19.2037 8.8349 19.3374 8.96876 19.432 9.13054C19.5266 9.29231 19.5788 9.47649 19.5836 9.66516C19.5884 9.85384 19.5457 10.0406 19.4595 10.2072Z" fill="#F71963"/>
<path d="M56.6586 11.2771H53.8927V20.6769C53.8925 20.7625 53.8582 20.8446 53.7971 20.9052C53.736 20.9657 53.6532 20.9998 53.5669 21H51.4338C51.3474 20.9998 51.2647 20.9657 51.2036 20.9052C51.1425 20.8446 51.1081 20.7625 51.1079 20.6769V11.2771H48.3259C48.284 11.2788 48.2422 11.2721 48.2029 11.2575C48.1637 11.2429 48.1278 11.2206 48.0974 11.1919C48.067 11.1633 48.0427 11.1289 48.026 11.0908C48.0093 11.0527 48.0004 11.0116 48 10.97V9.3074C48.0004 9.26583 48.0093 9.22476 48.026 9.18664C48.0427 9.14852 48.067 9.11412 48.0974 9.08548C48.1278 9.05684 48.1637 9.03455 48.2029 9.01992C48.2422 9.0053 48.284 8.99865 48.3259 9.00036H56.6579C56.7443 8.99634 56.8287 9.02638 56.8928 9.08391C56.9569 9.14144 56.9955 9.22179 57 9.3074V10.9707C56.9953 11.0561 56.9568 11.1361 56.8928 11.1935C56.8289 11.2509 56.7447 11.2809 56.6586 11.2771Z" fill="#F71963"/>
<path d="M64.6986 20.7951C64.1716 20.8737 63.285 21 61.6588 21C59.7162 21 58 20.4796 58 17.6105V12.3738C58 9.50469 59.7319 9 61.6738 9C63.2994 9 64.1716 9.12634 64.6986 9.20489C64.9093 9.23631 65 9.31551 65 9.5204V10.9887C64.9998 11.0723 64.968 11.1524 64.9116 11.2116C64.8551 11.2707 64.7785 11.304 64.6986 11.3042H61.5238C60.816 11.3042 60.5603 11.5562 60.5603 12.3764V13.8113H64.5786C64.6585 13.8114 64.735 13.8447 64.7915 13.9039C64.848 13.963 64.8798 14.0431 64.88 14.1268V15.6245C64.8798 15.7081 64.848 15.7883 64.7915 15.8474C64.735 15.9065 64.6585 15.9398 64.5786 15.94H60.5603V17.6112C60.5603 18.4307 60.816 18.6834 61.5238 18.6834H64.6986C64.7785 18.6836 64.8551 18.7169 64.9116 18.776C64.968 18.8351 64.9998 18.9153 65 18.9989V20.4652C65 20.6688 64.9093 20.7637 64.6986 20.7951Z" fill="#F71963"/>
<path d="M76.8003 20.9966H74.3576C74.1579 20.9966 74.0654 20.9296 73.9582 20.7547L71.8402 17.2213L69.9212 20.6769C69.8134 20.8706 69.7062 21 69.5384 21H67.2648C67.111 21 67.0344 20.9028 67.0344 20.7902C67.0374 20.7507 67.0478 20.7122 67.0651 20.6769L70.3933 14.8449L67.0306 9.30725C67.0136 9.27769 67.0031 9.24446 67 9.21005C67.0055 9.15074 67.0325 9.0959 67.0753 9.05686C67.1182 9.01782 67.1736 8.99755 67.2303 9.00024H69.7037C69.8727 9.00024 69.9958 9.16179 70.0864 9.30725L72.052 12.5685L73.9544 9.30725C74.0309 9.16179 74.1694 9.00024 74.3372 9.00024H76.6108C76.6675 8.99755 76.723 9.01782 76.7658 9.05686C76.8087 9.0959 76.8356 9.15074 76.8411 9.21005C76.838 9.24446 76.8276 9.27769 76.8105 9.30725L73.4644 14.8791L76.9541 20.6769C76.9813 20.7262 76.997 20.7815 77 20.8384C77.0006 20.9323 76.9234 20.9966 76.8003 20.9966Z" fill="#F71963"/>
<path d="M44.3932 9.00199C44.3341 9.00214 44.2769 9.02209 44.2313 9.05845C44.1856 9.0948 44.1545 9.14532 44.143 9.2014L41.74 17.8016C41.707 17.9777 41.6575 18.0415 41.5083 18.0415C41.3592 18.0415 41.3097 17.9751 41.2767 17.8016L38.8709 9.1994C38.8594 9.14332 38.8283 9.09281 38.7826 9.05645C38.737 9.0201 38.6798 9.00015 38.6207 9H36.2554C36.217 9.00004 36.179 9.00847 36.1444 9.02466C36.1098 9.04085 36.0793 9.06439 36.0554 9.09352C36.0315 9.12265 36.0147 9.15663 36.0063 9.19291C35.9978 9.2292 35.9979 9.26686 36.0066 9.30309C36.0066 9.30309 38.9417 19.1662 38.974 19.2632C39.3658 20.4384 40.3164 21 41.5262 21C42.6782 21 43.6839 20.4118 44.077 19.2665C44.1238 19.1336 46.9936 9.30243 46.9936 9.30243C47.0021 9.26624 47.0021 9.22865 46.9936 9.19245C46.9851 9.15625 46.9683 9.12237 46.9444 9.09332C46.9205 9.06427 46.8901 9.04079 46.8556 9.02464C46.821 9.00848 46.7831 9.00006 46.7447 9L44.3932 9.00199Z" fill="#F71963"/>
</svg>
