<svg width="29" height="27" viewBox="0 0 29 27" fill="none" xmlns="http://www.w3.org/2000/svg">
<path fill-rule="evenodd" clip-rule="evenodd" d="M0.892822 0H28.3934V26.6284H0.892822V0Z" fill="#FEEE00"/>
<path fill-rule="evenodd" clip-rule="evenodd" d="M14.6432 2.33643L3.39014 9.63531L8.07826 12.5801L13.6703 8.93064L11.4488 7.52131L14.49 5.54823L21.0855 9.78366L10.2691 16.8229L12.6055 18.3213L26.0724 9.63531L26.0417 9.60564L14.6432 2.33643Z" fill="#001D7E"/>
<path fill-rule="evenodd" clip-rule="evenodd" d="M25.8655 2.33643L21.1851 5.3406L23.5214 6.86865L25.8655 5.3406V2.33643Z" fill="#001D7E"/>
<path fill-rule="evenodd" clip-rule="evenodd" d="M3.31348 24.2925L7.9939 21.288L5.65752 19.7598L3.31348 21.288V24.2925Z" fill="#001D7E"/>
<path fill-rule="evenodd" clip-rule="evenodd" d="M14.6355 24.2847L25.8885 16.9786L21.2081 14.0413L15.6084 17.6907L17.8299 19.0999L14.7887 21.073L8.19318 16.8302L19.0172 9.7986L16.6732 8.30029L3.2063 16.9786L3.23694 17.0083L14.6355 24.2847Z" fill="#001D7E"/>
</svg>
