<svg width="205" height="90" viewBox="0 0 205 90" fill="none" xmlns="http://www.w3.org/2000/svg">
<path d="M204.995 0.611691C204.994 0.608282 204.994 0.604874 204.993 0.601465C204.989 0.573061 204.984 0.544657 204.977 0.516821C204.976 0.512845 204.975 0.508868 204.974 0.504323C204.966 0.475351 204.956 0.446379 204.944 0.417975C204.942 0.412294 204.939 0.407182 204.937 0.401501C204.926 0.377073 204.914 0.353782 204.9 0.330491C204.898 0.325946 204.895 0.321401 204.893 0.316857C204.892 0.315152 204.891 0.31288 204.89 0.311176C204.874 0.286748 204.858 0.264593 204.84 0.243006C204.838 0.240734 204.837 0.238461 204.835 0.236189C204.833 0.233349 204.83 0.231076 204.828 0.228236C204.787 0.180517 204.742 0.140183 204.692 0.107235C204.688 0.104394 204.683 0.100986 204.678 0.0981453C204.654 0.0822391 204.628 0.068037 204.602 0.0561073C204.599 0.0544031 204.596 0.0532669 204.593 0.0521308C204.568 0.0413372 204.544 0.032816 204.518 0.0248629C204.513 0.0237267 204.509 0.0220225 204.504 0.0208863C204.477 0.0135012 204.45 0.00838852 204.422 0.00498003C204.417 0.00441195 204.411 0.00384387 204.406 0.00327579C204.379 0.000435381 204.351 -0.000700781 204.324 0.000435381C204.322 0.000435381 204.321 0.000435381 204.319 0.000435381C204.29 0.00157154 204.262 0.00554811 204.233 0.0112289C204.228 0.0123651 204.223 0.0135012 204.217 0.0146374C204.189 0.0208863 204.161 0.0288394 204.133 0.039633C204.132 0.039633 204.132 0.0402011 204.131 0.0402011L165.491 14.3121C165.249 14.4053 165.084 14.6444 165.071 14.9211C165.057 15.1977 165.199 15.609 165.43 15.7351L172.746 17.4496C172.749 17.4559 172.751 17.4621 172.754 17.4684L178.287 28.6834C178.384 28.88 178.562 29.0163 178.767 29.0504C178.817 29.0589 178.867 29.0606 178.916 29.0567C179.068 29.0436 179.212 28.9737 179.32 28.8556L183.981 22.7163L191.953 25.7391C192.064 25.7993 192.183 25.8226 192.298 25.8129C192.513 25.7947 192.714 25.6595 192.818 25.4374L204.933 1.01105C204.933 1.00992 204.934 1.00821 204.935 1.00651C204.947 0.978671 204.958 0.950267 204.967 0.921295C204.969 0.915046 204.97 0.909365 204.972 0.903116C204.98 0.873576 204.988 0.844036 204.992 0.813928C204.992 0.81336 204.992 0.812223 204.992 0.811655C204.997 0.782115 204.998 0.752007 204.999 0.721898C204.999 0.71565 205 0.709401 205 0.70372C205 0.671907 204.998 0.641799 204.995 0.611691ZM167.504 14.8029L198.653 3.36461L173.586 16.1192L167.504 14.8029ZM177.368 18.6897C177.191 18.8329 177.097 19.0635 177.118 19.3016L177.623 24.2336L174.337 17.4172L196.694 5.59717L177.368 18.6897ZM179.093 26.8116L178.677 20.7445L182.396 22.1403L179.093 26.8116ZM191.573 23.7519L179.163 19.2283L202.009 3.49413L191.573 23.7519Z" fill="#5A5A5A"/>
<path d="M1.58445 87.5344C1.00394 87.6258 0.677263 87.6667 0.673848 87.6673L0 87.7502L0.166185 89.096L0.840033 89.0131C0.854261 89.0114 1.19005 88.9699 1.79617 88.8739L2.46717 88.7682L2.25489 87.4287L1.58445 87.5344Z" fill="#5A5A5A"/>
<path d="M26.893 77.1203C26.4986 77.5526 26.065 77.9781 25.604 78.3843L25.0946 78.833L25.9938 79.8493L26.5032 79.4005C27.0012 78.962 27.4701 78.5018 27.8976 78.0332L28.3551 77.5316L27.3506 76.6187L26.893 77.1203Z" fill="#5A5A5A"/>
<path d="M30.8478 66.9639L30.5092 66.376L29.3311 67.0514L29.6697 67.6394C29.9367 68.1024 30.0955 68.6074 30.1421 69.1391L30.2019 69.8146L31.5553 69.6958L31.4955 69.0204C31.4312 68.2915 31.2132 67.5991 30.8478 66.9639Z" fill="#5A5A5A"/>
<path d="M30.2629 74.5999C30.5212 74.0733 30.7426 73.533 30.9219 72.9905L31.1348 72.3469L29.8446 71.9214L29.6317 72.565C29.449 73.1161 29.2179 73.666 28.9442 74.1988L28.8008 74.4789C28.7911 74.4777 28.782 74.476 28.7723 74.4749L28.0996 74.3812L27.9118 75.7241L28.5845 75.8179C29.1969 75.9031 29.8559 75.9519 30.544 75.9633L31.223 75.9741L31.2446 74.6181L30.5656 74.6073C30.4638 74.6056 30.363 74.6033 30.2629 74.5999Z" fill="#5A5A5A"/>
<path d="M36.0309 74.0409C35.4066 74.1636 34.7942 74.2681 34.2109 74.3511L33.5381 74.4465L33.7299 75.7889L34.4027 75.6934C35.0093 75.6071 35.6456 75.4986 36.2939 75.3713L36.9603 75.2401L36.6974 73.9097L36.0309 74.0409Z" fill="#5A5A5A"/>
<path d="M26.0689 73.7401L25.4907 73.3844C25.0024 73.0845 24.571 72.7232 24.2084 72.3113L23.7599 71.8018L22.7395 72.6965L23.188 73.2061C23.6399 73.7196 24.1748 74.1684 24.7781 74.5393L25.3563 74.895L26.0689 73.7401Z" fill="#5A5A5A"/>
<path d="M22.6655 80.5282C22.1584 80.8372 21.6206 81.1388 21.0668 81.4252L20.4636 81.737L21.0885 82.9414L21.6917 82.6295C22.2734 82.3284 22.8391 82.0109 23.3735 81.6859L23.9535 81.3326L23.2455 80.1748L22.6655 80.5282Z" fill="#5A5A5A"/>
<path d="M41.5441 60.6341L41.1804 60.0615L40.033 60.7875L40.3967 61.3602C40.7575 61.9282 41.1781 62.4605 41.6459 62.9417L42.1189 63.4285L43.0938 62.4838L42.6208 61.9975C42.2173 61.5828 41.8554 61.1238 41.5441 60.6341Z" fill="#5A5A5A"/>
<path d="M50.7179 65.3322L50.0423 65.2612L49.9 66.6099L50.5648 66.6797L50.5335 66.7121C50.1146 67.1433 49.669 67.5676 49.2091 67.9738L48.7003 68.4226L49.6001 69.4389L50.1089 68.9895C50.5949 68.5606 51.0662 68.1119 51.509 67.6563L51.9819 67.1694L51.5647 66.7655C51.8726 66.786 52.1851 66.8024 52.501 66.8132L53.1799 66.8371L53.2277 65.4816L52.5488 65.4578C51.9187 65.4362 51.3029 65.3936 50.7179 65.3322Z" fill="#5A5A5A"/>
<path d="M46.2911 70.1902C45.7778 70.5242 45.2496 70.8412 44.7203 71.1321L44.1256 71.4593L44.7818 72.6472L45.3766 72.3199C45.9349 72.0126 46.4926 71.6786 47.0333 71.3264L47.6024 70.956L46.8603 69.8198L46.2911 70.1902Z" fill="#5A5A5A"/>
<path d="M45.4893 63.9939L44.8735 63.707L44.2986 64.9358L44.9144 65.2227C45.4881 65.4902 46.1085 65.7271 46.7578 65.9277L47.4067 66.1282L47.8079 64.8324L47.1591 64.6319C46.5689 64.4495 46.0072 64.2348 45.4893 63.9939Z" fill="#5A5A5A"/>
<path d="M40.3466 58.0637L40.2072 57.4002C40.0934 56.8594 40.0359 56.3174 40.0359 55.7891C40.0359 55.7539 40.0365 55.7181 40.0365 55.6829L40.0461 55.0052L38.6876 54.9858L38.678 55.6636C38.6774 55.7056 38.6768 55.7471 38.6768 55.7891C38.6768 56.4106 38.7445 57.0469 38.8771 57.6792L39.0166 58.3427L40.3466 58.0637Z" fill="#5A5A5A"/>
<path d="M53.7661 62.3485C53.494 62.8649 53.1816 63.3858 52.8367 63.8971L52.4576 64.4595L53.5845 65.2167L53.9636 64.6543C54.3358 64.1027 54.6738 63.5392 54.9687 62.9796L55.2845 62.3792L54.0819 61.748L53.7661 62.3485Z" fill="#5A5A5A"/>
<path d="M46.29 48.5508L46.9661 48.4866L46.838 47.1362L46.1619 47.2004C45.4465 47.268 44.7653 47.4424 44.1364 47.7185L43.5143 47.9912L44.0613 49.2325L44.6833 48.9598C45.1785 48.7422 45.7191 48.6047 46.29 48.5508Z" fill="#5A5A5A"/>
<path d="M41.3944 72.634C41.0495 72.7561 40.7018 72.8686 40.3597 72.9686C40.1167 73.0396 39.8771 73.1083 39.6398 73.1742L38.9853 73.3566L39.3512 74.6626L40.0057 74.4802C40.2482 74.4126 40.494 74.3422 40.7422 74.2695C41.1081 74.1627 41.4804 74.0422 41.8491 73.9116L42.4894 73.6849L42.0353 72.4067L41.3944 72.634Z" fill="#5A5A5A"/>
<path d="M17.6965 82.9724C17.1319 83.2087 16.5503 83.4417 15.9681 83.6655L15.334 83.9092L15.8218 85.1749L16.4558 84.9312C17.0505 84.7028 17.6453 84.4642 18.2218 84.2228L18.8484 83.9609L18.3231 82.71L17.6965 82.9724Z" fill="#5A5A5A"/>
<path d="M51.1879 49.9284L51.7536 50.3039L52.506 49.1745L51.9403 48.799C51.3746 48.4235 50.7776 48.1054 50.1646 47.8532L49.5369 47.5947L49.019 48.8485L49.6467 49.1069C50.1772 49.3257 50.6962 49.6023 51.1879 49.9284Z" fill="#5A5A5A"/>
<path d="M71.2412 27.3648C71.6191 26.9086 72.0334 26.478 72.4734 26.0849L72.9793 25.6327L72.0733 24.6221L71.5673 25.0743C71.0767 25.5123 70.6146 25.9923 70.194 26.5007L69.7615 27.0233L70.8087 27.8874L71.2412 27.3648Z" fill="#5A5A5A"/>
<path d="M75.4419 24.143C75.978 23.8965 76.5397 23.6863 77.1106 23.5187L77.7622 23.3273L77.3781 22.0264L76.7264 22.2178C76.093 22.4041 75.4692 22.6376 74.8733 22.9114L74.2564 23.1949L74.8244 24.4265L75.4419 24.143Z" fill="#5A5A5A"/>
<path d="M66.9955 38.2197L68.3483 38.0924L68.2846 37.4176C68.2436 36.9864 68.2231 36.5478 68.2231 36.1133C68.2231 35.9519 68.226 35.7889 68.2317 35.6287L68.255 34.951L66.8971 34.9038L66.8737 35.5815C66.8675 35.7571 66.8646 35.936 66.8646 36.1133C66.8646 36.5899 66.8874 37.0716 66.9318 37.5448L66.9955 38.2197Z" fill="#5A5A5A"/>
<path d="M68.7962 32.0888C68.9624 31.507 69.1639 30.9395 69.3955 30.401L69.6636 29.7778L68.4149 29.2427L68.1469 29.8659C67.8925 30.4567 67.6711 31.0798 67.4895 31.7167L67.3034 32.3688L68.6101 32.7404L68.7962 32.0888Z" fill="#5A5A5A"/>
<path d="M92.4458 32.1561C92.6421 32.7236 92.8191 33.3121 92.9728 33.9046L93.1429 34.5613L94.4582 34.2216L94.288 33.5649C94.1258 32.9383 93.938 32.3151 93.7303 31.7136L93.5089 31.0728L92.2244 31.5153L92.4458 32.1561Z" fill="#5A5A5A"/>
<path d="M87.3862 24.9736L87.9542 25.3457L88.6998 24.2118L88.1318 23.8397C87.582 23.4796 86.9975 23.1575 86.3954 22.8819L85.7779 22.5996L85.2122 23.8329L85.8297 24.1152C86.3698 24.3618 86.8934 24.6504 87.3862 24.9736Z" fill="#5A5A5A"/>
<path d="M80.6779 23.0069C81.2578 23.0069 81.8423 23.0472 82.4155 23.1268L83.0882 23.2199L83.2748 21.8764L82.6021 21.7832C81.9676 21.6952 81.3204 21.6509 80.6779 21.6509L79.9506 21.6526L79.954 23.0086L80.6779 23.0069Z" fill="#5A5A5A"/>
<path d="M12.4519 84.9048C11.8686 85.0934 11.2687 85.2786 10.6694 85.4552L10.0178 85.6473L10.4031 86.9476L11.0547 86.7556C11.6648 86.5755 12.2761 86.3869 12.8702 86.1949L13.5168 85.9864L13.0985 84.6963L12.4519 84.9048Z" fill="#5A5A5A"/>
<path d="M21.6661 70.0357L23.0241 69.9988L23.0053 69.3211C23.0042 69.2813 23.0036 69.2421 23.0036 69.2024C23.0036 68.6854 23.0947 68.1986 23.2745 67.7555L23.5295 67.1266L22.27 66.6182L22.015 67.2465C21.7697 67.852 21.6451 68.5105 21.6451 69.2024C21.6451 69.2541 21.6456 69.3058 21.6474 69.358L21.6661 70.0357Z" fill="#5A5A5A"/>
<path d="M54.5219 53.8874L54.7883 54.5112L56.0381 53.9789L55.7717 53.3551C55.5099 52.7433 55.1821 52.1502 54.7968 51.5935L54.4104 51.0356L53.2926 51.8065L53.679 52.3644C54.0125 52.8467 54.296 53.3591 54.5219 53.8874Z" fill="#5A5A5A"/>
<path d="M7.06463 86.4238C6.46022 86.5704 5.8484 86.7112 5.2457 86.8419L4.58209 86.9862L4.87064 88.3115L5.53424 88.1678C6.14777 88.0349 6.77039 87.8917 7.38562 87.7423L8.04581 87.5821L7.72482 86.2642L7.06463 86.4238Z" fill="#5A5A5A"/>
<path d="M25.5749 65.8608C26.1031 65.7421 26.6437 65.7341 27.1605 65.8369L27.8264 65.9704L28.0933 64.6406L27.4274 64.5071C26.7245 64.3662 25.9892 64.377 25.2761 64.5372L24.6136 64.6866L24.9124 66.0096L25.5749 65.8608Z" fill="#5A5A5A"/>
<path d="M40.9015 52.4018C41.1736 51.9064 41.5099 51.4349 41.8998 51.0009L42.3534 50.4964L41.3426 49.5903L40.889 50.0948C40.4292 50.6061 40.0325 51.1628 39.7103 51.7496L39.3837 52.3444L40.5749 52.9966L40.9015 52.4018Z" fill="#5A5A5A"/>
<path d="M55.1838 57.272C55.1753 57.839 55.1098 58.4241 54.9903 59.0121L54.8554 59.6767L56.1872 59.946L56.3221 59.2813C56.4581 58.6121 56.5321 57.9429 56.5423 57.2925L56.5531 56.6148L55.1946 56.5938L55.1838 57.272Z" fill="#5A5A5A"/>
<path d="M58.0881 65.2152C57.4598 65.2851 56.8383 65.3413 56.2407 65.3828L55.5629 65.4299L55.6579 66.7825L56.3357 66.7354C56.9515 66.6922 57.5918 66.6343 58.2383 66.5627L58.9133 66.4877L58.7636 65.1396L58.0881 65.2152Z" fill="#5A5A5A"/>
<path d="M126.36 53.3193C125.755 53.4647 125.142 53.6062 124.538 53.7397L123.875 53.8863L124.168 55.2105L124.831 55.0639C125.444 54.9287 126.066 54.785 126.679 54.6373L127.339 54.4782L127.02 53.1597L126.36 53.3193Z" fill="#5A5A5A"/>
<path d="M131.775 51.8536C131.18 52.0326 130.576 52.2081 129.979 52.3757L129.325 52.5592L129.692 53.8646L130.346 53.6811C130.951 53.5113 131.564 53.3335 132.166 53.1523L132.817 52.9568L132.425 51.6582L131.775 51.8536Z" fill="#5A5A5A"/>
<path d="M120.871 54.4765C120.261 54.5867 119.642 54.6929 119.029 54.7912L118.358 54.8991L118.574 56.2381L119.245 56.1302C119.866 56.0302 120.495 55.9228 121.114 55.8109L121.782 55.6899L121.54 54.3555L120.871 54.4765Z" fill="#5A5A5A"/>
<path d="M137.104 50.0948C136.519 50.305 135.925 50.5129 135.338 50.7129L134.695 50.9316L135.133 52.2155L135.776 51.9968C136.371 51.7945 136.973 51.5838 137.565 51.3707L138.204 51.1407L137.743 49.8647L137.104 50.0948Z" fill="#5A5A5A"/>
<path d="M102.272 55.9576L101.593 55.9429L101.563 57.2989L102.242 57.3142C102.869 57.3279 103.507 57.3358 104.138 57.3369L104.818 57.3381L104.82 55.9821L104.141 55.9809C103.519 55.9792 102.89 55.9713 102.272 55.9576Z" fill="#5A5A5A"/>
<path d="M115.326 55.3128C114.711 55.3872 114.086 55.4559 113.469 55.5178L112.793 55.586L112.929 56.9352L113.605 56.867C114.231 56.804 114.865 56.7341 115.49 56.6585L116.164 56.5773L116.001 55.231L115.326 55.3128Z" fill="#5A5A5A"/>
<path d="M109.744 55.8167C109.123 55.8536 108.495 55.8849 107.877 55.9093L107.198 55.936L107.252 57.2908L107.931 57.2641C108.558 57.2392 109.195 57.2079 109.825 57.1704L110.503 57.1301L110.422 55.7764L109.744 55.8167Z" fill="#5A5A5A"/>
<path d="M96.6738 55.6599L95.9971 55.6025L95.8827 56.954L96.5594 57.0108C97.1871 57.0637 97.824 57.1108 98.4512 57.1506L99.129 57.1938L99.2155 55.8406L98.5377 55.7974C97.9196 55.7588 97.2924 55.7122 96.6738 55.6599Z" fill="#5A5A5A"/>
<path d="M162.039 37.3554C161.527 37.7042 161.004 38.0541 160.483 38.395L159.915 38.7671L160.661 39.9004L161.229 39.5283C161.756 39.1829 162.286 38.8284 162.805 38.4756L163.366 38.0939L162.601 36.9736L162.039 37.3554Z" fill="#5A5A5A"/>
<path d="M157.318 40.3949C156.789 40.7175 156.248 41.0408 155.712 41.3549L155.126 41.6986L155.814 42.8677L156.4 42.524C156.942 42.2059 157.49 41.8787 158.026 41.5526L158.606 41.1993L157.898 40.0415L157.318 40.3949Z" fill="#5A5A5A"/>
<path d="M142.333 48.0566C141.758 48.298 141.176 48.5366 140.602 48.7661L139.971 49.0183L140.477 50.2772L141.107 50.0249C141.689 49.7926 142.279 49.5506 142.86 49.3063L143.486 49.0433L142.96 47.793L142.333 48.0566Z" fill="#5A5A5A"/>
<path d="M166.589 34.0717C166.105 34.4432 165.601 34.8216 165.094 35.1948L164.547 35.597L165.353 36.6888L165.9 36.2866C166.415 35.9077 166.925 35.5243 167.418 35.1471L167.956 34.7341L167.128 33.6587L166.589 34.0717Z" fill="#5A5A5A"/>
<path d="M147.453 45.7528C146.895 46.0209 146.325 46.289 145.759 46.5492L145.142 46.8332L145.711 48.0649L146.328 47.7808C146.901 47.5172 147.477 47.2462 148.042 46.9747L148.654 46.6804L148.064 45.4585L147.453 45.7528Z" fill="#5A5A5A"/>
<path d="M152.451 43.1953C151.904 43.493 151.348 43.789 150.799 44.0753L150.197 44.3894L150.826 45.5915L151.428 45.2773C151.983 44.9876 152.546 44.6882 153.1 44.3871L153.696 44.0633L153.047 42.8721L152.451 43.1953Z" fill="#5A5A5A"/>
<path d="M73.4175 47.4373L72.9457 46.9493C72.52 46.5091 72.1154 46.0506 71.7437 45.5871L71.3192 45.0576L70.2583 45.9052L70.6829 46.4346C71.0807 46.9306 71.5132 47.4208 71.968 47.8912L72.4398 48.3792L73.4175 47.4373Z" fill="#5A5A5A"/>
<path d="M77.2022 50.3856C76.6821 50.0555 76.1744 49.7067 75.6924 49.3488L75.1471 48.9443L74.3361 50.0328L74.8813 50.4373C75.3901 50.815 75.9257 51.1826 76.4732 51.5302L77.0463 51.8938L77.7754 50.7491L77.2022 50.3856Z" fill="#5A5A5A"/>
<path d="M82.7553 53.1017L82.1224 52.8557C81.5493 52.633 80.979 52.3916 80.4281 52.1376L79.8112 51.853L79.2415 53.084L79.8584 53.3687C80.4344 53.6345 81.0308 53.8873 81.6301 54.1197L82.263 54.3656L82.7553 53.1017Z" fill="#5A5A5A"/>
<path d="M74.3651 61.303C73.8023 61.5137 73.2127 61.7222 72.6128 61.9233L71.9691 62.1392L72.4022 63.4247L73.0459 63.2089C73.6606 63.0027 74.265 62.7885 74.8421 62.5726L75.4784 62.3346L75.0014 61.0649L74.3651 61.303Z" fill="#5A5A5A"/>
<path d="M79.4349 59.0385C78.9028 59.322 78.3467 59.6009 77.7827 59.8673L77.1686 60.157L77.7491 61.383L78.3632 61.0932C78.9472 60.8177 79.5231 60.5286 80.0746 60.2349L80.6739 59.9156L80.0342 58.7192L79.4349 59.0385Z" fill="#5A5A5A"/>
<path d="M63.6018 64.3278C62.9837 64.4551 62.3679 64.5732 61.7703 64.6795L61.1016 64.7982L61.3395 66.1332L62.0082 66.0145C62.6172 65.9065 63.2455 65.7855 63.8755 65.656L64.5409 65.5191L64.2665 64.1909L63.6018 64.3278Z" fill="#5A5A5A"/>
<path d="M69.046 63.0085C68.856 63.0613 68.6653 63.113 68.4741 63.1647C68.0603 63.276 67.6449 63.3851 67.2402 63.4879L66.5817 63.6555L66.9175 64.9695L67.576 64.8019C67.9869 64.6974 68.4086 64.5871 68.8286 64.4735C69.0227 64.4213 69.2162 64.3684 69.4091 64.315L70.0636 64.1338L69.7011 62.8267L69.046 63.0085Z" fill="#5A5A5A"/>
<path d="M69.0717 40.9041L68.8406 40.2661L67.5629 40.7274L67.794 41.3653C68.0131 41.9704 68.2738 42.5754 68.5692 43.1633L68.8736 43.7695L70.0882 43.1616L69.7837 42.5555C69.5128 42.0147 69.2732 41.4591 69.0717 40.9041Z" fill="#5A5A5A"/>
<path d="M91.5158 50.204C91.8789 49.6916 92.2375 49.1559 92.5812 48.6128L92.9438 48.0397L91.7947 47.3159L91.4322 47.8891C91.1015 48.4123 90.756 48.9281 90.4066 49.4212L90.0145 49.9745L91.1237 50.7579L91.5158 50.204Z" fill="#5A5A5A"/>
<path d="M91.1043 55.0168L90.4322 54.918L90.2347 56.2598L90.9068 56.3586C91.5295 56.4501 92.1617 56.5365 92.7867 56.6148L93.4605 56.6995L93.6307 55.3543L92.9568 55.2696C92.3405 55.1918 91.7173 55.1071 91.1043 55.0168Z" fill="#5A5A5A"/>
<path d="M93.4138 42.9242C93.3006 43.5258 93.1537 44.112 92.9779 44.6665L92.7724 45.313L94.0677 45.7226L94.2732 45.0761C94.4656 44.4694 94.6261 43.8297 94.749 43.1747L94.8742 42.5083L93.539 42.2578L93.4138 42.9242Z" fill="#5A5A5A"/>
<path d="M84.079 56.0525C83.5987 56.424 83.0979 56.7881 82.5902 57.1347L82.0296 57.5175L82.7968 58.6366L83.3574 58.2538C83.8872 57.8925 84.4097 57.5124 84.9111 57.1244L85.4484 56.7092L84.6163 55.6372L84.079 56.0525Z" fill="#5A5A5A"/>
<path d="M94.9636 37.3673L94.8981 36.6924L93.5459 36.8236L93.6113 37.4985C93.6705 38.1092 93.7047 38.7216 93.7121 39.3181L93.7206 39.9963L95.0791 39.9793L95.0706 39.301C95.0626 38.6665 95.0268 38.016 94.9636 37.3673Z" fill="#5A5A5A"/>
<path d="M88.1136 52.299C87.7044 52.7551 87.2781 53.2034 86.8456 53.6311L86.363 54.1083L86.4364 54.1827C86.1649 54.1197 85.8951 54.0532 85.6282 53.9845L84.9709 53.814L84.6294 55.1269L85.2867 55.2973C85.9014 55.4564 86.5308 55.6012 87.1586 55.7268L87.8245 55.8603L88.092 54.5304L87.9042 54.4929C88.3208 54.0771 88.7311 53.6442 89.1255 53.2039L89.5785 52.6983L88.5661 51.7939L88.1136 52.299Z" fill="#5A5A5A"/>
<path d="M91.299 29.4336L92.4782 28.7599L92.1407 28.1713C91.7987 27.5749 91.4339 27.0221 91.0565 26.5279L90.6445 25.9888L89.5643 26.8114L89.9763 27.3505C90.3178 27.797 90.649 28.3003 90.9615 28.8451L91.299 29.4336Z" fill="#5A5A5A"/>
<path d="M170.206 31.1084C170.203 31.1107 169.966 31.3283 169.515 31.714L168.999 32.1554L169.883 33.1853L170.399 32.7439C170.871 32.3406 171.115 32.1162 171.125 32.1065L171.625 31.6475L170.705 30.6494L170.206 31.1084Z" fill="#5A5A5A"/>
</svg>
