<svg width="69" height="60" viewBox="0 0 69 60" fill="none" xmlns="http://www.w3.org/2000/svg">
<path d="M33.6434 0.265899C34.1582 -0.0886332 34.8418 -0.0886332 35.3566 0.265899L68.3573 22.993C69.0368 23.4609 69.2041 24.3851 68.7311 25.0572C68.258 25.7293 67.3237 25.8948 66.6442 25.4269L63.6073 23.3354V58.5172C63.6073 59.3361 62.9361 60 62.1082 60C61.2803 60 60.6091 59.3361 60.6091 58.5172V21.2706L34.5 3.28969L8.3909 21.2706V58.5172C8.3909 59.3361 7.71973 60 6.8918 60C6.06388 60 5.39271 59.3361 5.39271 58.5172V23.3354L2.35578 25.4269C1.67632 25.8948 0.742008 25.7293 0.268945 25.0572C-0.204119 24.3851 -0.036797 23.4609 0.642668 22.993L33.6434 0.265899Z" fill="#3B4DF8"/>
<path d="M12.5598 27.5608C12.5598 26.7419 13.231 26.078 14.0589 26.078H54.9411C55.7691 26.078 56.4402 26.7419 56.4402 27.5608V58.5171C56.4402 59.3361 55.7691 60 54.9411 60C54.1132 60 53.442 59.3361 53.442 58.5171V29.0437H15.558V58.5171C15.558 59.3361 14.8868 60 14.0589 60C13.231 60 12.5598 59.3361 12.5598 58.5171V27.5608Z" fill="#3B4DF8"/>
<path fill-rule="evenodd" clip-rule="evenodd" d="M21.5025 45.3858C20.6746 45.3858 20.0034 46.0497 20.0034 46.8686V58.5171C20.0034 59.3361 20.6746 60 21.5025 60H47.7741C48.602 60 49.2732 59.3361 49.2732 58.5171V46.8686C49.2732 46.0497 48.602 45.3858 47.7741 45.3858H42.7053V35.1289C42.7053 34.31 42.0341 33.6461 41.2062 33.6461H28.0704C27.2425 33.6461 26.5713 34.31 26.5713 35.1289V45.3858H21.5025ZM33.1392 48.3515V57.0343H23.0016V48.3515H33.1392ZM46.275 57.0343H36.1374V48.3515H46.275V57.0343ZM29.5695 45.2946V36.6118H39.7071V45.2946H29.5695Z" fill="#3B4DF8"/>
</svg>
