<svg width="87" height="80" viewBox="0 0 87 80" fill="none" xmlns="http://www.w3.org/2000/svg">
<path d="M81.7426 13.913H62.6087V8.69565C62.6062 6.3902 61.6892 4.1799 60.059 2.54969C58.4288 0.919491 56.2185 0.00253182 53.913 0H33.0435C30.738 0.00253182 28.5277 0.919491 26.8975 2.54969C25.2673 4.1799 24.3504 6.3902 24.3478 8.69565V13.913H5.22087C3.83763 13.9147 2.5115 14.4649 1.5334 15.443C0.555295 16.4211 0.00508898 17.7472 0.00347801 19.1304V53.8791C0.00347801 53.8909 0 53.9017 0 53.913C0 53.9243 0.00304323 53.9352 0.00347801 53.947V74.7826C0.00497413 76.1659 0.555143 77.4921 1.53327 78.4702C2.5114 79.4483 3.83759 79.9985 5.22087 80H81.7426C83.1259 79.9985 84.4521 79.4483 85.4302 78.4702C86.4083 77.4921 86.9585 76.1659 86.96 74.7826V19.1304C86.9584 17.7472 86.4082 16.4211 85.4301 15.443C84.452 14.4649 83.1259 13.9147 81.7426 13.913ZM27.8261 8.69565C27.8277 7.31241 28.3779 5.98628 29.356 5.00818C30.3341 4.03008 31.6602 3.47987 33.0435 3.47826H53.913C55.2963 3.47987 56.6224 4.03008 57.6005 5.00818C58.5786 5.98628 59.1288 7.31241 59.1304 8.69565V13.913H27.8261V8.69565ZM5.22087 17.3913H81.7426C82.2037 17.3919 82.6457 17.5753 82.9717 17.9013C83.2978 18.2273 83.4812 18.6694 83.4817 19.1304V52.1739H3.48174V19.1304C3.48231 18.6694 3.66573 18.2273 3.99175 17.9013C4.31778 17.5753 4.7598 17.3919 5.22087 17.3913V17.3913ZM81.7426 76.5217H5.22087C4.7598 76.5212 4.31778 76.3377 3.99175 76.0117C3.66573 75.6857 3.48231 75.2437 3.48174 74.7826V55.6522H83.4817V74.7826C83.4812 75.2437 83.2978 75.6857 82.9717 76.0117C82.6457 76.3377 82.2037 76.5212 81.7426 76.5217Z" fill="#009DDE"/>
</svg>
