<svg width="96" height="100" viewBox="0 0 96 100" fill="none" xmlns="http://www.w3.org/2000/svg">
<path d="M68.2532 33.5773H65.2773V54.7903H68.2532V33.5773Z" fill="#009DDE"/>
<path d="M95.2165 30.484L95.2122 30.457C94.9121 26.8968 92.3521 23.9831 88.9903 23.3636C80.6328 21.8506 72.1553 21.8506 63.7936 23.3636C60.4317 23.9786 57.8761 26.8968 57.5716 30.457V30.466C57.2457 34.529 57.0527 40.141 57.0399 45.8651L60.0158 45.8741C60.0287 40.2353 60.2216 34.7176 60.5389 30.7309C60.7233 28.5759 62.2713 26.8115 64.3039 26.4389C72.3268 24.9843 80.4613 24.9843 88.48 26.4389C90.5125 26.8115 92.0605 28.5714 92.2492 30.7219C92.8195 39.2565 92.9267 47.9124 92.5665 56.4604C92.5151 57.6053 92.0648 58.6873 91.2973 59.5044L91.0743 59.7064C90.0794 60.6043 88.8531 61.1655 87.5623 61.3226V33.5728H84.5864V96.8753H77.8885V58.2428H74.9125V96.8753H68.2146L68.2618 62.1263L69.3166 61.0218L55.9164 46.992H52.3144V53.228H43.3824V46.992H39.789L26.3888 61.0218L35.7368 70.809V82.621H38.7127V73.9292L39.789 75.0561H43.3824V68.8202H52.3144V75.0561H55.9078L65.2687 65.2555L65.2258 96.8843H0.20154V100H95.491V96.8843H87.5581V64.4563C89.5692 64.2902 91.4816 63.4596 93.0168 62.0679L93.3255 61.7895L93.3641 61.7491C94.6762 60.3753 95.4481 58.5481 95.5381 56.6086V56.6041C95.9026 47.9258 95.7954 39.1398 95.2165 30.484ZM55.2904 71.2894V65.6999H40.4022V71.2894L38.7127 69.5205V69.0356H38.2496L30.5954 61.0218L40.4022 50.7542V56.3437H55.2904V50.7542L65.0972 61.0218L55.2904 71.2894Z" fill="#009DDE"/>
<path d="M76.3919 19.112C81.3189 19.112 85.324 14.9142 85.324 9.76026C85.324 4.60178 81.3146 0.408547 76.3919 0.408547C71.4692 0.408547 67.4599 4.60627 67.4599 9.76026C67.4599 14.9187 71.4649 19.112 76.3919 19.112ZM76.3919 3.52429C79.6766 3.52429 82.3481 6.32127 82.3481 9.76026C82.3481 13.1992 79.6766 15.9962 76.3919 15.9962C73.1073 15.9962 70.4358 13.1992 70.4358 9.76026C70.4358 6.32127 73.1073 3.52429 76.3919 3.52429Z" fill="#009DDE"/>
<path d="M2.97592 93.5306H5.95613V88.857H35.7325V93.5306H38.7127V88.857H41.6886V85.7367H0V88.857H2.97592V93.5306Z" fill="#009DDE"/>
<path d="M13.4002 20.2658H10.4243V23.3815H13.4002V20.2658Z" fill="#009DDE"/>
<path d="M19.352 20.2658H16.3761V23.3815H19.352V20.2658Z" fill="#009DDE"/>
<path d="M25.3082 20.2658H22.3323V23.3815H25.3082V20.2658Z" fill="#009DDE"/>
<path d="M31.2643 20.2658H28.2884V23.3815H31.2643V20.2658Z" fill="#009DDE"/>
<path d="M13.4002 29.6175H10.4243V32.7332H13.4002V29.6175Z" fill="#009DDE"/>
<path d="M19.352 29.6175H16.3761V32.7332H19.352V29.6175Z" fill="#009DDE"/>
<path d="M25.3082 29.6175H22.3323V32.7332H25.3082V29.6175Z" fill="#009DDE"/>
<path d="M31.2643 29.6175H28.2884V32.7332H31.2643V29.6175Z" fill="#009DDE"/>
<path d="M13.4002 38.9737H10.4243V42.0894H13.4002V38.9737Z" fill="#009DDE"/>
<path d="M19.352 38.9737H16.3761V42.0894H19.352V38.9737Z" fill="#009DDE"/>
<path d="M25.3082 38.9737H22.3323V42.0894H25.3082V38.9737Z" fill="#009DDE"/>
<path d="M31.2643 38.9737H28.2884V42.0894H31.2643V38.9737Z" fill="#009DDE"/>
<path d="M13.4002 48.3254H10.4243V51.4411H13.4002V48.3254Z" fill="#009DDE"/>
<path d="M19.352 48.3254H16.3761V51.4411H19.352V48.3254Z" fill="#009DDE"/>
<path d="M25.3082 48.3254H22.3323V51.4411H25.3082V48.3254Z" fill="#009DDE"/>
<path d="M31.2643 48.3254H28.2884V51.4411H31.2643V48.3254Z" fill="#009DDE"/>
<path d="M13.4002 57.6771H10.4243V60.7929H13.4002V57.6771Z" fill="#009DDE"/>
<path d="M19.352 57.6771H16.3761V60.7929H19.352V57.6771Z" fill="#009DDE"/>
<path d="M25.3082 57.6771H22.3323V60.7929H25.3082V57.6771Z" fill="#009DDE"/>
<path d="M13.4002 67.0333H10.4243V70.1491H13.4002V67.0333Z" fill="#009DDE"/>
<path d="M19.352 67.0333H16.3761V70.1491H19.352V67.0333Z" fill="#009DDE"/>
<path d="M25.3082 67.0333H22.3323V70.1491H25.3082V67.0333Z" fill="#009DDE"/>
<path d="M31.2643 67.0333H28.2884V70.1491H31.2643V67.0333Z" fill="#009DDE"/>
<path d="M13.4002 76.385H10.4243V79.5008H13.4002V76.385Z" fill="#009DDE"/>
<path d="M19.352 76.385H16.3761V79.5008H19.352V76.385Z" fill="#009DDE"/>
<path d="M25.3082 76.385H22.3323V79.5008H25.3082V76.385Z" fill="#009DDE"/>
<path d="M31.2643 76.385H28.2884V79.5008H31.2643V76.385Z" fill="#009DDE"/>
<path d="M2.97592 82.621H5.95613V17.1456H35.7325V43.8763H38.7127V17.1456H41.6886V14.0298H0V17.1456H2.97592V82.621Z" fill="#009DDE"/>
<path d="M34.2445 10.9141V7.79384H22.3323V0H19.3563V7.79384H7.44409V10.9141H34.2445Z" fill="#009DDE"/>
</svg>
