<svg width="100" height="90" viewBox="0 0 100 90" fill="none" xmlns="http://www.w3.org/2000/svg">
<path d="M41.3586 79.0479C40.9993 72.6391 36.9267 67.2667 31.3312 65.0038C34.4798 63.0172 36.5674 59.476 36.5674 55.4683C36.5674 49.2495 31.5708 44.2053 25.4106 44.2053C19.2676 44.2053 14.2539 49.2495 14.2539 55.4683C14.2539 59.476 16.3586 63.0172 19.49 65.0038C13.8946 67.2667 9.82201 72.6391 9.44555 79.0479C9.41133 79.6871 9.63378 80.309 10.0616 80.7754C10.4894 81.2418 11.1054 81.5009 11.7385 81.5009H39.0485C39.6817 81.5009 40.2806 81.2245 40.7255 80.7754C41.1533 80.309 41.3928 79.6871 41.3586 79.0479ZM17.2484 55.4683C17.2484 50.9251 20.9103 47.2284 25.4106 47.2284C29.911 47.2284 33.5728 50.9251 33.5728 55.4683C33.5728 60.0115 29.911 63.7082 25.4106 63.7082C20.9103 63.7082 17.2484 60.0115 17.2484 55.4683ZM12.5085 78.4779C13.2614 71.9136 18.7885 66.8867 25.4106 66.8867C32.0328 66.8867 37.5598 71.9136 38.3127 78.4779H12.5085Z" fill="#009DDE"/>
<path d="M92.796 89.9999H7.22108C3.23408 89.9999 0 86.7351 0 82.7101V29.5911C0 25.5834 3.23408 22.3185 7.22108 22.3185H39.9384C40.7597 22.3185 41.4442 22.9922 41.4442 23.8387C41.4442 24.6679 40.7768 25.3589 39.9384 25.3589H7.22108C4.8939 25.3589 2.99452 27.2763 2.99452 29.6084V82.7274C2.99452 85.0767 4.8939 86.9942 7.22108 86.9942H92.8131C95.1403 86.9942 97.0225 85.0767 97.0225 82.7274V29.5911C97.0225 27.2418 95.1231 25.3416 92.8131 25.3416H60.0787C59.2573 25.3416 58.5728 24.6679 58.5728 23.8214C58.5728 22.9922 59.2402 22.3013 60.0787 22.3013H92.796C96.7658 22.3013 99.9999 25.5661 99.9999 29.5738V82.6928C100.017 86.7351 96.7658 89.9999 92.796 89.9999Z" fill="#009DDE"/>
<path d="M61.2765 40.7851H38.7406C36.9781 40.7851 35.5236 39.334 35.5236 37.5375V32.1824C35.5236 30.3859 36.961 28.9348 38.7406 28.9348H40.3662C41.1875 28.9348 41.872 29.6085 41.872 30.455C41.872 31.2841 41.2046 31.9751 40.3662 31.9751H38.7406C38.6208 31.9751 38.5352 32.0788 38.5352 32.1997V37.5548C38.5352 37.6757 38.6379 37.7621 38.7406 37.7621H61.2765C61.3963 37.7621 61.4818 37.6584 61.4818 37.5548V32.1997C61.4818 32.0788 61.3792 31.9751 61.2765 31.9751H59.6509C58.8295 31.9751 58.1451 31.3014 58.1451 30.455C58.1451 29.6258 58.8124 28.9348 59.6509 28.9348H61.2765C63.039 28.9348 64.4935 30.3859 64.4935 32.1824V37.5375C64.4764 39.334 63.039 40.7851 61.2765 40.7851Z" fill="#009DDE"/>
<path d="M54.1923 36.3628H45.8247C44.1136 36.3628 42.7104 34.9463 42.7104 33.2188V3.14395C42.7104 1.41651 44.1136 0 45.8247 0H54.1923C55.9035 0 57.3066 1.41651 57.3066 3.14395V33.2361C57.2895 34.9635 55.9035 36.3628 54.1923 36.3628ZM45.8247 3.02303C45.7563 3.02303 45.705 3.07486 45.705 3.14395V33.2361C45.705 33.3052 45.7563 33.357 45.8247 33.357H54.1923C54.2607 33.357 54.3121 33.3052 54.3121 33.2361V3.14395C54.3121 3.07486 54.2607 3.02303 54.1923 3.02303H45.8247Z" fill="#009DDE"/>
<path d="M87.9876 52.6353H51.6256C50.8042 52.6353 50.1198 51.9616 50.1198 51.1151C50.1198 50.2859 50.7871 49.595 51.6256 49.595H87.9876C88.809 49.595 89.4934 50.2687 89.4934 51.1151C89.4934 51.9616 88.809 52.6353 87.9876 52.6353Z" fill="#009DDE"/>
<path d="M87.9876 63.4319H51.6256C50.8042 63.4319 50.1198 62.7582 50.1198 61.9118C50.1198 61.0826 50.7871 60.3916 51.6256 60.3916H87.9876C88.809 60.3916 89.4934 61.0653 89.4934 61.9118C89.4934 62.7582 88.809 63.4319 87.9876 63.4319Z" fill="#009DDE"/>
<path d="M87.9876 74.2285H51.6256C50.8042 74.2285 50.1198 73.5548 50.1198 72.7084C50.1198 71.8792 50.7871 71.1882 51.6256 71.1882H87.9876C88.809 71.1882 89.4934 71.8619 89.4934 72.7084C89.4934 73.5548 88.809 74.2285 87.9876 74.2285Z" fill="#009DDE"/>
</svg>
