<svg width="24" height="24" viewBox="0 0 24 24" fill="none" xmlns="http://www.w3.org/2000/svg">
<path d="M12 0C5.373 0 0 5.373 0 12C0 18.627 5.373 24 12 24C18.627 24 24 18.627 24 12C24 5.373 18.627 0 12 0ZM10.766 7.278L17.271 11.14C17.4202 11.2285 17.5438 11.3544 17.6297 11.5052C17.7156 11.656 17.7607 11.8265 17.7607 12C17.7607 12.1735 17.7156 12.344 17.6297 12.4948C17.5438 12.6456 17.4202 12.7715 17.271 12.86L10.766 16.722C10.5382 16.8573 10.2787 16.9298 10.0138 16.9323C9.74893 16.9347 9.48811 16.867 9.2579 16.7359C9.02769 16.6048 8.83628 16.4152 8.70316 16.1861C8.57004 15.9571 8.49994 15.6969 8.5 15.432V8.568C8.49994 8.30309 8.57004 8.0429 8.70316 7.81387C8.83628 7.58485 9.02769 7.39516 9.2579 7.2641C9.48811 7.13304 9.74893 7.06529 10.0138 7.06773C10.2787 7.07017 10.5382 7.14272 10.766 7.278Z" fill="#009DDE"/>
</svg>
