<svg width="125" height="100" viewBox="0 0 125 100" fill="none" xmlns="http://www.w3.org/2000/svg">
<path d="M93.1539 70.2856C92.5441 70.2856 92.0189 70.6286 91.7519 71.1275C85.6052 83.147 74.3266 92.3732 60.9116 95.5584C64.0717 92.9968 66.8936 89.3705 69.3015 84.7864C70.4632 82.5767 71.5003 80.1933 72.4082 77.6585C76.1515 78.9504 78.0876 80.1221 78.1099 80.1354C78.8932 80.621 79.9214 80.376 80.4065 79.5919C80.8917 78.8079 80.6469 77.7743 79.8635 77.2932C79.7656 77.2308 77.6114 75.9166 73.4587 74.4866C73.9839 72.7491 74.4557 70.9449 74.8696 69.0827C75.3592 66.8731 75.377 66.4231 75.693 64.1244V64.1199C75.7019 64.0531 75.7064 63.9818 75.7064 63.9105C75.7064 62.9795 74.9542 62.2266 74.0239 62.2266C73.1827 62.2266 72.4839 62.8458 72.3637 63.6566C72.3637 63.6566 72.3637 63.6611 72.3593 63.6611C71.8074 67.5547 71.3311 70.0094 70.2763 73.4931C67.8283 72.8115 65.2378 72.2502 62.5495 71.827C59.06 71.279 55.3969 70.9538 51.627 70.8647V51.6639H61.0451C61.1119 51.6728 61.1786 51.6773 61.2454 51.6773C62.1756 51.6773 62.9278 50.9244 62.9278 49.9933C62.9278 49.0622 62.1756 48.3094 61.2454 48.3094C61.1786 48.3094 61.1118 48.3138 61.0495 48.3227L54.7604 48.2693L51.627 48.3227V29.1219C52.3258 29.1041 58.1832 28.7254 58.8775 28.6943C58.9487 28.7032 59.0199 28.7121 59.0956 28.7121C60.0258 28.7121 60.778 27.9592 60.778 27.0281C60.778 26.097 60.0258 25.3441 59.0956 25.3441C59.0244 25.3441 58.9576 25.3486 58.8908 25.3575V25.3486C58.1965 25.3842 52.3347 25.7629 51.6314 25.7807V7.72932C51.6314 6.80715 50.8837 6.05872 49.9623 6.05872C49.041 6.05872 48.2932 6.80715 48.2932 7.72932V25.8075C40.7401 25.7139 34.8916 24.6714 30.641 23.4909C31.5 21.103 32.4792 18.8533 33.5741 16.7684C38.0428 8.25946 43.8646 3.57286 49.9623 3.57286C53.5943 3.57286 57.2752 5.19 60.5288 8.44656C61.7083 9.62712 63.6177 11.9526 63.8313 12.1753C64.1385 12.5139 64.5835 12.7322 65.0776 12.7322C66.0078 12.7322 66.76 11.9793 66.76 11.0482C66.76 10.6072 66.5909 10.2063 66.3105 9.90778C66.3105 9.90778 64.3388 7.58676 62.7186 6.05426C62.1133 5.48403 61.5169 4.92716 60.9027 4.42821C64.312 5.24346 67.6146 6.44184 70.7614 8.01443C70.984 8.12581 71.1976 8.15699 71.3979 8.13026C72.2436 8.11244 72.9201 7.42193 72.9201 6.57103C72.9201 6.07654 72.6931 5.63995 72.337 5.35484C72.2569 5.27019 72.159 5.19891 72.0433 5.141C70.1472 4.20546 68.1888 3.38575 66.177 2.69524C60.9739 0.908808 55.5304 0 49.9979 0C49.1567 0 48.2977 0.0222747 47.4565 0.0623691C40.7178 0.400944 34.2506 2.04927 28.2286 4.9628C25.3355 6.36165 22.5626 8.05453 19.9855 9.99243C17.4351 11.9125 15.0539 14.0865 12.9086 16.461C10.7632 18.8355 8.84043 21.4238 7.18915 24.1547C5.52006 26.9167 4.11802 29.8481 3.0142 32.8685C0.717533 39.1589 -0.270568 45.7656 0.06325 52.5059C0.708631 65.4029 6.21885 77.3956 15.5746 86.2743C20.1279 90.5956 25.3666 93.9814 31.1573 96.338C37.1259 98.7704 43.4373 100 49.9134 100C50.7546 100 51.6136 99.9777 52.4548 99.9376C58.517 99.6347 64.3877 98.2581 69.9024 95.8525C75.2301 93.527 80.0816 90.3105 84.3144 86.2877C88.5116 82.305 91.9388 77.7966 94.5426 72.6467C94.547 72.6378 94.5515 72.6244 94.5604 72.6155C94.5648 72.611 94.5648 72.6066 94.5693 72.6021C94.6806 72.3838 94.7429 72.1388 94.7429 71.8804C94.7473 70.9984 94.0352 70.2856 93.1539 70.2856ZM36.4583 28.1641C40.1748 28.7655 44.1495 29.0952 48.2843 29.1442V48.3272H26.3725C26.5105 40.6023 27.6232 33.2071 29.5861 26.6628C31.7537 27.2731 34.0548 27.7765 36.4583 28.1641ZM48.2888 51.6728V70.8558C44.1495 70.9048 40.1792 71.2345 36.4627 71.8359C34.0593 72.2235 31.7581 72.7269 29.5905 73.3372C27.6232 66.7929 26.515 59.3977 26.377 51.6728H48.2888ZM3.21004 52.3455C2.06616 29.514 17.5375 9.62267 38.982 4.45494C35.8307 7.01653 33.0177 10.6339 30.6143 15.2092C29.4303 17.4589 28.3754 19.8913 27.4541 22.4841C23.7243 21.161 21.9172 19.9403 21.8771 19.9136C21.5878 19.7131 21.2585 19.6151 20.9291 19.6151C20.3994 19.6151 19.8787 19.8646 19.5538 20.3368C19.0285 21.0941 19.2199 22.1366 19.9766 22.6623C20.0701 22.7246 22.1664 24.1636 26.4081 25.6604C25.9007 27.3533 25.4423 29.1086 25.0417 30.9173C23.8133 36.4548 23.1367 42.3041 23.0299 48.3316H7.81672C6.89539 48.3316 6.14764 49.0801 6.14764 50.0022C6.14764 50.9244 6.89539 51.6728 7.81672 51.6728H23.0344C23.1412 57.7004 23.8133 63.5497 25.0462 69.0872C25.4468 70.8959 25.9052 72.6467 26.4126 74.3396C22.1709 75.8409 20.0745 77.2754 19.981 77.3377C19.981 77.3377 18.8416 78.2287 19.714 79.6187C20.5018 80.7769 21.8816 80.0864 21.8816 80.0864L21.8771 80.0909C21.8949 80.0775 23.7287 78.8435 27.4541 77.5159C28.3754 80.1087 29.4348 82.5411 30.6143 84.7908C33.0266 89.3794 35.8485 93.0058 39.0087 95.5673C19.2377 90.8407 4.2738 73.5466 3.21004 52.3455ZM49.9579 96.4316C43.8601 96.4316 38.0384 91.745 33.5697 83.2361C32.4747 81.1512 31.4955 78.9014 30.6365 76.5136C34.6735 75.3954 40.5665 74.2906 48.2888 74.1926V91.7896C48.2888 92.7117 49.0365 93.4602 49.9579 93.4602C50.8792 93.4602 51.627 92.7117 51.627 91.7896V74.2148C59.2158 74.4064 65.1444 75.5558 69.2214 76.6784C68.3757 79.0039 67.4188 81.2002 66.3461 83.2361C61.8774 91.745 56.0556 96.4316 49.9579 96.4316Z" fill="#009DDE"/>
<path d="M102.269 32.8374C101.984 32.677 100.444 31.8617 97.9785 31.3717L97.8806 31.3539C97.7738 31.3316 97.6937 31.238 97.6937 31.1267V21.7089C97.6937 21.6377 97.7248 21.5708 97.7827 21.5263C97.8361 21.4862 97.9162 21.4684 97.983 21.4817L98.1299 21.5174C99.1224 21.7535 100.039 22.199 100.783 22.8049C101.918 23.7315 102.55 24.9566 102.572 26.2485C102.585 27.144 103.333 27.8746 104.232 27.8746H104.259C104.695 27.8657 105.109 27.6875 105.416 27.3712C105.723 27.0549 105.888 26.6361 105.883 26.1951C105.843 23.9097 104.775 21.798 102.879 20.2433C101.553 19.1563 99.9058 18.4301 98.1254 18.145L98.0275 18.1272C97.9162 18.1094 97.8361 18.0158 97.8317 17.9044L97.8361 15.7482V15.7393C97.8183 14.8439 97.0795 14.1133 96.1804 14.1133H96.1537C95.713 14.1222 95.2991 14.3004 94.992 14.6167C94.6849 14.933 94.5202 15.3518 94.5291 15.7883L94.5246 17.9445V17.9534C94.5246 18.0648 94.449 18.1628 94.3377 18.1851L94.2398 18.2029C92.4683 18.5504 90.8482 19.3345 89.5574 20.466C87.7148 22.0832 86.7178 24.2304 86.7578 26.5158C86.7979 28.7433 87.8171 30.8193 89.6331 32.3562L89.6643 32.383C90.7503 33.2829 92.2013 33.8531 94.2264 34.1783L94.3244 34.1961C94.4401 34.2139 94.5202 34.3075 94.5202 34.4278V45.8948C94.5202 45.966 94.4846 46.0373 94.4267 46.0819C94.3733 46.122 94.2843 46.1398 94.222 46.1175L94.0707 46.073C92.7265 45.6809 91.5692 44.9726 90.7236 44.0371C89.8467 43.0614 89.3705 41.9032 89.3482 40.687C89.3349 39.7915 88.5871 39.0609 87.6925 39.0609H87.6658C87.2252 39.0698 86.8157 39.248 86.5086 39.5643C86.2014 39.8806 86.0368 40.2994 86.0457 40.7449C86.0679 42.019 86.3839 43.2441 86.9804 44.3935C87.5456 45.4805 88.3423 46.4472 89.3393 47.2624C90.6791 48.3584 92.3259 49.1291 94.1107 49.4899L94.2042 49.5077C94.3065 49.53 94.3867 49.6236 94.3911 49.7305L94.3956 51.9624V51.9713C94.4089 52.8667 95.1522 53.5974 96.0469 53.5974H96.0825C96.5231 53.5884 96.9326 53.4103 97.2353 53.094C97.5424 52.7777 97.707 52.3589 97.6981 51.9178V49.8864C97.6981 49.7661 97.7827 49.6637 97.9029 49.6503L98.0097 49.6369C100.302 49.3563 102.376 48.4474 104.014 47.0085C104.984 46.1576 105.745 45.1642 106.275 44.0593C106.831 42.8921 107.107 41.6537 107.085 40.3796C107.027 37.3101 105.229 34.4901 102.269 32.8374ZM94.5157 30.5965C94.5157 30.6678 94.4846 30.7346 94.4312 30.7792C94.3778 30.8237 94.3065 30.8416 94.2353 30.8282L94.0929 30.797C93.0425 30.5743 92.2814 30.2669 91.774 29.8481C90.688 28.9259 90.0826 27.7276 90.0604 26.4668C90.0381 25.1704 90.6301 23.9275 91.7339 22.9608C92.3927 22.3816 93.176 21.9451 94.0618 21.6644L94.2131 21.6154C94.2843 21.5931 94.3644 21.6065 94.4223 21.651C94.4801 21.6956 94.5157 21.7669 94.5157 21.8381V30.5965ZM98.1121 46.2779L97.9697 46.3046C97.9029 46.318 97.8317 46.2957 97.7783 46.2556C97.7248 46.2111 97.6937 46.1443 97.6937 46.0774V34.9846C97.6937 34.9089 97.7248 34.8465 97.7827 34.802C97.8228 34.7708 97.8762 34.753 97.9296 34.753C97.9474 34.753 97.9652 34.753 97.983 34.7574L98.1299 34.7975C99.6699 35.1896 100.556 35.6752 100.654 35.7286C102.572 36.7978 103.738 38.562 103.769 40.4419C103.823 43.2129 101.437 45.6676 98.1121 46.2779Z" fill="#009DDE"/>
<path d="M122.739 22.2078C121.288 18.7775 119.214 15.6947 116.57 13.0529C113.926 10.4067 110.851 8.33065 107.423 6.87834C103.876 5.37703 100.106 4.61523 96.2206 4.61523C92.3349 4.61523 88.565 5.37703 85.0177 6.87834C81.5905 8.33065 78.5105 10.4067 75.8711 13.0529C73.2273 15.6991 71.1531 18.7775 69.7021 22.2078C68.2022 25.7584 67.4411 29.5317 67.4411 33.4209C67.4411 37.31 68.2022 41.0834 69.7021 44.6339C71.1531 48.0643 73.2273 51.1471 75.8711 53.7888C78.5149 56.4351 81.5905 58.5111 85.0177 59.9634C88.565 61.4647 92.3349 62.2265 96.2206 62.2265C100.106 62.2265 103.876 61.4647 107.423 59.9634C110.851 58.5111 113.931 56.4351 116.57 53.7888C119.214 51.1426 121.288 48.0643 122.739 44.6339C124.239 41.0834 125 37.31 125 33.4209C125 29.5362 124.239 25.7628 122.739 22.2078ZM96.2206 59.0189C82.1201 59.0189 70.6502 47.5386 70.6502 33.4253C70.6502 19.3121 82.1201 7.8317 96.2206 7.8317C110.321 7.8317 121.791 19.3121 121.791 33.4253C121.791 47.5341 110.321 59.0189 96.2206 59.0189Z" fill="#009DDE"/>
</svg>
