<svg width="100" height="101" viewBox="0 0 100 101" fill="none" xmlns="http://www.w3.org/2000/svg">
<path d="M71.9673 46.8959C71.772 45.6459 70.7174 44.7475 69.4286 44.7475H62.9452L59.0395 42.1695C58.3755 41.7399 57.5553 41.6227 56.8132 41.8571L52.8295 43.1851C52.4389 43.3023 52.1264 43.5367 51.814 43.8101L46.1117 49.513C45.5258 50.0989 45.2525 50.9582 45.4087 51.7785C46.6585 58.6532 46.8928 59.2 46.971 59.4344C47.4787 60.5672 48.6113 60.7625 52.0093 60.6843C53.6497 60.6453 55.5244 60.5281 56.6961 60.489L57.6334 63.3405C57.9459 64.2389 58.688 64.8638 59.5863 65.0591L60.8751 72.8713C60.9533 73.4181 61.2267 73.8869 61.5782 74.2775L63.8825 76.5821C64.3903 77.0898 65.0152 77.3242 65.6791 77.3242C66.1869 77.3242 66.6555 77.168 67.0852 76.8945L70.8346 74.3946C71.2642 74.1212 71.6157 73.6916 71.811 73.2228L74.7793 65.8403L79.8958 58.1454C80.4035 57.3642 80.4816 56.3486 80.0129 55.5283C79.5833 54.708 78.685 54.1612 77.7477 54.1612H73.139L71.9673 46.8959ZM72.1625 64.1217C72.0454 64.2779 71.9673 64.4342 71.9282 64.5904L69.038 71.8557L65.8354 74.004L63.9606 72.1291L62.6327 64.0826C62.4374 62.9889 61.5782 62.1686 60.5236 61.9733L59.5472 59.0438C59.1957 57.9501 58.1021 57.2079 56.9695 57.286C53.2981 57.5204 50.8766 57.5595 49.744 57.5204C49.5096 56.5048 49.1191 54.5127 48.5723 51.5051L54.0012 46.0756L57.5944 44.8647L61.3829 47.4037C61.8125 47.6771 62.2812 47.8333 62.7889 47.8333H68.9599L70.1706 55.0596C70.3659 56.3095 71.4205 57.2079 72.7093 57.2079H76.7712L72.1625 64.1217Z" fill="#009DDE"/>
<path d="M88.2929 65.9576C89.1131 67.4029 90.4801 68.4575 92.0814 68.8872C92.6282 69.0434 93.175 69.1215 93.7218 69.1215C96.4557 69.1215 98.9944 67.2857 99.7756 64.5124C100.205 62.9109 100.01 61.2313 99.1506 59.786C98.3305 58.3408 96.9635 57.2861 95.3621 56.8565C92.5501 56.1143 89.6599 57.3643 88.2929 59.786L85.0512 58.8876C85.637 56.3487 85.9104 53.7316 85.9104 50.9974C85.9104 41.7009 82.3563 33.1857 76.5368 26.7797L78.8802 24.4361C79.8566 25.022 80.9893 25.3344 82.1219 25.3344C83.7232 25.3344 85.3246 24.7485 86.5353 23.5377C87.707 22.3658 88.371 20.8034 88.371 19.1238C88.371 17.4442 87.7461 15.8817 86.5353 14.7099C84.1138 12.2882 80.13 12.2491 77.7085 14.6709C76.5368 15.8427 75.8728 17.4051 75.8728 19.0847C75.8728 20.2175 76.1462 21.2721 76.693 22.2096L74.3106 24.5923C67.9053 18.6941 59.3518 15.0615 49.9782 15.0615C47.3224 15.0615 44.7837 15.3349 42.2841 15.8817L41.4248 12.6788C42.4012 12.1319 43.1824 11.3507 43.7682 10.3742C44.6275 8.92893 44.8227 7.24932 44.3931 5.64783C43.4948 2.32767 40.0969 0.335569 36.738 1.19491C35.1367 1.62457 33.7697 2.64015 32.9495 4.0854C32.0902 5.53065 31.895 7.21026 32.3246 8.81175C33.0667 11.6241 35.6054 13.499 38.3784 13.499H38.4174L39.2767 16.702C34.9414 18.0692 30.9185 20.2175 27.4425 23.0299C27.2863 23.108 27.13 23.1861 27.0129 23.3424C26.9348 23.4205 26.8957 23.4595 26.8566 23.5377C21.7402 27.8734 17.8345 33.5763 15.7645 40.0994L12.4838 39.2401C12.4838 38.1464 12.2104 37.0527 11.6636 36.0762C10.8434 34.6309 9.47641 33.5763 7.87508 33.1466C4.55526 32.2091 1.11827 34.2012 0.219963 37.5214C-0.209661 39.1229 -0.0143769 40.8025 0.844871 42.2478C1.66506 43.693 3.03205 44.7476 4.63337 45.1773C5.18017 45.3336 5.72696 45.4117 6.27376 45.4117C8.49999 45.4117 10.6091 44.2008 11.7026 42.2478L14.9443 43.1462C14.3585 45.6851 14.0851 48.3022 14.0851 51.0364C14.0851 60.3329 17.6393 68.8481 23.4587 75.2541L21.0763 77.5587C18.6938 76.1134 15.5302 76.4259 13.4602 78.4571C12.2885 79.6289 11.6245 81.1913 11.6245 82.8709C11.6245 84.5505 12.2494 86.113 13.4602 87.2848C14.671 88.4957 16.2723 89.1207 17.8736 89.1207C19.4749 89.1207 21.0763 88.5347 22.287 87.3239C23.4587 86.152 24.1227 84.5896 24.1227 82.91C24.1227 81.7772 23.8493 80.7226 23.3025 79.7851L25.6849 77.4024C32.0512 83.3006 40.6046 86.9333 49.9782 86.9333C52.6341 86.9333 55.1728 86.6598 57.6724 86.113L58.5317 89.316C57.5552 89.8628 56.7741 90.644 56.1882 91.6205C55.329 93.0658 55.1337 94.7454 55.5633 96.3469C56.3054 99.1593 58.8441 100.995 61.6171 100.995C62.1639 100.995 62.6717 100.917 63.2185 100.8C64.8198 100.37 66.1868 99.3546 67.007 97.9093C67.8662 96.4641 68.0615 94.7845 67.6319 93.183C66.8898 90.3706 64.3511 88.5347 61.539 88.5347L60.6798 85.3318C71.85 81.8553 80.6768 73.0667 84.231 61.9344L87.4727 62.8328C87.4727 63.8874 87.7461 64.9811 88.2929 65.9576ZM90.7144 62.0125C91.1831 60.3329 92.9016 59.3564 94.542 59.8251C95.3621 60.0595 96.0261 60.5672 96.4167 61.2703C96.8463 61.9734 96.9244 62.8328 96.7291 63.653C96.2605 65.3327 94.542 66.3092 92.9016 65.8404C92.0814 65.6061 91.4174 65.0983 91.0269 64.3952C90.5972 63.653 90.4801 62.8328 90.7144 62.0125ZM79.9347 16.8973C80.5596 16.3114 81.3408 15.9989 82.1219 15.9989C82.9421 15.9989 83.7232 16.3114 84.3482 16.9364C84.934 17.5223 85.2465 18.3035 85.2465 19.1629C85.2465 19.9831 84.934 20.7643 84.3091 21.3503C83.0983 22.5611 81.1064 22.5611 79.8957 21.3503C79.3098 20.7643 78.9974 19.9831 78.9974 19.1238C78.9974 18.2645 79.3098 17.4832 79.9347 16.8973ZM9.24207 39.9822C8.77339 41.6618 7.05489 42.6384 5.41451 42.1696C4.59432 41.9353 3.93035 41.4275 3.53979 40.7244C3.11016 40.0213 3.03205 39.162 3.22733 38.3417C3.6179 36.9355 4.86771 36.0371 6.2347 36.0371C6.5081 36.0371 6.78149 36.0762 7.05489 36.1543C7.87508 36.3886 8.53905 36.8964 8.92961 37.5995C9.35924 38.3026 9.47641 39.162 9.24207 39.9822ZM20.0217 85.0974C18.811 86.3083 16.8191 86.3083 15.6083 85.0974C15.0225 84.5115 14.71 83.7303 14.71 82.8709C14.71 82.0507 15.0225 81.2694 15.6474 80.6835C16.2723 80.0976 17.0534 79.7851 17.8345 79.7851C18.6547 79.7851 19.4359 80.0976 20.0608 80.7226C20.6466 81.3085 20.9591 82.0897 20.9591 82.9491C20.9591 83.7303 20.6466 84.5115 20.0217 85.0974ZM74.3887 29.1233C78.9583 34.2012 81.9266 40.6853 82.6297 47.8725H78.1381L76.9274 40.6463C76.7321 39.3963 75.6776 38.4979 74.3887 38.4979H67.9443L64.0387 35.9199C63.3747 35.4902 62.5545 35.3731 61.8124 35.6074L58.0239 36.8574L54.626 36.8964V35.3731C54.626 34.5137 53.923 33.8106 53.0637 33.8106V32.2482H53.6496L54.7822 34.5137C54.9775 34.9434 55.3681 35.2559 55.8367 35.334C56.3054 35.4512 56.7741 35.334 57.1647 35.0215L64.5854 29.1233H74.3887ZM39.1986 10.257C37.5191 10.6867 35.8006 9.71015 35.371 8.03054C35.1367 7.24932 35.2538 6.38999 35.6835 5.68689C36.1131 4.9838 36.7771 4.43695 37.5972 4.24164C37.8706 4.16352 38.144 4.12446 38.3784 4.12446C39.7454 4.12446 41.0342 5.06192 41.3857 6.42905C41.581 7.24932 41.5029 8.0696 41.0733 8.81175C40.6827 9.51484 39.9797 10.0617 39.1986 10.257ZM28.0674 26.5844L30.1374 28.6546C30.4499 28.9671 30.8404 29.1233 31.231 29.1233H35.9178V34.4747L28.8485 38.7323C28.7314 38.8104 28.6533 38.8885 28.5361 38.9667L23.8493 43.6539C23.7321 43.7711 23.6149 43.9274 23.5368 44.0445L20.881 49.4349H17.2096C17.6393 40.3728 21.7402 32.2873 28.0674 26.5844ZM19.514 63.1453C18.1861 59.8642 17.4049 56.2706 17.2096 52.5598H20.7247L21.7793 55.7628L20.3732 61.3875L19.514 63.1453ZM31.5435 77.5977C31.3091 77.5587 31.0748 77.5587 30.8404 77.6368C26.7785 74.7072 23.4197 70.8793 21.0372 66.4654C21.3106 66.3092 21.5449 66.0748 21.7012 65.8014L23.2634 62.6765C23.3025 62.5593 23.3415 62.4812 23.3806 62.364L24.5523 57.7549L27.5206 58.7314L35.4882 62.7156C34.1993 65.8404 34.2384 66.6607 34.4337 67.1685C34.5118 68.106 34.4727 72.3245 34.3555 75.9962C34.3555 76.3087 34.4337 76.6212 34.6289 76.8946L35.6444 78.4571L31.5435 77.5977ZM60.7579 91.7377C62.4373 91.3081 64.1558 92.2846 64.5854 93.9642C64.7807 94.7845 64.7026 95.6047 64.273 96.3469C63.8434 97.05 63.1794 97.5968 62.3592 97.7921C60.6798 98.2218 58.9613 97.2453 58.5317 95.5657C58.3364 94.7454 58.4145 93.9251 58.8441 93.183C59.3128 92.4799 59.9768 91.933 60.7579 91.7377ZM49.9782 83.8084C46.346 83.8084 42.8699 83.2225 39.6282 82.1288C39.9016 82.0116 40.175 81.8163 40.3312 81.5429C40.6827 81.0351 40.6827 80.332 40.3312 79.8242L37.4801 75.5275C37.6754 69.1216 37.5972 67.1685 37.441 66.3873C37.5582 65.7623 38.2612 63.9655 38.8861 62.5203C39.2376 61.7391 38.8861 60.8797 38.144 60.4891L28.7704 55.8018C28.6923 55.7628 28.6533 55.7237 28.5751 55.7237L24.6304 54.3956L23.5368 51.0755L26.2708 45.646L30.6452 41.2712L38.3003 36.7011C38.769 36.4277 39.0423 35.9199 39.0423 35.3731V27.5609C39.0423 26.7016 38.3393 25.9985 37.4801 25.9985H31.895L30.528 24.6314C35.9569 20.569 42.6746 18.1863 49.9782 18.1863C58.063 18.1863 65.4837 21.1159 71.186 25.9985H64.0387C63.6871 25.9985 63.3356 26.1157 63.0622 26.35L56.7741 31.3889L56.0711 29.9827C55.7977 29.4358 55.2509 29.1233 54.665 29.1233H51.5405C50.6813 29.1233 49.9782 29.8264 49.9782 30.6858V35.3731C49.9782 36.2324 50.6813 36.9355 51.5405 36.9355V38.4979C51.5405 38.9276 51.6967 39.3182 52.0092 39.5916C52.3216 39.9041 52.7122 40.0604 53.1418 40.0604L58.3364 39.9822C58.4926 39.9822 58.6488 39.9432 58.8051 39.9041L62.5545 38.6542L66.343 41.1931C66.7726 41.4665 67.2413 41.6228 67.749 41.6228H73.92L75.1308 48.849C75.326 50.099 76.3806 50.9974 77.6694 50.9974H82.7859C82.7859 69.0825 68.0615 83.8084 49.9782 83.8084Z" fill="#009DDE"/>
<path d="M72.3969 13.4207C72.6312 13.577 72.9437 13.6551 73.2172 13.6551C73.764 13.6551 74.2718 13.3817 74.5452 12.913C74.9749 12.1708 74.7405 11.1943 73.9984 10.7646C73.2562 10.335 72.2797 10.5693 71.85 11.3115C71.4204 12.0146 71.6547 12.9911 72.3969 13.4207Z" fill="#009DDE"/>
<path d="M67.0853 10.7258C67.2806 10.8039 67.4759 10.8429 67.7102 10.8429C68.3352 10.8429 68.8821 10.4914 69.1555 9.90548C69.507 9.12426 69.1164 8.1868 68.3352 7.87432C67.554 7.52277 66.6165 7.91338 66.3041 8.69459C65.9525 9.47581 66.3041 10.3742 67.0853 10.7258Z" fill="#009DDE"/>
<path d="M61.4611 8.77262C61.6173 8.81168 61.7345 8.81168 61.8517 8.81168C62.5548 8.81168 63.1797 8.34295 63.375 7.63985C63.6094 6.81958 63.1016 5.96024 62.2813 5.72588C61.4611 5.49151 60.6017 5.9993 60.3674 6.81958C60.133 7.67891 60.6408 8.53825 61.4611 8.77262Z" fill="#009DDE"/>
<path d="M55.6026 7.60076C55.6807 7.60076 55.7197 7.60076 55.7979 7.60076C56.5791 7.60076 57.2431 7.01484 57.3603 6.23363C57.4775 5.37429 56.8525 4.59308 55.9932 4.4759C55.1338 4.35871 54.3526 4.98369 54.2354 5.84302C54.1573 6.70236 54.7432 7.48357 55.6026 7.60076Z" fill="#009DDE"/>
<path d="M49.6268 7.24924C50.4862 7.24924 51.1893 6.54614 51.1893 5.68681C51.1893 4.82747 50.4862 4.12438 49.6268 4.12438C48.7675 4.12438 48.0644 4.82747 48.0644 5.68681C48.0644 6.54614 48.7675 7.24924 49.6268 7.24924Z" fill="#009DDE"/>
<path d="M28.6535 12.7958C28.9269 12.6395 29.1222 12.4442 29.2394 12.2099C29.5129 11.7411 29.5129 11.1552 29.2394 10.6865C28.8098 9.94434 27.8723 9.67091 27.1301 10.1006C26.388 10.5302 26.1146 11.4677 26.5442 12.2099C26.9739 12.952 27.9114 13.1864 28.6535 12.7958Z" fill="#009DDE"/>
<path d="M23.6542 16.0378C23.8105 15.9206 23.9667 15.7644 24.0839 15.5691C24.3964 15.0222 24.3573 14.3582 23.9667 13.8504C23.4589 13.1473 22.4824 13.0301 21.7793 13.5379C21.0762 14.0457 20.959 15.0222 21.4668 15.7253C22.0137 16.4284 22.9902 16.5456 23.6542 16.0378Z" fill="#009DDE"/>
<path d="M19.1628 19.9439C19.28 19.8268 19.3581 19.7486 19.3972 19.6314C19.7487 19.0455 19.6706 18.2643 19.1628 17.7565C18.5379 17.1316 17.5613 17.1316 16.9364 17.7565C16.3114 18.3815 16.3114 19.358 16.9364 19.983C17.5613 20.5298 18.5379 20.5689 19.1628 19.9439Z" fill="#009DDE"/>
<path d="M12.7182 22.522C12.2104 23.2251 12.3276 24.2016 13.0307 24.7094C13.7338 25.2172 14.7103 25.1 15.2181 24.3969C15.2571 24.3578 15.2962 24.2797 15.3352 24.2407C15.7259 23.5766 15.5696 22.7173 14.9446 22.2095C14.2415 21.7017 13.265 21.858 12.7182 22.522Z" fill="#009DDE"/>
<path d="M9.20311 27.8734C8.77345 28.6156 9.04687 29.5921 9.78903 29.9827C10.5312 30.4124 11.4686 30.1389 11.8983 29.3968C12.328 28.6546 12.0545 27.6781 11.3124 27.2485C10.5702 26.8578 9.63278 27.1313 9.20311 27.8734Z" fill="#009DDE"/>
<path d="M4.63393 51.8957C5.49327 51.8957 6.19636 51.2317 6.23542 50.3723C6.23542 50.0599 6.1573 49.7864 6.04012 49.5521C5.76669 49.0833 5.29797 48.7709 4.71205 48.7709C3.85272 48.7709 3.14962 49.4349 3.11056 50.2942C3.11056 51.1536 3.7746 51.8957 4.63393 51.8957Z" fill="#009DDE"/>
<path d="M5.18076 58.0674C6.0401 57.9502 6.62601 57.169 6.54789 56.3096C6.50883 56.1143 6.46977 55.88 6.35259 55.7237C6.0401 55.1769 5.45419 54.8644 4.79016 54.9425C3.93082 55.0597 3.34491 55.8409 3.42303 56.7002C3.54021 57.5596 4.32143 58.1455 5.18076 58.0674Z" fill="#009DDE"/>
<path d="M7.68059 62.1686C7.64153 62.0124 7.60247 61.8952 7.52435 61.778C7.1728 61.1921 6.46971 60.8796 5.76662 61.0358C4.94634 61.2702 4.43855 62.1295 4.67292 62.9498C4.90728 63.7701 5.76662 64.2779 6.58689 64.0435C7.40717 63.8482 7.91496 62.9889 7.68059 62.1686Z" fill="#009DDE"/>
<path d="M9.59461 67.8324C9.55554 67.7542 9.55554 67.7152 9.51648 67.6371C9.12588 66.973 8.3056 66.6605 7.56345 66.973C6.78223 67.3246 6.39162 68.223 6.74317 69.0042C7.09472 69.7854 7.99312 70.176 8.77433 69.8635C9.55554 69.512 9.94615 68.6136 9.59461 67.8324Z" fill="#009DDE"/>
<path d="M12.2887 73.1838C12.2497 73.1838 12.2497 73.1838 12.2887 73.1838C11.8591 72.4417 10.8826 72.1682 10.1404 72.637C9.39825 73.0666 9.16388 74.0432 9.59355 74.7853C10.0232 75.5275 10.9997 75.7618 11.7419 75.3322C12.445 74.8634 12.7184 73.926 12.2887 73.1838Z" fill="#009DDE"/>
<path d="M27.5598 88.5736C27.3255 88.4173 27.013 88.3392 26.7396 88.3392C26.1927 88.3392 25.6849 88.6126 25.4115 89.0814C24.9818 89.8235 25.2162 90.8 25.9584 91.2297C26.7005 91.6594 27.677 91.425 28.1067 90.6829C28.5364 89.9798 28.302 89.0032 27.5598 88.5736Z" fill="#009DDE"/>
<path d="M32.8716 91.2689C32.6763 91.1908 32.481 91.1518 32.2466 91.1518C31.6217 91.1518 31.0748 91.5033 30.8014 92.0892C30.4498 92.8704 30.8404 93.8079 31.6217 94.1204C32.4029 94.4719 33.3403 94.0813 33.6528 93.3001C34.0434 92.5189 33.6528 91.6205 32.8716 91.2689Z" fill="#009DDE"/>
<path d="M38.4957 93.2219C38.3395 93.1829 38.2223 93.1829 38.1051 93.1829C37.402 93.1829 36.7771 93.6516 36.5818 94.3547C36.3474 95.175 36.8552 96.0343 37.6755 96.2687C38.4957 96.503 39.3551 95.9953 39.5894 95.175C39.8238 94.3156 39.316 93.4563 38.4957 93.2219Z" fill="#009DDE"/>
<path d="M44.3542 94.3936C44.2761 94.3936 44.2371 94.3936 44.1589 94.3936C43.3777 94.3936 42.7137 94.9795 42.5965 95.7608C42.4793 96.6201 43.1043 97.4013 43.9636 97.5185C44.823 97.6357 45.6042 97.0107 45.7214 96.1514C45.7995 95.292 45.2136 94.5108 44.3542 94.3936Z" fill="#009DDE"/>
<path d="M50.33 94.7453C49.4706 94.7453 48.7675 95.4484 48.7675 96.3077C48.7675 97.1671 49.4706 97.8702 50.33 97.8702C51.1893 97.8702 51.8924 97.1671 51.8924 96.3077C51.8924 95.4484 51.1893 94.7453 50.33 94.7453Z" fill="#009DDE"/>
<path d="M71.3033 89.1986C71.0299 89.3549 70.8346 89.5502 70.7174 89.7845C70.444 90.2533 70.444 90.8392 70.7174 91.3079C71.1471 92.0501 72.0845 92.3235 72.8267 91.8938C73.5688 91.4641 73.8423 90.5267 73.4126 89.7845C72.9829 89.0424 72.0455 88.808 71.3033 89.1986Z" fill="#009DDE"/>
<path d="M76.3026 85.9566C76.1463 86.0738 75.9901 86.2301 75.8729 86.4254C75.5604 86.9722 75.5995 87.6363 75.9901 88.1441C76.4979 88.8472 77.4744 88.9643 78.1775 88.4565C78.8806 87.9487 78.9978 86.9722 78.49 86.2691C77.9822 85.566 76.9666 85.4489 76.3026 85.9566Z" fill="#009DDE"/>
<path d="M80.794 82.0506C80.6769 82.1677 80.5987 82.2459 80.5597 82.363C80.2081 82.949 80.2862 83.7302 80.794 84.238C81.419 84.8629 82.3955 84.8629 83.0205 84.238C83.6455 83.613 83.6455 82.6365 83.0205 82.0115C82.3955 81.4256 81.419 81.4256 80.794 82.0506Z" fill="#009DDE"/>
<path d="M87.2386 79.4726C87.7464 78.7695 87.6292 77.793 86.9261 77.2852C86.2231 76.7774 85.2465 76.8946 84.7387 77.5977C84.6997 77.6368 84.6606 77.7149 84.6216 77.7539C84.2309 78.418 84.3872 79.2773 85.0122 79.7851C85.7153 80.2929 86.6918 80.1366 87.2386 79.4726Z" fill="#009DDE"/>
<path d="M88.0196 72.559C87.5899 73.3011 87.8634 74.2776 88.6055 74.7073C89.3477 75.137 90.3242 74.8636 90.7539 74.1214C91.1835 73.3793 90.9101 72.4027 90.1679 72.0121C89.4258 71.5825 88.4493 71.8168 88.0196 72.559Z" fill="#009DDE"/>
<path d="M95.3233 50.0988C94.464 50.0988 93.7609 50.7629 93.7218 51.6222C93.7218 51.9347 93.7999 52.2081 93.9171 52.4425C94.1905 52.9112 94.6593 53.2237 95.2452 53.2237C96.1045 53.2237 96.8076 52.5597 96.8467 51.7003C96.8857 50.841 96.1826 50.0988 95.3233 50.0988Z" fill="#009DDE"/>
<path d="M94.7765 43.9273C93.9171 44.0445 93.3312 44.8257 93.4093 45.6851C93.4484 45.8804 93.4875 46.1147 93.6046 46.271C93.9171 46.8178 94.503 47.1303 95.1671 47.0522C96.0264 46.935 96.6123 46.1538 96.5342 45.2945C96.417 44.4351 95.6358 43.8492 94.7765 43.9273Z" fill="#009DDE"/>
<path d="M92.2768 39.8259C92.3158 39.9821 92.3549 40.0993 92.433 40.2165C92.7845 40.8024 93.4876 41.1149 94.1907 40.9587C95.011 40.7243 95.5188 39.865 95.2844 39.0447C95.0501 38.2244 94.1907 37.7166 93.3705 37.951C92.5502 38.1463 92.0815 39.0056 92.2768 39.8259Z" fill="#009DDE"/>
<path d="M90.363 34.1622C90.402 34.2403 90.402 34.2793 90.4411 34.3575C90.8317 35.0215 91.652 35.334 92.3941 35.0215C93.1753 34.6699 93.5659 33.7715 93.2144 32.9903C92.8629 32.2091 91.9645 31.8185 91.1832 32.131C90.402 32.4435 90.0114 33.3809 90.363 34.1622Z" fill="#009DDE"/>
<path d="M87.7071 28.8106C88.1368 29.5528 89.1133 29.8262 89.8555 29.3575C90.5976 28.9278 90.832 27.9513 90.4023 27.2091C89.9726 26.467 88.9961 26.2326 88.254 26.6623C87.5118 27.131 87.2775 28.0685 87.7071 28.8106Z" fill="#009DDE"/>
</svg>
