<svg width="66" height="75" viewBox="0 0 66 75" fill="none" xmlns="http://www.w3.org/2000/svg">
<path d="M50.7459 42.6001C49.6413 42.6001 48.7459 43.4955 48.7459 44.6001C48.7459 45.7047 49.6413 46.6001 50.7459 46.6001V42.6001ZM51.9952 44.6001L51.9957 42.6001H51.9952V44.6001ZM62.5575 53.9295L60.5729 54.1774L60.573 54.1778L62.5575 53.9295ZM63.9452 65.0197L65.9298 64.7718L65.9297 64.7714L63.9452 65.0197ZM56.9001 73.0001L56.9005 71.0001H56.9001V73.0001ZM9.09989 73.0001V71.0001H9.09945L9.09989 73.0001ZM2.05478 65.0197L4.03936 65.2676L4.03939 65.2674L2.05478 65.0197ZM3.43896 53.9295L1.45439 53.6816L1.45436 53.6818L3.43896 53.9295ZM14.0084 44.6001L14.0076 46.6001H14.0084V44.6001ZM15.2541 46.6001C16.3587 46.6001 17.2541 45.7047 17.2541 44.6001C17.2541 43.4955 16.3587 42.6001 15.2541 42.6001V46.6001ZM48.7459 19.75C48.7459 28.4489 41.6958 35.5 33 35.5V39.5C43.9058 39.5 52.7459 30.6572 52.7459 19.75H48.7459ZM33 35.5C24.3042 35.5 17.2542 28.4489 17.2542 19.75H13.2542C13.2542 30.6572 22.0942 39.5 33 39.5V35.5ZM17.2542 19.75C17.2542 11.0511 24.3042 4 33 4V0C22.0942 0 13.2542 8.84282 13.2542 19.75H17.2542ZM33 4C41.6958 4 48.7459 11.0511 48.7459 19.75H52.7459C52.7459 8.84282 43.9058 0 33 0V4ZM50.7459 46.6001H51.9952V42.6001H50.7459V46.6001ZM51.9946 46.6001C54.1018 46.6007 56.1363 47.3709 57.716 48.7661L60.364 45.7682C58.0537 43.7276 55.078 42.601 51.9957 42.6001L51.9946 46.6001ZM57.716 48.7661C59.2956 50.1614 60.3116 52.0856 60.5729 54.1774L64.5421 53.6816C64.1599 50.6228 62.6742 47.8087 60.364 45.7682L57.716 48.7661ZM60.573 54.1778L61.9607 65.268L65.9297 64.7714L64.542 53.6812L60.573 54.1778ZM61.9606 65.2676C62.0503 65.9854 61.9863 66.7139 61.773 67.405L65.595 68.585C65.9756 67.352 66.0898 66.0522 65.9298 64.7718L61.9606 65.2676ZM61.773 67.405C61.5596 68.0961 61.2018 68.7338 60.7232 69.2759L63.7219 71.9232C64.5759 70.9558 65.2143 69.8179 65.595 68.585L61.773 67.405ZM60.7232 69.2759C60.2446 69.8181 59.6563 70.2521 58.9972 70.5494L60.6418 74.1957C61.818 73.6652 62.8679 72.8905 63.7219 71.9232L60.7232 69.2759ZM58.9972 70.5494C58.3382 70.8466 57.6235 71.0003 56.9005 71.0001L56.8997 75.0001C58.19 75.0004 59.4656 74.7262 60.6418 74.1957L58.9972 70.5494ZM56.9001 71.0001H9.09989V75.0001H56.9001V71.0001ZM9.09945 71.0001C8.37653 71.0003 7.66183 70.8466 7.00278 70.5494L5.35822 74.1957C6.53444 74.7262 7.81003 75.0004 9.10032 75.0001L9.09945 71.0001ZM7.00278 70.5494C6.34373 70.2521 5.75538 69.8181 5.27681 69.2759L2.27812 71.9232C3.13209 72.8905 4.18201 73.6652 5.35822 74.1957L7.00278 70.5494ZM5.27681 69.2759C4.79823 68.7338 4.44037 68.0961 4.22702 67.405L0.405019 68.585C0.785672 69.8179 1.42416 70.9559 2.27812 71.9232L5.27681 69.2759ZM4.22702 67.405C4.01366 66.7139 3.94969 65.9854 4.03936 65.2676L0.0702124 64.7718C-0.0897593 66.0522 0.0243665 67.352 0.405019 68.585L4.22702 67.405ZM4.03939 65.2674L5.42356 54.1772L1.45436 53.6818L0.070182 64.772L4.03939 65.2674ZM5.42353 54.1774C5.68499 52.0847 6.70181 50.1596 8.28266 48.7642L5.63562 45.7654C3.32362 47.8061 1.83672 50.6213 1.45439 53.6816L5.42353 54.1774ZM8.28266 48.7642C9.86349 47.3689 11.8994 46.5993 14.0076 46.6001L14.0092 42.6001C10.9255 42.5989 7.94764 43.7246 5.63562 45.7654L8.28266 48.7642ZM14.0084 46.6001H15.2541V42.6001H14.0084V46.6001Z" fill="#009DDE"/>
</svg>
