<svg width="57" height="60" viewBox="0 0 57 60" fill="none" xmlns="http://www.w3.org/2000/svg">
<path fill-rule="evenodd" clip-rule="evenodd" d="M10.5285 3.12998C20.3812 -4.20627 34.3197 2.15163 35.4183 13.9237L40.6555 13.8449C41.2494 13.836 41.792 14.1762 42.0374 14.7112C42.2828 15.2462 42.1842 15.8741 41.7863 16.3103L29.3948 29.894C29.1193 30.196 28.7299 30.3722 28.3187 30.3809C27.9075 30.3897 27.5109 30.2301 27.2225 29.9401L14.0184 16.6578C13.599 16.2359 13.4748 15.6072 13.7026 15.0602C13.9304 14.5131 14.4664 14.1535 15.0645 14.1463L20.2659 14.0837C20.0306 8.73997 14.3014 5.29539 9.35521 7.66759C8.66396 7.99911 7.83121 7.75748 7.43055 7.10911C7.02989 6.46075 7.19218 5.61745 7.80565 5.16006L10.5285 3.12998ZM32.5024 15.4217C32.5024 6.05836 22.6337 0.373569 14.5981 4.12654C19.332 5.00727 23.2421 9.06642 23.2585 14.3924L23.2585 14.3969L23.2585 15.5422C23.2585 16.3506 22.6012 17.0087 21.7841 17.0185L18.6017 17.0568L28.24 26.7522L37.2741 16.849L34.0176 16.8979C33.6179 16.9039 33.2324 16.751 32.9476 16.4735C32.6627 16.1961 32.5024 15.8171 32.5024 15.4217Z" fill="#3B4DF8"/>
<path fill-rule="evenodd" clip-rule="evenodd" d="M38.2995 21.9332C38.6355 21.1885 39.5181 20.8543 40.2708 21.1867L49.92 25.4466C50.1413 25.5443 50.3353 25.6939 50.4851 25.8824L56.6808 33.679C56.967 34.0391 57.068 34.5103 56.9542 34.9543C56.8404 35.3983 56.5247 35.7649 56.0996 35.9467L35.2777 44.8484C34.655 45.1146 33.9291 44.9319 33.5107 44.4037L29.9011 39.8466V56.329L47.7378 49.151V41.8253C47.7378 41.0099 48.4061 40.3489 49.2304 40.3489C50.0547 40.3489 50.723 41.0099 50.723 41.8253V50.1443C50.723 50.7449 50.3552 51.2856 49.7929 51.5119L28.971 59.8912C28.6104 60.0363 28.2068 60.0363 27.8461 59.8912L7.02432 51.5119C6.46195 51.2856 6.09421 50.7449 6.09421 50.1443V41.8253C6.09421 41.0099 6.76245 40.3489 7.58678 40.3489C8.4111 40.3489 9.07934 41.0099 9.07934 41.8253V49.151L26.916 56.329V40.1328L23.4835 44.411C23.0639 44.9339 22.3418 45.1133 21.7223 44.8484L0.900439 35.9467C0.47535 35.765 0.159617 35.3983 0.0457979 34.9543C-0.0680214 34.5103 0.0329669 34.0391 0.319158 33.679L6.51492 25.8825C6.66398 25.6949 6.85677 25.5458 7.07678 25.4481L15.6696 21.6302C16.4215 21.2961 17.3049 21.6282 17.6427 22.372C17.9804 23.1159 17.6447 23.9897 16.8927 24.3238L11.4125 26.7587L28.5102 34.0876L45.5907 26.7689L39.0542 23.8831C38.3015 23.5508 37.9636 22.6778 38.2995 21.9332ZM48.8425 28.5936L53.1363 33.9967L35.1504 41.686L30.8773 36.2913L48.8425 28.5936ZM3.8637 33.9967L8.16456 28.5846L26.176 36.3052L21.8564 41.689L3.8637 33.9967Z" fill="#3B4DF8"/>
</svg>
