<svg width="46" height="60" viewBox="0 0 46 60" fill="none" xmlns="http://www.w3.org/2000/svg">
<path fill-rule="evenodd" clip-rule="evenodd" d="M35.0211 14.3088L34.6593 8.39076C34.5156 5.7223 32.828 3.41653 30.3996 2.45163L30.3982 2.45108L25.4563 0.47771L25.4495 0.475011C23.8458 -0.157094 22.0694 -0.160484 20.473 0.477725L15.5282 2.45221L15.5184 2.45621C13.0928 3.44287 11.4342 5.74577 11.2706 8.38285L10.9044 14.3729C10.3602 15.5828 10.4083 17.0258 11.1385 18.232L11.1391 18.233L12.6744 20.7749C12.9207 21.1826 13.3284 21.4647 13.7946 21.5499C14.2609 21.635 14.741 21.5152 15.1137 21.2205C19.8464 17.4795 26.5068 17.4795 31.2394 21.2205C31.6345 21.5328 32.1488 21.6478 32.6379 21.5333C32.8679 21.4795 33.0807 21.3776 33.2642 21.2375C33.2351 21.3953 33.2282 21.5601 33.2467 21.728L33.2644 21.8881C33.2677 21.9182 33.2718 21.9482 33.2768 21.9782C33.3551 22.4515 32.9901 22.8981 32.4923 22.8981C31.5769 22.8981 30.8348 23.6455 30.8348 24.5676C30.8348 24.6507 30.8408 24.7324 30.8525 24.8123V24.8345C30.8525 27.2417 29.4635 29.4252 27.2953 30.4336L27.2944 30.434L24.4158 31.7681C23.4762 32.205 22.3978 32.2011 21.4857 31.7716L18.5997 30.434L18.5989 30.4337C16.4306 29.4253 15.0416 27.2418 15.0416 24.8345V24.5677C15.0416 24.4237 15.0235 24.2838 14.9894 24.1505C14.8055 23.4302 14.1565 22.8981 13.3841 22.8981C12.8863 22.8981 12.5213 22.4515 12.5996 21.9782C12.6045 21.9482 12.6087 21.9182 12.612 21.8881L12.6297 21.728C12.7308 20.8115 12.0751 19.986 11.1653 19.8842C10.2555 19.7824 9.43597 20.4428 9.33488 21.3592L9.32159 21.4797C9.02563 23.4118 10.1111 25.2042 11.7874 25.9149C12.1582 29.1889 14.1968 32.0648 17.2105 33.4658L20.0866 34.7988C21.8927 35.6476 23.9905 35.6431 25.804 34.8004L25.805 34.8L28.6836 33.4658C31.6997 32.0637 33.7392 29.1842 34.1075 25.9069C35.7732 25.191 36.8497 23.4046 36.5548 21.4797L36.5415 21.3592C36.4404 20.4428 35.6209 19.7824 34.711 19.8842C34.4449 19.914 34.2005 20.0057 33.9904 20.1435C34.0443 20.0317 34.1056 19.9046 34.1724 19.7664C34.4186 19.2572 34.738 18.6005 35.0345 18.0033C35.0414 17.9894 35.0481 17.9753 35.0546 17.9612C35.6018 16.7773 35.572 15.4317 35.0211 14.3088ZM24.2383 3.58333C23.4061 3.25622 22.4997 3.25989 21.6956 3.58152L16.7553 5.55421C15.5101 6.0627 14.663 7.24481 14.5792 8.59045L14.4219 11.1634C19.6911 8.03017 26.2593 8.04303 31.5082 11.1761L31.3501 8.58962L31.3493 8.57552C31.2782 7.22757 30.4243 6.05069 29.1824 5.55754L24.2415 3.58457L24.2383 3.58333ZM14.1625 15.4469L14.3968 15.2446C19.4609 11.0568 26.7816 11.1399 31.7465 15.4446L31.7492 15.4469L31.8658 15.5475C32.1178 15.7721 32.2195 16.1659 32.0564 16.536C31.9103 16.8306 31.7597 17.1374 31.6153 17.4331C26.3822 14.26 19.7983 14.2901 14.5908 17.5233L13.9701 16.4956L13.969 16.4937C13.7649 16.1569 13.8352 15.7209 14.1426 15.4638L14.1625 15.4469Z" fill="#3B4DF8"/>
<path d="M32.1297 37.0627C31.8394 36.9694 31.5214 37.0297 31.2796 37.2284L31.2764 37.2309C26.4469 41.1796 19.5354 41.1796 14.7059 37.2309L14.7027 37.2284C14.4819 37.0469 14.1595 36.9729 13.8275 37.0706L6.49053 39.3445C5.16817 39.7567 4.20566 40.9077 4.02515 42.2895L3.30103 47.8221C3.18138 48.7363 2.34865 49.3797 1.44108 49.2591C0.5335 49.1386 -0.105241 48.2998 0.0144073 47.3857L0.738419 41.8539C1.08781 39.1805 2.95044 36.9517 5.51264 36.154L12.8613 33.8764L12.8755 33.8721C14.201 33.4744 15.6768 33.7203 16.7967 34.6397C20.4081 37.5912 25.5742 37.5912 29.1857 34.6397C30.2837 33.7382 31.7627 33.4426 33.1296 33.8791L40.4874 36.1718C43.0496 36.9695 44.9121 39.1978 45.2615 41.8713L45.9856 47.4035C46.1052 48.3176 45.4665 49.1564 44.5589 49.2769C43.6513 49.3974 42.8186 48.7541 42.699 47.8399L41.9749 42.3077C41.7944 40.9255 40.8313 39.7739 39.5084 39.362L32.1438 37.0672L32.1297 37.0627Z" fill="#3B4DF8"/>
<path fill-rule="evenodd" clip-rule="evenodd" d="M26.1108 41.8608H21.196C21.1787 41.8605 21.1615 41.8605 21.1443 41.8608H12.4481C11.8098 41.8608 11.2282 42.2299 10.9528 42.8099L7.24417 50.619C7.13735 50.8439 7.0819 51.0901 7.0819 51.3395V55.9645C7.0819 56.8866 7.824 57.634 8.73943 57.634C9.65486 57.634 10.397 56.8866 10.397 55.9645V53.0091H18.2608V58.3304C18.2608 58.8958 18.5449 59.4229 19.0157 59.7308C19.4865 60.0386 20.0801 60.0856 20.5928 59.8555L23.6446 58.4861L26.6964 59.8555C27.2091 60.0856 27.8027 60.0386 28.2735 59.7308C28.7443 59.4229 29.0284 58.8958 29.0284 58.3304V53.0091H36.9099V55.9645C36.9099 56.8866 37.652 57.634 38.5674 57.634C39.4828 57.634 40.2249 56.8866 40.2249 55.9645V51.3396V50.7169C40.2249 50.4488 40.1609 50.1847 40.0381 49.9469L36.3295 42.7603C36.0443 42.2076 35.4772 41.8608 34.8588 41.8608H26.1626C26.1454 41.8605 26.1281 41.8605 26.1108 41.8608ZM24.7205 45.1999H22.5832L21.8654 49.67H25.4281L24.7205 45.1999ZM28.7851 49.67H36.1591L33.8523 45.1999H28.0774L28.7851 49.67ZM11.3697 49.67H18.5073L19.225 45.1999H13.4926L11.3697 49.67ZM21.5758 53.0091V55.7589L22.9701 55.1332C23.3994 54.9406 23.8898 54.9406 24.3191 55.1332L25.7134 55.7589V53.0091H21.5758Z" fill="#3B4DF8"/>
</svg>
