<svg width="75" height="60" viewBox="0 0 75 60" fill="none" xmlns="http://www.w3.org/2000/svg">
<path fill-rule="evenodd" clip-rule="evenodd" d="M14.5078 0C13.586 0 12.8386 0.756626 12.8386 1.68997V15.5985C12.8386 16.5318 13.586 17.2884 14.5078 17.2884C15.4297 17.2884 16.1771 16.5318 16.1771 15.5985V3.37994H29.1991V14.3846C29.1991 14.9886 29.5175 15.5467 30.0343 15.8485C30.5511 16.1503 31.1877 16.1499 31.7041 15.8475L38.0356 12.1399L44.3427 15.8462C44.8591 16.1497 45.4962 16.1508 46.0136 15.8492C46.531 15.5475 46.8499 14.9891 46.8499 14.3846V3.37994H59.8969V48.3004H36.8131C35.8912 48.3004 35.1438 49.057 35.1438 49.9903C35.1438 50.9237 35.8912 51.6803 36.8131 51.6803H73.3308C74.2527 51.6803 75 50.9237 75 49.9903V1.68997C75 0.756626 74.2527 0 73.3308 0H14.5078ZM32.5376 3.37994V11.4549L37.2013 8.7239C37.7191 8.42067 38.3576 8.42116 38.875 8.72518L43.5114 11.4497V3.37994H32.5376ZM71.6615 48.3004H63.2354V3.37994H71.6615V48.3004Z" fill="#3B4DF8"/>
<path d="M45.2849 42.8339C45.2849 41.9006 46.0322 41.144 46.9541 41.144H48.1281C49.05 41.144 49.7973 41.9006 49.7973 42.8339C49.7973 43.7673 49.05 44.5239 48.1281 44.5239H46.9541C46.0322 44.5239 45.2849 43.7673 45.2849 42.8339Z" fill="#3B4DF8"/>
<path d="M51.8291 42.8339C51.8291 41.9006 52.5764 41.144 53.4983 41.144H54.6473C55.5692 41.144 56.3165 41.9006 56.3165 42.8339C56.3165 43.7673 55.5692 44.5239 54.6473 44.5239H53.4983C52.5764 44.5239 51.8291 43.7673 51.8291 42.8339Z" fill="#3B4DF8"/>
<path d="M19.1994 33.4772C19.1994 32.5438 18.4521 31.7872 17.5302 31.7872C16.6083 31.7872 15.8609 32.5438 15.8609 33.4772V42.7579C15.8609 43.6913 16.6083 44.4479 17.5302 44.4479C18.4521 44.4479 19.1994 43.6913 19.1994 42.7579V33.4772Z" fill="#3B4DF8"/>
<path fill-rule="evenodd" clip-rule="evenodd" d="M4.37978 31.8009C1.9555 34.7798 0.499553 38.5967 0.499553 42.7578C0.499553 52.2804 8.12442 60 17.5302 60C26.9359 60 34.5608 52.2804 34.5608 42.7578C34.5608 38.5987 33.1063 34.7835 30.6841 31.8052L32.0163 30.4564L32.2411 30.6819C32.8959 31.3389 33.9528 31.3341 34.6017 30.6712C35.2507 30.0083 35.2459 28.9383 34.5911 28.2813L33.3091 26.9949C33.2744 26.952 33.2372 26.9105 33.1977 26.8705C33.1545 26.8267 33.1095 26.7859 33.063 26.748L31.7936 25.4743C31.1388 24.8173 30.0819 24.8221 29.433 25.485C28.784 26.1479 28.7888 27.2179 29.4436 27.8749L29.6451 28.0772L28.321 29.4177C25.7873 27.3145 22.6436 25.9366 19.1994 25.5974V22.9277H20.9272C21.8491 22.9277 22.5964 22.171 22.5964 21.2377C22.5964 20.3043 21.8491 19.5477 20.9272 19.5477H14.1082C13.1863 19.5477 12.439 20.3043 12.439 21.2377C12.439 22.171 13.1863 22.9277 14.1082 22.9277H15.8609V25.5974C12.4187 25.9364 9.27661 27.3129 6.74364 29.4142L5.42461 28.0695L5.62211 27.8696C6.27398 27.2096 6.27398 26.1396 5.62211 25.4796C4.97023 24.8196 3.91333 24.8196 3.26145 25.4796L1.89174 26.8664L1.8862 26.8719L0.488908 28.2866C-0.162969 28.9466 -0.162969 30.0166 0.488908 30.6766C1.14078 31.3366 2.19769 31.3366 2.84956 30.6766L3.06394 30.4595L4.37978 31.8009ZM7.71995 33.0875C5.31773 35.585 3.83802 38.9964 3.83802 42.7578C3.83802 50.4137 9.96821 56.6201 17.5302 56.6201C25.0921 56.6201 31.2223 50.4137 31.2223 42.7578C31.2223 38.9964 29.7426 35.5849 27.3404 33.0875C27.2884 33.046 27.2382 33.0011 27.1903 32.9525C27.1432 32.9049 27.0996 32.8552 27.0593 32.8036C24.5945 30.3846 21.2341 28.8956 17.5302 28.8956C13.8263 28.8956 10.4659 30.3845 8.00113 32.8035C7.9597 32.8566 7.91467 32.9077 7.86605 32.9566C7.81931 33.0036 7.77051 33.0472 7.71995 33.0875Z" fill="#3B4DF8"/>
</svg>
