<svg width="70" height="71" viewBox="0 0 70 71" fill="none" xmlns="http://www.w3.org/2000/svg">
<path fill-rule="evenodd" clip-rule="evenodd" d="M8.34943 0C7.36206 0 6.4785 0.613145 6.13299 1.5381L0.86605 15.638C-1.22487 21.2329 0.633795 27.1579 4.68564 30.6478C4.61152 30.8773 4.57147 31.1219 4.57147 31.3753V67.637C4.57147 68.9437 5.63077 70.003 6.9375 70.003H63.0636C64.3704 70.003 65.4297 68.9437 65.4297 67.637V31.3753C65.4297 31.1208 65.3893 30.8751 65.3145 30.6448C69.3664 27.153 71.2253 21.2264 69.1334 15.629L63.8663 1.53763C63.5206 0.612926 62.6372 0 61.65 0H8.34943ZM5.29868 17.2946L9.99133 4.73207H60.0085L64.7008 17.2856C66.8418 23.0148 62.6768 29.0093 56.9722 29.0093C52.5286 29.0093 48.7795 25.2618 48.7795 20.4969C48.7795 19.1901 47.7202 18.1308 46.4135 18.1308C45.1068 18.1308 44.0475 19.1901 44.0475 20.4969C44.0475 22.7793 43.1696 24.9532 41.6306 26.544C40.0943 28.1322 38.0276 29.0093 35.8898 29.0093H34.1043C31.9665 29.0093 29.8998 28.1322 28.3635 26.544C26.8246 24.9532 25.9467 22.7793 25.9467 20.4969C25.9467 19.1901 24.8874 18.1308 23.5807 18.1308C22.2739 18.1308 21.2146 19.1901 21.2146 20.4969C21.2146 25.2623 17.4668 29.0093 13.0237 29.0093C7.32052 29.0093 3.15949 23.018 5.29868 17.2946ZM45.0317 29.8342C45.5434 29.3053 46.0068 28.737 46.4194 28.1366C48.752 31.513 52.5962 33.7414 56.9722 33.7414C58.2782 33.7414 59.5267 33.5493 60.6976 33.194V65.271H9.30353V33.1955C10.4729 33.5498 11.7196 33.7414 13.0237 33.7414C17.3997 33.7414 21.243 31.5131 23.575 28.137C23.9875 28.7373 24.4509 29.3054 24.9624 29.8342C27.3732 32.3262 30.6599 33.7414 34.1043 33.7414H35.8898C39.3342 33.7414 42.621 32.3262 45.0317 29.8342Z" fill="#01B3A2"/>
<path fill-rule="evenodd" clip-rule="evenodd" d="M16 39C16 37.8954 16.8954 37 18 37H30C31.1046 37 32 37.8954 32 39V60C32 61.1046 31.1046 62 30 62H18C16.8954 62 16 61.1046 16 60V39ZM20 41V58H28V41H20Z" fill="#01B3A2"/>
<path fill-rule="evenodd" clip-rule="evenodd" d="M38 42C38 40.8954 38.8954 40 40 40H52C53.1046 40 54 40.8954 54 42V52C54 53.1046 53.1046 54 52 54H40C38.8954 54 38 53.1046 38 52V42ZM42 44V50H50V44H42Z" fill="#01B3A2"/>
</svg>
