<svg width="14" height="14" viewBox="0 0 14 14" fill="none" xmlns="http://www.w3.org/2000/svg">
<path d="M10.1364 0.000976562H3.86341C1.73313 0.000976562 0 1.73419 0 3.86447V10.1375C0 12.2678 1.73313 14.001 3.86341 14.001H10.1364C12.2669 14.001 14 12.2678 14 10.1375V3.86447C14.0001 1.73419 12.2669 0.000976562 10.1364 0.000976562ZM12.7579 10.1375C12.7579 11.5829 11.582 12.7588 10.1365 12.7588H3.86341C2.41805 12.7589 1.24215 11.5829 1.24215 10.1375V3.86447C1.24215 2.41911 2.41805 1.24312 3.86341 1.24312H10.1364C11.5819 1.24312 12.7579 2.41911 12.7579 3.86447L12.7579 10.1375Z" fill="white"/>
<path d="M7 3.39361C5.01083 3.39361 3.39256 5.01188 3.39256 7.00105C3.39256 8.99014 5.01083 10.6083 7 10.6083C8.98918 10.6083 10.6074 8.99014 10.6074 7.00105C10.6074 5.01188 8.98918 3.39361 7 3.39361ZM7 9.3661C5.69583 9.3661 4.63471 8.30514 4.63471 7.00097C4.63471 5.69671 5.69575 4.63567 7 4.63567C8.30426 4.63567 9.3653 5.69671 9.3653 7.00097C9.3653 8.30514 8.30418 9.3661 7 9.3661Z" fill="white"/>
<path d="M10.7587 2.34053C10.5194 2.34053 10.2843 2.43741 10.1153 2.60717C9.94547 2.77611 9.84784 3.01129 9.84784 3.25143C9.84784 3.49084 9.94556 3.72593 10.1153 3.8957C10.2842 4.06463 10.5194 4.16234 10.7587 4.16234C10.9989 4.16234 11.2332 4.06463 11.403 3.8957C11.5728 3.72593 11.6697 3.49076 11.6697 3.25143C11.6697 3.01129 11.5728 2.77611 11.403 2.60717C11.2341 2.43741 10.9989 2.34053 10.7587 2.34053Z" fill="white"/>
</svg>
