<svg width="36" height="26" viewBox="0 0 36 26" fill="none" xmlns="http://www.w3.org/2000/svg">
<path d="M36 19.0144C36 22.5148 34.1027 25.3525 30.375 25.3525H5.625C1.89731 25.3525 0 22.5148 0 19.0144V6.33813C0 2.83776 1.89731 0 5.625 0H30.375C34.1027 0 36 2.83776 36 6.33813V19.0144Z" fill="#EC1C24"/>
<path fill-rule="evenodd" clip-rule="evenodd" d="M19.2263 5.21482C19.2466 5.20272 19.2651 5.18716 19.3191 5.14683C19.1915 5.14049 19.1071 5.13127 19.0233 5.13242C17.5208 5.14913 16.3345 5.78179 15.5009 7.06786C14.4023 8.76187 14.6706 10.8972 16.1433 12.1983C16.4015 12.4265 16.694 12.6097 16.9701 12.8137L17.009 12.7687C16.4661 12.253 16.1731 11.6106 16.0938 10.8679C16.0139 10.1309 16.1562 9.43832 16.5736 8.8143C16.5938 8.85925 16.5983 8.90649 16.5798 8.93818C16.355 9.33169 16.2198 9.77209 16.1843 10.2266C16.118 11.1669 16.3806 11.9868 17.0466 12.6564C17.0765 12.6858 17.113 12.7071 17.1524 12.7365C17.1586 12.7134 17.162 12.7059 17.1597 12.7036C17.1371 12.6624 17.1132 12.6218 17.0883 12.582C16.8795 12.249 16.8034 11.8467 16.8756 11.4579C16.9859 10.8298 17.3577 10.4058 17.8938 10.1038C18.0901 9.99435 18.283 9.86182 18.4377 9.69876C18.9805 9.12602 19.2747 7.98458 18.7431 7.15659C18.2723 6.42483 18.5007 5.68903 19.2263 5.21482ZM17.6755 8.60399L17.6373 8.60054L17.2857 8.60918L17.009 9.04305L16.964 8.91168C16.96 8.90883 16.9561 8.90595 16.9521 8.90304C16.9523 8.8924 16.9513 8.88178 16.9493 8.87135L16.8419 8.55386L16.3536 8.41788L16.7564 8.10155L16.7316 7.58413L17.1485 7.88029L17.621 7.69706L17.4758 8.19317L17.7931 8.59535L17.6716 8.60054C17.6738 8.60169 17.6738 8.60284 17.6755 8.60399Z" fill="white"/>
<path fill-rule="evenodd" clip-rule="evenodd" d="M25.2428 11.9801C24.5712 10.0095 22.661 8.84559 20.6506 9.17863C19.1268 9.42985 17.954 10.5932 17.5917 12.2152C17.5692 12.3166 17.554 12.418 17.5332 12.5194C18.2875 10.8957 20.1201 10.4964 21.1068 10.879C21.0702 10.887 21.0308 10.9038 20.9965 10.8963C20.5915 10.8133 20.1871 10.8 19.7832 10.8876C18.8545 11.0881 18.1407 11.5923 17.6986 12.4698C17.6676 12.5303 17.648 12.5955 17.6204 12.6588C17.8291 12.4065 18.0597 12.1996 18.3522 12.0723C19.0098 11.7888 19.8046 11.9576 20.326 12.562C20.9223 13.2558 22.5749 13.4453 23.2589 12.4981C23.3078 12.4318 23.3708 12.3742 23.4327 12.3177C23.9952 11.809 24.6651 11.802 25.24 12.2987C25.2715 12.3229 25.3019 12.3437 25.3694 12.3955C25.3193 12.2284 25.2856 12.1034 25.2428 11.9801ZM21.9606 11.5214L21.6816 11.9559L21.6434 11.8441C21.6424 11.8453 21.6417 11.8467 21.6411 11.8481C21.635 11.8326 21.6327 11.8164 21.6293 11.8003L21.514 11.4667L21.0269 11.3301L21.4285 11.0155L21.4038 10.4987L21.82 10.7931L22.2931 10.6093L22.148 11.1071L22.4658 11.5093L21.9606 11.5214Z" fill="white"/>
<path fill-rule="evenodd" clip-rule="evenodd" d="M21.9432 14.7775C21.2648 13.6009 20.2388 12.9878 18.9169 12.8916C18.612 12.8703 18.3015 12.9019 17.9927 12.9071L17.9916 12.955C18.031 12.9647 18.0681 12.9757 18.108 12.9843C18.153 12.993 18.2008 12.9941 18.2447 13.0051C19.309 13.2661 20.0295 13.9356 20.4362 14.9618C20.5408 15.2257 20.5735 15.5202 20.6342 15.8025C20.6404 15.8296 20.6055 15.863 20.592 15.8947C20.5752 15.8665 20.5566 15.8411 20.5431 15.8135C20.5358 15.8002 20.542 15.7812 20.5397 15.7656C20.3592 14.5573 19.7376 13.6925 18.6227 13.2309C18.3949 13.1347 18.1423 13.1002 17.8999 13.0373C17.9022 13.0489 17.9033 13.0592 17.9044 13.069C18.1063 13.2016 18.3308 13.3064 18.5063 13.4666C19.0755 13.9881 19.206 14.8633 18.8151 15.6199C18.5513 16.1309 18.5293 16.6461 18.6728 17.1842C18.8382 17.7961 19.1633 18.2692 19.7652 18.5089C19.8968 18.5613 20.0256 18.6408 20.1381 18.7296C20.5431 19.043 20.7422 19.4579 20.6573 19.9845C20.6297 20.1539 20.5707 20.3164 20.5228 20.5008C20.5752 20.4691 20.6168 20.4449 20.6584 20.4167C22.4646 19.1986 23.0428 16.6858 21.9432 14.7775ZM20.6832 17.0177L20.3867 17.4383L20.2416 16.9422L19.7595 16.7826L20.1752 16.487L20.1741 15.969L20.5763 16.283L21.0583 16.1223L20.8913 16.6121L21.1888 17.0304L20.6832 17.0177Z" fill="white"/>
<path fill-rule="evenodd" clip-rule="evenodd" d="M17.7373 13.5323C17.73 13.5168 17.7148 13.5053 17.6923 13.4799C18.013 15.2765 16.8064 16.6375 15.7956 16.9895C15.7838 16.9751 15.772 16.9613 15.7601 16.9457C15.7995 16.9163 15.8378 16.8806 15.8805 16.8581C16.9611 16.3033 17.5596 15.4142 17.649 14.1737C17.6684 13.923 17.6338 13.671 17.5478 13.4355C17.5292 13.5375 17.5253 13.6378 17.5123 13.7357C17.3785 14.698 16.4605 15.2972 15.5408 15.1417C14.9473 15.0414 14.427 15.1659 13.9421 15.5064C13.5686 15.772 13.2716 16.1039 13.1518 16.5654C13.108 16.7429 13.0995 16.9302 13.0708 17.1122C12.9696 17.7685 12.5505 18.207 11.9346 18.2923C11.7895 18.3119 11.6404 18.2952 11.4913 18.2952C11.4964 18.3176 11.4953 18.3315 11.5015 18.3372C11.5369 18.3683 11.5701 18.3995 11.6078 18.4271C12.2423 18.9163 12.9465 19.2401 13.7458 19.3024C15.3467 19.4262 16.6478 18.8339 17.5551 17.4787C18.396 16.222 18.3471 14.8801 17.7379 13.5323H17.7373ZM15.2297 17.458L14.9344 17.878L14.7893 17.3831L14.3072 17.224L14.724 16.9284L14.7201 16.4099L15.1245 16.7239L15.6049 16.5626L15.4373 17.0529L15.7354 17.4706L15.2297 17.458Z" fill="white"/>
<path fill-rule="evenodd" clip-rule="evenodd" d="M17.0916 13.3969C16.4458 13.7668 15.759 13.8549 15.0441 13.7057C14.3303 13.557 13.7363 13.1981 13.2801 12.6046C13.3025 12.6022 13.3251 12.6045 13.3467 12.6112C13.3682 12.6179 13.3882 12.629 13.4055 12.6438C13.5591 12.7832 13.6986 12.944 13.8668 13.0638C14.8275 13.7414 15.8457 13.8751 16.9217 13.3698C16.983 13.3392 17.0404 13.2978 17.1163 13.2505C16.8801 13.2741 16.6686 13.3237 16.4644 13.3081C15.7714 13.2505 15.3 12.8581 15.0323 12.2157C14.9423 11.9956 14.9052 11.7507 14.8602 11.5139C14.715 10.732 13.6024 9.65506 12.4768 9.97139C11.641 10.2059 10.9255 9.76742 10.7539 8.89852C10.7505 8.87778 10.7303 8.86107 10.7134 8.83398C10.6993 8.86107 10.6909 8.87432 10.6836 8.88815C10.6718 8.91753 10.6628 8.94692 10.6515 8.97688C10.2358 10.2053 10.3073 11.3975 10.9401 12.5332C12.01 14.453 14.413 15.3594 16.4458 13.9702C16.681 13.8094 16.8947 13.6164 17.118 13.4401C17.11 13.4252 17.1012 13.4108 17.0916 13.3969ZM12.8211 12.7239L12.676 12.2289L12.1939 12.0699L12.6107 11.7743L12.6085 11.2557L13.0123 11.5698L13.4927 11.4096L13.3251 11.8988L13.6232 12.3177L13.1175 12.3056L12.8211 12.7239Z" fill="white"/>
</svg>
