<svg width="44" height="30" viewBox="0 0 44 30" fill="none" xmlns="http://www.w3.org/2000/svg"><path d="M17.875 4.60893V6.91347H43.9759C43.9395 6.17029 43.8611 5.23075 43.5806 4.60893" fill="#EC1C24"/><path d="M42.35 2.30447H17.875V4.60902H43.5806C43.3015 3.74925 42.8862 2.96516 42.35 2.30447Z" fill="#E6E7E8"/><path d="M37.125 0H17.875V2.30454H42.35C41.2026 0.879544 39.314 0 37.125 0Z" fill="#EC1C24"/><path d="M43.9759 6.9137H17.875V9.21824H44V7.68211C44 7.54506 43.9911 7.41142 43.9869 7.27711C43.9842 7.24029 43.9801 7.14551 43.9759 6.9137Z" fill="#E6E7E8"/><path d="M17.875 11.5227H44V9.21817H17.875V11.5227Z" fill="#EC1C24"/><path d="M17.875 13.8272H44V11.5226H17.875V13.8272Z" fill="#E6E7E8"/><path d="M17.875 13.8271H44V16.1317H17.875V13.8271Z" fill="#EC1C24"/><path d="M0 16.1319V18.4365H44V16.1319H17.875H0Z" fill="#E6E7E8"/><path d="M0 18.4363H44V20.7409H0V18.4363Z" fill="#EC1C24"/><path d="M0.0034375 22.1583C0.0034375 22.1583 -0.00275 22.7167 0.01375 23.0453H43.9862C44.0055 22.7085 43.9966 22.1583 43.9966 22.1583L44 20.7408H0L0.0034375 22.1583Z" fill="#E6E7E8"/><path d="M6.87505 30H37.1251C39.3202 30 41.1449 29.2091 42.3913 27.6546H1.60193C2.88893 29.2432 4.74793 30 6.87162 30" fill="#EC1C24"/><path d="M1.60527 27.6547H42.3946C42.9384 26.9695 43.3445 26.1871 43.5909 25.3501H0.415894C0.666898 26.1846 1.0713 26.966 1.60871 27.6547" fill="#E6E7E8"/><path d="M0.412544 25.3498H43.5875C43.8127 24.6002 43.9465 23.8265 43.9863 23.0453H0.0137939C0.0818564 23.8335 0.145106 24.4287 0.412544 25.3498Z" fill="#EC1C24"/><path d="M17.875 0H6.875C2.31894 0 0 3.35795 0 7.49999V16.1318H17.875V0Z" fill="#176496"/><path d="M1.92593 4.0744L2.29993 3.7894L2.67324 4.0744L2.52818 3.61622L2.90011 3.33599H2.44086L2.29855 2.87576L2.15693 3.33599H1.69836L2.07168 3.61622L1.92593 4.0744Z" fill="white"/><path d="M4.39451 4.0744L4.76851 3.7894L5.14182 4.0744L4.99745 3.61622L5.3687 3.33599H4.91013L4.76782 2.87576L4.6262 3.33599H4.16626L4.53957 3.61622L4.39451 4.0744Z" fill="white"/><path d="M7.12044 4.0744L7.49376 3.7894L7.86776 4.0744L7.72269 3.61622L8.09394 3.33599H7.63813L7.49376 2.87576L7.35144 3.33599H6.89563L7.26482 3.61622L7.12044 4.0744Z" fill="white"/><path d="M9.82644 4.0744L10.1998 3.7894L10.5738 4.0744L10.4294 3.61622L10.8006 3.33599H10.34L10.1998 2.87576L10.0581 3.33599H9.59888L9.9715 3.61622L9.82644 4.0744Z" fill="white"/><path d="M12.5421 4.0744L12.9161 3.7894L13.2894 4.0744L13.145 3.61622L13.5169 3.33599H13.057L12.9154 2.87576L12.7737 3.33599H12.3152L12.6864 3.61622L12.5421 4.0744Z" fill="white"/><path d="M3.23892 5.27099L3.61223 4.98667L3.98554 5.27099L3.84185 4.81349L4.2131 4.53326H3.75385L3.61154 4.07372L3.47198 4.53326H3.01135L3.38329 4.81349L3.23892 5.27099Z" fill="white"/><path d="M5.71047 5.27099L6.08379 4.98667L6.4571 5.27099L6.31272 4.81349L6.68397 4.53326H6.22197L6.08379 4.07372L5.94147 4.53326H5.48291L5.85485 4.81349L5.71047 5.27099Z" fill="white"/><path d="M8.43633 5.27099L8.80896 4.98667L9.18227 5.27099L9.0379 4.81349L9.40983 4.53326H8.95127L8.80896 4.07372L8.66665 4.53326H8.2074L8.57934 4.81349L8.43633 5.27099Z" fill="white"/><path d="M11.1409 5.27099L11.5149 4.98667L11.8889 5.27099L11.7425 4.81349L12.1151 4.53326H11.6566L11.5142 4.07372L11.3733 4.53326H10.9141L11.286 4.81349L11.1409 5.27099Z" fill="white"/><path d="M13.8601 5.27099L14.2306 4.98667L14.6039 5.27099L14.4582 4.81349L14.8308 4.53326H14.3729L14.2299 4.07372L14.089 4.53326H13.6298L14.0017 4.81349L13.8601 5.27099Z" fill="white"/><path d="M15.3911 4.0744L15.7644 3.7894L16.1384 4.0744L15.9934 3.61622L16.3646 3.33599H15.9088L15.7637 2.87576L15.6221 3.33599H15.1594L15.5355 3.61622L15.3911 4.0744Z" fill="white"/><path d="M1.88723 13.6498L2.26123 13.3683L2.63454 13.6498L2.49017 13.1958L2.86142 12.9148L2.40286 12.9162L2.25986 12.4567L2.11961 12.9162L1.65967 12.9148L2.03161 13.1958L1.88723 13.6498Z" fill="white"/><path d="M4.35883 13.6498L4.73215 13.3683L5.10615 13.6498L4.96108 13.1958L5.33233 12.9148L4.87446 12.9162L4.73146 12.4567L4.59052 12.9162L4.13196 12.9148L4.50321 13.1958L4.35883 13.6498Z" fill="white"/><path d="M7.08474 13.6498L7.45805 13.3683L7.83205 13.6498L7.68699 13.1958L8.05824 12.9148L7.59693 12.9162L7.45737 12.4567L7.31574 12.9162L6.85718 12.9148L7.22912 13.1958L7.08474 13.6498Z" fill="white"/><path d="M9.7908 13.6498L10.1641 13.3683L10.5374 13.6498L10.3951 13.1958L10.7643 12.9148L10.305 12.9162L10.1634 12.4567L10.0218 12.9162L9.56323 12.9148L9.93448 13.1958L9.7908 13.6498Z" fill="white"/><path d="M12.5057 13.6498L12.8797 13.3683L13.2537 13.6498L13.1107 13.1958L13.4799 12.9148L13.0213 12.9162L12.879 12.4567L12.7381 12.9162L12.2788 12.9148L12.6501 13.1958L12.5057 13.6498Z" fill="white"/><path d="M15.3546 13.6498L15.7279 13.3683L16.1019 13.6498L15.9569 13.1958L16.3288 12.9148L15.8675 12.9162L15.7272 12.4567L15.5856 12.9162L15.125 12.9148L15.499 13.1958L15.3546 13.6498Z" fill="white"/><path d="M1.92373 6.46892L2.29773 6.18392L2.67104 6.46892L2.52598 6.01074L2.89792 5.73051L2.43867 5.73187L2.29635 5.27097L2.15473 5.73187L1.69617 5.73051L2.06948 6.01074L1.92373 6.46892Z" fill="white"/><path d="M4.39451 6.46892L4.76851 6.18392L5.14182 6.46892L4.99745 6.01074L5.3687 5.73051L4.91013 5.73187L4.76782 5.27097L4.6262 5.73187L4.16626 5.73051L4.53957 6.01074L4.39451 6.46892Z" fill="white"/><path d="M7.12044 6.46892L7.49376 6.18392L7.86776 6.46892L7.72269 6.01074L8.09394 5.73051L7.63813 5.73187L7.49376 5.27097L7.35144 5.73187L6.89563 5.73051L7.26482 6.01074L7.12044 6.46892Z" fill="white"/><path d="M9.82644 6.46892L10.1998 6.18392L10.5738 6.46892L10.4294 6.01074L10.8006 5.73051L10.34 5.73187L10.1998 5.27097L10.0581 5.73187L9.59888 5.73051L9.9715 6.01074L9.82644 6.46892Z" fill="white"/><path d="M12.5421 6.46892L12.9161 6.18392L13.2894 6.46892L13.145 6.01074L13.5169 5.73051L13.057 5.73187L12.9154 5.27097L12.7737 5.73187L12.3152 5.73051L12.6864 6.01074L12.5421 6.46892Z" fill="white"/><path d="M3.23892 7.66619L3.61223 7.38187L3.98554 7.66619L3.84185 7.20869L4.2131 6.9271H3.75385L3.61154 6.46892L3.47198 6.9271H3.01135L3.38329 7.20869L3.23892 7.66619Z" fill="white"/><path d="M5.71047 7.66619L6.08379 7.38187L6.4571 7.66619L6.31272 7.20869L6.68397 6.9271H6.22197L6.08379 6.46892L5.94147 6.9271H5.48291L5.85485 7.20869L5.71047 7.66619Z" fill="white"/><path d="M8.43633 7.66619L8.80896 7.38187L9.18227 7.66619L9.0379 7.20869L9.40983 6.9271H8.95127L8.80896 6.46892L8.66665 6.9271H8.2074L8.57934 7.20869L8.43633 7.66619Z" fill="white"/><path d="M11.1409 7.66619L11.5149 7.38187L11.8889 7.66619L11.7425 7.20869L12.1151 6.9271H11.6566L11.5142 6.46892L11.3733 6.9271H10.9141L11.286 7.20869L11.1409 7.66619Z" fill="white"/><path d="M13.8601 7.66619L14.2306 7.38187L14.6039 7.66619L14.4582 7.20869L14.8308 6.9271H14.3729L14.2299 6.46892L14.089 6.9271H13.6298L14.0017 7.20869L13.8601 7.66619Z" fill="white"/><path d="M15.3911 6.46892L15.7644 6.18392L16.1384 6.46892L15.9934 6.01074L16.3646 5.73051L15.9088 5.73187L15.7637 5.27097L15.6221 5.73187L15.1594 5.73051L15.5355 6.01074L15.3911 6.46892Z" fill="white"/><path d="M1.88723 8.86348L2.26123 8.57917L2.63454 8.86348L2.48948 8.40667L2.86142 8.12576L2.40217 8.12712L2.25986 7.66621L2.11961 8.12712L1.65967 8.12576L2.03161 8.40667L1.88723 8.86348Z" fill="white"/><path d="M4.35883 8.86348L4.73215 8.57917L5.10615 8.86348L4.96108 8.40667L5.33233 8.12576L4.87446 8.12712L4.73146 7.66621L4.59052 8.12712L4.13196 8.12576L4.50252 8.40667L4.35883 8.86348Z" fill="white"/><path d="M7.08474 8.86348L7.45805 8.57917L7.83137 8.86348L7.68699 8.40667L8.05824 8.12576L7.59693 8.12712L7.45737 7.66621L7.31574 8.12712L6.85718 8.12576L7.22912 8.40667L7.08474 8.86348Z" fill="white"/><path d="M9.7908 8.86348L10.1634 8.57917L10.5374 8.86348L10.3951 8.40667L10.7643 8.12576L10.305 8.12712L10.1634 7.66621L10.0218 8.12712L9.56323 8.12576L9.93448 8.40667L9.7908 8.86348Z" fill="white"/><path d="M12.5057 8.86348L12.8797 8.57917L13.253 8.86348L13.1107 8.40667L13.4799 8.12576L13.0206 8.12712L12.879 7.66621L12.7381 8.12712L12.2788 8.12576L12.6501 8.40667L12.5057 8.86348Z" fill="white"/><path d="M3.20242 10.0608L3.57573 9.77715L3.94904 10.0608L3.80535 9.60669L4.17592 9.32442H3.71667L3.57504 8.86351L3.4341 9.32442H2.97485L3.34679 9.60669L3.20242 10.0608Z" fill="white"/><path d="M5.67393 10.0608L6.04724 9.77715L6.42055 10.0608L6.27618 9.60669L6.64743 9.32442H6.18749L6.04655 8.86351L5.90493 9.32442H5.44568L5.8183 9.60669L5.67393 10.0608Z" fill="white"/><path d="M8.40057 10.0608L8.77251 9.77715L9.14651 10.0608L8.99938 9.60669L9.37338 9.32442H8.91482L8.77251 8.86351L8.63088 9.32442H8.17163L8.54357 9.60669L8.40057 10.0608Z" fill="white"/><path d="M11.1032 10.0608L11.4786 9.77715L11.8526 10.0608L11.7082 9.60669L12.0787 9.32442H11.6202L11.4779 8.86351L11.3369 9.32442H10.8777L11.2496 9.60669L11.1032 10.0608Z" fill="white"/><path d="M13.8188 10.0608L14.1941 9.77715L14.5681 10.0608L14.4231 9.60669L14.7957 9.32442H14.3371L14.1941 8.86351L14.0525 9.32442H13.5933L13.9652 9.60669L13.8188 10.0608Z" fill="white"/><path d="M15.3546 8.86348L15.7279 8.57917L16.1012 8.86348L15.9569 8.40667L16.3288 8.12576L15.8675 8.12712L15.7272 7.66621L15.5856 8.12712L15.125 8.12576L15.499 8.40667L15.3546 8.86348Z" fill="white"/><path d="M1.88723 11.2587L2.26123 10.9771L2.63454 11.2587L2.48948 10.8012L2.86142 10.5203L2.40217 10.5216L2.25986 10.0607L2.11961 10.5216L1.65967 10.5203L2.03161 10.8012L1.88723 11.2587Z" fill="white"/><path d="M4.35883 11.2587L4.73215 10.9771L5.10615 11.2587L4.96108 10.8012L5.33233 10.5203L4.87446 10.5216L4.73146 10.0607L4.59052 10.5216L4.13196 10.5203L4.50252 10.8012L4.35883 11.2587Z" fill="white"/><path d="M7.08474 11.2587L7.45805 10.9771L7.83137 11.2587L7.68699 10.8012L8.05824 10.5203L7.59693 10.5216L7.45737 10.0607L7.31574 10.5216L6.85718 10.5203L7.22912 10.8012L7.08474 11.2587Z" fill="white"/><path d="M9.7908 11.2587L10.1634 10.9771L10.5374 11.2587L10.3951 10.8012L10.7643 10.5203L10.305 10.5216L10.1634 10.0607L10.0218 10.5216L9.56323 10.5203L9.93448 10.8012L9.7908 11.2587Z" fill="white"/><path d="M12.5057 11.2587L12.8797 10.9771L13.253 11.2587L13.1107 10.8012L13.4799 10.5203L13.0206 10.5216L12.879 10.0607L12.7381 10.5216L12.2788 10.5203L12.6501 10.8012L12.5057 11.2587Z" fill="white"/><path d="M3.20242 12.4567L3.57573 12.1717L3.94904 12.4567L3.80535 11.9985L4.17592 11.7203H3.71667L3.57504 11.2587L3.4341 11.7203H2.97485L3.34679 11.9985L3.20242 12.4567Z" fill="white"/><path d="M5.67393 12.4567L6.04724 12.1717L6.42055 12.4567L6.27618 11.9985L6.64743 11.7203H6.18749L6.04655 11.2587L5.90493 11.7203H5.44568L5.8183 11.9985L5.67393 12.4567Z" fill="white"/><path d="M8.40057 12.4567L8.77251 12.1717L9.14651 12.4567L8.99938 11.9985L9.37338 11.7203H8.91482L8.77251 11.2587L8.63088 11.7203H8.17163L8.54357 11.9985L8.40057 12.4567Z" fill="white"/><path d="M11.1032 12.4567L11.4786 12.1717L11.8526 12.4567L11.7082 11.9985L12.0787 11.7203H11.6202L11.4779 11.2587L11.3369 11.7203H10.8777L11.2496 11.9985L11.1032 12.4567Z" fill="white"/><path d="M13.8188 12.4567L14.1941 12.1717L14.5681 12.4567L14.4231 11.9985L14.7957 11.7203H14.3371L14.1941 11.2587L14.0525 11.7203H13.5933L13.9652 11.9985L13.8188 12.4567Z" fill="white"/><path d="M15.3546 11.2587L15.7279 10.9771L16.1012 11.2587L15.9569 10.8012L16.3288 10.5203L15.8675 10.5216L15.7272 10.0607L15.5856 10.5216L15.125 10.5203L15.499 10.8012L15.3546 11.2587Z" fill="white"/></svg>