<svg width="44" height="30" viewBox="0 0 44 30" fill="none" xmlns="http://www.w3.org/2000/svg">
<path d="M44 22.5C44 26.642 41.6811 30 37.125 30H6.875C2.31894 30 0 26.642 0 22.5V7.5C0 3.35795 2.31894 0 6.875 0H37.125C41.6811 0 44 3.35795 44 7.5V22.5Z" fill="#128807"/>
<path d="M39.2837 15.5386L22.1031 27.5113L4.92175 15.5386L22.1031 3.56589L39.2837 15.5386Z" fill="#F9CB38"/>
<path fill-rule="evenodd" clip-rule="evenodd" d="M28.8819 17.6237C28.0995 20.2603 25.6513 22.2675 22.8793 22.5403C19.1758 22.9078 15.9356 20.5732 15.1477 16.9644C14.9146 15.9038 14.9443 14.803 15.2343 13.7564C15.3423 13.6405 15.4915 13.6125 15.64 13.5921C16.7232 13.4429 17.8182 13.3957 18.9104 13.4509C20.0757 13.5164 21.2314 13.6766 22.3548 13.9916C23.5077 14.3155 24.6242 14.7382 25.6781 15.3C26.4713 15.718 27.2289 16.1991 27.9435 16.7387C28.1855 16.9248 28.4323 17.1075 28.6646 17.3059C28.7685 17.3946 28.8496 17.49 28.8812 17.6237" fill="#002776"/>
<path fill-rule="evenodd" clip-rule="evenodd" d="M15.6228 12.6892C16.5104 10.7222 18.0071 9.41242 20.0757 8.79742C24.242 7.55855 28.5162 10.2892 29.1356 14.5479C29.2319 15.2058 29.236 15.8658 29.1342 16.5251C29.0291 16.564 28.9507 16.5088 28.8785 16.4495C28.1234 15.8375 27.3178 15.2897 26.4702 14.8117C25.8175 14.4444 25.1393 14.1236 24.4407 13.8517C24.3169 13.8033 24.1616 13.7781 24.1189 13.6138C24.1636 13.5347 24.22 13.4658 24.2874 13.4017C24.3114 13.3772 24.3465 13.3533 24.3142 13.3124C24.3032 13.2995 24.2805 13.2995 24.2612 13.3015C24.2097 13.307 24.2166 13.3424 24.2186 13.3799C24.2227 13.502 24.1512 13.5804 24.0571 13.6431C23.89 13.6806 23.7298 13.6308 23.5944 13.5592C23.2066 13.3574 22.7776 13.2886 22.3672 13.1761C21.7271 13.0036 21.0699 12.9061 20.414 12.8045C19.8905 12.7216 19.3636 12.662 18.8348 12.6258C18.3536 12.5924 17.8634 12.5972 17.3787 12.6299C16.85 12.6667 16.3199 12.7036 15.794 12.7663C15.761 12.7711 15.7273 12.7663 15.697 12.7527C15.6666 12.739 15.6409 12.717 15.6228 12.6892" fill="#002776"/>
<path fill-rule="evenodd" clip-rule="evenodd" d="M24.1244 13.5716C24.1216 13.6547 24.1966 13.6438 24.242 13.6616C26.0173 14.3465 27.6683 15.3137 29.1301 16.5252C29.0879 16.8993 29.0044 17.2676 28.8812 17.6236C28.0211 16.9159 27.1405 16.2416 26.1663 15.6907C23.087 13.9513 19.7897 13.262 16.2649 13.6316C15.9211 13.6663 15.5774 13.7127 15.2336 13.7543C15.3223 13.3854 15.4351 13.0234 15.62 12.6879C18.1933 12.3436 20.722 12.5393 23.2031 13.3009C23.5111 13.3957 23.8047 13.5484 24.1333 13.577L24.1244 13.5695" fill="#FEFEFE"/>
<path fill-rule="evenodd" clip-rule="evenodd" d="M27.3281 17.966C27.1212 17.9441 27.346 18.1957 27.137 18.1903C26.9548 18.1876 26.9452 18.043 26.8558 17.9626C26.9246 17.8917 27.0463 17.8773 27.0848 17.7669C27.1109 17.8835 27.2216 17.908 27.3281 17.966Z" fill="#D9DFEA"/>
<path fill-rule="evenodd" clip-rule="evenodd" d="M19.5209 19.2273C19.3263 19.2498 19.4892 19.4598 19.3263 19.4632C19.162 19.4666 19.0774 19.3459 19.0444 19.2211C19.0327 19.1857 19.1909 19.1066 19.2686 19.0479C19.2782 19.1714 19.4074 19.1659 19.5209 19.2273Z" fill="#E9ECF3"/>
<path fill-rule="evenodd" clip-rule="evenodd" d="M22.0962 18.8475C21.826 19.0206 22.0439 18.6293 21.8851 18.6675C21.9367 18.5856 22.0824 18.6047 22.0921 18.4793C22.1608 18.5502 22.2193 18.632 22.3286 18.647C22.1725 18.6259 22.3423 18.9695 22.0962 18.8475" fill="#EDEFF5"/>
<path fill-rule="evenodd" clip-rule="evenodd" d="M16.5138 14.2535C16.4491 14.3755 16.4003 14.5119 16.2044 14.4301C16.104 14.3885 16.2113 14.2521 16.0909 14.2392L16.3137 14.0449C16.3288 14.0769 16.3467 14.1076 16.3618 14.1396C16.3797 14.2208 16.5426 14.113 16.5138 14.2535" fill="#F0F2F6"/>
<path fill-rule="evenodd" clip-rule="evenodd" d="M17.1373 17.2157C17.0349 17.2478 17.1084 17.515 16.8884 17.3984C16.8664 17.3875 16.7702 17.44 16.7881 17.4093C16.8458 17.2975 16.7165 17.243 16.7365 17.1537C16.8568 17.2055 16.8499 16.9873 16.973 17.0459C16.9819 17.0528 16.9819 17.08 16.9881 17.0978C17.0012 17.1823 17.1675 17.0766 17.1373 17.2157Z" fill="#ECEFF4"/>
<path fill-rule="evenodd" clip-rule="evenodd" d="M16.0559 18.0053C15.8448 18.0783 16.0022 17.8253 15.8812 17.8274C15.9376 17.7803 16.0009 17.6924 16.0572 17.6958C16.1246 17.6992 16.1865 17.7817 16.2484 17.8287C16.1562 17.8594 16.2532 18.1069 16.0559 18.0053" fill="#D9DFEA"/>
<path fill-rule="evenodd" clip-rule="evenodd" d="M24.2137 20.4182C23.9903 20.5191 24.2076 20.2211 24.0584 20.26C24.0432 20.1461 24.2296 20.215 24.2062 20.095L24.4076 20.2552C24.3258 20.292 24.4076 20.5239 24.2137 20.4182" fill="#D8DEEA"/>
<path fill-rule="evenodd" clip-rule="evenodd" d="M25.6437 20.2542C25.4588 20.3305 25.5722 20.0837 25.4725 20.0592C25.5399 20.0162 25.6107 19.9705 25.6767 19.9262C25.6822 20.0271 25.8218 19.9903 25.8369 20.0796C25.7331 20.0858 25.841 20.308 25.6437 20.2542" fill="#DCE1EC"/>
<path fill-rule="evenodd" clip-rule="evenodd" d="M26.9293 19.3364C26.719 19.442 26.8743 19.1646 26.754 19.1761C26.7781 19.0875 26.9163 19.1209 26.9245 19.0186L27.1218 19.1652C27.0015 19.1618 27.1493 19.4543 26.9293 19.3364" fill="#DCE1EC"/>
<path fill-rule="evenodd" clip-rule="evenodd" d="M18.4133 18.0634C18.1933 18.1868 18.337 17.9107 18.2352 17.9053C18.2455 17.8037 18.4009 17.8473 18.4078 17.7396C18.4284 17.8391 18.5618 17.8105 18.5907 17.8998C18.4594 17.8807 18.6464 18.1937 18.4133 18.0634" fill="#D4DAE7"/>
<path fill-rule="evenodd" clip-rule="evenodd" d="M19.3049 15.9919C19.1805 15.9838 19.34 15.7894 19.1874 15.8017C19.2135 15.6926 19.3311 15.7151 19.3957 15.6585C19.4287 15.7274 19.5222 15.7431 19.527 15.8419C19.538 16.0226 19.3764 15.9292 19.3049 15.9919" fill="#F2F4F7"/>
<path fill-rule="evenodd" clip-rule="evenodd" d="M22.9282 17.4319C22.7377 17.5403 22.8381 17.2983 22.7501 17.2717C22.8099 17.2226 22.8677 17.1728 22.9282 17.1224C22.9323 17.2233 23.1269 17.2008 23.0719 17.2785C23.0389 17.3249 23.1454 17.5369 22.9282 17.4319Z" fill="#E6E9F1"/>
<path fill-rule="evenodd" clip-rule="evenodd" d="M22.0756 16.8244C21.8583 16.8462 22.0825 16.6505 21.9415 16.6553C21.9965 16.6042 22.0495 16.5169 22.1113 16.5114C22.165 16.506 22.2268 16.5926 22.2853 16.6403C22.209 16.7132 22.2207 16.9014 22.0756 16.8244" fill="#EAEDF3"/>
<path fill-rule="evenodd" clip-rule="evenodd" d="M27.3501 18.4158C27.3948 18.5331 27.4828 18.5487 27.5516 18.5903C27.4814 18.6687 27.4539 18.7887 27.3082 18.7887C27.159 18.7901 27.2601 18.6776 27.2264 18.6251C27.1432 18.4942 27.4505 18.6046 27.3501 18.4158" fill="#E4E8F0"/>
<path fill-rule="evenodd" clip-rule="evenodd" d="M25.7936 20.7913C25.7414 20.8683 25.7771 20.942 25.6382 20.9447C25.4794 20.9474 25.5303 20.8322 25.5234 20.7968C25.5104 20.7381 25.6011 20.6822 25.6534 20.6938C25.6987 20.702 25.7867 20.7272 25.7936 20.7913Z" fill="#CED5E4"/>
<path fill-rule="evenodd" clip-rule="evenodd" d="M18.3659 18.6067C18.2524 18.6196 18.3466 18.7669 18.2029 18.7621C18.0716 18.758 18.0908 18.6701 18.0764 18.6169C18.0537 18.5426 18.1644 18.5446 18.1892 18.4887C18.2414 18.5248 18.2943 18.561 18.3659 18.6067" fill="#DAE0EB"/>
<path fill-rule="evenodd" clip-rule="evenodd" d="M25.4856 19.3853C25.5344 19.3492 25.5832 19.3158 25.6348 19.2817C25.6389 19.3574 25.8032 19.3137 25.7482 19.4106C25.7255 19.4494 25.7812 19.5558 25.6389 19.5462C25.511 19.5374 25.5413 19.4487 25.4856 19.3853Z" fill="#D8DEE9"/>
<path fill-rule="evenodd" clip-rule="evenodd" d="M24.9631 19.6193C24.9384 19.7536 24.8614 19.7754 24.7768 19.7911C24.6331 19.815 24.7411 19.7079 24.7177 19.667C24.6572 19.5647 24.8098 19.5845 24.8277 19.5177C24.8676 19.5695 24.959 19.5681 24.9631 19.6193Z" fill="#CBD2E3"/>
<path fill-rule="evenodd" clip-rule="evenodd" d="M24.1587 15.1977C24.1106 15.2202 24.1745 15.3341 24.0714 15.3013C23.993 15.2747 23.8968 15.2379 23.9037 15.1425C23.9064 15.1057 23.9999 15.075 24.0522 15.0429C24.0611 15.1118 24.2096 15.0893 24.1587 15.1977Z" fill="#D1D8E6"/>
<path fill-rule="evenodd" clip-rule="evenodd" d="M28.0493 18.188C27.92 18.2384 27.9785 18.1328 27.9558 18.1021C27.8692 17.9855 28.0404 18.0025 28.0493 17.933C28.1022 17.9678 28.2054 18.0073 28.2012 18.0373C28.1982 18.0763 28.1813 18.1129 28.1534 18.1405C28.1255 18.1682 28.0886 18.185 28.0493 18.188" fill="#DADFEA"/>
<path fill-rule="evenodd" clip-rule="evenodd" d="M21.4019 17.1476C21.4019 17.2267 21.5628 17.1954 21.5085 17.2942C21.4865 17.3345 21.5332 17.4422 21.4218 17.4197C21.3373 17.4026 21.252 17.3536 21.2493 17.2704C21.2493 17.2315 21.3469 17.1899 21.4019 17.1476Z" fill="#CAD2E2"/>
<path fill-rule="evenodd" clip-rule="evenodd" d="M23.6018 19.6147C23.5386 19.5854 23.5358 19.5029 23.5399 19.4633C23.5468 19.4108 23.6176 19.3399 23.6781 19.3685C23.7153 19.3863 23.8204 19.376 23.795 19.4715C23.7716 19.5629 23.6795 19.5758 23.6018 19.6147Z" fill="#D0D7E5"/>
<path fill-rule="evenodd" clip-rule="evenodd" d="M26.2625 19.4944C26.2652 19.4937 26.3133 19.4276 26.3676 19.4262C26.4068 19.4249 26.4467 19.5053 26.4886 19.5503C26.4323 19.566 26.4804 19.669 26.369 19.6676C26.2686 19.6655 26.2686 19.6205 26.2625 19.4944Z" fill="#EFF2F6"/>
<path fill-rule="evenodd" clip-rule="evenodd" d="M21.8391 17.7679C21.8206 17.8416 21.8206 17.8872 21.7546 17.8859C21.6872 17.8845 21.6542 17.86 21.6556 17.7918C21.6556 17.7379 21.6913 17.7004 21.7319 17.7038C21.7786 17.7073 21.8453 17.7202 21.8391 17.7679" fill="#CCD4E3"/>
<path fill-rule="evenodd" clip-rule="evenodd" d="M17.6233 16.7072C17.6563 16.7427 17.6942 16.7706 17.7086 16.8068C17.721 16.8368 17.7017 16.8824 17.6591 16.8872C17.6117 16.8913 17.5608 16.8899 17.5457 16.8313C17.5319 16.774 17.5821 16.7536 17.6233 16.7072Z" fill="#E0E5EE"/>
<path fill-rule="evenodd" clip-rule="evenodd" d="M17.1373 17.2157C17.1188 17.1373 16.9964 17.1871 16.9882 17.0971C17.0143 17.1653 17.2185 17.0132 17.1373 17.2157Z" fill="#7085B1"/>
<path fill-rule="evenodd" clip-rule="evenodd" d="M16.5138 14.2533C16.4986 14.1694 16.3687 14.2356 16.3618 14.1394C16.3983 14.1967 16.5825 14.061 16.5138 14.2533Z" fill="#5C75A7"/>
<path fill-rule="evenodd" clip-rule="evenodd" d="M24.1382 13.579C24.1512 13.5272 24.1932 13.4426 24.1767 13.427C23.9525 13.2292 24.2516 13.1958 24.2963 13.1556C24.3781 13.0772 24.365 13.4079 24.5809 13.1986C24.4647 13.4542 24.3094 13.5279 24.1306 13.5715L24.1382 13.579Z" fill="#E7EAF2"/>
<path fill-rule="evenodd" clip-rule="evenodd" d="M17.5113 13.3669C17.2927 13.3458 17.4873 13.0635 17.4398 12.8999C17.3807 12.6885 17.5361 12.6912 17.6873 12.6905C17.9218 12.6892 18.0545 12.7874 18.0545 13.0328C18.0538 13.2742 17.941 13.3696 17.5113 13.3669Z" fill="#15A24A"/>
<path fill-rule="evenodd" clip-rule="evenodd" d="M25.8644 14.7291C25.8163 14.875 25.6382 14.9663 25.608 15.1463C25.6052 15.1702 25.5365 15.1654 25.5234 15.0959C25.4684 14.77 25.4657 14.7707 25.223 14.9452C25.2037 14.9595 25.1701 14.9725 25.1515 14.9663C25.1157 14.9507 25.1013 14.9152 25.1226 14.875C25.2031 14.7195 25.2787 14.56 25.3687 14.4093C25.4292 14.3098 25.5028 14.3929 25.5619 14.4216C25.6919 14.485 25.8521 14.5211 25.8644 14.7291" fill="#13A248"/>
<path fill-rule="evenodd" clip-rule="evenodd" d="M26.4798 15.2596C26.3533 15.3101 26.2921 15.2153 26.211 15.1812C26.156 15.158 26.1044 15.1362 26.0673 15.1969C26.0267 15.261 26.0673 15.2978 26.123 15.3264C26.1656 15.3476 26.211 15.3639 26.2426 15.3973C26.2983 15.4553 26.4729 15.4396 26.4021 15.563C26.3464 15.6612 26.2529 15.5466 26.191 15.5105C26.0845 15.4457 25.8734 15.4103 25.8961 15.2978C25.9312 15.1171 26.035 14.9207 26.1732 14.7966C26.2838 14.6971 26.4062 14.8853 26.5307 14.9323C26.5843 14.9521 26.6757 14.9698 26.6599 15.0537C26.6448 15.1403 26.5802 15.0898 26.5307 15.0782C26.4145 15.0516 26.3017 14.8566 26.2103 14.9916C26.1553 15.0721 26.3815 15.1055 26.453 15.1941C26.464 15.2071 26.4667 15.2248 26.4798 15.2596" fill="#11A147"/>
<path fill-rule="evenodd" clip-rule="evenodd" d="M27.9613 16.2239C27.9819 16.3834 27.9166 16.4918 27.7482 16.4646C27.5736 16.4359 27.4409 16.3302 27.4106 16.1407C27.4079 16.1216 27.4312 16.0828 27.4505 16.0773C27.4616 16.0737 27.4733 16.0725 27.4849 16.0739C27.4965 16.0753 27.5076 16.0792 27.5175 16.0853C27.5274 16.0914 27.5358 16.0996 27.5422 16.1093C27.5485 16.119 27.5527 16.1299 27.5543 16.1414C27.5763 16.2716 27.6451 16.3296 27.7832 16.3323C27.8101 16.1189 27.4216 16.0214 27.6451 15.7998C27.7571 15.6887 27.8939 15.7807 27.9916 15.87C28.0816 15.9512 28.1916 16.0405 28.0273 16.1564C28.0039 16.1441 27.9723 16.1243 27.9551 16.138C27.9201 16.1612 27.9544 16.1946 27.9613 16.2239Z" fill="#11A147"/>
<path fill-rule="evenodd" clip-rule="evenodd" d="M23.2127 14.1933C23.1309 14.1476 23.135 14.104 23.1481 14.0562C23.1742 13.9546 23.1213 13.9015 23.0278 13.8728C22.9343 13.8428 22.8621 13.8469 22.8366 13.9628C22.8277 14.0146 22.8002 14.0508 22.7431 14.0317C22.6771 14.0078 22.7101 13.9546 22.7225 13.9158C22.7486 13.8265 22.772 13.7365 22.8133 13.6512C22.8504 13.566 22.8243 13.4099 22.9597 13.4201C23.1034 13.4303 23.2588 13.4644 23.3681 13.5824C23.4169 13.6342 23.4368 13.7235 23.3969 13.7624C23.2808 13.881 23.2904 14.0487 23.2127 14.1933Z" fill="#0FA046"/>
<path fill-rule="evenodd" clip-rule="evenodd" d="M18.9701 13.3254C18.7481 13.4085 18.5728 13.3601 18.4016 13.3635C18.3239 13.3656 18.317 13.3076 18.317 13.249C18.3225 13.1842 18.3225 13.1188 18.3225 13.054C18.3308 12.6947 18.4593 12.6026 18.8155 12.7029C18.8553 12.7138 18.8931 12.7206 18.8959 12.7649C18.8959 12.8263 18.8512 12.8372 18.7962 12.8358C18.7886 12.8345 18.7797 12.8324 18.7701 12.8338C18.6635 12.8597 18.4724 12.7404 18.469 12.8985C18.4648 13.0199 18.6731 12.934 18.7797 12.9749C18.7948 12.981 18.8113 12.9947 18.8347 13.0117C18.7673 13.1324 18.6553 13.0649 18.5686 13.0792C18.5171 13.0874 18.4497 13.0649 18.4421 13.1481C18.4325 13.2463 18.5013 13.2415 18.5686 13.2483C18.6835 13.262 18.8079 13.219 18.9701 13.3254" fill="#0B9F43"/>
<path fill-rule="evenodd" clip-rule="evenodd" d="M17.1449 13.3771C17.0252 13.3512 17.0417 13.283 17.0211 13.2352C16.9854 13.1473 16.9146 13.1473 16.8369 13.1534C16.7482 13.1616 16.7001 13.1957 16.7076 13.2932C16.7131 13.3409 16.7324 13.418 16.643 13.4071C16.566 13.3975 16.588 13.3232 16.5839 13.2727C16.577 13.1902 16.5687 13.1057 16.577 13.0239C16.588 12.9325 16.5 12.7927 16.6327 12.76C16.7695 12.7246 16.9276 12.6993 17.0699 12.7668C17.1318 12.7962 17.1806 12.8677 17.1579 12.9257C17.1057 13.0716 17.1469 13.2196 17.1449 13.3771" fill="#079D3F"/>
<path fill-rule="evenodd" clip-rule="evenodd" d="M15.6936 13.1453C15.7156 12.9605 15.7974 12.8105 16.0016 12.8173C16.1975 12.8235 16.302 12.9585 16.302 13.1528C16.302 13.3457 16.2113 13.4787 16.0044 13.4773C15.794 13.476 15.7225 13.3246 15.6936 13.1453Z" fill="#15A24A"/>
<path fill-rule="evenodd" clip-rule="evenodd" d="M28.7814 16.6089C28.7622 16.7923 28.6708 16.9307 28.4597 16.9491C28.2651 16.9648 28.162 16.8543 28.1469 16.673C28.1297 16.4896 28.3112 16.3143 28.4961 16.3157C28.6584 16.3171 28.7773 16.4337 28.7814 16.6089Z" fill="#11A147"/>
<path fill-rule="evenodd" clip-rule="evenodd" d="M24.9219 14.4749C25.0773 14.599 24.8889 14.6808 24.882 14.7852C24.7528 14.7258 24.5912 14.7497 24.4867 14.6372C24.3754 14.5172 24.396 14.3815 24.4689 14.2493C24.5493 14.1095 24.673 14.0495 24.825 14.1027C24.9639 14.1518 25.0677 14.2445 25.0003 14.419C24.8937 14.4381 24.8064 14.299 24.6565 14.3924C24.7562 14.4381 24.8759 14.3747 24.9219 14.4749" fill="#0C9F43"/>
<path fill-rule="evenodd" clip-rule="evenodd" d="M21.1819 13.0703C21.0912 13.176 21.0245 13.1351 20.9619 13.1364C20.9014 13.1364 20.8368 13.0866 20.7619 13.1487C20.8292 13.2578 20.9922 13.1876 21.0554 13.296C21.0465 13.3116 21.0424 13.3328 21.0307 13.3437C20.9399 13.4146 20.7949 13.2428 20.7385 13.3846C20.6869 13.5066 20.8224 13.4644 20.8808 13.4848C20.9468 13.5107 21.0286 13.5012 21.1084 13.5898C20.9234 13.6703 20.7027 13.6328 20.6264 13.5441C20.5061 13.4044 20.5907 13.1562 20.6821 13.0321C20.7901 12.8855 20.9874 13.0287 21.1819 13.0703" fill="#19A44D"/>
<path fill-rule="evenodd" clip-rule="evenodd" d="M22.3541 13.6635C22.198 13.6472 22.0207 13.5381 21.976 13.7931C21.9746 13.8013 21.9203 13.8129 21.9038 13.802C21.8852 13.7917 21.8749 13.7535 21.8783 13.7317C21.9189 13.5701 21.9395 13.397 22.0117 13.2517C22.0956 13.0881 22.2379 13.2265 22.3555 13.2422C22.4957 13.2606 22.5734 13.3451 22.5583 13.4917C22.5445 13.6179 22.4483 13.652 22.3541 13.6635" fill="#0D9F44"/>
<path fill-rule="evenodd" clip-rule="evenodd" d="M24.2138 14.0541C24.1987 14.2593 24.0969 14.4011 23.89 14.4073C23.705 14.4141 23.6012 14.2852 23.6053 14.1025C23.6108 13.9048 23.7078 13.7616 23.923 13.7555C24.1203 13.7486 24.1966 13.8802 24.2138 14.0541" fill="#0FA046"/>
<path fill-rule="evenodd" clip-rule="evenodd" d="M19.5793 13.3137C19.5566 13.3621 19.538 13.431 19.4727 13.4153C19.3593 13.3887 19.4101 13.2803 19.3826 13.2094C19.2988 13.1283 19.3208 13.2401 19.2946 13.2605C19.285 13.311 19.3084 13.388 19.2396 13.3983C19.1551 13.4085 19.175 13.328 19.1771 13.2803C19.184 13.1808 19.1853 13.0764 19.2128 12.981C19.2369 12.8992 19.1496 12.7485 19.3139 12.7471C19.459 12.7464 19.4273 12.893 19.4459 12.981C19.4651 13.0819 19.4755 13.1248 19.5586 13.0246C19.6446 13.0021 19.6625 13.0642 19.6824 13.1242C19.6934 13.2114 19.6542 13.2721 19.5793 13.3137" fill="#0EA044"/>
<path fill-rule="evenodd" clip-rule="evenodd" d="M26.9019 15.8182C26.9528 15.8182 27.0044 15.885 27.0539 15.8278C27.0917 15.7848 27.058 15.7425 27.0243 15.7078C26.9995 15.6812 26.9734 15.6559 26.95 15.6273C26.8799 15.5434 26.7816 15.463 26.8785 15.3416C26.9665 15.2305 27.069 15.2578 27.1707 15.328C27.1893 15.3635 27.1831 15.3975 27.1639 15.4296C27.0889 15.5462 27.2285 15.6171 27.2257 15.7166C27.247 15.81 27.2608 15.9041 27.157 15.958C27.0277 16.0262 26.928 15.9634 26.8332 15.8816C26.8228 15.8278 26.8428 15.8012 26.9019 15.8182" fill="#10A146"/>
<path fill-rule="evenodd" clip-rule="evenodd" d="M24.9219 14.475C24.869 14.5118 24.7624 14.3925 24.7659 14.4825C24.7727 14.642 24.6923 14.6277 24.6174 14.5807C24.5163 14.5186 24.5108 14.4123 24.5747 14.3141C24.6366 14.2179 24.7239 14.162 24.8298 14.2404C24.8944 14.2875 24.9432 14.3584 24.9989 14.4191L24.9219 14.475" fill="#ECF7F0"/>
<path fill-rule="evenodd" clip-rule="evenodd" d="M19.6247 13.1523C19.6046 13.1102 19.5826 13.069 19.5587 13.0289C19.5828 12.9682 19.6048 12.9069 19.6337 12.8482C19.6598 12.793 19.7052 12.7623 19.7691 12.7828C19.8406 12.8066 19.8351 12.8612 19.831 12.9185C19.8158 13.0855 19.8021 13.2519 19.789 13.4189C19.6887 13.4823 19.6632 13.4244 19.6467 13.3385C19.6343 13.2764 19.6667 13.2096 19.6247 13.1523Z" fill="#17A34C"/>
<path fill-rule="evenodd" clip-rule="evenodd" d="M27.2278 15.7159C27.1659 15.6531 27.0999 15.5938 27.0421 15.527C26.9748 15.4479 27.0009 15.3995 27.1013 15.3866C27.2463 15.4186 27.335 15.4881 27.2924 15.6531C27.2724 15.6736 27.2504 15.6954 27.2278 15.7159" fill="#D7EFE0"/>
<path fill-rule="evenodd" clip-rule="evenodd" d="M27.2923 15.6532C27.2256 15.5673 27.2078 15.4445 27.1012 15.3866L27.1727 15.3273C27.2882 15.4084 27.4993 15.4548 27.2923 15.6532Z" fill="#2BAB5B"/>
<path fill-rule="evenodd" clip-rule="evenodd" d="M27.9613 16.2237C27.9523 16.2182 27.9406 16.2155 27.9365 16.208C27.8815 16.1071 27.6993 16.0164 27.7612 15.9271C27.8389 15.8193 27.92 15.9468 27.9626 16.0389C27.9819 16.0777 28.0053 16.1159 28.0273 16.1562C28.0046 16.1787 27.9819 16.2012 27.9613 16.2237" fill="#E6F5EC"/>
<path fill-rule="evenodd" clip-rule="evenodd" d="M26.9019 15.818C26.8799 15.8392 26.8586 15.861 26.8332 15.8821C26.8043 15.8617 26.7644 15.8473 26.7459 15.818C26.7108 15.7519 26.6104 15.6639 26.7266 15.6121C26.8242 15.5657 26.8242 15.6892 26.8559 15.7492C26.8689 15.7744 26.8854 15.7955 26.9019 15.818Z" fill="#29AA59"/>
<path fill-rule="evenodd" clip-rule="evenodd" d="M19.6247 13.1523C19.7251 13.1912 19.6721 13.2743 19.6735 13.3364C19.679 13.4216 19.7092 13.4503 19.7897 13.4203C19.6219 13.5812 19.6432 13.3664 19.5786 13.3187C19.5958 13.2621 19.6089 13.2068 19.6247 13.1523" fill="#DDF1E4"/>
<path fill-rule="evenodd" clip-rule="evenodd" d="M19.2913 13.2612V13.0417C19.3861 13.0717 19.3889 13.1378 19.3793 13.2101C19.3504 13.2272 19.3201 13.2435 19.2913 13.2612Z" fill="#6FC690"/>
<path fill-rule="evenodd" clip-rule="evenodd" d="M17.578 13.0362C17.5876 12.9367 17.5395 12.8071 17.7107 12.818C17.8358 12.8255 17.9266 12.8753 17.9334 13.0171C17.9403 13.1699 17.8503 13.2319 17.7079 13.2421C17.5271 13.2565 17.6007 13.1153 17.578 13.0362" fill="#F5FBF7"/>
<path fill-rule="evenodd" clip-rule="evenodd" d="M25.5062 14.5363C25.5777 14.5751 25.6871 14.5826 25.7104 14.6876C25.7221 14.7422 25.6747 14.7783 25.6259 14.7627C25.5351 14.7354 25.4148 14.734 25.4024 14.6072C25.399 14.5704 25.4389 14.524 25.5062 14.5363Z" fill="#EFF8F3"/>
<path fill-rule="evenodd" clip-rule="evenodd" d="M23.2767 13.6977C23.2582 13.7687 23.208 13.7932 23.1502 13.7721C23.0725 13.7441 22.9474 13.7748 22.946 13.6398C22.9433 13.5696 22.9914 13.5484 23.056 13.5696C23.1413 13.5968 23.2444 13.5934 23.2767 13.6977Z" fill="#DEF2E5"/>
<path fill-rule="evenodd" clip-rule="evenodd" d="M16.854 12.8583C16.9214 12.8665 17.028 12.831 17.0211 12.9449C17.0142 13.0444 16.9125 13.0287 16.8396 13.0301C16.7812 13.0322 16.6973 13.0622 16.6918 12.9578C16.6877 12.8337 16.7853 12.8726 16.854 12.8583" fill="#F3FAF5"/>
<path fill-rule="evenodd" clip-rule="evenodd" d="M15.9844 12.9533C16.1088 12.9614 16.1707 13.0351 16.1755 13.151C16.1824 13.2546 16.1308 13.3433 16.0236 13.3528C15.8998 13.3644 15.8442 13.271 15.8373 13.1571C15.8304 13.0521 15.8717 12.9758 15.9844 12.9533" fill="#F3FAF6"/>
<path fill-rule="evenodd" clip-rule="evenodd" d="M28.6447 16.633C28.6268 16.7462 28.5581 16.826 28.4254 16.826C28.3188 16.8246 28.279 16.7476 28.29 16.6542C28.3003 16.5274 28.3766 16.4455 28.5065 16.4476C28.609 16.4503 28.6488 16.5233 28.6447 16.633" fill="#F9FCFA"/>
<path fill-rule="evenodd" clip-rule="evenodd" d="M22.1925 13.3279C22.2619 13.3702 22.4015 13.3265 22.4214 13.4629C22.4276 13.5147 22.3699 13.5413 22.3238 13.5311C22.2338 13.5113 22.1079 13.5434 22.0969 13.3995C22.0949 13.3552 22.1148 13.3075 22.1925 13.3279Z" fill="#E7F5EC"/>
<path fill-rule="evenodd" clip-rule="evenodd" d="M24.0762 14.0707C24.0632 14.1887 24.0047 14.2712 23.8844 14.2712C23.7662 14.2726 23.7242 14.1907 23.7297 14.083C23.7393 13.9644 23.8074 13.8853 23.9236 13.8805C24.0391 13.8764 24.0762 13.9678 24.0762 14.0707" fill="#F5FBF7"/>
</svg>
