<svg width="16" height="14" viewBox="0 0 16 14" fill="none" xmlns="http://www.w3.org/2000/svg">
<path d="M3.61361 14V4.55422H0.398204V14H3.61361ZM2.00632 3.26379C3.12759 3.26379 3.82553 2.53846 3.82553 1.63205C3.80464 0.705193 3.12764 0 2.0276 0C0.927739 0 0.208496 0.705207 0.208496 1.63205C0.208496 2.53851 0.906261 3.26379 1.98533 3.26379H2.00622H2.00632ZM5.39333 14H8.60874V8.72502C8.60874 8.44271 8.62963 8.16069 8.71455 7.95888C8.94699 7.39483 9.47606 6.81064 10.3643 6.81064C11.5278 6.81064 11.9933 7.67685 11.9933 8.94665V13.9999H15.2085V8.58381C15.2085 5.68244 13.6222 4.33246 11.5066 4.33246C9.77205 4.33246 9.01046 5.27917 8.58735 5.92397H8.60882V4.55403H5.39341C5.4356 5.44037 5.39341 13.9998 5.39341 13.9998L5.39333 14Z" fill="white"/>
</svg>
