<svg width="51" height="60" viewBox="0 0 51 60" fill="none" xmlns="http://www.w3.org/2000/svg">
<path fill-rule="evenodd" clip-rule="evenodd" d="M22.2501 0C19.431 0 17.1311 2.14084 16.8365 4.86013H14.1872C12.811 4.86013 11.5864 5.5343 10.826 6.56949H4.1703C1.87429 6.56949 0 8.44606 0 10.7449V55.8246C0 58.1234 1.87429 60 4.1703 60H40.33C42.626 60 44.5003 58.1234 44.5003 55.8246V50.3055C44.5003 49.4894 43.8396 48.8279 43.0245 48.8279C42.2094 48.8279 41.5487 49.4894 41.5487 50.3055V55.8246C41.5487 56.4913 40.9959 57.0448 40.33 57.0448H4.1703C3.50442 57.0448 2.9516 56.4913 2.9516 55.8246V10.7449C2.9516 10.0782 3.50442 9.52469 4.1703 9.52469H10.0169V11.4707H6.53568C5.72061 11.4707 5.05987 12.1323 5.05987 12.9483V53.7857C5.05987 54.6018 5.72061 55.2633 6.53568 55.2633H37.9646C38.7797 55.2633 39.4404 54.6018 39.4404 53.7857V50.3054C39.4404 49.4893 38.7797 48.8278 37.9646 48.8278C37.1495 48.8278 36.4888 49.4893 36.4888 50.3054V52.3081H8.01148V14.4259H10.0169V14.9253C10.0169 15.7414 10.6777 16.4029 11.4927 16.4029H33.0076C33.8226 16.4029 34.4834 15.7414 34.4834 14.9253V14.4259H36.4888V18.035C36.4888 18.851 37.1496 19.5126 37.9646 19.5126C38.7797 19.5126 39.4404 18.851 39.4404 18.035V12.9483C39.4404 12.1323 38.7797 11.4707 37.9646 11.4707H34.4834V9.52469H40.3095C40.9753 9.52469 41.5281 10.0782 41.5281 10.7449V18.0351C41.5281 18.8511 42.1889 19.5127 43.0039 19.5127C43.819 19.5127 44.4797 18.8511 44.4797 18.0351V10.7449C44.4797 8.44606 42.6055 6.56949 40.3095 6.56949H33.6743C32.9139 5.5343 31.6892 4.86013 30.3131 4.86013H27.6638C27.3692 2.14084 25.0693 0 22.2501 0ZM19.7562 5.4522C19.7562 4.08033 20.8693 2.9552 22.2501 2.9552C23.631 2.9552 24.7441 4.08033 24.7441 5.4522V6.33773C24.7441 7.15379 25.4048 7.81533 26.2199 7.81533H30.3131C30.9789 7.81533 31.5318 8.36882 31.5318 9.03551V13.4477H12.9685V9.03551C12.9685 8.36882 13.5213 7.81533 14.1872 7.81533H18.2804C19.0954 7.81533 19.7562 7.15379 19.7562 6.33773V5.4522Z" fill="#3B4DF8"/>
<path d="M33.131 39.9312C32.3159 39.9312 31.6552 40.5927 31.6552 41.4088C31.6552 42.2248 32.3159 42.8864 33.131 42.8864H33.5629C34.378 42.8864 35.0387 42.2248 35.0387 41.4088C35.0387 40.5927 34.378 39.9312 33.5629 39.9312H33.131Z" fill="#3B4DF8"/>
<path d="M36.2009 41.4088C36.2009 40.5927 36.8616 39.9312 37.6767 39.9312H38.1086C38.9237 39.9312 39.5844 40.5927 39.5844 41.4088C39.5844 42.2248 38.9237 42.8864 38.1086 42.8864H37.6767C36.8616 42.8864 36.2009 42.2248 36.2009 41.4088Z" fill="#3B4DF8"/>
<path fill-rule="evenodd" clip-rule="evenodd" d="M20.543 20.9644C19.7279 20.9644 19.0672 21.6259 19.0672 22.442V46.3925C19.0672 47.2086 19.7279 47.8701 20.543 47.8701H49.5242C49.9174 47.8701 50.2943 47.7131 50.5713 47.4338C50.8484 47.1544 51.0027 46.776 51 46.3824L50.8354 22.4318C50.8298 21.6198 50.1708 20.9644 49.3596 20.9644H20.543ZM29.4029 23.9196H34.4936V27.6911L32.8478 26.727C32.4024 26.466 31.8532 26.457 31.3994 26.7032L29.4029 27.7864V23.9196ZM26.4513 30.2676V23.9196H22.0188V44.9149H41.5076V23.9196H37.4453V30.2676C37.4453 30.797 37.1623 31.286 36.7036 31.5494C36.2449 31.8128 35.6805 31.8103 35.2242 31.543L32.0747 29.698L28.6302 31.5667C28.1729 31.8149 27.6189 31.8036 27.172 31.5372C26.7251 31.2707 26.4513 30.7884 26.4513 30.2676ZM44.4592 23.9196V44.9149H48.0382L47.894 23.9196H44.4592Z" fill="#3B4DF8"/>
</svg>
