<svg width="100" height="100" viewBox="0 0 100 100" fill="none" xmlns="http://www.w3.org/2000/svg">
<path fill-rule="evenodd" clip-rule="evenodd" d="M50.0133 33.9986C41.1686 33.9986 33.9985 41.1687 33.9985 50.0135C33.9985 58.8582 41.1686 66.0283 50.0133 66.0283C58.8581 66.0283 66.0282 58.8582 66.0282 50.0135C66.0282 41.1687 58.8581 33.9986 50.0133 33.9986ZM30.0128 50.0135C30.0128 38.9675 38.9674 30.0129 50.0133 30.0129C61.0593 30.0129 70.0139 38.9675 70.0139 50.0135C70.0139 61.0594 61.0593 70.014 50.0133 70.014C38.9674 70.014 30.0128 61.0594 30.0128 50.0135Z" fill="#009DDE"/>
<path fill-rule="evenodd" clip-rule="evenodd" d="M50.0134 14.5129C51.114 14.5129 52.0062 15.4051 52.0062 16.5057V31.979C52.0062 33.0796 51.114 33.9718 50.0134 33.9718C48.9128 33.9718 48.0205 33.0796 48.0205 31.979V16.5057C48.0205 15.4051 48.9128 14.5129 50.0134 14.5129Z" fill="#009DDE"/>
<path fill-rule="evenodd" clip-rule="evenodd" d="M50.0133 3.9857C48.4176 3.9857 47.1241 5.27925 47.1241 6.87493C47.1241 8.47061 48.4176 9.76417 50.0133 9.76417C51.609 9.76417 52.9026 8.47061 52.9026 6.87493C52.9026 5.27925 51.609 3.9857 50.0133 3.9857ZM43.1384 6.87493C43.1384 3.07801 46.2164 0 50.0133 0C53.8102 0 56.8883 3.07801 56.8883 6.87493C56.8883 10.6719 53.8102 13.7499 50.0133 13.7499C46.2164 13.7499 43.1384 10.6719 43.1384 6.87493Z" fill="#009DDE"/>
<path fill-rule="evenodd" clip-rule="evenodd" d="M49.9867 66.0282C51.0873 66.0282 51.9795 66.9205 51.9795 68.0211V83.4944C51.9795 84.595 51.0873 85.4872 49.9867 85.4872C48.8861 85.4872 47.9938 84.595 47.9938 83.4944V68.0211C47.9938 66.9205 48.8861 66.0282 49.9867 66.0282Z" fill="#009DDE"/>
<path fill-rule="evenodd" clip-rule="evenodd" d="M50.0133 90.2358C48.4176 90.2358 47.1241 91.5294 47.1241 93.1251C47.1241 94.7207 48.4176 96.0143 50.0133 96.0143C51.609 96.0143 52.9026 94.7207 52.9026 93.1251C52.9026 91.5294 51.609 90.2358 50.0133 90.2358ZM43.1384 93.1251C43.1384 89.3281 46.2164 86.2501 50.0133 86.2501C53.8102 86.2501 56.8883 89.3281 56.8883 93.1251C56.8883 96.922 53.8102 100 50.0133 100C46.2164 100 43.1384 96.922 43.1384 93.1251Z" fill="#009DDE"/>
<path fill-rule="evenodd" clip-rule="evenodd" d="M14.5129 49.9867C14.5129 48.8861 15.4051 47.9938 16.5057 47.9938H32.0057C33.1063 47.9938 33.9985 48.8861 33.9985 49.9867C33.9985 51.0873 33.1063 51.9795 32.0057 51.9795H16.5057C15.4051 51.9795 14.5129 51.0873 14.5129 49.9867Z" fill="#009DDE"/>
<path fill-rule="evenodd" clip-rule="evenodd" d="M6.87493 47.1241C5.27926 47.1241 3.9857 48.4177 3.9857 50.0134C3.9857 51.6091 5.27926 52.9026 6.87493 52.9026C8.47061 52.9026 9.76416 51.6091 9.76416 50.0134C9.76416 48.4177 8.47061 47.1241 6.87493 47.1241ZM0 50.0134C0 46.2165 3.07801 43.1384 6.87493 43.1384C10.6719 43.1384 13.7499 46.2165 13.7499 50.0134C13.7499 53.8103 10.6719 56.8883 6.87493 56.8883C3.07801 56.8883 0 53.8103 0 50.0134Z" fill="#009DDE"/>
<path fill-rule="evenodd" clip-rule="evenodd" d="M66.0282 50.0135C66.0282 48.9128 66.9204 48.0206 68.021 48.0206H83.4943C84.5949 48.0206 85.4871 48.9128 85.4871 50.0134C85.4871 51.1141 84.5949 52.0063 83.4943 52.0063H68.021C66.9204 52.0063 66.0282 51.1141 66.0282 50.0135Z" fill="#009DDE"/>
<path fill-rule="evenodd" clip-rule="evenodd" d="M93.1251 47.1241C91.5294 47.1241 90.2358 48.4177 90.2358 50.0134C90.2358 51.6091 91.5294 52.9026 93.1251 52.9026C94.7207 52.9026 96.0143 51.6091 96.0143 50.0134C96.0143 48.4177 94.7207 47.1241 93.1251 47.1241ZM86.2501 50.0134C86.2501 46.2165 89.3281 43.1384 93.1251 43.1384C96.922 43.1384 100 46.2165 100 50.0134C100 53.8103 96.922 56.8883 93.1251 56.8883C89.3281 56.8883 86.2501 53.8103 86.2501 50.0134Z" fill="#009DDE"/>
<path fill-rule="evenodd" clip-rule="evenodd" d="M24.9141 24.9141C25.6923 24.1359 26.9541 24.1359 27.7324 24.9141L38.6704 35.8521C39.4486 36.6304 39.4486 37.8922 38.6704 38.6704C37.8921 39.4487 36.6303 39.4487 35.8521 38.6704L24.9141 27.7324C24.1358 26.9542 24.1358 25.6924 24.9141 24.9141Z" fill="#009DDE"/>
<path fill-rule="evenodd" clip-rule="evenodd" d="M19.4937 16.6045C17.898 16.6045 16.6044 17.898 16.6044 19.4937C16.6044 21.0894 17.898 22.383 19.4937 22.383C21.0893 22.383 22.3829 21.0894 22.3829 19.4937C22.3829 17.898 21.0893 16.6045 19.4937 16.6045ZM12.6187 19.4937C12.6187 15.6968 15.6967 12.6188 19.4937 12.6188C23.2906 12.6188 26.3686 15.6968 26.3686 19.4937C26.3686 23.2906 23.2906 26.3687 19.4937 26.3687C15.6967 26.3687 12.6187 23.2906 12.6187 19.4937Z" fill="#009DDE"/>
<path fill-rule="evenodd" clip-rule="evenodd" d="M61.3029 61.3029C62.0812 60.5246 63.343 60.5246 64.1212 61.3029L75.0859 72.2675C75.8642 73.0458 75.8642 74.3076 75.0859 75.0858C74.3076 75.8641 73.0458 75.8641 72.2676 75.0858L61.3029 64.1212C60.5247 63.3429 60.5247 62.0811 61.3029 61.3029Z" fill="#009DDE"/>
<path fill-rule="evenodd" clip-rule="evenodd" d="M80.5063 77.617C78.9107 77.617 77.6171 78.9106 77.6171 80.5063C77.6171 82.102 78.9107 83.3955 80.5063 83.3955C82.102 83.3955 83.3956 82.102 83.3956 80.5063C83.3956 78.9106 82.102 77.617 80.5063 77.617ZM73.6314 80.5063C73.6314 76.7094 76.7094 73.6313 80.5063 73.6313C84.3033 73.6313 87.3813 76.7094 87.3813 80.5063C87.3813 84.3032 84.3033 87.3812 80.5063 87.3812C76.7094 87.3812 73.6314 84.3032 73.6314 80.5063Z" fill="#009DDE"/>
<path fill-rule="evenodd" clip-rule="evenodd" d="M38.6704 61.3296C39.4486 62.1079 39.4486 63.3697 38.6704 64.1479L27.7324 75.0859C26.9541 75.8642 25.6923 75.8642 24.9141 75.0859C24.1358 74.3077 24.1358 73.0459 24.9141 72.2676L35.8521 61.3296C36.6303 60.5514 37.8921 60.5514 38.6704 61.3296Z" fill="#009DDE"/>
<path fill-rule="evenodd" clip-rule="evenodd" d="M19.4937 77.617C17.898 77.617 16.6044 78.9106 16.6044 80.5063C16.6044 82.102 17.898 83.3955 19.4937 83.3955C21.0893 83.3955 22.3829 82.102 22.3829 80.5063C22.3829 78.9106 21.0893 77.617 19.4937 77.617ZM12.6187 80.5063C12.6187 76.7094 15.6967 73.6313 19.4937 73.6313C23.2906 73.6313 26.3686 76.7094 26.3686 80.5063C26.3686 84.3032 23.2906 87.3812 19.4937 87.3812C15.6967 87.3812 12.6187 84.3032 12.6187 80.5063Z" fill="#009DDE"/>
<path fill-rule="evenodd" clip-rule="evenodd" d="M75.0859 24.9141C75.8641 25.6924 75.8641 26.9542 75.0859 27.7324L64.1479 38.6704C63.3696 39.4487 62.1078 39.4487 61.3296 38.6704C60.5513 37.8922 60.5513 36.6304 61.3296 35.8521L72.2676 24.9141C73.0458 24.1359 74.3076 24.1359 75.0859 24.9141Z" fill="#009DDE"/>
<path fill-rule="evenodd" clip-rule="evenodd" d="M80.5063 16.6045C78.9107 16.6045 77.6171 17.898 77.6171 19.4937C77.6171 21.0894 78.9107 22.383 80.5063 22.383C82.102 22.383 83.3956 21.0894 83.3956 19.4937C83.3956 17.898 82.102 16.6045 80.5063 16.6045ZM73.6314 19.4937C73.6314 15.6968 76.7094 12.6188 80.5063 12.6188C84.3033 12.6188 87.3813 15.6968 87.3813 19.4937C87.3813 23.2906 84.3033 26.3687 80.5063 26.3687C76.7094 26.3687 73.6314 23.2906 73.6314 19.4937Z" fill="#009DDE"/>
<path fill-rule="evenodd" clip-rule="evenodd" d="M50.0133 43.6026C46.4728 43.6026 43.6026 46.4728 43.6026 50.0133C43.6026 53.5539 46.4728 56.4241 50.0133 56.4241C53.5539 56.4241 56.4241 53.5539 56.4241 50.0133C56.4241 46.4728 53.5539 43.6026 50.0133 43.6026ZM39.6169 50.0133C39.6169 44.2715 44.2715 39.6169 50.0133 39.6169C55.7551 39.6169 60.4098 44.2715 60.4098 50.0133C60.4098 55.7551 55.7551 60.4098 50.0133 60.4098C44.2715 60.4098 39.6169 55.7551 39.6169 50.0133Z" fill="#009DDE"/>
</svg>
