<svg width="72" height="80" viewBox="0 0 72 80" fill="none" xmlns="http://www.w3.org/2000/svg">
<path d="M70.6498 27.9868L36.9573 48.2343C36.6541 48.4158 36.3203 48.5103 35.982 48.5103C35.6436 48.5103 35.3099 48.4158 35.0067 48.2343L1.2263 27.9373C0.866982 27.7208 0.563129 27.3903 0.347262 26.9811C0.131394 26.572 0.011637 26.0996 0.000806005 25.6145C-0.010025 25.1294 0.0884779 24.6499 0.285773 24.2273C0.483069 23.8047 0.771731 23.4548 1.12087 23.2152L34.9013 0.348395C35.2343 0.12004 35.6107 0 35.9937 0C36.3766 0 36.753 0.12004 37.0861 0.348395L70.8724 23.2152C71.2304 23.4581 71.5254 23.8167 71.7241 24.2509C71.9228 24.6851 72.0175 25.1777 71.9974 25.6733C71.9773 26.169 71.8433 26.648 71.6104 27.0567C71.3776 27.4653 71.055 27.7874 70.6791 27.9868H70.6498ZM64.927 56.9633C64.4135 56.6253 64.0322 56.0547 63.8669 55.3769C63.7016 54.6992 63.7658 53.9698 64.0454 53.3492C64.3251 52.7287 64.7972 52.2678 65.358 52.068C65.9188 51.8682 66.5223 51.9458 67.0357 52.2837L70.7904 54.6766C71.3083 55.0063 71.6967 55.5711 71.8703 56.2468C72.0438 56.9225 71.9883 57.6539 71.7159 58.2801C71.4927 58.8022 71.1349 59.2221 70.6966 59.4765L36.9573 79.724C36.6541 79.9055 36.3203 80 35.982 80C35.6436 80 35.3099 79.9055 35.0067 79.724L1.2263 59.427C0.708769 59.1134 0.313813 58.5668 0.126474 57.9047C-0.0608654 57.2427 -0.0256041 56.5182 0.224666 55.8872C0.421538 55.3703 0.752672 54.9453 1.16773 54.6766L4.68225 52.4537C5.174 52.1301 5.74926 52.0449 6.29107 52.2157C6.83288 52.3864 7.30055 52.8001 7.59898 53.3727C7.89741 53.9453 8.0042 54.6338 7.89762 55.2981C7.79105 55.9625 7.47912 56.5528 7.02526 56.9492L35.9849 74.3435L64.927 56.9492V56.9633ZM65.0148 40.8503C64.6496 40.4011 64.4281 39.8099 64.3895 39.1818C64.3509 38.5537 64.4979 37.9295 64.8042 37.42C65.1105 36.9105 65.5564 36.5488 66.0625 36.3991C66.5687 36.2495 67.1024 36.3216 67.5687 36.6026L70.7845 38.6486C71.1484 38.879 71.4517 39.2279 71.6601 39.6557C71.8685 40.0835 71.9738 40.5732 71.9641 41.0696C71.9543 41.5659 71.8299 42.0491 71.6049 42.4645C71.3799 42.8798 71.0633 43.2109 70.6908 43.4202L36.9573 63.6676C36.6541 63.8492 36.3203 63.9436 35.982 63.9436C35.6436 63.9436 35.3099 63.8492 35.0067 63.6676L1.2263 43.3706C0.709849 43.0557 0.315884 42.509 0.128691 41.8474C-0.0585008 41.1859 -0.0240528 40.4621 0.224666 39.8309C0.422607 39.3148 0.753458 38.8901 1.16773 38.6203L4.62367 36.4185C5.11293 36.0853 5.68886 35.9899 6.23426 36.1517C6.77967 36.3135 7.25359 36.7204 7.55957 37.2895C7.86556 37.8587 7.98063 38.5474 7.88137 39.2155C7.78211 39.8835 7.47598 40.4808 7.02526 40.8857L36.0025 58.3013L65.0148 40.8503ZM35.9849 42.868L65.0148 25.4028L35.9849 5.73591L6.92568 25.4028L35.9849 42.868Z" fill="#1E87F0"/>
</svg>
