<svg width="25" height="24" viewBox="0 0 25 24" fill="none" xmlns="http://www.w3.org/2000/svg">
<path d="M12.1008 0C5.47377 0 0.100769 5.373 0.100769 12C0.100769 18.627 5.47377 24 12.1008 24C18.7278 24 24.1008 18.627 24.1008 12C24.1008 5.373 18.7278 0 12.1008 0ZM10.8668 7.278L17.3718 11.14C17.521 11.2285 17.6446 11.3544 17.7305 11.5052C17.8163 11.656 17.8615 11.8265 17.8615 12C17.8615 12.1735 17.8163 12.344 17.7305 12.4948C17.6446 12.6456 17.521 12.7715 17.3718 12.86L10.8668 16.722C10.639 16.8573 10.3795 16.9298 10.1146 16.9323C9.8497 16.9347 9.58888 16.867 9.35867 16.7359C9.12845 16.6048 8.93705 16.4152 8.80393 16.1861C8.67081 15.9571 8.60071 15.6969 8.60077 15.432V8.568C8.60071 8.30309 8.67081 8.0429 8.80393 7.81387C8.93705 7.58485 9.12845 7.39516 9.35867 7.2641C9.58888 7.13304 9.8497 7.06529 10.1146 7.06773C10.3795 7.07017 10.639 7.14272 10.8668 7.278Z" fill="white"/>
</svg>
