<svg width="92" height="80" viewBox="0 0 92 80" fill="none" xmlns="http://www.w3.org/2000/svg">
<path fill-rule="evenodd" clip-rule="evenodd" d="M9.375 22.1296H81.3765V58.7582H9.375V22.1296ZM19.2336 47.1071L16.2128 32.8678H20.9003L22.1875 42.383L24.1964 32.8929H27.9167L29.9182 42.383L30.945 32.8929H35.6325L32.6563 47.1322H27.6637L25.9598 40.2052L24.1518 47.0904L19.2336 47.1071ZM39.0253 47.1071L36.0045 32.8678H40.692L41.9792 42.383L43.9956 32.8929H47.7158L49.7098 42.383L50.7366 32.8929H55.4241L52.4479 47.1322H47.4628L45.7515 40.2052L43.9435 47.0904L39.0253 47.1071ZM58.817 47.1071L55.8036 32.8929H60.4911L61.756 42.383L63.7723 32.8929H67.4926L69.5015 42.383L70.5283 32.8929H75.2158L72.2396 47.1322H67.2545L65.5432 40.2052L63.7351 47.0904L58.817 47.1071ZM6.19048 0H85.2381C86.8787 0.00442375 88.451 0.740066 89.6111 2.04603C90.7712 3.352 91.4247 5.12199 91.4286 6.9689V73.0311C91.4227 74.8773 90.7686 76.646 89.609 77.9515C88.4493 79.257 86.8781 79.9934 85.2381 80H6.19048C4.54987 79.9956 2.97758 79.2599 1.81749 77.954C0.657401 76.648 0.00392962 74.878 0 73.0311L0 6.9689C0.00392962 5.12199 0.657401 3.352 1.81749 2.04603C2.97758 0.740066 4.54987 0.00442375 6.19048 0V0ZM87.7977 16.8359H3.93601V73.7096C3.93503 73.9629 3.97862 74.2139 4.06427 74.4481C4.14993 74.6823 4.27594 74.8952 4.43505 75.0743C4.59415 75.2534 4.7832 75.3952 4.99127 75.4917C5.19934 75.5881 5.42232 75.6372 5.64732 75.6361H86.0045C86.2295 75.6372 86.4525 75.5881 86.6605 75.4917C86.8686 75.3952 87.0577 75.2534 87.2168 75.0743C87.3759 74.8952 87.5019 74.6823 87.5875 74.4481C87.6732 74.2139 87.7168 73.9629 87.7158 73.7096V16.8359H87.7977ZM79.3453 6.04753C79.9501 6.04753 80.5413 6.24944 81.0442 6.62771C81.5471 7.00599 81.9391 7.54364 82.1705 8.17269C82.402 8.80174 82.4625 9.49393 82.3445 10.1617C82.2265 10.8295 81.9353 11.4429 81.5076 11.9244C81.0799 12.4058 80.5351 12.7337 79.9419 12.8665C79.3487 12.9994 78.7338 12.9312 78.175 12.6706C77.6162 12.4101 77.1386 11.9688 76.8026 11.4027C76.4666 10.8366 76.2872 10.171 76.2872 9.49011C76.2872 8.57708 76.6094 7.70145 77.1829 7.05584C77.7564 6.41023 78.5342 6.04753 79.3453 6.04753ZM58.631 6.04753C59.2358 6.04753 59.827 6.24944 60.3299 6.62771C60.8328 7.00599 61.2248 7.54364 61.4562 8.17269C61.6877 8.80174 61.7482 9.49393 61.6302 10.1617C61.5123 10.8295 61.221 11.4429 60.7933 11.9244C60.3657 12.4058 59.8208 12.7337 59.2276 12.8665C58.6344 12.9994 58.0195 12.9312 57.4607 12.6706C56.9019 12.4101 56.4243 11.9688 56.0883 11.4027C55.7523 10.8366 55.5729 10.171 55.5729 9.49011C55.5729 8.57708 55.8951 7.70145 56.4686 7.05584C57.0421 6.41023 57.8199 6.04753 58.631 6.04753ZM68.9881 6.04753C69.5929 6.04753 70.1842 6.24944 70.6871 6.62771C71.19 7.00599 71.5819 7.54364 71.8134 8.17269C72.0448 8.80174 72.1054 9.49393 71.9874 10.1617C71.8694 10.8295 71.5781 11.4429 71.1505 11.9244C70.7228 12.4058 70.1779 12.7337 69.5847 12.8665C68.9915 12.9994 68.3766 12.9312 67.8179 12.6706C67.2591 12.4101 66.7815 11.9688 66.4454 11.4027C66.1094 10.8366 65.9301 10.171 65.9301 9.49011C65.9301 8.57708 66.2523 7.70145 66.8258 7.05584C67.3993 6.41023 68.1771 6.04753 68.9881 6.04753ZM49.7545 70.979C49.0978 70.923 48.4842 70.5899 48.0364 70.0463C47.5887 69.5027 47.3399 68.7887 47.3399 68.0473C47.3399 67.306 47.5887 66.592 48.0364 66.0484C48.4842 65.5047 49.0978 65.1716 49.7545 65.1157H79.256C79.9126 65.1716 80.5263 65.5047 80.9741 66.0484C81.4218 66.592 81.6706 67.306 81.6706 68.0473C81.6706 68.7887 81.4218 69.5027 80.9741 70.0463C80.5263 70.5899 79.9126 70.923 79.256 70.979H49.7545ZM11.1607 70.979C10.518 70.9015 9.92351 70.5593 9.49149 70.0181C9.05947 69.4769 8.82046 68.7749 8.82046 68.0473C8.82046 67.3197 9.05947 66.6178 9.49149 66.0766C9.92351 65.5354 10.518 65.1931 11.1607 65.1157H38.4822C39.1248 65.1931 39.7194 65.5354 40.1514 66.0766C40.5834 66.6178 40.8224 67.3197 40.8224 68.0473C40.8224 68.7749 40.5834 69.4769 40.1514 70.0181C39.7194 70.5593 39.1248 70.9015 38.4822 70.979H11.1607Z" fill="#1E87F0"/>
</svg>
