<svg width="62" height="60" viewBox="0 0 62 60" fill="none" xmlns="http://www.w3.org/2000/svg">
<path fill-rule="evenodd" clip-rule="evenodd" d="M35.132 0.138409C35.4886 0.304584 35.7642 0.605982 35.8979 0.975894L40.9425 14.9358C41.2199 15.7036 40.8223 16.5509 40.0543 16.8282C39.2863 17.1056 38.4389 16.7081 38.1614 15.9403L33.6217 3.37758L29.1954 5.00149L31.4139 11.1481C31.5871 11.628 31.5006 12.1633 31.1849 12.5642C30.8692 12.9651 30.3691 13.1749 29.8618 13.1192L26.3995 12.739L23.9983 15.2809C23.6457 15.6542 23.1247 15.8178 22.622 15.7131C22.1193 15.6085 21.7069 15.2506 21.5326 14.7677L19.3158 8.62604L13.9992 10.5766L20.0426 26.6374L29.9788 22.9874C29.999 22.979 30.0195 22.9711 30.0403 22.9636L30.0614 22.9562C30.0697 22.9533 30.0779 22.9506 30.0862 22.9479L37.0909 20.3747C37.1139 20.3651 37.1372 20.356 37.1609 20.3474C37.1791 20.3409 37.1973 20.3347 37.2156 20.3289L47.0138 16.7295C47.3833 16.5938 47.7916 16.611 48.1483 16.7772C48.5051 16.9435 48.7808 17.2451 48.9144 17.6152L56.2426 37.9167C56.5198 38.6846 56.1218 39.5317 55.3538 39.8088C54.5857 40.0859 53.7384 39.6881 53.4612 38.9202L46.6378 20.0171L39.5529 22.6197L41.7731 28.7707C41.9463 29.2506 41.8597 29.7859 41.544 30.1868C41.2283 30.5876 40.7282 30.7974 40.2209 30.7417L36.7554 30.3612L34.333 32.9073C33.9798 33.2786 33.4594 33.4405 32.9578 33.3351C32.4562 33.2298 32.045 32.8723 31.871 32.3903L29.6566 26.2552L21.0837 29.4045L26.6175 44.1113C27.6233 43.7892 28.7094 43.6614 29.8285 43.7685C32.9215 44.0644 35.4328 46.0744 36.538 48.769L59.5116 40.3377C60.2781 40.0564 61.1276 40.4496 61.409 41.216C61.6904 41.9823 61.2971 42.8316 60.5306 43.1129L37.1449 51.6954C37.1511 52.0056 37.1398 52.3192 37.11 52.6352C36.6902 57.0957 32.758 60.389 28.3042 59.9629C23.8505 59.5368 20.6029 55.5567 21.0227 51.0962C21.2362 48.8285 22.3574 46.8626 23.9934 45.5336L10.5561 9.82228C9.8578 7.95022 8.08396 6.72362 6.10793 6.72362H1.4785C0.661948 6.72362 0 6.06183 0 5.24548C0 4.42913 0.661948 3.76734 1.4785 3.76734H6.10793C8.96959 3.76734 11.5636 5.35019 12.8945 7.83283L26.6769 2.77639C26.7174 2.75753 26.759 2.74032 26.8018 2.72488C26.8395 2.71131 26.8773 2.69935 26.9152 2.68898L33.998 0.090484C34.3673 -0.0450134 34.7754 -0.027766 35.132 0.138409ZM22.0919 7.60758L26.4193 6.01995L27.8276 9.92175L25.9911 9.7201C25.5306 9.66953 25.073 9.83772 24.7548 10.1745L23.4984 11.5045L22.0919 7.60758ZM32.4322 25.2356L36.7773 23.6394L38.1868 27.5443L36.3503 27.3426C35.8915 27.2923 35.4356 27.4589 35.1176 27.7932L33.84 29.136L32.4322 25.2356ZM28.5813 57.0197C25.7759 56.7513 23.6972 54.2357 23.9662 51.3778C24.2352 48.5199 26.7461 46.4433 29.5515 46.7117C32.3568 46.9801 34.4355 49.4957 34.1665 52.3536C33.8975 55.2115 31.3866 57.2881 28.5813 57.0197Z" fill="#3B4DF8"/>
<path d="M44.9192 42.2472C45.6814 41.9544 46.062 41.0994 45.7691 40.3373C45.4763 39.5752 44.621 39.1948 43.8588 39.4875L43.4228 39.655C42.6606 39.9477 42.28 40.8028 42.5729 41.5649C42.8657 42.3269 43.721 42.7074 44.4832 42.4146L44.9192 42.2472Z" fill="#3B4DF8"/>
<path d="M50.4821 38.6801C50.7423 39.4539 50.3258 40.292 49.5518 40.5521L49.1158 40.6987C48.3418 40.9588 47.5035 40.5423 47.2433 39.7685C46.9831 38.9947 47.3996 38.1566 48.1736 37.8965L48.6096 37.75C49.3836 37.4898 50.2219 37.9063 50.4821 38.6801Z" fill="#3B4DF8"/>
</svg>
