<svg width="87" height="60" viewBox="0 0 87 60" fill="none" xmlns="http://www.w3.org/2000/svg">
<path fill-rule="evenodd" clip-rule="evenodd" d="M29.9958 1.49339C29.9958 0.668613 30.6652 0 31.4909 0H85.5049C86.3306 0 87 0.668613 87 1.49339V56.2261C87 57.0508 86.3306 57.7194 85.5049 57.7194H64.2726C63.4468 57.7194 62.7775 57.0508 62.7775 56.2261C62.7775 55.4013 63.4468 54.7327 64.2726 54.7327H84.0098V2.98678H67.1471V15.1426C67.1471 15.6775 66.8607 16.1715 66.3962 16.4378C65.9318 16.704 65.3603 16.7019 64.8979 16.4321L57.9164 12.3586L50.9349 16.4321C50.4725 16.7019 49.9009 16.704 49.4365 16.4378C48.9721 16.1715 48.6857 15.6775 48.6857 15.1426V2.98678H32.9859V13.62C32.9859 14.4447 32.3166 15.1133 31.4909 15.1133C30.6652 15.1133 29.9958 14.4447 29.9958 13.62V1.49339ZM51.6758 2.98678V12.5407L57.1623 9.33958C57.6282 9.06775 58.2046 9.06775 58.6705 9.33958L64.1569 12.5407V2.98678H51.6758Z" fill="#3B4DF8"/>
<path fill-rule="evenodd" clip-rule="evenodd" d="M15.2077 4.78598C15.7925 4.20377 16.7392 4.20538 17.322 4.78957L26.4641 13.9525C27.0436 14.5332 27.0459 15.472 26.4693 16.0556L25.2521 17.2877L27.6396 19.6559L29.8678 18.9879C33.5993 17.8514 37.6611 18.4669 40.8983 20.6456L40.9006 20.6472L54.6905 29.8615C54.7005 29.8682 54.7104 29.875 54.7203 29.8819C55.712 30.5798 56.2043 31.7275 56.1061 32.8627L56.1043 32.8818C56.0581 33.3466 55.9143 33.8599 55.596 34.3421C53.5377 37.493 49.2445 38.3101 46.1928 36.0912L46.1897 36.089L42.2981 33.2832C42.1757 33.204 42.0554 33.1565 41.946 33.1325C41.7733 33.1315 41.5981 33.2003 41.4643 33.3362C41.2481 33.5888 41.255 33.9585 41.503 34.209L41.5042 34.2102L58.2737 50.959C60.2942 52.9901 60.1771 56.3537 57.8898 58.2243L57.8802 58.2321C55.8674 59.8508 53.0376 59.4724 51.3422 57.7721L51.3381 57.768L50.2351 56.6745C50.0067 57.2227 49.6702 57.7419 49.2182 58.1977C47.3315 60.1279 44.2802 60.1137 42.3781 58.25L42.1435 58.0259C42.0974 57.9897 42.053 57.9503 42.0105 57.9079L42.0067 57.9041L41.0862 56.9854C40.8529 57.5557 40.5069 58.0893 40.049 58.5511C38.1656 60.4778 35.0739 60.4767 33.1907 58.5853L33.1892 58.5838L31.5321 56.9264C31.3609 57.3547 31.122 57.7664 30.8107 58.1481L30.8081 58.1513C28.9782 60.3822 25.6567 60.543 23.6246 58.5396L23.624 58.539L17.6465 52.6388L17.6368 52.6292C16.2009 51.1858 14.935 49.567 13.897 47.8278L13.8943 47.8233C12.4474 45.3798 11.4694 42.6847 10.9525 39.9139L10.9488 39.8932L10.4073 36.7451L8.20236 34.5453L6.88686 35.8768C6.60712 36.16 6.22586 36.3199 5.82761 36.3212C5.42936 36.3226 5.04705 36.1651 4.76546 35.8838L0.437847 31.5607C-0.145989 30.9774 -0.145943 30.0319 0.43795 29.4487C1.02184 28.8655 1.96848 28.8656 2.55231 29.4488L5.81572 32.7088L21.9479 16.38C21.9859 16.3308 22.0273 16.2834 22.0723 16.2382C22.115 16.1952 22.1596 16.1554 22.2059 16.1188L23.2995 15.0118L15.2041 6.89795C14.6212 6.31375 14.6228 5.36819 15.2077 4.78598ZM23.1518 19.4136L10.3027 32.4193L12.8568 34.9675C13.0756 35.1859 13.2213 35.4667 13.2737 35.7712L13.894 39.3769C14.3512 41.8221 15.2114 44.18 16.4668 46.3008C17.3748 47.8216 18.4869 49.2456 19.7532 50.5192L25.7251 56.4139C26.5056 57.1833 27.781 57.1272 28.4939 56.2599C29.0583 55.5661 29.0133 54.4131 28.2395 53.6352L27.799 53.1924L27.7823 53.1757L27.7698 53.163L27.0087 52.398L26.6736 52.1092C26.0483 51.5705 25.9787 50.6275 26.518 50.0029C27.0574 49.3784 28.0014 49.3089 28.6267 49.8476L29.0053 50.1739C29.0343 50.1988 29.0623 50.2249 29.0893 50.2521L29.8981 51.0652L35.3103 56.4785C36.0221 57.1941 37.1985 57.1942 37.9117 56.4623L37.9225 56.4514C38.6396 55.7305 38.6396 54.5313 37.9064 53.8093L37.8955 53.7984L37.6369 53.5385L36.4321 52.3812C36.4239 52.3733 36.4158 52.3654 36.4078 52.3574L35.7316 51.6776C35.1496 51.0926 35.1527 50.147 35.7384 49.5657C36.3241 48.9843 37.2707 48.9873 37.8527 49.5724L38.5169 50.2401L39.7218 51.3975C39.73 51.4053 39.7381 51.4133 39.7461 51.4213L40.0116 51.6882C40.0873 51.763 40.16 51.8397 40.2297 51.9181C40.2667 51.9486 40.3027 51.9811 40.3373 52.0157L43.8959 55.5674L43.9111 55.5817L44.452 56.0983L44.4685 56.1143C45.2159 56.8503 46.3735 56.8347 47.0808 56.1089L47.0916 56.0979C47.4866 55.7009 47.6554 55.1663 47.6095 54.6436L47.6075 54.6189C47.5879 54.343 47.5023 54.0623 47.3468 53.8052C47.283 53.7319 47.2277 53.6539 47.1806 53.5724C47.1473 53.5324 47.112 53.4933 47.0747 53.4553L44.6272 51.103C44.0322 50.5312 44.0139 49.5858 44.5864 48.9915C45.1589 48.3971 46.1054 48.3789 46.7004 48.9507L49.1617 51.3162L49.1745 51.3286L49.1857 51.3398C49.3636 51.5186 49.525 51.708 49.6696 51.9058L53.4592 55.6627C54.197 56.4044 55.3097 56.4605 56.0004 55.9094C56.8994 55.1695 56.9436 53.8611 56.1541 53.0658L56.1526 53.0642L39.3865 36.3188L39.3831 36.3154C38.0135 34.9386 37.9627 32.7614 39.2498 31.3288C39.2572 31.3206 39.2647 31.3124 39.2723 31.3044C40.0441 30.4828 41.1406 30.0659 42.2455 30.1584C42.2803 30.1613 42.3149 30.1654 42.3493 30.1708C42.9244 30.2597 43.4813 30.4791 43.9814 30.8143C43.9955 30.8238 44.0096 30.8335 44.0234 30.8435L47.9453 33.6712L47.9508 33.6752C49.6038 34.8785 51.9596 34.4461 53.0933 32.7076L53.0997 32.6979C53.1033 32.6925 53.1195 32.6664 53.1277 32.597C53.1343 32.4887 53.0893 32.3921 53.0068 32.3299L39.2337 23.1268L39.2293 23.1238C36.7338 21.4435 33.6035 20.9718 30.7372 21.8456L30.7306 21.8476L27.6472 22.7721C27.1221 22.9295 26.5529 22.7872 26.1639 22.4014L23.1518 19.4136Z" fill="#3B4DF8"/>
<path d="M68.6543 46.8749C67.8286 46.8749 67.1592 47.5436 67.1592 48.3683C67.1592 49.1931 67.8286 49.8617 68.6543 49.8617H69.9796C70.8053 49.8617 71.4747 49.1931 71.4747 48.3683C71.4747 47.5436 70.8053 46.8749 69.9796 46.8749H68.6543Z" fill="#3B4DF8"/>
<path d="M74.6514 48.3683C74.6514 47.5436 75.3207 46.8749 76.1465 46.8749H77.4718C78.2975 46.8749 78.9669 47.5436 78.9669 48.3683C78.9669 49.1931 78.2975 49.8617 77.4718 49.8617H76.1465C75.3207 49.8617 74.6514 49.1931 74.6514 48.3683Z" fill="#3B4DF8"/>
</svg>
