<svg width="36" height="36" viewBox="0 0 36 36" fill="none" xmlns="http://www.w3.org/2000/svg">
<path d="M-6.10352e-05 31.5C-6.10352e-05 32.6935 0.474044 33.8381 1.31796 34.682C2.16187 35.5259 3.30646 36 4.49993 36H31.4999C32.6934 36 33.8379 35.5259 34.6819 34.682C35.5258 33.8381 35.9999 32.6935 35.9999 31.5V4.5C35.9999 3.30653 35.5258 2.16193 34.6819 1.31802C33.8379 0.474106 32.6934 0 31.4999 0L4.49993 0C3.30646 0 2.16187 0.474106 1.31796 1.31802C0.474044 2.16193 -6.10352e-05 3.30653 -6.10352e-05 4.5L-6.10352e-05 31.5ZM10.1249 16.875H23.1592L18.3284 12.0465C18.1172 11.8353 17.9985 11.5487 17.9985 11.25C17.9985 10.9513 18.1172 10.6647 18.3284 10.4535C18.5397 10.2423 18.8262 10.1236 19.1249 10.1236C19.4237 10.1236 19.7102 10.2423 19.9214 10.4535L26.6714 17.2035C26.7762 17.308 26.8593 17.4321 26.916 17.5688C26.9727 17.7055 27.0019 17.852 27.0019 18C27.0019 18.148 26.9727 18.2945 26.916 18.4312C26.8593 18.5679 26.7762 18.692 26.6714 18.7965L19.9214 25.5465C19.7102 25.7577 19.4237 25.8764 19.1249 25.8764C18.8262 25.8764 18.5397 25.7577 18.3284 25.5465C18.1172 25.3353 17.9985 25.0487 17.9985 24.75C17.9985 24.4513 18.1172 24.1647 18.3284 23.9535L23.1592 19.125H10.1249C9.82655 19.125 9.54041 19.0065 9.32943 18.7955C9.11845 18.5845 8.99992 18.2984 8.99992 18C8.99992 17.7016 9.11845 17.4155 9.32943 17.2045C9.54041 16.9935 9.82655 16.875 10.1249 16.875Z" fill="#0082FA"/>
</svg>
