<svg width="36" height="36" viewBox="0 0 36 36" fill="none" xmlns="http://www.w3.org/2000/svg">
<path fill-rule="evenodd" clip-rule="evenodd" d="M2.25 31.5C2.25 32.0967 2.48705 32.669 2.90901 33.091C3.33096 33.5129 3.90326 33.75 4.5 33.75L31.4999 33.75C32.0967 33.75 32.669 33.5129 33.0909 33.091C33.5129 32.669 33.7499 32.0967 33.7499 31.5L33.7499 4.5C33.7499 3.90327 33.5129 3.33097 33.0909 2.90901C32.669 2.48706 32.0967 2.25 31.4999 2.25L4.5 2.25C3.90326 2.25 3.33097 2.48705 2.90901 2.90901C2.48705 3.33097 2.25 3.90326 2.25 4.5L2.25 31.5ZM35.9999 31.5C35.9999 32.6935 35.5258 33.8381 34.6819 34.682C33.838 35.5259 32.6934 36 31.4999 36L4.5 36C3.30652 36 2.16193 35.5259 1.31802 34.682C0.47411 33.8381 4.02469e-06 32.6935 4.10049e-06 31.5L5.81521e-06 4.5C5.89101e-06 3.30653 0.474112 2.16193 1.31803 1.31802C2.16194 0.474106 3.30652 -1.19696e-07 4.5 2.39291e-08L31.4999 3.27316e-06C32.6934 3.41678e-06 33.838 0.474109 34.6819 1.31802C35.5258 2.16194 35.9999 3.30653 35.9999 4.5L35.9999 31.5ZM25.875 19.125C26.1733 19.125 26.4595 19.0065 26.6705 18.7955C26.8814 18.5845 27 18.2984 27 18C27 17.7016 26.8814 17.4155 26.6705 17.2045C26.4595 16.9935 26.1733 16.875 25.875 16.875L12.8407 16.875L17.6715 12.0465C17.7761 11.9419 17.859 11.8177 17.9157 11.6811C17.9723 11.5444 18.0014 11.3979 18.0014 11.25C18.0014 11.1021 17.9723 10.9556 17.9157 10.8189C17.859 10.6823 17.7761 10.5581 17.6715 10.4535C17.5669 10.3489 17.4427 10.2659 17.306 10.2093C17.1694 10.1527 17.0229 10.1236 16.875 10.1236C16.7271 10.1236 16.5806 10.1527 16.4439 10.2093C16.3072 10.2659 16.1831 10.3489 16.0785 10.4535L9.32849 17.2035C9.22372 17.308 9.1406 17.4321 9.08389 17.5688C9.02717 17.7055 8.99798 17.852 8.99798 18C8.99798 18.148 9.02717 18.2945 9.08389 18.4312C9.1406 18.5679 9.22372 18.692 9.32849 18.7965L16.0785 25.5465C16.1831 25.6511 16.3072 25.7341 16.4439 25.7907C16.5806 25.8473 16.7271 25.8764 16.875 25.8764C17.0229 25.8764 17.1694 25.8473 17.306 25.7907C17.4427 25.7341 17.5669 25.6511 17.6715 25.5465C17.7761 25.4419 17.859 25.3177 17.9157 25.1811C17.9723 25.0444 18.0014 24.8979 18.0014 24.75C18.0014 24.6021 17.9723 24.4556 17.9157 24.3189C17.859 24.1823 17.7761 24.0581 17.6715 23.9535L12.8407 19.125L25.875 19.125Z" fill="#0082FA"/>
</svg>
