<svg width="80" height="80" viewBox="0 0 80 80" fill="none" xmlns="http://www.w3.org/2000/svg">
<path d="M64.0755 65.1769C63.9128 64.7745 63.8216 64.3325 63.8216 63.8707C63.8216 63.4089 63.9128 62.9669 64.0755 62.5645C64.2448 62.1621 64.4857 61.7927 64.7852 61.4892L64.8047 61.4629C64.974 61.2913 65.1693 61.1264 65.3776 61.0011C65.4883 60.9285 65.6055 60.8625 65.7357 60.8032V55.3806H60.1953C60.026 56.568 59.4661 57.6367 58.6589 58.4613C57.6497 59.4838 56.25 60.1171 54.707 60.1171H51.3672V74.9072H61.1654C61.2174 74.8215 61.2695 74.7357 61.3281 74.65C61.4453 74.4784 61.5755 74.3201 61.7188 74.175C62.0247 73.8649 62.3958 73.6077 62.8125 73.4361C63.2096 73.2712 63.6458 73.1789 64.1016 73.1789C64.5508 73.1789 64.9935 73.2712 65.3906 73.4361C65.8073 73.6077 66.1719 73.8649 66.4844 74.175C66.7904 74.485 67.0443 74.8611 67.2135 75.2833C67.3763 75.6857 67.4674 76.1276 67.4674 76.5894C67.4674 77.0446 67.3763 77.48 67.2135 77.8956C67.0443 78.3178 66.7904 78.6938 66.4844 79.0039C66.1784 79.3139 65.8073 79.5712 65.3906 79.7427C64.9935 79.9076 64.5573 80 64.1016 80C63.6589 80 63.2357 79.9142 62.8385 79.7493L62.8125 79.7427C62.3958 79.5712 62.0313 79.3139 61.7188 79.0039C61.53 78.8126 61.3607 78.5883 61.2174 78.3574C61.1393 78.2254 61.0677 78.0803 61.0091 77.9418H49.8698C49.4531 77.9418 49.082 77.7703 48.8086 77.4932C48.5286 77.2095 48.3594 76.8335 48.3594 76.4113V60.1171H41.0677V73.5351C41.1784 73.5945 41.2891 73.6538 41.3997 73.7264C41.6016 73.8517 41.7904 74.0101 41.9531 74.175C42.2656 74.4916 42.513 74.8611 42.6823 75.2833C42.8451 75.6857 42.9362 76.1276 42.9362 76.5894C42.9362 77.038 42.8516 77.4668 42.6888 77.8692L42.6823 77.8956C42.513 78.3178 42.2591 78.6872 41.9531 79.0039C41.6471 79.3139 41.276 79.5712 40.8594 79.7427C40.4622 79.9076 40.026 80 39.5703 80C39.1211 80 38.6849 79.9076 38.2812 79.7427C37.8646 79.5712 37.4935 79.3139 37.1875 79.0039C36.8815 78.6938 36.6276 78.3178 36.4583 77.8956C36.2956 77.4932 36.2044 77.0512 36.2044 76.5894C36.2044 76.1408 36.2891 75.7121 36.4518 75.3096L36.4583 75.2833C36.6276 74.8611 36.8815 74.4916 37.1875 74.175C37.3503 74.0101 37.526 73.8649 37.7214 73.7396L37.7474 73.7198C37.8516 73.6604 37.9622 73.6011 38.0729 73.5417V60.1171H28.3464V67.0702C28.3464 67.4924 28.1771 67.8684 27.9036 68.1455C27.6302 68.4225 27.2591 68.594 26.8424 68.594H19.9414C19.8893 68.6996 19.8307 68.7985 19.7656 68.9041C19.6484 69.0822 19.5117 69.2537 19.3555 69.4121L19.3294 69.4384C19.0234 69.7485 18.6523 70.0058 18.2357 70.1773C17.8385 70.3422 17.4023 70.4346 16.9466 70.4346C16.5039 70.4346 16.0807 70.3488 15.6836 70.1839L15.6576 70.1773C15.2409 70.0058 14.8763 69.7485 14.5638 69.4384C14.2578 69.1284 14.0039 68.7524 13.8346 68.3302C13.6719 67.9278 13.5807 67.4858 13.5807 67.024C13.5807 66.5688 13.6719 66.1268 13.8346 65.7178C14.0039 65.2956 14.2578 64.9196 14.5638 64.6096C14.8828 64.3061 15.2604 64.0488 15.6771 63.8773C16.0742 63.7124 16.5104 63.62 16.9661 63.62C17.4219 63.62 17.8581 63.7124 18.2552 63.8773C18.6523 64.0488 19.0169 64.2929 19.3164 64.603L19.3424 64.6227C19.5117 64.7943 19.6745 64.9922 19.7982 65.2033C19.8633 65.3154 19.9349 65.4342 19.9935 65.5661H25.3451V59.9918C24.2839 59.7543 23.3333 59.2133 22.5977 58.4679C21.6146 57.4718 21.0091 56.1128 21.0091 54.6219V51.0002H5.03255V60.9285C5.11719 60.9813 5.20182 61.0341 5.28646 61.0934C5.45573 61.2122 5.60547 61.3441 5.75521 61.4892C6.0612 61.7993 6.3151 62.1753 6.48438 62.5975C6.64714 62.9999 6.73828 63.4419 6.73828 63.9037C6.73828 64.3589 6.64714 64.8075 6.48438 65.2099C6.3151 65.6321 6.0612 66.0015 5.75521 66.3181C5.44922 66.6282 5.07812 66.8855 4.66146 67.057C4.26432 67.2219 3.82812 67.3143 3.3724 67.3143C2.92318 67.3143 2.49349 67.2219 2.08333 67.057C1.66667 66.8855 1.29557 66.6282 0.989583 66.3181C0.683594 66.0081 0.429688 65.6321 0.260417 65.2099C0.0911458 64.7943 0 64.3523 0 63.8905C0 63.4419 0.0846354 63.0131 0.247396 62.6107L0.253906 62.5843C0.423177 62.1621 0.677083 61.7927 0.983073 61.476C1.17188 61.2847 1.39323 61.1132 1.62109 60.9681C1.74479 60.8889 1.89453 60.8164 2.03125 60.757V49.4764C2.03125 49.0542 2.20052 48.6782 2.47396 48.4011C2.75391 48.1174 3.125 47.9459 3.54167 47.9459H21.0091V40.5574H6.38672C6.32813 40.6696 6.26953 40.7817 6.19792 40.8939C6.07422 41.0984 5.91797 41.2897 5.75521 41.4546C5.44271 41.7713 5.07812 42.0219 4.66146 42.1935C4.26432 42.3584 3.82812 42.4507 3.3724 42.4507C2.92969 42.4507 2.50651 42.365 2.10938 42.2001L2.08333 42.1935C1.66667 42.0219 1.30208 41.7647 0.989583 41.4546C0.683594 41.1446 0.429688 40.7685 0.260417 40.3463C0.0976563 39.9439 0.00651042 39.5019 0.00651042 39.0402C0.00651042 38.585 0.0976563 38.143 0.260417 37.734C0.429688 37.3118 0.683594 36.9358 0.989583 36.6257C1.29557 36.3157 1.66667 36.0584 2.08333 35.8869C2.48698 35.7153 2.91667 35.623 3.37891 35.623C3.82161 35.623 4.24479 35.7088 4.64193 35.8737L4.66797 35.8803C5.08464 36.0518 5.44922 36.3091 5.76172 36.6191C5.92448 36.784 6.06771 36.9622 6.19792 37.1601L6.21745 37.1864C6.27604 37.292 6.33464 37.4041 6.39323 37.5163H21.0091V28.3401C21.0091 28.1158 21.0221 27.8915 21.0482 27.6672H12.7669C12.3503 27.6672 11.9792 27.4957 11.7057 27.2186C11.4323 26.9415 11.263 26.5655 11.263 26.1433V19.1507C11.1589 19.0979 11.0612 19.0385 10.957 18.9725C10.7812 18.8538 10.612 18.7153 10.4557 18.5569L10.4297 18.5306C10.1237 18.2205 9.86979 17.8445 9.70052 17.4223C9.53776 17.0199 9.44662 16.5779 9.44662 16.1161C9.44662 15.6675 9.53125 15.2387 9.69401 14.8363L9.70052 14.8099C9.86979 14.3877 10.1237 14.0183 10.4297 13.7017C10.7357 13.3916 11.1068 13.1343 11.5234 12.9628C11.9206 12.7979 12.3568 12.7055 12.8125 12.7055C13.2617 12.7055 13.6979 12.7979 14.1016 12.9628C14.5182 13.1343 14.8893 13.3916 15.1953 13.7017C15.4948 14.0249 15.7487 14.4075 15.918 14.8297C16.0807 15.2321 16.1719 15.6741 16.1719 16.1359C16.1719 16.5977 16.0807 17.0397 15.918 17.4421C15.7487 17.8445 15.5078 18.2139 15.2083 18.5174L15.1888 18.5437C15.0195 18.7153 14.8242 18.8802 14.6094 19.0055C14.4987 19.0715 14.3815 19.1441 14.2513 19.2034V24.626H22.4219V24.6656C22.474 24.6063 22.5326 24.5469 22.5846 24.4941C23.5938 23.4716 24.9935 22.8383 26.5365 22.8383H29.668V5.09937H19.8828C19.8307 5.18512 19.7786 5.27088 19.7201 5.35664C19.6029 5.52816 19.4727 5.67989 19.3294 5.83162C19.0234 6.14167 18.6523 6.39894 18.2357 6.57046C17.8385 6.73538 17.4023 6.82774 16.9466 6.82774C16.4974 6.82774 16.0547 6.73538 15.6576 6.57046C15.2409 6.39894 14.8763 6.14167 14.5638 5.83162C14.2578 5.52156 14.0039 5.14554 13.8346 4.72334C13.6719 4.31434 13.5807 3.87895 13.5807 3.41057C13.5807 2.95539 13.6719 2.52 13.8346 2.1044C14.0039 1.6822 14.2578 1.30618 14.5638 0.996124C14.8698 0.686072 15.2409 0.428795 15.6576 0.257277C16.0547 0.0923559 16.4909 0 16.9466 0C17.3893 0 17.8125 0.0857591 18.2096 0.25068L18.2357 0.257277C18.6523 0.428795 19.0169 0.686072 19.3294 0.996124C19.5182 1.18743 19.6875 1.41173 19.8307 1.64262C19.9089 1.76796 19.9805 1.91968 20.0456 2.05822H31.1719C31.5885 2.05822 31.9596 2.22974 32.2331 2.5068C32.513 2.79047 32.6823 3.16649 32.6823 3.58869V22.8383H39.974V6.47151C39.8633 6.41214 39.7526 6.35277 39.6419 6.2802C39.4401 6.15486 39.2513 5.99654 39.0885 5.83162C38.776 5.51497 38.5286 5.14554 38.3594 4.72334C38.1966 4.32094 38.1055 3.87895 38.1055 3.41717C38.1055 2.96858 38.1901 2.53979 38.3529 2.13738L38.3594 2.11099C38.5286 1.68879 38.7826 1.31937 39.0885 1.00272C39.3945 0.692669 39.7656 0.435392 40.1823 0.263874C40.5794 0.0989528 41.0156 0.00659685 41.4714 0.00659685C41.9206 0.00659685 42.3568 0.0989528 42.7604 0.263874C43.1771 0.435392 43.5482 0.692669 43.8542 1.00272C44.1602 1.31277 44.4141 1.68879 44.5833 2.11099C44.7461 2.5134 44.8372 2.95539 44.8372 3.41717C44.8372 3.86575 44.7526 4.29455 44.5898 4.69696L44.5833 4.72334C44.4141 5.14554 44.1602 5.51497 43.8542 5.83162C43.6914 5.99654 43.5156 6.14167 43.3203 6.2736L43.2943 6.2934C43.1901 6.35277 43.0794 6.41214 42.9688 6.47151V22.8317H52.6888V12.9364C52.6888 12.5142 52.8581 12.1382 53.1315 11.8611C53.4049 11.5841 53.776 11.4125 54.1927 11.4125H61.1003C61.1523 11.307 61.2109 11.208 61.276 11.1025C61.3932 10.9244 61.5299 10.7529 61.6862 10.5945L61.7122 10.5682C62.0182 10.2581 62.3893 10.0008 62.806 9.82931C63.2031 9.66438 63.6393 9.57203 64.0951 9.57203C64.5378 9.57203 64.9609 9.65779 65.3581 9.82271L65.3841 9.82931C65.8008 10.0008 66.1654 10.2581 66.4779 10.5682C66.7839 10.8782 67.0378 11.2542 67.207 11.6764C67.3698 12.0788 67.4609 12.5208 67.4609 12.9826C67.4609 13.4378 67.3698 13.8798 67.207 14.2888C67.0378 14.711 66.7839 15.087 66.4779 15.397C66.1523 15.7005 65.7812 15.9578 65.3646 16.1293C64.9675 16.2942 64.5312 16.3866 64.0755 16.3866C63.6198 16.3866 63.1836 16.2942 62.7865 16.1293C62.3893 15.9578 62.0247 15.7137 61.7253 15.4102L61.6992 15.3905C61.5299 15.2189 61.3672 15.021 61.2435 14.8099C61.1719 14.6978 61.1068 14.579 61.0482 14.4471H55.6966V22.9175C56.849 23.122 57.8776 23.6893 58.6654 24.4875C59.6484 25.4836 60.2539 26.8426 60.2539 28.3335V29.0129H74.9675V19.0847C74.8828 19.0319 74.7982 18.9791 74.7135 18.9198C74.5443 18.801 74.3945 18.6691 74.2513 18.524C73.9453 18.2139 73.6914 17.8379 73.5221 17.4157C73.3594 17.0133 73.2682 16.5713 73.2682 16.1095C73.2682 15.6543 73.3594 15.2057 73.5221 14.8033C73.6914 14.3811 73.9453 14.0117 74.2513 13.6951C74.5573 13.385 74.9284 13.1277 75.3451 12.9562C75.7422 12.7913 76.1784 12.6989 76.6341 12.6989C77.0833 12.6989 77.5195 12.7913 77.9232 12.9562C78.3399 13.1277 78.7109 13.385 79.0169 13.6951C79.3229 14.0051 79.5768 14.3811 79.7461 14.8033C79.9089 15.2057 80 15.6477 80 16.1095C80 16.5581 79.9154 16.9869 79.7526 17.3893L79.7461 17.4157C79.5768 17.8379 79.3229 18.2073 79.0169 18.524C78.8281 18.7153 78.6068 18.8868 78.3789 19.0319C78.2487 19.1111 78.1055 19.1836 77.9688 19.2496V30.5236C77.9688 30.9458 77.7995 31.3218 77.526 31.5989C77.2461 31.8826 76.875 32.0541 76.4583 32.0541H60.2539V39.4426H73.6133C73.6719 39.3304 73.7305 39.2183 73.8021 39.1061C73.9323 38.9016 74.082 38.7103 74.2448 38.5454C74.5573 38.2287 74.9219 37.9781 75.3385 37.8065C75.7357 37.6416 76.1719 37.5493 76.6276 37.5493C77.0703 37.5493 77.4935 37.635 77.8906 37.7999L77.9167 37.8065C78.3333 37.9781 78.6979 38.2353 79.0104 38.5454C79.3164 38.8554 79.5703 39.2315 79.7396 39.6537C79.9024 40.0561 79.9935 40.4981 79.9935 40.9598C79.9935 41.415 79.9024 41.857 79.7396 42.266C79.5703 42.6882 79.3164 43.0642 79.0104 43.3743C78.7044 43.6843 78.3333 43.9416 77.9167 44.1131C77.5195 44.2781 77.0833 44.3704 76.6276 44.3704C76.1849 44.3704 75.7617 44.2847 75.3646 44.1197L75.3385 44.1131C74.9219 43.9416 74.5573 43.6843 74.2448 43.3743C74.082 43.2094 73.9388 43.0313 73.8086 42.8333L73.7891 42.807C73.7305 42.7014 73.6719 42.5893 73.6133 42.4771H60.2539V52.3262H67.2331C67.6497 52.3262 68.0208 52.4977 68.2943 52.7748C68.5677 53.0519 68.737 53.4279 68.737 53.8501V60.8493C68.8411 60.9021 68.9388 60.9615 69.043 61.0341C69.2188 61.1528 69.388 61.2913 69.5443 61.4497L69.5703 61.476C69.8763 61.7861 70.1302 62.1621 70.2995 62.5843C70.4622 62.9867 70.5534 63.4287 70.5534 63.8905C70.5534 64.3391 70.4688 64.7679 70.306 65.1703L70.2995 65.1967C70.1302 65.6189 69.8763 65.9883 69.5703 66.3049C69.2643 66.615 68.8932 66.8723 68.4766 67.0438C68.0794 67.2087 67.6432 67.3011 67.1875 67.3011C66.7383 67.3011 66.3021 67.2087 65.8984 67.0438C65.4818 66.8723 65.1107 66.615 64.8047 66.3049C64.5052 65.9817 64.2448 65.5991 64.0755 65.1769ZM34.8242 34.396H46.4388C47.3438 34.396 48.0794 35.1414 48.0794 36.0584V46.897C48.0794 47.814 47.3438 48.5594 46.4388 48.5594H34.8242C33.9193 48.5594 33.1836 47.814 33.1836 46.897V36.0584C33.1836 35.1414 33.9193 34.396 34.8242 34.396ZM54.7135 25.7805H26.543C25.8984 25.7805 25.306 26.051 24.8763 26.493C24.4141 26.9613 24.1276 27.6144 24.1276 28.3401V54.6153C24.1276 55.341 24.4141 55.9941 24.8763 56.4624C25.3125 56.9044 25.8984 57.1749 26.543 57.1749H54.7135C55.3581 57.1749 55.9505 56.9044 56.3802 56.4624C56.8424 55.9941 57.1289 55.341 57.1289 54.6153V28.3401C57.1289 27.6144 56.8424 26.9613 56.3802 26.493C55.9505 26.051 55.3581 25.7805 54.7135 25.7805Z" fill="#1E87F0"/>
</svg>
