<svg width="80" height="60" viewBox="0 0 80 60" fill="none" xmlns="http://www.w3.org/2000/svg">
<path d="M1.09195e-08 7.4973C1.09195e-08 5.50889 0.790176 3.60193 2.1967 2.19591C3.60322 0.789892 5.51088 0 7.5 0H52.5C54.4891 0 56.3968 0.789892 57.8033 2.19591C59.2098 3.60193 60 5.50889 60 7.4973V14.9946H65.1C66.2237 14.9956 67.3328 15.249 68.3454 15.7361C69.3579 16.2231 70.2481 16.9314 70.95 17.8086L78.355 27.0553C79.4204 28.3857 80.0007 30.0393 80 31.7436V42.4847C80 44.4731 79.2098 46.3801 77.8033 47.7861C76.3968 49.1921 74.4891 49.982 72.5 49.982H70C70 52.6332 68.9464 55.1759 67.0711 57.0505C65.1957 58.9252 62.6522 59.9784 60 59.9784C57.3478 59.9784 54.8043 58.9252 52.9289 57.0505C51.0536 55.1759 50 52.6332 50 49.982H25C25.0029 51.3145 24.7392 52.634 24.2246 53.8632C23.71 55.0923 22.9547 56.2062 22.0032 57.1393C21.0518 58.0724 19.9233 58.806 18.6841 59.2969C17.4449 59.7878 16.1201 60.0261 14.7875 59.9977C13.4548 59.9694 12.1413 59.6751 10.9241 59.132C9.70697 58.5889 8.61068 57.808 7.69974 56.8353C6.7888 55.8626 6.08158 54.7176 5.61967 53.4678C5.15776 52.2179 4.95047 50.8883 5.01 49.5572C3.54524 49.0418 2.27661 48.0847 1.37922 46.8179C0.481828 45.551 -8.37598e-05 44.037 1.09195e-08 42.4847L1.09195e-08 7.4973ZM6.47 44.7639C7.37401 43.2844 8.64756 42.0655 10.1655 41.227C11.6834 40.3885 13.3935 39.9592 15.1276 39.9814C16.8618 40.0036 18.5603 40.4765 20.0563 41.3535C21.5522 42.2306 22.7942 43.4817 23.66 44.9838H51.34C52.2195 43.4657 53.4814 42.2043 55 41.3251V7.4973C55 6.8345 54.7366 6.19884 54.2678 5.73017C53.7989 5.2615 53.163 4.9982 52.5 4.9982H7.5C6.83696 4.9982 6.20107 5.2615 5.73223 5.73017C5.26339 6.19884 5 6.8345 5 7.4973V42.4847C4.99961 42.9658 5.1381 43.4367 5.39885 43.841C5.6596 44.2452 6.03154 44.5657 6.47 44.7639ZM60 39.9856C61.7553 39.9857 63.4797 40.4476 64.9999 41.3249C66.52 42.2023 67.7823 43.4642 68.66 44.9838H72.5C73.163 44.9838 73.7989 44.7205 74.2678 44.2519C74.7366 43.7832 75 43.1475 75 42.4847V31.7386C74.999 31.1714 74.805 30.6215 74.45 30.1791L67.05 20.9325C66.8162 20.6398 66.5195 20.4034 66.182 20.2407C65.8445 20.0781 65.4747 19.9933 65.1 19.9928H60V39.9856ZM15 44.9838C13.6739 44.9838 12.4021 45.5104 11.4645 46.4478C10.5268 47.3851 10 48.6564 10 49.982C10 51.3076 10.5268 52.5789 11.4645 53.5163C12.4021 54.4536 13.6739 54.9802 15 54.9802C16.3261 54.9802 17.5979 54.4536 18.5355 53.5163C19.4732 52.5789 20 51.3076 20 49.982C20 48.6564 19.4732 47.3851 18.5355 46.4478C17.5979 45.5104 16.3261 44.9838 15 44.9838ZM60 44.9838C58.6739 44.9838 57.4021 45.5104 56.4645 46.4478C55.5268 47.3851 55 48.6564 55 49.982C55 51.3076 55.5268 52.5789 56.4645 53.5163C57.4021 54.4536 58.6739 54.9802 60 54.9802C61.3261 54.9802 62.5979 54.4536 63.5355 53.5163C64.4732 52.5789 65 51.3076 65 49.982C65 48.6564 64.4732 47.3851 63.5355 46.4478C62.5979 45.5104 61.3261 44.9838 60 44.9838Z" fill="#00B8A7"/>
</svg>
