<svg width="80" height="50" viewBox="0 0 80 50" fill="none" xmlns="http://www.w3.org/2000/svg">
<path d="M1.32443 41.531C-0.407281 43.427 -0.446342 46.5502 1.2398 48.505C2.91942 50.4597 5.68625 50.5038 7.41796 48.6005L25.4186 28.7735L40.4702 45.1686C42.2084 47.0573 44.9752 46.9985 46.6483 45.0364L71.2373 16.9494V31.1104C71.2373 33.8442 73.1969 36.0562 75.6186 36.0562C78.0404 36.0562 80 33.8442 80 31.1104V4.92677H79.987C79.987 3.64809 79.5508 2.37675 78.6849 1.41406C77.767 0.392583 76.5431 -0.0777386 75.3452 0.0104466H53.6468C51.225 0.0104466 49.2654 2.22243 49.2654 4.95617C49.2654 7.68991 51.225 9.90189 53.6468 9.90189H65.1242L43.4258 34.6819L28.4328 18.3456C26.7402 16.5084 24.0515 16.5011 22.3588 18.3677L1.32443 41.531Z" fill="#00B8A7"/>
</svg>
