<svg width="95" height="35" viewBox="0 0 95 35" fill="none" xmlns="http://www.w3.org/2000/svg">
<path d="M37.3881 0.000976562H7.20924C4.86916 0.000976562 3.37071 2.52086 4.4657 4.61573L7.4844 10.4058H2.01185C1.66528 10.4059 1.32461 10.4967 1.02284 10.6693C0.721068 10.842 0.468423 11.0906 0.289375 11.3912C0.110326 11.6917 0.0109436 12.034 0.000853294 12.3849C-0.00923698 12.7358 0.0703063 13.0834 0.23178 13.3941L9.94148 32.0092C10.1127 32.3366 10.3687 32.6105 10.682 32.8016C10.9954 32.9926 11.3542 33.0936 11.7199 33.0936C12.0857 33.0936 12.4445 32.9926 12.7579 32.8016C13.0712 32.6105 13.3272 32.3366 13.4984 32.0092L16.1354 26.9808L19.4438 33.3251C20.6082 35.5565 23.7624 35.5606 24.9309 33.3316L40.0574 4.49885C41.1266 2.45956 39.6677 0.000976562 37.3881 0.000976562ZM23.8318 12.3201L17.3095 24.7552C17.1955 24.9729 17.0251 25.1551 16.8166 25.2821C16.6081 25.4091 16.3694 25.4763 16.1261 25.4763C15.8828 25.4763 15.6441 25.4091 15.4357 25.2821C15.2272 25.1551 15.0568 24.9729 14.9428 24.7552L8.48337 12.3724C8.37541 12.1659 8.32191 11.9347 8.32805 11.7012C8.33419 11.4676 8.39976 11.2396 8.51842 11.0393C8.63707 10.8389 8.80479 10.673 9.00533 10.5576C9.20587 10.4422 9.43244 10.3812 9.66309 10.3805H22.6812C22.9061 10.3805 23.1271 10.4395 23.3228 10.5516C23.5186 10.6638 23.6823 10.8253 23.7981 11.0206C23.914 11.2158 23.9779 11.4381 23.9838 11.6658C23.9898 11.8935 23.9374 12.1189 23.8318 12.3201Z" fill="white"/>
<path d="M69.4875 13.3769H66.1864V24.8369C66.1862 24.9413 66.1451 25.0414 66.0723 25.1153C65.9994 25.1891 65.9006 25.2307 65.7975 25.2309H63.2516C63.1485 25.2307 63.0497 25.1891 62.9768 25.1153C62.9039 25.0414 62.8629 24.9413 62.8627 24.8369V13.3769H59.5422C59.4922 13.379 59.4423 13.3709 59.3955 13.353C59.3486 13.3352 59.3058 13.308 59.2695 13.2731C59.2332 13.2382 59.2042 13.1962 59.1843 13.1498C59.1643 13.1033 59.1538 13.0532 59.1533 13.0025V10.9755C59.1538 10.9248 59.1643 10.8748 59.1843 10.8283C59.2042 10.7818 59.2332 10.7399 59.2695 10.7049C59.3058 10.67 59.3486 10.6428 59.3955 10.625C59.4423 10.6072 59.4922 10.5991 59.5422 10.6012H69.4867C69.5898 10.5963 69.6906 10.6329 69.7671 10.703C69.8436 10.7732 69.8896 10.8711 69.895 10.9755V13.0034C69.8894 13.1074 69.8434 13.2051 69.7671 13.275C69.6908 13.3449 69.5903 13.3816 69.4875 13.3769Z" fill="white"/>
<path d="M80.0848 25.1483C79.4046 25.2464 78.2604 25.4042 76.1616 25.4042C73.6545 25.4042 71.4395 24.7544 71.4395 21.1719V14.6332C71.4395 11.0507 73.6746 10.4205 76.1809 10.4205C78.2789 10.4205 79.4046 10.5783 80.0848 10.6764C80.3568 10.7156 80.4738 10.8145 80.4738 11.0703V12.9036C80.4736 13.0081 80.4325 13.1081 80.3596 13.182C80.2867 13.2558 80.1879 13.2974 80.0848 13.2976H75.9873C75.0738 13.2976 74.7438 13.6123 74.7438 14.6364V16.4281H79.9299C80.033 16.4283 80.1318 16.4698 80.2047 16.5437C80.2776 16.6175 80.3186 16.7176 80.3188 16.822V18.6921C80.3186 18.7965 80.2776 18.8966 80.2047 18.9704C80.1318 19.0443 80.033 19.0859 79.9299 19.0861H74.7438V21.1728C74.7438 22.1961 75.0738 22.5116 75.9873 22.5116H80.0848C80.1879 22.5118 80.2867 22.5534 80.3596 22.6272C80.4325 22.701 80.4736 22.8011 80.4738 22.9055V24.7364C80.4738 24.9906 80.3568 25.1091 80.0848 25.1483Z" fill="white"/>
<path d="M94.7474 25.2268H91.6577C91.4051 25.2268 91.2881 25.1451 91.1526 24.9318L88.4736 20.6235L86.0464 24.8369C85.91 25.0732 85.7744 25.2309 85.5622 25.2309H82.6863C82.4919 25.2309 82.3951 25.1124 82.3951 24.9751C82.3988 24.9269 82.412 24.8799 82.4338 24.8369L86.6435 17.726L82.3902 10.9739C82.3686 10.9378 82.3554 10.8973 82.3515 10.8554C82.3584 10.783 82.3925 10.7162 82.4467 10.6686C82.5009 10.621 82.5711 10.5963 82.6428 10.5995H85.7712C85.985 10.5995 86.1408 10.7965 86.2554 10.9739L88.7415 14.9503L91.1477 10.9739C91.2446 10.7965 91.4197 10.5995 91.6319 10.5995H94.5078C94.5794 10.5963 94.6496 10.621 94.7038 10.6686C94.758 10.7162 94.7921 10.783 94.7991 10.8554C94.7951 10.8973 94.7819 10.9378 94.7603 10.9739L90.528 17.7677L94.9419 24.8369C94.9763 24.897 94.9963 24.9645 95 25.0339C95.0008 25.1483 94.9032 25.2268 94.7474 25.2268Z" fill="white"/>
<path d="M54.4957 10.6404C54.4263 10.6406 54.3591 10.6651 54.3056 10.7098C54.252 10.7545 54.2154 10.8166 54.202 10.8856L51.381 21.4613C51.3422 21.6779 51.2841 21.7563 51.109 21.7563C50.9339 21.7563 50.8758 21.6746 50.8371 21.4613L48.0129 10.8831C47.9995 10.8142 47.9628 10.752 47.9093 10.7073C47.8557 10.6626 47.7886 10.6381 47.7192 10.6379H44.9425C44.8974 10.638 44.8528 10.6483 44.8122 10.6683C44.7715 10.6882 44.7358 10.7171 44.7078 10.7529C44.6797 10.7888 44.66 10.8305 44.65 10.8751C44.6401 10.9198 44.6402 10.9661 44.6504 11.0106C44.6504 11.0106 48.096 23.1393 48.1339 23.2586C48.5939 24.7037 49.7098 25.3943 51.13 25.3943C52.4824 25.3943 53.663 24.671 54.1245 23.2627C54.1794 23.0992 57.5483 11.0098 57.5483 11.0098C57.5583 10.9653 57.5584 10.9191 57.5484 10.8746C57.5384 10.8301 57.5186 10.7884 57.4906 10.7527C57.4625 10.717 57.4269 10.6881 57.3863 10.6682C57.3457 10.6484 57.3013 10.638 57.2562 10.6379L54.4957 10.6404Z" fill="white"/>
<path d="M37.3881 0.000976562H7.20924C4.86916 0.000976562 3.37071 2.52086 4.4657 4.61573L7.4844 10.4058H2.01185C1.66528 10.4059 1.32461 10.4967 1.02284 10.6693C0.721068 10.842 0.468423 11.0906 0.289375 11.3912C0.110326 11.6917 0.0109436 12.034 0.000853294 12.3849C-0.00923698 12.7358 0.0703063 13.0834 0.23178 13.3941L9.94148 32.0092C10.1127 32.3366 10.3687 32.6105 10.682 32.8016C10.9954 32.9926 11.3542 33.0936 11.7199 33.0936C12.0857 33.0936 12.4445 32.9926 12.7579 32.8016C13.0712 32.6105 13.3272 32.3366 13.4984 32.0092L16.1354 26.9808L19.4438 33.3251C20.6082 35.5565 23.7624 35.5606 24.9309 33.3316L40.0574 4.49885C41.1266 2.45956 39.6677 0.000976562 37.3881 0.000976562ZM23.8318 12.3201L17.3095 24.7552C17.1955 24.9729 17.0251 25.1551 16.8166 25.2821C16.6081 25.4091 16.3694 25.4763 16.1261 25.4763C15.8828 25.4763 15.6441 25.4091 15.4357 25.2821C15.2272 25.1551 15.0568 24.9729 14.9428 24.7552L8.48337 12.3724C8.37541 12.1659 8.32191 11.9347 8.32805 11.7012C8.33419 11.4676 8.39976 11.2396 8.51842 11.0393C8.63707 10.8389 8.80479 10.673 9.00533 10.5576C9.20587 10.4422 9.43244 10.3812 9.66309 10.3805H22.6812C22.9061 10.3805 23.1271 10.4395 23.3228 10.5516C23.5186 10.6638 23.6823 10.8253 23.7981 11.0206C23.914 11.2158 23.9779 11.4381 23.9838 11.6658C23.9898 11.8935 23.9374 12.1189 23.8318 12.3201Z" fill="white"/>
</svg>
