<svg width="36" height="36" viewBox="0 0 36 36" fill="none" xmlns="http://www.w3.org/2000/svg">
<path fill-rule="evenodd" clip-rule="evenodd" d="M2.37672 31.5C2.37672 32.0967 2.60733 32.669 3.01784 33.091C3.42834 33.5129 3.9851 33.75 4.56564 33.75L30.8327 33.75C31.4132 33.75 31.97 33.5129 32.3805 33.091C32.791 32.669 33.0216 32.0967 33.0216 31.5L33.0216 4.5C33.0216 3.90326 32.791 3.33097 32.3805 2.90901C31.97 2.48705 31.4132 2.25 30.8327 2.25L4.56564 2.25C3.9851 2.25 3.42834 2.48705 3.01784 2.90901C2.60734 3.33096 2.37672 3.90326 2.37672 4.5L2.37672 31.5ZM35.2105 31.5C35.2105 32.6935 34.7493 33.8381 33.9283 34.682C33.1073 35.5259 31.9937 36 30.8327 36L4.56564 36C3.40456 36 2.29104 35.5259 1.47004 34.682C0.649033 33.8381 0.187798 32.6935 0.187798 31.5L0.187799 4.5C0.187799 3.30652 0.649035 2.16193 1.47004 1.31802C2.29104 0.474101 3.40456 -4.27461e-06 4.56564 -4.11856e-06L30.8327 -5.88366e-07C31.9937 -4.32322e-07 33.1073 0.474106 33.9283 1.31802C34.7493 2.16193 35.2105 3.30653 35.2105 4.5L35.2105 31.5ZM25.3604 19.125C25.6506 19.125 25.929 19.0065 26.1343 18.7955C26.3395 18.5845 26.4548 18.2984 26.4548 18C26.4548 17.7016 26.3395 17.4155 26.1343 17.2045C25.929 16.9935 25.6506 16.875 25.3604 16.875L12.68 16.875L17.3796 12.0465C17.4813 11.9419 17.5621 11.8177 17.6171 11.6811C17.6722 11.5444 17.7005 11.3979 17.7005 11.25C17.7005 11.1021 17.6722 10.9556 17.6171 10.8189C17.5621 10.6823 17.4813 10.5581 17.3796 10.4535C17.2778 10.3489 17.157 10.2659 17.0241 10.2093C16.8911 10.1527 16.7486 10.1236 16.6047 10.1236C16.4608 10.1236 16.3183 10.1527 16.1853 10.2093C16.0524 10.2659 15.9316 10.3489 15.8298 10.4535L9.26306 17.2035C9.16114 17.308 9.08027 17.4321 9.0251 17.5688C8.96992 17.7055 8.94152 17.852 8.94152 18C8.94152 18.148 8.96992 18.2945 9.0251 18.4312C9.08027 18.5678 9.16114 18.692 9.26306 18.7965L15.8298 25.5465C15.9316 25.6511 16.0524 25.7341 16.1853 25.7907C16.3183 25.8473 16.4608 25.8764 16.6047 25.8764C16.7486 25.8764 16.8911 25.8473 17.0241 25.7907C17.157 25.7341 17.2778 25.6511 17.3796 25.5465C17.4813 25.4419 17.5621 25.3177 17.6171 25.1811C17.6722 25.0444 17.7005 24.8979 17.7005 24.75C17.7005 24.6021 17.6722 24.4556 17.6171 24.3189C17.5621 24.1823 17.4813 24.0581 17.3796 23.9535L12.68 19.125L25.3604 19.125Z" fill="white"/>
</svg>
