<svg width="36" height="36" viewBox="0 0 36 36" fill="none" xmlns="http://www.w3.org/2000/svg">
<path d="M0.667603 31.5C0.667603 32.6935 1.12884 33.8381 1.94984 34.682C2.77085 35.5259 3.88437 36 5.04544 36H31.3125C32.4736 36 33.5871 35.5259 34.4081 34.682C35.2291 33.8381 35.6903 32.6935 35.6903 31.5V4.5C35.6903 3.30653 35.2291 2.16193 34.4081 1.31802C33.5871 0.474106 32.4736 0 31.3125 0L5.04544 0C3.88437 0 2.77085 0.474106 1.94984 1.31802C1.12884 2.16193 0.667603 3.30653 0.667603 4.5L0.667603 31.5ZM10.5177 16.875H23.1982L18.4985 12.0465C18.293 11.8353 18.1776 11.5487 18.1776 11.25C18.1776 10.9513 18.293 10.6647 18.4985 10.4535C18.7041 10.2423 18.9828 10.1236 19.2734 10.1236C19.5641 10.1236 19.8428 10.2423 20.0483 10.4535L26.6151 17.2035C26.717 17.308 26.7978 17.4321 26.853 17.5688C26.9082 17.7055 26.9366 17.852 26.9366 18C26.9366 18.148 26.9082 18.2945 26.853 18.4312C26.7978 18.5679 26.717 18.692 26.6151 18.7965L20.0483 25.5465C19.8428 25.7577 19.5641 25.8764 19.2734 25.8764C18.9828 25.8764 18.7041 25.7577 18.4985 25.5465C18.293 25.3353 18.1776 25.0487 18.1776 24.75C18.1776 24.4513 18.293 24.1647 18.4985 23.9535L23.1982 19.125H10.5177C10.2275 19.125 9.94909 19.0065 9.74384 18.7955C9.53859 18.5845 9.42328 18.2984 9.42328 18C9.42328 17.7016 9.53859 17.4155 9.74384 17.2045C9.94909 16.9935 10.2275 16.875 10.5177 16.875Z" fill="white"/>
</svg>
