<svg xmlns="http://www.w3.org/2000/svg" height="300px" width="300px" fill="#000000" data-name="Layer 1" viewBox="0 0 1024 1024" x="0px" y="0px"><title>icon-01</title><path fill="#000000" d="M611.3 612.7c10.6-10.6 26.6-12.5 39.1-5.6 46.6-53.2 74.9-122.9 74.9-199.3 0-167.1-135.4-302.5-302.5-302.5S120.3 240.7 120.3 407.8s135.4 302.5 302.5 302.5c68.2 0 131.1-22.6 181.8-60.7-5.5-12.1-3.3-26.9 6.7-36.9z m-96.4 13.1c-29.1 12.3-60.1 18.6-92 18.6-32 0-62.9-6.2-92-18.6-28.2-11.9-53.5-29-75.2-50.7-21.7-21.7-38.8-47-50.7-75.2-12.3-29.1-18.6-60.1-18.6-92 0-32 6.2-62.9 18.6-92 11.9-28.2 29-53.5 50.7-75.2 21.7-21.7 47-38.8 75.2-50.7 29.1-12.3 60.1-18.6 92-18.6 32 0 62.9 6.2 92 18.6 28.2 11.9 53.5 29 75.2 50.7 21.7 21.7 38.8 47 50.7 75.2 12.3 29.1 18.6 60.1 18.6 92 0 32-6.2 62.9-18.6 92-11.9 28.2-29 53.5-50.7 75.2-21.8 21.7-47.1 38.8-75.2 50.7z"></path><path fill="#000000" d="M813.6 768.3L658 612.7c-2.3-2.3-4.8-4.2-7.5-5.6-12.5-6.8-28.5-5-39.1 5.6-10 10-12.2 24.8-6.7 36.9 1.6 3.5 3.8 6.8 6.7 9.7L766.9 815c12.9 12.9 33.8 12.9 46.7 0s12.9-33.8 0-46.7z"></path></svg>