<svg xmlns="http://www.w3.org/2000/svg" xmlns:xlink="http://www.w3.org/1999/xlink" style="display:none">
  <defs>

    <!-- Pagamentos -->
    <symbol id="logoMaster" xmlns="http://www.w3.org/2000/svg" viewBox="0 0 776.64 136.19">
      <path
        d="M339.43,92.81V64.44c0-10.7-6.82-17.91-17.81-18a17.51,17.51,0,0,0-15.91,8.06,16.6,16.6,0,0,0-14.95-8.06,15,15,0,0,0-13.24,6.73V47.5h-9.86V92.89h9.95V67.71c0-7.86,4.35-12,11.08-12s9.86,4.25,9.86,11.93V92.81h9.89V67.71c0-7.86,4.54-12,11.08-12s10,4.25,10,11.93V92.81ZM486.62,47.54H470.53V33.81h-9.95V47.54h-9.19v9h9.19V77.17c0,10.52,4.07,16.78,15.72,16.78a23.09,23.09,0,0,0,12.31-3.5L485.77,82a18.12,18.12,0,0,1-8.72,2.56c-4.91,0-6.54-3-6.54-7.57V56.54h16.1Zm84-1.14A13.23,13.23,0,0,0,558.72,53v-5.5H549V92.81h9.85V67.43c0-7.56,3.21-11.65,9.66-11.65a16.08,16.08,0,0,1,6.17,1.14l3-9.29A20.69,20.69,0,0,0,570.65,46.4Zm-127,4.73a34,34,0,0,0-18.48-4.73c-11.46,0-18.91,5.5-18.91,14.49,0,7.39,5.48,11.93,15.62,13.35l4.63.66c5.39.76,8,2.18,8,4.73,0,3.5-3.6,5.5-10.33,5.5A24.13,24.13,0,0,1,409,80.4L404.51,88a32.68,32.68,0,0,0,19.61,5.88c13.07,0,20.65-6.16,20.65-14.77,0-8-6-12.12-15.81-13.54l-4.63-.66c-4.26-.57-7.68-1.42-7.68-4.45s3.22-5.29,8.62-5.29a29.07,29.07,0,0,1,14.11,3.78ZM707.47,46.4A13.23,13.23,0,0,0,695.54,53v-5.5h-9.76V92.81h9.86V67.43c0-7.56,3.21-11.65,9.66-11.65a16,16,0,0,1,6.16,1.14l3-9.29A20.71,20.71,0,0,0,707.47,46.4ZM580.6,70.17C580.6,83.9,590.17,94,604.75,94A23.85,23.85,0,0,0,621,88.54l-4.73-8a19.81,19.81,0,0,1-11.84,4.07c-7.86,0-13.63-5.79-13.63-14.49s5.78-14.39,13.63-14.48a19.87,19.87,0,0,1,11.84,4.06l4.73-8a23.85,23.85,0,0,0-16.28-5.41c-14.58,0-24.15,10-24.15,23.78Zm92.25,0V47.48H663V53a17.16,17.16,0,0,0-14.29-6.64C636,46.34,626,56.29,626,70.12s10,23.77,22.7,23.77A17.16,17.16,0,0,0,663,87.25v5.48h9.86Zm-36.65,0c0-8,5.2-14.48,13.73-14.48,8.15,0,13.63,6.26,13.63,14.48s-5.48,14.49-13.63,14.49C641.4,84.66,636.2,78.12,636.2,70.17ZM517.32,46.4c-13.24,0-22.55,9.67-22.55,23.77S504.44,94,518,94a27.43,27.43,0,0,0,18.57-6.36l-4.82-7.3A21.61,21.61,0,0,1,518.49,85c-6.35,0-12.12-2.93-13.54-11.08h33.62c.1-1.23.19-2.46.19-3.79,0-14.1-8.81-23.77-21.5-23.77Zm-.19,8.81c6.35,0,10.42,4,11.46,11H505.12c1-6.54,5-11,12-11Zm247.08,15V29.34h-9.85V53a17.19,17.19,0,0,0-14.3-6.64c-12.69,0-22.69,9.95-22.69,23.77s9.94,23.78,22.69,23.78a17.19,17.19,0,0,0,14.3-6.64v5.48h9.85Zm11.52,18.46a2.93,2.93,0,0,1,1.13.23,3.09,3.09,0,0,1,.93.62,3,3,0,0,1,.62.91,2.88,2.88,0,0,1,0,2.23,3,3,0,0,1-.62.91,3.09,3.09,0,0,1-.93.62,2.93,2.93,0,0,1-1.13.23A3,3,0,0,1,773,92.62a2.85,2.85,0,0,1,1.49-3.75l.06,0a3,3,0,0,1,1.21-.23Zm0,5.11a2.36,2.36,0,0,0,.87-.17,2.08,2.08,0,0,0,.7-.48,2.27,2.27,0,0,0,0-3.17,2.24,2.24,0,0,0-.7-.48,2.36,2.36,0,0,0-.87-.17,2.43,2.43,0,0,0-.89.17,2.24,2.24,0,0,0-1.19,3,2.21,2.21,0,0,0,.47.7,2.29,2.29,0,0,0,1.64.65Zm.17-3.6a1.19,1.19,0,0,1,.79.23.78.78,0,0,1,0,1.12.12.12,0,0,1,0,.05,1,1,0,0,1-.62.27l.87,1h-.68l-.82-1h-.26v1h-.57V90.16Zm-.66.5v.71h.66a.55.55,0,0,0,.36,0,.32.32,0,0,0,.08-.44.34.34,0,0,0-.08-.09.73.73,0,0,0-.36,0ZM727.6,70.17c0-8,5.2-14.48,13.73-14.48C749.48,55.69,755,62,755,70.17s-5.48,14.49-13.63,14.49C732.8,84.66,727.6,78.12,727.6,70.17Zm-332.66,0V47.48h-9.85V53a17.17,17.17,0,0,0-14.24-6.58c-12.69,0-22.7,10-22.7,23.77S358.1,94,370.85,94a17.16,17.16,0,0,0,14.29-6.64v5.48H395Zm-36.65,0c0-8,5.2-14.48,13.73-14.48,8.15,0,13.63,6.26,13.63,14.48S380.17,84.66,372,84.66C363.49,84.66,358.29,78.14,358.29,70.17Z"
        transform="translate(-2 -1.81)" style="fill:#231f20" />
      <rect x="80.37" y="14.54" width="59.57" height="107.06" style="fill:#ff5f00" />
      <path d="M86.15,69.91a68,68,0,0,1,26-53.52,68.08,68.08,0,1,0,0,107.06A68,68,0,0,1,86.15,69.91Z"
        transform="translate(-2 -1.81)" style="fill:#eb001b" />
      <path
        d="M222.31,69.91a68.08,68.08,0,0,1-110.16,53.52,68.08,68.08,0,0,0,0-107.06A68.08,68.08,0,0,1,222.31,69.91Z"
        transform="translate(-2 -1.81)" style="fill:#f79e1b" />
      <path
        d="M215.77,112.06v-2.19h.89v-.44h-2.21v.46h.89v2.19Zm4.37,0v-2.65h-.59l-.79,1.9-.8-1.9h-.7v2.65h.4v-2l.74,1.72h.51l.74-1.72v2Z"
        transform="translate(-2 -1.81)" style="fill:#f79e1b" />
    </symbol>

    <symbol id="logoVisa" xmlns="http://www.w3.org/2000/svg" viewBox="0 0 425 136.71">
      <polygon points="177.01 2.63 148.09 135.82 183.14 135.82 211.19 2.63 177.01 2.63" style="fill:#1a1f71" />
      <path
        d="M128.19,4.48,92.26,94.73,77.36,17.62A15.77,15.77,0,0,0,61.59,4.48H2.88L2,8A156.71,156.71,0,0,1,36.18,19.37c5.25,2.63,6.13,5.26,7.88,11.4l27.17,106H108L164.11,3.6H128.19Z"
        transform="translate(-2 -1.85)" style="fill:#1a1f71" />
      <path
        d="M400.71,4.48H370.92A15.32,15.32,0,0,0,356,14.12l-51.7,123.55h35.93l7-20.15h43.81l4.38,20.15H427ZM358.65,90.35l18.4-49.95,10.52,49.95Z"
        transform="translate(-2 -1.85)" style="fill:#1a1f71" />
      <path
        d="M258.75,41.28c0-4.38,4.38-9.64,14.9-11.39A64.85,64.85,0,0,1,307.82,36L314,8a101.4,101.4,0,0,0-32.42-6.13c-34.18,0-57.84,18.4-57.84,43.81,0,19.28,17.53,29.8,29.79,35.93S271,92.11,271,98.24c0,8.76-10.51,13.14-21,13.14a65.32,65.32,0,0,1-35.05-8.76l-6.14,28.92a104.39,104.39,0,0,0,38.56,7C283.29,138.55,307,121,307,93,307,59.68,257.88,57.05,258.75,41.28Z"
        transform="translate(-2 -1.85)" style="fill:#1a1f71" />
    </symbol>

    <symbol id="logoAmex" xmlns="http://www.w3.org/2000/svg" viewBox="0 0 408.15 134.69">
      <path
        d="M378.84,52.28h-15.1L341.81,14.71V45.9l-.07-.07v6.48h-23.3l-4.12-10.63h-24L286.18,53h-13c-5.53,0-12.36-1.42-16.47-5.67s-6.18-9.92-6.18-19.13c0-7.09,1.37-14.18,6.18-19.86,3.43-4.25,9.6-5.71,17.16-5.71h11V13.28h-11c-4.12,0-6.17.72-8.93,2.86-2,2.13-3.43,6.38-3.43,11.34,0,5.71.69,9.22,3.43,12.05,2.06,2.13,4.81,2.86,8.24,2.86H278l15.78-39h17.16l19.22,47.49V3.37h17.15l19.91,34.72V3.38h11.67v48.9ZM302.65,11.17,294.42,31H310.2Z"
        transform="translate(-3 -2.65)" style="fill:#0288d1;fill-rule:evenodd" />
      <path
        d="M125.57,52.28h-11v-39l-.68,1.63h0l-16,37.38H87.8l-16.47-39v39H48L43.24,41.68H19.86l-4.8,10.63H3L23.27,2.69H40.48L59.7,50.18V2.66H77.88l.32.72h0l8.67,19.46,6.21,14.58.22-.73L107,2.66h18.53ZM24,31H39.09L31.54,11.17,24,31Z"
        transform="translate(-3 -2.65)" style="fill:#0288d1;fill-rule:evenodd" />
      <polygon
        points="169.94 10.64 143.16 10.64 143.16 19.85 169.24 19.85 169.24 29.78 143.16 29.78 143.16 39.7 169.94 39.7 169.94 50.34 131.5 50.34 131.5 0.01 169.94 0.01 169.94 10.64"
        style="fill:#0288d1;fill-rule:evenodd" />
      <path
        d="M221.88,31.58H222a7.71,7.71,0,0,1,.67.84,13.9,13.9,0,0,1,2.43,8.31V52.25H214.8V46.54c0-2.86,0-7.09-2.07-9.93a6.31,6.31,0,0,0-2-1.43c-1-.68-3-.69-6.21-.69H192.15V52.21H180.48V2.66h26.08c6.17,0,10.29,0,13.73,2.13s5.39,5.54,5.47,11a14.11,14.11,0,0,1-8.22,13.07A9.07,9.07,0,0,1,221.88,31.58Zm-9.78-8.25a3.34,3.34,0,0,0,.53-.76,7.79,7.79,0,0,0,.92-5.35,2.84,2.84,0,0,0-.1-.64v-.17h0A3.93,3.93,0,0,0,211.37,14c-1.38-.71-3.44-.71-5.53-.71H192.11V24.64h13.73c2.06,0,4.11,0,5.53-.72a2.11,2.11,0,0,0,.56-.42h0l.17-.18Z"
        transform="translate(-3 -2.65)" style="fill:#0288d1;fill-rule:evenodd" />
      <polygon points="242 49.63 230.33 49.63 230.33 0.01 242 0.01 242 49.63"
        style="fill:#0288d1;fill-rule:evenodd" />
      <path
        d="M203.13,118.92H189.4v18.43H166.84l-13.13-15.6v.06l-.64-.77L138,137.35H94V87.73h44.62l12.18,13.79,2.56,2.85.35-.37,14.41-16.3h36.39c7.05,0,15,1.8,18,9.22a21.21,21.21,0,0,1,.57,5c0,14.17-9.61,17-19.91,17ZM211.37,104c-.69-4.26-3.44-6.39-7.56-6.39H189.4V110.4h15.11C208.62,110.4,211.37,108.3,211.37,104Zm-33.59,29.06V92.68l-17.85,19.86ZM104.34,97.64v9.22h25.39v9.93H104.29v10.63h28.14l13-14.88-12.34-14.9Z"
        transform="translate(-3 -2.65)" style="fill:#0288d1;fill-rule:evenodd" />
      <path
        d="M271.78,118.21c1.37,2.12,2.06,5,2.06,9.21v9.93H262.16V131c0-2.85,0-7.8-2.06-9.93-1.37-2.12-4.12-2.12-8.24-2.12H239.52v18.43H227.85V87h26.08c5.48,0,10.29,0,13.73,2.12a12.65,12.65,0,0,1,6.17,11.35A14.13,14.13,0,0,1,265.59,114c3.44,1.41,5.53,2.86,6.18,4.26ZM259.42,109c1.37-.72,2.06-2.86,2.06-5,.69-2.86-.69-4.26-2.06-5s-3.43-.71-5.49-.71H240.2V109.7h13.73c2.06,0,4.12,0,5.49-.7Z"
        transform="translate(-3 -2.65)" style="fill:#0288d1;fill-rule:evenodd" />
      <polygon
        points="316.13 95 289.36 95 289.36 104.21 315.44 104.21 315.44 114.14 289.36 114.14 289.36 124.06 316.13 124.06 316.13 134.69 277.69 134.69 277.69 84.37 316.13 84.37 316.13 95"
        style="fill:#0288d1;fill-rule:evenodd" />
      <path
        d="M348,137.35H326V126.72h22c2.05,0,3.42,0,4.8-1.42a5.26,5.26,0,0,0,0-7.09,5.7,5.7,0,0,0-4.12-1.42c-11-.71-24,0-24-15.59,0-7.09,4.12-14.89,16.48-14.89h22.65v12H342.46c-2,0-3.43,0-4.81.71s-1.37,2.13-1.37,3.52c0,2.13,1.36,2.86,2.76,3.54a8.38,8.38,0,0,0,4.12.71h6.19c6.17,0,10.29,1.42,13,4.26,2.05,2.12,3.42,5.71,3.42,10.63C365.77,132.38,359.62,137.35,348,137.35Z"
        transform="translate(-3 -2.65)" style="fill:#0288d1;fill-rule:evenodd" />
      <path
        d="M407,132.38c-2.77,2.85-7.55,5-14.41,5h-22V126.72h22c2.06,0,3.43,0,4.81-1.42a5.26,5.26,0,0,0,0-7.09,5.75,5.75,0,0,0-4.12-1.42c-11-.71-24,0-24-15.59,0-6.74,3.74-12.83,12.9-14.64a26.33,26.33,0,0,1,3.54-.25h22.65v12H387.08c-2.06,0-3.43,0-4.8.71a5.53,5.53,0,0,0-1.38,3.54c0,2.13.68,2.85,2.76,3.54a8.36,8.36,0,0,0,4.12.71H394a20.82,20.82,0,0,1,7.37,1.14,15.05,15.05,0,0,1,9.6,11.21,15.45,15.45,0,0,1,.21,2.54A14.63,14.63,0,0,1,407,132.38Z"
        transform="translate(-3 -2.65)" style="fill:#0288d1;fill-rule:evenodd" />
    </symbol>

    <symbol id="logoElo" xmlns="http://www.w3.org/2000/svg" viewBox="0 0 355.97 136.39">
      <path d="M57,31.73A40.2,40.2,0,0,1,109.05,61.8l27.52-5.61A68.25,68.25,0,0,0,48.1,5.12Z"
        transform="translate(-1.52 -1.61)" style="fill:#ffcb05" />
      <path
        d="M24.53,120.9l18.61-21a40.12,40.12,0,0,1-3.46-56.63,42,42,0,0,1,3.46-3.47l-18.61-21a68.23,68.23,0,0,0,0,102.19"
        transform="translate(-1.52 -1.61)" style="fill:#00a4e0" />
      <path
        d="M109.05,77.85a40.12,40.12,0,0,1-39.31,32.08A39.72,39.72,0,0,1,57,107.86l-8.9,26.65a68.32,68.32,0,0,0,88.47-51Z"
        transform="translate(-1.52 -1.61)" style="fill:#ef4123" />
      <path
        d="M160.64,100.74a48.28,48.28,0,0,1-2.87-5.53,40.46,40.46,0,0,1-.89-30.63c4-11,11.77-19.46,21.77-23.77,12.55-5.39,26.43-4.34,38.47,2.8,7.64,4.38,13.06,11.15,17.17,20.73.52,1.23,1,2.53,1.44,3.66Zm25.08-43.66c-8.93,3.83-13.52,12.2-12.56,22l37.76-16.27c-6.5-7.62-14.94-10.15-25.2-5.73Zm29.9,35.37a0,0,0,0,0,0,0h0l-.79-.53a22.26,22.26,0,0,1-10.2,8.55c-8.45,3.67-16.27,2.72-21.9-2.21l-.51.78a0,0,0,0,0,0,0h0l-9.58,14.34a41.58,41.58,0,0,0,7.6,4.17,41.56,41.56,0,0,0,50-15.35Z"
        transform="translate(-1.52 -1.61)" />
      <path
        d="M262,19.72v79.7l12.4,5-7,16.42-13.68-5.7a15.44,15.44,0,0,1-6.73-5.66,17.82,17.82,0,0,1-2.64-9.87V19.72Z"
        transform="translate(-1.52 -1.61)" />
      <path
        d="M294.07,79.13a22.54,22.54,0,0,1,7.75-17L289.1,47.94a41.63,41.63,0,0,0-3.61,58.76,40.32,40.32,0,0,0,3.58,3.58l12.7-14.18A22.53,22.53,0,0,1,294.07,79.13Z"
        transform="translate(-1.52 -1.61)" />
      <path
        d="M316.66,101.73a22.61,22.61,0,0,1-7.16-1.17l-6.08,18a41.67,41.67,0,0,0,54.05-31.08L338.8,83.71A22.57,22.57,0,0,1,316.66,101.73Z"
        transform="translate(-1.52 -1.61)" />
      <path
        d="M316.71,37.5a42,42,0,0,0-13.2,2.12l6,18.06A22.6,22.6,0,0,1,338.11,72a22.34,22.34,0,0,1,.71,2.67l18.67-3.78A41.67,41.67,0,0,0,316.71,37.5Z"
        transform="translate(-1.52 -1.61)" />
    </symbol>

    <symbol id="logoBoleto" xmlns="http://www.w3.org/2000/svg" viewBox="0 0 40.64 17.65">
      <path d="M7.86,17.61H5.63V13h2a3.35,3.35,0,0,1,.89.12,1.14,1.14,0,0,1,.55.3,1.11,1.11,0,0,1,.35.8A.9.9,0,0,1,9,15l-.18.11-.18.08a1.42,1.42,0,0,1,.75.38,1.09,1.09,0,0,1,.28.73,1.19,1.19,0,0,1-.37.85A2,2,0,0,1,7.86,17.61ZM6.5,14.91H7.58c.62,0,.93-.2.93-.58a.49.49,0,0,0-.23-.47,1.43,1.43,0,0,0-.7-.15H6.49Zm0,2H7.83a1.67,1.67,0,0,0,.73-.14.54.54,0,0,0,.24-.51c0-.41-.36-.61-1.08-.61H6.49Z"/><path d="M15,17a3,3,0,0,1-3.8,0,2.28,2.28,0,0,1-.2-3.21l.2-.2a3,3,0,0,1,3.8,0,2.28,2.28,0,0,1,.2,3.21C15.12,16.81,15.06,16.91,15,17Zm-.62-2.88a1.9,1.9,0,0,0-2.54,0,1.62,1.62,0,0,0-.09,2.28l.09.09a1.9,1.9,0,0,0,2.54,0,1.62,1.62,0,0,0,.09-2.29h0Z"/><path d="M16.84,17.61V13h.85v3.88H20v.74Z"/><path d="M24.49,13v.73h-2.7V15h2.43v.69H21.79v1.23h2.79v.73H20.94V13Z"/><path d="M27.58,13.7v3.9h-.85V13.7H25.19V13h3.93v.71Z"/><path d="M34.15,17a3,3,0,0,1-3.8,0,2.28,2.28,0,0,1-.2-3.21l.2-.2a3,3,0,0,1,3.8,0,2.27,2.27,0,0,1,.25,3.21l0,0C34.28,16.81,34.22,16.91,34.15,17Zm-.62-2.88a1.9,1.9,0,0,0-2.54,0,1.61,1.61,0,0,0-.11,2.26l0,0,.09.09a1.9,1.9,0,0,0,2.54,0,1.62,1.62,0,0,0,.09-2.28Z"/><rect width="3.62" height="17.6"/><rect x="6.44" width="3.62" height="11"/><rect x="12.47" width="3.62" height="11"/><rect x="20.12" width="3.62" height="11"/><rect x="27.76" width="6.84" height="11"/><rect x="37.02" width="3.62" height="17.6"/>
    </symbol>

    <symbol id="logoAme" xmlns="http://www.w3.org/2000/svg" viewBox="0 0 495.27 133.86">
      <path d="M197.45,80.62" transform="translate(-17.37 -3.07)"
        style="fill:none;stroke:#ee2d60;stroke-miterlimit:17.446993589401245;stroke-width:0.8723496794700623px" />
      <path
        d="M266.22,27.27c-23.3,0-32.1,5.77-37.81,22.56a1.18,1.18,0,0,0,.82,1.48L246,56.09a1,1,0,0,0,1.31-.83c.65-2.47,3.09-8.23,9.12-8.23h17.93c3.42,0,6.36,2.47,6.36,5.44v11h-28.2c-14.18,0-27.7,11.52-27.7,29,0,16.3,9,28.82,39.44,28.82,27.38,0,37.32-10.7,37.32-25.36V55.43c.16-8.73-4.24-28.16-35.37-28.16Zm14.34,69.16c0,2-1.14,5.59-7.17,5.59H253.51c-4.24,0-8.15-4.44-8.15-9.71s2.61-9.71,9-9.71h26.4S280.56,94.45,280.56,96.43Z"
        transform="translate(-17.37 -3.07)" style="fill:#2c2a7a" />
      <path
        d="M471.24,121.12c23.31,0,32.11-5.76,37.81-22.55a1.19,1.19,0,0,0-.82-1.49l-16.78-4.77a1,1,0,0,0-1.31.82c-.65,2.47-3.09,8.24-9.12,8.24H463.09c-3.42,0-6.35-2.47-6.35-5.44v-11h28.19c14.18,0,27.7-11.52,27.7-29,0-16.3-9-28.81-39.43-28.81-27.38,0-37.32,10.7-37.32,25.36V93c-.17,8.72,4.23,28.15,35.36,28.15ZM455.43,52.63c0-2,1.14-5.43,6.85-5.43h20c5.38,0,7.82,3.45,7.82,8.56s-1,9.38-8.63,9.38H455.43V52.63Z"
        transform="translate(-17.37 -3.07)" style="fill:#2c2a7a" />
      <path
        d="M369.06,79.47c14.66,0,26.89-20.91,29.33-25.19a1.67,1.67,0,0,1,1.31-.83h0a1.47,1.47,0,0,1,1.46,1.48v64.71a1.65,1.65,0,0,0,1.63,1.65h17.93a1.65,1.65,0,0,0,1.63-1.65V43.9a16.67,16.67,0,0,0-16.62-16.79h0c-9,0-13.69,3.79-19.23,10.7-5.38,6.92-14.35,21.9-17.61,21.9-3.09,0-12.22-15.15-17.6-21.9-5.37-6.91-10.1-10.7-19.23-10.7h0A16.67,16.67,0,0,0,315.44,43.9v75.74a1.64,1.64,0,0,0,1.63,1.65H335a1.65,1.65,0,0,0,1.63-1.65V54.93a1.47,1.47,0,0,1,1.46-1.48h0a1.67,1.67,0,0,1,1.31.83C342,58.72,354.39,79.47,369.06,79.47Z"
        transform="translate(-17.37 -3.07)" style="fill:#2c2a7a" />
      <path
        d="M107.33,136.93h0a16.79,16.79,0,0,0,12.06-5.11L192.56,57.9a16.33,16.33,0,0,0,4.73-11.36v-.83a15.63,15.63,0,0,0-4.73-11.36l-28.19-28a10.93,10.93,0,0,0-7.83-3.29H58.11a10.89,10.89,0,0,0-7.82,3.29l-28.2,28a15.62,15.62,0,0,0-4.72,11.36v.83A15.62,15.62,0,0,0,22.09,57.9l73.18,73.92a16.49,16.49,0,0,0,12.06,5.11Z"
        transform="translate(-17.37 -3.07)" style="fill:#ee2e60" />
      <path
        d="M57,3.07v.17A12.54,12.54,0,0,1,65.6,6.53L98.69,36.66a9.45,9.45,0,0,0,6.52,2.47h3.91a10.36,10.36,0,0,0,6.52-2.47L148.72,6.53a13.17,13.17,0,0,1,8.64-3.29V3.07H57Z"
        transform="translate(-17.37 -3.07)" style="fill:#2c2a7a" />
    </symbol>

    <!-- Tecnologia -->
    <symbol id="logoVtex" xmlns="http://www.w3.org/2000/svg" viewBox="0 0 547 196.69">
      <path
        d="M398.36,78.12H378.75v67.12a2.3,2.3,0,0,1-2.29,2.3H361.35a2.31,2.31,0,0,1-2.29-2.3V78.12H339.3a2.22,2.22,0,0,1-2.3-2.19V64a2.2,2.2,0,0,1,.69-1.58,2.14,2.14,0,0,1,1.61-.61h59A2.31,2.31,0,0,1,400.75,64V75.93A2.32,2.32,0,0,1,398.36,78.12Z"
        transform="translate(-3 -4.45)" style="fill:#f36" />
      <path
        d="M461.25,147.09a150.6,150.6,0,0,1-23.34,1.51c-14.89,0-28-3.81-28-24.8V85.5c0-21,13.27-24.68,28.14-24.68a150.84,150.84,0,0,1,23.16,1.49c1.62.24,2.3.81,2.3,2.3V75.39a2.32,2.32,0,0,1-2.3,2.3H436.94c-5.39,0-7.38,1.79-7.38,7.84V96h30.78a2.32,2.32,0,0,1,2.3,2.3v11a2.32,2.32,0,0,1-2.3,2.3H429.56V123.8c0,6,1.95,7.85,7.38,7.85h24.31a2.31,2.31,0,0,1,2.3,2.3v10.77C463.57,146.16,462.87,146.86,461.25,147.09Z"
        transform="translate(-3 -4.45)" style="fill:#f36" />
      <path
        d="M548.28,147.54H529.94a3,3,0,0,1-3-1.79L511,120.6l-14.36,24.68c-.81,1.38-1.62,2.3-2.9,2.3h-17a1.5,1.5,0,0,1-1.25-.34,1.52,1.52,0,0,1-.55-1.17,2.3,2.3,0,0,1,.24-.81l25-41.64L475,64a1.57,1.57,0,0,1-.23-.7,1.68,1.68,0,0,1,1.8-1.51h18.57c1.27,0,2.19,1.15,2.89,2.19l14.76,23.35L527.1,64a3.74,3.74,0,0,1,2.9-2.19h17.07a1.68,1.68,0,0,1,1.8,1.51,1.57,1.57,0,0,1-.23.7l-25.15,39.81,26.17,41.3a2.6,2.6,0,0,1,.34,1.15A1.63,1.63,0,0,1,548.28,147.54Z"
        transform="translate(-3 -4.45)" style="fill:#f36" />
      <path
        d="M309.38,62.08a1.79,1.79,0,0,0-1.79,1.42l-16.76,62c-.23,1.27-.57,1.8-1.61,1.8s-1.39-.47-1.62-1.8l-16.7-62a1.8,1.8,0,0,0-1.8-1.42H252.62a1.81,1.81,0,0,0-1.8,2.19s20.46,71.06,20.67,71.83c2.73,8.48,9.36,12.57,17.78,12.57a18,18,0,0,0,17.78-12.57c.32-1,20.33-71.83,20.33-71.83a1.79,1.79,0,0,0-1.8-2.17Z"
        transform="translate(-3 -4.45)" style="fill:#f36" />
      <path
        d="M216,4.45H44.06A17.85,17.85,0,0,0,28.42,30.6l17.2,32.76H14.45A11.24,11.24,0,0,0,4.32,79.88L59.63,184.39a11.45,11.45,0,0,0,20.25,0l15-28.32,18.85,35.67a17.69,17.69,0,0,0,31.27,0L231.21,29.67A17.14,17.14,0,0,0,216,4.45ZM139.14,72.93l-37.71,70.71a7.47,7.47,0,0,1-13.2,0L51,73.61a6.94,6.94,0,0,1,6.14-10.22h76.18a6.48,6.48,0,0,1,5.81,9.54Z"
        transform="translate(-3 -4.45)" style="fill:#f36" />
    </symbol>

  </defs>
</svg>
