<svg xmlns="http://www.w3.org/2000/svg" width="27.733" height="21.359" viewBox="0 0 27.733 21.359"><defs><style>.a{fill:#fff;}</style></defs><path class="a" d="M4.306,0A4.312,4.312,0,0,0,0,4.306V21.359H23.427a4.312,4.312,0,0,0,4.306-4.306V0ZM9.137,16.833a3.085,3.085,0,0,1-3.085,3.085H1.526V13.425a13.01,13.01,0,0,0,3.17.39c2.933,0,3.8-1.136,3.8-2.526V7.713H5.848v3.594A1.476,1.476,0,0,1,4.2,12.832a6.1,6.1,0,0,1-2.661-.7V4.526A3.085,3.085,0,0,1,4.628,1.441H9.137Zm8.544.034A3.085,3.085,0,0,1,14.6,19.952H10.069v-7.12c.78.661,2.136,1.085,4.323.983a13.432,13.432,0,0,0,2.424-.373V12.137a6.155,6.155,0,0,1-2.339.678c-1.661.136-2.661-.678-2.661-2.119,0-1.424,1-2.238,2.661-2.119a5.866,5.866,0,0,1,2.339.678V7.95a13.758,13.758,0,0,0-2.424-.373c-2.187-.1-3.543.322-4.323.983V4.526a3.085,3.085,0,0,1,3.085-3.085H17.68Zm8.51-.017A3.085,3.085,0,0,1,23.1,19.935H18.579V13.663h4.78c1.119,0,1.966-.61,1.966-1.543,0-.865-.763-1.424-1.763-1.492v-.034a1.441,1.441,0,0,0,1.407-1.407c0-.881-.729-1.39-1.712-1.441a1.738,1.738,0,0,0-.305-.017H18.6v-3.2a3.085,3.085,0,0,1,3.085-3.085H26.19Zm-4.306-5.8a.893.893,0,0,1,.22.017.823.823,0,0,1,.627.8.794.794,0,0,1-.627.8c-.051,0-.17.017-.22.017H20.1V11.052Zm-1.78-.915V8.645h1.61c.051,0,.136.017.17.017a.737.737,0,0,1,0,1.458.471.471,0,0,1-.17.017Z"/></svg>