<svg xmlns="http://www.w3.org/2000/svg" width="40.067" height="12.334" viewBox="0 0 40.067 12.334"><defs><style>.a{fill:#fff;}</style></defs><g transform="translate(0 0)"><g transform="translate(14.007 0.205)"><g transform="translate(0 0)"><path class="a" d="M18.758,16.8l-2.036,11.95h3.257L22.017,16.8Z" transform="translate(-16.722 -16.799)"/></g></g><g transform="translate(3.235 0.216)"><g transform="translate(0 0)"><path class="a" d="M11.9,16.815l-3.19,8.149-.34-1.23A12.786,12.786,0,0,0,3.862,18.78l2.917,9.965,3.446-.006,5.129-11.927Z" transform="translate(-3.862 -16.812)"/></g></g><g transform="translate(0 0.103)"><g transform="translate(0 0)"><path class="a" d="M6.51,17.648a1.31,1.31,0,0,0-1.419-.971H.042L0,16.915c3.929.953,6.529,3.25,7.608,6.012Z" transform="translate(0 -16.677)"/></g></g><g transform="translate(19.302)"><path class="a" d="M29.644,19.05a6.013,6.013,0,0,1,2.438.457l.294.138.441-2.59a8.406,8.406,0,0,0-2.917-.5c-3.218,0-5.487,1.621-5.5,3.944-.021,1.716,1.616,2.675,2.852,3.247,1.269.586,1.695.959,1.689,1.483-.01.8-1.012,1.167-1.948,1.167a6.836,6.836,0,0,1-3.067-.626l-.42-.191-.458,2.675a10.314,10.314,0,0,0,3.629.637c3.423,0,5.648-1.6,5.672-4.083.014-1.358-.854-2.394-2.737-3.244-1.139-.555-1.836-.923-1.829-1.483C27.777,19.581,28.369,19.05,29.644,19.05Z" transform="translate(-23.043 -16.554)"/></g><g transform="translate(28.374 0.219)"><g transform="translate(0 0)"><path class="a" d="M42.932,16.815H40.416a1.62,1.62,0,0,0-1.706.992L33.874,28.758h3.42s.558-1.473.684-1.8l4.171.005c.1.417.4,1.79.4,1.79h3.021Zm-4.016,7.7c.268-.686,1.3-3.34,1.3-3.34-.018.033.266-.691.434-1.141l.219,1.03.755,3.45Z" transform="translate(-33.874 -16.815)"/></g></g></g></svg>