<svg xmlns="http://www.w3.org/2000/svg" width="31.61" height="18.927" viewBox="0 0 31.61 18.927"><defs><style>.a{fill:#fff;}</style></defs><path class="a" d="M22.149,9.716A9.421,9.421,0,0,0,15.8,12.162,9.426,9.426,0,0,0,9.461,9.718H9.4A9.461,9.461,0,1,0,15.8,26.2a9.357,9.357,0,0,1-.967-1.034h1.954a9.46,9.46,0,0,1-.961,1.014h0c-.008.008-.016.014-.024.021A9.459,9.459,0,0,0,31.61,19.179v0A9.458,9.458,0,0,0,22.149,9.716ZM14.943,13.14h1.8a9.86,9.86,0,0,1,.734,1.013H14.268C14.475,13.814,14.7,13.467,14.943,13.14Zm-1.234,2.006h4.313a10.108,10.108,0,0,1,.408,1.014H13.2C13.25,16.062,13.433,15.667,13.709,15.146ZM3.862,21.589l.574-3.617L3.142,21.589H2.448l-.09-3.617-.613,3.617H.773l.805-4.8h1.47L3.1,19.735l.993-2.944H5.687l-.794,4.8ZM7.3,21.581l.033-.383a1.306,1.306,0,0,1-1.033.463.956.956,0,0,1-.973-1.085c0-1.122.915-1.494,1.786-1.494.137,0,.433.025.433.025a.652.652,0,0,0,.033-.254c0-.3-.274-.347-.649-.347a3.189,3.189,0,0,0-1.1.177l.146-.868a3.483,3.483,0,0,1,1.22-.222,1.191,1.191,0,0,1,1.384,1.215l-.4,2.774Zm3.749-1.222c0,1.339-1.3,1.281-1.523,1.281a3.238,3.238,0,0,1-1.131-.123l.134-.881a3.294,3.294,0,0,0,.895.153c.272,0,.624-.027.624-.351,0-.486-1.261-.369-1.261-1.523,0-1.018.756-1.315,1.5-1.315a4.7,4.7,0,0,1,.929.079l-.127.889s-.546-.045-.688-.045c-.358,0-.554.078-.554.329C9.847,19.356,11.047,19.109,11.047,20.359Zm1.557.351c.089,0,.191-.031.26-.031l-.126.856a2.6,2.6,0,0,1-.755.133.748.748,0,0,1-.8-.854c0-.4.572-3.691.595-3.713h1.007l-.1.589h.5l-.129.948H12.52l-.283,1.747C12.216,20.525,12.254,20.71,12.6,20.71Zm2.215-3.131a1.351,1.351,0,0,1,1.437,1.473,7.2,7.2,0,0,1-.133.918H14.077s-.189.806.892.806a3.137,3.137,0,0,0,1.07-.248l-.178.971a2.555,2.555,0,0,1-1.064.166,1.581,1.581,0,0,1-1.74-1.762C13.058,18.671,13.807,17.579,14.82,17.579Zm2.668,6.607H14.131a9.356,9.356,0,0,1-.559-1.013h4.467A9.716,9.716,0,0,1,17.488,24.187ZM17.262,21.6H16.229l.629-3.9H17.8l-.09.566s.334-.616.785-.616a1.079,1.079,0,0,1,.195.013,3.874,3.874,0,0,0-.375,1.168C17.61,18.575,17.557,19.928,17.262,21.6Zm3.939-.061a4.648,4.648,0,0,1-.881.138c-1.2,0-1.813-.83-1.813-2.086,0-1.895,1.131-2.9,2.294-2.9a3.607,3.607,0,0,1,1.134.247L21.771,18a1.794,1.794,0,0,0-.924-.288c-.685,0-1.3.654-1.3,1.843a1,1,0,0,0,1,1.131,2.414,2.414,0,0,0,.833-.247Zm2.425.048.034-.386a1.309,1.309,0,0,1-1.033.463.956.956,0,0,1-.973-1.085c0-1.122.915-1.494,1.786-1.494.137,0,.433.025.433.025a.635.635,0,0,0,.034-.253c0-.3-.274-.347-.65-.347a3.182,3.182,0,0,0-1.1.177l.146-.868a3.485,3.485,0,0,1,1.221-.222,1.191,1.191,0,0,1,1.383,1.215l-.4,2.774S23.626,21.583,23.626,21.583Zm2.093.013H24.686l.629-3.9h.939l-.09.566s.335-.616.786-.616a1.066,1.066,0,0,1,.194.013,3.874,3.874,0,0,0-.375,1.168C26.068,18.575,26.014,19.928,25.72,21.6Zm3.087-.01.044-.36a1.258,1.258,0,0,1-.939.422c-.837,0-1.248-.809-1.248-1.635,0-1.278.769-2.392,1.692-2.392a1.335,1.335,0,0,1,.973.525l.218-1.348,1.01,0-.77,4.79Zm1.992-.135a.3.3,0,0,1-.113.114.3.3,0,0,1-.3,0,.309.309,0,0,1-.153-.266.311.311,0,0,1,.04-.153.29.29,0,0,1,.114-.114.31.31,0,0,1,.149-.04.3.3,0,0,1,.15.04.279.279,0,0,1,.115.114.306.306,0,0,1,0,.3Z" transform="translate(0 -9.716)"/><g transform="translate(30.581 14.6)"><path class="a" d="M46.988,32.106a.093.093,0,0,0-.023-.016.159.159,0,0,0-.052-.006h-.061v.1h.065a.092.092,0,0,0,.063-.014A.043.043,0,0,0,47,32.132.049.049,0,0,0,46.988,32.106Z" transform="translate(-46.852 -32.084)"/></g><g transform="translate(30.358 14.409)"><path class="a" d="M47.08,31.945a.28.28,0,0,0-.116-.114.308.308,0,0,0-.149-.04.3.3,0,0,0-.15.04.283.283,0,0,0-.115.114.3.3,0,0,0-.04.151.308.308,0,0,0,.04.151.3.3,0,0,0,.114.114.311.311,0,0,0,.153.04.306.306,0,0,0,.151-.04.292.292,0,0,0,.113-.114.3.3,0,0,0,.04-.151A.306.306,0,0,0,47.08,31.945Zm-.188.321h0l-.029-.052a.273.273,0,0,0-.056-.078.072.072,0,0,0-.042-.012h-.031v.14h-.054v-.33H46.8a.243.243,0,0,1,.083.01.074.074,0,0,1,.042.032.083.083,0,0,1,.015.048.094.094,0,0,1-.025.063.106.106,0,0,1-.069.03.071.071,0,0,1,.028.018.385.385,0,0,1,.049.065l.04.065Z" transform="translate(-46.51 -31.791)"/></g><g transform="translate(6.307 10.114)"><path class="a" d="M10.55,25.211c-.738,0-.888.332-.888.608a.366.366,0,0,0,.394.38c.606,0,.732-.8.713-.964A.612.612,0,0,0,10.55,25.211Z" transform="translate(-9.662 -25.211)"/></g><g transform="translate(14.169 8.765)"><path class="a" d="M22.363,23.144c-.549,0-.655.625-.655.691h1.118C22.826,23.784,22.931,23.144,22.363,23.144Z" transform="translate(-21.708 -23.144)"/></g><g transform="translate(27.737 8.874)"><g transform="translate(0 0)"><path class="a" d="M43.287,23.311c-.443,0-.794.514-.793,1.3,0,.476.17.782.533.782.546,0,.809-.712.809-1.243C43.835,23.56,43.649,23.311,43.287,23.311Z" transform="translate(-42.494 -23.311)"/></g></g><g transform="translate(30.278 11.328)"><path class="a" d="M46.863,27.2a.246.246,0,0,0-.1-.095.249.249,0,0,0-.125-.034.26.26,0,0,0-.125.034.23.23,0,0,0-.1.095.263.263,0,0,0-.035.127.254.254,0,0,0,.129.222.26.26,0,0,0,.126.035.257.257,0,0,0,.126-.035.248.248,0,0,0,.1-.1.254.254,0,0,0,.033-.127A.261.261,0,0,0,46.863,27.2Zm-.142.3-.029-.051a.264.264,0,0,0-.055-.077.066.066,0,0,0-.043-.012h-.03v.14h-.055v-.329h.114a.233.233,0,0,1,.084.01.093.093,0,0,1,.042.031.076.076,0,0,1,.015.048.089.089,0,0,1-.026.063.1.1,0,0,1-.068.03.091.091,0,0,1,.028.017.333.333,0,0,1,.048.065l.04.065Z" transform="translate(-46.388 -27.071)"/></g><g transform="translate(22.636 10.114)"><path class="a" d="M35.567,25.211c-.738,0-.888.332-.888.608a.366.366,0,0,0,.394.38c.606,0,.732-.8.713-.964A.62.62,0,0,0,35.567,25.211Z" transform="translate(-34.679 -25.211)"/></g><g transform="translate(30.454 11.466)"><path class="a" d="M46.792,27.306a.06.06,0,0,0-.022-.016.185.185,0,0,0-.054-.007h-.059v.1h.065a.1.1,0,0,0,.063-.014.051.051,0,0,0,.016-.037A.044.044,0,0,0,46.792,27.306Z" transform="translate(-46.657 -27.283)"/></g></svg>