<svg xmlns="http://www.w3.org/2000/svg" width="42.808" height="12.486" viewBox="0 0 42.808 12.486"><defs><style>.a{fill:#fff;}</style></defs><g transform="translate(6.241 4.459)"><g transform="translate(0 0)"><path class="a" d="M76.635,234.679a.889.889,0,0,0-1,.469l-.892,1.784a.892.892,0,0,0,.8,1.291h.892a.892.892,0,0,0,.892-.892v-1.784A.891.891,0,0,0,76.635,234.679Z" transform="translate(-74.645 -234.656)"/></g></g><g transform="translate(26.755 3.567)"><g transform="translate(0 0)"><path class="a" d="M325.972,226.041l-1.782-1.782a.9.9,0,0,0-.4-.218.75.75,0,0,0-.111-.023c-.039,0-.075-.021-.116-.021h-2.676a.892.892,0,1,0,0,1.784h1.784v1.784h-1.784a.892.892,0,1,0,0,1.784h2.676a.856.856,0,0,0,.341-.07.867.867,0,0,0,.291-.194l1.782-1.782A.893.893,0,0,0,325.972,226.041Z" transform="translate(-319.991 -223.997)"/></g></g><g transform="translate(0 0)"><path class="a" d="M42.6,192.353l-3.985-4.78,3.983-4.78a.891.891,0,0,0-.683-1.463H37.456a.9.9,0,0,0-.631.26l-2.044,2.046-2.044-2.044a.893.893,0,0,0-.631-.262H20.474a.89.89,0,0,0-.765.433l-1.91,3.186-1.91-3.186a.89.89,0,0,0-.765-.433H6.242a.893.893,0,0,0-.8.492l-5.351,10.7a.892.892,0,0,0,.8,1.291H5.35a.893.893,0,0,0,.8-.492l.644-1.291h.342v.892a.892.892,0,0,0,.892.892H15.16a.892.892,0,0,0,.874-.715l.112.223a.891.891,0,0,0,.8.492h1.784a.893.893,0,0,0,.8-.492l.112-.223a.892.892,0,0,0,.874.715H32.105a.9.9,0,0,0,.631-.26l2.044-2.044,2.044,2.044a.9.9,0,0,0,.631.26h4.459a.891.891,0,0,0,.685-1.463Zm-19.449-.321H21.4v-2.676a.893.893,0,0,0-1.691-.4l-1.536,3.075h-.683l-1.536-3.075a.891.891,0,0,0-1.689.4v2.676H8.918v-.892a.892.892,0,0,0-.892-.892H6.242a.893.893,0,0,0-.8.492L4.8,192.032H2.332l4.459-8.918H10.7v6.243a.892.892,0,1,0,1.784,0v-6.243h2.133l2.415,4.026a.927.927,0,0,0,1.529,0l2.419-4.026h2.171v8.918Zm14.674,0v0l-2.415-2.415a.893.893,0,0,0-1.261,0l-2.413,2.415h-6.8v-8.918h6.8l2.415,2.415a.892.892,0,0,0,1.261,0l2.413-2.415h2.187L36.773,187a.892.892,0,0,0,0,1.143l3.239,3.888Z" transform="translate(0 -181.33)"/></g></svg>