<svg xmlns="http://www.w3.org/2000/svg" width="27.814" height="18.357" viewBox="0 0 27.814 18.357"><defs><style>.a{fill:#fff;}</style></defs><g transform="translate(0)"><rect class="a" width="1.115" height="18.357"/></g><g transform="translate(2.787)"><rect class="a" width="1.672" height="15.609"/></g><g transform="translate(6.119)"><rect class="a" width="1.115" height="15.609"/></g><g transform="translate(8.343)"><rect class="a" width="1.672" height="15.609"/></g><g transform="translate(11.125)"><rect class="a" width="1.115" height="15.609"/></g><g transform="translate(13.35)"><rect class="a" width="1.115" height="18.357"/></g><g transform="translate(18.355)"><rect class="a" width="1.672" height="15.609"/></g><g transform="translate(21.693)"><rect class="a" width="1.115" height="15.609"/></g><g transform="translate(23.912)"><rect class="a" width="1.672" height="15.609"/></g><g transform="translate(26.699)"><rect class="a" width="1.115" height="18.357"/></g><g transform="translate(2.23 16.685)"><rect class="a" width="1.115" height="1.672"/></g><g transform="translate(4.46 16.685)"><rect class="a" width="1.115" height="1.672"/></g><g transform="translate(6.675 16.685)"><rect class="a" width="1.115" height="1.672"/></g><g transform="translate(8.9 16.685)"><rect class="a" width="1.115" height="1.672"/></g><g transform="translate(11.125 16.685)"><rect class="a" width="1.115" height="1.672"/></g><g transform="translate(15.575 16.685)"><rect class="a" width="1.115" height="1.672"/></g><g transform="translate(17.8 16.685)"><rect class="a" width="1.115" height="1.672"/></g><g transform="translate(20.025 16.685)"><rect class="a" width="1.115" height="1.672"/></g><g transform="translate(22.249 16.685)"><rect class="a" width="1.115" height="1.672"/></g><g transform="translate(24.469 16.685)"><rect class="a" width="1.115" height="1.672"/></g><g transform="translate(16.131)"><rect class="a" width="1.115" height="15.609"/></g></svg>