<svg xmlns="http://www.w3.org/2000/svg" width="44.19" height="19.702" viewBox="0 0 44.19 19.702"><defs><style>.a{fill:#fff;stroke:rgba(0,0,0,0);}</style></defs><g transform="translate(0.612 0.5)"><path class="a" d="M-533.042,1211.605H-567.71c.415-1.985.824-4.051,1.22-6.05.486-2.455.988-4.993,1.517-7.461.065-.305.125-.622.183-.929h0c.11-.582.223-1.184.382-1.742a2.993,2.993,0,0,1,.55-1.07,3.3,3.3,0,0,1,.906-.768,4.668,4.668,0,0,1,1.188-.479,6.868,6.868,0,0,1,1.4-.2h35.624c-.71,3.5-1.415,6.96-2.1,10.307l-.511,2.509-.1.5c-.185.913-.376,1.856-.572,2.693a2.976,2.976,0,0,1-1.69,2.144A7.8,7.8,0,0,1-533.042,1211.605Zm-22.417-11.187c-.292,1.942-.647,3.958-1.151,6.538h.934c.043-.265.082-.538.119-.8.081-.571.165-1.161.293-1.695.136.526.731.6,1.073.6a2.543,2.543,0,0,0,1.121-.257,2.68,2.68,0,0,0,1.018-1.255,3.875,3.875,0,0,0,.367-1.792,1.425,1.425,0,0,0-.864-1.341,1.837,1.837,0,0,0-.648-.111,2.637,2.637,0,0,0-1.524.506v0a1.042,1.042,0,0,1,.033-.2,1.035,1.035,0,0,0,.033-.2Zm17.346,1.57c-1.343,0-2.151.422-2.4,1.254a1.8,1.8,0,0,0-.012,1.038.971.971,0,0,0,.511.635,1.862,1.862,0,0,0,.737.147,2.061,2.061,0,0,0,1.674-.82,2.862,2.862,0,0,0-.065.7h.8a12.043,12.043,0,0,1,.224-2l.014-.084c.031-.18.07-.36.108-.536a4.437,4.437,0,0,0,.153-1.159.739.739,0,0,0-.464-.675,2.468,2.468,0,0,0-1.012-.162c-.331,0-.676.028-1.01.055-.239.019-.465.038-.664.043-.03.167-.07.326-.11.48h0c-.021.084-.044.171-.064.258h0a7.041,7.041,0,0,1,1.557-.247c.517,0,.811.142.874.421a1.281,1.281,0,0,1-.107.691v0C-537.629,1202-537.881,1201.989-538.113,1201.989Zm7.378-1.676h0a2.392,2.392,0,0,0-1.742.712,3.492,3.492,0,0,0-.892,2.5,1.6,1.6,0,0,0,.326,1.086,1.821,1.821,0,0,0,1.307.446,1.842,1.842,0,0,0,1-.251,1.544,1.544,0,0,0,.326-.326,1.209,1.209,0,0,0,.069-.1c.039-.064.077-.124.1-.124s.008,0,.01.01c-.009.059-.019.118-.029.175a3.184,3.184,0,0,0-.058.5h.847a37.63,37.63,0,0,1,.713-4.729c.111-.568.227-1.156.33-1.744h-.934c-.082.718-.191,1.4-.326,2.02a3.448,3.448,0,0,0-1.037-.171Zm-10.78-.005a2.757,2.757,0,0,0-2.041.676,3.3,3.3,0,0,0-.709,1.433,3.238,3.238,0,0,0-.029,1.651c.193.632.8.981,1.7.981a4.256,4.256,0,0,0,1.368-.242c.031-.126.054-.263.076-.395h0c.017-.1.034-.2.054-.3a2.818,2.818,0,0,1-1.222.3,1.439,1.439,0,0,1-.62-.121.753.753,0,0,1-.395-.416,2.277,2.277,0,0,1-.087-.869,4.047,4.047,0,0,1,.2-.974,1.981,1.981,0,0,1,.429-.763,1.129,1.129,0,0,1,.462-.265,1.97,1.97,0,0,1,.583-.08,3.669,3.669,0,0,1,1.171.215c.014-.155.039-.3.063-.443.016-.1.033-.195.046-.3A6.522,6.522,0,0,0-541.515,1200.307Zm-7.2.013c-.094,0-.192,0-.291.011a2.423,2.423,0,0,0-1.651.673,3.8,3.8,0,0,0-.782,2.737c.12,1.076,1.119,1.3,1.936,1.3a6.976,6.976,0,0,0,1.605-.215,4.328,4.328,0,0,1,.078-.466c.018-.088.037-.179.052-.272a4.6,4.6,0,0,1-1.551.343,1.432,1.432,0,0,1-.774-.191.959.959,0,0,1-.4-.732,2.938,2.938,0,0,1,.076-1.005c.455-.015.942-.022,1.449-.022s1.05.007,1.614.022c.016-.118.04-.241.063-.36a2.132,2.132,0,0,0,.024-1.095C-547.431,1200.579-547.945,1200.32-548.717,1200.32Zm13.416.1c-.221,1.537-.491,3.057-.8,4.518h.956a6.672,6.672,0,0,1,.141-1.189h0c.026-.14.052-.285.077-.44a5.8,5.8,0,0,1,.407-1.557,1.13,1.13,0,0,1,1.057-.733,1.819,1.819,0,0,1,.491.075c.02-.086.035-.178.05-.267a2.958,2.958,0,0,1,.081-.384,1.14,1.14,0,0,0-.512-.127,1.709,1.709,0,0,0-1.269.822,2.087,2.087,0,0,0,.08-.371,2.292,2.292,0,0,1,.072-.346Zm-11.013,0c-.175,1.356-.426,2.662-.668,3.925l0,.011c-.037.191-.074.388-.111.582h.934c.037-.252.068-.525.1-.815a10.548,10.548,0,0,1,.377-2.1,1.7,1.7,0,0,1,.457-.715,1.22,1.22,0,0,1,.353-.224,1.13,1.13,0,0,1,.429-.083,1.421,1.421,0,0,1,.477.088,2.377,2.377,0,0,1,.058-.381,2.882,2.882,0,0,0,.051-.292,1.316,1.316,0,0,0-.493-.1,1.58,1.58,0,0,0-1.288.861,4.181,4.181,0,0,0,.094-.451c.018-.1.036-.209.058-.309Zm-10.9,0h0c-.025,0-.024.035-.022.065-.219,1.639-.518,3.171-.782,4.453h.934c.252-1.738.515-3.216.8-4.518Zm-3.543,1.34c.52,0,.947.016,1.306.051-.077.452-.163.905-.246,1.343h0c-.11.58-.223,1.179-.319,1.785h1.064c.3-1.9.672-4.134,1.13-6.343h-1.086c-.137.888-.295,1.778-.434,2.563h0l-.591.008h0c-.328.005-.667.011-1,.011-.51,0-.922-.013-1.3-.041.089-.42.167-.861.242-1.287h0c.073-.415.149-.844.235-1.254H-562.8c-.113.643-.225,1.3-.333,1.932-.249,1.458-.506,2.966-.8,4.411h1.064c.025-.158.05-.323.073-.468.139-.894.282-1.818.47-2.681l.255-.007h0C-561.641,1201.77-561.2,1201.758-560.761,1201.758Zm4.385-3.245a1.02,1.02,0,0,0-.169.016.529.529,0,0,0-.369.2.942.942,0,0,0-.134.405.536.536,0,0,0,.091.42.43.43,0,0,0,.3.1.806.806,0,0,0,.394-.1.893.893,0,0,0,.275-.595.427.427,0,0,0-.122-.361A.39.39,0,0,0-556.376,1198.513Zm2.183,5.934a1.038,1.038,0,0,1-.6-.174.754.754,0,0,1-.313-.553,2.654,2.654,0,0,1,.1-.854c.026-.112.052-.227.072-.341.03-.168.056-.334.082-.495h0c.037-.23.072-.447.113-.656a1.411,1.411,0,0,1,1.065-.441,1.18,1.18,0,0,1,.661.181.818.818,0,0,1,.359.586,3.362,3.362,0,0,1-.112,1.356,2.58,2.58,0,0,1-.518,1.034A1.276,1.276,0,0,1-554.194,1204.447Zm22.706-.01a.863.863,0,0,1-.685-.273,1.15,1.15,0,0,1-.24-.749,3.449,3.449,0,0,1,.352-1.631,1.5,1.5,0,0,1,1.125-.867,2.164,2.164,0,0,1,.238-.014,2.665,2.665,0,0,1,.913.187c-.071.285-.119.6-.17.939a6.273,6.273,0,0,1-.389,1.623,1.431,1.431,0,0,1-.422.557,1.144,1.144,0,0,1-.692.225Zm-7.44-.022a.8.8,0,0,1-.611-.232.781.781,0,0,1-.151-.637,1.02,1.02,0,0,1,.538-.806,2.285,2.285,0,0,1,1.109-.232,4.9,4.9,0,0,1,.59.038l-.008.047a2.689,2.689,0,0,1-.535,1.473A1.412,1.412,0,0,1-538.928,1204.416Zm-9.19-2.433h-2.194a1.274,1.274,0,0,1,.377-.722,1.287,1.287,0,0,1,.861-.364l.084,0a.942.942,0,0,1,.778.283.922.922,0,0,1,.094.8Z" transform="translate(567.71 -1192.903)"/></g></svg>