<svg xmlns="http://www.w3.org/2000/svg" width="27.39" height="21.698" viewBox="0 0 27.39 21.698"><defs><style>.a{fill:#fff;}</style></defs><g transform="translate(0 0)"><path class="a" d="M24.331,3.825h-5.1A10.7,10.7,0,0,0,8.285,14.768,10.869,10.869,0,0,0,19.227,25.523h5.1c5.931.028,11.344-4.837,11.344-10.755A11.079,11.079,0,0,0,24.331,3.825Zm-5.08,20.764a9.934,9.934,0,1,1,9.931-9.934A9.936,9.936,0,0,1,19.251,24.589Z" transform="translate(-8.285 -3.825)"/></g><g transform="translate(13.218 4.953)"><path class="a" d="M21.5,8.778V20.531a6.292,6.292,0,0,0,0-11.753Z" transform="translate(-21.503 -8.778)"/></g><g transform="translate(4.673 4.953)"><path class="a" d="M12.958,14.654A6.3,6.3,0,0,0,17,20.528V8.778A6.305,6.305,0,0,0,12.958,14.654Z" transform="translate(-12.958 -8.778)"/></g></svg>