<svg xmlns="http://www.w3.org/2000/svg" width="50" height="19.158" viewBox="0 0 50 19.158"><defs><style>.a{fill:#fff;}</style></defs><g transform="translate(0)"><g transform="translate(0 0)"><path class="a" d="M432.951,173.531a5.647,5.647,0,0,1,7.311,4.223l3.866-.788a9.587,9.587,0,0,0-12.427-7.173Z" transform="translate(-425.157 -169.3)"/><path class="a" d="M173.433,279.654l2.615-2.955a5.635,5.635,0,0,1,0-8.442l-2.615-2.957a9.583,9.583,0,0,0,0,14.354" transform="translate(-170.2 -262.898)"/><path class="a" d="M440.262,597.3a5.637,5.637,0,0,1-5.522,4.506,5.562,5.562,0,0,1-1.789-.29l-1.251,3.743a9.6,9.6,0,0,0,12.427-7.166Z" transform="translate(-425.157 -586.591)"/></g></g><path class="a" d="M1028.8,379.126a6.885,6.885,0,0,1-.4-.776,5.875,5.875,0,0,1,2.932-7.641,5.884,5.884,0,0,1,5.4.393,5.77,5.77,0,0,1,2.412,2.912c.073.173.138.355.2.513Zm3.523-6.132a2.906,2.906,0,0,0-1.764,3.09l5.3-2.284A2.818,2.818,0,0,0,1032.323,372.994Zm4.2,4.969a0,0,0,0,0,0,0l-.11-.075a3.12,3.12,0,0,1-1.434,1.2,2.787,2.787,0,0,1-3.075-.31l-.073.11a0,0,0,0,0,0,0l-1.346,2.014a5.833,5.833,0,0,0,1.068.585,5.836,5.836,0,0,0,7.021-2.157Z" transform="translate(-1006.45 -365.202)"/><path class="a" d="M1535.584,271v11.194l1.741.706-.988,2.307-1.922-.8a2.174,2.174,0,0,1-.946-.8,2.5,2.5,0,0,1-.37-1.386V271Z" transform="translate(-1499 -268.455)"/><g transform="translate(38.421 5.042)"><path class="a" d="M1708.472,433.781a3.164,3.164,0,0,1,1.088-2.389l-1.786-1.992a5.848,5.848,0,0,0-.005,8.757l1.784-1.992A3.164,3.164,0,0,1,1708.472,433.781Z" transform="translate(-1705.8 -427.934)"/><path class="a" d="M1866.959,632.732a3.186,3.186,0,0,1-1.006-.165l-.853,2.535a5.854,5.854,0,0,0,7.591-4.366l-2.622-.535A3.17,3.17,0,0,1,1866.959,632.732Z" transform="translate(-1861.114 -623.71)"/><path class="a" d="M1867.454,370.8a5.9,5.9,0,0,0-1.854.3l.846,2.537a3.173,3.173,0,0,1,4.113,2.382l2.622-.53A5.851,5.851,0,0,0,1867.454,370.8Z" transform="translate(-1861.602 -370.8)"/></g></svg>