<svg xmlns="http://www.w3.org/2000/svg" width="106.462" height="25" viewBox="0 0 106.462 25"><defs><style>.a{fill:#ffa400;}.b{fill:#003a70;}</style></defs><g transform="translate(5.659 5.754)"><path class="a" d="M38.44,31.54h-2.6V30.206a1.931,1.931,0,1,0-3.863,0V31.54h-2.6V30.206a4.528,4.528,0,1,1,9.057,0V31.54Z" transform="translate(-29.383 -25.678)"/></g><path class="b" d="M35.251,44.523H24.1a.868.868,0,0,0-.866.866v8.25a.868.868,0,0,0,.866.866H35.251a.868.868,0,0,0,.866-.866V45.389A.868.868,0,0,0,35.251,44.523ZM30.24,49.94v1.118a.565.565,0,1,1-1.13,0V49.94a1.147,1.147,0,1,1,1.13,0Z" transform="translate(-19.487 -32.907)"/><path class="a" d="M14.671,37.069H11.98a.79.79,0,0,1,0-1.58h2.691a.79.79,0,1,1,0,1.58Z" transform="translate(-11.19 -26.683)"/><path class="a" d="M22.012,19.582a.787.787,0,0,1-.5-.18l-2.129-1.75a.79.79,0,0,1,1-1.22l2.129,1.75a.79.79,0,0,1-.5,1.4Z" transform="translate(-16.635 -13.429)"/><path class="a" d="M42.194,11.469a.79.79,0,0,1-.79-.79V7.967a.79.79,0,0,1,1.58,0v2.712A.79.79,0,0,1,42.194,11.469Z" transform="translate(-32.007 -7.177)"/><g transform="translate(14.208 2.823)"><path class="a" d="M57.66,19.582a.79.79,0,0,1-.5-1.4l2.129-1.75a.79.79,0,0,1,1,1.22L58.162,19.4A.786.786,0,0,1,57.66,19.582Z" transform="translate(-56.87 -16.252)"/></g><path class="a" d="M66.391,37.069H63.674a.79.79,0,0,1,0-1.58h2.717a.79.79,0,1,1,0,1.58Z" transform="translate(-46.806 -26.683)"/><path class="b" d="M85.519,54.373V44.333h2.439V52.26h3.886v2.113Z" transform="translate(-62.4 -32.776)"/><path class="b" d="M115.371,57.022v.284a2.561,2.561,0,0,1-.014.27h-5.119a1.233,1.233,0,0,0,.177.539,1.528,1.528,0,0,0,.383.418,1.878,1.878,0,0,0,1.127.376,1.955,1.955,0,0,0,.936-.206,1.846,1.846,0,0,0,.624-.532l1.617,1.021A3.271,3.271,0,0,1,113.79,60.3a4.342,4.342,0,0,1-1.893.39,4.524,4.524,0,0,1-1.5-.248,3.644,3.644,0,0,1-1.241-.723,3.344,3.344,0,0,1-.837-1.17,3.914,3.914,0,0,1-.3-1.588,3.977,3.977,0,0,1,.3-1.567,3.547,3.547,0,0,1,.808-1.191,3.6,3.6,0,0,1,1.205-.759,4.125,4.125,0,0,1,1.5-.269,3.807,3.807,0,0,1,1.432.263,3.116,3.116,0,0,1,1.12.759,3.51,3.51,0,0,1,.73,1.205A4.648,4.648,0,0,1,115.371,57.022Zm-2.141-.893a1.4,1.4,0,0,0-.347-.95,1.312,1.312,0,0,0-1.042-.4,1.764,1.764,0,0,0-.624.106,1.618,1.618,0,0,0-.5.291,1.438,1.438,0,0,0-.34.433,1.267,1.267,0,0,0-.142.518h2.992Z" transform="translate(-77.897 -38.871)"/><path class="b" d="M136.079,51.523v2.7a1.217,1.217,0,0,0,.191.747.82.82,0,0,0,.688.249,2.466,2.466,0,0,0,.362-.028,1.254,1.254,0,0,0,.319-.085l.028,1.7a3.869,3.869,0,0,1-.61.149,4.313,4.313,0,0,1-.737.064,3.476,3.476,0,0,1-1.191-.178,1.84,1.84,0,0,1-.773-.512,2,2,0,0,1-.418-.8,3.877,3.877,0,0,1-.128-1.031V51.523h-1.134v-1.73h1.12V47.935h2.283v1.858h1.659v1.73Z" transform="translate(-94.89 -35.258)"/><path class="b" d="M162.294,55.492a2.6,2.6,0,0,0-.667-.454,1.841,1.841,0,0,0-.808-.184,1.423,1.423,0,0,0-.6.128.448.448,0,0,0-.277.44.438.438,0,0,0,.3.425,6.651,6.651,0,0,0,.986.284,5.365,5.365,0,0,1,.8.241,2.829,2.829,0,0,1,.73.411,1.971,1.971,0,0,1,.525.624,1.832,1.832,0,0,1,.2.879,2.117,2.117,0,0,1-.971,1.872,3.03,3.03,0,0,1-.971.411,4.675,4.675,0,0,1-1.078.128,5.322,5.322,0,0,1-1.694-.277,3.554,3.554,0,0,1-1.383-.816l1.3-1.375a2.6,2.6,0,0,0,.766.567,2.128,2.128,0,0,0,.964.227,1.266,1.266,0,0,0,.56-.135.484.484,0,0,0,.277-.475.509.509,0,0,0-.34-.482,6.118,6.118,0,0,0-1.063-.326,5.463,5.463,0,0,1-.737-.227,2.324,2.324,0,0,1-.659-.383,1.9,1.9,0,0,1-.475-.6,1.818,1.818,0,0,1-.184-.851,2.065,2.065,0,0,1,.269-1.085,2.279,2.279,0,0,1,.695-.73,3.089,3.089,0,0,1,.943-.418,4.078,4.078,0,0,1,1.028-.135,4.972,4.972,0,0,1,1.553.248,3.355,3.355,0,0,1,1.283.745Z" transform="translate(-111.915 -38.872)"/><path class="b" d="M190.378,54.373V44.333h6.75v2.042h-4.41v1.9h4.169v1.943h-4.169V52.3h4.665v2.07h-7.005Z" transform="translate(-134.645 -32.776)"/><path class="b" d="M222.34,60.531V56.674a3.142,3.142,0,0,0-.05-.567,1.58,1.58,0,0,0-.163-.475.85.85,0,0,0-.319-.326,1.012,1.012,0,0,0-.518-.12,1.177,1.177,0,0,0-.546.12,1.108,1.108,0,0,0-.39.333,1.507,1.507,0,0,0-.234.489,2.108,2.108,0,0,0-.078.574v3.829H217.7V53.469h2.255v.979h.028A2.346,2.346,0,0,1,220.32,54a1.993,1.993,0,0,1,.482-.376,3.006,3.006,0,0,1,.6-.255,2.381,2.381,0,0,1,.695-.1,2.606,2.606,0,0,1,1.205.255,2.308,2.308,0,0,1,.8.659,2.6,2.6,0,0,1,.439.929,4.2,4.2,0,0,1,.135,1.049v4.367h-2.34Z" transform="translate(-153.471 -38.934)"/><path class="b" d="M247.783,55.688a1.415,1.415,0,0,0-.539-.411,1.654,1.654,0,0,0-.695-.156,1.47,1.47,0,0,0-.667.149,1.616,1.616,0,0,0-.511.4,1.866,1.866,0,0,0-.333.574,1.985,1.985,0,0,0-.121.695,2.089,2.089,0,0,0,.114.695,1.691,1.691,0,0,0,.333.574,1.581,1.581,0,0,0,.525.39,1.607,1.607,0,0,0,.688.142,1.928,1.928,0,0,0,.7-.135,1.346,1.346,0,0,0,.56-.39l1.29,1.574a3.037,3.037,0,0,1-1.134.667,4.468,4.468,0,0,1-1.475.241,4.672,4.672,0,0,1-1.562-.255,3.632,3.632,0,0,1-1.26-.745,3.5,3.5,0,0,1-.842-1.184,4.157,4.157,0,0,1,0-3.134,3.5,3.5,0,0,1,.842-1.184,3.719,3.719,0,0,1,1.26-.752,4.517,4.517,0,0,1,1.548-.263,4.08,4.08,0,0,1,.759.071,5.1,5.1,0,0,1,.723.192,3.3,3.3,0,0,1,.638.3,2.7,2.7,0,0,1,.5.39Z" transform="translate(-170.591 -38.87)"/><path class="b" d="M271.117,55.383a1.842,1.842,0,0,0-.3-.057q-.149-.014-.291-.014a1.662,1.662,0,0,0-.787.17,1.6,1.6,0,0,0-.51.41,1.551,1.551,0,0,0-.276.523,1.744,1.744,0,0,0-.085.495v3.621h-2.326V53.477h2.241V54.5h.028a2.3,2.3,0,0,1,.766-.885,1.973,1.973,0,0,1,1.149-.343c.094,0,.187,0,.276.014a1.1,1.1,0,0,1,.22.043Z" transform="translate(-187.116 -38.934)"/><path class="b" d="M287.942,62.033a6.18,6.18,0,0,1-.475.985,2.969,2.969,0,0,1-.624.737,2.465,2.465,0,0,1-.851.461,3.813,3.813,0,0,1-1.156.156,5.558,5.558,0,0,1-.674-.043,4.161,4.161,0,0,1-.6-.114l.255-1.957a2.6,2.6,0,0,0,.376.092,2.255,2.255,0,0,0,.376.035,1.053,1.053,0,0,0,.78-.248,2.012,2.012,0,0,0,.411-.7l.227-.581-2.949-6.949h2.581l1.574,4.538h.043l1.4-4.538H291.1Z" transform="translate(-198.483 -39.373)"/><path class="b" d="M318.8,56.97a4.465,4.465,0,0,1-.227,1.418,3.652,3.652,0,0,1-.659,1.2,3.261,3.261,0,0,1-1.057.83,3.131,3.131,0,0,1-1.418.312,2.967,2.967,0,0,1-1.234-.263,2.2,2.2,0,0,1-.908-.716h-.028v4.183h-2.326V53.468h2.212v.865h.043a2.869,2.869,0,0,1,.9-.745,2.741,2.741,0,0,1,1.354-.319,3.182,3.182,0,0,1,1.39.3,3.133,3.133,0,0,1,1.056.808,3.678,3.678,0,0,1,.667,1.184A4.265,4.265,0,0,1,318.8,56.97Zm-2.255,0a2.139,2.139,0,0,0-.106-.667,1.735,1.735,0,0,0-.312-.574,1.562,1.562,0,0,0-1.241-.56,1.566,1.566,0,0,0-.709.156,1.689,1.689,0,0,0-.532.411,1.873,1.873,0,0,0-.34.582,1.9,1.9,0,0,0,0,1.333,1.882,1.882,0,0,0,.34.582,1.7,1.7,0,0,0,.532.411,1.565,1.565,0,0,0,.709.156,1.6,1.6,0,0,0,.723-.156,1.542,1.542,0,0,0,.518-.411,1.807,1.807,0,0,0,.312-.589A2.2,2.2,0,0,0,316.54,56.97Z" transform="translate(-217.708 -38.933)"/><path class="b" d="M340.6,51.523v2.7a1.217,1.217,0,0,0,.191.747.82.82,0,0,0,.688.249,2.466,2.466,0,0,0,.362-.028,1.238,1.238,0,0,0,.319-.085l.028,1.7a3.835,3.835,0,0,1-.61.149,4.312,4.312,0,0,1-.737.064,3.468,3.468,0,0,1-1.191-.178,1.841,1.841,0,0,1-.773-.512,2,2,0,0,1-.418-.8,3.878,3.878,0,0,1-.128-1.031V51.523H337.2v-1.73h1.12V47.935H340.6v1.858h1.659v1.73Z" transform="translate(-235.801 -35.258)"/><path class="b" d="M153.054,43.714a1.185,1.185,0,0,0-1.244,1.145,1.077,1.077,0,0,0,1.145,1.131.831.831,0,0,0,.166-.016,1.294,1.294,0,0,1-1.048.932l-.093.015V48l.12-.012a2.549,2.549,0,0,0,1.5-.69,2.827,2.827,0,0,0,.8-2.1A1.373,1.373,0,0,0,153.054,43.714Z" transform="translate(-108.073 -32.35)"/></svg>