<svg xmlns="http://www.w3.org/2000/svg" width="385.196" height="82.579" viewBox="0 0 385.196 82.579">
  <g id="Grupo_1" data-name="Grupo 1" transform="translate(403.714 -34.132)">
    <path id="Caminho_1" data-name="Caminho 1" d="M-181.585,66.488c0,18.746,19.774,32.357,44.94,32.357,25.68,0,44.94-13.867,44.94-32.357,0-18.746-19.774-32.356-44.94-32.356C-162.838,34.132-181.585,48.256-181.585,66.488Zm16.435,0c0-8.988,1.284-29.018,28.5-29.018,26.45,0,28.505,19.517,28.505,29.018s-1.8,29.018-28.505,29.018C-162.838,95.506-165.15,75.99-165.15,66.488Z" fill="#3f3f3f"/>
    <path id="Caminho_2" data-name="Caminho 2" d="M-90.678,35.159c-1.284,0-1.8.513-1.8,1.541v2.568h27.734a.681.681,0,0,1,.771.77v52.9c0,2.825,1.284,4.109,3.6,4.109h12.069V40.038c0-.77.257-.77.771-.77h27.22c1.284,0,1.8-.771,1.8-1.541V35.159Z" fill="#3f3f3f"/>
    <path id="Caminho_3" data-name="Caminho 3" d="M-212.143,68.543c7.447-8.475,9.5-10.786,30.045-33.384h-4.366c-1.54,0-2.054.257-3.852,2.311L-216.252,67l-23.882-27.478c-3.339-3.338-6.164-4.365-11.556-4.365h-13.354c2.311,1.284,3.6,2.311,6.934,5.906,2.311,2.311,17.2,18.49,27.734,30.559V93.195c0,2.825,1.284,4.109,3.6,4.109h12.07V75.476C-214.968,72.395-214.2,70.854-212.143,68.543Z" fill="#3f3f3f"/>
    <path id="Caminho_4" data-name="Caminho 4" d="M-260.678,87.289c-8.218-12.07-24.139-39.547-27.221-45.2-3.338-6.163-5.136-6.933-9.5-6.933h-12.583c1.8,1.027,3.081,3.081,4.879,6.42C-311.781,51.594-340.542,97.3-340.542,97.3h3.081a3.958,3.958,0,0,0,3.339-2.311c3.338-5.136,11.042-17.463,11.812-18.49,1.028-1.541,1.8-1.541,4.109-1.541h32.613c5.907,10.016,6.677,11.043,9.245,15.665,3.082,5.65,4.109,6.677,8.731,6.677H-252.2C-254.772,96.533-259.137,89.857-260.678,87.289Zm-58.807-15.665L-303.563,46.2c.256-.257.77-.257.77,0,.257.257,14.894,25.423,14.894,25.423Z" fill="#3f3f3f"/>
    <path id="Caminho_5" data-name="Caminho 5" d="M-363.911,35.159h-39.8c1.284.257,2.311,1.8,2.311,3.6v54.7c0,2.825,1.284,4.109,3.6,4.109h12.07V72.651c0-.77.256-.77.77-.77H-363.4c20.03,0,30.816-7.19,30.816-19.517C-332.325,45.174-339,35.159-363.911,35.159Zm-1.027,33.127h-20.03c-.77,0-.77-.257-.77-.771V38.5h17.462c12.326,0,20.03,3.595,20.03,14.124C-348.5,62.636-354.409,68.286-364.938,68.286Z" fill="#3f3f3f"/>
    <rect id="Retângulo_1" data-name="Retângulo 1" width="385.196" height="2.143" transform="translate(-403.714 114.568)" fill="#3f3f3f"/>
  </g>
</svg>
