<svg xmlns="http://www.w3.org/2000/svg" width="28.667" height="24" viewBox="0 0 28.667 24"><defs><style>.a{fill:#707070;}</style></defs><g transform="translate(0.01 0.003)"><path class="a" d="M27.905,9.5a.464.464,0,0,0,.752-.366V6.649a.465.465,0,0,0-.177-.366L20.92.312a1.447,1.447,0,0,0-1.8,0L16.274,2.559V1.683a.465.465,0,0,0-.464-.466H13.828a.465.465,0,0,0-.464.466V4.858l-1.8,1.425a.466.466,0,0,0-.177.366V9.131a.464.464,0,0,0,.752.366l.238-.189v4.537L8.042,10.424a1.447,1.447,0,0,0-1.8,0l-6.074,4.8a.466.466,0,0,0-.177.366V18.07a.466.466,0,0,0,.262.419.458.458,0,0,0,.2.047.465.465,0,0,0,.287-.1l.24-.189v4.82H.455a.466.466,0,0,0,0,.931H28.192a.466.466,0,0,0,0-.931h-.526V9.308l.239.189ZM14.293,2.148h1.053V3.293l-1.053.831ZM12.311,6.875l7.383-5.832a.524.524,0,0,1,.651,0l7.383,5.832v1.3L20.307,2.31a.463.463,0,0,0-.575,0L12.311,8.172ZM.919,15.813l5.9-4.658a.524.524,0,0,1,.651,0l4.906,3.875v1.3L7.429,12.422a.462.462,0,0,0-.575,0L.919,17.11v-1.3Zm.991,1.7L7.142,13.38l5.232,4.133v5.554H10.33V17.573a.465.465,0,0,0-.464-.466H4.417a.465.465,0,0,0-.464.466v5.493H1.91V17.513Zm2.972,2.512H9.4V21.08H4.882Zm4.52-.931H4.882V18.039H9.4Zm-4.52,2.917H9.4v1.055H4.882Zm13.435-2.42h-.031a.466.466,0,0,0,0,.931h.031v2.546H16.274V17.046h2.043Zm8.42,3.475H19.246V16.58a.465.465,0,0,0-.464-.466H15.81a.465.465,0,0,0-.464.466v6.486H13.3V8.575L20.02,3.269l6.718,5.306Z"/><path class="a" d="M336.464,264.554h2.972a.465.465,0,0,0,.464-.466v-3.973a.465.465,0,0,0-.464-.466h-2.972a.465.465,0,0,0-.464.466v3.973A.465.465,0,0,0,336.464,264.554Zm.464-.931v-1.552h2.043v1.552Zm2.043-3.042v.559h-2.043v-.559Z" transform="translate(-315.206 -243.536)"/><path class="a" d="M336.464,152.554h2.972a.465.465,0,0,0,.464-.466v-3.973a.465.465,0,0,0-.464-.466h-2.972a.465.465,0,0,0-.464.466v3.973A.465.465,0,0,0,336.464,152.554Zm.464-.931v-1.552h2.043v1.552Zm2.043-3.041v.559h-2.043v-.559Z" transform="translate(-315.206 -138.488)"/><path class="a" d="M251.436,147.65h-2.972a.465.465,0,0,0-.464.466v3.973a.465.465,0,0,0,.464.466h2.972a.465.465,0,0,0,.464-.466v-3.973a.465.465,0,0,0-.464-.466Zm-.464.931v.559h-2.043v-.559Zm-2.043,3.041v-1.552h2.043v1.552Z" transform="translate(-232.655 -138.488)"/></g></svg>