
<svg xmlns="http://www.w3.org/2000/svg" width="24" height="23.297" viewBox="0 0 24 23.297"><defs></defs><g transform="translate(-0.051 -0.051)"><path class="a" d="M96.677,82.453H79.3l-1-2.353a.822.822,0,0,0-.568-.478l-3.223-.758a.822.822,0,0,0-.376,1.6l2.818.663,7.215,16.959a2.717,2.717,0,1,0,4.868.273h2.96A2.718,2.718,0,1,0,94.5,96.7l-9.127.013-1.126-2.646H96.677a.822.822,0,0,0,.822-.822V83.275A.822.822,0,0,0,96.677,82.453ZM94.5,98.347a1.074,1.074,0,1,1-1.074,1.074A1.074,1.074,0,0,1,94.5,98.347Zm-7.961,0a1.074,1.074,0,1,1-1.074,1.074A1.074,1.074,0,0,1,86.536,98.347Zm9.319-10.908H90.407a.822.822,0,1,0,0,1.644h5.448v3.343H83.544L80,84.1H95.855Z" transform="translate(-73.447 -78.79)"/></g></svg>