<svg xmlns="http://www.w3.org/2000/svg" width="103.395" height="25" viewBox="0 0 103.395 25"><defs><style>.a{fill:#313133;}.b{fill:#00407a;}.b,.c{fill-rule:evenodd;}.c{fill:#005295;}</style></defs><g transform="translate(29.351 1.452)"><path class="a" d="M835.181,28.158h-6.242v12.79h-2.833V28.158h-6.254V25.324h15.329Z" transform="translate(-819.852 -25.324)"/><path class="a" d="M860.8,40.948h-2.832V37.114H848.01v3.834h-2.833V33.137a8.219,8.219,0,0,1,.589-3.148,7.326,7.326,0,0,1,1.634-2.474,7.441,7.441,0,0,1,2.473-1.612,8.22,8.22,0,0,1,3.116-.578h6.386a1.452,1.452,0,0,1,.555.109,1.388,1.388,0,0,1,.457.306,1.408,1.408,0,0,1,.414,1.014ZM848.01,34.281h9.959V28.158h-4.979q-.132,0-.55.037a5.634,5.634,0,0,0-.969.191,6.031,6.031,0,0,0-1.161.469,4.053,4.053,0,0,0-1.122.871,4.481,4.481,0,0,0-.845,1.39,5.469,5.469,0,0,0-.332,2.021Z" transform="translate(-828.604 -25.324)"/><path class="a" d="M887.565,28.158H881.32v12.79h-2.832V28.158h-6.255V25.324h15.332Z" transform="translate(-837.955 -25.324)"/><path class="a" d="M901.707,40.948h-2.833V25.324h2.833Z" transform="translate(-847.162 -25.324)"/><path class="a" d="M915.252,30.9l4.771-5.58h3.868l-6.722,7.834,6.677,7.79H920l-4.751-5.534-4.729,5.534h-3.857l6.668-7.79-6.69-7.834h3.836Z" transform="translate(-849.847 -25.324)"/></g><path class="b" d="M793.174,35.02l-7.674-11.1a1.357,1.357,0,0,0-1.224-.73H778.95c-.164,0-.459.141-.189.533L786.6,35.069a.937.937,0,0,1,0,1.133l-7.836,11.343c-.27.392.025.534.189.534h5.327a1.358,1.358,0,0,0,1.224-.73l7.674-11.1a.966.966,0,0,0,0-1.232Z" transform="translate(-776.262 -23.135)"/><path class="c" d="M783.938,37.783l-4.723-6.831a.838.838,0,0,0-.753-.449h-3.279c-.1,0-.282.087-.116.329l4.823,6.982a.576.576,0,0,1,0,.7l-4.823,6.982c-.166.241.015.328.116.328h3.279a.836.836,0,0,0,.753-.449l4.723-6.831a.593.593,0,0,0,0-.758Z" transform="translate(-775 -25.662)"/><path class="c" d="M797.663,29.118a.994.994,0,0,0-.1,1.324l2.572,3.581s.355.566.793-.076,6.869-10.093,6.987-10.288c.151-.251.169-.548-.192-.548L802.3,23.1a1.312,1.312,0,0,0-.951.613C800.923,24.318,797.663,29.118,797.663,29.118Z" transform="translate(-782.724 -23.105)"/><path class="c" d="M797.663,49.407a.994.994,0,0,1-.1-1.324l2.572-3.58s.355-.566.793.076,6.869,10.093,6.987,10.287c.151.251.169.548-.192.548l-5.424.006a1.312,1.312,0,0,1-.951-.613C800.923,54.207,797.663,49.407,797.663,49.407Z" transform="translate(-782.724 -30.421)"/><g transform="translate(35.34 18.758)"><path class="a" d="M831.592,52.2l0,.466-2.122.009.007,1.829,1.677-.007,0,.466-1.677.007.008,2.309-.466,0L829,52.21Z" transform="translate(-829.004 -51.919)"/><path class="a" d="M836.587,56.8a1.684,1.684,0,0,1-.517-1.234l-.013-3.368.466,0,.013,3.369a1.282,1.282,0,1,0,2.564-.01l-.013-3.368.466,0,.013,3.369a1.748,1.748,0,0,1-2.979,1.247Z" transform="translate(-831.442 -51.913)"/><path class="a" d="M845.2,52.151l.018,4.6,2.356-.009v.466l-2.821.011-.02-5.071Z" transform="translate(-834.44 -51.902)"/><path class="a" d="M852.641,52.122l.018,4.605,2.355-.009,0,.466-2.821.011-.02-5.071Z" transform="translate(-837.012 -51.892)"/><path class="a" d="M866.849,56.691a2.068,2.068,0,0,0,1.15-.347l0,.537a2.539,2.539,0,0,1-1.15.276,2.585,2.585,0,0,1-.02-5.17,2.547,2.547,0,0,1,1.153.268l0,.537a2.072,2.072,0,0,0-1.153-.338,2.119,2.119,0,0,0,.016,4.238Z" transform="translate(-841.187 -51.845)"/><path class="a" d="M873.472,56.378a2.579,2.579,0,1,1,1.829.752A2.484,2.484,0,0,1,873.472,56.378Zm.316-3.325a2.117,2.117,0,1,0,1.495-.626A2.041,2.041,0,0,0,873.788,53.053Z" transform="translate(-844.107 -51.836)"/><path class="a" d="M888.544,51.974l.02,5.068-.463,0-.015-3.941L886.4,57.053l-.508,0-1.718-3.938.015,3.941-.466,0-.02-5.068.488,0,1.952,4.477,1.921-4.492Z" transform="translate(-847.907 -51.84)"/><path class="a" d="M899.347,51.932l.02,5.068-.463,0-.015-3.941-1.69,3.951-.509,0-1.716-3.938.015,3.941h-.467L894.5,51.95h.487l1.953,4.477,1.921-4.492Z" transform="translate(-851.641 -51.826)"/><path class="a" d="M907.894,51.9l0,.467-2.122.009.007,1.829,1.677-.007,0,.466-1.677.007.007,1.843,2.122-.009,0,.466-2.588.01-.02-5.071Z" transform="translate(-855.374 -51.816)"/><path class="a" d="M915.8,56.945l-.523,0-1.2-2.288-1.215,0,.009,2.288-.466,0-.02-5.068,1.822-.007a1.393,1.393,0,0,1,1.394,1.386,1.388,1.388,0,0,1-1.022,1.346Zm-1.582-2.752a.923.923,0,0,0-.007-1.847l-1.355.005.007,1.847Z" transform="translate(-857.821 -51.808)"/><path class="a" d="M922.807,56.474a2.07,2.07,0,0,0,1.15-.347l0,.536a2.542,2.542,0,0,1-1.151.277,2.585,2.585,0,0,1-.02-5.17,2.542,2.542,0,0,1,1.152.268l0,.537a2.068,2.068,0,0,0-1.152-.338,2.119,2.119,0,0,0,.016,4.238Z" transform="translate(-860.526 -51.77)"/><path class="a" d="M931.6,51.811l0,.467-2.122.008.007,1.83,1.677-.007,0,.466-1.677.007.007,1.843,2.122-.008,0,.466-2.588.009-.02-5.07Z" transform="translate(-863.566 -51.784)"/></g></svg>