<svg xmlns="http://www.w3.org/2000/svg" width="68.734" height="25" viewBox="0 0 68.734 25"><defs><style>.a{fill:#f71963;}</style></defs><path class="a" d="M221.3,186.14H199.464a2.245,2.245,0,0,0-1.985,3.3l2.184,4.136H195.7a1.456,1.456,0,0,0-1.288,2.134l7.025,13.3a1.456,1.456,0,0,0,2.573,0l1.908-3.592,2.394,4.532a2.246,2.246,0,0,0,3.97,0l10.944-20.595A2.187,2.187,0,0,0,221.3,186.14Zm-9.808,8.8-4.719,8.882a.969.969,0,0,1-1.712,0l-4.673-8.845a.969.969,0,0,1,.854-1.423h9.419a.943.943,0,0,1,.833,1.385Z" transform="translate(-194.248 -186.14)"/><path class="a" d="M934.8,317.808h-2.388v8.186a.282.282,0,0,1-.281.281h-1.842a.282.282,0,0,1-.281-.281v-8.186h-2.4a.27.27,0,0,1-.281-.259s0-.006,0-.008v-1.448a.27.27,0,0,1,.273-.268h7.2a.283.283,0,0,1,.3.267v1.448A.283.283,0,0,1,934.8,317.808Z" transform="translate(-884.522 -308.253)"/><path class="a" d="M1085.835,324.14a18.449,18.449,0,0,1-2.839.183c-1.814,0-3.417-.464-3.417-3.023v-4.671c0-2.559,1.617-3.009,3.43-3.009a18.209,18.209,0,0,1,2.825.183c.2.028.281.1.281.281v1.31a.282.282,0,0,1-.281.281h-2.965c-.661,0-.9.225-.9.956v1.28h3.752a.282.282,0,0,1,.281.281v1.336a.282.282,0,0,1-.281.281h-3.752V321.3c0,.731.239.956.9.956h2.965a.282.282,0,0,1,.281.281v1.308C1086.116,324.027,1086.032,324.112,1085.835,324.14Z" transform="translate(-1027.892 -306.177)"/><path class="a" d="M1223.779,326.255h-2.235a.373.373,0,0,1-.365-.211l-1.938-3.077-1.756,3.01c-.1.169-.2.281-.35.281h-2.081a.186.186,0,0,1-.211-.183.263.263,0,0,1,.028-.1l3.046-5.079-3.077-4.823a.2.2,0,0,1-.028-.085.2.2,0,0,1,.211-.183h2.263c.155,0,.267.141.35.267l1.8,2.84,1.741-2.84a.456.456,0,0,1,.35-.267h2.081a.175.175,0,0,1,.183.267l-3.062,4.853,3.193,5.049a.313.313,0,0,1,.042.141C1223.962,326.2,1223.891,326.255,1223.779,326.255Z" transform="translate(-1155.228 -308.236)"/><path class="a" d="M754.623,316.282a.217.217,0,0,0-.213.175l-2.041,7.554c-.028.155-.07.211-.2.211s-.169-.058-.2-.211l-2.043-7.556a.217.217,0,0,0-.212-.175h-2.009a.217.217,0,0,0-.211.266s2.493,8.663,2.52,8.749a2.116,2.116,0,0,0,2.168,1.526,2.182,2.182,0,0,0,2.167-1.523c.04-.117,2.477-8.752,2.477-8.752a.217.217,0,0,0-.211-.266Z" transform="translate(-715.194 -308.682)"/><path class="a" d="M221.3,186.14H199.464a2.245,2.245,0,0,0-1.985,3.3l2.184,4.136H195.7a1.456,1.456,0,0,0-1.288,2.134l7.025,13.3a1.456,1.456,0,0,0,2.573,0l1.908-3.592,2.394,4.532a2.246,2.246,0,0,0,3.97,0l10.944-20.595A2.187,2.187,0,0,0,221.3,186.14Zm-9.808,8.8-4.719,8.882a.969.969,0,0,1-1.712,0l-4.673-8.845a.969.969,0,0,1,.854-1.423h9.419a.943.943,0,0,1,.833,1.385Z" transform="translate(-194.248 -186.14)"/></svg>