<svg width="25" height="25" viewBox="0 0 25 25" fill="none" xmlns="http://www.w3.org/2000/svg">
<path fill-rule="evenodd" clip-rule="evenodd" d="M16.9003 16.9002C15.2043 18.5963 12.9482 19.5309 10.5489 19.5309C8.14965 19.5309 5.89512 18.5963 4.19912 16.9002C0.696969 13.3978 0.696969 7.70057 4.19912 4.1982C5.95019 2.44702 8.24877 1.57221 10.5489 1.57221C12.8491 1.57221 15.1492 2.44859 16.9003 4.1982C20.4024 7.70057 20.4024 13.3978 16.9003 16.9002ZM24.7699 23.6579L18.5412 17.4288C22.1095 13.2861 21.9396 7.01457 18.0126 3.08581C13.8985 -1.0286 7.20096 -1.0286 3.0868 3.08581C-1.02893 7.2018 -1.02893 13.8982 3.0868 18.0126C5.08016 20.0061 7.72958 21.1043 10.5489 21.1043C13.1039 21.1043 15.5158 20.1949 17.4289 18.5412L23.6576 24.7703C23.8118 24.9245 24.0132 25 24.213 25C24.4143 25 24.6157 24.9245 24.7699 24.7703C25.0767 24.4635 25.0767 23.9647 24.7699 23.6579Z" fill="black"/>
</svg>
