<svg width="23" height="23" viewBox="0 0 23 23" fill="none" xmlns="http://www.w3.org/2000/svg">
<path d="M0.311197 22.5859C0.447697 22.7224 0.626897 22.7903 0.806097 22.7903C0.985297 22.7903 1.1645 22.7217 1.3017 22.5852L11.3061 12.5689L21.3105 22.5852C21.447 22.7224 21.6262 22.7903 21.8061 22.7903C21.9853 22.7903 22.1645 22.7217 22.301 22.5859C22.5747 22.3129 22.5747 21.8698 22.3017 21.5961L12.3071 11.5903L22.301 1.58519C22.574 1.31149 22.574 0.868385 22.3003 0.595385C22.0259 0.321685 21.5835 0.321685 21.3105 0.596085L11.3054 10.6124L1.301 0.596085C1.0273 0.322385 0.584197 0.322385 0.311197 0.595385C0.0374973 0.868385 0.0374977 1.31149 0.310498 1.58519L10.3037 11.5903L0.310498 21.5961C0.0374977 21.8691 0.0374973 22.3129 0.311197 22.5859Z" fill="#183863"/>
</svg>
