<svg width="22" height="20" viewBox="0 0 22 20" fill="none" xmlns="http://www.w3.org/2000/svg">
<path fill-rule="evenodd" clip-rule="evenodd" d="M14.5202 13.2674C13.1634 14.5324 11.3586 15.2294 9.43914 15.2294C7.51972 15.2294 5.7161 14.5324 4.35929 13.2674C1.55757 10.6554 1.55757 6.40637 4.35929 3.79433C5.76015 2.4883 7.59901 1.83588 9.43914 1.83588C11.2793 1.83588 13.1194 2.48948 14.5202 3.79433C17.322 6.40637 17.322 10.6554 14.5202 13.2674ZM20.8159 18.3073L15.833 13.6617C18.6876 10.572 18.5516 5.89476 15.4101 2.96471C12.1188 -0.103798 6.76077 -0.103798 3.46944 2.96471C0.176854 6.0344 0.176854 11.0285 3.46944 14.097C5.06413 15.5837 7.18367 16.4028 9.43914 16.4028C11.4832 16.4028 13.4126 15.7246 14.9431 14.4913L19.9261 19.1369C20.0494 19.2519 20.2105 19.3082 20.3704 19.3082C20.5315 19.3082 20.6926 19.2519 20.8159 19.1369C21.0614 18.9081 21.0614 18.5361 20.8159 18.3073Z" fill="black" stroke="black"/>
</svg>
