<svg width="25" height="22" viewBox="0 0 25 22" fill="none" xmlns="http://www.w3.org/2000/svg">
<path d="M20.6311 13.9608C19.4018 12.87 17.9073 12.0414 16.2612 11.5379C17.4314 10.8281 18.3139 9.80587 18.7796 8.6208C19.2453 7.43574 19.2697 6.15005 18.8493 4.95183C18.4289 3.75362 17.5857 2.70576 16.4432 1.96157C15.3006 1.21738 13.9186 0.815918 12.4993 0.815918C11.08 0.815918 9.69803 1.21738 8.55546 1.96157C7.41288 2.70576 6.56972 3.75362 6.14932 4.95183C5.72892 6.15005 5.75336 7.43574 6.21905 8.6208C6.68474 9.80587 7.56725 10.8281 8.73746 11.5379C6.47871 12.2316 4.52023 13.5296 3.13375 15.2516C1.74727 16.9737 1.00153 19.0345 1 21.1482H2.7967C2.7967 20.0218 3.04769 18.9065 3.53532 17.8659C4.02296 16.8253 4.73769 15.8798 5.63873 15.0833C6.53976 14.2869 7.60944 13.6551 8.7867 13.2241C9.96395 12.793 11.2257 12.5712 12.5 12.5712C13.7742 12.5712 15.036 12.793 16.2133 13.2241C17.3905 13.6551 18.4602 14.2869 19.3612 15.0833C20.2623 15.8798 20.977 16.8253 21.4646 17.8659C21.9523 18.9065 22.2033 20.0218 22.2033 21.1482H24C24.0039 19.8128 23.7082 18.49 23.1299 17.2563C22.5517 16.0226 21.7024 14.9025 20.6311 13.9608ZM12.5 10.983C11.5404 10.983 10.6024 10.7315 9.80455 10.2603C9.00671 9.78909 8.38486 9.11932 8.01765 8.3357C7.65044 7.55208 7.55436 6.68981 7.74156 5.85793C7.92877 5.02605 8.39084 4.26191 9.06935 3.66216C9.74787 3.0624 10.6123 2.65396 11.5535 2.48849C12.4946 2.32302 13.4701 2.40795 14.3566 2.73253C15.2431 3.05712 16.0009 3.60678 16.534 4.31202C17.0671 5.01726 17.3516 5.84639 17.3516 6.69457C17.3502 7.83156 16.8386 8.92161 15.929 9.72558C15.0195 10.5296 13.7863 10.9818 12.5 10.983Z" fill="black" stroke="black" stroke-width="0.3"/>
</svg>
