<svg width="30" height="24" viewBox="0 0 30 24" fill="none" xmlns="http://www.w3.org/2000/svg">
<path d="M9.00513 20.8217C9.00513 19.8904 9.89784 18.9385 11.2442 18.9385C12.5906 18.9385 13.4834 19.8905 13.4834 20.8218C13.4834 21.753 12.5906 22.705 11.2442 22.705C9.8979 22.705 9.00513 21.753 9.00513 20.8217Z" stroke="black" stroke-width="2"/>
<path d="M21.8352 18.9387C23.1816 18.9387 24.0743 19.8907 24.0743 20.822C24.0743 21.7533 23.1816 22.7052 21.8352 22.7052C20.4888 22.7052 19.5961 21.7533 19.5961 20.822C19.5961 19.8907 20.4889 18.9387 21.8352 18.9387Z" stroke="black" stroke-width="2"/>
<path d="M29.0894 6.38722L29.0892 6.38702L29.0894 6.38722ZM29.0894 6.38722C29.0125 6.29539 28.9721 6.14612 29.0214 5.99875L29.0894 6.38722ZM7.9813 13.6337L6.02649 6.48508H6.21078H28.8584L26.4262 13.7395C26.1267 14.6328 25.1227 15.3646 23.8957 15.3646H10.544C9.24348 15.3646 8.24176 14.5862 7.9813 13.6337L7.01671 13.8975L7.9813 13.6337Z" stroke="black" stroke-width="2"/>
</svg>
