<svg width="19" height="19" viewBox="0 0 19 19" fill="none" xmlns="http://www.w3.org/2000/svg">
<path d="M13.6889 0H5.31321C2.46886 0 0.154785 2.31418 0.154785 5.15854V13.5343C0.154785 16.3787 2.46886 18.6928 5.31321 18.6928H13.6889C16.5335 18.6928 18.8476 16.3786 18.8476 13.5343V5.15854C18.8477 2.31418 16.5335 0 13.6889 0ZM17.1892 13.5343C17.1892 15.4642 15.619 17.0343 13.689 17.0343H5.31321C3.38336 17.0344 1.8133 15.4642 1.8133 13.5343V5.15854C1.8133 3.22869 3.38336 1.65852 5.31321 1.65852H13.6889C15.6189 1.65852 17.1891 3.22869 17.1891 5.15854V13.5343H17.1892Z" fill="#053664"/>
</svg>
