<svg width="46" height="41" viewBox="0 0 46 41" fill="none" xmlns="http://www.w3.org/2000/svg">
<path fill-rule="evenodd" clip-rule="evenodd" d="M44.1961 16.4844C44.1961 17.8088 43.4627 18.9642 42.3818 19.5662C42.3308 19.5946 42.2794 19.6218 42.2273 19.6474C42.2199 19.6511 42.2128 19.6551 42.2054 19.6586C42.1427 19.6889 42.0791 19.7169 42.0148 19.7434C42.0024 19.7485 41.9897 19.7533 41.9772 19.7583C41.9216 19.7805 41.8656 19.8013 41.809 19.8206C41.7981 19.8243 41.7872 19.8281 41.7762 19.8317C41.6387 19.8769 41.4986 19.914 41.3565 19.942C41.3526 19.9427 41.3488 19.9433 41.3449 19.9441C41.2811 19.9565 41.2168 19.9667 41.1523 19.9754C41.1366 19.9776 41.1208 19.9796 41.1051 19.9815C41.0505 19.9882 40.9957 19.9933 40.9406 19.9975C40.9231 19.9988 40.9058 20.0005 40.8882 20.0015C40.8185 20.0057 40.7485 20.0083 40.6784 20.0083C40.6237 20.0083 40.5692 20.0066 40.5151 20.0042C40.4932 20.0031 40.4714 20.0015 40.4496 20C40.4189 19.9981 40.3885 19.9958 40.3581 19.9931C40.3289 19.9903 40.2999 19.9874 40.2709 19.9839C40.2513 19.9817 40.2317 19.979 40.2121 19.9763C40.1756 19.9715 40.1391 19.9664 40.1027 19.9603C40.1016 19.9602 40.1005 19.96 40.0994 19.9597C39.1727 19.8032 38.3491 19.2776 37.8112 18.5221C37.8005 18.507 37.7896 18.4921 37.7791 18.4769C37.7633 18.4538 37.748 18.4302 37.7325 18.4067C37.7186 18.3854 37.7048 18.3641 37.6913 18.3423C37.678 18.3209 37.6648 18.2993 37.6519 18.2776C37.6372 18.2527 37.6229 18.2277 37.6088 18.2024C37.5975 18.1823 37.5861 18.1621 37.5751 18.1417C37.5598 18.1129 37.5452 18.0837 37.5306 18.0544C37.5216 18.0366 37.5122 18.0188 37.5036 18.0006C37.482 17.9551 37.4611 17.9093 37.4412 17.8629C37.4321 17.8411 37.4236 17.8189 37.4148 17.7968C37.4042 17.7706 37.3937 17.7444 37.3837 17.7179C37.3733 17.6901 37.3636 17.662 37.354 17.6339C37.3469 17.6134 37.3397 17.593 37.3331 17.5722C37.3229 17.5407 37.3131 17.5089 37.3038 17.4769C37.2114 17.1618 37.1608 16.8289 37.1608 16.4844V14.2373H44.1961V16.4844ZM41.9516 21.6603V38.589H18.5562V24.9314C18.5562 24.4325 18.1524 24.0279 17.6543 24.0279H8.81504C8.31698 24.0279 7.91308 24.4325 7.91308 24.9314V38.589H4.07704V21.6675C4.08787 21.6701 4.09878 21.6718 4.1096 21.6743C4.1897 21.6931 4.2706 21.7101 4.35196 21.7252C4.37325 21.7292 4.39462 21.733 4.41591 21.7367C4.49258 21.7499 4.56978 21.7613 4.64753 21.7712C4.67171 21.7744 4.69588 21.7777 4.72014 21.7804C4.79663 21.7892 4.87365 21.7957 4.95113 21.8011C4.97485 21.8027 4.99858 21.8053 5.02248 21.8065C5.12142 21.8121 5.22118 21.8155 5.32157 21.8155C5.40157 21.8155 5.48122 21.813 5.56059 21.8094C5.58106 21.8085 5.60163 21.8076 5.6221 21.8064C5.69354 21.8024 5.76479 21.7971 5.8356 21.7902C5.86716 21.7871 5.89846 21.7832 5.93003 21.7796C5.96882 21.7751 6.00742 21.7701 6.04593 21.7648C7.35802 21.585 8.51857 20.9247 9.34567 19.9668C9.34621 19.9663 9.34657 19.9658 9.34702 19.9652C9.4171 19.884 9.4852 19.801 9.55041 19.7155C9.55077 19.715 9.55113 19.7147 9.5514 19.7142C9.5772 19.6804 9.60237 19.6461 9.62735 19.6117C9.64728 19.5843 9.66685 19.5566 9.68625 19.5288C9.70456 19.5026 9.72341 19.4768 9.74118 19.4503C9.75894 19.4768 9.77771 19.5024 9.79593 19.5286C9.8155 19.5565 9.83507 19.5844 9.85518 19.6118C9.87999 19.6462 9.90497 19.6802 9.93077 19.7139C9.93176 19.7154 9.93284 19.7166 9.93393 19.718C9.99833 19.8022 10.0654 19.8843 10.1345 19.9644C10.1354 19.9654 10.1364 19.9665 10.1373 19.9676C10.9644 20.9251 12.1247 21.585 13.4363 21.7647C13.4749 21.7701 13.5135 21.7751 13.5524 21.7796C13.5839 21.7832 13.6152 21.7871 13.6468 21.7902C13.7176 21.7971 13.7888 21.8024 13.8603 21.8064C13.8807 21.8076 13.9013 21.8085 13.9218 21.8094C14.0011 21.813 14.0808 21.8155 14.1608 21.8155C14.2408 21.8155 14.3204 21.813 14.3998 21.8094C14.4203 21.8085 14.4408 21.8076 14.4613 21.8064C14.5328 21.8024 14.604 21.7971 14.6748 21.7902C14.7064 21.7871 14.7377 21.7832 14.7692 21.7796C14.808 21.7751 14.8466 21.7701 14.8851 21.7648C16.1972 21.585 17.3578 20.9247 18.1849 19.9668C18.1854 19.9663 18.1858 19.9658 18.1862 19.9652C18.2563 19.884 18.3244 19.801 18.3896 19.7155C18.39 19.715 18.3903 19.7147 18.3906 19.7142C18.4164 19.6804 18.4416 19.6461 18.4666 19.6117C18.4865 19.5843 18.5061 19.5566 18.5255 19.5288C18.5438 19.5026 18.5626 19.4768 18.5804 19.4503C18.5982 19.4768 18.6169 19.5024 18.6351 19.5286C18.6547 19.5565 18.6743 19.5844 18.6944 19.6118C18.7192 19.6462 18.7442 19.6802 18.77 19.7139C18.771 19.7154 18.7721 19.7166 18.7731 19.718C18.8375 19.8022 18.9046 19.8843 18.9737 19.9644C18.9746 19.9654 18.9756 19.9665 18.9765 19.9676C19.8036 20.9251 20.9639 21.585 22.2755 21.7647C22.3141 21.7701 22.3528 21.7751 22.3916 21.7796C22.4231 21.7832 22.4544 21.7871 22.486 21.7902C22.5568 21.7971 22.628 21.8024 22.6995 21.8064C22.7199 21.8076 22.7405 21.8085 22.761 21.8094C22.8404 21.813 22.92 21.8155 23 21.8155C23.08 21.8155 23.1596 21.813 23.239 21.8094C23.2595 21.8085 23.2801 21.8076 23.3005 21.8064C23.372 21.8024 23.4432 21.7971 23.514 21.7902C23.5456 21.7871 23.5769 21.7832 23.6085 21.7796C23.6472 21.7751 23.6859 21.7701 23.7244 21.7648C25.0364 21.585 26.197 20.9247 27.0241 19.9668C27.0246 19.9663 27.025 19.9658 27.0255 19.9652C27.0955 19.884 27.1636 19.801 27.2288 19.7155C27.2292 19.715 27.2296 19.7147 27.2298 19.7142C27.2556 19.6804 27.2808 19.6461 27.3058 19.6117C27.3257 19.5843 27.3453 19.5566 27.3647 19.5288C27.383 19.5026 27.4018 19.4768 27.4196 19.4503C27.4374 19.4768 27.4561 19.5024 27.4744 19.5286C27.4939 19.5565 27.5135 19.5844 27.5336 19.6118C27.5584 19.6462 27.5834 19.6802 27.6092 19.7139C27.6102 19.7154 27.6113 19.7166 27.6124 19.718C27.6768 19.8022 27.7439 19.8843 27.813 19.9644C27.8139 19.9654 27.8148 19.9665 27.8158 19.9676C28.6428 20.9251 29.8031 21.585 31.1148 21.7647C31.1534 21.7701 31.192 21.7751 31.2308 21.7796C31.2623 21.7832 31.2936 21.7871 31.3252 21.7902C31.396 21.7971 31.4672 21.8024 31.5387 21.8064C31.5592 21.8076 31.5797 21.8085 31.6002 21.8094C31.6796 21.813 31.7592 21.8155 31.8392 21.8155C31.9192 21.8155 31.9989 21.813 32.0782 21.8094C32.0987 21.8085 32.1193 21.8076 32.1397 21.8064C32.2112 21.8024 32.2824 21.7971 32.3532 21.7902C32.3848 21.7871 32.4161 21.7832 32.4477 21.7796C32.4865 21.7751 32.5251 21.7701 32.5636 21.7648C33.8757 21.585 35.0362 20.9247 35.8633 19.9668C35.8639 19.9663 35.8642 19.9658 35.8647 19.9652C35.9347 19.884 36.0028 19.801 36.0681 19.7155C36.0684 19.715 36.0688 19.7147 36.069 19.7142C36.0948 19.6804 36.12 19.6461 36.145 19.6117C36.1649 19.5843 36.1845 19.5566 36.2039 19.5288C36.2222 19.5026 36.2411 19.4768 36.2588 19.4503C36.2766 19.4768 36.2954 19.5024 36.3136 19.5286C36.3331 19.5565 36.3527 19.5844 36.3728 19.6118C36.3976 19.6462 36.4226 19.6802 36.4484 19.7139C36.4494 19.7154 36.4505 19.7166 36.4516 19.718C36.516 19.8022 36.5831 19.8843 36.6522 19.9644C36.6531 19.9654 36.6541 19.9665 36.655 19.9676C37.4821 20.9251 38.6423 21.585 39.954 21.7647C39.9926 21.7701 40.0312 21.7751 40.0701 21.7796C40.1015 21.7832 40.1328 21.7871 40.1644 21.7902C40.2352 21.7971 40.3065 21.8024 40.3779 21.8064C40.3984 21.8076 40.4189 21.8085 40.4394 21.8094C40.5188 21.813 40.5984 21.8155 40.6784 21.8155C40.7804 21.8155 40.8816 21.8119 40.9821 21.8062C41.007 21.8048 41.0318 21.8023 41.0566 21.8005C41.135 21.795 41.213 21.788 41.2904 21.7791C41.3151 21.7763 41.3396 21.7729 41.3643 21.7697C41.4452 21.7592 41.5256 21.747 41.6052 21.7329C41.6242 21.7295 41.6433 21.7262 41.6623 21.7227C41.7552 21.7051 41.8471 21.6855 41.9382 21.6632C41.9426 21.6622 41.9471 21.6614 41.9516 21.6603ZM9.717 38.5889H16.7523V25.835H9.717V38.5889ZM1.80392 14.2373H8.83922V16.4844C8.83922 16.8277 8.78898 17.1592 8.69734 17.4731C8.68733 17.5073 8.67686 17.5413 8.66586 17.5751C8.66018 17.5929 8.65404 17.6105 8.648 17.6281C8.63745 17.6589 8.6268 17.6898 8.61553 17.7201C8.60741 17.7417 8.59857 17.7629 8.59009 17.7845C8.57638 17.8191 8.56231 17.8535 8.54752 17.8876C8.53129 17.925 8.51469 17.9621 8.49728 17.9989C8.48709 18.0202 8.47618 18.0412 8.46544 18.0622C8.45255 18.0881 8.43947 18.114 8.42594 18.1395C8.41394 18.1621 8.4014 18.1842 8.38896 18.2065C8.37597 18.2294 8.36307 18.2522 8.34963 18.2748C8.33565 18.2984 8.32149 18.3218 8.30706 18.345C8.29488 18.3645 8.28234 18.3838 8.2699 18.403C8.2533 18.4284 8.23671 18.4538 8.21957 18.4788C8.211 18.4912 8.20207 18.5033 8.19341 18.5156C7.65557 19.2747 6.82965 19.803 5.90009 19.9598C5.89918 19.96 5.89837 19.9602 5.89738 19.9603C5.86094 19.9664 5.82432 19.9715 5.7877 19.9764C5.76813 19.979 5.74874 19.9817 5.72917 19.9838C5.70012 19.9874 5.67108 19.9903 5.64186 19.9931C5.61155 19.9958 5.58106 19.9981 5.55049 20C5.52866 20.0015 5.50683 20.0031 5.48491 20.0042C5.43071 20.0066 5.37632 20.0083 5.32157 20.0083C5.25221 20.0083 5.18312 20.0058 5.11403 20.0017C5.09644 20.0006 5.07885 19.9989 5.06117 19.9977C5.00778 19.9937 4.95465 19.9887 4.90144 19.9823C4.88448 19.9802 4.86761 19.9781 4.85084 19.9759C4.79221 19.9679 4.73376 19.9586 4.67577 19.9478C4.66638 19.9461 4.65691 19.9445 4.64753 19.9426C4.50962 19.9158 4.37361 19.8804 4.24012 19.8371C4.22542 19.8325 4.21098 19.8272 4.19637 19.8223C4.14731 19.8058 4.0986 19.788 4.05034 19.7692C4.03014 19.7614 4.00985 19.7535 3.98982 19.7453C3.94545 19.7271 3.90161 19.7076 3.85796 19.6876C3.83884 19.6788 3.81935 19.6706 3.80041 19.6614C3.74512 19.6349 3.69073 19.6065 3.63689 19.577C2.5456 18.9781 1.80392 17.8164 1.80392 16.4844V14.2373ZM5.93607 6.30268H11.3947L9.11477 12.4302H2.45342L5.93607 6.30268ZM6.31373 1.80714H39.7765V4.49554H25.9261C25.922 4.49545 25.918 4.49554 25.9141 4.49554H20.137C20.1337 4.49554 20.1303 4.49545 20.1269 4.49554H6.31373V1.80714ZM36.9374 12.4302L34.6574 6.30268H39.9788L43.5312 12.4302H36.9374ZM32.7322 6.30268L35.0122 12.4302H28.2135L27.0098 6.30268H32.7322ZM25.1713 6.30268L26.375 12.4302H19.6771L20.8808 6.30268H25.1713ZM19.0424 6.30268L17.8386 12.4302H11.0399L13.32 6.30268H19.0424ZM14.7366 19.9603C14.7002 19.9664 14.6635 19.9715 14.6269 19.9764C14.6073 19.979 14.588 19.9817 14.5684 19.9838C14.5393 19.9874 14.5103 19.9903 14.4811 19.9931C14.4508 19.9958 14.4203 19.9981 14.3897 20C14.3679 20.0015 14.346 20.0031 14.3241 20.0042C14.2699 20.0066 14.2155 20.0083 14.1608 20.0083C14.106 20.0083 14.0516 20.0066 13.9974 20.0042C13.9755 20.0031 13.9538 20.0015 13.932 20C13.9013 19.9981 13.8708 19.9958 13.8404 19.9931C13.8113 19.9903 13.7822 19.9874 13.7533 19.9839C13.7336 19.9817 13.714 19.979 13.6945 19.9763C13.6579 19.9715 13.6214 19.9664 13.5851 19.9603C13.584 19.9602 13.5828 19.96 13.5817 19.9597C12.6551 19.8032 11.8315 19.2776 11.2935 18.5221C11.2829 18.507 11.272 18.4921 11.2614 18.4769C11.2456 18.4538 11.2303 18.4302 11.2149 18.4067C11.201 18.3854 11.1871 18.3641 11.1737 18.3423C11.1603 18.3209 11.1472 18.2993 11.1343 18.2776C11.1196 18.2527 11.1052 18.2277 11.0911 18.2024C11.0799 18.1823 11.0684 18.1621 11.0575 18.1417C11.0422 18.1129 11.0276 18.0837 11.0129 18.0544C11.0039 18.0366 10.9945 18.0188 10.986 18.0006C10.9643 17.9551 10.9435 17.9093 10.9236 17.8629C10.9144 17.8411 10.906 17.8189 10.8971 17.7968C10.8866 17.7706 10.876 17.7444 10.866 17.7179C10.8556 17.6901 10.846 17.662 10.8363 17.6339C10.8292 17.6134 10.8221 17.593 10.8154 17.5722C10.8052 17.5407 10.7955 17.5089 10.7862 17.4769C10.6937 17.1618 10.6431 16.8289 10.6431 16.4844V14.2373H17.6784V16.4844C17.6784 16.8277 17.6282 17.1592 17.5366 17.4731C17.5265 17.5073 17.5161 17.5413 17.5051 17.5751C17.4994 17.5929 17.4933 17.6105 17.4872 17.6281C17.4767 17.6589 17.466 17.6898 17.4547 17.7201C17.4466 17.7417 17.4378 17.7629 17.4293 17.7845C17.4156 17.8191 17.4015 17.8535 17.3867 17.8876C17.3705 17.925 17.3539 17.9621 17.3365 17.9989C17.3263 18.0202 17.3154 18.0412 17.3047 18.0622C17.2918 18.0881 17.2787 18.114 17.2652 18.1395C17.2532 18.1621 17.2406 18.1842 17.2282 18.2065C17.2152 18.2294 17.2023 18.2522 17.1888 18.2748C17.1749 18.2984 17.1607 18.3218 17.1463 18.345C17.1341 18.3645 17.1216 18.3838 17.1091 18.403C17.0925 18.4284 17.0759 18.4538 17.0588 18.4788C17.0502 18.4912 17.0413 18.5033 17.0326 18.5156C16.4948 19.2747 15.6689 19.803 14.7393 19.9598C14.7384 19.96 14.7376 19.9602 14.7366 19.9603ZM23.5758 19.9603C23.5394 19.9664 23.5028 19.9715 23.4661 19.9764C23.4466 19.979 23.4272 19.9817 23.4076 19.9838C23.3786 19.9874 23.3495 19.9903 23.3203 19.9931C23.29 19.9958 23.2595 19.9981 23.2289 20C23.2071 20.0015 23.1853 20.0031 23.1633 20.0042C23.1091 20.0066 23.0547 20.0083 23 20.0083C22.9453 20.0083 22.8908 20.0066 22.8367 20.0042C22.8147 20.0031 22.793 20.0015 22.7712 20C22.7405 19.9981 22.71 19.9958 22.6796 19.9931C22.6505 19.9903 22.6214 19.9874 22.5925 19.9839C22.5728 19.9817 22.5533 19.979 22.5337 19.9763C22.4972 19.9715 22.4606 19.9664 22.4243 19.9603C22.4232 19.9602 22.422 19.96 22.4209 19.9597C21.4943 19.8032 20.6707 19.2776 20.1328 18.5221C20.1221 18.507 20.1112 18.4921 20.1006 18.4769C20.0849 18.4538 20.0695 18.4302 20.0541 18.4067C20.0402 18.3854 20.0263 18.3641 20.0129 18.3423C19.9995 18.3209 19.9864 18.2993 19.9735 18.2776C19.9588 18.2527 19.9444 18.2277 19.9304 18.2024C19.9191 18.1823 19.9076 18.1621 19.8967 18.1417C19.8814 18.1129 19.8668 18.0837 19.8522 18.0544C19.8431 18.0366 19.8338 18.0188 19.8252 18.0006C19.8035 17.9551 19.7827 17.9093 19.7628 17.8629C19.7537 17.8411 19.7452 17.8189 19.7363 17.7968C19.7258 17.7706 19.7152 17.7444 19.7052 17.7179C19.6949 17.6901 19.6852 17.662 19.6756 17.6339C19.6684 17.6134 19.6613 17.593 19.6546 17.5722C19.6444 17.5407 19.6347 17.5089 19.6254 17.4769C19.533 17.1618 19.4824 16.8289 19.4824 16.4844V14.2373H26.5176V16.4844C26.5176 16.8277 26.4674 17.1592 26.3758 17.4731C26.3658 17.5073 26.3553 17.5413 26.3443 17.5751C26.3386 17.5929 26.3325 17.6105 26.3264 17.6281C26.3159 17.6589 26.3052 17.6898 26.294 17.7201C26.2858 17.7417 26.277 17.7629 26.2685 17.7845C26.2548 17.8191 26.2407 17.8535 26.226 17.8876C26.2097 17.925 26.1931 17.9621 26.1757 17.9989C26.1655 18.0202 26.1546 18.0412 26.1439 18.0622C26.131 18.0881 26.1179 18.114 26.1044 18.1395C26.0924 18.1621 26.0798 18.1842 26.0674 18.2065C26.0544 18.2294 26.0415 18.2522 26.0281 18.2748C26.0141 18.2984 25.9999 18.3218 25.9855 18.345C25.9733 18.3645 25.9608 18.3838 25.9483 18.403C25.9317 18.4284 25.9151 18.4538 25.898 18.4788C25.8894 18.4912 25.8805 18.5033 25.8718 18.5156C25.334 19.2747 24.5081 19.803 23.5785 19.9598C23.5776 19.96 23.5768 19.9602 23.5758 19.9603ZM32.415 19.9603C32.3786 19.9664 32.342 19.9715 32.3054 19.9764C32.2858 19.979 32.2664 19.9817 32.2468 19.9838C32.2178 19.9874 32.1887 19.9903 32.1595 19.9931C32.1292 19.9958 32.0987 19.9981 32.0681 20C32.0463 20.0015 32.0245 20.0031 32.0026 20.0042C31.9484 20.0066 31.894 20.0083 31.8392 20.0083C31.7845 20.0083 31.73 20.0066 31.6759 20.0042C31.654 20.0031 31.6322 20.0015 31.6104 20C31.5797 19.9981 31.5492 19.9958 31.5188 19.9931C31.4897 19.9903 31.4607 19.9874 31.4317 19.9839C31.412 19.9817 31.3925 19.979 31.3729 19.9763C31.3364 19.9715 31.2998 19.9664 31.2635 19.9603C31.2624 19.9602 31.2612 19.96 31.2602 19.9597C30.3335 19.8032 29.5099 19.2776 28.972 18.5221C28.9613 18.507 28.9504 18.4921 28.9399 18.4769C28.9241 18.4538 28.9087 18.4302 28.8933 18.4067C28.8794 18.3854 28.8655 18.3641 28.8521 18.3423C28.8388 18.3209 28.8256 18.2993 28.8127 18.2776C28.798 18.2527 28.7836 18.2277 28.7696 18.2024C28.7583 18.1823 28.7468 18.1621 28.7359 18.1417C28.7206 18.1129 28.706 18.0837 28.6914 18.0544C28.6824 18.0366 28.673 18.0188 28.6644 18.0006C28.6428 17.9551 28.6219 17.9093 28.602 17.8629C28.5929 17.8411 28.5844 17.8189 28.5756 17.7968C28.565 17.7706 28.5545 17.7444 28.5444 17.7179C28.5341 17.6901 28.5244 17.662 28.5148 17.6339C28.5076 17.6134 28.5005 17.593 28.4938 17.5722C28.4837 17.5407 28.4739 17.5089 28.4646 17.4769C28.3722 17.1618 28.3216 16.8289 28.3216 16.4844V14.2373H35.3569V16.4844C35.3569 16.8277 35.3066 17.1592 35.215 17.4731C35.205 17.5073 35.1945 17.5413 35.1835 17.5751C35.1778 17.5929 35.1717 17.6105 35.1656 17.6281C35.1551 17.6589 35.1445 17.6898 35.1332 17.7201C35.1251 17.7417 35.1162 17.7629 35.1077 17.7845C35.094 17.8191 35.08 17.8535 35.0652 17.8876C35.0489 17.925 35.0323 17.9621 35.0149 17.9989C35.0047 18.0202 34.9938 18.0412 34.9831 18.0622C34.9702 18.0881 34.9571 18.114 34.9436 18.1395C34.9316 18.1621 34.9191 18.1842 34.9066 18.2065C34.8936 18.2294 34.8807 18.2522 34.8673 18.2748C34.8533 18.2984 34.8391 18.3218 34.8247 18.345C34.8125 18.3645 34.8 18.3838 34.7875 18.403C34.771 18.4284 34.7544 18.4538 34.7372 18.4788C34.7286 18.4912 34.7197 18.5033 34.7111 18.5156C34.1732 19.2747 33.3473 19.803 32.4177 19.9598C32.4168 19.96 32.416 19.9602 32.415 19.9603ZM45.9996 13.326C45.9993 13.2919 45.9968 13.2584 45.993 13.2253C45.9917 13.2155 45.99 13.2061 45.9885 13.1964C45.9843 13.1691 45.9791 13.1422 45.9724 13.1157C45.9702 13.1066 45.9681 13.0976 45.9655 13.0887C45.9562 13.0553 45.9453 13.0225 45.9323 12.9906C45.9317 12.9894 45.9314 12.9882 45.9309 12.9869C45.9167 12.9527 45.9002 12.9199 45.8819 12.8879C45.8806 12.8854 45.8795 12.8826 45.878 12.8799L41.5772 5.46155C41.5786 5.44076 41.5804 5.42025 41.5804 5.39911V0.903571C41.5804 0.404619 41.1765 0 40.6784 0H5.41176C4.9137 0 4.5098 0.404619 4.5098 0.903571V5.15984L0.118157 12.8866C0.117075 12.8885 0.116353 12.8906 0.115271 12.8924C0.097502 12.9242 0.0815373 12.9571 0.0675569 12.9911C0.0657529 12.9957 0.0643098 13.0003 0.0625059 13.0049C0.0512314 13.0338 0.0415804 13.0633 0.0332824 13.0935C0.0307569 13.1025 0.0284118 13.1116 0.0262471 13.1208C0.0197529 13.1479 0.0144314 13.1753 0.0104627 13.2033C0.0092 13.2118 0.00757647 13.2203 0.00649412 13.229C0.00252549 13.2634 0 13.2982 0 13.3337V16.4844C0 18.2886 0.900067 19.8851 2.27312 20.8501V39.4926C2.27312 39.9915 2.67702 40.3961 3.17508 40.3961H8.81504H17.6543H42.8536C43.3518 40.3961 43.7556 39.9915 43.7556 39.4926V20.8297C45.1124 19.8626 46 18.2758 46 16.4844V13.3337V13.3328C46 13.3306 45.9996 13.3282 45.9996 13.326ZM23.902 33.4005H36.8365V25.835H23.902V33.4005ZM37.7385 24.0279H23C22.5019 24.0279 22.098 24.4325 22.098 24.9315V34.3041C22.098 34.8031 22.5019 35.2076 23 35.2076H37.7385C38.2366 35.2076 38.6405 34.8031 38.6405 34.3041V24.9315C38.6405 24.4325 38.2366 24.0279 37.7385 24.0279ZM14.54 30.7982C13.7541 30.7982 13.1147 31.4388 13.1147 32.2261C13.1147 33.0133 13.7541 33.6538 14.54 33.6538C15.3259 33.6538 15.9652 33.0133 15.9652 32.2261C15.9652 31.4388 15.3259 30.7982 14.54 30.7982Z" fill="#053664"/>
</svg>
