<svg width="31" height="36" viewBox="0 0 31 36" fill="none" xmlns="http://www.w3.org/2000/svg">
<path d="M31 0.584906C31 0.564434 30.9901 0.547472 30.9883 0.527C30.9836 0.487226 30.9766 0.449208 30.9649 0.410604C30.9532 0.37434 30.9392 0.341585 30.9216 0.30883C30.9041 0.27666 30.8848 0.248 30.8608 0.21934C30.8351 0.187755 30.807 0.160849 30.7754 0.135113C30.7596 0.12283 30.7502 0.105283 30.7333 0.0941698C30.7187 0.0842264 30.7017 0.0836415 30.6865 0.0754528C30.652 0.0573207 30.6175 0.0444528 30.5795 0.0333396C30.5403 0.0216415 30.5017 0.0128679 30.4619 0.00994337C30.4461 0.00818866 30.4315 0 30.4151 0H10.5283C10.5201 0 10.5137 0.00409428 10.5055 0.00467919C10.464 0.0064339 10.4242 0.018132 10.3838 0.0292453C10.3499 0.0380188 10.3154 0.0426981 10.2838 0.0573208C10.2534 0.0713585 10.2282 0.0941698 10.2002 0.113472C10.1645 0.138623 10.1294 0.160849 10.1002 0.193019C10.0949 0.198868 10.0879 0.201208 10.0826 0.206472L0.139207 11.9046C0.12166 11.9256 0.115226 11.9508 0.101189 11.9736C0.0783773 12.0093 0.054981 12.0426 0.0403584 12.0836C0.0257357 12.1228 0.0216415 12.1631 0.0157924 12.2041C0.012283 12.2304 0 12.2549 0 12.283V34.5094C0 34.8329 0.261453 35.0943 0.584906 35.0943H8.18868H14.0377H22.8113C22.8119 35.0943 22.8119 35.0943 22.8125 35.0943C22.8809 35.0938 22.9476 35.078 23.0125 35.054C23.0283 35.0481 23.0435 35.0423 23.0587 35.0353C23.1184 35.0078 23.174 34.9733 23.2213 34.9253C23.2266 34.9206 23.2295 34.9142 23.2342 34.9095C23.2635 34.8779 23.2921 34.8458 23.3149 34.8072L30.9187 21.9392C30.9257 21.9275 30.9257 21.9147 30.931 21.903C30.9485 21.8679 30.9585 21.8316 30.9684 21.793C30.9795 21.7544 30.9895 21.7175 30.9918 21.6784C30.993 21.6655 31 21.6544 31 21.6415V0.584906ZM29.8302 21.4812L23.3962 32.3693V12.4567L29.8302 2.55838V21.4812ZM1.84947 11.6981L10.7985 1.16981H19.2545L10.8319 11.6981H1.84947ZM20.753 1.16981H29.3371L22.4937 11.6981H12.3304L20.753 1.16981ZM8.77359 33.9245V26.5629L10.6997 28.489C10.9284 28.7177 11.298 28.7177 11.5267 28.489L13.4528 26.5629V33.9245H8.77359ZM22.2264 33.9245H14.6226V25.1509C14.6226 24.9146 14.4805 24.7006 14.2618 24.6105C14.043 24.5192 13.7915 24.5695 13.6242 24.7374L11.1132 27.2484L8.60221 24.7374C8.43493 24.5695 8.18342 24.5192 7.96466 24.6105C7.74591 24.7006 7.60377 24.9146 7.60377 25.1509V33.9245H1.16981V12.8679H22.2264V33.9245Z" fill="#053664"/>
</svg>
