<svg width="63" height="39" viewBox="0 0 63 39" fill="none" xmlns="http://www.w3.org/2000/svg">
<path d="M58.43 0H4.56995C2.04995 0 0 2.03253 0 4.53112V34.4689C0 36.9675 2.04995 39 4.56995 39H58.43C60.9501 39 63 36.9675 63 34.4689V4.53112C63 2.03253 60.9501 0 58.43 0ZM4.56995 1.29461H58.43C60.2306 1.29461 61.6943 2.74715 61.6943 4.53112V6.95851H1.3057V4.53112C1.3057 2.74586 2.77069 1.29461 4.56995 1.29461ZM61.6943 8.25311V14.0788H1.3057V8.25311H61.6943ZM58.43 37.7054H4.56995C2.77069 37.7054 1.3057 36.2541 1.3057 34.4689V15.3734H61.6943V34.4689C61.6943 36.2528 60.2306 37.7054 58.43 37.7054Z" fill="#053664"/>
<path d="M58.43 0H4.56995C2.04995 0 0 2.03253 0 4.53112V34.4689C0 36.9675 2.04995 39 4.56995 39H58.43C60.9501 39 63 36.9675 63 34.4689V4.53112C63 2.03253 60.9501 0 58.43 0ZM4.56995 1.29461H58.43C60.2306 1.29461 61.6943 2.74715 61.6943 4.53112V6.95851H1.3057V4.53112C1.3057 2.74586 2.77069 1.29461 4.56995 1.29461ZM61.6943 8.25311V14.0788H1.3057V8.25311H61.6943ZM58.43 37.7054H4.56995C2.77069 37.7054 1.3057 36.2541 1.3057 34.4689V15.3734H61.6943V34.4689C61.6943 36.2528 60.2306 37.7054 58.43 37.7054Z" stroke="#053664"/>
</svg>
