<svg width="78" height="21" viewBox="0 0 78 21" fill="none" xmlns="http://www.w3.org/2000/svg">
<path d="M39.2002 3.91357C35.54 3.91357 34.1385 4.81691 33.2478 7.43453C33.217 7.52692 33.2709 7.62957 33.3659 7.65523L36.0045 8.38919C36.097 8.41486 36.1894 8.36097 36.2176 8.27114C36.328 7.89133 36.695 6.99313 37.6601 6.99313C38.6971 6.99313 39.9549 6.99313 40.4888 6.99313C41.0226 6.99313 41.5026 7.37037 41.5026 7.84257C41.5026 8.31477 41.4975 9.56969 41.4975 9.56969C41.4975 9.56969 39.1386 9.56969 37.0621 9.56969C34.8315 9.56969 32.6934 11.361 32.6934 14.0941C32.6934 16.6398 34.1077 18.5877 38.9153 18.5877C43.2198 18.5877 44.7933 16.9221 44.7933 14.6279C44.7933 12.3336 44.7933 9.69544 44.7933 8.31221C44.7933 6.92897 44.1028 3.91357 39.2002 3.91357ZM41.4616 14.6895C41.4616 15.0025 41.2742 15.5697 40.3296 15.5697C39.3876 15.5697 37.8475 15.5697 37.1878 15.5697C36.5282 15.5697 35.8993 14.8794 35.8993 14.0453C35.8993 13.2138 36.3074 12.5209 37.3136 12.5209C38.3198 12.5209 41.4616 12.5209 41.4616 12.5209C41.4616 12.5209 41.4616 14.3764 41.4616 14.6895Z" fill="#183863"/>
<path d="M71.4957 18.5183C75.156 18.5183 76.5575 17.615 77.4481 14.9974C77.479 14.905 77.425 14.8023 77.3301 14.7767L74.6914 14.0427C74.599 14.017 74.5066 14.0709 74.4784 14.1608C74.368 14.5406 74.0009 15.4388 73.0358 15.4388C71.9988 15.4388 70.7411 15.4388 70.2072 15.4388C69.6733 15.4388 69.1933 15.0615 69.1933 14.5893C69.1933 14.1171 69.1984 12.8622 69.1984 12.8622C69.1984 12.8622 71.5573 12.8622 73.6339 12.8622C75.8644 12.8622 78.0026 11.0709 78.0026 8.33782C78.0026 5.79206 76.5883 3.84424 71.7806 3.84424C67.4761 3.84424 65.9027 5.50976 65.9027 7.80403C65.9027 10.0983 65.9027 12.7365 65.9027 14.1197C65.9027 15.5004 66.5931 18.5183 71.4957 18.5183ZM69.0085 7.83996C69.0085 7.53971 69.1882 7.00078 70.0866 7.00078C70.9849 7.00078 72.6097 7.00078 73.2386 7.00078C74.0933 7.00078 74.4681 7.53971 74.4681 8.33269C74.4681 9.12568 74.3141 9.78521 73.1205 9.78521C72.1605 9.78521 69.0111 9.78521 69.0111 9.78521C69.0111 9.78521 69.0085 8.14022 69.0085 7.83996Z" fill="#183863"/>
<path d="M55.389 12.0436C57.6992 12.0436 59.632 8.79467 60.0093 8.11973C60.0504 8.04531 60.1299 7.99912 60.2172 7.99912C60.3481 7.99912 60.4533 8.10434 60.4533 8.23522V18.3285C60.4533 18.4722 60.5688 18.5877 60.7126 18.5877H63.5258C63.6695 18.5877 63.785 18.4722 63.785 18.3285V6.55943V6.52093C63.785 5.08124 62.6172 3.91357 61.1772 3.91357C59.7629 3.91357 59.0082 4.51152 58.1612 5.5791C57.3141 6.64668 55.8896 9.00511 55.3916 9.00511C54.8936 9.00511 53.4691 6.64668 52.6195 5.5791C51.7698 4.51152 51.0178 3.91357 49.6035 3.91357C48.1635 3.91357 46.9956 5.08124 46.9956 6.52093V6.55943V18.3285C46.9956 18.4722 47.1111 18.5877 47.2548 18.5877H50.0681C50.2118 18.5877 50.3273 18.4722 50.3273 18.3285V8.23522C50.3273 8.10434 50.4325 7.99912 50.5634 7.99912C50.6507 7.99912 50.7277 8.04531 50.7714 8.11973C51.1461 8.79467 53.0789 12.0436 55.389 12.0436Z" fill="#183863"/>
<path d="M14.1662 21C14.8772 21 15.56 20.7177 16.0631 20.2147L27.6008 8.67919C28.0706 8.20956 28.3324 7.57569 28.3324 6.91358V6.775C28.3324 6.1052 28.0629 5.46362 27.5854 4.99399L23.1526 0.636422C22.8214 0.310503 22.3774 0.128296 21.9128 0.128296H14.1662H6.41701C5.95241 0.128296 5.50836 0.310503 5.17724 0.636422L0.74694 4.99143C0.269514 5.46106 0 6.10263 0 6.77244V6.91102C0 7.57312 0.264381 8.20956 0.731539 8.67663L12.2693 20.2147C12.7724 20.7177 13.4552 21 14.1662 21Z" fill="#183863"/>
<path d="M6.24503 0.135995L6.2399 0.169357C6.74299 0.169357 7.23068 0.356696 7.60544 0.692881L12.8186 5.3892C13.1035 5.64583 13.4706 5.78698 13.853 5.78698H14.1662H14.4793C14.8618 5.78698 15.2288 5.64583 15.5138 5.3892L20.7269 0.692881C21.1017 0.356696 21.5868 0.169357 22.0925 0.169357C22.0925 0.169357 22.0899 0.156525 22.0873 0.133428C22.0283 0.130862 21.9718 0.128296 21.9128 0.128296H14.1662H6.41701C6.36054 0.128296 6.3015 0.130862 6.24503 0.135995Z" fill="#CAE1F5" stroke="#183863" stroke-miterlimit="10"/>
</svg>
