<svg width="40" height="38" viewBox="0 0 40 38" fill="none" xmlns="http://www.w3.org/2000/svg">
<path d="M26.9406 27.6272C24.8594 29.7084 19.5699 27.7917 15.1277 23.3495C10.6855 18.9073 8.76882 13.6179 10.8501 11.5366L13.0053 9.38134C13.3838 9.00293 13.9925 9.00293 14.3709 9.38134L16.5755 11.586C16.9539 11.9644 16.9539 12.5731 16.5755 12.9515L15.0784 14.4487C13.9185 15.6086 14.9385 18.5454 17.4064 21.0215C19.8743 23.4976 22.8769 24.567 24.0368 23.4071L25.5257 21.9099C25.9041 21.5315 26.5129 21.5315 26.8913 21.9099L29.0959 24.1146C29.4743 24.493 29.4743 25.1017 29.0959 25.4801L26.9406 27.6272Z" fill="#053664"/>
<path d="M26.0686 26.7552C26.0193 26.7963 25.756 27.0102 25.9288 26.8868C26.1098 26.7634 25.8054 26.9608 25.7643 26.9855C25.7067 27.0184 25.5833 27.1089 25.5093 27.1089C25.6409 27.1089 25.7396 27.0349 25.5997 27.0678C25.5257 27.0842 25.4599 27.1171 25.3941 27.1336C25.2954 27.1583 25.1967 27.1829 25.0979 27.1994C24.7524 27.2734 25.2872 27.1994 24.9992 27.2158C24.736 27.2323 24.4728 27.2405 24.2013 27.2241C24.0861 27.2158 23.9627 27.1994 23.8476 27.1912C24.1931 27.2241 23.7488 27.1665 23.6666 27.15C23.3704 27.0924 23.0825 27.0184 22.7946 26.9279C22.5067 26.8374 22.2188 26.7387 21.9308 26.6318C21.865 26.6071 21.791 26.5742 21.7252 26.5495C21.9391 26.64 21.7087 26.5413 21.6511 26.5166C21.4702 26.4343 21.2974 26.3521 21.1247 26.2698C19.7509 25.587 18.484 24.7151 17.3899 23.7773C16.7154 23.2014 16.082 22.5927 15.4732 21.951C14.9303 21.3752 14.3298 20.676 13.9267 20.133C13.4742 19.5161 13.0465 18.8826 12.6681 18.2163C12.4953 17.9202 12.3308 17.6076 12.1827 17.3032C12.1169 17.1634 12.0429 17.0235 11.9853 16.8754C11.9935 16.8919 11.8372 16.5464 11.9113 16.7109C11.9688 16.8508 11.8537 16.5711 11.8454 16.5464C11.6151 15.9705 11.4341 15.3783 11.319 14.7695C11.3025 14.6626 11.2532 14.35 11.2861 14.6379C11.2696 14.5063 11.2532 14.3747 11.2449 14.2348C11.2285 13.9716 11.2532 13.7083 11.2532 13.4451C11.2532 13.3299 11.2038 13.3217 11.2367 13.5356C11.2285 13.5027 11.2532 13.4204 11.2614 13.3875C11.2861 13.2806 11.3107 13.1654 11.3436 13.0585C11.3601 13.0091 11.3766 12.968 11.3848 12.9186C11.4506 12.68 11.3766 12.9926 11.3519 12.9762C11.3354 12.968 11.4999 12.68 11.5164 12.6636C11.5411 12.6225 11.574 12.5896 11.5904 12.5484C11.6645 12.4086 11.5329 12.5649 11.5246 12.6307C11.5411 12.5649 11.6645 12.4662 11.7138 12.425C11.7714 12.3674 11.8208 12.3181 11.8784 12.2605C12.4706 11.6682 13.0629 11.0759 13.647 10.4919C13.6799 10.459 13.8444 10.3356 13.8527 10.2862C13.8527 10.2862 13.7375 10.3356 13.6881 10.3602C13.7704 10.3273 13.8856 10.352 13.6717 10.352C13.5401 10.3273 13.5154 10.3191 13.6059 10.3438C13.6881 10.3685 13.6717 10.3602 13.5565 10.3273C13.5483 10.2862 13.4578 10.2368 13.5894 10.3767C13.7046 10.5001 13.8362 10.6235 13.9514 10.7386C14.2722 11.0595 14.6012 11.3885 14.9221 11.7093C15.1442 11.9315 15.3745 12.2523 15.6295 12.4168C15.6295 12.4168 15.6707 12.4662 15.6789 12.4662C15.6378 12.4744 15.5966 12.3016 15.5966 12.2934C15.6295 12.3592 15.6213 12.5073 15.6048 12.277C15.5966 12.1947 15.6871 12.0713 15.5966 12.2605C15.5884 12.277 15.6542 12.0713 15.6789 12.0878C15.6707 12.0878 15.6213 12.1453 15.6131 12.1536C15.3005 12.425 15.0208 12.7459 14.7329 13.0338C14.519 13.2477 14.2886 13.4533 14.0912 13.6836C13.6305 14.2101 13.4167 14.8353 13.3591 15.5263C13.2357 16.8672 13.8444 18.2739 14.5272 19.3927C15.4568 20.931 16.7236 22.239 18.1632 23.3084C20.047 24.7068 23.0825 26.0971 25.0486 24.1228C25.3612 23.8102 25.682 23.4893 25.9946 23.1767C26.1016 23.0698 26.2167 22.9711 26.3154 22.8559C26.3154 22.8559 26.3812 22.7983 26.3812 22.7901C26.3895 22.823 26.2167 22.8724 26.2085 22.8724C26.373 22.7983 26.2332 22.8312 26.1345 22.8559C26.118 22.8559 26.0933 22.8477 26.0769 22.8477C26.2167 22.8888 26.2167 22.8888 26.0769 22.8477C26.0769 22.8395 26.0028 22.7983 26.0028 22.7983C26.0028 22.7983 26.044 22.8395 26.0522 22.8477C26.1262 22.9629 26.2661 23.0616 26.3566 23.1521C26.6692 23.4647 26.99 23.7855 27.3026 24.0981C27.5741 24.3696 27.8291 24.6492 28.1088 24.9043C28.2157 25.003 28.1992 25.0359 28.1334 24.8714C28.0759 24.7315 28.1252 25.1181 28.1252 24.8055C28.1252 24.7233 28.2075 24.6081 28.117 24.7891C28.1417 24.7315 28.2157 24.6328 28.1828 24.6328C28.1334 24.6328 28.0183 24.7973 27.9854 24.8302C27.8373 24.9783 27.6892 25.1264 27.5494 25.2662C27.2121 25.6035 26.883 25.9325 26.5458 26.2698C26.4059 26.4261 26.2332 26.5906 26.0686 26.7552C25.5997 27.2241 25.5997 28.0302 26.0686 28.4991C26.5375 28.968 27.3437 28.968 27.8126 28.4991C28.3555 27.9562 28.8985 27.4133 29.4414 26.8703C29.6388 26.6729 29.8527 26.4755 30.0419 26.2616C30.8152 25.3732 30.7658 24.0899 29.9679 23.2343C29.4414 22.6749 28.882 22.1485 28.3391 21.6055C28.1499 21.4163 27.9689 21.2189 27.7715 21.0379C26.9159 20.2482 25.6327 20.1824 24.7442 20.9639C24.1931 21.4492 23.683 22.0004 23.173 22.5269C23.1319 22.568 22.9591 22.6832 23.1319 22.5762C23.3211 22.4528 23.1072 22.5845 23.0825 22.5927C22.918 22.6585 23.1895 22.6009 23.1812 22.5598C23.1812 22.568 22.8357 22.6749 22.8275 22.6585C22.8193 22.642 23.1648 22.642 22.918 22.642C22.8357 22.642 22.7535 22.6503 22.6712 22.6503C22.6136 22.6503 22.556 22.6503 22.4985 22.642C22.4738 22.642 22.1941 22.6009 22.3915 22.6338C22.6054 22.6667 22.2928 22.6091 22.2763 22.6091C22.2105 22.5927 22.1447 22.5845 22.0871 22.568C21.9226 22.5269 21.7581 22.4775 21.5936 22.4199C21.5278 22.3953 21.4537 22.3706 21.3879 22.3459C21.0506 22.2225 21.5936 22.4528 21.2645 22.2965C20.9355 22.1402 20.6146 21.9675 20.302 21.7783C19.9648 21.5726 19.5617 21.2929 19.3478 21.1284C18.6321 20.5608 17.9987 19.9109 17.4064 19.2117C17.2501 19.0307 17.0033 18.677 16.8059 18.3808C16.5838 18.0353 16.3863 17.6816 16.2136 17.3114C16.1807 17.2456 16.1478 17.1716 16.1231 17.1058C16.2136 17.3197 16.1231 17.0975 16.1066 17.04C16.0573 16.8919 15.9997 16.7438 15.9586 16.5957C15.9174 16.4559 15.8928 16.3078 15.8599 16.168C15.8434 16.0857 15.8352 15.8718 15.8599 16.1762C15.8516 16.0857 15.8434 16.0035 15.8434 15.913C15.8434 15.7896 15.8599 15.6662 15.8516 15.5428C15.8434 15.3865 15.7529 15.8307 15.8516 15.6004C15.8681 15.5592 15.8763 15.4934 15.8928 15.4605C15.9668 15.1397 15.7941 15.625 15.9257 15.3947C16.0573 15.1644 15.7282 15.5675 15.9668 15.3371C16.23 15.0821 16.4851 14.8189 16.7401 14.5639C16.9786 14.3253 17.2336 14.095 17.464 13.8399C18.2619 12.9844 18.3195 11.7011 17.538 10.8127C17.028 10.2286 16.4357 9.70214 15.8845 9.15098C15.6789 8.94532 15.4815 8.73144 15.2676 8.53401C14.5108 7.82655 13.3673 7.66203 12.4871 8.26254C11.7879 8.73967 11.2203 9.46358 10.628 10.0559C9.99454 10.6893 9.4187 11.2816 9.08965 12.1371C8.65366 13.2806 8.7606 14.5968 9.03207 15.7731C9.36934 17.2374 10.0439 18.6359 10.8254 19.9109C12.7174 23.004 15.4239 25.7104 18.5005 27.6272C19.7673 28.4169 21.1576 29.0914 22.6054 29.4534C23.7817 29.7495 25.1144 29.8811 26.2825 29.4698C26.8666 29.2642 27.3848 28.9598 27.8373 28.5238C28.3144 28.0631 28.3062 27.2487 27.8373 26.7799C27.3355 26.278 26.5458 26.2945 26.0686 26.7552Z" fill="#053664"/>
<path d="M7.78991 32.5054C10.8748 35.3434 14.774 37.0874 18.9529 37.474C22.556 37.8113 26.2332 37.038 29.4167 35.3434C35.6193 32.0529 39.5433 25.3238 39.3541 18.3068C39.1813 11.3474 35.0106 4.81577 28.6928 1.83787C25.5093 0.332464 21.9226 -0.300957 18.4182 0.135034C14.8563 0.571026 11.5575 1.96126 8.76061 4.20703C2.92819 8.87132 0.468543 16.9084 2.57446 24.057C2.88706 25.1182 3.3066 26.1547 3.79195 27.1501C3.79195 26.7387 3.79195 26.3192 3.79195 25.9079C2.73076 27.948 1.66958 29.9799 0.608389 32.02C0.452091 32.3162 0.304018 32.6041 0.147719 32.9002C-0.345856 33.8545 0.468543 34.9815 1.53796 34.71C3.70969 34.1588 5.88965 33.6077 8.06138 33.0565C8.36575 32.9825 8.67835 32.9002 8.98272 32.8262C9.63259 32.6617 10.0192 31.9377 9.84648 31.3043C9.6655 30.6462 8.97449 30.276 8.32462 30.4406C6.15289 30.9917 3.97293 31.5429 1.8012 32.094C1.49683 32.1681 1.18423 32.2503 0.879856 32.3244C1.34053 32.9249 1.80942 33.5336 2.27009 34.1342C3.23257 32.3244 4.17858 30.5064 5.1246 28.6801C5.33849 28.2771 5.54414 27.874 5.75803 27.4709C5.80738 27.3804 5.85674 27.2817 5.9061 27.1912C5.939 27.1254 5.95546 27.0925 5.98836 27.0102C6.21047 26.4591 5.97191 26.0231 5.74157 25.5295C4.78733 23.4811 4.28553 21.0873 4.28553 18.7757C4.28553 18.2986 4.30198 17.8133 4.34311 17.3361C4.35956 17.1058 4.38424 16.8837 4.40892 16.6534C4.41715 16.5958 4.42537 16.5382 4.4336 16.4806C4.4336 16.4971 4.40892 16.678 4.42537 16.53C4.44182 16.3983 4.4665 16.2667 4.48296 16.1433C4.63926 15.2138 4.87782 14.2924 5.18219 13.3958C5.25622 13.1901 5.33026 12.9844 5.4043 12.7788C5.44543 12.6801 5.48656 12.5731 5.52769 12.4744C5.57705 12.3428 5.51946 12.4991 5.51124 12.5156C5.53592 12.4497 5.56882 12.3839 5.60173 12.3181C5.78271 11.9068 5.98836 11.4955 6.20224 11.0924C6.63001 10.2945 7.12358 9.53765 7.66652 8.82196C7.74878 8.70679 7.65006 8.83841 7.64184 8.85487C7.67474 8.81374 7.70765 8.7726 7.74055 8.73147C7.80636 8.64921 7.87217 8.56695 7.94621 8.47646C8.09428 8.29548 8.25058 8.12273 8.40688 7.94175C8.70303 7.60448 9.01562 7.28365 9.34467 6.97105C9.68195 6.65023 10.0357 6.33763 10.3976 6.04149C10.4799 5.97568 10.5622 5.90987 10.6526 5.83583C10.7596 5.74534 10.628 5.85228 10.6197 5.86051C10.6609 5.8276 10.702 5.7947 10.7514 5.76179C10.9406 5.62195 11.1298 5.4821 11.319 5.35048C12.0676 4.84045 12.8491 4.38801 13.6635 3.99315C13.8609 3.90266 14.0583 3.81217 14.2557 3.72168C14.4696 3.62297 14.1406 3.76281 14.3627 3.68055C14.4779 3.63119 14.6013 3.59006 14.7164 3.5407C15.1442 3.37618 15.5802 3.22811 16.0244 3.10471C16.4686 2.97309 16.9211 2.86615 17.3735 2.76744C17.6121 2.71808 17.8506 2.67695 18.0892 2.63582C18.2044 2.61936 18.3113 2.60291 18.4265 2.58646C18.1961 2.61936 18.5252 2.57823 18.6074 2.56178C19.5617 2.45484 20.5242 2.42193 21.4784 2.47129C21.9555 2.49597 22.4244 2.5371 22.9015 2.59469C22.6877 2.57001 22.9427 2.60291 23.0167 2.61114C23.1319 2.62759 23.2388 2.64404 23.3458 2.66872C23.5843 2.70985 23.8229 2.75921 24.0614 2.80857C24.9581 3.006 25.8465 3.27746 26.7021 3.61474C26.7514 3.63119 27.0147 3.73813 26.9077 3.697C26.8008 3.65587 27.064 3.76281 27.1134 3.78749C27.3437 3.89443 27.5741 4.00137 27.8044 4.11654C28.2075 4.3222 28.6023 4.53608 28.9972 4.76642C29.3838 4.99675 29.7622 5.24354 30.1324 5.50678C30.2229 5.57259 30.3052 5.63017 30.3957 5.69598C30.4368 5.72889 30.6589 5.89341 30.5684 5.8276C30.4779 5.76179 30.7 5.93454 30.7412 5.96745C30.8399 6.04971 30.9386 6.12375 31.0291 6.20601C31.7119 6.78185 32.3617 7.41527 32.9458 8.08982C33.0857 8.25435 33.2255 8.41887 33.3653 8.5834C33.4312 8.66566 33.497 8.74793 33.571 8.83841C33.4312 8.66566 33.6286 8.92068 33.6697 8.97826C33.9412 9.34022 34.188 9.7104 34.4265 10.097C34.6733 10.4919 34.9119 10.9032 35.1258 11.3227C35.2245 11.5202 35.3232 11.7094 35.4137 11.9068C35.463 12.0055 35.5042 12.1042 35.5535 12.203C35.5782 12.2523 35.5947 12.3017 35.6193 12.351C35.6276 12.3757 35.7181 12.5814 35.6605 12.458C35.6193 12.351 35.7263 12.6225 35.7427 12.6636C35.7839 12.7623 35.825 12.8693 35.8579 12.968C35.9402 13.1901 36.0224 13.4204 36.0965 13.6425C36.2363 14.0785 36.3679 14.5228 36.4749 14.9752C36.5818 15.4276 36.6723 15.8883 36.7463 16.349C36.7546 16.423 36.7957 16.6863 36.7628 16.4642C36.7792 16.5793 36.7875 16.6863 36.8039 16.8014C36.8286 17.0482 36.8533 17.295 36.8697 17.5418C36.9355 18.5207 36.9191 19.4996 36.8286 20.4786C36.8204 20.5937 36.8039 20.7007 36.7957 20.8158C36.7875 20.8981 36.7463 21.1531 36.7792 20.9392C36.7463 21.1778 36.7052 21.4246 36.6641 21.6631C36.5818 22.1238 36.4749 22.5763 36.3515 23.0205C36.2281 23.4647 36.0965 23.9007 35.9402 24.3367C35.8661 24.5423 35.7839 24.748 35.7098 24.9536C35.6934 25.003 35.6687 25.0524 35.644 25.1099C35.6522 25.0935 35.7181 24.9372 35.6605 25.0688C35.6111 25.184 35.5618 25.2992 35.5042 25.4143C35.1258 26.2369 34.6898 27.0349 34.188 27.7835C34.0728 27.9645 33.9494 28.1454 33.8178 28.3182C33.752 28.4087 33.6944 28.4909 33.6286 28.5814C33.5957 28.6226 33.5628 28.6637 33.5299 28.7131C33.4147 28.8611 33.645 28.5732 33.5216 28.7213C33.2337 29.0915 32.9294 29.4452 32.6085 29.7907C31.9998 30.4488 31.3417 31.0575 30.6342 31.6251C30.5931 31.6581 30.552 31.691 30.5108 31.7239C30.5273 31.7156 30.6589 31.6087 30.5437 31.6992C30.4533 31.765 30.371 31.8308 30.2805 31.8884C30.0913 32.0282 29.9021 32.1599 29.7047 32.2915C29.3263 32.5465 28.9478 32.7768 28.553 32.9989C28.1581 33.221 27.755 33.4267 27.3437 33.6159C27.245 33.6653 27.1463 33.7064 27.0476 33.7475C26.9818 33.7804 26.7432 33.8709 26.9406 33.7969C26.7185 33.8874 26.4964 33.9696 26.2743 34.0519C25.3859 34.3727 24.4728 34.6277 23.5514 34.8005C23.3293 34.8416 23.1072 34.8745 22.8851 34.9156C22.6465 34.9568 23.0085 34.9074 22.7617 34.9321C22.6301 34.9486 22.4985 34.965 22.3668 34.9732C21.8897 35.0226 21.4126 35.0473 20.9355 35.0555C20.3843 35.0637 19.8332 35.0555 19.2902 35.0144C19.0188 34.9979 18.7473 34.965 18.484 34.9403C18.336 34.9239 18.4511 34.9403 18.4758 34.9403C18.41 34.9321 18.3442 34.9239 18.2784 34.9074C18.1221 34.8827 17.974 34.8581 17.8177 34.8334C15.5884 34.4385 13.7622 33.7311 11.8784 32.5465C11.4424 32.275 11.0228 31.9789 10.6115 31.6663C10.4963 31.584 10.5868 31.6416 10.6115 31.6663C10.5622 31.6251 10.5128 31.584 10.4634 31.5429C10.3647 31.4606 10.266 31.3784 10.1673 31.2961C9.95342 31.1151 9.74776 30.9341 9.5421 30.7449C9.04853 30.2925 8.28349 30.2596 7.79814 30.7449C7.33747 31.2221 7.29634 32.0529 7.78991 32.5054Z" fill="#053664"/>
</svg>
