<svg width="38" height="40" viewBox="0 0 38 40" fill="none" xmlns="http://www.w3.org/2000/svg">
<path d="M2.8669 20C2.86753 16.8332 3.82824 13.7404 5.62309 11.1271C7.41794 8.51379 9.96318 6.50192 12.9252 5.35521C15.8872 4.20849 19.1277 3.98044 22.222 4.70094C25.3163 5.42144 28.12 7.05688 30.2655 9.39287L23.9154 11.5029C23.7366 11.5622 23.5712 11.656 23.4288 11.7789C23.2863 11.9019 23.1696 12.0516 23.0852 12.2196C23.0008 12.3875 22.9504 12.5704 22.9369 12.7577C22.9235 12.9451 22.9471 13.1332 23.0066 13.3114C23.0661 13.4897 23.1602 13.6545 23.2836 13.7964C23.407 13.9384 23.5573 14.0548 23.7258 14.1389C23.8943 14.223 24.0778 14.2732 24.2657 14.2866C24.4537 14.3 24.6425 14.2764 24.8214 14.2172L33.4219 11.36C33.7082 11.265 33.9571 11.0824 34.1331 10.8382C34.3091 10.594 34.4034 10.3007 34.4024 10V1.42857C34.4024 1.04969 34.2514 0.686329 33.9826 0.418419C33.7137 0.15051 33.3491 0 32.969 0C32.5888 0 32.2242 0.15051 31.9554 0.418419C31.6866 0.686329 31.5355 1.04969 31.5355 1.42857V6.64715C28.9089 4.11283 25.5911 2.4062 21.9967 1.74054C18.4024 1.07487 14.6908 1.47971 11.326 2.90445C7.96121 4.32919 5.09234 6.71065 3.07795 9.75119C1.06356 12.7917 -0.00701139 16.3565 3.45569e-05 20C3.45569e-05 20.3789 0.151056 20.7423 0.419877 21.0102C0.688698 21.2781 1.0533 21.4286 1.43347 21.4286C1.81364 21.4286 2.17824 21.2781 2.44706 21.0102C2.71588 20.7423 2.8669 20.3789 2.8669 20Z" fill="#053664"/>
<path d="M35.8358 18.5714C35.4557 18.5714 35.0911 18.7219 34.8222 18.9898C34.5534 19.2577 34.4024 19.6211 34.4024 20C34.4018 23.1668 33.4411 26.2596 31.6462 28.8729C29.8514 31.4862 27.3061 33.4981 24.3441 34.6448C21.3821 35.7915 18.1416 36.0196 15.0473 35.2991C11.953 34.5786 9.14931 32.9431 7.00378 30.6071L13.3539 28.4971C13.5327 28.4379 13.6981 28.344 13.8405 28.2211C13.983 28.0981 14.0997 27.9484 14.1841 27.7804C14.2685 27.6125 14.3189 27.4296 14.3324 27.2423C14.3458 27.0549 14.3222 26.8668 14.2627 26.6886C14.2032 26.5103 14.1091 26.3455 13.9857 26.2036C13.8623 26.0616 13.712 25.9452 13.5435 25.8611C13.375 25.777 13.1915 25.7268 13.0036 25.7134C12.8156 25.7 12.6268 25.7236 12.448 25.7828L3.84736 28.64C3.56111 28.735 3.31224 28.9176 3.1362 29.1618C2.96016 29.406 2.86591 29.6993 2.86689 30V38.5714C2.86689 38.9503 3.01791 39.3137 3.28673 39.5816C3.55555 39.8495 3.92015 40 4.30032 40C4.68049 40 5.04509 39.8495 5.31391 39.5816C5.58273 39.3137 5.73375 38.9503 5.73375 38.5714V33.3529C8.36037 35.8872 11.6782 37.5938 15.2726 38.2595C18.867 38.9251 22.5785 38.5203 25.9433 37.0956C29.3081 35.6708 32.177 33.2894 34.1914 30.2488C36.2057 27.2083 37.2763 23.6435 37.2693 20C37.2693 19.6211 37.1182 19.2577 36.8494 18.9898C36.5806 18.7219 36.216 18.5714 35.8358 18.5714Z" fill="#053664"/>
</svg>
