<svg width="23" height="26" viewBox="0 0 23 26" fill="none" xmlns="http://www.w3.org/2000/svg">
<path d="M11.5 13.8667C5.15906 13.8667 0 18.9211 0 25.1333C0 25.6117 0.396334 26 0.884641 26C1.37295 26 1.76928 25.6117 1.76928 25.1333C1.76928 19.8761 6.13394 15.6 11.5 15.6C16.8661 15.6 21.2307 19.8761 21.2307 25.1333C21.2307 25.6117 21.6271 25.9999 22.1154 25.9999C22.6037 25.9999 23 25.6117 23 25.1333C23 18.9211 17.8409 13.8667 11.5 13.8667Z" fill="black"/>
<path d="M11.5 0C8.08542 0 5.30768 2.72129 5.30768 6.06666C5.30768 9.41203 8.08533 12.1333 11.5 12.1333C14.9147 12.1333 17.6923 9.41195 17.6923 6.06666C17.6923 2.72137 14.9147 0 11.5 0ZM11.5 10.3999C9.06203 10.3999 7.07696 8.45515 7.07696 6.06666C7.07696 3.67817 9.06203 1.73338 11.5 1.73338C13.938 1.73338 15.923 3.67817 15.923 6.06666C15.923 8.45515 13.938 10.3999 11.5 10.3999Z" fill="black"/>
</svg>
