<svg width="22" height="26" viewBox="0 0 22 26" fill="none" xmlns="http://www.w3.org/2000/svg">
<path d="M21.9934 22.5001L20.4121 5.69198C20.3792 5.33701 20.0629 5.06922 19.6873 5.06922H16.4061C16.3798 2.26683 13.9617 0 10.9967 0C8.03175 0 5.61366 2.26683 5.5873 5.06922H2.30608C1.93052 5.06922 1.61426 5.34323 1.58131 5.69198L0 22.5001C0 22.5188 0 22.5375 0 22.5624C0 24.4556 1.83828 26 4.10482 26H17.8952C20.1551 26 22 24.4618 22 22.5624C22 22.5375 22 22.5188 21.9934 22.5001ZM11.0033 1.37006C13.171 1.37006 14.9368 3.02659 14.9632 5.06922H7.03684C7.06319 3.02659 8.82899 1.37006 11.0033 1.37006ZM17.8952 24.6237H4.10482C2.65529 24.6237 1.4693 23.7145 1.44954 22.5873L2.96496 6.43928H5.58071V8.65629C5.58071 9.03617 5.90356 9.34132 6.30548 9.34132C6.7074 9.34132 7.03025 9.03617 7.03025 8.65629V6.43928H14.9566V8.65629C14.9566 9.03617 15.2794 9.34132 15.6813 9.34132C16.0833 9.34132 16.4061 9.03617 16.4061 8.65629V6.43928H19.0219L20.5373 22.5873C20.5307 23.7145 19.3447 24.6237 17.8952 24.6237Z" fill="black"/>
</svg>
